G04 DipTrace 3.0.0.2*
G04 BoardOutline.gbr*
%MOIN*%
G04 #@! TF.FileFunction,Profile*
G04 #@! TF.Part,Single*
%ADD11C,0.006*%
%FSLAX26Y26*%
G04*
G70*
G90*
G75*
G01*
G04 BoardOutline*
%LPD*%
X2801928Y4012463D2*
D11*
G02X2801928Y4012463I201772J0D01*
G01*
X2531966Y5041008D2*
X2395584D1*
X2791026Y5371602D2*
X2634252Y5100063D1*
X2806849Y5430657D2*
Y6439896D1*
X3200550D2*
Y5430657D1*
X3373147Y5100063D2*
X3216373Y5371602D1*
X3611815Y5041008D2*
X3475433D1*
X4130312Y3906723D2*
X4198503Y4024833D1*
X4287085Y3517075D2*
X4130312Y3788614D1*
X4330318Y3473843D2*
X5204344Y2969223D1*
X5007493Y2628269D2*
X4133467Y3132888D1*
X3760865Y3148713D2*
X4074412D1*
X3590388Y2971547D2*
X3658579Y3089657D1*
X2348820D2*
X2417010Y2971547D1*
X1932987Y3148713D2*
X2246534D1*
X1873932Y3132888D2*
X999906Y2628269D1*
X803055Y2969223D2*
X1677081Y3473843D1*
X1877087Y3788614D2*
X1720314Y3517075D1*
X1808896Y4024833D2*
X1877087Y3906723D1*
X2395584Y5041008D2*
G03X2293298Y4981953I-3J-118104D01*
G01*
X2531966Y5041008D2*
G03X2634252Y5100063I-1J118111D01*
G01*
X2791026Y5371602D2*
G03X2806849Y5430657I-102282J59052D01*
G01*
X2891717Y6553232D2*
G03X2806849Y6439896I33242J-113335D01*
G01*
X3200550Y5430657D2*
G03X3216373Y5371602I118105J-3D01*
G01*
X3373147Y5100063D2*
G03X3475433Y5041008I102287J59056D01*
G01*
X4130312Y3906723D2*
G03X4130312Y3788614I102281J-59054D01*
G01*
X4287085Y3517075D2*
G03X4330318Y3473843I102289J59057D01*
G01*
X4133467Y3132888D2*
G03X4074412Y3148713I-59057J-102290D01*
G01*
X3760865D2*
G03X3658579Y3089657I1J-118111D01*
G01*
X3488102Y2912492D2*
G03X3590388Y2971547I-1J118111D01*
G01*
X2417010D2*
G03X2519297Y2912492I102287J59056D01*
G01*
X2348820Y3089657D2*
G03X2246534Y3148713I-102287J-59056D01*
G01*
X1932987D2*
G03X1873932Y3132888I2J-118114D01*
G01*
X1677081Y3473843D2*
G03X1720314Y3517075I-59057J102289D01*
G01*
X1877087Y3788614D2*
G03X1877087Y3906723I-102281J59054D01*
G01*
X1808896Y4142944D2*
G03X1808896Y4024833I102284J-59055D01*
G01*
X2116285Y4675357D2*
X1985909Y4449541D1*
X1861285Y4233684D2*
X1808896Y4142944D1*
X1780744Y4280184D2*
X1728356Y4189444D1*
X2212757Y5028453D2*
X2160369Y4937714D1*
X1861285Y4233684D2*
G03X1780744Y4280184I-40271J23249D01*
G01*
X1905369Y4496041D2*
G03X1985909Y4449541I40270J-23250D01*
G01*
X2160369Y4937714D2*
G03X2240909Y4891214I40270J-23250D01*
G01*
X2116285Y4675357D2*
G03X2035744Y4721857I-40271J23249D01*
G01*
X2240909Y4891214D2*
X2293298Y4981953D1*
X1905369Y4496041D2*
X2035744Y4721857D1*
X3134075Y2912492D2*
X2873324D1*
X2624075D2*
X2519297D1*
X2624075Y2819492D2*
X2519297D1*
X3488102D2*
X3383324D1*
X2624075D2*
G03X2624075Y2912492I0J46500D01*
G01*
X2873324D2*
G03X2873324Y2819492I0J-46500D01*
G01*
X3383324Y2912492D2*
G03X3383324Y2819492I0J-46500D01*
G01*
X3134075D2*
G03X3134075Y2912492I0J46500D01*
G01*
X3383324D2*
X3488102D1*
X2873324Y2819492D2*
X3134075D1*
X2879075Y6651007D2*
X2337383D1*
X2088133D2*
X1087383D1*
G03X1087383Y6558007I0J-46500D01*
G01*
X838133D2*
G03X838133Y6651007I0J46500D01*
G01*
X394000D1*
X2925575Y6604507D2*
G03X2879075Y6651007I-46500J0D01*
G01*
X838133Y6558007D2*
X394000D1*
X2088133D2*
X1087383D1*
X2925575Y6604507D2*
X2925484Y6597710D1*
X2891717Y6553232D2*
G03X2925484Y6597710I-13227J45099D01*
G01*
X3081824Y6604507D2*
X3081915Y6597710D1*
G03X3115682Y6553232I46995J621D01*
G01*
X2713849Y5430657D2*
Y6439896D1*
X2749982Y6558007D2*
X2337383D1*
X2749982D2*
G03X2713849Y6439896I174966J-118108D01*
G01*
X2710486Y5418102D2*
X2553713Y5146563D1*
X2531966Y5134008D2*
X2395584D1*
X2531966D2*
G03X2553713Y5146563I-3J25116D01*
G01*
X2710486Y5418102D2*
G03X2713849Y5430657I-21758J12557D01*
G01*
X2395584Y5134008D2*
G03X2212757Y5028453I0J-211110D01*
G01*
X2087757Y6558007D2*
X2097257D1*
X2337383Y6651007D2*
G03X2337383Y6558007I0J-46500D01*
G01*
X2088133D2*
G03X2088133Y6651007I0J46500D01*
G01*
X1630581Y3554383D2*
X756555Y3049764D1*
X1639773Y3563575D2*
X1796546Y3835114D1*
Y3860223D2*
X1728356Y3978333D1*
X1796546Y3835114D2*
G03X1796546Y3860223I-21738J12554D01*
G01*
X1630581Y3554383D2*
G03X1639773Y3563575I-12558J21749D01*
G01*
X1728356Y4189444D2*
G03X1728356Y3978333I182826J-105555D01*
G01*
X858135Y2646245D2*
G03X999906Y2628269I82715J84309D01*
G01*
X394000Y6651007D2*
Y6958007D1*
X933971Y2519558D2*
G03X1046406Y2547728I6880J210999D01*
G01*
X858135Y2646245D2*
G03X786948Y2588210I-30900J-34775D01*
G01*
X1920432Y3052349D2*
X1046406Y2547728D1*
X1932987Y3055713D2*
X2246534D1*
X1932987D2*
G03X1920432Y3052349I2J-25121D01*
G01*
X2268280Y3043157D2*
G03X2246534Y3055713I-21743J-12549D01*
G01*
X2268280Y3043157D2*
X2336470Y2925047D1*
G03X2519297Y2819492I182827J105555D01*
G01*
X786948Y2588210D2*
X868430Y2447077D1*
X933971Y2519558D2*
X948971Y2493577D1*
X868430Y2447077D2*
G03X948971Y2493577I40271J23249D01*
G01*
X803055Y2969223D2*
G03X747739Y2837458I59057J-102286D01*
G01*
X756555Y3049764D2*
G03X675941Y2966479I105551J-182823D01*
G01*
X661883Y2804827D2*
G03X747739Y2837458I40288J23261D01*
G01*
X661883Y2804827D2*
X580402Y2945959D1*
X660941Y2992459D2*
G03X580402Y2945959I-40270J-23249D01*
G01*
X675941Y2966479D2*
X660941Y2992459D1*
X536566Y3207885D2*
X394000Y3454815D1*
Y2212446D2*
Y3268815D1*
Y3454815D2*
Y6558007D1*
X456025Y3161385D2*
X394000Y3268815D1*
X3128324Y6651007D2*
G03X3081824Y6604507I0J-46500D01*
G01*
X3714101Y4981953D2*
G03X3611815Y5041008I-102283J-59049D01*
G01*
X3200550Y6439896D2*
G03X3115682Y6553232I-118109J1D01*
G01*
X4198503Y4024833D2*
G03X4198503Y4142944I-102284J59055D01*
G01*
X3891114Y4675357D2*
X4021490Y4449541D1*
X4146114Y4233684D2*
X4198503Y4142944D1*
X4226655Y4280184D2*
X4279043Y4189444D1*
X3794642Y5028453D2*
X3847030Y4937714D1*
X4226655Y4280184D2*
G03X4146114Y4233684I-40270J-23251D01*
G01*
X4021490Y4449541D2*
G03X4102030Y4496041I40270J23250D01*
G01*
X3766490Y4891214D2*
G03X3847030Y4937714I40270J23250D01*
G01*
X3971655Y4721857D2*
G03X3891114Y4675357I-40270J-23251D01*
G01*
X3766490Y4891214D2*
X3714101Y4981953D1*
X4102030Y4496041D2*
X3971655Y4721857D1*
X3128324Y6651007D2*
X3670016D1*
X3919266D2*
X4920016D1*
Y6558007D2*
G03X4920016Y6651007I0J46500D01*
G01*
X5169266D2*
G03X5169266Y6558007I0J-46500D01*
G01*
Y6651007D2*
X5613399D1*
X5169266Y6558007D2*
X5613399D1*
X3919266D2*
X4920016D1*
X3293550Y5430657D2*
Y6439896D1*
X3257417Y6558007D2*
X3670016D1*
X3293550Y6439896D2*
G03X3257417Y6558007I-211098J2D01*
G01*
X3296913Y5418102D2*
X3453686Y5146563D1*
X3475433Y5134008D2*
X3611815D1*
X3453686Y5146563D2*
G03X3475433Y5134008I21750J12561D01*
G01*
X3293550Y5430657D2*
G03X3296913Y5418102I25121J2D01*
G01*
X3794642Y5028453D2*
G03X3611815Y5134008I-182827J-105555D01*
G01*
X3919642Y6558007D2*
X3910142D1*
X3670016D2*
G03X3670016Y6651007I0J46500D01*
G01*
X3919266D2*
G03X3919266Y6558007I0J-46500D01*
G01*
X4376818Y3554383D2*
X5250844Y3049764D1*
X4367626Y3563575D2*
X4210853Y3835114D1*
Y3860223D2*
X4279043Y3978333D1*
X4210853Y3860223D2*
G03X4210853Y3835114I21738J-12554D01*
G01*
X4367626Y3563575D2*
G03X4376818Y3554383I21749J12558D01*
G01*
X4279043Y3978333D2*
G03X4279043Y4189444I-182826J105555D01*
G01*
X5007493Y2628269D2*
G03X5149264Y2646245I59055J102285D01*
G01*
X5613399Y6651007D2*
Y6958007D1*
X4960993Y2547728D2*
G03X5073428Y2519558I105554J182828D01*
G01*
X5220451Y2588210D2*
G03X5149264Y2646245I-40288J23260D01*
G01*
X4086967Y3052349D2*
X4960993Y2547728D1*
X4074412Y3055713D2*
X3760865D1*
X4086967Y3052349D2*
G03X4074412Y3055713I-12557J-21758D01*
G01*
X3760865D2*
G03X3739119Y3043157I-3J-25105D01*
G01*
X3670929Y2925047D1*
X3488102Y2819492D2*
G03X3670929Y2925047I0J211110D01*
G01*
X5220451Y2588210D2*
X5138969Y2447077D1*
X5073428Y2519558D2*
X5058428Y2493577D1*
G03X5138969Y2447077I40270J-23251D01*
G01*
X5259660Y2837458D2*
G03X5204344Y2969223I-114373J29479D01*
G01*
X5331458Y2966479D2*
G03X5250844Y3049764I-186165J-99538D01*
G01*
X5259660Y2837458D2*
G03X5345516Y2804827I45568J-9370D01*
G01*
X5426997Y2945959D1*
G03X5346458Y2992459I-40269J23251D01*
G01*
X5331458Y2966479D2*
X5346458Y2992459D1*
X5613399Y2212446D2*
X394000D1*
Y6958007D2*
X5613399D1*
X456025Y3161385D2*
G03X536566Y3207885I40270J23251D01*
G01*
X5470833D2*
X5613399Y3454815D1*
Y2212446D2*
Y3268815D1*
Y3454815D2*
Y6558007D1*
X5551374Y3161385D2*
X5613399Y3268815D1*
X5470833Y3207885D2*
G03X5551374Y3161385I40271J-23249D01*
G01*
X2399699Y3357518D2*
G02X2399699Y3277518I0J-40000D01*
G01*
X2359699Y3357518D2*
G03X2359699Y3277518I0J-40000D01*
G01*
Y3357518D2*
X2399699D1*
Y3277518D2*
X2359699D1*
X2047020Y3800159D2*
G02X2007020Y3730878I-19999J-34641D01*
G01*
X2012379Y3820159D2*
G03X1972379Y3750878I-20001J-34640D01*
G01*
X2012379Y3820159D2*
X2047020Y3800159D1*
X2007020Y3730878D2*
X1972379Y3750878D1*
M02*
