G04 This is an RS-274x file exported by *
G04 gerbv version 2.6A *
G04 More information is available about gerbv at *
G04 http://gerbv.geda-project.org/ *
G04 --End of header info--*
%MOIN*%
%FSLAX34Y34*%
%IPPOS*%
G04 --Define apertures--*
%ADD10C,0.0030*%
%ADD11C,0.0500*%
%ADD12C,0.0390*%
%ADD13C,0.2580*%
%ADD14C,0.0880*%
%ADD15C,0.1280*%
%ADD16C,0.0671*%
%ADD17R,0.0671X0.0671*%
%ADD18C,0.0980*%
%ADD19C,0.0749*%
%ADD20C,0.0730*%
%AMMACRO21*
5,1,4,0.000000,0.000000,0.105967,-164.999603*
%
%ADD21MACRO21*%
%AMMACRO22*
5,1,4,0.000000,0.000000,0.105967,-195.000397*
%
%ADD22MACRO22*%
G04 --Start main section--*
G54D20*
G01X0038087Y0045135D03*
G01X0038481Y0044453D03*
G54D21*
G01X0021663Y0045865D03*
G54D19*
G01X0022163Y0046731D03*
G54D21*
G01X0020600Y0043990D03*
G54D19*
G01X0021100Y0044856D03*
G54D22*
G01X0033477Y0048965D03*
G54D19*
G01X0032611Y0048465D03*
G54D18*
G01X0023927Y0043275D03*
G01X0024427Y0044141D03*
G54D17*
G01X0027037Y0033803D03*
G54D16*
G01X0027037Y0032803D03*
G01X0026037Y0033803D03*
G01X0026037Y0032803D03*
G01X0025037Y0033803D03*
G01X0025037Y0032803D03*
G54D15*
G01X0020913Y0041553D03*
G01X0020224Y0040359D03*
G54D11*
G01X0020914Y0041553D03*
G01X0020224Y0040358D03*
G54D20*
G01X0024681Y0048358D03*
G01X0024287Y0047676D03*
G01X0026618Y0047233D03*
G01X0026224Y0046551D03*
G01X0029648Y0061713D03*
G01X0030435Y0061713D03*
G01X0011538Y0028977D03*
G01X0011144Y0029659D03*
G01X0048946Y0029654D03*
G01X0048553Y0028972D03*
G54D14*
G01X0033947Y0047125D03*
G01X0034447Y0046259D03*
G01X0034947Y0045393D03*
G01X0035447Y0044527D03*
G01X0035947Y0043661D03*
G01X0036447Y0042795D03*
G01X0036947Y0041929D03*
G01X0037447Y0041063D03*
G01X0037947Y0040197D03*
G01X0038447Y0039331D03*
G01X0021712Y0043435D03*
G01X0022214Y0044300D03*
G01X0022714Y0045166D03*
G01X0023214Y0046032D03*
G54D13*
G01X0030037Y0063925D03*
G01X0050657Y0028215D03*
G01X0009427Y0028215D03*
G54D14*
G01X0007037Y0063115D03*
G01X0045037Y0025115D03*
M02*
