G04 This is an RS-274x file exported by *
G04 gerbv version 2.6A *
G04 More information is available about gerbv at *
G04 http://gerbv.geda-project.org/ *
G04 --End of header info--*
%MOIN*%
%FSLAX34Y34*%
%IPPOS*%
G04 --Define apertures--*
%ADD10C,0.0100*%
%ADD11C,0.0046*%
%ADD12C,0.0077*%
%ADD13C,0.0247*%
%ADD14C,0.0093*%
G04 --Start main section--*
G54D10*
G01X0033660Y0049648D02*
G01X0031928Y0048648D01*
G01X0031928Y0048648D02*
G01X0032428Y0047782D01*
G01X0032428Y0047782D02*
G01X0034160Y0048782D01*
G01X0034160Y0048782D02*
G01X0033660Y0049648D01*
G01X0025418Y0043858D02*
G01X0024668Y0042558D01*
G01X0025418Y0043858D02*
G01X0025143Y0044882D01*
G01X0023644Y0042284D02*
G01X0024668Y0042558D01*
G01X0023644Y0042284D02*
G01X0022778Y0042784D01*
G01X0022778Y0042784D02*
G01X0024277Y0045382D01*
G01X0024277Y0045382D02*
G01X0025143Y0044882D01*
G01X0037813Y0042429D02*
G01X0038565Y0041132D01*
G01X0038247Y0042679D02*
G01X0036746Y0045277D01*
G01X0036313Y0045028D02*
G01X0036746Y0045277D01*
G01X0038247Y0042679D02*
G01X0037813Y0042429D01*
G01X0039313Y0039830D02*
G01X0039813Y0038965D01*
G01X0039813Y0038965D02*
G01X0038081Y0037965D01*
G01X0038081Y0037965D02*
G01X0037581Y0038831D01*
G01X0036833Y0040132D02*
G01X0033834Y0045327D01*
G01X0036313Y0045028D02*
G01X0035566Y0046327D01*
G01X0034813Y0047625D02*
G01X0034313Y0048491D01*
G01X0034315Y0048492D02*
G01X0032581Y0047491D01*
G01X0032581Y0047491D02*
G01X0033081Y0046625D01*
G01X0021915Y0046782D02*
G01X0020415Y0044183D01*
G01X0020848Y0043933D02*
G01X0020415Y0044183D01*
G01X0021915Y0046782D02*
G01X0022348Y0046532D01*
G01X0022596Y0046966D02*
G01X0022848Y0047398D01*
G01X0022848Y0047398D02*
G01X0024580Y0046398D01*
G01X0024580Y0046398D02*
G01X0024328Y0045966D01*
G01X0024078Y0045533D02*
G01X0022578Y0042935D01*
G01X0020596Y0043502D02*
G01X0020348Y0043068D01*
G01X0020346Y0043069D02*
G01X0022080Y0042068D01*
G01X0022080Y0042068D02*
G01X0022328Y0042502D01*
G54D11*
G01X0032931Y0050521D02*
G01X0032931Y0050291D01*
G01X0032931Y0050291D02*
G01X0032945Y0050248D01*
G01X0032945Y0050248D02*
G01X0032960Y0050234D01*
G01X0032960Y0050234D02*
G01X0032988Y0050219D01*
G01X0032988Y0050219D02*
G01X0033017Y0050219D01*
G01X0033017Y0050219D02*
G01X0033046Y0050234D01*
G01X0033046Y0050234D02*
G01X0033060Y0050248D01*
G01X0033060Y0050248D02*
G01X0033075Y0050291D01*
G01X0033075Y0050291D02*
G01X0033075Y0050320D01*
G01X0032695Y0050219D02*
G01X0032695Y0050520D01*
G01X0032695Y0050520D02*
G01X0032838Y0050320D01*
G01X0032838Y0050320D02*
G01X0032623Y0050320D01*
G54D12*
G01X0028421Y0036133D02*
G01X0028421Y0035631D01*
G01X0028421Y0035631D02*
G01X0028206Y0035631D01*
G01X0028206Y0035631D02*
G01X0028134Y0035655D01*
G01X0028134Y0035655D02*
G01X0028110Y0035679D01*
G01X0028110Y0035679D02*
G01X0028087Y0035726D01*
G01X0028087Y0035726D02*
G01X0028087Y0035798D01*
G01X0028087Y0035798D02*
G01X0028110Y0035846D01*
G01X0028110Y0035846D02*
G01X0028134Y0035870D01*
G01X0028134Y0035870D02*
G01X0028206Y0035894D01*
G01X0028206Y0035894D02*
G01X0028134Y0035918D01*
G01X0028134Y0035918D02*
G01X0028110Y0035942D01*
G01X0028110Y0035942D02*
G01X0028087Y0035989D01*
G01X0028087Y0035989D02*
G01X0028087Y0036037D01*
G01X0028087Y0036037D02*
G01X0028110Y0036085D01*
G01X0028110Y0036085D02*
G01X0028134Y0036109D01*
G01X0028134Y0036109D02*
G01X0028206Y0036133D01*
G01X0028206Y0036133D02*
G01X0028421Y0036133D01*
G01X0028421Y0035894D02*
G01X0028206Y0035894D01*
G01X0027813Y0035966D02*
G01X0027860Y0035942D01*
G01X0027860Y0035942D02*
G01X0027908Y0035894D01*
G01X0027908Y0035894D02*
G01X0027932Y0035822D01*
G01X0027932Y0035822D02*
G01X0027932Y0035774D01*
G01X0027932Y0035774D02*
G01X0027908Y0035703D01*
G01X0027908Y0035703D02*
G01X0027860Y0035655D01*
G01X0027860Y0035655D02*
G01X0027813Y0035631D01*
G01X0027813Y0035631D02*
G01X0027741Y0035631D01*
G01X0027741Y0035631D02*
G01X0027693Y0035655D01*
G01X0027693Y0035655D02*
G01X0027645Y0035703D01*
G01X0027645Y0035703D02*
G01X0027621Y0035774D01*
G01X0027621Y0035774D02*
G01X0027621Y0035822D01*
G01X0027621Y0035822D02*
G01X0027645Y0035894D01*
G01X0027645Y0035894D02*
G01X0027693Y0035942D01*
G01X0027693Y0035942D02*
G01X0027741Y0035966D01*
G01X0027741Y0035966D02*
G01X0027813Y0035966D01*
G01X0027180Y0035966D02*
G01X0027180Y0035631D01*
G01X0027180Y0035894D02*
G01X0027227Y0035942D01*
G01X0027227Y0035942D02*
G01X0027275Y0035966D01*
G01X0027275Y0035966D02*
G01X0027347Y0035966D01*
G01X0027347Y0035966D02*
G01X0027395Y0035942D01*
G01X0027395Y0035942D02*
G01X0027442Y0035894D01*
G01X0027442Y0035894D02*
G01X0027467Y0035822D01*
G01X0027467Y0035822D02*
G01X0027467Y0035774D01*
G01X0027467Y0035774D02*
G01X0027442Y0035703D01*
G01X0027442Y0035703D02*
G01X0027395Y0035655D01*
G01X0027395Y0035655D02*
G01X0027347Y0035631D01*
G01X0027347Y0035631D02*
G01X0027275Y0035631D01*
G01X0027275Y0035631D02*
G01X0027227Y0035655D01*
G01X0027227Y0035655D02*
G01X0027180Y0035703D01*
G01X0027025Y0035966D02*
G01X0027025Y0035631D01*
G01X0027025Y0035822D02*
G01X0027001Y0035894D01*
G01X0027001Y0035894D02*
G01X0026953Y0035942D01*
G01X0026953Y0035942D02*
G01X0026905Y0035966D01*
G01X0026905Y0035966D02*
G01X0026834Y0035966D01*
G01X0026392Y0036133D02*
G01X0026392Y0035631D01*
G01X0026392Y0035894D02*
G01X0026440Y0035942D01*
G01X0026440Y0035942D02*
G01X0026488Y0035966D01*
G01X0026488Y0035966D02*
G01X0026560Y0035966D01*
G01X0026560Y0035966D02*
G01X0026607Y0035942D01*
G01X0026607Y0035942D02*
G01X0026655Y0035894D01*
G01X0026655Y0035894D02*
G01X0026679Y0035822D01*
G01X0026679Y0035822D02*
G01X0026679Y0035774D01*
G01X0026679Y0035774D02*
G01X0026655Y0035703D01*
G01X0026655Y0035703D02*
G01X0026607Y0035655D01*
G01X0026607Y0035655D02*
G01X0026560Y0035631D01*
G01X0026560Y0035631D02*
G01X0026488Y0035631D01*
G01X0026488Y0035631D02*
G01X0026440Y0035655D01*
G01X0026440Y0035655D02*
G01X0026392Y0035703D01*
G01X0026214Y0035966D02*
G01X0026238Y0035941D01*
G01X0026238Y0035941D02*
G01X0026214Y0035918D01*
G01X0026214Y0035918D02*
G01X0026190Y0035941D01*
G01X0026190Y0035941D02*
G01X0026214Y0035966D01*
G01X0026214Y0035679D02*
G01X0026238Y0035654D01*
G01X0026238Y0035654D02*
G01X0026214Y0035631D01*
G01X0026214Y0035631D02*
G01X0026190Y0035654D01*
G01X0026190Y0035654D02*
G01X0026214Y0035679D01*
G01X0025214Y0036061D02*
G01X0025262Y0036109D01*
G01X0025262Y0036109D02*
G01X0025334Y0036133D01*
G01X0025334Y0036133D02*
G01X0025429Y0036133D01*
G01X0025429Y0036133D02*
G01X0025501Y0036109D01*
G01X0025501Y0036109D02*
G01X0025549Y0036061D01*
G01X0025549Y0036061D02*
G01X0025549Y0036014D01*
G01X0025549Y0036014D02*
G01X0025525Y0035966D01*
G01X0025525Y0035966D02*
G01X0025501Y0035942D01*
G01X0025501Y0035942D02*
G01X0025454Y0035918D01*
G01X0025454Y0035918D02*
G01X0025310Y0035870D01*
G01X0025310Y0035870D02*
G01X0025262Y0035846D01*
G01X0025262Y0035846D02*
G01X0025238Y0035822D01*
G01X0025238Y0035822D02*
G01X0025214Y0035774D01*
G01X0025214Y0035774D02*
G01X0025214Y0035703D01*
G01X0025214Y0035703D02*
G01X0025262Y0035655D01*
G01X0025262Y0035655D02*
G01X0025334Y0035631D01*
G01X0025334Y0035631D02*
G01X0025429Y0035631D01*
G01X0025429Y0035631D02*
G01X0025501Y0035655D01*
G01X0025501Y0035655D02*
G01X0025549Y0035703D01*
G01X0024749Y0036133D02*
G01X0025060Y0036133D01*
G01X0025060Y0036133D02*
G01X0025060Y0035631D01*
G01X0025060Y0035631D02*
G01X0024749Y0035631D01*
G01X0025060Y0035894D02*
G01X0024869Y0035894D01*
G01X0024547Y0036133D02*
G01X0024284Y0036133D01*
G01X0024284Y0036133D02*
G01X0024428Y0035941D01*
G01X0024428Y0035941D02*
G01X0024356Y0035941D01*
G01X0024356Y0035941D02*
G01X0024308Y0035918D01*
G01X0024308Y0035918D02*
G01X0024284Y0035894D01*
G01X0024284Y0035894D02*
G01X0024260Y0035822D01*
G01X0024260Y0035822D02*
G01X0024260Y0035774D01*
G01X0024260Y0035774D02*
G01X0024284Y0035703D01*
G01X0024284Y0035703D02*
G01X0024332Y0035654D01*
G01X0024332Y0035654D02*
G01X0024404Y0035631D01*
G01X0024404Y0035631D02*
G01X0024476Y0035631D01*
G01X0024476Y0035631D02*
G01X0024547Y0035654D01*
G01X0024547Y0035654D02*
G01X0024571Y0035679D01*
G01X0024571Y0035679D02*
G01X0024595Y0035726D01*
G01X0023962Y0036133D02*
G01X0024034Y0036109D01*
G01X0024034Y0036109D02*
G01X0024082Y0036037D01*
G01X0024082Y0036037D02*
G01X0024106Y0035918D01*
G01X0024106Y0035918D02*
G01X0024106Y0035846D01*
G01X0024106Y0035846D02*
G01X0024082Y0035726D01*
G01X0024082Y0035726D02*
G01X0024034Y0035654D01*
G01X0024034Y0035654D02*
G01X0023962Y0035631D01*
G01X0023962Y0035631D02*
G01X0023915Y0035631D01*
G01X0023915Y0035631D02*
G01X0023843Y0035654D01*
G01X0023843Y0035654D02*
G01X0023795Y0035726D01*
G01X0023795Y0035726D02*
G01X0023771Y0035846D01*
G01X0023771Y0035846D02*
G01X0023771Y0035918D01*
G01X0023771Y0035918D02*
G01X0023795Y0036037D01*
G01X0023795Y0036037D02*
G01X0023843Y0036109D01*
G01X0023843Y0036109D02*
G01X0023915Y0036133D01*
G01X0023915Y0036133D02*
G01X0023962Y0036133D01*
G01X0023795Y0036037D02*
G01X0024082Y0035726D01*
G01X0023473Y0036133D02*
G01X0023545Y0036109D01*
G01X0023545Y0036109D02*
G01X0023593Y0036037D01*
G01X0023593Y0036037D02*
G01X0023616Y0035918D01*
G01X0023616Y0035918D02*
G01X0023616Y0035846D01*
G01X0023616Y0035846D02*
G01X0023593Y0035726D01*
G01X0023593Y0035726D02*
G01X0023545Y0035654D01*
G01X0023545Y0035654D02*
G01X0023473Y0035631D01*
G01X0023473Y0035631D02*
G01X0023425Y0035631D01*
G01X0023425Y0035631D02*
G01X0023353Y0035654D01*
G01X0023353Y0035654D02*
G01X0023306Y0035726D01*
G01X0023306Y0035726D02*
G01X0023281Y0035846D01*
G01X0023281Y0035846D02*
G01X0023281Y0035918D01*
G01X0023281Y0035918D02*
G01X0023306Y0036037D01*
G01X0023306Y0036037D02*
G01X0023353Y0036109D01*
G01X0023353Y0036109D02*
G01X0023425Y0036133D01*
G01X0023425Y0036133D02*
G01X0023473Y0036133D01*
G01X0023306Y0036037D02*
G01X0023593Y0035726D01*
G01X0022641Y0035966D02*
G01X0022497Y0035631D01*
G01X0022497Y0035631D02*
G01X0022354Y0035966D01*
G01X0022200Y0036037D02*
G01X0022152Y0036061D01*
G01X0022152Y0036061D02*
G01X0022080Y0036133D01*
G01X0022080Y0036133D02*
G01X0022080Y0035631D01*
G01X0021902Y0035679D02*
G01X0021926Y0035654D01*
G01X0021926Y0035654D02*
G01X0021902Y0035631D01*
G01X0021902Y0035631D02*
G01X0021877Y0035654D01*
G01X0021877Y0035654D02*
G01X0021902Y0035679D01*
G01X0021675Y0036133D02*
G01X0021412Y0036133D01*
G01X0021412Y0036133D02*
G01X0021556Y0035941D01*
G01X0021556Y0035941D02*
G01X0021484Y0035941D01*
G01X0021484Y0035941D02*
G01X0021436Y0035918D01*
G01X0021436Y0035918D02*
G01X0021412Y0035894D01*
G01X0021412Y0035894D02*
G01X0021388Y0035822D01*
G01X0021388Y0035822D02*
G01X0021388Y0035774D01*
G01X0021388Y0035774D02*
G01X0021412Y0035703D01*
G01X0021412Y0035703D02*
G01X0021460Y0035654D01*
G01X0021460Y0035654D02*
G01X0021532Y0035631D01*
G01X0021532Y0035631D02*
G01X0021604Y0035631D01*
G01X0021604Y0035631D02*
G01X0021675Y0035654D01*
G01X0021675Y0035654D02*
G01X0021699Y0035679D01*
G01X0021699Y0035679D02*
G01X0021723Y0035726D01*
G01X0028136Y0035115D02*
G01X0028160Y0035162D01*
G01X0028160Y0035162D02*
G01X0028208Y0035210D01*
G01X0028208Y0035210D02*
G01X0028256Y0035234D01*
G01X0028256Y0035234D02*
G01X0028351Y0035234D01*
G01X0028351Y0035234D02*
G01X0028399Y0035210D01*
G01X0028399Y0035210D02*
G01X0028447Y0035162D01*
G01X0028447Y0035162D02*
G01X0028471Y0035115D01*
G01X0028471Y0035115D02*
G01X0028495Y0035043D01*
G01X0028495Y0035043D02*
G01X0028495Y0034923D01*
G01X0028495Y0034923D02*
G01X0028471Y0034852D01*
G01X0028471Y0034852D02*
G01X0028447Y0034804D01*
G01X0028447Y0034804D02*
G01X0028399Y0034756D01*
G01X0028399Y0034756D02*
G01X0028351Y0034732D01*
G01X0028351Y0034732D02*
G01X0028256Y0034732D01*
G01X0028256Y0034732D02*
G01X0028208Y0034756D01*
G01X0028208Y0034756D02*
G01X0028160Y0034804D01*
G01X0028160Y0034804D02*
G01X0028136Y0034852D01*
G01X0027671Y0035234D02*
G01X0027982Y0035234D01*
G01X0027982Y0035234D02*
G01X0027982Y0034732D01*
G01X0027982Y0034732D02*
G01X0027671Y0034732D01*
G01X0027982Y0034995D02*
G01X0027791Y0034995D01*
G01X0027517Y0034995D02*
G01X0027302Y0034995D01*
G01X0027302Y0034995D02*
G01X0027230Y0035019D01*
G01X0027230Y0035019D02*
G01X0027206Y0035043D01*
G01X0027206Y0035043D02*
G01X0027182Y0035090D01*
G01X0027182Y0035090D02*
G01X0027182Y0035139D01*
G01X0027182Y0035139D02*
G01X0027206Y0035186D01*
G01X0027206Y0035186D02*
G01X0027230Y0035210D01*
G01X0027230Y0035210D02*
G01X0027302Y0035234D01*
G01X0027302Y0035234D02*
G01X0027517Y0035234D01*
G01X0027517Y0035234D02*
G01X0027517Y0034732D01*
G01X0027349Y0034995D02*
G01X0027182Y0034732D01*
G01X0026693Y0035234D02*
G01X0026693Y0034732D01*
G01X0026693Y0034732D02*
G01X0027028Y0035234D01*
G01X0027028Y0035234D02*
G01X0027028Y0034732D01*
G01X0025908Y0035234D02*
G01X0025957Y0035210D01*
G01X0025957Y0035210D02*
G01X0026004Y0035162D01*
G01X0026004Y0035162D02*
G01X0026028Y0035115D01*
G01X0026028Y0035115D02*
G01X0026052Y0035043D01*
G01X0026052Y0035043D02*
G01X0026052Y0034923D01*
G01X0026052Y0034923D02*
G01X0026028Y0034852D01*
G01X0026028Y0034852D02*
G01X0026004Y0034804D01*
G01X0026004Y0034804D02*
G01X0025957Y0034756D01*
G01X0025957Y0034756D02*
G01X0025908Y0034732D01*
G01X0025908Y0034732D02*
G01X0025813Y0034732D01*
G01X0025813Y0034732D02*
G01X0025765Y0034756D01*
G01X0025765Y0034756D02*
G01X0025717Y0034804D01*
G01X0025717Y0034804D02*
G01X0025693Y0034852D01*
G01X0025693Y0034852D02*
G01X0025670Y0034923D01*
G01X0025670Y0034923D02*
G01X0025670Y0035043D01*
G01X0025670Y0035043D02*
G01X0025693Y0035115D01*
G01X0025693Y0035115D02*
G01X0025717Y0035162D01*
G01X0025717Y0035162D02*
G01X0025765Y0035210D01*
G01X0025765Y0035210D02*
G01X0025813Y0035234D01*
G01X0025813Y0035234D02*
G01X0025908Y0035234D01*
G01X0025515Y0035234D02*
G01X0025515Y0034732D01*
G01X0025180Y0035234D02*
G01X0025180Y0034732D01*
G01X0025515Y0034995D02*
G01X0025180Y0034995D01*
G01X0025026Y0035234D02*
G01X0025026Y0034732D01*
G01X0025026Y0034732D02*
G01X0024739Y0034732D01*
G01X0024099Y0035138D02*
G01X0024051Y0035162D01*
G01X0024051Y0035162D02*
G01X0023979Y0035234D01*
G01X0023979Y0035234D02*
G01X0023979Y0034732D01*
G01X0023801Y0034780D02*
G01X0023824Y0034756D01*
G01X0023824Y0034756D02*
G01X0023801Y0034732D01*
G01X0023801Y0034732D02*
G01X0023776Y0034756D01*
G01X0023776Y0034756D02*
G01X0023801Y0034780D01*
G01X0023598Y0035114D02*
G01X0023598Y0035138D01*
G01X0023598Y0035138D02*
G01X0023574Y0035186D01*
G01X0023574Y0035186D02*
G01X0023550Y0035210D01*
G01X0023550Y0035210D02*
G01X0023502Y0035234D01*
G01X0023502Y0035234D02*
G01X0023406Y0035234D01*
G01X0023406Y0035234D02*
G01X0023359Y0035210D01*
G01X0023359Y0035210D02*
G01X0023335Y0035186D01*
G01X0023335Y0035186D02*
G01X0023311Y0035138D01*
G01X0023311Y0035138D02*
G01X0023311Y0035090D01*
G01X0023311Y0035090D02*
G01X0023335Y0035042D01*
G01X0023335Y0035042D02*
G01X0023383Y0034971D01*
G01X0023383Y0034971D02*
G01X0023622Y0034732D01*
G01X0023622Y0034732D02*
G01X0023287Y0034732D01*
G54D11*
G01X0022983Y0042674D02*
G01X0023012Y0042660D01*
G01X0023012Y0042660D02*
G01X0023055Y0042617D01*
G01X0023055Y0042617D02*
G01X0023055Y0042918D01*
G01X0022201Y0042461D02*
G01X0022172Y0042476D01*
G01X0022172Y0042476D02*
G01X0022129Y0042519D01*
G01X0022129Y0042519D02*
G01X0022129Y0042217D01*
M02*
