G04 DipTrace 3.0.0.2*
G04 Inner2.gbr*
%MOIN*%
G04 #@! TF.FileFunction,Copper,L3,Inr*
G04 #@! TF.Part,Single*
%AMOUTLINE6*5,1,4,0,0,0.094653,-164.999604*%
%AMOUTLINE9*5,1,4,0,0,0.094653,-195.000396*%
G04 #@! TA.AperFunction,Conductor*
%ADD13C,0.012992*%
G04 #@! TA.AperFunction,ComponentPad*
%ADD16C,0.09*%
G04 #@! TA.AperFunction,CopperBalancing*
%ADD19C,0.025*%
G04 #@! TA.AperFunction,Nonconductor*
%ADD20C,0.004*%
G04 #@! TA.AperFunction,ComponentPad*
%ADD23C,0.12*%
%ADD24C,0.065*%
%ADD31C,0.066929*%
%ADD32R,0.059055X0.059055*%
%ADD33C,0.059055*%
%ADD38C,0.08*%
%ADD39C,0.25*%
%ADD40C,0.031*%
G04 #@! TA.AperFunction,ViaPad*
%ADD41C,0.04*%
%ADD43C,0.059*%
G04 #@! TA.AperFunction,ComponentPad*
%ADD104OUTLINE6*%
%ADD107OUTLINE9*%
%FSLAX26Y26*%
G04*
G70*
G90*
G75*
G01*
G04 Inner2*
%LPD*%
X3442699Y3400518D2*
D13*
X3410961Y3432257D1*
X3024756D1*
X2980664Y3514064D1*
X2466256Y4386479D2*
Y4390566D1*
X2442699Y4414122D1*
D16*
X2360699Y4467518D1*
X2269699Y4323518D1*
X2181396Y4035915D1*
X2022400Y4035924D1*
X2584832Y4276377D2*
D13*
X2563058Y4239361D1*
X3421459Y4278155D2*
X3447043Y4236783D1*
X3057411Y3467768D2*
X3028268Y3496911D1*
Y3512311D1*
D41*
X3154699Y3186518D3*
X3428655Y3336589D3*
X2916199Y3224018D3*
X2784972Y3030371D3*
X2153789Y3236600D3*
X3567699Y3084518D3*
X3553642Y3405332D3*
X3301169Y3280345D3*
X3442699Y3400518D3*
D43*
X3204505Y3385713D3*
X2952143Y3384962D3*
X2531699Y4276518D3*
D41*
X1928812Y3655306D3*
X3409699Y3040518D3*
D43*
X3927699Y3750518D3*
X2303699Y3980269D3*
X3891199Y4361518D3*
X3869949Y4186768D3*
X3944950Y4055518D3*
D41*
X3269699Y3400518D3*
X2960474Y3467768D3*
X3057411D3*
X3771699Y3291518D3*
X2813299Y3421727D3*
X3366738Y6475022D2*
D19*
X5536762D1*
X3366738Y6450154D2*
X5536762D1*
X3366738Y6425285D2*
X5536762D1*
X3366738Y6400416D2*
X5536762D1*
X3366738Y6375547D2*
X5536762D1*
X3366738Y6350678D2*
X5536762D1*
X3366738Y6325810D2*
X5536762D1*
X3366738Y6300941D2*
X5536762D1*
X3366738Y6276072D2*
X5536762D1*
X3366738Y6251203D2*
X5536762D1*
X3366738Y6226335D2*
X5536762D1*
X3366738Y6201466D2*
X5536762D1*
X3366738Y6176597D2*
X5536762D1*
X3366738Y6151728D2*
X5536762D1*
X3366738Y6126860D2*
X5536762D1*
X3366738Y6101991D2*
X5536762D1*
X3366738Y6077122D2*
X5536762D1*
X3366738Y6052253D2*
X5536762D1*
X3366738Y6027385D2*
X5536762D1*
X3366738Y6002516D2*
X5536762D1*
X3366738Y5977647D2*
X5536762D1*
X3366738Y5952778D2*
X5536762D1*
X3366738Y5927909D2*
X5536762D1*
X3366738Y5903041D2*
X5536762D1*
X3366738Y5878172D2*
X5536762D1*
X3366738Y5853303D2*
X5536762D1*
X3366738Y5828434D2*
X5536762D1*
X3366738Y5803566D2*
X5536762D1*
X3366738Y5778697D2*
X5536762D1*
X3366738Y5753828D2*
X5536762D1*
X3366738Y5728959D2*
X5536762D1*
X3366738Y5704091D2*
X5536762D1*
X3366738Y5679222D2*
X5536762D1*
X3366738Y5654353D2*
X5536762D1*
X3366738Y5629484D2*
X5536762D1*
X3366738Y5604615D2*
X5536762D1*
X3366738Y5579747D2*
X5536762D1*
X3366738Y5554878D2*
X5536762D1*
X3366738Y5530009D2*
X5536762D1*
X3366738Y5505140D2*
X5536762D1*
X3366738Y5480272D2*
X5536762D1*
X3373012Y5455403D2*
X5536762D1*
X3387953Y5430534D2*
X5536762D1*
X3402846Y5405665D2*
X5536762D1*
X3417787Y5380797D2*
X5536762D1*
X3432680Y5355928D2*
X5536762D1*
X3447621Y5331059D2*
X5536762D1*
X3462514Y5306190D2*
X5536762D1*
X3477455Y5281322D2*
X5536762D1*
X3492396Y5256453D2*
X5536762D1*
X3507289Y5231584D2*
X5536762D1*
X3772133Y5206715D2*
X5536762D1*
X3786781Y5181846D2*
X5536762D1*
X3801479Y5156978D2*
X5536762D1*
X3816176Y5132109D2*
X5536762D1*
X3830873Y5107240D2*
X5536762D1*
X3845571Y5082371D2*
X5536762D1*
X3860268Y5057503D2*
X5536762D1*
X3874965Y5032634D2*
X5536762D1*
X3889663Y5007765D2*
X5536762D1*
X3904360Y4982896D2*
X5536762D1*
X3919056Y4958028D2*
X5536762D1*
X3933755Y4933159D2*
X5536762D1*
X3948451Y4908290D2*
X5536762D1*
X3963148Y4883421D2*
X5536762D1*
X3977846Y4858552D2*
X5536762D1*
X3992543Y4833684D2*
X5536762D1*
X4007240Y4808815D2*
X5536762D1*
X4021938Y4783946D2*
X5536762D1*
X4036635Y4759077D2*
X5536762D1*
X4051332Y4734209D2*
X5536762D1*
X4066029Y4709340D2*
X5536762D1*
X4080727Y4684471D2*
X5536762D1*
X4095424Y4659602D2*
X5536762D1*
X4110121Y4634734D2*
X5536762D1*
X4124819Y4609865D2*
X5536762D1*
X4139467Y4584996D2*
X5536762D1*
X4154164Y4560127D2*
X5536762D1*
X4168862Y4535259D2*
X5536762D1*
X4183559Y4510390D2*
X5536762D1*
X4198256Y4485521D2*
X5536762D1*
X4212953Y4460652D2*
X5536762D1*
X4227651Y4435783D2*
X5536762D1*
X4242348Y4410915D2*
X5536762D1*
X4257045Y4386046D2*
X5536762D1*
X4271743Y4361177D2*
X5536762D1*
X4286440Y4336308D2*
X5536762D1*
X4301136Y4311440D2*
X5536762D1*
X4315835Y4286571D2*
X5536762D1*
X4330531Y4261702D2*
X5536762D1*
X4345228Y4236833D2*
X5536762D1*
X4359927Y4211965D2*
X5536762D1*
X4374623Y4187096D2*
X5536762D1*
X4389320Y4162227D2*
X5536762D1*
X4404018Y4137358D2*
X5536762D1*
X4417739Y4112490D2*
X5536762D1*
X4407778Y4087621D2*
X5536762D1*
X4397865Y4062752D2*
X5536762D1*
X4387904Y4037883D2*
X5536762D1*
X4377944Y4013014D2*
X5536762D1*
X4367983Y3988146D2*
X5536762D1*
X4358071Y3963277D2*
X5536762D1*
X4348110Y3938408D2*
X5536762D1*
X4338148Y3913539D2*
X5536762D1*
X4328236Y3888671D2*
X5536762D1*
X4318276Y3863802D2*
X5536762D1*
X4329946Y3838933D2*
X5536762D1*
X4342396Y3814064D2*
X5536762D1*
X4354799Y3789196D2*
X5536762D1*
X4367251Y3764327D2*
X5536762D1*
X4379701Y3739458D2*
X5536762D1*
X4392104Y3714589D2*
X5536762D1*
X4404555Y3689720D2*
X5536762D1*
X4417007Y3664852D2*
X5536762D1*
X4429408Y3639983D2*
X5536762D1*
X4441860Y3615114D2*
X5536762D1*
X4454262Y3590245D2*
X5536762D1*
X4473793Y3565377D2*
X5536762D1*
X4516079Y3540508D2*
X5536762D1*
X4558364Y3515639D2*
X5536762D1*
X4600648Y3490770D2*
X5536762D1*
X4642934Y3465902D2*
X5536713D1*
X4685219Y3441033D2*
X5521136D1*
X4727455Y3416164D2*
X5505610D1*
X4769740Y3391295D2*
X5490083D1*
X4812026Y3366427D2*
X5474507D1*
X4854311Y3341558D2*
X5458979D1*
X4896596Y3316689D2*
X5443451D1*
X4938881Y3291820D2*
X5427875D1*
X4981117Y3266951D2*
X5412348D1*
X5023403Y3242083D2*
X5396820D1*
X5065688Y3217214D2*
X5381244D1*
X5107972Y3192345D2*
X5365717D1*
X5150259Y3167476D2*
X5350190D1*
X5192543Y3142608D2*
X5334613D1*
X5234780Y3117739D2*
X5319087D1*
X5277064Y3092870D2*
X5303559D1*
X5526738Y6499891D2*
X3364238D1*
Y5465858D1*
X3508841Y5224848D1*
X3753693Y5224738D1*
X3757412Y5223529D1*
X3760576Y5221230D1*
X3762499Y5218751D1*
X4413361Y4116988D1*
X4414213Y4113172D1*
X4413844Y4109278D1*
X4394774Y4061325D1*
X4315412Y3862920D1*
X4461262Y3571291D1*
X5297577Y3079340D1*
X5539252Y3466000D1*
X5539238Y6499891D1*
X5526738D1*
X445554Y6472996D2*
X2665579D1*
X445554Y6448127D2*
X2665579D1*
X445554Y6423259D2*
X2665579D1*
X445554Y6398390D2*
X2665579D1*
X445554Y6373521D2*
X665480D1*
X745627D2*
X2665579D1*
X445554Y6348652D2*
X640335D1*
X770773D2*
X2665579D1*
X445554Y6323783D2*
X630812D1*
X780295D2*
X2665579D1*
X445554Y6298915D2*
X630471D1*
X780636D2*
X2665579D1*
X445554Y6274046D2*
X639163D1*
X771945D2*
X2665579D1*
X445554Y6249177D2*
X662356D1*
X748752D2*
X2665579D1*
X445554Y6224308D2*
X2665579D1*
X445554Y6199440D2*
X2665579D1*
X445554Y6174571D2*
X2665579D1*
X445554Y6149702D2*
X2665579D1*
X445554Y6124833D2*
X2665579D1*
X445554Y6099965D2*
X2665579D1*
X445554Y6075096D2*
X2665579D1*
X445554Y6050227D2*
X2665579D1*
X445554Y6025358D2*
X2665579D1*
X445554Y6000490D2*
X2665579D1*
X445554Y5975621D2*
X2665579D1*
X445554Y5950752D2*
X2665579D1*
X445554Y5925883D2*
X2665579D1*
X445554Y5901014D2*
X2665579D1*
X445554Y5876146D2*
X2665579D1*
X445554Y5851277D2*
X2665579D1*
X445554Y5826408D2*
X2665579D1*
X445554Y5801539D2*
X2665579D1*
X445554Y5776671D2*
X2665579D1*
X445554Y5751802D2*
X2665579D1*
X445554Y5726933D2*
X2665579D1*
X445554Y5702064D2*
X2665579D1*
X445554Y5677196D2*
X2665579D1*
X445554Y5652327D2*
X2665579D1*
X445554Y5627458D2*
X2665579D1*
X445554Y5602589D2*
X2665579D1*
X445554Y5577720D2*
X2665579D1*
X445554Y5552852D2*
X2665579D1*
X445554Y5527983D2*
X2665579D1*
X445554Y5503114D2*
X2665579D1*
X445554Y5478245D2*
X2665579D1*
X445554Y5453377D2*
X2665579D1*
X445554Y5428508D2*
X2665579D1*
X445554Y5403639D2*
X2653079D1*
X445554Y5378770D2*
X2638723D1*
X445554Y5353902D2*
X2624367D1*
X445554Y5329033D2*
X2610012D1*
X445554Y5304164D2*
X2595656D1*
X445554Y5279295D2*
X2581301D1*
X445554Y5254427D2*
X2566945D1*
X445554Y5229558D2*
X2552591D1*
X445554Y5204689D2*
X2538235D1*
X445554Y5179820D2*
X2523879D1*
X445554Y5154951D2*
X2210843D1*
X445554Y5130083D2*
X2197316D1*
X445554Y5105214D2*
X2183743D1*
X445554Y5080345D2*
X2170168D1*
X445554Y5055476D2*
X2156594D1*
X445554Y5030608D2*
X2143020D1*
X445554Y5005739D2*
X2129495D1*
X445554Y4980870D2*
X2115920D1*
X445554Y4956001D2*
X2102345D1*
X445554Y4931133D2*
X2088772D1*
X445554Y4906264D2*
X2075197D1*
X445554Y4881395D2*
X2061672D1*
X445554Y4856526D2*
X2048097D1*
X445554Y4831657D2*
X2034524D1*
X445554Y4806789D2*
X2020949D1*
X445554Y4781920D2*
X2007375D1*
X445554Y4757051D2*
X1993849D1*
X445554Y4732182D2*
X1980276D1*
X445554Y4707314D2*
X1966701D1*
X445554Y4682445D2*
X1953127D1*
X445554Y4657576D2*
X1939552D1*
X445554Y4632707D2*
X1925979D1*
X445554Y4607839D2*
X1912453D1*
X445554Y4582970D2*
X1898879D1*
X445554Y4558101D2*
X1885304D1*
X445554Y4533232D2*
X1871731D1*
X445554Y4508364D2*
X1858156D1*
X445554Y4483495D2*
X1844631D1*
X445554Y4458626D2*
X1831056D1*
X445554Y4433757D2*
X1817483D1*
X445554Y4408888D2*
X1803908D1*
X445554Y4384020D2*
X1790335D1*
X445554Y4359151D2*
X1776808D1*
X445554Y4334282D2*
X1763235D1*
X445554Y4309413D2*
X1749367D1*
X445554Y4284545D2*
X1734231D1*
X445554Y4259676D2*
X1719875D1*
X445554Y4234807D2*
X1705520D1*
X445554Y4209938D2*
X1691164D1*
X445554Y4185070D2*
X1678664D1*
X445554Y4160201D2*
X1668264D1*
X445554Y4135332D2*
X1654689D1*
X445554Y4110463D2*
X1641164D1*
X445554Y4085594D2*
X1627591D1*
X445554Y4060726D2*
X1614016D1*
X445554Y4035857D2*
X1626320D1*
X445554Y4010988D2*
X1638772D1*
X445554Y3986119D2*
X1651223D1*
X445554Y3961251D2*
X1663625D1*
X445554Y3936382D2*
X1676076D1*
X445554Y3911513D2*
X1688528D1*
X445554Y3886644D2*
X1700929D1*
X445554Y3861776D2*
X1713381D1*
X445554Y3836907D2*
X1702345D1*
X445554Y3812038D2*
X1689895D1*
X445554Y3787169D2*
X1677492D1*
X445554Y3762301D2*
X1665041D1*
X445554Y3737432D2*
X1652591D1*
X445554Y3712563D2*
X1640188D1*
X445554Y3687694D2*
X1627736D1*
X445554Y3662825D2*
X1615285D1*
X445554Y3637957D2*
X1602883D1*
X445554Y3613088D2*
X1582912D1*
X445773Y3588219D2*
X1540285D1*
X459445Y3563350D2*
X1497659D1*
X473117Y3538482D2*
X1455031D1*
X486789Y3513613D2*
X1412404D1*
X500461Y3488744D2*
X1369777D1*
X514133Y3463875D2*
X1327101D1*
X527804Y3439007D2*
X1284475D1*
X541476Y3414138D2*
X1241848D1*
X555148Y3389269D2*
X1199220D1*
X568869Y3364400D2*
X1156594D1*
X582541Y3339531D2*
X1113967D1*
X596213Y3314663D2*
X1071340D1*
X609885Y3289794D2*
X1028713D1*
X623556Y3264925D2*
X986087D1*
X637228Y3240056D2*
X943411D1*
X650900Y3215188D2*
X900783D1*
X664572Y3190319D2*
X858156D1*
X678293Y3165450D2*
X815529D1*
X691965Y3140581D2*
X772903D1*
X705636Y3115713D2*
X730276D1*
X778827Y6304598D2*
X777024Y6293206D1*
X773459Y6282238D1*
X768223Y6271961D1*
X761444Y6262630D1*
X753289Y6254475D1*
X743958Y6247696D1*
X733681Y6242459D1*
X722713Y6238895D1*
X711320Y6237092D1*
X699787D1*
X688395Y6238895D1*
X677427Y6242459D1*
X667150Y6247696D1*
X657819Y6254475D1*
X649664Y6262630D1*
X642885Y6271961D1*
X637648Y6282238D1*
X634084Y6293206D1*
X632281Y6304598D1*
Y6316131D1*
X634084Y6327524D1*
X637648Y6338492D1*
X642885Y6348769D1*
X649664Y6358100D1*
X657819Y6366255D1*
X667150Y6373034D1*
X677427Y6378270D1*
X688395Y6381835D1*
X699787Y6383638D1*
X711320D1*
X722713Y6381835D1*
X733681Y6378270D1*
X743958Y6373034D1*
X753289Y6366255D1*
X761444Y6358100D1*
X768223Y6348769D1*
X773459Y6338492D1*
X777024Y6327524D1*
X778827Y6316131D1*
Y6304598D1*
X1699654Y4220365D2*
X1747261Y4302643D1*
X1752163Y4309811D1*
X1787178Y4373614D1*
X2220651Y5167993D1*
X2223493Y5170680D1*
X2227026Y5172357D1*
X2231024Y5172852D1*
X2363513Y5172865D1*
X2377185Y5174510D1*
X2397438Y5175354D1*
X2523816D1*
X2668052Y5425241D1*
X2668054Y6497865D1*
X443054D1*
Y3588538D1*
X710350Y3102581D1*
X1596070Y3619303D1*
X1716593Y3860394D1*
X1618636Y4056592D1*
X1618054Y4060459D1*
X1618696Y4064318D1*
X1625566Y4077324D1*
X1673147Y4164556D1*
X1675392Y4171203D1*
X1684008Y4191579D1*
X1693404Y4209539D1*
X1699654Y4220365D1*
X1913745Y2926358D2*
X2204986D1*
X3792896D2*
X4144147D1*
X1868971Y2901490D2*
X2217437D1*
X3774244D2*
X4191119D1*
X1824244Y2876621D2*
X2229840D1*
X3755592D2*
X4238092D1*
X1779469Y2851752D2*
X2242291D1*
X3736940D2*
X4285064D1*
X1734693Y2826883D2*
X2254741D1*
X3718287D2*
X4332037D1*
X1689917Y2802014D2*
X2267144D1*
X3699635D2*
X4379009D1*
X1645192Y2777146D2*
X2279596D1*
X3680983D2*
X4425983D1*
X1600416Y2752277D2*
X2292047D1*
X3662329D2*
X4472955D1*
X1555640Y2727408D2*
X4519928D1*
X1510865Y2702539D2*
X4566900D1*
X1466089Y2677671D2*
X4613873D1*
X1421364Y2652802D2*
X4660845D1*
X1376588Y2627933D2*
X4707818D1*
X1331812Y2603064D2*
X4754791D1*
X1287037Y2578196D2*
X4464996D1*
X4540552D2*
X4801764D1*
X1242311Y2553327D2*
X4438336D1*
X4567213D2*
X4848736D1*
X1197535Y2528458D2*
X4428277D1*
X4577272D2*
X4895757D1*
X1152760Y2503589D2*
X4427496D1*
X4578052D2*
X4932769D1*
X1107984Y2478720D2*
X4435650D1*
X4569899D2*
X4922808D1*
X1074196Y2453852D2*
X4457623D1*
X4547925D2*
X4912848D1*
X1086597Y2428983D2*
X4902936D1*
X1099049Y2404114D2*
X4892975D1*
X1111500Y2379245D2*
X4883013D1*
X1123902Y2354377D2*
X4873052D1*
X1136353Y2329508D2*
X4863140D1*
X1148804Y2304639D2*
X4853180D1*
X1161207Y2279770D2*
X4843219D1*
X4576047Y2507961D2*
X4574244Y2496568D1*
X4570680Y2485600D1*
X4565444Y2475323D1*
X4558664Y2465992D1*
X4550509Y2457837D1*
X4541178Y2451058D1*
X4530902Y2445822D1*
X4519933Y2442257D1*
X4508541Y2440454D1*
X4497008D1*
X4485615Y2442257D1*
X4474647Y2445822D1*
X4464370Y2451058D1*
X4455039Y2457837D1*
X4446885Y2465992D1*
X4440105Y2475323D1*
X4434869Y2485600D1*
X4431304Y2496568D1*
X4429501Y2507961D1*
Y2519493D1*
X4431304Y2530886D1*
X4434869Y2541854D1*
X4440105Y2552131D1*
X4446885Y2561462D1*
X4455039Y2569617D1*
X4464370Y2576396D1*
X4474647Y2581633D1*
X4485615Y2585197D1*
X4497008Y2587000D1*
X4508541D1*
X4519933Y2585197D1*
X4530902Y2581633D1*
X4541178Y2576396D1*
X4550509Y2569617D1*
X4558664Y2561462D1*
X4565444Y2552131D1*
X4570680Y2541854D1*
X4574244Y2530886D1*
X4576047Y2519493D1*
Y2507961D1*
X1069304Y2458617D2*
X1160521Y2276186D1*
X4844327Y2276227D1*
X4937008Y2507969D1*
X4099648Y2951239D1*
X3808975Y2951227D1*
X3661478Y2754755D1*
X3658280Y2752504D1*
X3654542Y2751353D1*
X3615274Y2751227D1*
X2300819Y2751381D1*
X2297100Y2752589D1*
X2293936Y2754888D1*
X2291469Y2758417D1*
X2195028Y2951268D1*
X1955948Y2951227D1*
X1069278Y2458597D1*
X477618Y2992302D2*
X494761D1*
X477618Y2967433D2*
X508776D1*
X477618Y2942564D2*
X522740D1*
X477618Y2917696D2*
X536753D1*
X477618Y2892827D2*
X550719D1*
X477618Y2867958D2*
X564732D1*
X477618Y2843089D2*
X578697D1*
X477618Y2818220D2*
X592711D1*
X477618Y2793352D2*
X606676D1*
X477618Y2768483D2*
X620689D1*
X477618Y2743614D2*
X634655D1*
X477618Y2718745D2*
X648668D1*
X477618Y2693877D2*
X662633D1*
X477618Y2669008D2*
X676647D1*
X477618Y2644139D2*
X690612D1*
X477618Y2619270D2*
X704625D1*
X477618Y2594402D2*
X718589D1*
X477618Y2569533D2*
X732604D1*
X477618Y2544664D2*
X746568D1*
X477618Y2519795D2*
X760581D1*
X477618Y2494927D2*
X774547D1*
X477618Y2470058D2*
X788512D1*
X477618Y2445189D2*
X802525D1*
X477618Y2420320D2*
X816491D1*
X477618Y2395451D2*
X830504D1*
X477618Y2370583D2*
X844469D1*
X477618Y2345714D2*
X858483D1*
X477618Y2320845D2*
X872448D1*
X477618Y2295976D2*
X886461D1*
X475118Y3031703D2*
Y2291908D1*
X891281D1*
X475114Y3031696D1*
X5515497Y2988528D2*
X5532665D1*
X5501483Y2963659D2*
X5532665D1*
X5487518Y2938790D2*
X5532665D1*
X5473505Y2913921D2*
X5532665D1*
X5459539Y2889052D2*
X5532665D1*
X5445526Y2864184D2*
X5532665D1*
X5431562Y2839315D2*
X5532665D1*
X5417547Y2814446D2*
X5532665D1*
X5403583Y2789577D2*
X5532665D1*
X5389570Y2764709D2*
X5532665D1*
X5375604Y2739840D2*
X5532665D1*
X5361591Y2714971D2*
X5532665D1*
X5347626Y2690102D2*
X5532665D1*
X5333612Y2665234D2*
X5532665D1*
X5319647Y2640365D2*
X5532665D1*
X5305634Y2615496D2*
X5532665D1*
X5291669Y2590627D2*
X5532665D1*
X5277655Y2565759D2*
X5532665D1*
X5263690Y2540890D2*
X5532665D1*
X5249677Y2516021D2*
X5532665D1*
X5235711Y2491152D2*
X5532665D1*
X5221747Y2466283D2*
X5532665D1*
X5207734Y2441415D2*
X5532665D1*
X5193768Y2416546D2*
X5532665D1*
X5179755Y2391677D2*
X5532665D1*
X5165790Y2366808D2*
X5532665D1*
X5151776Y2341940D2*
X5532665D1*
X5137811Y2317071D2*
X5532665D1*
X5123798Y2292202D2*
X5532665D1*
X5535140Y2300634D2*
Y3027929D1*
X5119000Y2288109D1*
X5535140Y2288134D1*
Y2300634D1*
X465344Y6879572D2*
X5535369D1*
X465344Y6854703D2*
X5535369D1*
X465344Y6829835D2*
X5535369D1*
X465344Y6804966D2*
X5535369D1*
X465344Y6780097D2*
X5535369D1*
X465344Y6755228D2*
X5535369D1*
X465344Y6730360D2*
X5535369D1*
X462844Y6891941D2*
Y6729441D1*
X5537844D1*
Y6904441D1*
X462844D1*
Y6891941D1*
D24*
X3808699Y4513518D3*
X3848070Y4445327D3*
D104*
X2166287Y4586458D3*
D31*
X2216287Y4673060D3*
D104*
X2059950Y4399018D3*
D31*
X2109950Y4485621D3*
D107*
X3347698Y4896517D3*
D31*
X3261096Y4846517D3*
D16*
X2392699Y4327518D3*
X2442699Y4414121D3*
D32*
X2703699Y3380269D3*
D33*
Y3280269D3*
X2603699Y3380269D3*
Y3280269D3*
X2503699Y3380269D3*
Y3280269D3*
D23*
X2091301Y4155262D3*
X2022400Y4035924D3*
D24*
X2468059Y4835769D3*
X2428689Y4767577D3*
X2661808Y4723269D3*
X2622438Y4655077D3*
X2964778Y6171303D3*
X3043518D3*
X1153764Y2897728D3*
X1114394Y2965920D3*
X4894631Y2965371D3*
X4855261Y2897180D3*
D38*
X3394699Y4712518D3*
X3444699Y4625916D3*
X3494699Y4539314D3*
X3544699Y4452711D3*
X3594699Y4366109D3*
X3644699Y4279507D3*
X3694699Y4192904D3*
X3744699Y4106302D3*
X3794699Y4019698D3*
X3844699Y3933096D3*
X2171199Y4343518D3*
X2221416Y4429995D3*
X2271416Y4516598D3*
X2321416Y4603201D3*
D39*
X3003699Y6392518D3*
X5065699Y2821518D3*
X942699D3*
D38*
X703699Y6311518D3*
X4503699Y2511518D3*
D40*
X862699Y6557518D3*
X913199Y6558018D3*
X963199D3*
X1012699D3*
X1063199Y6557018D3*
X2112699Y6557518D3*
X2163699D3*
X2213199D3*
X2263199Y6558018D3*
X2312699D3*
X2903699D3*
X2953699D3*
X3003699D3*
X3053699D3*
X3103699D3*
X3694199Y6557518D3*
X3744199Y6558018D3*
X3795199D3*
X3844699D3*
X3895199Y6557518D3*
X4944699D3*
X4994699D3*
X5044699D3*
X5094699Y6558518D3*
X5145699Y6557518D3*
X5464699Y3184018D3*
X5439699Y3140518D3*
X5364699Y3010518D3*
X5389699Y3054018D3*
X5414699Y3097518D3*
X5258199Y2826518D3*
X5233199Y2783018D3*
X5158199Y2653018D3*
X5183199Y2696518D3*
X5208199Y2740018D3*
X5026199Y2425018D3*
X5001199Y2381518D3*
X4926199Y2251518D3*
X4951199Y2295018D3*
X4976199Y2338518D3*
X5051199Y2469518D3*
X1080699Y2251518D3*
X1055699Y2295018D3*
X1030699Y2338518D3*
X955699Y2469018D3*
X981199Y2425018D3*
X1005699Y2381518D3*
X849199Y2653018D3*
X824199Y2696518D3*
X799199Y2740018D3*
X749199Y2826018D3*
X774199Y2783018D3*
X642699Y3010518D3*
X617699Y3054018D3*
X592699Y3097518D3*
X543199Y3184018D3*
X567699Y3140518D3*
X3158699Y2912518D3*
X3208699D3*
X3258699D3*
X3308699D3*
X3358699D3*
X2648699Y2912018D3*
X2698699Y2912518D3*
X2748699D3*
X2798699D3*
X2848699D3*
X3778699Y4870018D3*
X3803699Y4826518D3*
X3828699Y4783518D3*
X3853699Y4740018D3*
X3879199Y4696518D3*
X4033699Y4428018D3*
X4058699Y4385018D3*
X4083699Y4341518D3*
X4108699Y4298018D3*
X4133699Y4254518D3*
X2228699Y4870018D3*
X2203199Y4826518D3*
X2178699Y4783518D3*
X2153699Y4740018D3*
X2128699Y4696518D3*
X1973699Y4428018D3*
X1948699Y4384518D3*
X1923699Y4341518D3*
X1898699Y4298518D3*
X1873699Y4255018D3*
X3009699Y4334710D2*
D20*
Y6074822D1*
X3021699Y4334266D2*
Y6074822D1*
X3033699Y4333377D2*
Y6074822D1*
X3045699Y4332039D2*
Y6074822D1*
X3057699Y4330245D2*
Y6074822D1*
X3069699Y4327990D2*
Y6074822D1*
X3081699Y4325261D2*
Y6074822D1*
X3093699Y4322047D2*
Y6074822D1*
X3105699Y4318335D2*
Y6074822D1*
X3117699Y4314102D2*
Y6074822D1*
X3129699Y4309331D2*
Y6074822D1*
X3141699Y4303992D2*
Y6074822D1*
X3153699Y4298055D2*
Y6074822D1*
X3165699Y4291482D2*
Y6074822D1*
X2997699Y4334710D2*
Y6074822D1*
X2985699Y4334266D2*
Y6074822D1*
X2973699Y4333377D2*
Y6074822D1*
X2961699Y4332039D2*
Y6074822D1*
X2949699Y4330245D2*
Y6074822D1*
X2937699Y4327990D2*
Y6074822D1*
X2925699Y4325261D2*
Y6074822D1*
X2913699Y4322047D2*
Y6074822D1*
X2901699Y4318335D2*
Y6074822D1*
X2889699Y4314102D2*
Y6074822D1*
X2877699Y4309331D2*
Y6074822D1*
X2865699Y4303992D2*
Y6074822D1*
X2853699Y4298055D2*
Y6074822D1*
X2841699Y4291482D2*
Y6074822D1*
X2829699Y4284227D2*
Y6074822D1*
X2841699D1*
X2853699D2*
X2865699D1*
X2877699D2*
X2889699D1*
X2901699D2*
X2913699D1*
X2925699D2*
X2937699D1*
X2949699D2*
X2961699D1*
X2973699D2*
X2985699D1*
X2997699D2*
X3009699D1*
X3021699D2*
X3033699D1*
X3045699D2*
X3057699D1*
X3069699D2*
X3081699D1*
X3093699D2*
X3105699D1*
X3117699D2*
X3129699D1*
X3141699D2*
X3153699D1*
X3165699D2*
X3177699D1*
X3165699Y4291482D2*
X3153699Y4298055D1*
X3141699Y4303992D2*
X3129699Y4309331D1*
X3117699Y4314102D2*
X3105699Y4318335D1*
X3093699Y4322047D2*
X3081699Y4325261D1*
X3069699Y4327990D2*
X3057699Y4330245D1*
X3045699Y4332039D2*
X3033699Y4333377D1*
X3021699Y4334266D2*
X3009699Y4334710D1*
X2997699D2*
X2985699Y4334266D1*
X2973699Y4333377D2*
X2961699Y4332039D1*
X2949699Y4330245D2*
X2937699Y4327990D1*
X2841699Y4291482D2*
X2853699Y4298055D1*
X2865699Y4303992D2*
X2877699Y4309331D1*
X2889699Y4314102D2*
X2901699Y4318335D1*
X2913699Y4322047D2*
X2925699Y4325261D1*
X2817699Y4284227D2*
Y4785383D1*
X2805699Y4267437D2*
Y4764598D1*
X2793699Y4257747D2*
Y4743814D1*
X2781699Y4247055D2*
Y4723029D1*
X2769699Y4235220D2*
Y4702244D1*
X2757699Y4222050D2*
Y4681461D1*
X2745699Y4207277D2*
Y4660676D1*
X2733699Y4193560D2*
Y4639891D1*
X2721699Y4200488D2*
Y4619106D1*
X2709699Y4207417D2*
Y4598322D1*
X2697699Y4214345D2*
Y4577537D1*
X2685699Y4221273D2*
Y4556752D1*
X2673699Y4228202D2*
Y4535967D1*
X2661699Y4235130D2*
Y4515184D1*
X2649699Y4242058D2*
Y4494399D1*
X2637699Y4248986D2*
Y4473614D1*
X2625699Y4255915D2*
Y4452829D1*
X2613699Y4262843D2*
Y4432045D1*
X2601699Y4269770D2*
Y4411260D1*
X2589699Y4276699D2*
Y4390475D1*
X2829699Y4284227D2*
X2817699D1*
Y4785383D2*
X2805699Y4764598D1*
X2793699Y4743814D2*
X2781699Y4723029D1*
X2769699Y4702244D2*
X2757699Y4681461D1*
X2745699Y4660676D2*
X2733699Y4639891D1*
X2721699Y4619106D2*
X2709699Y4598322D1*
X2697699Y4577537D2*
X2685699Y4556752D1*
X2673699Y4535967D2*
X2661699Y4515184D1*
X2649699Y4494399D2*
X2637699Y4473614D1*
X2625699Y4452829D2*
X2613699Y4432045D1*
X2601699Y4411260D2*
X2589699Y4390475D1*
X2733699Y4193560D2*
X2721699Y4200488D1*
X2709699Y4207417D2*
X2697699Y4214345D1*
X2685699Y4221273D2*
X2673699Y4228202D1*
X2661699Y4235130D2*
X2649699Y4242058D1*
X2637699Y4248986D2*
X2625699Y4255915D1*
X2613699Y4262843D2*
X2601699Y4269770D1*
X3177699Y4284227D2*
Y6074822D1*
X3189699Y4284227D2*
Y4785383D1*
X3201699Y4267437D2*
Y4764598D1*
X3213699Y4257747D2*
Y4743814D1*
X3225699Y4247055D2*
Y4723029D1*
X3237699Y4235220D2*
Y4702244D1*
X3249699Y4222050D2*
Y4681461D1*
X3261699Y4207277D2*
Y4660676D1*
X3273699Y4193560D2*
Y4639891D1*
X3285699Y4200488D2*
Y4619106D1*
X3297699Y4207417D2*
Y4598322D1*
X3309699Y4214345D2*
Y4577537D1*
X3321699Y4221273D2*
Y4556752D1*
X3333699Y4228202D2*
Y4535967D1*
X3345699Y4235130D2*
Y4515184D1*
X3357699Y4242058D2*
Y4494399D1*
X3369699Y4248986D2*
Y4473614D1*
X3381699Y4255915D2*
Y4452829D1*
X3393699Y4262843D2*
Y4432045D1*
X3405699Y4269770D2*
Y4411260D1*
X3417699Y4276699D2*
Y4390018D1*
X3177699Y4284227D2*
X3189699D1*
Y4785383D2*
X3201699Y4764598D1*
X3213699Y4743814D2*
X3225699Y4723029D1*
X3237699Y4702244D2*
X3249699Y4681461D1*
X3261699Y4660676D2*
X3273699Y4639891D1*
X3285699Y4619106D2*
X3297699Y4598322D1*
X3309699Y4577537D2*
X3321699Y4556752D1*
X3333699Y4535967D2*
X3345699Y4515184D1*
X3357699Y4494399D2*
X3369699Y4473614D1*
X3381699Y4452829D2*
X3393699Y4432045D1*
X3405699Y4411260D2*
X3417699Y4390475D1*
X3273699Y4193560D2*
X3285699Y4200488D1*
X3297699Y4207417D2*
X3309699Y4214345D1*
X3321699Y4221273D2*
X3333699Y4228202D1*
X3345699Y4235130D2*
X3357699Y4242058D1*
X3369699Y4248986D2*
X3381699Y4255915D1*
X3393699Y4262843D2*
X3405699Y4269770D1*
X2745699Y4207277D2*
X2757699Y4222050D1*
X2769699Y4235220D2*
X2781699Y4247055D1*
X2793699Y4257747D2*
X2805699Y4267437D1*
X3201699D2*
X3213699Y4257747D1*
X3225699Y4247055D2*
X3237699Y4235220D1*
X3249699Y4222050D2*
X3261699Y4207277D1*
X2719461Y3852786D2*
X1212480Y2982731D1*
X2713845Y3863400D2*
X1206480Y2993123D1*
X2708614Y3874238D2*
X1200480Y3003514D1*
X2703774Y3885298D2*
X1194480Y3013907D1*
X2699327Y3896588D2*
X1188480Y3024299D1*
X2695281Y3908108D2*
X1182480Y3034692D1*
X2691643Y3919865D2*
X1176480Y3045084D1*
X2688427Y3931864D2*
X1170480Y3055476D1*
X2685642Y3944113D2*
X1164480Y3065869D1*
X2683307Y3956621D2*
X1158480Y3076261D1*
X2681440Y3969399D2*
X1152480Y3086654D1*
X2680063Y3982461D2*
X1146480Y3097046D1*
X2679205Y3995822D2*
X1140480Y3107438D1*
X2678898Y4009500D2*
X1134480Y3117831D1*
X2725461Y3842394D2*
X1218480Y2972339D1*
X2731845Y3832223D2*
X1224480Y2961946D1*
X2738614Y3822276D2*
X1230480Y2951554D1*
X2745774Y3812552D2*
X1236480Y2941161D1*
X2753327Y3803056D2*
X1242480Y2930769D1*
X2761281Y3793793D2*
X1248480Y2920377D1*
X2769643Y3784764D2*
X1254480Y2909984D1*
X2778427Y3775979D2*
X1260480Y2899592D1*
X2787642Y3767444D2*
X1266480Y2889199D1*
X2797307Y3759167D2*
X1272480Y2878807D1*
X2807440Y3751160D2*
X1278480Y2868415D1*
X2818063Y3743437D2*
X1284480Y2858022D1*
X2829205Y3736013D2*
X1290480Y2847630D1*
X2840898Y3728908D2*
X1296480Y2837239D1*
X2853180Y3722143D2*
X1302480Y2826846D1*
X1296480Y2837239D1*
X1290480Y2847630D2*
X1284480Y2858022D1*
X1278480Y2868415D2*
X1272480Y2878807D1*
X1266480Y2889199D2*
X1260480Y2899592D1*
X1254480Y2909984D2*
X1248480Y2920377D1*
X1242480Y2930769D2*
X1236480Y2941161D1*
X1230480Y2951554D2*
X1224480Y2961946D1*
X1218480Y2972339D2*
X1212480Y2982731D1*
X1206480Y2993123D2*
X1200480Y3003514D1*
X1194480Y3013907D2*
X1188480Y3024299D1*
X1182480Y3034692D2*
X1176480Y3045084D1*
X1170480Y3055476D2*
X1164480Y3065869D1*
X1158480Y3076261D2*
X1152480Y3086654D1*
X1146480Y3097046D2*
X1140480Y3107438D1*
X1134480Y3117831D2*
X1128480Y3128223D1*
X2678898Y4009500D2*
X2679205Y3995822D1*
X2680063Y3982461D2*
X2681440Y3969399D1*
X2683307Y3956621D2*
X2685642Y3944113D1*
X2688427Y3931864D2*
X2691643Y3919865D1*
X2695281Y3908108D2*
X2699327Y3896588D1*
X2703774Y3885298D2*
X2708614Y3874238D1*
X2713845Y3863400D2*
X2719461Y3852786D1*
X2725461Y3842394D2*
X2731845Y3832223D1*
X2738614Y3822276D2*
X2745774Y3812552D1*
X2753327Y3803056D2*
X2761281Y3793793D1*
X2840898Y3728908D2*
X2829205Y3736013D1*
X2818063Y3743437D2*
X2807440Y3751160D1*
X2797307Y3759167D2*
X2787642Y3767444D1*
X2778427Y3775979D2*
X2769643Y3784764D1*
X2859180Y3711751D2*
X2425167Y3461172D1*
X2879720Y3709753D2*
X2449167Y3461172D1*
X2894113Y3704206D2*
X2473167Y3461172D1*
X2909371Y3699160D2*
X2497167Y3461172D1*
X2925621Y3694685D2*
X2521167Y3461172D1*
X2943028Y3690878D2*
X2545167Y3461172D1*
X2961822Y3687871D2*
X2569167Y3461172D1*
X2979699Y3684337D2*
X2593167Y3461172D1*
X2979699Y3670482D2*
X2617167Y3461172D1*
X2979699Y3656625D2*
X2641167Y3461172D1*
X2979699Y3642769D2*
X2665167Y3461172D1*
X2979699Y3628912D2*
X2689167Y3461172D1*
X2979699Y3615055D2*
X2713167Y3461172D1*
X2979699Y3601199D2*
X2737167Y3461172D1*
X2979699Y3587343D2*
X2761167Y3461172D1*
X2979699Y3573487D2*
X2785167Y3461172D1*
X2979699Y3559630D2*
X2809167Y3461172D1*
X2979699Y3545773D2*
X2833167Y3461172D1*
X2979699Y3531917D2*
X2857167Y3461172D1*
X2979699Y3518060D2*
X2881167Y3461172D1*
X2853180Y3722143D2*
X2859180Y3711751D1*
X2425167Y3461172D2*
X2449167D1*
X2473167D2*
X2497167D1*
X2521167D2*
X2545167D1*
X2569167D2*
X2593167D1*
X2617167D2*
X2641167D1*
X2665167D2*
X2689167D1*
X2713167D2*
X2737167D1*
X2761167D2*
X2785167D1*
X2809167D2*
X2833167D1*
X2857167D2*
X2881167D1*
X2979699Y3684337D2*
Y3670482D1*
Y3656625D2*
Y3642769D1*
Y3628912D2*
Y3615055D1*
Y3601199D2*
Y3587343D1*
Y3573487D2*
Y3559630D1*
Y3545773D2*
Y3531917D1*
X2679180Y4023520D2*
X1128480Y3128223D1*
X2673180Y4033912D2*
X2239167Y3783335D1*
X2681720Y4052699D2*
X2251167Y3804118D1*
X2684113Y4067937D2*
X2263167Y3824903D1*
X2687371Y4083675D2*
X2275167Y3845688D1*
X2691621Y4099984D2*
X2287167Y3866472D1*
X2697028Y4116962D2*
X2299167Y3887257D1*
X2703822Y4134741D2*
X2311167Y3908042D1*
X2709699Y4151991D2*
X2323167Y3928827D1*
X2697699Y4158920D2*
X2335167Y3949610D1*
X2685699Y4165848D2*
X2347167Y3970395D1*
X2673699Y4172776D2*
X2359167Y3991180D1*
X2661699Y4179705D2*
X2371167Y4011965D1*
X2649699Y4186633D2*
X2383167Y4032749D1*
X2637699Y4193560D2*
X2395167Y4053534D1*
X2625699Y4200488D2*
X2407167Y4074319D1*
X2613699Y4207417D2*
X2419167Y4095104D1*
X2601699Y4214345D2*
X2431167Y4115887D1*
X2589699Y4221273D2*
X2443167Y4136672D1*
X2577699Y4228202D2*
X2455167Y4157457D1*
X2565699Y4235130D2*
X2467167Y4178241D1*
X2679180Y4023520D2*
X2673180Y4033912D1*
X2239167Y3783335D2*
X2251167Y3804118D1*
X2263167Y3824903D2*
X2275167Y3845688D1*
X2287167Y3866472D2*
X2299167Y3887257D1*
X2311167Y3908042D2*
X2323167Y3928827D1*
X2335167Y3949610D2*
X2347167Y3970395D1*
X2359167Y3991180D2*
X2371167Y4011965D1*
X2383167Y4032749D2*
X2395167Y4053534D1*
X2407167Y4074319D2*
X2419167Y4095104D1*
X2431167Y4115887D2*
X2443167Y4136672D1*
X2455167Y4157457D2*
X2467167Y4178241D1*
X2709699Y4151991D2*
X2697699Y4158920D1*
X2685699Y4165848D2*
X2673699Y4172776D1*
X2661699Y4179705D2*
X2649699Y4186633D1*
X2637699Y4193560D2*
X2625699Y4200488D1*
X2613699Y4207417D2*
X2601699Y4214345D1*
X2589699Y4221273D2*
X2577699Y4228202D1*
X2961822Y3687871D2*
X2943028Y3690878D1*
X2925621Y3694685D2*
X2909371Y3699160D1*
X2894113Y3704206D2*
X2879720Y3709753D1*
X2681720Y4052699D2*
X2684113Y4067937D1*
X2687371Y4083675D2*
X2691621Y4099984D1*
X2697028Y4116962D2*
X2703822Y4134741D1*
X3281938Y3842394D2*
X4788919Y2972339D1*
X3275554Y3832223D2*
X4782919Y2961946D1*
X3268785Y3822276D2*
X4776919Y2951554D1*
X3261625Y3812552D2*
X4770919Y2941161D1*
X3254072Y3803056D2*
X4764919Y2930769D1*
X3246118Y3793793D2*
X4758919Y2920377D1*
X3237756Y3784764D2*
X4752919Y2909984D1*
X3228972Y3775979D2*
X4746919Y2899592D1*
X3219757Y3767444D2*
X4740919Y2889199D1*
X3210092Y3759167D2*
X4734919Y2878807D1*
X3199959Y3751160D2*
X4728919Y2868415D1*
X3189336Y3743437D2*
X4722919Y2858022D1*
X3178194Y3736013D2*
X4716919Y2847630D1*
X3166501Y3728908D2*
X4710919Y2837239D1*
X3287938Y3852786D2*
X4794919Y2982731D1*
X3293554Y3863400D2*
X4800919Y2993123D1*
X3298785Y3874238D2*
X4806919Y3003514D1*
X3303625Y3885298D2*
X4812919Y3013907D1*
X3308072Y3896588D2*
X4818919Y3024299D1*
X3312118Y3908108D2*
X4824919Y3034692D1*
X3315756Y3919865D2*
X4830919Y3045084D1*
X3318972Y3931864D2*
X4836919Y3055476D1*
X3321757Y3944113D2*
X4842919Y3065869D1*
X3324092Y3956621D2*
X4848919Y3076261D1*
X3325959Y3969399D2*
X4854919Y3086654D1*
X3327336Y3982461D2*
X4860919Y3097046D1*
X3328194Y3995822D2*
X4866919Y3107438D1*
X3328501Y4009500D2*
X4872919Y3117831D1*
X3328219Y4023520D2*
X4878919Y3128223D1*
X4872919Y3117831D1*
X4866919Y3107438D2*
X4860919Y3097046D1*
X4854919Y3086654D2*
X4848919Y3076261D1*
X4842919Y3065869D2*
X4836919Y3055476D1*
X4830919Y3045084D2*
X4824919Y3034692D1*
X4818919Y3024299D2*
X4812919Y3013907D1*
X4806919Y3003514D2*
X4800919Y2993123D1*
X4794919Y2982731D2*
X4788919Y2972339D1*
X4782919Y2961946D2*
X4776919Y2951554D1*
X4770919Y2941161D2*
X4764919Y2930769D1*
X4758919Y2920377D2*
X4752919Y2909984D1*
X4746919Y2899592D2*
X4740919Y2889199D1*
X4734919Y2878807D2*
X4728919Y2868415D1*
X4722919Y2858022D2*
X4716919Y2847630D1*
X4710919Y2837239D2*
X4704919Y2826846D1*
X3166501Y3728908D2*
X3178194Y3736013D1*
X3189336Y3743437D2*
X3199959Y3751160D1*
X3210092Y3759167D2*
X3219757Y3767444D1*
X3228972Y3775979D2*
X3237756Y3784764D1*
X3246118Y3793793D2*
X3254072Y3803056D1*
X3261625Y3812552D2*
X3268785Y3822276D1*
X3275554Y3832223D2*
X3281938Y3842394D1*
X3287938Y3852786D2*
X3293554Y3863400D1*
X3298785Y3874238D2*
X3303625Y3885298D1*
X3308072Y3896588D2*
X3312118Y3908108D1*
X3328501Y4009500D2*
X3328194Y3995822D1*
X3327336Y3982461D2*
X3325959Y3969399D1*
X3324092Y3956621D2*
X3321757Y3944113D1*
X3318972Y3931864D2*
X3315756Y3919865D1*
X3334219Y4033912D2*
X3768232Y3783335D1*
X3325678Y4052699D2*
X3756232Y3804118D1*
X3323286Y4067937D2*
X3744232Y3824903D1*
X3320028Y4083675D2*
X3732232Y3845688D1*
X3315778Y4099984D2*
X3720232Y3866472D1*
X3310371Y4116962D2*
X3708232Y3887257D1*
X3303577Y4134741D2*
X3696232Y3908042D1*
X3297699Y4151991D2*
X3684232Y3928827D1*
X3309699Y4158920D2*
X3672232Y3949610D1*
X3321699Y4165848D2*
X3660232Y3970395D1*
X3333699Y4172776D2*
X3648232Y3991180D1*
X3345699Y4179705D2*
X3636232Y4011965D1*
X3357699Y4186633D2*
X3624232Y4032749D1*
X3369699Y4193560D2*
X3612232Y4053534D1*
X3381699Y4200488D2*
X3600232Y4074319D1*
X3393699Y4207417D2*
X3588232Y4095104D1*
X3405699Y4214345D2*
X3576232Y4115887D1*
X3417699Y4221273D2*
X3564232Y4136672D1*
X3429699Y4228202D2*
X3552232Y4157457D1*
X3441699Y4235130D2*
X3540232Y4178241D1*
X3328219Y4023520D2*
X3334219Y4033912D1*
X3768232Y3783335D2*
X3756232Y3804118D1*
X3744232Y3824903D2*
X3732232Y3845688D1*
X3720232Y3866472D2*
X3708232Y3887257D1*
X3696232Y3908042D2*
X3684232Y3928827D1*
X3672232Y3949610D2*
X3660232Y3970395D1*
X3648232Y3991180D2*
X3636232Y4011965D1*
X3624232Y4032749D2*
X3612232Y4053534D1*
X3600232Y4074319D2*
X3588232Y4095104D1*
X3576232Y4115887D2*
X3564232Y4136672D1*
X3552232Y4157457D2*
X3540232Y4178241D1*
X3297699Y4151991D2*
X3309699Y4158920D1*
X3321699Y4165848D2*
X3333699Y4172776D1*
X3345699Y4179705D2*
X3357699Y4186633D1*
X3369699Y4193560D2*
X3381699Y4200488D1*
X3393699Y4207417D2*
X3405699Y4214345D1*
X3417699Y4221273D2*
X3429699Y4228202D1*
X3154219Y3722143D2*
X4704919Y2826846D1*
X3148219Y3711751D2*
X3582232Y3461172D1*
X3127678Y3709753D2*
X3558232Y3461172D1*
X3113286Y3704206D2*
X3534232Y3461172D1*
X3098028Y3699160D2*
X3510232Y3461172D1*
X3081778Y3694685D2*
X3486232Y3461172D1*
X3064371Y3690878D2*
X3462232Y3461172D1*
X3045577Y3687871D2*
X3438232Y3461172D1*
X3027699Y3684337D2*
X3414232Y3461172D1*
X3027699Y3670482D2*
X3390232Y3461172D1*
X3027699Y3656625D2*
X3366232Y3461172D1*
X3027699Y3642769D2*
X3342232Y3461172D1*
X3027699Y3628912D2*
X3318232Y3461172D1*
X3027699Y3615055D2*
X3294232Y3461172D1*
X3027699Y3601199D2*
X3270232Y3461172D1*
X3027699Y3587343D2*
X3246232Y3461172D1*
X3027699Y3573487D2*
X3222232Y3461172D1*
X3027699Y3559630D2*
X3198232Y3461172D1*
X3027699Y3545773D2*
X3174232Y3461172D1*
X3027699Y3531917D2*
X3150232Y3461172D1*
X3027699Y3518060D2*
X3126232Y3461172D1*
X3154219Y3722143D2*
X3148219Y3711751D1*
X3582232Y3461172D2*
X3558232D1*
X3534232D2*
X3510232D1*
X3486232D2*
X3462232D1*
X3438232D2*
X3414232D1*
X3390232D2*
X3366232D1*
X3342232D2*
X3318232D1*
X3294232D2*
X3270232D1*
X3246232D2*
X3222232D1*
X3198232D2*
X3174232D1*
X3150232D2*
X3126232D1*
X3027699Y3684337D2*
Y3670482D1*
Y3656625D2*
Y3642769D1*
Y3628912D2*
Y3615055D1*
Y3601199D2*
Y3587343D1*
Y3573487D2*
Y3559630D1*
Y3545773D2*
Y3531917D1*
X3303577Y4134741D2*
X3310371Y4116962D1*
X3315778Y4099984D2*
X3320028Y4083675D1*
X3323286Y4067937D2*
X3325678Y4052699D1*
X3127678Y3709753D2*
X3113286Y3704206D1*
X3098028Y3699160D2*
X3081778Y3694685D1*
X3064371Y3690878D2*
X3045577Y3687871D1*
M02*
