G04 DipTrace 3.0.0.2*
G04 Inner1.gbr*
%MOIN*%
G04 #@! TF.FileFunction,Copper,L2,Inr*
G04 #@! TF.Part,Single*
%AMOUTLINE6*5,1,4,0,0,0.094653,-164.999604*%
%AMOUTLINE9*5,1,4,0,0,0.094653,-195.000396*%
G04 #@! TA.AperFunction,Conductor*
%ADD13C,0.012992*%
G04 #@! TA.AperFunction,ComponentPad*
%ADD16C,0.09*%
G04 #@! TA.AperFunction,Conductor*
%ADD18C,0.013*%
G04 #@! TA.AperFunction,CopperBalancing*
%ADD19C,0.025*%
G04 #@! TA.AperFunction,Nonconductor*
%ADD20C,0.004*%
G04 #@! TA.AperFunction,ComponentPad*
%ADD23C,0.12*%
%ADD24C,0.065*%
%ADD31C,0.066929*%
%ADD32R,0.059055X0.059055*%
%ADD33C,0.059055*%
%ADD38C,0.08*%
%ADD39C,0.25*%
%ADD40C,0.031*%
G04 #@! TA.AperFunction,ViaPad*
%ADD41C,0.04*%
%ADD43C,0.059*%
G04 #@! TA.AperFunction,ComponentPad*
%ADD104OUTLINE6*%
%ADD107OUTLINE9*%
%FSLAX26Y26*%
G04*
G70*
G90*
G75*
G01*
G04 Inner1*
%LPD*%
X2392699Y4327518D2*
D16*
X2307451D1*
X2146215Y4166282D1*
X2091301Y4155262D1*
X2585528Y4276448D2*
D13*
X2563753Y4239432D1*
X3421892Y4277900D2*
X3447476Y4236529D1*
X3057411Y3467768D2*
D18*
X3028699Y3496479D1*
Y3513353D1*
X3269699Y3400518D2*
D13*
Y3397518D1*
X3378699Y3288518D1*
X3768699D1*
X3771699Y3291518D1*
X3269699Y3400518D2*
Y3416400D1*
X3254016Y3432084D1*
X3093094D1*
X3057411Y3467768D1*
X2960474D2*
X2978699Y3485993D1*
Y3512402D1*
X2813299Y3421727D2*
X2914433D1*
X2960474Y3467768D1*
D41*
X3154699Y3186518D3*
X3428655Y3336589D3*
X2916199Y3224018D3*
X2784972Y3030371D3*
X2153789Y3236600D3*
X3567699Y3084518D3*
X3553642Y3405332D3*
X3301169Y3280345D3*
X3442699Y3400518D3*
D43*
X3204505Y3385713D3*
X2952143Y3384962D3*
X2531699Y4276518D3*
D41*
X1928812Y3655306D3*
X3409699Y3040518D3*
D43*
X3927699Y3750518D3*
X2303699Y3980269D3*
X3891199Y4361518D3*
X3869949Y4186768D3*
X3944950Y4055518D3*
D41*
X3269699Y3400518D3*
X2960474Y3467768D3*
X3057411D3*
X3771699Y3291518D3*
X2813299Y3421727D3*
X3371096Y6470664D2*
D19*
X5541121D1*
X3371096Y6445795D2*
X5541121D1*
X3371096Y6420927D2*
X5541121D1*
X3371096Y6396058D2*
X5541121D1*
X3371096Y6371189D2*
X5541121D1*
X3371096Y6346320D2*
X5541121D1*
X3371096Y6321451D2*
X5541121D1*
X3371096Y6296583D2*
X5541121D1*
X3371096Y6271714D2*
X5541121D1*
X3371096Y6246845D2*
X5541121D1*
X3371096Y6221976D2*
X5541121D1*
X3371096Y6197108D2*
X5541121D1*
X3371096Y6172239D2*
X5541121D1*
X3371096Y6147370D2*
X5541121D1*
X3371096Y6122501D2*
X5541121D1*
X3371096Y6097633D2*
X5541121D1*
X3371096Y6072764D2*
X5541121D1*
X3371096Y6047895D2*
X5541121D1*
X3371096Y6023026D2*
X5541121D1*
X3371096Y5998157D2*
X5541121D1*
X3371096Y5973289D2*
X5541121D1*
X3371096Y5948420D2*
X5541121D1*
X3371096Y5923551D2*
X5541121D1*
X3371096Y5898682D2*
X5541121D1*
X3371096Y5873814D2*
X5541121D1*
X3371096Y5848945D2*
X5541121D1*
X3371096Y5824076D2*
X5541121D1*
X3371096Y5799207D2*
X5541121D1*
X3371096Y5774339D2*
X5541121D1*
X3371096Y5749470D2*
X5541121D1*
X3371096Y5724601D2*
X5541121D1*
X3371096Y5699732D2*
X5541121D1*
X3371096Y5674864D2*
X5541121D1*
X3371096Y5649995D2*
X5541121D1*
X3371096Y5625126D2*
X5541121D1*
X3371096Y5600257D2*
X5541121D1*
X3371096Y5575388D2*
X5541121D1*
X3371096Y5550520D2*
X5541121D1*
X3371096Y5525651D2*
X5541121D1*
X3371096Y5500782D2*
X5541121D1*
X3371096Y5475913D2*
X5541121D1*
X3377370Y5451045D2*
X5541121D1*
X3392311Y5426176D2*
X5541121D1*
X3407205Y5401307D2*
X5541121D1*
X3422146Y5376438D2*
X5541121D1*
X3437038Y5351570D2*
X5541121D1*
X3451979Y5326701D2*
X5541121D1*
X3466873Y5301832D2*
X5541121D1*
X3481814Y5276963D2*
X5541121D1*
X3496755Y5252094D2*
X5541121D1*
X3511647Y5227226D2*
X5541121D1*
X3776491Y5202357D2*
X5541121D1*
X3791139Y5177488D2*
X5541121D1*
X3805837Y5152619D2*
X5541121D1*
X3820534Y5127751D2*
X5541121D1*
X3835231Y5102882D2*
X5541121D1*
X3849929Y5078013D2*
X5541121D1*
X3864626Y5053144D2*
X5541121D1*
X3879323Y5028276D2*
X5541121D1*
X3894021Y5003407D2*
X5541121D1*
X3908718Y4978538D2*
X5541121D1*
X3923415Y4953669D2*
X5541121D1*
X3938113Y4928801D2*
X5541121D1*
X3952810Y4903932D2*
X5541121D1*
X3967507Y4879063D2*
X5541121D1*
X3982205Y4854194D2*
X5541121D1*
X3996902Y4829325D2*
X5541121D1*
X4011598Y4804457D2*
X5541121D1*
X4026297Y4779588D2*
X5541121D1*
X4040993Y4754719D2*
X5541121D1*
X4055690Y4729850D2*
X5541121D1*
X4070387Y4704982D2*
X5541121D1*
X4085085Y4680113D2*
X5541121D1*
X4099782Y4655244D2*
X5541121D1*
X4114479Y4630375D2*
X5541121D1*
X4129177Y4605507D2*
X5541121D1*
X4143825Y4580638D2*
X5541121D1*
X4158522Y4555769D2*
X5541121D1*
X4173220Y4530900D2*
X5541121D1*
X4187917Y4506031D2*
X5541121D1*
X4202614Y4481163D2*
X5541121D1*
X4217311Y4456294D2*
X5541121D1*
X4232009Y4431425D2*
X5541121D1*
X4246706Y4406556D2*
X5541121D1*
X4261403Y4381688D2*
X5541121D1*
X4276101Y4356819D2*
X5541121D1*
X4290798Y4331950D2*
X5541121D1*
X4305495Y4307081D2*
X5541121D1*
X4320193Y4282213D2*
X5541121D1*
X4334890Y4257344D2*
X5541121D1*
X4349587Y4232475D2*
X5541121D1*
X4364285Y4207606D2*
X5541121D1*
X4378982Y4182738D2*
X5541121D1*
X4393678Y4157869D2*
X5541121D1*
X4408377Y4133000D2*
X5541121D1*
X4422097Y4108131D2*
X5541121D1*
X4412136Y4083262D2*
X5541121D1*
X4402223Y4058394D2*
X5541121D1*
X4392262Y4033525D2*
X5541121D1*
X4382302Y4008656D2*
X5541121D1*
X4372341Y3983787D2*
X5541121D1*
X4362429Y3958919D2*
X5541121D1*
X4352469Y3934050D2*
X5541121D1*
X4342507Y3909181D2*
X5541121D1*
X4332594Y3884312D2*
X5541121D1*
X4322634Y3859444D2*
X5541121D1*
X4334304Y3834575D2*
X5541121D1*
X4346755Y3809706D2*
X5541121D1*
X4359157Y3784837D2*
X5541121D1*
X4371609Y3759969D2*
X5541121D1*
X4384059Y3735100D2*
X5541121D1*
X4396462Y3710231D2*
X5541121D1*
X4408913Y3685362D2*
X5541121D1*
X4421365Y3660493D2*
X5541121D1*
X4433766Y3635625D2*
X5541121D1*
X4446218Y3610756D2*
X5541121D1*
X4458621Y3585887D2*
X5541121D1*
X4478151Y3561018D2*
X5541121D1*
X4520437Y3536150D2*
X5541121D1*
X4562722Y3511281D2*
X5541121D1*
X4605007Y3486412D2*
X5541121D1*
X4647293Y3461543D2*
X5541071D1*
X4689577Y3436675D2*
X5525495D1*
X4731814Y3411806D2*
X5509969D1*
X4774098Y3386937D2*
X5494441D1*
X4816385Y3362068D2*
X5478865D1*
X4858669Y3337199D2*
X5463337D1*
X4900954Y3312331D2*
X5447810D1*
X4943239Y3287462D2*
X5432234D1*
X4985475Y3262593D2*
X5416706D1*
X5027761Y3237724D2*
X5401178D1*
X5070046Y3212856D2*
X5385602D1*
X5112331Y3187987D2*
X5370075D1*
X5154617Y3163118D2*
X5354549D1*
X5196902Y3138249D2*
X5338971D1*
X5239138Y3113381D2*
X5323445D1*
X5281423Y3088512D2*
X5307917D1*
X5531096Y6495533D2*
X3368596D1*
Y5461500D1*
X3513199Y5220490D1*
X3758051Y5220379D1*
X3761770Y5219171D1*
X3764934Y5216871D1*
X3766857Y5214392D1*
X4417719Y4112630D1*
X4418571Y4108814D1*
X4418202Y4104920D1*
X4399133Y4056967D1*
X4319770Y3858562D1*
X4465621Y3566933D1*
X5301936Y3074982D1*
X5543610Y3461642D1*
X5543596Y6495533D1*
X5531096D1*
X442500Y6474875D2*
X2662525D1*
X442500Y6450007D2*
X2662525D1*
X442500Y6425138D2*
X2662525D1*
X442500Y6400269D2*
X2662525D1*
X442500Y6375400D2*
X662427D1*
X742573D2*
X2662525D1*
X442500Y6350531D2*
X637281D1*
X767719D2*
X2662525D1*
X442500Y6325663D2*
X627759D1*
X777241D2*
X2662525D1*
X442500Y6300794D2*
X627417D1*
X777583D2*
X2662525D1*
X442500Y6275925D2*
X636109D1*
X768891D2*
X2662525D1*
X442500Y6251056D2*
X659302D1*
X745698D2*
X2662525D1*
X442500Y6226188D2*
X2662525D1*
X442500Y6201319D2*
X2662525D1*
X442500Y6176450D2*
X2662525D1*
X442500Y6151581D2*
X2662525D1*
X442500Y6126713D2*
X2662525D1*
X442500Y6101844D2*
X2662525D1*
X442500Y6076975D2*
X2662525D1*
X442500Y6052106D2*
X2662525D1*
X442500Y6027238D2*
X2662525D1*
X442500Y6002369D2*
X2662525D1*
X442500Y5977500D2*
X2662525D1*
X442500Y5952631D2*
X2662525D1*
X442500Y5927762D2*
X2662525D1*
X442500Y5902894D2*
X2662525D1*
X442500Y5878025D2*
X2662525D1*
X442500Y5853156D2*
X2662525D1*
X442500Y5828287D2*
X2662525D1*
X442500Y5803419D2*
X2662525D1*
X442500Y5778550D2*
X2662525D1*
X442500Y5753681D2*
X2662525D1*
X442500Y5728812D2*
X2662525D1*
X442500Y5703944D2*
X2662525D1*
X442500Y5679075D2*
X2662525D1*
X442500Y5654206D2*
X2662525D1*
X442500Y5629337D2*
X2662525D1*
X442500Y5604469D2*
X2662525D1*
X442500Y5579600D2*
X2662525D1*
X442500Y5554731D2*
X2662525D1*
X442500Y5529862D2*
X2662525D1*
X442500Y5504993D2*
X2662525D1*
X442500Y5480125D2*
X2662525D1*
X442500Y5455256D2*
X2662525D1*
X442500Y5430387D2*
X2662525D1*
X442500Y5405518D2*
X2650025D1*
X442500Y5380650D2*
X2635669D1*
X442500Y5355781D2*
X2621314D1*
X442500Y5330912D2*
X2606958D1*
X442500Y5306043D2*
X2592602D1*
X442500Y5281175D2*
X2578247D1*
X442500Y5256306D2*
X2563891D1*
X442500Y5231437D2*
X2549537D1*
X442500Y5206568D2*
X2535181D1*
X442500Y5181699D2*
X2520825D1*
X442500Y5156831D2*
X2207789D1*
X442500Y5131962D2*
X2194262D1*
X442500Y5107093D2*
X2180689D1*
X442500Y5082224D2*
X2167114D1*
X442500Y5057356D2*
X2153541D1*
X442500Y5032487D2*
X2139966D1*
X442500Y5007618D2*
X2126441D1*
X442500Y4982749D2*
X2112866D1*
X442500Y4957881D2*
X2099291D1*
X442500Y4933012D2*
X2085718D1*
X442500Y4908143D2*
X2072143D1*
X442500Y4883274D2*
X2058618D1*
X442500Y4858406D2*
X2045043D1*
X442500Y4833537D2*
X2031470D1*
X442500Y4808668D2*
X2017895D1*
X442500Y4783799D2*
X2004322D1*
X442500Y4758930D2*
X1990795D1*
X442500Y4734062D2*
X1977222D1*
X442500Y4709193D2*
X1963647D1*
X442500Y4684324D2*
X1950073D1*
X442500Y4659455D2*
X1936499D1*
X442500Y4634587D2*
X1922925D1*
X442500Y4609718D2*
X1909399D1*
X442500Y4584849D2*
X1895825D1*
X442500Y4559980D2*
X1882251D1*
X442500Y4535112D2*
X1868677D1*
X442500Y4510243D2*
X1855102D1*
X442500Y4485374D2*
X1841577D1*
X442500Y4460505D2*
X1828003D1*
X442500Y4435636D2*
X1814429D1*
X442500Y4410768D2*
X1800854D1*
X442500Y4385899D2*
X1787281D1*
X442500Y4361030D2*
X1773755D1*
X442500Y4336161D2*
X1760181D1*
X442500Y4311293D2*
X1746314D1*
X442500Y4286424D2*
X1731177D1*
X442500Y4261555D2*
X1716822D1*
X442500Y4236686D2*
X1702466D1*
X442500Y4211818D2*
X1688110D1*
X442500Y4186949D2*
X1675610D1*
X442500Y4162080D2*
X1665210D1*
X442500Y4137211D2*
X1651635D1*
X442500Y4112343D2*
X1638110D1*
X442500Y4087474D2*
X1624537D1*
X442500Y4062605D2*
X1610962D1*
X442500Y4037736D2*
X1623266D1*
X442500Y4012867D2*
X1635718D1*
X442500Y3987999D2*
X1648169D1*
X442500Y3963130D2*
X1660571D1*
X442500Y3938261D2*
X1673022D1*
X442500Y3913392D2*
X1685474D1*
X442500Y3888524D2*
X1697875D1*
X442500Y3863655D2*
X1710327D1*
X442500Y3838786D2*
X1699291D1*
X442500Y3813917D2*
X1686841D1*
X442500Y3789049D2*
X1674438D1*
X442500Y3764180D2*
X1661987D1*
X442500Y3739311D2*
X1649537D1*
X442500Y3714442D2*
X1637134D1*
X442500Y3689573D2*
X1624682D1*
X442500Y3664705D2*
X1612231D1*
X442500Y3639836D2*
X1599829D1*
X442500Y3614967D2*
X1579858D1*
X442719Y3590098D2*
X1537231D1*
X456391Y3565230D2*
X1494605D1*
X470063Y3540361D2*
X1451978D1*
X483735Y3515492D2*
X1409350D1*
X497407Y3490623D2*
X1366723D1*
X511079Y3465755D2*
X1324047D1*
X524751Y3440886D2*
X1281421D1*
X538423Y3416017D2*
X1238794D1*
X552094Y3391148D2*
X1196167D1*
X565815Y3366280D2*
X1153541D1*
X579487Y3341411D2*
X1110913D1*
X593159Y3316542D2*
X1068286D1*
X606831Y3291673D2*
X1025659D1*
X620503Y3266804D2*
X983033D1*
X634175Y3241936D2*
X940357D1*
X647846Y3217067D2*
X897730D1*
X661518Y3192198D2*
X855102D1*
X675239Y3167329D2*
X812475D1*
X688911Y3142461D2*
X769849D1*
X702583Y3117592D2*
X727222D1*
X775773Y6306478D2*
X773970Y6295085D1*
X770406Y6284117D1*
X765169Y6273840D1*
X758390Y6264509D1*
X750235Y6256354D1*
X740904Y6249575D1*
X730627Y6244339D1*
X719659Y6240774D1*
X708266Y6238971D1*
X696734D1*
X685341Y6240774D1*
X674373Y6244339D1*
X664096Y6249575D1*
X654765Y6256354D1*
X646610Y6264509D1*
X639831Y6273840D1*
X634594Y6284117D1*
X631030Y6295085D1*
X629227Y6306478D1*
Y6318010D1*
X631030Y6329403D1*
X634594Y6340371D1*
X639831Y6350648D1*
X646610Y6359979D1*
X654765Y6368134D1*
X664096Y6374913D1*
X674373Y6380150D1*
X685341Y6383714D1*
X696734Y6385517D1*
X708266D1*
X719659Y6383714D1*
X730627Y6380150D1*
X740904Y6374913D1*
X750235Y6368134D1*
X758390Y6359979D1*
X765169Y6350648D1*
X770406Y6340371D1*
X773970Y6329403D1*
X775773Y6318010D1*
Y6306478D1*
X1696600Y4222244D2*
X1744207Y4304522D1*
X1749109Y4311690D1*
X1784125Y4375493D1*
X2217597Y5169873D1*
X2220440Y5172559D1*
X2223972Y5174236D1*
X2227970Y5174731D1*
X2360459Y5174744D1*
X2374131Y5176390D1*
X2394385Y5177234D1*
X2520762D1*
X2664999Y5427121D1*
X2665000Y6499744D1*
X440000D1*
Y3590417D1*
X707297Y3104461D1*
X1593016Y3621182D1*
X1713539Y3862273D1*
X1615583Y4058471D1*
X1615000Y4062339D1*
X1615642Y4066197D1*
X1622512Y4079203D1*
X1670093Y4166436D1*
X1672339Y4173083D1*
X1680954Y4193458D1*
X1690350Y4211419D1*
X1696600Y4222244D1*
X1912970Y2923783D2*
X2204210D1*
X3792121D2*
X4143371D1*
X1868196Y2898915D2*
X2216661D1*
X3773469D2*
X4190344D1*
X1823469Y2874046D2*
X2229064D1*
X3754816D2*
X4237316D1*
X1778693Y2849177D2*
X2241516D1*
X3736164D2*
X4284289D1*
X1733917Y2824308D2*
X2253966D1*
X3717512D2*
X4331261D1*
X1689142Y2799440D2*
X2266369D1*
X3698860D2*
X4378234D1*
X1644416Y2774571D2*
X2278820D1*
X3680207D2*
X4425207D1*
X1599640Y2749702D2*
X2291272D1*
X3661554D2*
X4472180D1*
X1554865Y2724833D2*
X4519152D1*
X1510089Y2699965D2*
X4566125D1*
X1465314Y2675096D2*
X4613097D1*
X1420588Y2650227D2*
X4660070D1*
X1375812Y2625358D2*
X4707042D1*
X1331037Y2600490D2*
X4754016D1*
X1286261Y2575621D2*
X4464220D1*
X4539777D2*
X4800988D1*
X1241535Y2550752D2*
X4437560D1*
X4566437D2*
X4847961D1*
X1196760Y2525883D2*
X4427501D1*
X4576496D2*
X4894982D1*
X1151984Y2501014D2*
X4426720D1*
X4577277D2*
X4931993D1*
X1107209Y2476146D2*
X4434874D1*
X4569123D2*
X4922033D1*
X1073420Y2451277D2*
X4456848D1*
X4547150D2*
X4912072D1*
X1085822Y2426408D2*
X4902160D1*
X1098273Y2401539D2*
X4892199D1*
X1110724Y2376671D2*
X4882238D1*
X1123126Y2351802D2*
X4872277D1*
X1135577Y2326933D2*
X4862365D1*
X1148029Y2302064D2*
X4852404D1*
X1160432Y2277196D2*
X4842444D1*
X4575272Y2505386D2*
X4573469Y2493993D1*
X4569904Y2483025D1*
X4564668Y2472748D1*
X4557888Y2463417D1*
X4549734Y2455262D1*
X4540403Y2448483D1*
X4530126Y2443247D1*
X4519157Y2439682D1*
X4507765Y2437879D1*
X4496232D1*
X4484840Y2439682D1*
X4473871Y2443247D1*
X4463594Y2448483D1*
X4454264Y2455262D1*
X4446109Y2463417D1*
X4439329Y2472748D1*
X4434093Y2483025D1*
X4430529Y2493993D1*
X4428726Y2505386D1*
Y2516919D1*
X4430529Y2528311D1*
X4434093Y2539280D1*
X4439329Y2549556D1*
X4446109Y2558887D1*
X4454264Y2567042D1*
X4463594Y2573822D1*
X4473871Y2579058D1*
X4484840Y2582622D1*
X4496232Y2584425D1*
X4507765D1*
X4519157Y2582622D1*
X4530126Y2579058D1*
X4540403Y2573822D1*
X4549734Y2567042D1*
X4557888Y2558887D1*
X4564668Y2549556D1*
X4569904Y2539280D1*
X4573469Y2528311D1*
X4575272Y2516919D1*
Y2505386D1*
X1068529Y2456042D2*
X1159745Y2273612D1*
X4843551Y2273652D1*
X4936232Y2505394D1*
X4098873Y2948664D1*
X3808199Y2948652D1*
X3660702Y2752180D1*
X3657504Y2749929D1*
X3653766Y2748778D1*
X3614499Y2748652D1*
X2300043Y2748806D1*
X2296324Y2750014D1*
X2293160Y2752314D1*
X2290693Y2755843D1*
X2194252Y2948693D1*
X1955172Y2948652D1*
X1068503Y2456022D1*
X481976Y2987944D2*
X499119D1*
X481976Y2963075D2*
X513134D1*
X481976Y2938206D2*
X527098D1*
X481976Y2913337D2*
X541112D1*
X481976Y2888469D2*
X555077D1*
X481976Y2863600D2*
X569091D1*
X481976Y2838731D2*
X583055D1*
X481976Y2813862D2*
X597070D1*
X481976Y2788993D2*
X611034D1*
X481976Y2764125D2*
X625047D1*
X481976Y2739256D2*
X639013D1*
X481976Y2714387D2*
X653026D1*
X481976Y2689518D2*
X666991D1*
X481976Y2664650D2*
X681005D1*
X481976Y2639781D2*
X694970D1*
X481976Y2614912D2*
X708983D1*
X481976Y2590043D2*
X722948D1*
X481976Y2565175D2*
X736962D1*
X481976Y2540306D2*
X750927D1*
X481976Y2515437D2*
X764940D1*
X481976Y2490568D2*
X778906D1*
X481976Y2465699D2*
X792870D1*
X481976Y2440831D2*
X806883D1*
X481976Y2415962D2*
X820849D1*
X481976Y2391093D2*
X834862D1*
X481976Y2366224D2*
X848827D1*
X481976Y2341356D2*
X862841D1*
X481976Y2316487D2*
X876806D1*
X481976Y2291618D2*
X890819D1*
X479476Y3027345D2*
Y2287550D1*
X895639D1*
X479472Y3027337D1*
X5519856Y2984169D2*
X5537024D1*
X5505841Y2959301D2*
X5537024D1*
X5491877Y2934432D2*
X5537024D1*
X5477864Y2909563D2*
X5537024D1*
X5463898Y2884694D2*
X5537024D1*
X5449885Y2859825D2*
X5537024D1*
X5435920Y2834957D2*
X5537024D1*
X5421906Y2810088D2*
X5537024D1*
X5407941Y2785219D2*
X5537024D1*
X5393928Y2760350D2*
X5537024D1*
X5379962Y2735482D2*
X5537024D1*
X5365949Y2710613D2*
X5537024D1*
X5351984Y2685744D2*
X5537024D1*
X5337970Y2660875D2*
X5537024D1*
X5324005Y2636007D2*
X5537024D1*
X5309992Y2611138D2*
X5537024D1*
X5296028Y2586269D2*
X5537024D1*
X5282013Y2561400D2*
X5537024D1*
X5268049Y2536531D2*
X5537024D1*
X5254035Y2511663D2*
X5537024D1*
X5240070Y2486794D2*
X5537024D1*
X5226105Y2461925D2*
X5537024D1*
X5212092Y2437056D2*
X5537024D1*
X5198126Y2412188D2*
X5537024D1*
X5184113Y2387319D2*
X5537024D1*
X5170148Y2362450D2*
X5537024D1*
X5156134Y2337581D2*
X5537024D1*
X5142169Y2312713D2*
X5537024D1*
X5128156Y2287844D2*
X5537024D1*
X5539499Y2296276D2*
Y3023571D1*
X5123358Y2283751D1*
X5539499Y2283776D1*
Y2296276D1*
X469702Y6875214D2*
X5539727D1*
X469702Y6850345D2*
X5539727D1*
X469702Y6825476D2*
X5539727D1*
X469702Y6800608D2*
X5539727D1*
X469702Y6775739D2*
X5539727D1*
X469702Y6750870D2*
X5539727D1*
X469702Y6726001D2*
X5539727D1*
X467202Y6887583D2*
Y6725083D1*
X5542202D1*
Y6900083D1*
X467202D1*
Y6887583D1*
X2395084Y3407531D2*
X2444381D1*
X3325260D2*
X3497701D1*
X3609585D2*
X3625045D1*
X3343619Y3382663D2*
X3398971D1*
X3458365D2*
X3502681D1*
X3604605D2*
X3668160D1*
X2769205Y3357794D2*
X2892818D1*
X3368472D2*
X3377012D1*
X3480289D2*
X3526608D1*
X3580680D2*
X3711226D1*
X2547818Y3332925D2*
X2559587D1*
X2769205D2*
X2914108D1*
X3241373D2*
X3275240D1*
X3484537D2*
X3735299D1*
X2229849Y3308056D2*
X2267428D1*
X2505972D2*
X2544625D1*
X2762760D2*
X2949654D1*
X3204654D2*
X3300093D1*
X2188541Y3283188D2*
X2274996D1*
X2498404D2*
X2538228D1*
X2769156D2*
X3324996D1*
X3827066D2*
X3840425D1*
X2205192Y3258319D2*
X2293453D1*
X2479948D2*
X2542135D1*
X2765299D2*
X2872652D1*
X2959781D2*
X3349996D1*
X3816129D2*
X3883492D1*
X2209684Y3233450D2*
X2558980D1*
X2648404D2*
X2659012D1*
X2748404D2*
X2861031D1*
X2971353D2*
X3126509D1*
X3182877D2*
X3926558D1*
X2064615Y3208581D2*
X2105709D1*
X2201871D2*
X2862496D1*
X2969937D2*
X3103463D1*
X3205924D2*
X3963864D1*
X2348013Y3183713D2*
X2878512D1*
X2953873D2*
X3098776D1*
X3210612D2*
X3664693D1*
X2365055Y3158844D2*
X3106392D1*
X3202993D2*
X3649556D1*
X2382047Y3133975D2*
X3142135D1*
X3167252D2*
X3544820D1*
X3590592D2*
X3634420D1*
X2399088Y3109106D2*
X3517672D1*
X2416080Y3084238D2*
X3376364D1*
X3443033D2*
X3511715D1*
X2433121Y3059369D2*
X2737496D1*
X2832437D2*
X3357125D1*
X3462272D2*
X3517965D1*
X2450113Y3034500D2*
X2729146D1*
X2840836D2*
X3354049D1*
X3465348D2*
X3546236D1*
X2467154Y3009631D2*
X2733150D1*
X2836783D2*
X3363521D1*
X3455875D2*
X3558688D1*
X2484146Y2984762D2*
X2754488D1*
X2815445D2*
X3543551D1*
X3089144Y3294499D2*
X2952144Y3294462D1*
X2952143Y3321962D1*
X2942287Y3322738D1*
X2932675Y3325046D1*
X2923542Y3328828D1*
X2915113Y3333993D1*
X2907596Y3340415D1*
X2901175Y3347932D1*
X2896009Y3356361D1*
X2892227Y3365493D1*
X2889919Y3375106D1*
X2889270Y3381738D1*
X2848857Y3381731D1*
X2841253Y3376110D1*
X2833773Y3372299D1*
X2825789Y3369705D1*
X2817497Y3368392D1*
X2809101D1*
X2800810Y3369705D1*
X2792825Y3372299D1*
X2785345Y3376110D1*
X2778554Y3381046D1*
X2772618Y3386982D1*
X2767682Y3393773D1*
X2766728Y3395478D1*
X2766727Y3317241D1*
X2754764D1*
X2759857Y3308883D1*
X2763642Y3299745D1*
X2765951Y3290129D1*
X2766727Y3280269D1*
X2765951Y3270409D1*
X2763642Y3260793D1*
X2759857Y3251655D1*
X2754690Y3243222D1*
X2748266Y3235702D1*
X2740747Y3229278D1*
X2732314Y3224112D1*
X2723176Y3220327D1*
X2713559Y3218017D1*
X2703699Y3217241D1*
X2693840Y3218017D1*
X2684223Y3220327D1*
X2675085Y3224112D1*
X2666652Y3229278D1*
X2659133Y3235702D1*
X2653727Y3241932D1*
X2648266Y3235702D1*
X2640747Y3229278D1*
X2632314Y3224112D1*
X2623176Y3220327D1*
X2613559Y3218017D1*
X2603699Y3217241D1*
X2593840Y3218017D1*
X2584223Y3220327D1*
X2575085Y3224112D1*
X2566652Y3229278D1*
X2559133Y3235702D1*
X2552709Y3243222D1*
X2547542Y3251655D1*
X2543757Y3260793D1*
X2541448Y3270409D1*
X2540672Y3280269D1*
X2541448Y3290129D1*
X2543757Y3299745D1*
X2547542Y3308883D1*
X2552709Y3317316D1*
X2559133Y3324836D1*
X2565362Y3330241D1*
X2559133Y3335702D1*
X2553727Y3341932D1*
X2548266Y3335702D1*
X2540747Y3329278D1*
X2532314Y3324112D1*
X2523176Y3320327D1*
X2513559Y3318017D1*
X2504144Y3317259D1*
X2503563Y3308802D1*
X2501125Y3296770D1*
X2497541Y3286593D1*
X2492659Y3276971D1*
X2486564Y3268070D1*
X2479360Y3260038D1*
X2471167Y3253017D1*
X2462129Y3247125D1*
X2452399Y3242462D1*
X2442144Y3239110D1*
X2431539Y3237126D1*
X2424731Y3236126D1*
X2351396Y3236520D1*
X2340008Y3237369D1*
X2329451Y3239593D1*
X2319274Y3243177D1*
X2309652Y3248058D1*
X2300751Y3254154D1*
X2292719Y3261358D1*
X2285698Y3269551D1*
X2279806Y3278589D1*
X2275143Y3288319D1*
X2271791Y3298573D1*
X2269807Y3309178D1*
X2269223Y3319953D1*
X2270050Y3330710D1*
X2270680Y3334148D1*
X2183076Y3281396D1*
X2188534Y3277281D1*
X2194470Y3271345D1*
X2199406Y3264554D1*
X2203217Y3257073D1*
X2205811Y3249089D1*
X2207123Y3240798D1*
Y3232402D1*
X2205811Y3224110D1*
X2203217Y3216126D1*
X2199406Y3208646D1*
X2194470Y3201854D1*
X2190571Y3197801D1*
X2331920Y3196766D1*
X2335631Y3195535D1*
X2338781Y3193217D1*
X2347261Y3181176D1*
X2497699Y2961303D1*
X3526080Y2965348D1*
X3534167Y2970751D1*
X3541373Y2977089D1*
X3574454Y3031428D1*
X3567699Y3031018D1*
X3559331Y3031677D1*
X3551167Y3033636D1*
X3543411Y3036849D1*
X3536253Y3041236D1*
X3529869Y3046688D1*
X3524417Y3053072D1*
X3520030Y3060230D1*
X3516818Y3067986D1*
X3514858Y3076150D1*
X3514199Y3084518D1*
X3514858Y3092887D1*
X3516818Y3101051D1*
X3520030Y3108807D1*
X3524417Y3115965D1*
X3529869Y3122349D1*
X3536253Y3127801D1*
X3543411Y3132188D1*
X3551167Y3135400D1*
X3559331Y3137360D1*
X3567699Y3138018D1*
X3576068Y3137360D1*
X3584232Y3135400D1*
X3591988Y3132188D1*
X3599146Y3127801D1*
X3605530Y3122349D1*
X3610982Y3115965D1*
X3615369Y3108807D1*
X3617610Y3103684D1*
X3623241Y3113269D1*
X3634627Y3130219D1*
X3670239Y3188391D1*
X3673206Y3190940D1*
X3676815Y3192446D1*
X3679766Y3192799D1*
X3965558D1*
X3966507Y3211890D1*
X3825135Y3293449D1*
X3825034Y3287320D1*
X3823722Y3279029D1*
X3821127Y3271045D1*
X3817316Y3263564D1*
X3812381Y3256773D1*
X3806445Y3250837D1*
X3799654Y3245902D1*
X3792173Y3242091D1*
X3784189Y3239496D1*
X3775898Y3238184D1*
X3767501D1*
X3759210Y3239496D1*
X3751226Y3242091D1*
X3743745Y3245902D1*
X3739879Y3248530D1*
X3375562Y3248646D1*
X3369362Y3249627D1*
X3363394Y3251567D1*
X3357802Y3254416D1*
X3352724Y3258105D1*
X3306224Y3304430D1*
X3263238Y3347417D1*
X3255647Y3348937D1*
X3249052Y3341165D1*
X3241535Y3334744D1*
X3233106Y3329579D1*
X3223974Y3325797D1*
X3214361Y3323488D1*
X3204505Y3322713D1*
X3202130Y3322806D1*
X3202144Y3294462D1*
X3065144Y3294510D1*
X2443427Y3398573D2*
X2445470Y3404388D1*
X2449959Y3413201D1*
X2455773Y3421202D1*
X2458752Y3424425D1*
X2420185Y3424155D1*
X2383038Y3401772D1*
X2424479Y3401428D1*
X2431916Y3400882D1*
X2442877Y3398740D1*
X3733079Y3328493D2*
X3740253Y3334801D1*
X3746652Y3338762D1*
X3604908Y3420597D1*
X3606483Y3413701D1*
X3607142Y3405332D1*
X3606483Y3396963D1*
X3604524Y3388799D1*
X3601311Y3381043D1*
X3596924Y3373886D1*
X3591472Y3367501D1*
X3585088Y3362050D1*
X3577930Y3357663D1*
X3570175Y3354450D1*
X3562010Y3352491D1*
X3553642Y3351832D1*
X3545273Y3352491D1*
X3537109Y3354450D1*
X3529353Y3357663D1*
X3522196Y3362050D1*
X3515811Y3367501D1*
X3510360Y3373886D1*
X3505972Y3381043D1*
X3502760Y3388799D1*
X3500801Y3396963D1*
X3500142Y3405332D1*
X3500801Y3413701D1*
X3502760Y3421865D1*
X3504129Y3425575D1*
X3498819Y3426934D1*
X3493438Y3425492D1*
X3486969Y3424898D1*
X3460184Y3425007D1*
X3454681Y3425878D1*
X3450819Y3426934D1*
X3445438Y3425492D1*
X3438969Y3424898D1*
X3412184Y3425007D1*
X3406681Y3425878D1*
X3402819Y3426933D1*
X3397438Y3425492D1*
X3390969Y3424898D1*
X3364184Y3425007D1*
X3358681Y3425878D1*
X3354819Y3426933D1*
X3349438Y3425492D1*
X3342969Y3424898D1*
X3317369Y3424807D1*
X3320581Y3417051D1*
X3322541Y3408887D1*
X3323198Y3400567D1*
X3376253Y3347528D1*
X3379227Y3357063D1*
X3383038Y3364543D1*
X3387974Y3371335D1*
X3393909Y3377270D1*
X3400701Y3382206D1*
X3408181Y3386017D1*
X3416165Y3388612D1*
X3424457Y3389924D1*
X3432853D1*
X3441144Y3388612D1*
X3449129Y3386017D1*
X3456609Y3382206D1*
X3463400Y3377270D1*
X3469336Y3371335D1*
X3474272Y3364543D1*
X3478083Y3357063D1*
X3480677Y3349079D1*
X3481990Y3340787D1*
Y3332391D1*
X3481529Y3328497D1*
X3733045Y3328514D1*
X3208034Y3182320D2*
X3206722Y3174029D1*
X3204127Y3166045D1*
X3200316Y3158564D1*
X3195381Y3151773D1*
X3189445Y3145837D1*
X3182654Y3140902D1*
X3175173Y3137091D1*
X3167189Y3134496D1*
X3158898Y3133184D1*
X3150501D1*
X3142210Y3134496D1*
X3134226Y3137091D1*
X3126745Y3140902D1*
X3119954Y3145837D1*
X3114018Y3151773D1*
X3109083Y3158564D1*
X3105272Y3166045D1*
X3102677Y3174029D1*
X3101365Y3182320D1*
Y3190717D1*
X3102677Y3199008D1*
X3105272Y3206992D1*
X3109083Y3214472D1*
X3114018Y3221264D1*
X3119954Y3227199D1*
X3126745Y3232135D1*
X3134226Y3235946D1*
X3142210Y3238541D1*
X3150501Y3239853D1*
X3158898D1*
X3167189Y3238541D1*
X3175173Y3235946D1*
X3182654Y3232135D1*
X3189445Y3227199D1*
X3195381Y3221264D1*
X3200316Y3214472D1*
X3204127Y3206992D1*
X3206722Y3199008D1*
X3208034Y3190717D1*
Y3182320D1*
X2969534Y3219820D2*
X2968222Y3211529D1*
X2965627Y3203545D1*
X2961816Y3196064D1*
X2956881Y3189273D1*
X2950945Y3183337D1*
X2944154Y3178402D1*
X2936673Y3174591D1*
X2928689Y3171996D1*
X2920398Y3170684D1*
X2912001D1*
X2903710Y3171996D1*
X2895726Y3174591D1*
X2888245Y3178402D1*
X2881454Y3183337D1*
X2875518Y3189273D1*
X2870583Y3196064D1*
X2866772Y3203545D1*
X2864177Y3211529D1*
X2862865Y3219820D1*
Y3228217D1*
X2864177Y3236508D1*
X2866772Y3244492D1*
X2870583Y3251972D1*
X2875518Y3258764D1*
X2881454Y3264699D1*
X2888245Y3269635D1*
X2895726Y3273446D1*
X2903710Y3276041D1*
X2912001Y3277353D1*
X2920398D1*
X2928689Y3276041D1*
X2936673Y3273446D1*
X2944154Y3269635D1*
X2950945Y3264699D1*
X2956881Y3258764D1*
X2961816Y3251972D1*
X2965627Y3244492D1*
X2968222Y3236508D1*
X2969534Y3228217D1*
Y3219820D1*
X2838307Y3026173D2*
X2836995Y3017882D1*
X2834400Y3009898D1*
X2830589Y3002417D1*
X2825654Y2995626D1*
X2819718Y2989690D1*
X2812927Y2984755D1*
X2805446Y2980944D1*
X2797462Y2978349D1*
X2789171Y2977037D1*
X2780774D1*
X2772483Y2978349D1*
X2764499Y2980944D1*
X2757018Y2984755D1*
X2750227Y2989690D1*
X2744291Y2995626D1*
X2739356Y3002417D1*
X2735545Y3009898D1*
X2732950Y3017882D1*
X2731638Y3026173D1*
Y3034570D1*
X2732950Y3042861D1*
X2735545Y3050845D1*
X2739356Y3058325D1*
X2744291Y3065117D1*
X2750227Y3071052D1*
X2757018Y3075988D1*
X2764499Y3079799D1*
X2772483Y3082394D1*
X2780774Y3083706D1*
X2789171D1*
X2797462Y3082394D1*
X2805446Y3079799D1*
X2812927Y3075988D1*
X2819718Y3071052D1*
X2825654Y3065117D1*
X2830589Y3058325D1*
X2834400Y3050845D1*
X2836995Y3042861D1*
X2838307Y3034570D1*
Y3026173D1*
X2116501Y3198268D2*
X2110507Y3205154D1*
X2106119Y3212311D1*
X2102907Y3220067D1*
X2100948Y3228231D1*
X2100533Y3231734D1*
X2045697Y3198696D1*
X2116463Y3198276D1*
X3463034Y3036320D2*
X3461722Y3028029D1*
X3459127Y3020045D1*
X3455316Y3012564D1*
X3450381Y3005773D1*
X3444445Y2999837D1*
X3437654Y2994902D1*
X3430173Y2991091D1*
X3422189Y2988496D1*
X3413898Y2987184D1*
X3405501D1*
X3397210Y2988496D1*
X3389226Y2991091D1*
X3381745Y2994902D1*
X3374954Y2999837D1*
X3369018Y3005773D1*
X3364083Y3012564D1*
X3360272Y3020045D1*
X3357677Y3028029D1*
X3356365Y3036320D1*
Y3044717D1*
X3357677Y3053008D1*
X3360272Y3060992D1*
X3364083Y3068472D1*
X3369018Y3075264D1*
X3374954Y3081199D1*
X3381745Y3086135D1*
X3389226Y3089946D1*
X3397210Y3092541D1*
X3405501Y3093853D1*
X3413898D1*
X3422189Y3092541D1*
X3430173Y3089946D1*
X3437654Y3086135D1*
X3444445Y3081199D1*
X3450381Y3075264D1*
X3455316Y3068472D1*
X3459127Y3060992D1*
X3461722Y3053008D1*
X3463034Y3044717D1*
Y3036320D1*
D24*
X3808699Y4513518D3*
X3848070Y4445327D3*
D104*
X2166287Y4586458D3*
D31*
X2216287Y4673060D3*
D104*
X2059950Y4399018D3*
D31*
X2109950Y4485621D3*
D107*
X3347698Y4896517D3*
D31*
X3261096Y4846517D3*
D16*
X2392699Y4327518D3*
X2442699Y4414121D3*
D32*
X2703699Y3380269D3*
D33*
Y3280269D3*
X2603699Y3380269D3*
Y3280269D3*
X2503699Y3380269D3*
Y3280269D3*
D23*
X2091301Y4155262D3*
X2022400Y4035924D3*
D24*
X2468059Y4835769D3*
X2428689Y4767577D3*
X2661808Y4723269D3*
X2622438Y4655077D3*
X2964778Y6171303D3*
X3043518D3*
X1153764Y2897728D3*
X1114394Y2965920D3*
X4894631Y2965371D3*
X4855261Y2897180D3*
D38*
X3394699Y4712518D3*
X3444699Y4625916D3*
X3494699Y4539314D3*
X3544699Y4452711D3*
X3594699Y4366109D3*
X3644699Y4279507D3*
X3694699Y4192904D3*
X3744699Y4106302D3*
X3794699Y4019698D3*
X3844699Y3933096D3*
X2171199Y4343518D3*
X2221416Y4429995D3*
X2271416Y4516598D3*
X2321416Y4603201D3*
D39*
X3003699Y6392518D3*
X5065699Y2821518D3*
X942699D3*
D38*
X703699Y6311518D3*
X4503699Y2511518D3*
D40*
X862699Y6557518D3*
X913199Y6558018D3*
X963199D3*
X1012699D3*
X1063199Y6557018D3*
X2112699Y6557518D3*
X2163699D3*
X2213199D3*
X2263199Y6558018D3*
X2312699D3*
X2903699D3*
X2953699D3*
X3003699D3*
X3053699D3*
X3103699D3*
X3694199Y6557518D3*
X3744199Y6558018D3*
X3795199D3*
X3844699D3*
X3895199Y6557518D3*
X4944699D3*
X4994699D3*
X5044699D3*
X5094699Y6558518D3*
X5145699Y6557518D3*
X5464699Y3184018D3*
X5439699Y3140518D3*
X5364699Y3010518D3*
X5389699Y3054018D3*
X5414699Y3097518D3*
X5258199Y2826518D3*
X5233199Y2783018D3*
X5158199Y2653018D3*
X5183199Y2696518D3*
X5208199Y2740018D3*
X5026199Y2425018D3*
X5001199Y2381518D3*
X4926199Y2251518D3*
X4951199Y2295018D3*
X4976199Y2338518D3*
X5051199Y2469518D3*
X1080699Y2251518D3*
X1055699Y2295018D3*
X1030699Y2338518D3*
X955699Y2469018D3*
X981199Y2425018D3*
X1005699Y2381518D3*
X849199Y2653018D3*
X824199Y2696518D3*
X799199Y2740018D3*
X749199Y2826018D3*
X774199Y2783018D3*
X642699Y3010518D3*
X617699Y3054018D3*
X592699Y3097518D3*
X543199Y3184018D3*
X567699Y3140518D3*
X3158699Y2912518D3*
X3208699D3*
X3258699D3*
X3308699D3*
X3358699D3*
X2648699Y2912018D3*
X2698699Y2912518D3*
X2748699D3*
X2798699D3*
X2848699D3*
X3778699Y4870018D3*
X3803699Y4826518D3*
X3828699Y4783518D3*
X3853699Y4740018D3*
X3879199Y4696518D3*
X4033699Y4428018D3*
X4058699Y4385018D3*
X4083699Y4341518D3*
X4108699Y4298018D3*
X4133699Y4254518D3*
X2228699Y4870018D3*
X2203199Y4826518D3*
X2178699Y4783518D3*
X2153699Y4740018D3*
X2128699Y4696518D3*
X1973699Y4428018D3*
X1948699Y4384518D3*
X1923699Y4341518D3*
X1898699Y4298518D3*
X1873699Y4255018D3*
X3010436Y4333936D2*
D20*
Y6074047D1*
X3022436Y4333492D2*
Y6074047D1*
X3034436Y4332602D2*
Y6074047D1*
X3046436Y4331265D2*
Y6074047D1*
X3058436Y4329471D2*
Y6074047D1*
X3070436Y4327215D2*
Y6074047D1*
X3082436Y4324487D2*
Y6074047D1*
X3094436Y4321273D2*
Y6074047D1*
X3106436Y4317560D2*
Y6074047D1*
X3118436Y4313328D2*
Y6074047D1*
X3130436Y4308556D2*
Y6074047D1*
X3142436Y4303218D2*
Y6074047D1*
X3154436Y4297281D2*
Y6074047D1*
X3166436Y4290707D2*
Y6074047D1*
X2998436Y4333936D2*
Y6074047D1*
X2986436Y4333492D2*
Y6074047D1*
X2974436Y4332602D2*
Y6074047D1*
X2962436Y4331265D2*
Y6074047D1*
X2950436Y4329471D2*
Y6074047D1*
X2938436Y4327215D2*
Y6074047D1*
X2926436Y4324487D2*
Y6074047D1*
X2914436Y4321273D2*
Y6074047D1*
X2902436Y4317560D2*
Y6074047D1*
X2890436Y4313328D2*
Y6074047D1*
X2878436Y4308556D2*
Y6074047D1*
X2866436Y4303218D2*
Y6074047D1*
X2854436Y4297281D2*
Y6074047D1*
X2842436Y4290707D2*
Y6074047D1*
X2830436Y4283453D2*
Y6074047D1*
X2842436D1*
X2854436D2*
X2866436D1*
X2878436D2*
X2890436D1*
X2902436D2*
X2914436D1*
X2926436D2*
X2938436D1*
X2950436D2*
X2962436D1*
X2974436D2*
X2986436D1*
X2998436D2*
X3010436D1*
X3022436D2*
X3034436D1*
X3046436D2*
X3058436D1*
X3070436D2*
X3082436D1*
X3094436D2*
X3106436D1*
X3118436D2*
X3130436D1*
X3142436D2*
X3154436D1*
X3166436D2*
X3178436D1*
X3166436Y4290707D2*
X3154436Y4297281D1*
X3142436Y4303218D2*
X3130436Y4308556D1*
X3118436Y4313328D2*
X3106436Y4317560D1*
X3094436Y4321273D2*
X3082436Y4324487D1*
X3070436Y4327215D2*
X3058436Y4329471D1*
X3046436Y4331265D2*
X3034436Y4332602D1*
X3022436Y4333492D2*
X3010436Y4333936D1*
X2998436D2*
X2986436Y4333492D1*
X2974436Y4332602D2*
X2962436Y4331265D1*
X2950436Y4329471D2*
X2938436Y4327215D1*
X2842436Y4290707D2*
X2854436Y4297281D1*
X2866436Y4303218D2*
X2878436Y4308556D1*
X2890436Y4313328D2*
X2902436Y4317560D1*
X2914436Y4321273D2*
X2926436Y4324487D1*
X2818436Y4283453D2*
Y4784609D1*
X2806436Y4266663D2*
Y4763824D1*
X2794436Y4256972D2*
Y4743039D1*
X2782436Y4246281D2*
Y4722255D1*
X2770436Y4234446D2*
Y4701470D1*
X2758436Y4221276D2*
Y4680686D1*
X2746436Y4206503D2*
Y4659902D1*
X2734436Y4192786D2*
Y4639117D1*
X2722436Y4199714D2*
Y4618332D1*
X2710436Y4206643D2*
Y4597547D1*
X2698436Y4213571D2*
Y4576762D1*
X2686436Y4220499D2*
Y4555978D1*
X2674436Y4227428D2*
Y4535193D1*
X2662436Y4234356D2*
Y4514409D1*
X2650436Y4241283D2*
Y4493625D1*
X2638436Y4248211D2*
Y4472840D1*
X2626436Y4255140D2*
Y4452055D1*
X2614436Y4262068D2*
Y4431270D1*
X2602436Y4268996D2*
Y4410486D1*
X2590436Y4275925D2*
Y4389701D1*
X2830436Y4283453D2*
X2818436D1*
Y4784609D2*
X2806436Y4763824D1*
X2794436Y4743039D2*
X2782436Y4722255D1*
X2770436Y4701470D2*
X2758436Y4680686D1*
X2746436Y4659902D2*
X2734436Y4639117D1*
X2722436Y4618332D2*
X2710436Y4597547D1*
X2698436Y4576762D2*
X2686436Y4555978D1*
X2674436Y4535193D2*
X2662436Y4514409D1*
X2650436Y4493625D2*
X2638436Y4472840D1*
X2626436Y4452055D2*
X2614436Y4431270D1*
X2602436Y4410486D2*
X2590436Y4389701D1*
X2734436Y4192786D2*
X2722436Y4199714D1*
X2710436Y4206643D2*
X2698436Y4213571D1*
X2686436Y4220499D2*
X2674436Y4227428D1*
X2662436Y4234356D2*
X2650436Y4241283D1*
X2638436Y4248211D2*
X2626436Y4255140D1*
X2614436Y4262068D2*
X2602436Y4268996D1*
X3178436Y4283453D2*
Y6074047D1*
X3190436Y4283453D2*
Y4784609D1*
X3202436Y4266663D2*
Y4763824D1*
X3214436Y4256972D2*
Y4743039D1*
X3226436Y4246281D2*
Y4722255D1*
X3238436Y4234446D2*
Y4701470D1*
X3250436Y4221276D2*
Y4680686D1*
X3262436Y4206503D2*
Y4659902D1*
X3274436Y4192786D2*
Y4639117D1*
X3286436Y4199714D2*
Y4618332D1*
X3298436Y4206643D2*
Y4597547D1*
X3310436Y4213571D2*
Y4576762D1*
X3322436Y4220499D2*
Y4555978D1*
X3334436Y4227428D2*
Y4535193D1*
X3346436Y4234356D2*
Y4514409D1*
X3358436Y4241283D2*
Y4493625D1*
X3370436Y4248211D2*
Y4472840D1*
X3382436Y4255140D2*
Y4452055D1*
X3394436Y4262068D2*
Y4431270D1*
X3406436Y4268996D2*
Y4410486D1*
X3418436Y4275925D2*
Y4389244D1*
X3178436Y4283453D2*
X3190436D1*
Y4784609D2*
X3202436Y4763824D1*
X3214436Y4743039D2*
X3226436Y4722255D1*
X3238436Y4701470D2*
X3250436Y4680686D1*
X3262436Y4659902D2*
X3274436Y4639117D1*
X3286436Y4618332D2*
X3298436Y4597547D1*
X3310436Y4576762D2*
X3322436Y4555978D1*
X3334436Y4535193D2*
X3346436Y4514409D1*
X3358436Y4493625D2*
X3370436Y4472840D1*
X3382436Y4452055D2*
X3394436Y4431270D1*
X3406436Y4410486D2*
X3418436Y4389701D1*
X3274436Y4192786D2*
X3286436Y4199714D1*
X3298436Y4206643D2*
X3310436Y4213571D1*
X3322436Y4220499D2*
X3334436Y4227428D1*
X3346436Y4234356D2*
X3358436Y4241283D1*
X3370436Y4248211D2*
X3382436Y4255140D1*
X3394436Y4262068D2*
X3406436Y4268996D1*
X2746436Y4206503D2*
X2758436Y4221276D1*
X2770436Y4234446D2*
X2782436Y4246281D1*
X2794436Y4256972D2*
X2806436Y4266663D1*
X3202436D2*
X3214436Y4256972D1*
X3226436Y4246281D2*
X3238436Y4234446D1*
X3250436Y4221276D2*
X3262436Y4206503D1*
X2720197Y3852012D2*
X1213217Y2981957D1*
X2714581Y3862626D2*
X1207217Y2992349D1*
X2709350Y3873463D2*
X1201217Y3002740D1*
X2704510Y3884524D2*
X1195217Y3013133D1*
X2700063Y3895814D2*
X1189217Y3023525D1*
X2696017Y3907333D2*
X1183217Y3033917D1*
X2692379Y3919091D2*
X1177217Y3044310D1*
X2689163Y3931089D2*
X1171217Y3054702D1*
X2686378Y3943339D2*
X1165217Y3065094D1*
X2684043Y3955846D2*
X1159217Y3075487D1*
X2682176Y3968625D2*
X1153217Y3085879D1*
X2680799Y3981686D2*
X1147217Y3096272D1*
X2679941Y3995047D2*
X1141217Y3106664D1*
X2679634Y4008726D2*
X1135217Y3117056D1*
X2726197Y3841619D2*
X1219217Y2971564D1*
X2732581Y3831449D2*
X1225217Y2961172D1*
X2739350Y3821501D2*
X1231217Y2950780D1*
X2746510Y3811778D2*
X1237217Y2940387D1*
X2754063Y3802282D2*
X1243217Y2929995D1*
X2762017Y3793018D2*
X1249217Y2919602D1*
X2770379Y3783990D2*
X1255217Y2909210D1*
X2779163Y3775205D2*
X1261217Y2898818D1*
X2788378Y3766669D2*
X1267217Y2888425D1*
X2798043Y3758392D2*
X1273217Y2878033D1*
X2808176Y3750386D2*
X1279217Y2867640D1*
X2818799Y3742663D2*
X1285217Y2857248D1*
X2829941Y3735239D2*
X1291217Y2846856D1*
X2841634Y3728134D2*
X1297217Y2836465D1*
X2853916Y3721369D2*
X1303217Y2826072D1*
X1297217Y2836465D1*
X1291217Y2846856D2*
X1285217Y2857248D1*
X1279217Y2867640D2*
X1273217Y2878033D1*
X1267217Y2888425D2*
X1261217Y2898818D1*
X1255217Y2909210D2*
X1249217Y2919602D1*
X1243217Y2929995D2*
X1237217Y2940387D1*
X1231217Y2950780D2*
X1225217Y2961172D1*
X1219217Y2971564D2*
X1213217Y2981957D1*
X1207217Y2992349D2*
X1201217Y3002740D1*
X1195217Y3013133D2*
X1189217Y3023525D1*
X1183217Y3033917D2*
X1177217Y3044310D1*
X1171217Y3054702D2*
X1165217Y3065094D1*
X1159217Y3075487D2*
X1153217Y3085879D1*
X1147217Y3096272D2*
X1141217Y3106664D1*
X1135217Y3117056D2*
X1129217Y3127449D1*
X2679634Y4008726D2*
X2679941Y3995047D1*
X2680799Y3981686D2*
X2682176Y3968625D1*
X2684043Y3955846D2*
X2686378Y3943339D1*
X2689163Y3931089D2*
X2692379Y3919091D1*
X2696017Y3907333D2*
X2700063Y3895814D1*
X2704510Y3884524D2*
X2709350Y3873463D1*
X2714581Y3862626D2*
X2720197Y3852012D1*
X2726197Y3841619D2*
X2732581Y3831449D1*
X2739350Y3821501D2*
X2746510Y3811778D1*
X2754063Y3802282D2*
X2762017Y3793018D1*
X2841634Y3728134D2*
X2829941Y3735239D1*
X2818799Y3742663D2*
X2808176Y3750386D1*
X2798043Y3758392D2*
X2788378Y3766669D1*
X2779163Y3775205D2*
X2770379Y3783990D1*
X2859916Y3710976D2*
X2425903Y3460398D1*
X2880457Y3708979D2*
X2449903Y3460398D1*
X2894849Y3703432D2*
X2473903Y3460398D1*
X2910108Y3698386D2*
X2497903Y3460398D1*
X2926357Y3693911D2*
X2521903Y3460398D1*
X2943764Y3690104D2*
X2545903Y3460398D1*
X2962558Y3687097D2*
X2569903Y3460398D1*
X2980436Y3683563D2*
X2593903Y3460398D1*
X2980436Y3669707D2*
X2617903Y3460398D1*
X2980436Y3655850D2*
X2641903Y3460398D1*
X2980436Y3641995D2*
X2665903Y3460398D1*
X2980436Y3628138D2*
X2689903Y3460398D1*
X2980436Y3614281D2*
X2713903Y3460398D1*
X2980436Y3600425D2*
X2737903Y3460398D1*
X2980436Y3586568D2*
X2761903Y3460398D1*
X2980436Y3572713D2*
X2785903Y3460398D1*
X2980436Y3558856D2*
X2809903Y3460398D1*
X2980436Y3544999D2*
X2833903Y3460398D1*
X2980436Y3531143D2*
X2857903Y3460398D1*
X2980436Y3517286D2*
X2881903Y3460398D1*
X2853916Y3721369D2*
X2859916Y3710976D1*
X2425903Y3460398D2*
X2449903D1*
X2473903D2*
X2497903D1*
X2521903D2*
X2545903D1*
X2569903D2*
X2593903D1*
X2617903D2*
X2641903D1*
X2665903D2*
X2689903D1*
X2713903D2*
X2737903D1*
X2761903D2*
X2785903D1*
X2809903D2*
X2833903D1*
X2857903D2*
X2881903D1*
X2980436Y3683563D2*
Y3669707D1*
Y3655850D2*
Y3641995D1*
Y3628138D2*
Y3614281D1*
Y3600425D2*
Y3586568D1*
Y3572713D2*
Y3558856D1*
Y3544999D2*
Y3531143D1*
X2679916Y4022745D2*
X1129217Y3127449D1*
X2673916Y4033138D2*
X2239903Y3782560D1*
X2682457Y4051925D2*
X2251903Y3803344D1*
X2684849Y4067163D2*
X2263903Y3824129D1*
X2688108Y4082900D2*
X2275903Y3844913D1*
X2692357Y4099210D2*
X2287903Y3865698D1*
X2697764Y4116188D2*
X2299903Y3886483D1*
X2704558Y4133967D2*
X2311903Y3907268D1*
X2710436Y4151217D2*
X2323903Y3928052D1*
X2698436Y4158146D2*
X2335903Y3948836D1*
X2686436Y4165073D2*
X2347903Y3969621D1*
X2674436Y4172001D2*
X2359903Y3990406D1*
X2662436Y4178930D2*
X2371903Y4011190D1*
X2650436Y4185858D2*
X2383903Y4031975D1*
X2638436Y4192786D2*
X2395903Y4052760D1*
X2626436Y4199714D2*
X2407903Y4073545D1*
X2614436Y4206643D2*
X2419903Y4094329D1*
X2602436Y4213571D2*
X2431903Y4115113D1*
X2590436Y4220499D2*
X2443903Y4135898D1*
X2578436Y4227428D2*
X2455903Y4156682D1*
X2566436Y4234356D2*
X2467903Y4177467D1*
X2679916Y4022745D2*
X2673916Y4033138D1*
X2239903Y3782560D2*
X2251903Y3803344D1*
X2263903Y3824129D2*
X2275903Y3844913D1*
X2287903Y3865698D2*
X2299903Y3886483D1*
X2311903Y3907268D2*
X2323903Y3928052D1*
X2335903Y3948836D2*
X2347903Y3969621D1*
X2359903Y3990406D2*
X2371903Y4011190D1*
X2383903Y4031975D2*
X2395903Y4052760D1*
X2407903Y4073545D2*
X2419903Y4094329D1*
X2431903Y4115113D2*
X2443903Y4135898D1*
X2455903Y4156682D2*
X2467903Y4177467D1*
X2710436Y4151217D2*
X2698436Y4158146D1*
X2686436Y4165073D2*
X2674436Y4172001D1*
X2662436Y4178930D2*
X2650436Y4185858D1*
X2638436Y4192786D2*
X2626436Y4199714D1*
X2614436Y4206643D2*
X2602436Y4213571D1*
X2590436Y4220499D2*
X2578436Y4227428D1*
X2962558Y3687097D2*
X2943764Y3690104D1*
X2926357Y3693911D2*
X2910108Y3698386D1*
X2894849Y3703432D2*
X2880457Y3708979D1*
X2682457Y4051925D2*
X2684849Y4067163D1*
X2688108Y4082900D2*
X2692357Y4099210D1*
X2697764Y4116188D2*
X2704558Y4133967D1*
X3282675Y3841619D2*
X4789655Y2971564D1*
X3276290Y3831449D2*
X4783655Y2961172D1*
X3269521Y3821501D2*
X4777655Y2950780D1*
X3262361Y3811778D2*
X4771655Y2940387D1*
X3254808Y3802282D2*
X4765655Y2929995D1*
X3246854Y3793018D2*
X4759655Y2919602D1*
X3238492Y3783990D2*
X4753655Y2909210D1*
X3229709Y3775205D2*
X4747655Y2898818D1*
X3220493Y3766669D2*
X4741655Y2888425D1*
X3210828Y3758392D2*
X4735655Y2878033D1*
X3200696Y3750386D2*
X4729655Y2867640D1*
X3190072Y3742663D2*
X4723655Y2857248D1*
X3178930Y3735239D2*
X4717655Y2846856D1*
X3167238Y3728134D2*
X4711655Y2836465D1*
X3288675Y3852012D2*
X4795655Y2981957D1*
X3294290Y3862626D2*
X4801655Y2992349D1*
X3299521Y3873463D2*
X4807655Y3002740D1*
X3304361Y3884524D2*
X4813655Y3013133D1*
X3308808Y3895814D2*
X4819655Y3023525D1*
X3312854Y3907333D2*
X4825655Y3033917D1*
X3316492Y3919091D2*
X4831655Y3044310D1*
X3319709Y3931089D2*
X4837655Y3054702D1*
X3322493Y3943339D2*
X4843655Y3065094D1*
X3324828Y3955846D2*
X4849655Y3075487D1*
X3326696Y3968625D2*
X4855655Y3085879D1*
X3328072Y3981686D2*
X4861655Y3096272D1*
X3328930Y3995047D2*
X4867655Y3106664D1*
X3329238Y4008726D2*
X4873655Y3117056D1*
X3328955Y4022745D2*
X4879655Y3127449D1*
X4873655Y3117056D1*
X4867655Y3106664D2*
X4861655Y3096272D1*
X4855655Y3085879D2*
X4849655Y3075487D1*
X4843655Y3065094D2*
X4837655Y3054702D1*
X4831655Y3044310D2*
X4825655Y3033917D1*
X4819655Y3023525D2*
X4813655Y3013133D1*
X4807655Y3002740D2*
X4801655Y2992349D1*
X4795655Y2981957D2*
X4789655Y2971564D1*
X4783655Y2961172D2*
X4777655Y2950780D1*
X4771655Y2940387D2*
X4765655Y2929995D1*
X4759655Y2919602D2*
X4753655Y2909210D1*
X4747655Y2898818D2*
X4741655Y2888425D1*
X4735655Y2878033D2*
X4729655Y2867640D1*
X4723655Y2857248D2*
X4717655Y2846856D1*
X4711655Y2836465D2*
X4705655Y2826072D1*
X3167238Y3728134D2*
X3178930Y3735239D1*
X3190072Y3742663D2*
X3200696Y3750386D1*
X3210828Y3758392D2*
X3220493Y3766669D1*
X3229709Y3775205D2*
X3238492Y3783990D1*
X3246854Y3793018D2*
X3254808Y3802282D1*
X3262361Y3811778D2*
X3269521Y3821501D1*
X3276290Y3831449D2*
X3282675Y3841619D1*
X3288675Y3852012D2*
X3294290Y3862626D1*
X3299521Y3873463D2*
X3304361Y3884524D1*
X3308808Y3895814D2*
X3312854Y3907333D1*
X3329238Y4008726D2*
X3328930Y3995047D1*
X3328072Y3981686D2*
X3326696Y3968625D1*
X3324828Y3955846D2*
X3322493Y3943339D1*
X3319709Y3931089D2*
X3316492Y3919091D1*
X3334955Y4033138D2*
X3768969Y3782560D1*
X3326415Y4051925D2*
X3756969Y3803344D1*
X3324022Y4067163D2*
X3744969Y3824129D1*
X3320764Y4082900D2*
X3732969Y3844913D1*
X3316514Y4099210D2*
X3720969Y3865698D1*
X3311108Y4116188D2*
X3708969Y3886483D1*
X3304314Y4133967D2*
X3696969Y3907268D1*
X3298436Y4151217D2*
X3684969Y3928052D1*
X3310436Y4158146D2*
X3672969Y3948836D1*
X3322436Y4165073D2*
X3660969Y3969621D1*
X3334436Y4172001D2*
X3648969Y3990406D1*
X3346436Y4178930D2*
X3636969Y4011190D1*
X3358436Y4185858D2*
X3624969Y4031975D1*
X3370436Y4192786D2*
X3612969Y4052760D1*
X3382436Y4199714D2*
X3600969Y4073545D1*
X3394436Y4206643D2*
X3588969Y4094329D1*
X3406436Y4213571D2*
X3576969Y4115113D1*
X3418436Y4220499D2*
X3564969Y4135898D1*
X3430436Y4227428D2*
X3552969Y4156682D1*
X3442436Y4234356D2*
X3540969Y4177467D1*
X3328955Y4022745D2*
X3334955Y4033138D1*
X3768969Y3782560D2*
X3756969Y3803344D1*
X3744969Y3824129D2*
X3732969Y3844913D1*
X3720969Y3865698D2*
X3708969Y3886483D1*
X3696969Y3907268D2*
X3684969Y3928052D1*
X3672969Y3948836D2*
X3660969Y3969621D1*
X3648969Y3990406D2*
X3636969Y4011190D1*
X3624969Y4031975D2*
X3612969Y4052760D1*
X3600969Y4073545D2*
X3588969Y4094329D1*
X3576969Y4115113D2*
X3564969Y4135898D1*
X3552969Y4156682D2*
X3540969Y4177467D1*
X3298436Y4151217D2*
X3310436Y4158146D1*
X3322436Y4165073D2*
X3334436Y4172001D1*
X3346436Y4178930D2*
X3358436Y4185858D1*
X3370436Y4192786D2*
X3382436Y4199714D1*
X3394436Y4206643D2*
X3406436Y4213571D1*
X3418436Y4220499D2*
X3430436Y4227428D1*
X3154955Y3721369D2*
X4705655Y2826072D1*
X3148955Y3710976D2*
X3582969Y3460398D1*
X3128415Y3708979D2*
X3558969Y3460398D1*
X3114022Y3703432D2*
X3534969Y3460398D1*
X3098764Y3698386D2*
X3510969Y3460398D1*
X3082514Y3693911D2*
X3486969Y3460398D1*
X3065108Y3690104D2*
X3462969Y3460398D1*
X3046314Y3687097D2*
X3438969Y3460398D1*
X3028436Y3683563D2*
X3414969Y3460398D1*
X3028436Y3669707D2*
X3390969Y3460398D1*
X3028436Y3655850D2*
X3366969Y3460398D1*
X3028436Y3641995D2*
X3342969Y3460398D1*
X3028436Y3628138D2*
X3318969Y3460398D1*
X3028436Y3614281D2*
X3294969Y3460398D1*
X3028436Y3600425D2*
X3270969Y3460398D1*
X3028436Y3586568D2*
X3246969Y3460398D1*
X3028436Y3572713D2*
X3222969Y3460398D1*
X3028436Y3558856D2*
X3198969Y3460398D1*
X3028436Y3544999D2*
X3174969Y3460398D1*
X3028436Y3531143D2*
X3150969Y3460398D1*
X3028436Y3517286D2*
X3126969Y3460398D1*
X3154955Y3721369D2*
X3148955Y3710976D1*
X3582969Y3460398D2*
X3558969D1*
X3534969D2*
X3510969D1*
X3486969D2*
X3462969D1*
X3438969D2*
X3414969D1*
X3390969D2*
X3366969D1*
X3342969D2*
X3318969D1*
X3294969D2*
X3270969D1*
X3246969D2*
X3222969D1*
X3198969D2*
X3174969D1*
X3150969D2*
X3126969D1*
X3028436Y3683563D2*
Y3669707D1*
Y3655850D2*
Y3641995D1*
Y3628138D2*
Y3614281D1*
Y3600425D2*
Y3586568D1*
Y3572713D2*
Y3558856D1*
Y3544999D2*
Y3531143D1*
X3304314Y4133967D2*
X3311108Y4116188D1*
X3316514Y4099210D2*
X3320764Y4082900D1*
X3324022Y4067163D2*
X3326415Y4051925D1*
X3128415Y3708979D2*
X3114022Y3703432D1*
X3098764Y3698386D2*
X3082514Y3693911D1*
X3065108Y3690104D2*
X3046314Y3687097D1*
M02*
