M48
INCH
T01C0.0191
T02C0.03
T03C0.031
T04C0.033
T05C0.035
T06C0.0354
T07C0.043
T08C0.0433
T09C0.045
T10C0.05
T11C0.13
%
T01
X+031547Y+031865
X+033012Y+032803
X+032697Y+034005
X+034287Y+033366
X+034427Y+034005
X+035536Y+034053
X+037717Y+032915
X+035677Y+030845
X+034097Y+030405
X+029162Y+032240
X+028133Y+034217
X+029605Y+034678
X+030574Y+034678
X+027850Y+030304
X+021538Y+032366
X+019288Y+036553
T02
X+038087Y+045135
X+038481Y+044453
X+026618Y+047233
X+026224Y+046551
X+024287Y+047676
X+024681Y+048358
X+029648Y+061713
X+030435Y+061713
X+048946Y+029654
X+048553Y+028972
X+011538Y+028977
X+011144Y+029659
T03
X+008627Y+065575
X+009132Y+065580
X+009632Y+065580
X+010127Y+065580
X+010632Y+065570
X+021127Y+065575
X+021637Y+065575
X+022132Y+065575
X+022632Y+065580
X+023127Y+065580
X+029037Y+065580
X+029537Y+065580
X+030037Y+065580
X+030537Y+065580
X+031037Y+065580
X+036942Y+065575
X+037442Y+065580
X+037952Y+065580
X+038447Y+065580
X+038952Y+065575
X+049447Y+065575
X+049947Y+065575
X+050447Y+065575
X+050947Y+065585
X+051457Y+065575
X+037787Y+048700
X+038037Y+048265
X+038287Y+047835
X+038537Y+047400
X+038792Y+046965
X+040337Y+044280
X+040587Y+043850
X+040837Y+043415
X+041087Y+042980
X+041337Y+042545
X+033587Y+029125
X+033087Y+029125
X+032587Y+029125
X+032087Y+029125
X+031587Y+029125
X+028487Y+029125
X+027987Y+029125
X+027487Y+029125
X+026987Y+029125
X+026487Y+029120
X+018737Y+042550
X+018987Y+042985
X+019237Y+043415
X+019487Y+043845
X+019737Y+044280
X+021287Y+046965
X+021537Y+047400
X+021787Y+047835
X+022032Y+048265
X+022287Y+048700
X+005432Y+031840
X+005677Y+031405
X+005927Y+030975
X+006177Y+030540
X+006427Y+030105
X+007492Y+028260
X+007742Y+027830
X+007992Y+027400
X+008242Y+026965
X+008492Y+026530
X+009557Y+024690
X+009812Y+024250
X+010057Y+023815
X+010307Y+023385
X+010557Y+022950
X+010807Y+022515
X+049262Y+022515
X+049512Y+022950
X+049762Y+023385
X+050012Y+023815
X+050262Y+024250
X+050512Y+024695
X+051582Y+026530
X+051832Y+026965
X+052082Y+027400
X+052332Y+027830
X+052582Y+028265
X+053647Y+030105
X+053897Y+030540
X+054147Y+030975
X+054397Y+031405
X+054647Y+031840
T04
X+020913Y+041553
X+020224Y+040359
T05
X+032045Y+033857
X+029521Y+033850
X+023037Y+039803
X+025317Y+042765
X+038699Y+041868
X+039450Y+040555
X+039277Y+037505
X+038912Y+043615
T06
X+027037Y+033803
X+027037Y+032803
X+026037Y+032803
X+026037Y+033803
X+025037Y+033803
X+025037Y+032803
T07
X+023927Y+043275
X+024427Y+044141
T08
X+021663Y+045865
X+022163Y+046731
X+021100Y+044856
X+020600Y+043990
X+032611Y+048465
X+033477Y+048965
T09
X+033947Y+047125
X+034447Y+046259
X+034947Y+045393
X+035447Y+044527
X+035947Y+043661
X+036447Y+042795
X+036947Y+041929
X+037447Y+041063
X+037947Y+040197
X+038447Y+039331
X+023214Y+046032
X+022714Y+045166
X+022214Y+044300
X+021712Y+043435
T10
X+020914Y+041553
X+020224Y+040358
T11
X+030037Y+063925
X+009427Y+028215
X+050657Y+028215
T00
M30
