G04 DipTrace 3.0.0.2*
G04 Top.gbr*
%MOIN*%
G04 #@! TF.FileFunction,Copper,L1,Top*
G04 #@! TF.Part,Single*
%AMOUTLINE0*
4,1,4,
-0.05214,-0.010311,
-0.01714,0.050311,
0.05214,0.010311,
0.01714,-0.050311,
-0.05214,-0.010311,
0*%
%AMOUTLINE3*
4,1,4,
0.01714,0.050311,
0.05214,-0.010311,
-0.01714,-0.050311,
-0.05214,0.010311,
0.01714,0.050311,
0*%
%AMOUTLINE6*5,1,4,0,0,0.094653,-164.999604*%
%AMOUTLINE9*5,1,4,0,0,0.094653,-195.000396*%
%AMOUTLINE12*
4,1,4,
-0.014938,0.044993,
0.046434,0.00956,
0.014938,-0.044993,
-0.046434,-0.00956,
-0.014938,0.044993,
0*%
%AMOUTLINE15*
4,1,4,
0.007398,0.038367,
0.036925,-0.012777,
-0.007398,-0.038367,
-0.036925,0.012777,
0.007398,0.038367,
0*%
%AMOUTLINE18*
4,1,4,
0.044597,0.008348,
0.01507,-0.042797,
-0.044597,-0.008348,
-0.01507,0.042797,
0.044597,0.008348,
0*%
%AMOUTLINE21*
4,1,4,
-0.006185,-0.03653,
-0.034728,0.012908,
0.006185,0.03653,
0.034728,-0.012908,
-0.006185,-0.03653,
0*%
%AMOUTLINE24*
4,1,4,
-0.027874,0.008909,
0.00622,0.028594,
0.027874,-0.008909,
-0.00622,-0.028594,
-0.027874,0.008909,
0*%
G04 #@! TA.AperFunction,Conductor*
%ADD10C,0.01*%
%ADD13C,0.012992*%
%ADD15C,0.02*%
G04 #@! TA.AperFunction,ComponentPad*
%ADD16C,0.09*%
G04 #@! TA.AperFunction,Conductor*
%ADD17C,0.03*%
G04 #@! TA.AperFunction,CopperBalancing*
%ADD19C,0.025*%
G04 #@! TA.AperFunction,ComponentPad*
%ADD23C,0.12*%
%ADD24C,0.065*%
%ADD25R,0.043307X0.03937*%
%ADD26R,0.03937X0.043307*%
%ADD27R,0.051181X0.059055*%
%ADD28R,0.07X0.08*%
G04 #@! TA.AperFunction,ComponentPad*
%ADD31C,0.066929*%
%ADD32R,0.059055X0.059055*%
%ADD33C,0.059055*%
%ADD35R,0.043307X0.023622*%
%ADD36R,0.068898X0.059055*%
%ADD37R,0.07874X0.023622*%
G04 #@! TA.AperFunction,ComponentPad*
%ADD38C,0.08*%
%ADD39C,0.25*%
%ADD40C,0.031*%
G04 #@! TA.AperFunction,ViaPad*
%ADD41C,0.04*%
%ADD43C,0.059*%
%ADD98OUTLINE0*%
%ADD101OUTLINE3*%
G04 #@! TA.AperFunction,ComponentPad*
%ADD104OUTLINE6*%
%ADD107OUTLINE9*%
%ADD110OUTLINE12*%
%ADD113OUTLINE15*%
%ADD116OUTLINE18*%
%ADD119OUTLINE21*%
%ADD122OUTLINE24*%
%FSLAX26Y26*%
G04*
G70*
G90*
G75*
G01*
G04 Top*
%LPD*%
X2581110Y3030268D2*
D10*
X2534950D1*
X2466199Y3099018D1*
X3409846Y3084119D2*
D13*
X3341165D1*
X3341164Y3084118D1*
X3147450Y3132769D2*
X3177449D1*
X3191199Y3119018D1*
Y3070018D1*
X3179147Y3057966D1*
X3147450D1*
D10*
Y3036517D1*
X3155449Y3028518D1*
X3316699D1*
X3341164Y3052983D1*
Y3084118D1*
X3147450Y3132769D2*
D13*
Y3186518D1*
X3154699D1*
X2211770Y3299018D2*
D10*
X2159950D1*
X2116199Y3267768D1*
Y3211518D1*
X2148324Y3199018D1*
X2316199D1*
X2348699Y3179518D1*
X2376699D1*
X2427007Y3099018D1*
X2466199D1*
X2703699Y3280269D2*
D13*
Y3092833D1*
X2641238Y3030371D1*
X2581214D1*
X2581110Y3030268D1*
X3409846Y3084119D2*
Y3040665D1*
X3409699Y3040518D1*
X3876888Y3853067D2*
X3868699Y3847518D1*
X3927699Y3750518D1*
X2392699Y4327518D2*
D16*
X2332303D1*
X2160047Y4155262D1*
X2091301D1*
X3347699Y4896517D2*
D13*
X3545885D1*
X3605982Y4836420D1*
X1928812Y3655306D2*
D15*
X1974802Y3718185D1*
D13*
X1975699Y3717518D1*
X1967034Y3718185D1*
D15*
X1923699Y3746518D1*
Y4060518D1*
X1977699Y4149518D1*
X2078731Y4153420D1*
D13*
X2091301Y4155262D1*
X2872449Y3130268D2*
D10*
X2928699D1*
X2934949Y3124018D1*
X2978699D1*
D13*
Y3050839D1*
X2980520Y3049018D1*
X3253749Y3057966D2*
D10*
X3275018D1*
X3291169Y3074117D1*
Y3154049D1*
X3222427Y3222791D1*
Y3223995D1*
X3232450Y3234018D1*
X3603699Y3174018D2*
Y3136518D1*
X3588702Y3121521D1*
X3516146D1*
X3459902D1*
Y3111521D1*
X3380690D1*
X3341164Y3151047D1*
X3339171D1*
X3328699Y3161518D1*
X3353699D1*
X3293699Y3221518D1*
Y3228339D1*
X3299379Y3234018D1*
X3045629Y3124018D2*
Y3205269D1*
X3147450Y3095367D2*
X3099861D1*
Y3080367D1*
X3089280D1*
X3045629Y3124018D1*
X2872449Y3180268D2*
X2934950D1*
X2953699Y3161518D1*
X3001878D1*
X3045629Y3205269D1*
X2828699Y3267768D2*
Y3249018D1*
X2878699Y3199018D1*
Y3186518D1*
X2872449Y3180268D1*
X2278699Y3299018D2*
Y3367769D1*
X2297744Y3386814D1*
X2384950D1*
Y3399020D1*
X2422449Y3436518D1*
X2553699D1*
Y3349018D1*
X2503699Y3299018D1*
Y3280269D1*
X2553699Y3436518D2*
X2747449D1*
X2772449Y3411518D1*
Y3324018D1*
X2828699Y3267768D1*
X3099861Y3080367D2*
Y3044357D1*
X3137699Y3006518D1*
X3425699D1*
X3459902Y3040720D1*
Y3111521D1*
X3387699Y3400518D2*
D13*
X3442699D1*
X3301169Y3280345D2*
Y3235808D1*
X3299379Y3234018D1*
X2622437Y4655077D2*
X2784759D1*
X2841199Y4711518D1*
X3393698D1*
X3394699Y4712520D1*
X2531699Y4276518D2*
D17*
X2438699Y4253518D1*
X2372449Y4161518D1*
X2531699Y4276518D2*
D13*
Y4445518D1*
X2700699Y4614518D1*
X3306699D1*
X3381904Y4539314D1*
X3494699D1*
X3043518Y6171303D2*
D15*
X3090507D1*
X3141199Y6099241D1*
Y4974537D1*
Y4861518D1*
X3228699Y4774018D1*
X3441199D1*
X3491199Y4724018D1*
Y4672417D1*
X3444699Y4625916D1*
X1114394Y2965920D2*
X1091199Y2886518D1*
X1141199Y2799018D1*
X1197450Y2786518D1*
X1853699Y3174018D1*
X2296461D1*
X2353224Y3141655D1*
X2495951Y2959469D1*
X3537440D1*
X3673911Y3180696D1*
X4138066D1*
X4629818Y2897180D1*
X4855261Y2897181D1*
X4809699Y3009518D1*
Y3111518D1*
X4251699Y3420518D1*
X4026699Y3816518D1*
Y3912518D1*
X4137699Y4071518D1*
X3615689Y4974537D1*
X3141199D1*
X2022400Y4035924D2*
X2129383D1*
X2241280Y3924028D1*
X2895629Y3267768D2*
D13*
Y3244589D1*
X2916199Y3224018D1*
X3372411Y3336589D2*
X3428655D1*
X3397450Y3234018D2*
D10*
Y3255306D1*
X3372411Y3280345D1*
Y3336589D1*
X2581110Y3130268D2*
X2634895D1*
X2653699Y3149072D1*
Y3330269D1*
X2703699Y3380269D1*
X2153789Y3236600D2*
D13*
X2211689D1*
X2211770Y3236518D1*
X3869949Y4186768D2*
X3923877D1*
X3934664Y4197555D1*
X2581110Y3180268D2*
Y3257680D1*
X2603699Y3280269D1*
X2186161Y3828560D2*
D15*
X2052888D1*
D13*
X2044597Y3836852D1*
X2278699Y3236518D2*
D10*
X2372450D1*
X2384950Y3249018D1*
X3844699Y3933096D2*
D13*
X3905962D1*
X3934852Y3886531D1*
X3794699Y4019699D2*
X3841699Y4076518D1*
X3976199Y4130518D1*
X3744699Y4106302D2*
X3769699Y4202518D1*
X3901199Y4255518D1*
X2303699Y3980269D2*
D17*
Y4042871D1*
X2321362Y4060533D1*
X2952143Y3384962D2*
X3003644D1*
X3020644Y3367962D1*
X2952143Y3384962D2*
D13*
Y3418075D1*
X2880699Y3489518D1*
X2484699D1*
X2349699Y3624518D1*
Y3934269D1*
X2303699Y3980269D1*
X3204505Y3385713D2*
D17*
X3145146D1*
X3133644Y3374211D1*
X3850726Y4429012D2*
D13*
X3891199Y4361518D1*
X3933699Y4326518D1*
X4086699Y4062518D1*
X3993699Y3936518D1*
Y3707449D1*
X3611085Y3465349D1*
X3243699D1*
X3204505Y3385713D1*
X3595168Y4705366D2*
X3541199Y4799018D1*
X3261096Y4846517D2*
X3309917Y4811434D1*
X3516146Y4836432D1*
X3541199Y4799018D1*
X3659950Y4742768D2*
X3792699Y4529518D1*
X3788814Y4523748D1*
X3269699Y3400518D2*
X3320770D1*
X3771699Y3291518D2*
Y3243517D1*
X3772449Y3242768D1*
X3269699Y3400518D2*
Y3373175D1*
X3192499Y3295974D1*
X2971917D1*
X2934350Y3333541D1*
X2880711Y3365495D1*
X2466199Y3165948D2*
D10*
Y3217769D1*
X2457699Y3226269D1*
Y3334269D1*
X2503699Y3380269D1*
X2872449Y3030268D2*
D13*
X2785076D1*
X2784972Y3030371D1*
X2603699Y3380269D2*
D10*
Y3355268D1*
X2553699Y3305268D1*
Y3249018D1*
X2516199Y3211518D1*
Y3086518D1*
X2522450Y3080268D1*
X2581110D1*
X3944950Y4055518D2*
D13*
X3992627D1*
X4009664Y4072555D1*
X2059950Y4399017D2*
X2115699D1*
X2171199Y4343517D1*
X2109950Y4485621D2*
X2165791D1*
X2221416Y4429995D1*
X2468058Y4835769D2*
X2531699Y4701518D1*
X2349560Y4424018D1*
X2227392D1*
X2221416Y4429995D1*
X2166287Y4586458D2*
X2201555D1*
X2271416Y4516597D1*
X2350387D1*
X2463699Y4694518D1*
X2428688Y4767577D1*
X2216287Y4673062D2*
X2251555D1*
X2321416Y4603199D1*
X2813299Y3421727D2*
Y3365978D1*
X2813782Y3365495D1*
Y3350100D1*
X2852693Y3311189D1*
X2915727D1*
X2975139Y3251777D1*
Y3208829D1*
X2978699Y3205269D1*
Y3245164D1*
X3154190D1*
X3266585Y3132769D1*
X3253749D1*
X3305482Y3336589D2*
X3280429D1*
X3216009Y3272169D1*
X3187125D1*
X3154190Y3245164D1*
X3603699Y3240948D2*
X3703699D1*
X3705520Y3242768D1*
X3603699Y3240948D2*
X3564239D1*
X3528644Y3205353D1*
Y3171421D1*
X3516146Y3158923D1*
X3486770Y3355268D2*
D10*
Y3313896D1*
Y3248535D1*
X3472253Y3234018D1*
D13*
Y3205072D1*
X3426104Y3158923D1*
X3409846D1*
X3641199Y3324018D2*
D10*
X3603564D1*
X3591138Y3311592D1*
X3489075D1*
X3486770Y3313896D1*
X3047449Y3049018D2*
Y3040518D1*
X3075699D1*
X3129699Y2986518D1*
X3445699D1*
X3516146Y3056965D1*
Y3084119D1*
X3708129Y3324018D2*
D13*
Y3350840D1*
X3697450Y3361518D1*
X3559950D1*
X3553699Y3355268D1*
X3516146Y3084119D2*
X3567699D1*
Y3084518D1*
X3553642Y3405332D2*
X3553699Y3405274D1*
Y3355268D1*
D41*
X3154699Y3186518D3*
X3428655Y3336589D3*
X2916199Y3224018D3*
X2784972Y3030371D3*
X2153789Y3236600D3*
X3567699Y3084518D3*
X3553642Y3405332D3*
X3301169Y3280345D3*
X3442699Y3400518D3*
D43*
X3204505Y3385713D3*
X2952143Y3384962D3*
X2531699Y4276518D3*
D41*
X1928812Y3655306D3*
X3409699Y3040518D3*
D43*
X3927699Y3750518D3*
X2303699Y3980269D3*
X3891199Y4361518D3*
X3869949Y4186768D3*
X3944950Y4055518D3*
D41*
X3269699Y3400518D3*
X2960474Y3467768D3*
X3057411D3*
X3771699Y3291518D3*
X2813299Y3421727D3*
X443699Y6474150D2*
D19*
X2663724D1*
X443699Y6449281D2*
X2663724D1*
X443699Y6424412D2*
X2663724D1*
X443699Y6399543D2*
X2663724D1*
X443699Y6374675D2*
X663626D1*
X743773D2*
X2663724D1*
X443699Y6349806D2*
X638480D1*
X768919D2*
X2663724D1*
X443699Y6324937D2*
X628958D1*
X778441D2*
X2663724D1*
X443699Y6300068D2*
X628617D1*
X778782D2*
X2663724D1*
X443699Y6275199D2*
X637308D1*
X770091D2*
X2663724D1*
X443699Y6250331D2*
X660501D1*
X746898D2*
X2663724D1*
X443699Y6225462D2*
X2663724D1*
X443699Y6200593D2*
X2663724D1*
X443699Y6175724D2*
X2663724D1*
X443699Y6150856D2*
X2663724D1*
X443699Y6125987D2*
X2663724D1*
X443699Y6101118D2*
X2663724D1*
X443699Y6076249D2*
X2663724D1*
X443699Y6051381D2*
X2663724D1*
X443699Y6026512D2*
X2663724D1*
X443699Y6001643D2*
X2663724D1*
X443699Y5976774D2*
X2663724D1*
X443699Y5951906D2*
X2663724D1*
X443699Y5927037D2*
X2663724D1*
X443699Y5902168D2*
X2663724D1*
X443699Y5877299D2*
X2663724D1*
X443699Y5852430D2*
X2663724D1*
X443699Y5827562D2*
X2663724D1*
X443699Y5802693D2*
X2663724D1*
X443699Y5777824D2*
X2663724D1*
X443699Y5752955D2*
X2663724D1*
X443699Y5728087D2*
X2663724D1*
X443699Y5703218D2*
X2663724D1*
X443699Y5678349D2*
X2663724D1*
X443699Y5653480D2*
X2663724D1*
X443699Y5628612D2*
X2663724D1*
X443699Y5603743D2*
X2663724D1*
X443699Y5578874D2*
X2663724D1*
X443699Y5554005D2*
X2663724D1*
X443699Y5529136D2*
X2663724D1*
X443699Y5504268D2*
X2663724D1*
X443699Y5479399D2*
X2663724D1*
X443699Y5454530D2*
X2663724D1*
X443699Y5429661D2*
X2663724D1*
X443699Y5404793D2*
X2651224D1*
X443699Y5379924D2*
X2636869D1*
X443699Y5355055D2*
X2622513D1*
X443699Y5330186D2*
X2608157D1*
X443699Y5305318D2*
X2593802D1*
X443699Y5280449D2*
X2579446D1*
X443699Y5255580D2*
X2565091D1*
X443699Y5230711D2*
X2550736D1*
X443699Y5205843D2*
X2536381D1*
X443699Y5180974D2*
X2522025D1*
X443699Y5156105D2*
X2208988D1*
X443699Y5131236D2*
X2195462D1*
X443699Y5106367D2*
X2181888D1*
X443699Y5081499D2*
X2168314D1*
X443699Y5056630D2*
X2154740D1*
X443699Y5031761D2*
X2141165D1*
X443699Y5006892D2*
X2127640D1*
X443699Y4982024D2*
X2114066D1*
X443699Y4957155D2*
X2100491D1*
X443699Y4932286D2*
X2086917D1*
X443699Y4907417D2*
X2073343D1*
X443699Y4882549D2*
X2059818D1*
X443699Y4857680D2*
X2046243D1*
X443699Y4832811D2*
X2032669D1*
X443699Y4807942D2*
X2019094D1*
X443699Y4783073D2*
X2005521D1*
X443699Y4758205D2*
X1991995D1*
X443699Y4733336D2*
X1978421D1*
X443699Y4708467D2*
X1964846D1*
X443699Y4683598D2*
X1951273D1*
X443699Y4658730D2*
X1937698D1*
X443699Y4633861D2*
X1924125D1*
X443699Y4608992D2*
X1910598D1*
X443699Y4584123D2*
X1897025D1*
X443699Y4559255D2*
X1883450D1*
X443699Y4534386D2*
X1869877D1*
X443699Y4509517D2*
X1856302D1*
X443699Y4484648D2*
X1842777D1*
X443699Y4459780D2*
X1829202D1*
X443699Y4434911D2*
X1815629D1*
X443699Y4410042D2*
X1802054D1*
X443699Y4385173D2*
X1788480D1*
X443699Y4360304D2*
X1774954D1*
X443699Y4335436D2*
X1761381D1*
X443699Y4310567D2*
X1747513D1*
X443699Y4285698D2*
X1732377D1*
X443699Y4260829D2*
X1718021D1*
X443699Y4235961D2*
X1703665D1*
X443699Y4211092D2*
X1689310D1*
X443699Y4186223D2*
X1676810D1*
X443699Y4161354D2*
X1666409D1*
X443699Y4136486D2*
X1652835D1*
X443699Y4111617D2*
X1639310D1*
X443699Y4086748D2*
X1625736D1*
X443699Y4061879D2*
X1612161D1*
X443699Y4037010D2*
X1624466D1*
X443699Y4012142D2*
X1636917D1*
X443699Y3987273D2*
X1649369D1*
X443699Y3962404D2*
X1661770D1*
X443699Y3937535D2*
X1674222D1*
X443699Y3912667D2*
X1686673D1*
X443699Y3887798D2*
X1699075D1*
X443699Y3862929D2*
X1711526D1*
X443699Y3838060D2*
X1700491D1*
X443699Y3813192D2*
X1688041D1*
X443699Y3788323D2*
X1675638D1*
X443699Y3763454D2*
X1663186D1*
X443699Y3738585D2*
X1650736D1*
X443699Y3713717D2*
X1638333D1*
X443699Y3688848D2*
X1625882D1*
X443699Y3663979D2*
X1613430D1*
X443699Y3639110D2*
X1601029D1*
X443699Y3614241D2*
X1581058D1*
X443919Y3589373D2*
X1538430D1*
X457591Y3564504D2*
X1495804D1*
X471262Y3539635D2*
X1453177D1*
X484934Y3514766D2*
X1410550D1*
X498606Y3489898D2*
X1367923D1*
X512278Y3465029D2*
X1325247D1*
X525950Y3440160D2*
X1282621D1*
X539622Y3415291D2*
X1239993D1*
X553294Y3390423D2*
X1197366D1*
X567014Y3365554D2*
X1154740D1*
X580686Y3340685D2*
X1112113D1*
X594358Y3315816D2*
X1069486D1*
X608030Y3290948D2*
X1026858D1*
X621702Y3266079D2*
X984232D1*
X635374Y3241210D2*
X941556D1*
X649046Y3216341D2*
X898929D1*
X662718Y3191472D2*
X856302D1*
X676438Y3166604D2*
X813675D1*
X690110Y3141735D2*
X771049D1*
X703782Y3116866D2*
X728421D1*
X776972Y6305752D2*
X775169Y6294360D1*
X771605Y6283391D1*
X766369Y6273114D1*
X759589Y6263783D1*
X751434Y6255629D1*
X742104Y6248849D1*
X731827Y6243613D1*
X720858Y6240049D1*
X709466Y6238245D1*
X697933D1*
X686541Y6240049D1*
X675572Y6243613D1*
X665295Y6248849D1*
X655965Y6255629D1*
X647810Y6263783D1*
X641030Y6273114D1*
X635794Y6283391D1*
X632230Y6294360D1*
X630427Y6305752D1*
Y6317285D1*
X632230Y6328677D1*
X635794Y6339646D1*
X641030Y6349923D1*
X647810Y6359253D1*
X655965Y6367408D1*
X665295Y6374188D1*
X675572Y6379424D1*
X686541Y6382988D1*
X697933Y6384791D1*
X709466D1*
X720858Y6382988D1*
X731827Y6379424D1*
X742104Y6374188D1*
X751434Y6367408D1*
X759589Y6359253D1*
X766369Y6349923D1*
X771605Y6339646D1*
X775169Y6328677D1*
X776972Y6317285D1*
Y6305752D1*
X1697799Y4221518D2*
X1745407Y4303797D1*
X1750308Y4310965D1*
X1785324Y4374768D1*
X2218797Y5169147D1*
X2221639Y5171833D1*
X2225172Y5173510D1*
X2229169Y5174005D1*
X2361659Y5174018D1*
X2375331Y5175664D1*
X2395584Y5176508D1*
X2521962D1*
X2666198Y5426395D1*
X2666199Y6499018D1*
X441199D1*
Y3589692D1*
X708496Y3103735D1*
X1594215Y3620457D1*
X1714739Y3861547D1*
X1616782Y4057745D1*
X1616199Y4061613D1*
X1616841Y4065471D1*
X1623711Y4078478D1*
X1671293Y4165710D1*
X1673538Y4172357D1*
X1682154Y4192732D1*
X1691550Y4210693D1*
X1697799Y4221518D1*
X3368699Y6474150D2*
X5538724D1*
X3368699Y6449281D2*
X5538724D1*
X3368699Y6424412D2*
X5538724D1*
X3368699Y6399543D2*
X5538724D1*
X3368699Y6374675D2*
X5538724D1*
X3368699Y6349806D2*
X5538724D1*
X3368699Y6324937D2*
X5538724D1*
X3368699Y6300068D2*
X5538724D1*
X3368699Y6275199D2*
X5538724D1*
X3368699Y6250331D2*
X5538724D1*
X3368699Y6225462D2*
X5538724D1*
X3368699Y6200593D2*
X5538724D1*
X3368699Y6175724D2*
X5538724D1*
X3368699Y6150856D2*
X5538724D1*
X3368699Y6125987D2*
X5538724D1*
X3368699Y6101118D2*
X5538724D1*
X3368699Y6076249D2*
X5538724D1*
X3368699Y6051381D2*
X5538724D1*
X3368699Y6026512D2*
X5538724D1*
X3368699Y6001643D2*
X5538724D1*
X3368699Y5976774D2*
X5538724D1*
X3368699Y5951906D2*
X5538724D1*
X3368699Y5927037D2*
X5538724D1*
X3368699Y5902168D2*
X5538724D1*
X3368699Y5877299D2*
X5538724D1*
X3368699Y5852430D2*
X5538724D1*
X3368699Y5827562D2*
X5538724D1*
X3368699Y5802693D2*
X5538724D1*
X3368699Y5777824D2*
X5538724D1*
X3368699Y5752955D2*
X5538724D1*
X3368699Y5728087D2*
X5538724D1*
X3368699Y5703218D2*
X5538724D1*
X3368699Y5678349D2*
X5538724D1*
X3368699Y5653480D2*
X5538724D1*
X3368699Y5628612D2*
X5538724D1*
X3368699Y5603743D2*
X5538724D1*
X3368699Y5578874D2*
X5538724D1*
X3368699Y5554005D2*
X5538724D1*
X3368699Y5529136D2*
X5538724D1*
X3368699Y5504268D2*
X5538724D1*
X3368699Y5479399D2*
X5538724D1*
X3374974Y5454530D2*
X5538724D1*
X3389915Y5429661D2*
X5538724D1*
X3404808Y5404793D2*
X5538724D1*
X3419749Y5379924D2*
X5538724D1*
X3434642Y5355055D2*
X5538724D1*
X3449583Y5330186D2*
X5538724D1*
X3464476Y5305318D2*
X5538724D1*
X3479417Y5280449D2*
X5538724D1*
X3494358Y5255580D2*
X5538724D1*
X3509251Y5230711D2*
X5538724D1*
X3774094Y5205843D2*
X5538724D1*
X3788743Y5180974D2*
X5538724D1*
X3803441Y5156105D2*
X5538724D1*
X3818138Y5131236D2*
X5538724D1*
X3832835Y5106367D2*
X5538724D1*
X3847533Y5081499D2*
X5538724D1*
X3862230Y5056630D2*
X5538724D1*
X3876927Y5031761D2*
X5538724D1*
X3891625Y5006892D2*
X5538724D1*
X3906322Y4982024D2*
X5538724D1*
X3921018Y4957155D2*
X5538724D1*
X3935717Y4932286D2*
X5538724D1*
X3950413Y4907417D2*
X5538724D1*
X3965110Y4882549D2*
X5538724D1*
X3979808Y4857680D2*
X5538724D1*
X3994505Y4832811D2*
X5538724D1*
X4009202Y4807942D2*
X5538724D1*
X4023900Y4783073D2*
X5538724D1*
X4038597Y4758205D2*
X5538724D1*
X4053294Y4733336D2*
X5538724D1*
X4067991Y4708467D2*
X5538724D1*
X4082689Y4683598D2*
X5538724D1*
X4097386Y4658730D2*
X5538724D1*
X4112083Y4633861D2*
X5538724D1*
X4126781Y4608992D2*
X5538724D1*
X4141429Y4584123D2*
X5538724D1*
X4156126Y4559255D2*
X5538724D1*
X4170824Y4534386D2*
X5538724D1*
X4185521Y4509517D2*
X5538724D1*
X4200218Y4484648D2*
X5538724D1*
X4214915Y4459780D2*
X5538724D1*
X4229613Y4434911D2*
X5538724D1*
X4244310Y4410042D2*
X5538724D1*
X4259007Y4385173D2*
X5538724D1*
X4273705Y4360304D2*
X5538724D1*
X4288402Y4335436D2*
X5538724D1*
X4303098Y4310567D2*
X5538724D1*
X4317797Y4285698D2*
X5538724D1*
X4332493Y4260829D2*
X5538724D1*
X4347190Y4235961D2*
X5538724D1*
X4361888Y4211092D2*
X5538724D1*
X4376585Y4186223D2*
X5538724D1*
X4391282Y4161354D2*
X5538724D1*
X4405980Y4136486D2*
X5538724D1*
X4419701Y4111617D2*
X5538724D1*
X4409740Y4086748D2*
X5538724D1*
X4399827Y4061879D2*
X5538724D1*
X4389866Y4037010D2*
X5538724D1*
X4379906Y4012142D2*
X5538724D1*
X4369945Y3987273D2*
X5538724D1*
X4360033Y3962404D2*
X5538724D1*
X4350072Y3937535D2*
X5538724D1*
X4340110Y3912667D2*
X5538724D1*
X4330198Y3887798D2*
X5538724D1*
X4320238Y3862929D2*
X5538724D1*
X4331908Y3838060D2*
X5538724D1*
X4344358Y3813192D2*
X5538724D1*
X4356761Y3788323D2*
X5538724D1*
X4369213Y3763454D2*
X5538724D1*
X4381663Y3738585D2*
X5538724D1*
X4394066Y3713717D2*
X5538724D1*
X4406517Y3688848D2*
X5538724D1*
X4418969Y3663979D2*
X5538724D1*
X4431370Y3639110D2*
X5538724D1*
X4443822Y3614241D2*
X5538724D1*
X4456224Y3589373D2*
X5538724D1*
X4475755Y3564504D2*
X5538724D1*
X4518041Y3539635D2*
X5538724D1*
X4560325Y3514766D2*
X5538724D1*
X4602610Y3489898D2*
X5538724D1*
X4644896Y3465029D2*
X5538675D1*
X4687181Y3440160D2*
X5523098D1*
X4729417Y3415291D2*
X5507572D1*
X4771702Y3390423D2*
X5492045D1*
X4813988Y3365554D2*
X5476469D1*
X4856273Y3340685D2*
X5460941D1*
X4898558Y3315816D2*
X5445413D1*
X4940843Y3290948D2*
X5429837D1*
X4983079Y3266079D2*
X5414310D1*
X5025365Y3241210D2*
X5398782D1*
X5067650Y3216341D2*
X5383206D1*
X5109934Y3191472D2*
X5367678D1*
X5152220Y3166604D2*
X5352152D1*
X5194505Y3141735D2*
X5336575D1*
X5236741Y3116866D2*
X5321049D1*
X5279026Y3091997D2*
X5305521D1*
X5528699Y6499018D2*
X3366199D1*
Y5464986D1*
X3510803Y5223975D1*
X3755655Y5223865D1*
X3759374Y5222656D1*
X3762538Y5220357D1*
X3764461Y5217878D1*
X4415323Y4116115D1*
X4416175Y4112299D1*
X4415806Y4108406D1*
X4396736Y4060453D1*
X4317374Y3862047D1*
X4463224Y3570419D1*
X5299539Y3078467D1*
X5541214Y3465127D1*
X5541199Y6499018D1*
X5528699D1*
X1914671Y2924150D2*
X2205911D1*
X3793822D2*
X4145072D1*
X1869896Y2899281D2*
X2218362D1*
X3775169D2*
X4192045D1*
X1825169Y2874412D2*
X2230765D1*
X3756517D2*
X4239017D1*
X1780394Y2849543D2*
X2243217D1*
X3737865D2*
X4285990D1*
X1735618Y2824675D2*
X2255667D1*
X3719213D2*
X4332962D1*
X1690843Y2799806D2*
X2268070D1*
X3700560D2*
X4379934D1*
X1646117Y2774937D2*
X2280521D1*
X3681908D2*
X4426908D1*
X1601341Y2750068D2*
X2292972D1*
X3663255D2*
X4473881D1*
X1556566Y2725199D2*
X4520853D1*
X1511790Y2700331D2*
X4567825D1*
X1467014Y2675462D2*
X4614798D1*
X1422289Y2650593D2*
X4661770D1*
X1377513Y2625724D2*
X4708743D1*
X1332738Y2600856D2*
X4755717D1*
X1287962Y2575987D2*
X4465921D1*
X4541478D2*
X4802689D1*
X1243236Y2551118D2*
X4439261D1*
X4568138D2*
X4849661D1*
X1198461Y2526249D2*
X4429202D1*
X4578197D2*
X4896682D1*
X1153685Y2501381D2*
X4428421D1*
X4578978D2*
X4933694D1*
X1108909Y2476512D2*
X4436575D1*
X4570824D2*
X4923734D1*
X1075121Y2451643D2*
X4458549D1*
X4548850D2*
X4913773D1*
X1087522Y2426774D2*
X4903861D1*
X1099974Y2401906D2*
X4893900D1*
X1112425Y2377037D2*
X4883938D1*
X1124827Y2352168D2*
X4873978D1*
X1137278Y2327299D2*
X4864066D1*
X1149730Y2302430D2*
X4854105D1*
X1162133Y2277562D2*
X4844144D1*
X4576972Y2505752D2*
X4575169Y2494360D1*
X4571605Y2483391D1*
X4566369Y2473114D1*
X4559589Y2463783D1*
X4551434Y2455629D1*
X4542104Y2448849D1*
X4531827Y2443613D1*
X4520858Y2440049D1*
X4509466Y2438245D1*
X4497933D1*
X4486541Y2440049D1*
X4475572Y2443613D1*
X4465295Y2448849D1*
X4455965Y2455629D1*
X4447810Y2463783D1*
X4441030Y2473114D1*
X4435794Y2483391D1*
X4432230Y2494360D1*
X4430427Y2505752D1*
Y2517285D1*
X4432230Y2528677D1*
X4435794Y2539646D1*
X4441030Y2549923D1*
X4447810Y2559253D1*
X4455965Y2567408D1*
X4465295Y2574188D1*
X4475572Y2579424D1*
X4486541Y2582988D1*
X4497933Y2584791D1*
X4509466D1*
X4520858Y2582988D1*
X4531827Y2579424D1*
X4542104Y2574188D1*
X4551434Y2567408D1*
X4559589Y2559253D1*
X4566369Y2549923D1*
X4571605Y2539646D1*
X4575169Y2528677D1*
X4576972Y2517285D1*
Y2505752D1*
X1070230Y2456408D2*
X1161446Y2273978D1*
X4845252Y2274018D1*
X4937933Y2505760D1*
X4100573Y2949030D1*
X3809900Y2949018D1*
X3662403Y2752546D1*
X3659205Y2750295D1*
X3655467Y2749144D1*
X3616199Y2749018D1*
X2301744Y2749172D1*
X2298025Y2750381D1*
X2294861Y2752680D1*
X2292394Y2756209D1*
X2195953Y2949059D1*
X1956873Y2949018D1*
X1070203Y2456388D1*
X468699Y2974412D2*
X485843D1*
X468699Y2949543D2*
X499857D1*
X468699Y2924675D2*
X513822D1*
X468699Y2899806D2*
X527835D1*
X468699Y2874937D2*
X541801D1*
X468699Y2850068D2*
X555814D1*
X468699Y2825199D2*
X569778D1*
X468699Y2800331D2*
X583793D1*
X468699Y2775462D2*
X597757D1*
X468699Y2750593D2*
X611770D1*
X468699Y2725724D2*
X625736D1*
X468699Y2700856D2*
X639749D1*
X468699Y2675987D2*
X653714D1*
X468699Y2651118D2*
X667728D1*
X468699Y2626249D2*
X681693D1*
X468699Y2601381D2*
X695706D1*
X468699Y2576512D2*
X709671D1*
X468699Y2551643D2*
X723685D1*
X468699Y2526774D2*
X737650D1*
X468699Y2501906D2*
X751663D1*
X468699Y2477037D2*
X765629D1*
X468699Y2452168D2*
X779593D1*
X468699Y2427299D2*
X793606D1*
X468699Y2402430D2*
X807572D1*
X468699Y2377562D2*
X821585D1*
X468699Y2352693D2*
X835550D1*
X468699Y2327824D2*
X849564D1*
X468699Y2302955D2*
X863529D1*
X468699Y2278087D2*
X877542D1*
X466199Y3013814D2*
Y2274018D1*
X882362D1*
X466196Y3013806D1*
X5521556Y2974412D2*
X5538724D1*
X5507542Y2949543D2*
X5538724D1*
X5493577Y2924675D2*
X5538724D1*
X5479564Y2899806D2*
X5538724D1*
X5465598Y2874937D2*
X5538724D1*
X5451585Y2850068D2*
X5538724D1*
X5437621Y2825199D2*
X5538724D1*
X5423606Y2800331D2*
X5538724D1*
X5409642Y2775462D2*
X5538724D1*
X5395629Y2750593D2*
X5538724D1*
X5381663Y2725724D2*
X5538724D1*
X5367650Y2700856D2*
X5538724D1*
X5353685Y2675987D2*
X5538724D1*
X5339671Y2651118D2*
X5538724D1*
X5325706Y2626249D2*
X5538724D1*
X5311693Y2601381D2*
X5538724D1*
X5297728Y2576512D2*
X5538724D1*
X5283714Y2551643D2*
X5538724D1*
X5269749Y2526774D2*
X5538724D1*
X5255736Y2501906D2*
X5538724D1*
X5241770Y2477037D2*
X5538724D1*
X5227806Y2452168D2*
X5538724D1*
X5213793Y2427299D2*
X5538724D1*
X5199827Y2402430D2*
X5538724D1*
X5185814Y2377562D2*
X5538724D1*
X5171849Y2352693D2*
X5538724D1*
X5157835Y2327824D2*
X5538724D1*
X5143870Y2302955D2*
X5538724D1*
X5129857Y2278087D2*
X5538724D1*
X5541199Y2286518D2*
Y3013814D1*
X5125059Y2273993D1*
X5541199Y2274018D1*
Y2286518D1*
X468699Y6874150D2*
X5538724D1*
X468699Y6849281D2*
X5538724D1*
X468699Y6824412D2*
X5538724D1*
X468699Y6799543D2*
X5538724D1*
X468699Y6774675D2*
X5538724D1*
X468699Y6749806D2*
X5538724D1*
X468699Y6724937D2*
X5538724D1*
X466199Y6886518D2*
Y6724018D1*
X5541199D1*
Y6899018D1*
X466199D1*
Y6886518D1*
X2855794Y6204353D2*
X2905139D1*
X3121272D2*
X3147228D1*
X2855794Y6179484D2*
X2896790D1*
X2855794Y6154615D2*
X2898400D1*
X2855794Y6129747D2*
X2910999D1*
X2855794Y6104878D2*
X3081555D1*
X2855794Y6080009D2*
X3095227D1*
X2855794Y6055140D2*
X3095227D1*
X2855794Y6030272D2*
X3095227D1*
X2855794Y6005403D2*
X3095227D1*
X2855794Y5980534D2*
X3095227D1*
X2855794Y5955665D2*
X3095227D1*
X2855794Y5930797D2*
X3095227D1*
X2855794Y5905928D2*
X3095227D1*
X2855794Y5881059D2*
X3095227D1*
X2855843Y5856190D2*
X3095227D1*
X2855843Y5831322D2*
X3095227D1*
X2855843Y5806453D2*
X3095227D1*
X2855843Y5781584D2*
X3095227D1*
X2855843Y5756715D2*
X3095227D1*
X2855843Y5731846D2*
X3095227D1*
X2855843Y5706978D2*
X3095227D1*
X2855843Y5682109D2*
X3095227D1*
X2855843Y5657240D2*
X3095227D1*
X2855843Y5632371D2*
X3095227D1*
X2855843Y5607503D2*
X3095227D1*
X2855843Y5582634D2*
X3095227D1*
X2855843Y5557765D2*
X3095227D1*
X2855843Y5532896D2*
X3095227D1*
X2855843Y5508028D2*
X3095227D1*
X2855843Y5483159D2*
X3095227D1*
X2855843Y5458290D2*
X3095227D1*
X2855843Y5433421D2*
X3095227D1*
X2855843Y5408552D2*
X3095227D1*
X2855891Y5383684D2*
X3095227D1*
X2855891Y5358815D2*
X3095227D1*
X2855891Y5333946D2*
X3095227D1*
X2846370Y5309077D2*
X3095227D1*
X2832307Y5284209D2*
X3095227D1*
X3187190D2*
X3202030D1*
X2818294Y5259340D2*
X3095227D1*
X3187190D2*
X3215783D1*
X2804231Y5234471D2*
X3095227D1*
X3187190D2*
X3229602D1*
X2790168Y5209602D2*
X3095227D1*
X3187190D2*
X3243371D1*
X2776106Y5184734D2*
X3095227D1*
X3187190D2*
X3257142D1*
X2762043Y5159865D2*
X3095227D1*
X3187190D2*
X3270911D1*
X2747980Y5134996D2*
X3095227D1*
X3187190D2*
X3284680D1*
X2733919Y5110127D2*
X3095227D1*
X3187190D2*
X3298450D1*
X2719904Y5085259D2*
X3095227D1*
X3187190D2*
X3312268D1*
X2705843Y5060390D2*
X3095227D1*
X3187190D2*
X3326038D1*
X2691780Y5035521D2*
X3095227D1*
X3187190D2*
X3339807D1*
X2677718Y5010652D2*
X3095227D1*
X2663655Y4985783D2*
X3095227D1*
X2371711Y4960915D2*
X3095227D1*
X2357454Y4936046D2*
X3095227D1*
X2343244Y4911177D2*
X3095227D1*
X3187190D2*
X3241175D1*
X2328987Y4886308D2*
X2423108D1*
X2513020D2*
X3095227D1*
X3187190D2*
X3204705D1*
X2314728Y4861440D2*
X2404748D1*
X2531379D2*
X3095227D1*
X2300520Y4836571D2*
X2399572D1*
X2536555D2*
X3103088D1*
X2286262Y4811702D2*
X2377112D1*
X2532014D2*
X3127014D1*
X2272054Y4786833D2*
X2363050D1*
X2538020D2*
X2641564D1*
X2682063D2*
X3151867D1*
X2257795Y4761965D2*
X2360412D1*
X2549787D2*
X2605823D1*
X2717756D2*
X3176770D1*
X2243538Y4737096D2*
X2367639D1*
X2561604D2*
X2594787D1*
X2728840D2*
X2807727D1*
X2273127Y4712227D2*
X2390247D1*
X2572736D2*
X2586951D1*
X2729378D2*
X2782874D1*
X2296320Y4687358D2*
X2409240D1*
X2367366Y4662490D2*
X2393420D1*
X2851203D2*
X3338343D1*
X3536018D2*
X3549252D1*
X3649446D2*
X3660352D1*
X2540071Y4637621D2*
X2556311D1*
X3342659D2*
X3369642D1*
X3520392D2*
X3569202D1*
X3606331D2*
X3675794D1*
X2523762Y4612752D2*
X2569299D1*
X3519514D2*
X3691272D1*
X2507454Y4587883D2*
X2615003D1*
X3552375D2*
X3706751D1*
X2491096Y4563014D2*
X2590148D1*
X2708235D2*
X3299182D1*
X3566780D2*
X3718274D1*
X2474787Y4538146D2*
X2565295D1*
X2683382D2*
X3324035D1*
X3570686D2*
X3706115D1*
X2458479Y4513277D2*
X2540392D1*
X2658479D2*
X3348890D1*
X3588850D2*
X3714710D1*
X2470588Y4488408D2*
X2515539D1*
X2633626D2*
X3439172D1*
X3611458D2*
X3729064D1*
X2608772Y4463539D2*
X3469495D1*
X3619904D2*
X3743420D1*
X2583919Y4438671D2*
X3470031D1*
X3619367D2*
X3762610D1*
X2574202Y4413802D2*
X3479846D1*
X3653108D2*
X3772131D1*
X2574202Y4388933D2*
X3505676D1*
X3667072D2*
X3786487D1*
X2574202Y4364064D2*
X3518714D1*
X3670686D2*
X3800891D1*
X2015706Y4339196D2*
X2027188D1*
X2574202D2*
X3523791D1*
X3690071D2*
X3829798D1*
X2001448Y4314327D2*
X2101232D1*
X2584602D2*
X3540051D1*
X3711946D2*
X3846984D1*
X1987239Y4289458D2*
X2118908D1*
X2595832D2*
X3569396D1*
X3720003D2*
X3848596D1*
X1972980Y4264589D2*
X2155871D1*
X2596076D2*
X3570227D1*
X3719172D2*
X3814270D1*
X1958723Y4239720D2*
X2048694D1*
X2585335D2*
X2914660D1*
X3092756D2*
X3580383D1*
X1944514Y4214852D2*
X2016760D1*
X2486799D2*
X2516320D1*
X2547102D2*
X2865832D1*
X3141535D2*
X3607239D1*
X1930256Y4189983D2*
X1959290D1*
X2455207D2*
X2836780D1*
X3170588D2*
X3618762D1*
X1915999Y4165114D2*
X1933802D1*
X2459895D2*
X2811927D1*
X3195491D2*
X3624134D1*
X1901790Y4140245D2*
X1918714D1*
X2258528D2*
X2275550D1*
X2447542D2*
X2794934D1*
X3212434D2*
X3640930D1*
X3812386D2*
X3824934D1*
X1887531Y4115377D2*
X1903656D1*
X2233675D2*
X2258459D1*
X2433186D2*
X2782287D1*
X3225130D2*
X3669251D1*
X3820148D2*
X3828652D1*
X1873274Y4090508D2*
X1888492D1*
X2206916D2*
X2244104D1*
X2418391D2*
X2769836D1*
X3237580D2*
X3670423D1*
X2163655Y4065639D2*
X2230139D1*
X2403010D2*
X2764856D1*
X3242560D2*
X3680970D1*
X2188558Y4040770D2*
X2230286D1*
X2390071D2*
X2760900D1*
X3246516D2*
X3708899D1*
X3867610D2*
X3881214D1*
X2213411Y4015902D2*
X2249231D1*
X2375715D2*
X2757092D1*
X3250324D2*
X3718811D1*
X3870588D2*
X3893470D1*
X2368294Y3991033D2*
X2759827D1*
X3247591D2*
X3724524D1*
X3892415D2*
X3981751D1*
X2087142Y3966164D2*
X2135119D1*
X2376839D2*
X2763732D1*
X3243635D2*
X3741858D1*
X3930940D2*
X3963391D1*
X1969710Y3941295D2*
X2160022D1*
X2391584D2*
X2767736D1*
X3239680D2*
X3769152D1*
X1969710Y3916427D2*
X2158899D1*
X2392171D2*
X2778772D1*
X3228596D2*
X3770618D1*
X1969710Y3891558D2*
X1995227D1*
X2078352D2*
X2140491D1*
X2392171D2*
X2791467D1*
X3215950D2*
X3781555D1*
X2290266Y3866689D2*
X2307239D1*
X2392171D2*
X2805286D1*
X3202083D2*
X3806164D1*
X2268391Y3841820D2*
X2307239D1*
X2392171D2*
X2829944D1*
X3177474D2*
X3814954D1*
X2261555Y3816951D2*
X2307239D1*
X2392171D2*
X2854992D1*
X3152424D2*
X3829308D1*
X2247199Y3792083D2*
X2307239D1*
X2392171D2*
X2901184D1*
X3106232D2*
X3845324D1*
X2111995Y3767214D2*
X2159974D1*
X2232844D2*
X2307239D1*
X2392171D2*
X3864466D1*
X2108675Y3742345D2*
X2307239D1*
X2392171D2*
X3862756D1*
X2096516Y3717476D2*
X2307239D1*
X2392171D2*
X3871546D1*
X2068000Y3692608D2*
X2307239D1*
X2392171D2*
X3892980D1*
X4033332D2*
X4044592D1*
X2027912Y3667739D2*
X2307239D1*
X2392171D2*
X3853675D1*
X4008235D2*
X4058703D1*
X1857600Y3642870D2*
X1874280D1*
X2003596D2*
X2307239D1*
X2392171D2*
X3814367D1*
X3968928D2*
X4072864D1*
X1843391Y3618001D2*
X1887951D1*
X1969660D2*
X2307727D1*
X2415266D2*
X3775060D1*
X3929622D2*
X4086975D1*
X1829182Y3593133D2*
X2322034D1*
X2440119D2*
X3735755D1*
X3890315D2*
X4101087D1*
X1814974Y3568264D2*
X2346887D1*
X2465022D2*
X3696448D1*
X3851008D2*
X4115247D1*
X1800764Y3543395D2*
X2371790D1*
X2489875D2*
X3657142D1*
X3811702D2*
X4129358D1*
X1786555Y3518526D2*
X2396643D1*
X2910726D2*
X2941076D1*
X2979866D2*
X3038000D1*
X3076839D2*
X3617835D1*
X3772395D2*
X4143518D1*
X1772346Y3493657D2*
X2421496D1*
X3106722D2*
X3212951D1*
X3733088D2*
X4157630D1*
X1754084Y3468789D2*
X2398987D1*
X3113411D2*
X3198352D1*
X3693782D2*
X4171740D1*
X1711262Y3443920D2*
X2314514D1*
X3107795D2*
X3177892D1*
X3654475D2*
X4185900D1*
X1669660Y3419051D2*
X2274231D1*
X3607844D2*
X4200012D1*
X1626594Y3394182D2*
X2248206D1*
X3723030D2*
X4214612D1*
X1583528Y3369314D2*
X2237756D1*
X3765803D2*
X4251916D1*
X1540412Y3344445D2*
X2154114D1*
X3782014D2*
X4296790D1*
X1497346Y3319576D2*
X2120031D1*
X3819759D2*
X4341711D1*
X1454280Y3294707D2*
X2086194D1*
X3830110D2*
X4386634D1*
X1411214Y3269839D2*
X2075256D1*
X3830110D2*
X4431555D1*
X1368147Y3244970D2*
X2075207D1*
X2758430D2*
X2771058D1*
X3830110D2*
X4476428D1*
X1325080Y3220101D2*
X2075207D1*
X2746175D2*
X2771058D1*
X4158967D2*
X4521350D1*
X1281966Y3195232D2*
X1801575D1*
X2746175D2*
X2797083D1*
X4202424D2*
X4566272D1*
X1238899Y3170364D2*
X1759484D1*
X2746175D2*
X2797083D1*
X4245539D2*
X4611144D1*
X1195832Y3145495D2*
X1717346D1*
X2746175D2*
X2797083D1*
X4288703D2*
X4656067D1*
X1152766Y3120626D2*
X1675256D1*
X2746175D2*
X2797083D1*
X4331819D2*
X4700988D1*
X1109699Y3095757D2*
X1633118D1*
X2746175D2*
X2797083D1*
X4374934D2*
X4745911D1*
X1066634Y3070888D2*
X1591028D1*
X2739631D2*
X2747571D1*
X4418098D2*
X4763732D1*
X1023567Y3046020D2*
X1548890D1*
X2715950D2*
X2731311D1*
X4461214D2*
X4763732D1*
X4855696D2*
X4897131D1*
X1013215Y3021151D2*
X1075744D1*
X1153010D2*
X1506799D1*
X2691047D2*
X2729798D1*
X4504378D2*
X4763732D1*
X4932404D2*
X4941720D1*
X1028303Y2996282D2*
X1053283D1*
X1175471D2*
X1464660D1*
X4547492D2*
X4765783D1*
X4955451D2*
X4968567D1*
X1182648Y2971413D2*
X1422571D1*
X4590608D2*
X4775744D1*
X1200667Y2946545D2*
X1380432D1*
X4633772D2*
X4785803D1*
X1217756Y2921676D2*
X1338294D1*
X1222248Y2896807D2*
X1296203D1*
X1217024Y2871938D2*
X1254064D1*
X1198567Y2847070D2*
X1211950D1*
X4737923D2*
X4809827D1*
X4780207Y2822201D2*
X4873694D1*
X4822542Y2797332D2*
X4860168D1*
X3607041Y3408453D2*
X3608853D1*
Y3401470D1*
X3700588Y3401391D1*
X3706787Y3400409D1*
X3712756Y3398470D1*
X3718348Y3395621D1*
X3723425Y3391932D1*
X3736668Y3378843D1*
X3740475Y3377203D1*
X3763282D1*
X3763331Y3344360D1*
X3771699Y3345018D1*
X3780068Y3344360D1*
X3788232Y3342400D1*
X3795988Y3339188D1*
X3803146Y3334801D1*
X3809530Y3329349D1*
X3814982Y3322965D1*
X3819369Y3315807D1*
X3822581Y3308051D1*
X3824541Y3299887D1*
X3825005Y3295961D1*
X3827602Y3295953D1*
Y3224224D1*
X4141479Y3224062D1*
X4148220Y3222993D1*
X4154713Y3220885D1*
X4159793Y3218381D1*
X4641476Y2940669D1*
X4790706Y2940680D1*
X4768230Y2996382D1*
X4766686Y3003031D1*
X4766199Y3009518D1*
Y3085934D1*
X4227705Y3384235D1*
X4222324Y3388434D1*
X4217667Y3393425D1*
X4213878Y3399029D1*
X4033665Y3716202D1*
X4033572Y3704311D1*
X4032591Y3698112D1*
X4030651Y3692143D1*
X4027802Y3686551D1*
X4024113Y3681474D1*
X4019675Y3677035D1*
X4015085Y3673651D1*
X3629753Y3429976D1*
X3623991Y3427492D1*
X3617909Y3425940D1*
X3611085Y3425353D1*
X3603224D1*
X3605664Y3417822D1*
X3607018Y3408463D1*
X3614223Y3425476D1*
X3611085Y3425353D1*
X2297546Y4178783D2*
X2301623Y4185845D1*
X2211029Y4095571D1*
X2201063Y4088329D1*
X2190088Y4082738D1*
X2178373Y4078932D1*
X2166206Y4077004D1*
X2144373Y4076762D1*
X2152113Y4073013D1*
X2157635Y4069001D1*
X2204337Y4022488D1*
X2224398Y4002429D1*
X2230714Y4002234D1*
X2238346Y4000295D1*
X2243222Y3997950D1*
X2245495Y4004378D1*
X2249983Y4013186D1*
X2254777Y4019895D1*
X2244833Y4025739D1*
X2238913Y4030930D1*
X2234367Y4037362D1*
X2231450Y4044676D1*
X2230320Y4052470D1*
X2231041Y4060312D1*
X2233572Y4067769D1*
X2269797Y4130718D1*
X2274508Y4137029D1*
X2280563Y4142064D1*
X2285555Y4144720D1*
X2286992Y4147706D1*
X2287094Y4155580D1*
X2289033Y4163213D1*
X2291297Y4167958D1*
X2297546Y4178783D1*
X2447353Y4144255D2*
X2417199Y4092232D1*
X2412007Y4086312D1*
X2405575Y4081768D1*
X2402844Y4080455D1*
X2401407Y4077470D1*
X2401304Y4069596D1*
X2399365Y4061963D1*
X2397102Y4057218D1*
X2365178Y4001951D1*
X2364959Y3994976D1*
X2366505Y3985213D1*
Y3975325D1*
X2366366Y3974156D1*
X2380113Y3960244D1*
X2383802Y3955167D1*
X2386651Y3949575D1*
X2388591Y3943606D1*
X2389572Y3937407D1*
X2389696Y3871769D1*
Y3641056D1*
X2501276Y3529505D1*
X2883837Y3529391D1*
X2890037Y3528409D1*
X2896005Y3526470D1*
X2901597Y3523621D1*
X2906675Y3519932D1*
X2921929Y3504853D1*
X2929028Y3511050D1*
X2936185Y3515437D1*
X2943941Y3518650D1*
X2952105Y3520609D1*
X2960474Y3521268D1*
X2968843Y3520609D1*
X2977007Y3518650D1*
X2984762Y3515437D1*
X2991920Y3511050D1*
X2998304Y3505598D1*
X3003756Y3499214D1*
X3008143Y3492056D1*
X3008919Y3490373D1*
X3014129Y3499214D1*
X3019580Y3505598D1*
X3025965Y3511050D1*
X3033122Y3515437D1*
X3040878Y3518650D1*
X3049042Y3520609D1*
X3057411Y3521268D1*
X3065780Y3520609D1*
X3073944Y3518650D1*
X3081699Y3515437D1*
X3088857Y3511050D1*
X3095241Y3505598D1*
X3100693Y3499214D1*
X3105080Y3492056D1*
X3108293Y3484301D1*
X3110252Y3476136D1*
X3110911Y3467768D1*
X3110252Y3459399D1*
X3108293Y3451235D1*
X3105080Y3443479D1*
X3103949Y3441461D1*
X3175155Y3441462D1*
X3185037Y3445629D1*
X3190121Y3447035D1*
X3209310Y3485772D1*
X3212929Y3490900D1*
X3217304Y3495399D1*
X3222331Y3499157D1*
X3227882Y3502085D1*
X3233824Y3504106D1*
X3240008Y3505175D1*
X3281199Y3505345D1*
X3599510D1*
X3898626Y3694622D1*
X3890669Y3699550D1*
X3883152Y3705971D1*
X3876731Y3713488D1*
X3871566Y3721917D1*
X3867783Y3731050D1*
X3865475Y3740663D1*
X3864699Y3750518D1*
X3865475Y3760374D1*
X3867783Y3769987D1*
X3868272Y3771310D1*
X3860059Y3784759D1*
X3854718Y3787096D1*
X3848287Y3791642D1*
X3843094Y3797562D1*
X3813148Y3849226D1*
X3810039Y3856461D1*
X3808706Y3864222D1*
X3808806Y3868961D1*
X3801497Y3873634D1*
X3792727Y3881123D1*
X3785236Y3889894D1*
X3779210Y3899728D1*
X3774797Y3910383D1*
X3772104Y3921598D1*
X3771199Y3933096D1*
X3772104Y3944594D1*
X3773067Y3949437D1*
X3761331Y3954210D1*
X3751497Y3960236D1*
X3742727Y3967727D1*
X3735236Y3976496D1*
X3729210Y3986331D1*
X3724797Y3996986D1*
X3722104Y4008201D1*
X3721199Y4019699D1*
X3722104Y4031197D1*
X3723067Y4036039D1*
X3711331Y4040812D1*
X3701497Y4046839D1*
X3692727Y4054329D1*
X3685236Y4063100D1*
X3679210Y4072933D1*
X3674797Y4083589D1*
X3672104Y4094803D1*
X3671199Y4106302D1*
X3672104Y4117799D1*
X3673067Y4122642D1*
X3661331Y4127415D1*
X3651497Y4133441D1*
X3642727Y4140932D1*
X3635236Y4149702D1*
X3629210Y4159535D1*
X3624797Y4170192D1*
X3622104Y4181406D1*
X3621199Y4192904D1*
X3622104Y4204402D1*
X3623067Y4209244D1*
X3611331Y4214017D1*
X3601497Y4220043D1*
X3592727Y4227534D1*
X3585236Y4236304D1*
X3579210Y4246138D1*
X3574797Y4256794D1*
X3572104Y4268009D1*
X3571199Y4279507D1*
X3572104Y4291004D1*
X3573067Y4295846D1*
X3561331Y4300619D1*
X3551497Y4306646D1*
X3542727Y4314136D1*
X3535236Y4322907D1*
X3529210Y4332740D1*
X3524797Y4343396D1*
X3522104Y4354612D1*
X3521199Y4366109D1*
X3522104Y4377606D1*
X3523067Y4382449D1*
X3511331Y4387223D1*
X3501497Y4393249D1*
X3492727Y4400739D1*
X3485236Y4409509D1*
X3479210Y4419344D1*
X3474797Y4429999D1*
X3472104Y4441214D1*
X3471199Y4452711D1*
X3472104Y4464210D1*
X3473067Y4469051D1*
X3461331Y4473825D1*
X3451497Y4479852D1*
X3442727Y4487341D1*
X3435236Y4496112D1*
X3433094Y4499318D1*
X3378765Y4499441D1*
X3372567Y4500423D1*
X3366598Y4502362D1*
X3361005Y4505211D1*
X3355928Y4508900D1*
X3309428Y4555227D1*
X3290127Y4574528D1*
X2717295Y4574522D1*
X2571711Y4428967D1*
X2571696Y4325157D1*
X2576247Y4321066D1*
X2582668Y4313549D1*
X2587833Y4305119D1*
X2591615Y4295987D1*
X2593924Y4286374D1*
X2594699Y4276518D1*
X2593924Y4266663D1*
X2591615Y4257050D1*
X2587833Y4247917D1*
X2582668Y4239488D1*
X2576247Y4231971D1*
X2568730Y4225550D1*
X2560301Y4220385D1*
X2551168Y4216602D1*
X2541555Y4214294D1*
X2531699Y4213518D1*
X2521844Y4214294D1*
X2512231Y4216602D1*
X2504344Y4219811D1*
X2467646Y4210715D1*
X2452748Y4190030D1*
X2456169Y4183012D1*
X2457907Y4175331D1*
X2457804Y4167457D1*
X2455866Y4159824D1*
X2453602Y4155079D1*
X2447353Y4144255D1*
X3798323Y4372776D2*
X3768349Y4424900D1*
X3765818Y4432357D1*
X3765097Y4440199D1*
X3765327Y4443220D1*
X3763459Y4445958D1*
X3756692Y4449984D1*
X3751051Y4455479D1*
X3748073Y4459811D1*
X3711849Y4522761D1*
X3709318Y4530218D1*
X3708597Y4538060D1*
X3709727Y4545854D1*
X3712644Y4553168D1*
X3717190Y4559600D1*
X3723110Y4564791D1*
X3723450Y4565005D1*
X3657566Y4670916D1*
X3653176Y4666555D1*
X3648844Y4663577D1*
X3602192Y4636762D1*
X3594735Y4634231D1*
X3586894Y4633510D1*
X3579100Y4634640D1*
X3571785Y4637559D1*
X3565354Y4642104D1*
X3560161Y4648025D1*
X3534710Y4691902D1*
X3534566Y4669004D1*
X3533497Y4662262D1*
X3531388Y4655770D1*
X3528290Y4649689D1*
X3524277Y4644167D1*
X3517366Y4637066D1*
X3518199Y4625916D1*
X3517294Y4614419D1*
X3516331Y4609576D1*
X3528067Y4604803D1*
X3537902Y4598777D1*
X3546672Y4591286D1*
X3554161Y4582516D1*
X3560188Y4572682D1*
X3564601Y4562026D1*
X3567294Y4550812D1*
X3568199Y4539314D1*
X3567294Y4527816D1*
X3566331Y4522974D1*
X3578067Y4518201D1*
X3587902Y4512175D1*
X3596672Y4504684D1*
X3604161Y4495913D1*
X3610188Y4486080D1*
X3614601Y4475424D1*
X3617294Y4464210D1*
X3618199Y4452711D1*
X3617294Y4441214D1*
X3616331Y4436371D1*
X3628067Y4431598D1*
X3637902Y4425572D1*
X3646672Y4418081D1*
X3654161Y4409311D1*
X3660188Y4399478D1*
X3664601Y4388822D1*
X3667294Y4377606D1*
X3668199Y4366109D1*
X3667294Y4354612D1*
X3666331Y4349769D1*
X3678067Y4344996D1*
X3687902Y4338970D1*
X3696672Y4331479D1*
X3704161Y4322709D1*
X3710188Y4312875D1*
X3714601Y4302219D1*
X3717294Y4291004D1*
X3718199Y4279507D1*
X3717294Y4268009D1*
X3716331Y4263167D1*
X3728067Y4258392D1*
X3737902Y4252366D1*
X3746672Y4244877D1*
X3752277Y4238496D1*
X3841385Y4274533D1*
X3843885Y4280413D1*
X3848429Y4286844D1*
X3854350Y4292037D1*
X3871079Y4301814D1*
X3862598Y4305385D1*
X3854169Y4310550D1*
X3846652Y4316971D1*
X3840231Y4324488D1*
X3835066Y4332917D1*
X3831283Y4342050D1*
X3830084Y4345385D1*
X3822403Y4347122D1*
X3815340Y4350605D1*
X3809285Y4355640D1*
X3804573Y4361951D1*
X3804416Y4362251D1*
X3798323Y4372776D1*
X2240160Y4735575D2*
X2246689Y4732727D1*
X2255648Y4727236D1*
X2263639Y4720412D1*
X2270463Y4712421D1*
X2275064Y4705419D1*
X2279837Y4701343D1*
X2306112Y4675068D1*
X2315650Y4676474D1*
X2327184D1*
X2338575Y4674669D1*
X2349543Y4671105D1*
X2359820Y4665869D1*
X2369151Y4659089D1*
X2377306Y4650934D1*
X2383322Y4642747D1*
X2418029Y4697262D1*
X2415329Y4702906D1*
X2408293Y4704808D1*
X2398724Y4708772D1*
X2389894Y4714182D1*
X2382020Y4720908D1*
X2375293Y4728783D1*
X2369882Y4737614D1*
X2365919Y4747182D1*
X2363501Y4757253D1*
X2362688Y4767577D1*
X2363501Y4777903D1*
X2365919Y4787972D1*
X2369882Y4797541D1*
X2375293Y4806371D1*
X2382020Y4814247D1*
X2389894Y4820972D1*
X2398724Y4826385D1*
X2402493Y4828122D1*
X2402058Y4835769D1*
X2402871Y4846093D1*
X2405289Y4856164D1*
X2409252Y4865732D1*
X2414663Y4874563D1*
X2421390Y4882438D1*
X2429264Y4889164D1*
X2438094Y4894575D1*
X2447663Y4898538D1*
X2457734Y4900957D1*
X2468058Y4901769D1*
X2478383Y4900957D1*
X2488453Y4898538D1*
X2498021Y4894575D1*
X2506852Y4889164D1*
X2514727Y4882438D1*
X2521453Y4874563D1*
X2526865Y4865732D1*
X2530828Y4856164D1*
X2533245Y4846093D1*
X2534058Y4835769D1*
X2533245Y4825444D1*
X2530828Y4815374D1*
X2526677Y4805470D1*
X2569073Y4715762D1*
X2570841Y4709740D1*
X2571646Y4703516D1*
X2571428Y4696962D1*
X2579573Y4705265D1*
X2587953Y4711352D1*
X2596243Y4715622D1*
X2595807Y4723269D1*
X2596621Y4733593D1*
X2599038Y4743664D1*
X2603001Y4753232D1*
X2608412Y4762063D1*
X2615139Y4769938D1*
X2623013Y4776664D1*
X2631844Y4782075D1*
X2641412Y4786038D1*
X2651483Y4788457D1*
X2661807Y4789269D1*
X2672133Y4788457D1*
X2682202Y4786038D1*
X2691770Y4782075D1*
X2700601Y4776664D1*
X2708476Y4769938D1*
X2715202Y4762063D1*
X2720614Y4753232D1*
X2724577Y4743664D1*
X2726995Y4733593D1*
X2727807Y4723269D1*
X2726995Y4712944D1*
X2724577Y4702874D1*
X2721419Y4695051D1*
X2768189Y4695073D1*
X2815224Y4741932D1*
X2820302Y4745621D1*
X2825894Y4748470D1*
X2831862Y4750409D1*
X2838062Y4751391D1*
X2903699Y4751514D1*
X3189686D1*
X3108122Y4833268D1*
X3104109Y4838790D1*
X3101010Y4844871D1*
X3098902Y4851364D1*
X3097833Y4858105D1*
X3097699Y4924018D1*
Y6085524D1*
X3077218Y6114589D1*
X3068776Y6110327D1*
X3058925Y6107127D1*
X3048697Y6105507D1*
X3038340D1*
X3028112Y6107127D1*
X3018261Y6110327D1*
X3009034Y6115029D1*
X3004168Y6118346D1*
X2994741Y6112496D1*
X2985173Y6108533D1*
X2975102Y6106115D1*
X2964778Y6105303D1*
X2954454Y6106115D1*
X2944383Y6108533D1*
X2934815Y6112496D1*
X2925984Y6117908D1*
X2918109Y6124634D1*
X2911383Y6132509D1*
X2905971Y6141340D1*
X2902008Y6150908D1*
X2899591Y6160979D1*
X2898778Y6171303D1*
X2899591Y6181627D1*
X2902008Y6191698D1*
X2905971Y6201266D1*
X2911383Y6210097D1*
X2918109Y6217972D1*
X2925984Y6224698D1*
X2932466Y6228794D1*
X2853281Y6229161D1*
X2853219Y5327193D1*
X2852010Y5323474D1*
X2655556Y4976189D1*
X2652675Y4973545D1*
X2649115Y4971921D1*
X2645941Y4971467D1*
X2373163Y4967757D1*
X2240192Y4735600D1*
X2044623Y4330542D2*
X2017264Y4346339D1*
X1867236Y4084294D1*
X1880199Y4059018D1*
X1880735Y4067323D1*
X1882328Y4073961D1*
X1884941Y4080266D1*
X1925415Y4147203D1*
X1942395Y4174932D1*
X1946804Y4180142D1*
X1951975Y4184597D1*
X1957780Y4188190D1*
X1964075Y4190829D1*
X1970705Y4192453D1*
X1988512Y4193469D1*
X2006320Y4194156D1*
X2011579Y4204115D1*
X2020202Y4215986D1*
X2030577Y4226361D1*
X2042448Y4234984D1*
X2055520Y4241646D1*
X2069474Y4246178D1*
X2083965Y4248474D1*
X2098636D1*
X2113127Y4246178D1*
X2127081Y4241646D1*
X2132785Y4239016D1*
X2164097Y4270329D1*
X2154041Y4272049D1*
X2143072Y4275613D1*
X2132795Y4280848D1*
X2123465Y4287627D1*
X2115310Y4295783D1*
X2108530Y4305114D1*
X2103294Y4315390D1*
X2099730Y4326360D1*
X2098533Y4332623D1*
X2094615Y4328408D1*
X2088184Y4323864D1*
X2080870Y4320946D1*
X2073076Y4319815D1*
X2065234Y4320537D1*
X2057777Y4323067D1*
X2044623Y4330542D1*
X3197325Y4866913D2*
X3201430Y4876919D1*
X3206921Y4885878D1*
X3213745Y4893869D1*
X3221736Y4900693D1*
X3230696Y4906182D1*
X3240403Y4910205D1*
X3250621Y4912657D1*
X3261096Y4913482D1*
X3268778Y4912988D1*
X3270407Y4919949D1*
X3273890Y4927012D1*
X3275664Y4929467D1*
X3265689Y4931037D1*
X3184684D1*
X3184699Y4879566D1*
X3197336Y4866900D1*
X2442387Y4492609D2*
X2454979Y4491655D1*
X2466957Y4488780D1*
X2478337Y4484066D1*
X2488841Y4477630D1*
X2498207Y4469630D1*
X2499106Y4468657D1*
X2503419Y4473799D1*
X2618772Y4589154D1*
X2607030Y4590902D1*
X2597180Y4594101D1*
X2587953Y4598803D1*
X2579573Y4604891D1*
X2572251Y4612214D1*
X2566163Y4620593D1*
X2561462Y4629820D1*
X2558261Y4639671D1*
X2556640Y4649899D1*
Y4660256D1*
X2557870Y4668520D1*
X2442451Y4492654D1*
X2766539Y3275497D2*
X2764986Y3265555D1*
X2761929Y3256150D1*
X2757440Y3247337D1*
X2751626Y3239336D1*
X2744633Y3232343D1*
X2743676Y3231588D1*
X2743572Y3089696D1*
X2742591Y3083496D1*
X2740651Y3077528D1*
X2737802Y3071936D1*
X2734113Y3066858D1*
X2678948Y3011518D1*
X2670350Y3002921D1*
X2739067Y3002969D1*
X2735545Y3009898D1*
X2732950Y3017882D1*
X2731638Y3026173D1*
Y3034570D1*
X2732950Y3042861D1*
X2735545Y3050845D1*
X2739356Y3058325D1*
X2744291Y3065117D1*
X2750227Y3071052D1*
X2757018Y3075988D1*
X2764499Y3079799D1*
X2772483Y3082394D1*
X2780774Y3083706D1*
X2789171D1*
X2797462Y3082394D1*
X2799594Y3081791D1*
X2799579Y3214594D1*
X2773546Y3214583D1*
Y3268538D1*
X3077067Y6228101D2*
X3082312Y6224698D1*
X3090188Y6217972D1*
X3093197Y6214717D1*
X3100661Y6213601D1*
X3107154Y6211492D1*
X3113235Y6208392D1*
X3118757Y6204381D1*
X3123584Y6199554D1*
X3140470Y6175885D1*
X3149656Y6162825D1*
X3149713Y6227730D1*
X3077203Y6228080D1*
X1179958Y2958273D2*
X1188248Y2954003D1*
X1196627Y2947915D1*
X1203950Y2940592D1*
X1210038Y2932214D1*
X1214740Y2922986D1*
X1217940Y2913136D1*
X1219560Y2902907D1*
Y2892550D1*
X1217940Y2882322D1*
X1214740Y2872471D1*
X1210038Y2863244D1*
X1203950Y2854865D1*
X1196627Y2847542D1*
X1188248Y2841454D1*
X1179021Y2836752D1*
X1176343Y2835765D1*
X1190151Y2832702D1*
X1834589Y3213096D1*
X1840937Y3215604D1*
X1847600Y3217089D1*
X1853699Y3217518D1*
X2077675D1*
X2077818Y3270789D1*
X2078764Y3276756D1*
X2080630Y3282501D1*
X2083373Y3287885D1*
X2086924Y3292772D1*
X2091196Y3297043D1*
X2137572Y3330348D1*
X2142749Y3333462D1*
X2148349Y3335728D1*
X2154315Y3337091D1*
X2156617Y3345833D1*
Y3352203D1*
X2240197D1*
X2240318Y3370790D1*
X2241262Y3376757D1*
X2243130Y3382503D1*
X2245873Y3387886D1*
X2249424Y3392773D1*
X2270521Y3414037D1*
X2275114Y3417961D1*
X2280265Y3421118D1*
X2285846Y3423429D1*
X2291722Y3424840D1*
X2297744Y3425314D1*
X2317031D1*
X2317001Y3449841D1*
X2381308D1*
X2397445Y3465794D1*
X2402332Y3469345D1*
X2407715Y3472088D1*
X2413461Y3473955D1*
X2419428Y3474900D1*
X2442615Y3475018D1*
X2319286Y3598543D1*
X2315597Y3603621D1*
X2312748Y3609213D1*
X2310808Y3615181D1*
X2309827Y3621381D1*
X2309703Y3687018D1*
X2309441Y3904247D1*
X2283825Y3860060D1*
X2278634Y3854139D1*
X2272202Y3849594D1*
X2267017Y3847337D1*
X2265534Y3844224D1*
X2266050Y3836367D1*
X2264717Y3828605D1*
X2261608Y3821370D1*
X2228707Y3764593D1*
X2223516Y3758672D1*
X2217084Y3754127D1*
X2209770Y3751209D1*
X2201976Y3750079D1*
X2194134Y3750799D1*
X2186677Y3753331D1*
X2131449Y3785097D1*
X2107109Y3785060D1*
X2108913Y3775358D1*
X2109497Y3764584D1*
X2108669Y3753827D1*
X2106445Y3743269D1*
X2102861Y3733092D1*
X2097980Y3723471D1*
X2091885Y3714568D1*
X2084678Y3706538D1*
X2076487Y3699516D1*
X2067449Y3693623D1*
X2057719Y3688962D1*
X2047463Y3685610D1*
X2036858Y3683625D1*
X2034462Y3683415D1*
X2018378Y3655747D1*
X2013185Y3649827D1*
X2006755Y3645281D1*
X1999440Y3642364D1*
X1991646Y3641234D1*
X1983804Y3641954D1*
X1980875Y3642730D1*
X1978240Y3634832D1*
X1974429Y3627352D1*
X1969493Y3620560D1*
X1963558Y3614625D1*
X1956766Y3609689D1*
X1949286Y3605878D1*
X1941302Y3603283D1*
X1933010Y3601971D1*
X1924614D1*
X1916323Y3603283D1*
X1908339Y3605878D1*
X1900858Y3609689D1*
X1894067Y3614625D1*
X1888131Y3620560D1*
X1883196Y3627352D1*
X1879385Y3634832D1*
X1876790Y3642816D1*
X1875478Y3651108D1*
Y3659504D1*
X1876790Y3667795D1*
X1879385Y3675780D1*
X1883196Y3683260D1*
X1888131Y3690051D1*
X1894067Y3695987D1*
X1898990Y3699673D1*
X1897786Y3705669D1*
X1897685Y3711323D1*
X1895419Y3713467D1*
X1897613Y3708294D1*
X1897648Y3710924D1*
X1895446Y3713465D1*
X1758182Y3473564D1*
X1755287Y3470934D1*
X1754272Y3470341D1*
X1759394Y3475377D1*
X1756999Y3472283D1*
X1754638Y3470535D1*
X1713172Y3446843D1*
X1701154Y3438818D1*
X1611728Y3387037D1*
X1002171Y3035108D1*
X1048890Y2958269D1*
X1048394Y2965920D1*
X1049206Y2976244D1*
X1051623Y2986315D1*
X1055587Y2995883D1*
X1060999Y3004714D1*
X1067724Y3012588D1*
X1075600Y3019315D1*
X1084430Y3024726D1*
X1093999Y3028689D1*
X1104068Y3031106D1*
X1114394Y3031920D1*
X1124718Y3031106D1*
X1134789Y3028689D1*
X1144357Y3024726D1*
X1153188Y3019315D1*
X1161063Y3012588D1*
X1167789Y3004714D1*
X1173199Y2995883D1*
X1177163Y2986315D1*
X1179581Y2976244D1*
X1180394Y2965920D1*
X1179907Y2958349D1*
X4853596Y3017000D2*
X4860147Y3021646D1*
X4869374Y3026348D1*
X4879224Y3029547D1*
X4889453Y3031168D1*
X4899810D1*
X4910039Y3029547D1*
X4919888Y3026348D1*
X4929117Y3021646D1*
X4937495Y3015558D1*
X4944819Y3008235D1*
X4950906Y2999857D1*
X4955608Y2990629D1*
X4958808Y2980778D1*
X4959827Y2975635D1*
X4975089Y3003944D1*
X4853165Y3071933D1*
X4853199Y3018013D1*
X4884986Y2838264D2*
X4875656Y2834411D1*
X4865587Y2831993D1*
X4855261Y2831181D1*
X4844937Y2831993D1*
X4834866Y2834411D1*
X4825298Y2838374D1*
X4816467Y2843785D1*
X4808593Y2850512D1*
X4805261Y2853680D1*
X4724159D1*
X4852381Y2778340D1*
X4884954Y2838251D1*
X2142054Y3890003D2*
X2145189Y3894635D1*
X2150829Y3900131D1*
X2157598Y3904157D1*
X2160404Y3905244D1*
X2161907Y3908364D1*
X2161391Y3916220D1*
X2162724Y3923983D1*
X2165833Y3931218D1*
X2168299Y3935488D1*
X2111325Y3992463D1*
X2105135Y3992450D1*
X2098043Y3980966D1*
X2088514Y3969810D1*
X2077358Y3960281D1*
X2064848Y3952614D1*
X2051294Y3947000D1*
X2037026Y3943575D1*
X2022400Y3942424D1*
X2007774Y3943575D1*
X1993507Y3947000D1*
X1979953Y3952614D1*
X1967442Y3960281D1*
X1967199Y3948018D1*
Y3886934D1*
X1977458Y3866563D1*
X1981437Y3867277D1*
X1976829Y3867913D1*
X1977266Y3867035D1*
X1983854Y3867539D1*
X2001919Y3898623D1*
X2007112Y3904543D1*
X2013542Y3909088D1*
X2020857Y3912007D1*
X2028651Y3913136D1*
X2036492Y3912416D1*
X2043949Y3909885D1*
X2105945Y3874211D1*
X2105644Y3874369D1*
X2108474Y3872580D1*
X2115388Y3872060D1*
X2131688Y3872075D1*
X2143615Y3892528D1*
X2148807Y3898449D1*
X2155239Y3902993D1*
X2160041Y3905131D1*
X3615462Y4644320D2*
X3602192Y4636762D1*
X3594735Y4634231D1*
X3586894Y4633510D1*
X3579100Y4634640D1*
X3571785Y4637559D1*
X3565354Y4642104D1*
X3560161Y4648025D1*
X3555753Y4655480D1*
X3373050Y4642316D2*
X3366572Y4644614D1*
X3356295Y4649850D1*
X3346965Y4656630D1*
X3338810Y4664785D1*
X3333745Y4671547D1*
X2857711Y4671522D1*
X2840720Y4654476D1*
X3309837Y4654391D1*
X3316037Y4653409D1*
X3322005Y4651470D1*
X3327597Y4648621D1*
X3332675Y4644932D1*
X3374928Y4602853D1*
X3372104Y4614419D1*
X3371199Y4625916D1*
X3372104Y4637415D1*
X3373067Y4642257D1*
X3798890Y4155873D2*
X3804161Y4149504D1*
X3810188Y4139669D1*
X3814601Y4129014D1*
X3817294Y4117799D1*
X3818101Y4108802D1*
X3823932Y4112352D1*
X3855934Y4125332D1*
X3845840Y4128563D1*
X3837031Y4133051D1*
X3829034Y4138862D1*
X3822043Y4145853D1*
X3816232Y4153850D1*
X3811744Y4162659D1*
X3808689Y4172060D1*
X3808127Y4174885D1*
X3802123Y4168264D1*
X3798919Y4155929D1*
X3867972Y4013932D2*
X3866331Y4003358D1*
X3878067Y3998585D1*
X3887902Y3992559D1*
X3896672Y3985068D1*
X3904161Y3976298D1*
X3906303Y3973093D1*
X3912000Y3972634D1*
X3918112Y3971202D1*
X3923923Y3968832D1*
X3929293Y3965583D1*
X3934087Y3961533D1*
X3938423Y3956451D1*
X3944538Y3956378D1*
X3952219Y3954640D1*
X3957049Y3952487D1*
X3959597Y3957416D1*
X3991213Y4000499D1*
X3998839Y4010831D1*
X3992261Y4012382D1*
X3991888Y4012530D1*
X3992261Y4012382D1*
X3989497Y4010971D1*
X3981980Y4004550D1*
X3973551Y3999385D1*
X3964419Y3995602D1*
X3954806Y3993294D1*
X3944950Y3992518D1*
X3935094Y3993294D1*
X3925482Y3995602D1*
X3916349Y3999385D1*
X3907920Y4004550D1*
X3900403Y4010971D1*
X3893982Y4018488D1*
X3888816Y4026917D1*
X3885034Y4036050D1*
X3882726Y4045663D1*
X3882247Y4049711D1*
X3865993Y4043173D1*
X3866168Y4036857D1*
X3867972Y4025466D1*
Y4013932D1*
X3239528Y4069117D2*
X3247840Y4015798D1*
Y4009129D1*
X3237572Y3943463D1*
X3236016Y3936979D1*
X3233463Y3930818D1*
X3203173Y3871659D1*
X3199253Y3866264D1*
X3152350Y3819175D1*
X3147278Y3814844D1*
X3141593Y3811358D1*
X3082315Y3781302D1*
X3075972Y3779241D1*
X3010348Y3768715D1*
X3003699Y3768192D1*
X2997051Y3768715D1*
X2931428Y3779241D1*
X2925084Y3781302D1*
X2865807Y3811358D1*
X2860121Y3814844D1*
X2855049Y3819175D1*
X2808146Y3866264D1*
X2804226Y3871659D1*
X2773936Y3930818D1*
X2771383Y3936979D1*
X2769827Y3943465D1*
X2759559Y4009129D1*
Y4015798D1*
X2769827Y4081462D1*
X2771383Y4087948D1*
X2773936Y4094109D1*
X2804226Y4153268D1*
X2808146Y4158663D1*
X2855049Y4205752D1*
X2860121Y4210083D1*
X2865807Y4213568D1*
X2925084Y4243625D1*
X2931427Y4245685D1*
X2997051Y4256211D1*
X3003699Y4256735D1*
X3010348Y4256211D1*
X3075972Y4245685D1*
X3082315Y4243625D1*
X3141592Y4213568D1*
X3147278Y4210083D1*
X3152350Y4205752D1*
X3199253Y4158663D1*
X3203173Y4153268D1*
X3233463Y4094109D1*
X3236016Y4087948D1*
X3237572Y4081463D1*
X3247840Y4015798D1*
Y4009129D1*
X3247385Y4005495D1*
X3247448Y4005815D1*
X3184699Y5319993D2*
Y5018041D1*
X3351991Y5018037D1*
X3184669Y5320043D1*
D24*
X3808699Y4513518D3*
X3848070Y4445327D3*
D25*
X2978699Y3124018D3*
X3045629D3*
D26*
X3341164Y3084118D3*
Y3151047D3*
D25*
X2978699Y3205269D3*
X3045629D3*
X3553699Y3355268D3*
X3486770D3*
D27*
X3397450Y3234018D3*
X3472253D3*
D25*
X3232450D3*
X3299379D3*
D26*
X3603699Y3174018D3*
Y3240948D3*
D98*
X2372449Y4161518D3*
X2321362Y4060533D3*
D101*
X3850726Y4429012D3*
X3788814Y4523748D3*
D28*
X3020644Y3367962D3*
X3133644Y3374211D3*
D104*
X2166287Y4586458D3*
D31*
X2216287Y4673060D3*
D104*
X2059950Y4399018D3*
D31*
X2109950Y4485621D3*
D107*
X3347698Y4896517D3*
D31*
X3261096Y4846517D3*
D16*
X2392699Y4327518D3*
X2442699Y4414121D3*
D32*
X2703699Y3380269D3*
D33*
Y3280269D3*
X2603699Y3380269D3*
Y3280269D3*
X2503699Y3380269D3*
Y3280269D3*
D23*
X2091301Y4155262D3*
X2022400Y4035924D3*
D24*
X2468059Y4835769D3*
X2428689Y4767577D3*
X2661808Y4723269D3*
X2622438Y4655077D3*
X2964778Y6171303D3*
X3043518D3*
X1153764Y2897728D3*
X1114394Y2965920D3*
X4894631Y2965371D3*
X4855261Y2897180D3*
D25*
X3641199Y3324018D3*
X3708129D3*
X3047449Y3049018D3*
X2980520D3*
D110*
X2241280Y3924028D3*
X2186161Y3828560D3*
D26*
X2466199Y3099018D3*
Y3165948D3*
D113*
X3541199Y4799018D3*
X3605982Y4836420D3*
X3659950Y4742768D3*
X3595168Y4705366D3*
D25*
X3772449Y3242768D3*
X3705520D3*
X3372411Y3336589D3*
X3305482D3*
X2828699Y3267768D3*
X2895629D3*
X2880711Y3365495D3*
X2813782D3*
X3387699Y3400518D3*
X3320770D3*
D35*
X3147450Y3132769D3*
Y3095367D3*
Y3057966D3*
X3253749D3*
Y3132769D3*
X3516146Y3084119D3*
Y3121521D3*
Y3158923D3*
X3409846D3*
Y3084119D3*
D116*
X1975699Y3717518D3*
X2044597Y3836851D3*
D25*
X2211770Y3299018D3*
X2278699D3*
D36*
X2384950Y3249018D3*
Y3386814D3*
D25*
X2278699Y3236518D3*
X2211770D3*
D37*
X2872449Y3030268D3*
Y3080268D3*
Y3130268D3*
Y3180268D3*
X2581110D3*
Y3130268D3*
Y3080268D3*
Y3030268D3*
D119*
X3934852Y3886531D3*
X3876888Y3853067D3*
D38*
X3394699Y4712518D3*
X3444699Y4625916D3*
X3494699Y4539314D3*
X3544699Y4452711D3*
X3594699Y4366109D3*
X3644699Y4279507D3*
X3694699Y4192904D3*
X3744699Y4106302D3*
X3794699Y4019698D3*
X3844699Y3933096D3*
D122*
X3976199Y4130518D3*
X4009664Y4072555D3*
X3901199Y4255518D3*
X3934664Y4197555D3*
D38*
X2171199Y4343518D3*
X2221416Y4429995D3*
X2271416Y4516598D3*
X2321416Y4603201D3*
D39*
X3003699Y6392518D3*
X5065699Y2821518D3*
X942699D3*
D38*
X703699Y6311518D3*
X4503699Y2511518D3*
D40*
X862699Y6557518D3*
X913199Y6558018D3*
X963199D3*
X1012699D3*
X1063199Y6557018D3*
X2112699Y6557518D3*
X2163699D3*
X2213199D3*
X2263199Y6558018D3*
X2312699D3*
X2903699D3*
X2953699D3*
X3003699D3*
X3053699D3*
X3103699D3*
X3694199Y6557518D3*
X3744199Y6558018D3*
X3795199D3*
X3844699D3*
X3895199Y6557518D3*
X4944699D3*
X4994699D3*
X5044699D3*
X5094699Y6558518D3*
X5145699Y6557518D3*
X5464699Y3184018D3*
X5439699Y3140518D3*
X5364699Y3010518D3*
X5389699Y3054018D3*
X5414699Y3097518D3*
X5258199Y2826518D3*
X5233199Y2783018D3*
X5158199Y2653018D3*
X5183199Y2696518D3*
X5208199Y2740018D3*
X5026199Y2425018D3*
X5001199Y2381518D3*
X4926199Y2251518D3*
X4951199Y2295018D3*
X4976199Y2338518D3*
X5051199Y2469518D3*
X1080699Y2251518D3*
X1055699Y2295018D3*
X1030699Y2338518D3*
X955699Y2469018D3*
X981199Y2425018D3*
X1005699Y2381518D3*
X849199Y2653018D3*
X824199Y2696518D3*
X799199Y2740018D3*
X749199Y2826018D3*
X774199Y2783018D3*
X642699Y3010518D3*
X617699Y3054018D3*
X592699Y3097518D3*
X543199Y3184018D3*
X567699Y3140518D3*
X3158699Y2912518D3*
X3208699D3*
X3258699D3*
X3308699D3*
X3358699D3*
X2648699Y2912018D3*
X2698699Y2912518D3*
X2748699D3*
X2798699D3*
X2848699D3*
X3778699Y4870018D3*
X3803699Y4826518D3*
X3828699Y4783518D3*
X3853699Y4740018D3*
X3879199Y4696518D3*
X4033699Y4428018D3*
X4058699Y4385018D3*
X4083699Y4341518D3*
X4108699Y4298018D3*
X4133699Y4254518D3*
X2228699Y4870018D3*
X2203199Y4826518D3*
X2178699Y4783518D3*
X2153699Y4740018D3*
X2128699Y4696518D3*
X1973699Y4428018D3*
X1948699Y4384518D3*
X1923699Y4341518D3*
X1898699Y4298518D3*
X1873699Y4255018D3*
M02*
