G04 This is an RS-274x file exported by *
G04 gerbv version 2.6A *
G04 More information is available about gerbv at *
G04 http://gerbv.geda-project.org/ *
G04 --End of header info--*
%MOIN*%
%FSLAX34Y34*%
%IPPOS*%
G04 --Define apertures--*
%ADD10C,0.0100*%
%ADD11C,0.0154*%
%ADD12C,0.0046*%
%ADD13C,0.0124*%
%ADD14C,0.0062*%
%ADD15C,0.0093*%
G04 --Start main section--*
G54D10*
G01X0037853Y0043187D02*
G01X0036677Y0045224D01*
G01X0036677Y0045224D02*
G01X0038374Y0046204D01*
G01X0038374Y0046204D02*
G01X0039550Y0044167D01*
G01X0039550Y0044167D02*
G01X0037853Y0043187D01*
G01X0033561Y0032084D02*
G01X0033561Y0032596D01*
G01X0024372Y0041738D02*
G01X0023373Y0040006D01*
G01X0023373Y0040006D02*
G01X0022506Y0040506D01*
G01X0022506Y0040506D02*
G01X0023507Y0042238D01*
G01X0023507Y0042238D02*
G01X0024372Y0041738D01*
G01X0024498Y0041954D02*
G01X0023631Y0042454D01*
G01X0038289Y0043668D02*
G01X0037289Y0045400D01*
G01X0037289Y0045400D02*
G01X0038155Y0045900D01*
G01X0038155Y0045900D02*
G01X0039155Y0044168D01*
G01X0039155Y0044168D02*
G01X0038289Y0043668D01*
G01X0038414Y0043451D02*
G01X0039280Y0043951D01*
G01X0029776Y0034180D02*
G01X0031776Y0034180D01*
G01X0031776Y0034180D02*
G01X0031776Y0033180D01*
G01X0031776Y0033180D02*
G01X0029776Y0033180D01*
G01X0029776Y0033180D02*
G01X0029776Y0034180D01*
G01X0029526Y0034180D02*
G01X0029526Y0033180D01*
G01X0020980Y0045682D02*
G01X0021980Y0047414D01*
G01X0021980Y0047414D02*
G01X0022846Y0046914D01*
G01X0022846Y0046914D02*
G01X0021846Y0045181D01*
G01X0021846Y0045181D02*
G01X0020980Y0045682D01*
G01X0019916Y0043807D02*
G01X0020916Y0045539D01*
G01X0020916Y0045539D02*
G01X0021783Y0045039D01*
G01X0021783Y0045039D02*
G01X0020782Y0043307D01*
G01X0020782Y0043307D02*
G01X0019916Y0043807D01*
G01X0026454Y0034303D02*
G01X0024537Y0034303D01*
G01X0027537Y0034303D02*
G01X0024537Y0034303D01*
G01X0027537Y0032303D02*
G01X0024537Y0032303D01*
G01X0027537Y0034303D02*
G01X0027537Y0032303D01*
G01X0024537Y0034303D02*
G01X0024537Y0032303D01*
G01X0018385Y0040624D02*
G01X0019764Y0043012D01*
G01X0019764Y0043012D02*
G01X0022751Y0041287D01*
G01X0022751Y0041287D02*
G01X0021372Y0038898D01*
G01X0021372Y0038898D02*
G01X0018385Y0040624D01*
G01X0020775Y0039841D02*
G75*
G02X0020775Y0039841I0000345J0000000D01*
G01X0021465Y0041036D02*
G75*
G02X0021465Y0041036I0000345J0000000D01*
G01X0018557Y0040922D02*
G01X0019454Y0040405D01*
G01X0018902Y0041520D02*
G01X0019799Y0041002D01*
G01X0019247Y0042117D02*
G01X0020144Y0041600D01*
G01X0019592Y0042715D02*
G01X0020489Y0042197D01*
G01X0022877Y0047587D02*
G01X0024053Y0049624D01*
G01X0024053Y0049624D02*
G01X0025750Y0048644D01*
G01X0025750Y0048644D02*
G01X0024574Y0046607D01*
G01X0024574Y0046607D02*
G01X0022877Y0047587D01*
G01X0024814Y0046462D02*
G01X0025990Y0048499D01*
G01X0025990Y0048499D02*
G01X0027687Y0047519D01*
G01X0027687Y0047519D02*
G01X0026511Y0045482D01*
G01X0026511Y0045482D02*
G01X0024814Y0046462D01*
G01X0031217Y0060536D02*
G01X0028865Y0060536D01*
G01X0028865Y0060536D02*
G01X0028865Y0062496D01*
G01X0028865Y0062496D02*
G01X0031217Y0062496D01*
G01X0031217Y0062496D02*
G01X0031217Y0060536D01*
G01X0011772Y0030925D02*
G01X0012948Y0028888D01*
G01X0012948Y0028888D02*
G01X0011251Y0027908D01*
G01X0011251Y0027908D02*
G01X0010075Y0029945D01*
G01X0010075Y0029945D02*
G01X0011772Y0030925D01*
G01X0047142Y0028883D02*
G01X0048318Y0030920D01*
G01X0048318Y0030920D02*
G01X0050016Y0029940D01*
G01X0050016Y0029940D02*
G01X0048840Y0027903D01*
G01X0048840Y0027903D02*
G01X0047142Y0028883D01*
G01X0021924Y0039022D02*
G01X0021806Y0038818D01*
G01X0022469Y0038708D02*
G01X0022351Y0038504D01*
G54D11*
G01X0031308Y0031597D03*
G54D10*
G01X0031849Y0031544D02*
G01X0031849Y0030363D01*
G01X0032164Y0031544D02*
G01X0032164Y0030363D01*
G01X0031849Y0030363D02*
G01X0032164Y0030363D01*
G01X0031849Y0031544D02*
G01X0032164Y0031544D01*
G54D11*
G01X0035328Y0030572D03*
G54D10*
G01X0034787Y0030625D02*
G01X0034787Y0031806D01*
G01X0034472Y0030625D02*
G01X0034472Y0031806D01*
G01X0034787Y0031806D02*
G01X0034472Y0031806D01*
G01X0034787Y0030625D02*
G01X0034472Y0030625D01*
G01X0020926Y0038648D02*
G01X0020448Y0038924D01*
G01X0020483Y0037802D02*
G01X0020266Y0037427D01*
G01X0019937Y0038117D02*
G01X0019721Y0037742D01*
G01X0024125Y0034350D02*
G01X0023574Y0034350D01*
G01X0024164Y0033396D02*
G01X0024164Y0032963D01*
G01X0023535Y0033396D02*
G01X0023535Y0032963D01*
G01X0028134Y0030029D02*
G01X0028134Y0032076D01*
G01X0026402Y0030029D02*
G01X0026402Y0032076D01*
G01X0028134Y0032076D02*
G01X0026402Y0032076D01*
G01X0028134Y0030029D02*
G01X0027544Y0030029D01*
G01X0026992Y0030029D02*
G01X0026402Y0030029D01*
G01X0027544Y0030029D02*
G75*
G03X0026992Y0030029I-000276J0000000D01*
G54D12*
G01X0037848Y0046486D02*
G01X0037978Y0046486D01*
G01X0037978Y0046486D02*
G01X0038020Y0046500D01*
G01X0038020Y0046500D02*
G01X0038035Y0046515D01*
G01X0038035Y0046515D02*
G01X0038049Y0046543D01*
G01X0038049Y0046543D02*
G01X0038049Y0046586D01*
G01X0038049Y0046586D02*
G01X0038035Y0046615D01*
G01X0038035Y0046615D02*
G01X0038020Y0046629D01*
G01X0038020Y0046629D02*
G01X0037978Y0046644D01*
G01X0037978Y0046644D02*
G01X0037848Y0046644D01*
G01X0037848Y0046644D02*
G01X0037848Y0046342D01*
G01X0038142Y0046586D02*
G01X0038171Y0046601D01*
G01X0038171Y0046601D02*
G01X0038214Y0046643D01*
G01X0038214Y0046643D02*
G01X0038214Y0046342D01*
G01X0038306Y0046586D02*
G01X0038335Y0046601D01*
G01X0038335Y0046601D02*
G01X0038378Y0046643D01*
G01X0038378Y0046643D02*
G01X0038378Y0046342D01*
G01X0030822Y0031715D02*
G01X0030808Y0031743D01*
G01X0030808Y0031743D02*
G01X0030779Y0031772D01*
G01X0030779Y0031772D02*
G01X0030751Y0031786D01*
G01X0030751Y0031786D02*
G01X0030693Y0031786D01*
G01X0030693Y0031786D02*
G01X0030665Y0031772D01*
G01X0030665Y0031772D02*
G01X0030636Y0031743D01*
G01X0030636Y0031743D02*
G01X0030621Y0031715D01*
G01X0030621Y0031715D02*
G01X0030607Y0031672D01*
G01X0030607Y0031672D02*
G01X0030607Y0031600D01*
G01X0030607Y0031600D02*
G01X0030621Y0031557D01*
G01X0030621Y0031557D02*
G01X0030636Y0031528D01*
G01X0030636Y0031528D02*
G01X0030665Y0031500D01*
G01X0030665Y0031500D02*
G01X0030693Y0031485D01*
G01X0030693Y0031485D02*
G01X0030751Y0031485D01*
G01X0030751Y0031485D02*
G01X0030779Y0031500D01*
G01X0030779Y0031500D02*
G01X0030808Y0031528D01*
G01X0030808Y0031528D02*
G01X0030822Y0031557D01*
G01X0030930Y0031714D02*
G01X0030930Y0031729D01*
G01X0030930Y0031729D02*
G01X0030944Y0031758D01*
G01X0030944Y0031758D02*
G01X0030958Y0031772D01*
G01X0030958Y0031772D02*
G01X0030987Y0031786D01*
G01X0030987Y0031786D02*
G01X0031044Y0031786D01*
G01X0031044Y0031786D02*
G01X0031073Y0031772D01*
G01X0031073Y0031772D02*
G01X0031087Y0031758D01*
G01X0031087Y0031758D02*
G01X0031102Y0031729D01*
G01X0031102Y0031729D02*
G01X0031102Y0031700D01*
G01X0031102Y0031700D02*
G01X0031087Y0031671D01*
G01X0031087Y0031671D02*
G01X0031059Y0031629D01*
G01X0031059Y0031629D02*
G01X0030915Y0031485D01*
G01X0030915Y0031485D02*
G01X0031116Y0031485D01*
G01X0033345Y0030224D02*
G01X0033317Y0030210D01*
G01X0033317Y0030210D02*
G01X0033288Y0030181D01*
G01X0033288Y0030181D02*
G01X0033274Y0030152D01*
G01X0033274Y0030152D02*
G01X0033274Y0030095D01*
G01X0033274Y0030095D02*
G01X0033288Y0030066D01*
G01X0033288Y0030066D02*
G01X0033317Y0030038D01*
G01X0033317Y0030038D02*
G01X0033345Y0030023D01*
G01X0033345Y0030023D02*
G01X0033389Y0030009D01*
G01X0033389Y0030009D02*
G01X0033461Y0030009D01*
G01X0033461Y0030009D02*
G01X0033503Y0030023D01*
G01X0033503Y0030023D02*
G01X0033532Y0030038D01*
G01X0033532Y0030038D02*
G01X0033561Y0030066D01*
G01X0033561Y0030066D02*
G01X0033575Y0030095D01*
G01X0033575Y0030095D02*
G01X0033575Y0030152D01*
G01X0033575Y0030152D02*
G01X0033561Y0030181D01*
G01X0033561Y0030181D02*
G01X0033532Y0030210D01*
G01X0033532Y0030210D02*
G01X0033503Y0030224D01*
G01X0033274Y0030345D02*
G01X0033274Y0030503D01*
G01X0033274Y0030503D02*
G01X0033389Y0030417D01*
G01X0033389Y0030417D02*
G01X0033389Y0030460D01*
G01X0033389Y0030460D02*
G01X0033403Y0030489D01*
G01X0033403Y0030489D02*
G01X0033417Y0030503D01*
G01X0033417Y0030503D02*
G01X0033461Y0030518D01*
G01X0033461Y0030518D02*
G01X0033489Y0030518D01*
G01X0033489Y0030518D02*
G01X0033532Y0030503D01*
G01X0033532Y0030503D02*
G01X0033561Y0030474D01*
G01X0033561Y0030474D02*
G01X0033575Y0030431D01*
G01X0033575Y0030431D02*
G01X0033575Y0030388D01*
G01X0033575Y0030388D02*
G01X0033561Y0030345D01*
G01X0033561Y0030345D02*
G01X0033546Y0030331D01*
G01X0033546Y0030331D02*
G01X0033518Y0030317D01*
G01X0030075Y0032567D02*
G01X0030061Y0032596D01*
G01X0030061Y0032596D02*
G01X0030032Y0032625D01*
G01X0030032Y0032625D02*
G01X0030004Y0032639D01*
G01X0030004Y0032639D02*
G01X0029946Y0032639D01*
G01X0029946Y0032639D02*
G01X0029917Y0032625D01*
G01X0029917Y0032625D02*
G01X0029889Y0032596D01*
G01X0029889Y0032596D02*
G01X0029874Y0032567D01*
G01X0029874Y0032567D02*
G01X0029860Y0032524D01*
G01X0029860Y0032524D02*
G01X0029860Y0032452D01*
G01X0029860Y0032452D02*
G01X0029874Y0032409D01*
G01X0029874Y0032409D02*
G01X0029889Y0032381D01*
G01X0029889Y0032381D02*
G01X0029917Y0032352D01*
G01X0029917Y0032352D02*
G01X0029946Y0032337D01*
G01X0029946Y0032337D02*
G01X0030004Y0032337D01*
G01X0030004Y0032337D02*
G01X0030032Y0032352D01*
G01X0030032Y0032352D02*
G01X0030061Y0032381D01*
G01X0030061Y0032381D02*
G01X0030075Y0032409D01*
G01X0030312Y0032337D02*
G01X0030312Y0032639D01*
G01X0030312Y0032639D02*
G01X0030168Y0032438D01*
G01X0030168Y0032438D02*
G01X0030383Y0032438D01*
G01X0035422Y0033188D02*
G01X0035408Y0033217D01*
G01X0035408Y0033217D02*
G01X0035379Y0033246D01*
G01X0035379Y0033246D02*
G01X0035351Y0033260D01*
G01X0035351Y0033260D02*
G01X0035293Y0033260D01*
G01X0035293Y0033260D02*
G01X0035264Y0033246D01*
G01X0035264Y0033246D02*
G01X0035236Y0033217D01*
G01X0035236Y0033217D02*
G01X0035221Y0033188D01*
G01X0035221Y0033188D02*
G01X0035207Y0033145D01*
G01X0035207Y0033145D02*
G01X0035207Y0033073D01*
G01X0035207Y0033073D02*
G01X0035221Y0033031D01*
G01X0035221Y0033031D02*
G01X0035236Y0033002D01*
G01X0035236Y0033002D02*
G01X0035264Y0032973D01*
G01X0035264Y0032973D02*
G01X0035293Y0032959D01*
G01X0035293Y0032959D02*
G01X0035351Y0032959D01*
G01X0035351Y0032959D02*
G01X0035379Y0032973D01*
G01X0035379Y0032973D02*
G01X0035408Y0033002D01*
G01X0035408Y0033002D02*
G01X0035422Y0033031D01*
G01X0035687Y0033260D02*
G01X0035544Y0033260D01*
G01X0035544Y0033260D02*
G01X0035529Y0033131D01*
G01X0035529Y0033131D02*
G01X0035544Y0033145D01*
G01X0035544Y0033145D02*
G01X0035587Y0033160D01*
G01X0035587Y0033160D02*
G01X0035630Y0033160D01*
G01X0035630Y0033160D02*
G01X0035673Y0033145D01*
G01X0035673Y0033145D02*
G01X0035702Y0033116D01*
G01X0035702Y0033116D02*
G01X0035716Y0033073D01*
G01X0035716Y0033073D02*
G01X0035716Y0033045D01*
G01X0035716Y0033045D02*
G01X0035702Y0033002D01*
G01X0035702Y0033002D02*
G01X0035673Y0032973D01*
G01X0035673Y0032973D02*
G01X0035630Y0032959D01*
G01X0035630Y0032959D02*
G01X0035587Y0032959D01*
G01X0035587Y0032959D02*
G01X0035544Y0032973D01*
G01X0035544Y0032973D02*
G01X0035529Y0032987D01*
G01X0035529Y0032987D02*
G01X0035515Y0033016D01*
G01X0034508Y0032963D02*
G01X0034494Y0032992D01*
G01X0034494Y0032992D02*
G01X0034465Y0033021D01*
G01X0034465Y0033021D02*
G01X0034436Y0033035D01*
G01X0034436Y0033035D02*
G01X0034379Y0033035D01*
G01X0034379Y0033035D02*
G01X0034350Y0033021D01*
G01X0034350Y0033021D02*
G01X0034321Y0032992D01*
G01X0034321Y0032992D02*
G01X0034307Y0032963D01*
G01X0034307Y0032963D02*
G01X0034293Y0032920D01*
G01X0034293Y0032920D02*
G01X0034293Y0032848D01*
G01X0034293Y0032848D02*
G01X0034307Y0032805D01*
G01X0034307Y0032805D02*
G01X0034321Y0032776D01*
G01X0034321Y0032776D02*
G01X0034350Y0032748D01*
G01X0034350Y0032748D02*
G01X0034379Y0032733D01*
G01X0034379Y0032733D02*
G01X0034436Y0032733D01*
G01X0034436Y0032733D02*
G01X0034465Y0032748D01*
G01X0034465Y0032748D02*
G01X0034494Y0032776D01*
G01X0034494Y0032776D02*
G01X0034508Y0032805D01*
G01X0034773Y0032992D02*
G01X0034758Y0033020D01*
G01X0034758Y0033020D02*
G01X0034715Y0033034D01*
G01X0034715Y0033034D02*
G01X0034687Y0033034D01*
G01X0034687Y0033034D02*
G01X0034644Y0033020D01*
G01X0034644Y0033020D02*
G01X0034615Y0032977D01*
G01X0034615Y0032977D02*
G01X0034600Y0032905D01*
G01X0034600Y0032905D02*
G01X0034600Y0032834D01*
G01X0034600Y0032834D02*
G01X0034615Y0032776D01*
G01X0034615Y0032776D02*
G01X0034644Y0032748D01*
G01X0034644Y0032748D02*
G01X0034687Y0032733D01*
G01X0034687Y0032733D02*
G01X0034701Y0032733D01*
G01X0034701Y0032733D02*
G01X0034744Y0032748D01*
G01X0034744Y0032748D02*
G01X0034773Y0032776D01*
G01X0034773Y0032776D02*
G01X0034787Y0032820D01*
G01X0034787Y0032820D02*
G01X0034787Y0032834D01*
G01X0034787Y0032834D02*
G01X0034773Y0032877D01*
G01X0034773Y0032877D02*
G01X0034744Y0032905D01*
G01X0034744Y0032905D02*
G01X0034701Y0032920D01*
G01X0034701Y0032920D02*
G01X0034687Y0032920D01*
G01X0034687Y0032920D02*
G01X0034644Y0032905D01*
G01X0034644Y0032905D02*
G01X0034615Y0032877D01*
G01X0034615Y0032877D02*
G01X0034600Y0032834D01*
G01X0032256Y0032878D02*
G01X0032241Y0032906D01*
G01X0032241Y0032906D02*
G01X0032213Y0032935D01*
G01X0032213Y0032935D02*
G01X0032184Y0032949D01*
G01X0032184Y0032949D02*
G01X0032127Y0032949D01*
G01X0032127Y0032949D02*
G01X0032098Y0032935D01*
G01X0032098Y0032935D02*
G01X0032069Y0032906D01*
G01X0032069Y0032906D02*
G01X0032055Y0032878D01*
G01X0032055Y0032878D02*
G01X0032040Y0032835D01*
G01X0032040Y0032835D02*
G01X0032040Y0032763D01*
G01X0032040Y0032763D02*
G01X0032055Y0032720D01*
G01X0032055Y0032720D02*
G01X0032069Y0032691D01*
G01X0032069Y0032691D02*
G01X0032098Y0032662D01*
G01X0032098Y0032662D02*
G01X0032127Y0032648D01*
G01X0032127Y0032648D02*
G01X0032184Y0032648D01*
G01X0032184Y0032648D02*
G01X0032213Y0032662D01*
G01X0032213Y0032662D02*
G01X0032241Y0032691D01*
G01X0032241Y0032691D02*
G01X0032256Y0032720D01*
G01X0032406Y0032648D02*
G01X0032549Y0032949D01*
G01X0032549Y0032949D02*
G01X0032348Y0032949D01*
G01X0035472Y0032036D02*
G01X0035444Y0032022D01*
G01X0035444Y0032022D02*
G01X0035415Y0031993D01*
G01X0035415Y0031993D02*
G01X0035401Y0031964D01*
G01X0035401Y0031964D02*
G01X0035401Y0031907D01*
G01X0035401Y0031907D02*
G01X0035415Y0031878D01*
G01X0035415Y0031878D02*
G01X0035444Y0031849D01*
G01X0035444Y0031849D02*
G01X0035472Y0031835D01*
G01X0035472Y0031835D02*
G01X0035516Y0031821D01*
G01X0035516Y0031821D02*
G01X0035588Y0031821D01*
G01X0035588Y0031821D02*
G01X0035630Y0031835D01*
G01X0035630Y0031835D02*
G01X0035659Y0031849D01*
G01X0035659Y0031849D02*
G01X0035688Y0031878D01*
G01X0035688Y0031878D02*
G01X0035702Y0031907D01*
G01X0035702Y0031907D02*
G01X0035702Y0031964D01*
G01X0035702Y0031964D02*
G01X0035688Y0031993D01*
G01X0035688Y0031993D02*
G01X0035659Y0032022D01*
G01X0035659Y0032022D02*
G01X0035630Y0032036D01*
G01X0035401Y0032200D02*
G01X0035415Y0032157D01*
G01X0035415Y0032157D02*
G01X0035444Y0032143D01*
G01X0035444Y0032143D02*
G01X0035473Y0032143D01*
G01X0035473Y0032143D02*
G01X0035501Y0032157D01*
G01X0035501Y0032157D02*
G01X0035516Y0032186D01*
G01X0035516Y0032186D02*
G01X0035530Y0032243D01*
G01X0035530Y0032243D02*
G01X0035544Y0032286D01*
G01X0035544Y0032286D02*
G01X0035573Y0032315D01*
G01X0035573Y0032315D02*
G01X0035602Y0032329D01*
G01X0035602Y0032329D02*
G01X0035645Y0032329D01*
G01X0035645Y0032329D02*
G01X0035673Y0032315D01*
G01X0035673Y0032315D02*
G01X0035688Y0032301D01*
G01X0035688Y0032301D02*
G01X0035702Y0032257D01*
G01X0035702Y0032257D02*
G01X0035702Y0032200D01*
G01X0035702Y0032200D02*
G01X0035688Y0032157D01*
G01X0035688Y0032157D02*
G01X0035673Y0032143D01*
G01X0035673Y0032143D02*
G01X0035645Y0032128D01*
G01X0035645Y0032128D02*
G01X0035602Y0032128D01*
G01X0035602Y0032128D02*
G01X0035573Y0032143D01*
G01X0035573Y0032143D02*
G01X0035544Y0032172D01*
G01X0035544Y0032172D02*
G01X0035530Y0032214D01*
G01X0035530Y0032214D02*
G01X0035516Y0032272D01*
G01X0035516Y0032272D02*
G01X0035501Y0032301D01*
G01X0035501Y0032301D02*
G01X0035473Y0032315D01*
G01X0035473Y0032315D02*
G01X0035444Y0032315D01*
G01X0035444Y0032315D02*
G01X0035415Y0032301D01*
G01X0035415Y0032301D02*
G01X0035401Y0032257D01*
G01X0035401Y0032257D02*
G01X0035401Y0032200D01*
G01X0022857Y0042246D02*
G01X0022857Y0041945D01*
G01X0022857Y0041945D02*
G01X0022958Y0041945D01*
G01X0022958Y0041945D02*
G01X0023001Y0041960D01*
G01X0023001Y0041960D02*
G01X0023030Y0041988D01*
G01X0023030Y0041988D02*
G01X0023044Y0042017D01*
G01X0023044Y0042017D02*
G01X0023058Y0042060D01*
G01X0023058Y0042060D02*
G01X0023058Y0042132D01*
G01X0023058Y0042132D02*
G01X0023044Y0042175D01*
G01X0023044Y0042175D02*
G01X0023030Y0042203D01*
G01X0023030Y0042203D02*
G01X0023001Y0042232D01*
G01X0023001Y0042232D02*
G01X0022958Y0042246D01*
G01X0022958Y0042246D02*
G01X0022857Y0042246D01*
G01X0023151Y0042189D02*
G01X0023180Y0042203D01*
G01X0023180Y0042203D02*
G01X0023223Y0042246D01*
G01X0023223Y0042246D02*
G01X0023223Y0041945D01*
G01X0037067Y0044353D02*
G01X0037067Y0044052D01*
G01X0037067Y0044052D02*
G01X0037168Y0044052D01*
G01X0037168Y0044052D02*
G01X0037211Y0044066D01*
G01X0037211Y0044066D02*
G01X0037240Y0044095D01*
G01X0037240Y0044095D02*
G01X0037254Y0044124D01*
G01X0037254Y0044124D02*
G01X0037268Y0044166D01*
G01X0037268Y0044166D02*
G01X0037268Y0044238D01*
G01X0037268Y0044238D02*
G01X0037254Y0044282D01*
G01X0037254Y0044282D02*
G01X0037240Y0044310D01*
G01X0037240Y0044310D02*
G01X0037211Y0044339D01*
G01X0037211Y0044339D02*
G01X0037168Y0044353D01*
G01X0037168Y0044353D02*
G01X0037067Y0044353D01*
G01X0037533Y0044310D02*
G01X0037519Y0044339D01*
G01X0037519Y0044339D02*
G01X0037475Y0044353D01*
G01X0037475Y0044353D02*
G01X0037447Y0044353D01*
G01X0037447Y0044353D02*
G01X0037404Y0044339D01*
G01X0037404Y0044339D02*
G01X0037375Y0044295D01*
G01X0037375Y0044295D02*
G01X0037361Y0044224D01*
G01X0037361Y0044224D02*
G01X0037361Y0044152D01*
G01X0037361Y0044152D02*
G01X0037375Y0044095D01*
G01X0037375Y0044095D02*
G01X0037404Y0044066D01*
G01X0037404Y0044066D02*
G01X0037447Y0044052D01*
G01X0037447Y0044052D02*
G01X0037461Y0044052D01*
G01X0037461Y0044052D02*
G01X0037504Y0044066D01*
G01X0037504Y0044066D02*
G01X0037533Y0044095D01*
G01X0037533Y0044095D02*
G01X0037547Y0044138D01*
G01X0037547Y0044138D02*
G01X0037547Y0044152D01*
G01X0037547Y0044152D02*
G01X0037533Y0044195D01*
G01X0037533Y0044195D02*
G01X0037504Y0044224D01*
G01X0037504Y0044224D02*
G01X0037461Y0044238D01*
G01X0037461Y0044238D02*
G01X0037447Y0044238D01*
G01X0037447Y0044238D02*
G01X0037404Y0044224D01*
G01X0037404Y0044224D02*
G01X0037375Y0044195D01*
G01X0037375Y0044195D02*
G01X0037361Y0044152D01*
G01X0030834Y0033019D02*
G01X0030834Y0032718D01*
G01X0030834Y0032718D02*
G01X0030935Y0032718D01*
G01X0030935Y0032718D02*
G01X0030978Y0032732D01*
G01X0030978Y0032732D02*
G01X0031007Y0032761D01*
G01X0031007Y0032761D02*
G01X0031021Y0032789D01*
G01X0031021Y0032789D02*
G01X0031035Y0032832D01*
G01X0031035Y0032832D02*
G01X0031035Y0032904D01*
G01X0031035Y0032904D02*
G01X0031021Y0032947D01*
G01X0031021Y0032947D02*
G01X0031007Y0032976D01*
G01X0031007Y0032976D02*
G01X0030978Y0033005D01*
G01X0030978Y0033005D02*
G01X0030935Y0033019D01*
G01X0030935Y0033019D02*
G01X0030834Y0033019D01*
G01X0031185Y0032718D02*
G01X0031329Y0033019D01*
G01X0031329Y0033019D02*
G01X0031128Y0033019D01*
G01X0023070Y0046985D02*
G01X0023070Y0046756D01*
G01X0023070Y0046756D02*
G01X0023055Y0046713D01*
G01X0023055Y0046713D02*
G01X0023041Y0046698D01*
G01X0023041Y0046698D02*
G01X0023012Y0046684D01*
G01X0023012Y0046684D02*
G01X0022983Y0046684D01*
G01X0022983Y0046684D02*
G01X0022955Y0046698D01*
G01X0022955Y0046698D02*
G01X0022941Y0046713D01*
G01X0022941Y0046713D02*
G01X0022926Y0046756D01*
G01X0022926Y0046756D02*
G01X0022926Y0046784D01*
G01X0023162Y0046927D02*
G01X0023191Y0046942D01*
G01X0023191Y0046942D02*
G01X0023234Y0046985D01*
G01X0023234Y0046985D02*
G01X0023234Y0046684D01*
G01X0020907Y0043161D02*
G01X0020907Y0042931D01*
G01X0020907Y0042931D02*
G01X0020893Y0042888D01*
G01X0020893Y0042888D02*
G01X0020878Y0042874D01*
G01X0020878Y0042874D02*
G01X0020850Y0042859D01*
G01X0020850Y0042859D02*
G01X0020821Y0042859D01*
G01X0020821Y0042859D02*
G01X0020792Y0042874D01*
G01X0020792Y0042874D02*
G01X0020778Y0042888D01*
G01X0020778Y0042888D02*
G01X0020764Y0042931D01*
G01X0020764Y0042931D02*
G01X0020764Y0042960D01*
G01X0021029Y0043160D02*
G01X0021186Y0043160D01*
G01X0021186Y0043160D02*
G01X0021100Y0043046D01*
G01X0021100Y0043046D02*
G01X0021143Y0043046D01*
G01X0021143Y0043046D02*
G01X0021172Y0043031D01*
G01X0021172Y0043031D02*
G01X0021186Y0043017D01*
G01X0021186Y0043017D02*
G01X0021201Y0042974D01*
G01X0021201Y0042974D02*
G01X0021201Y0042945D01*
G01X0021201Y0042945D02*
G01X0021186Y0042902D01*
G01X0021186Y0042902D02*
G01X0021158Y0042873D01*
G01X0021158Y0042873D02*
G01X0021115Y0042859D01*
G01X0021115Y0042859D02*
G01X0021071Y0042859D01*
G01X0021071Y0042859D02*
G01X0021029Y0042873D01*
G01X0021029Y0042873D02*
G01X0021014Y0042888D01*
G01X0021014Y0042888D02*
G01X0021000Y0042917D01*
G01X0025790Y0034584D02*
G01X0025919Y0034584D01*
G01X0025919Y0034584D02*
G01X0025962Y0034598D01*
G01X0025962Y0034598D02*
G01X0025976Y0034613D01*
G01X0025976Y0034613D02*
G01X0025991Y0034642D01*
G01X0025991Y0034642D02*
G01X0025991Y0034685D01*
G01X0025991Y0034685D02*
G01X0025976Y0034713D01*
G01X0025976Y0034713D02*
G01X0025962Y0034728D01*
G01X0025962Y0034728D02*
G01X0025919Y0034742D01*
G01X0025919Y0034742D02*
G01X0025790Y0034742D01*
G01X0025790Y0034742D02*
G01X0025790Y0034441D01*
G01X0026098Y0034670D02*
G01X0026098Y0034684D01*
G01X0026098Y0034684D02*
G01X0026112Y0034713D01*
G01X0026112Y0034713D02*
G01X0026126Y0034727D01*
G01X0026126Y0034727D02*
G01X0026155Y0034742D01*
G01X0026155Y0034742D02*
G01X0026213Y0034742D01*
G01X0026213Y0034742D02*
G01X0026241Y0034727D01*
G01X0026241Y0034727D02*
G01X0026255Y0034713D01*
G01X0026255Y0034713D02*
G01X0026270Y0034684D01*
G01X0026270Y0034684D02*
G01X0026270Y0034656D01*
G01X0026270Y0034656D02*
G01X0026255Y0034627D01*
G01X0026255Y0034627D02*
G01X0026227Y0034584D01*
G01X0026227Y0034584D02*
G01X0026083Y0034441D01*
G01X0026083Y0034441D02*
G01X0026284Y0034441D01*
G01X0019650Y0039247D02*
G01X0019780Y0039247D01*
G01X0019780Y0039247D02*
G01X0019822Y0039262D01*
G01X0019822Y0039262D02*
G01X0019837Y0039276D01*
G01X0019837Y0039276D02*
G01X0019851Y0039305D01*
G01X0019851Y0039305D02*
G01X0019851Y0039348D01*
G01X0019851Y0039348D02*
G01X0019837Y0039376D01*
G01X0019837Y0039376D02*
G01X0019822Y0039391D01*
G01X0019822Y0039391D02*
G01X0019780Y0039405D01*
G01X0019780Y0039405D02*
G01X0019650Y0039405D01*
G01X0019650Y0039405D02*
G01X0019650Y0039104D01*
G01X0019973Y0039405D02*
G01X0020130Y0039405D01*
G01X0020130Y0039405D02*
G01X0020044Y0039290D01*
G01X0020044Y0039290D02*
G01X0020087Y0039290D01*
G01X0020087Y0039290D02*
G01X0020116Y0039276D01*
G01X0020116Y0039276D02*
G01X0020130Y0039262D01*
G01X0020130Y0039262D02*
G01X0020145Y0039219D01*
G01X0020145Y0039219D02*
G01X0020145Y0039190D01*
G01X0020145Y0039190D02*
G01X0020130Y0039147D01*
G01X0020130Y0039147D02*
G01X0020102Y0039118D01*
G01X0020102Y0039118D02*
G01X0020059Y0039104D01*
G01X0020059Y0039104D02*
G01X0020016Y0039104D01*
G01X0020016Y0039104D02*
G01X0019973Y0039118D01*
G01X0019973Y0039118D02*
G01X0019958Y0039133D01*
G01X0019958Y0039133D02*
G01X0019944Y0039161D01*
G01X0025195Y0049355D02*
G01X0025195Y0049111D01*
G01X0025195Y0049111D02*
G01X0025209Y0049068D01*
G01X0025209Y0049068D02*
G01X0025238Y0049054D01*
G01X0025238Y0049054D02*
G01X0025266Y0049054D01*
G01X0025152Y0049254D02*
G01X0025252Y0049254D01*
G01X0025359Y0049355D02*
G01X0025359Y0049054D01*
G01X0025359Y0049197D02*
G01X0025402Y0049240D01*
G01X0025402Y0049240D02*
G01X0025431Y0049254D01*
G01X0025431Y0049254D02*
G01X0025474Y0049254D01*
G01X0025474Y0049254D02*
G01X0025503Y0049240D01*
G01X0025503Y0049240D02*
G01X0025517Y0049197D01*
G01X0025517Y0049197D02*
G01X0025517Y0049054D01*
G01X0025609Y0049168D02*
G01X0025782Y0049168D01*
G01X0025782Y0049168D02*
G01X0025782Y0049197D01*
G01X0025782Y0049197D02*
G01X0025767Y0049226D01*
G01X0025767Y0049226D02*
G01X0025753Y0049240D01*
G01X0025753Y0049240D02*
G01X0025724Y0049254D01*
G01X0025724Y0049254D02*
G01X0025681Y0049254D01*
G01X0025681Y0049254D02*
G01X0025652Y0049240D01*
G01X0025652Y0049240D02*
G01X0025624Y0049211D01*
G01X0025624Y0049211D02*
G01X0025609Y0049168D01*
G01X0025609Y0049168D02*
G01X0025609Y0049140D01*
G01X0025609Y0049140D02*
G01X0025624Y0049097D01*
G01X0025624Y0049097D02*
G01X0025652Y0049068D01*
G01X0025652Y0049068D02*
G01X0025681Y0049054D01*
G01X0025681Y0049054D02*
G01X0025724Y0049054D01*
G01X0025724Y0049054D02*
G01X0025753Y0049068D01*
G01X0025753Y0049068D02*
G01X0025782Y0049097D01*
G01X0025874Y0049254D02*
G01X0025874Y0049054D01*
G01X0025874Y0049168D02*
G01X0025889Y0049211D01*
G01X0025889Y0049211D02*
G01X0025917Y0049240D01*
G01X0025917Y0049240D02*
G01X0025946Y0049254D01*
G01X0025946Y0049254D02*
G01X0025989Y0049254D01*
G01X0026082Y0049254D02*
G01X0026082Y0049054D01*
G01X0026082Y0049197D02*
G01X0026125Y0049240D01*
G01X0026125Y0049240D02*
G01X0026154Y0049254D01*
G01X0026154Y0049254D02*
G01X0026197Y0049254D01*
G01X0026197Y0049254D02*
G01X0026225Y0049240D01*
G01X0026225Y0049240D02*
G01X0026240Y0049197D01*
G01X0026240Y0049197D02*
G01X0026240Y0049054D01*
G01X0026240Y0049197D02*
G01X0026283Y0049240D01*
G01X0026283Y0049240D02*
G01X0026312Y0049254D01*
G01X0026312Y0049254D02*
G01X0026354Y0049254D01*
G01X0026354Y0049254D02*
G01X0026383Y0049240D01*
G01X0026383Y0049240D02*
G01X0026398Y0049197D01*
G01X0026398Y0049197D02*
G01X0026398Y0049054D01*
G01X0026491Y0049355D02*
G01X0026505Y0049341D01*
G01X0026505Y0049341D02*
G01X0026519Y0049355D01*
G01X0026519Y0049355D02*
G01X0026505Y0049370D01*
G01X0026505Y0049370D02*
G01X0026491Y0049355D01*
G01X0026505Y0049254D02*
G01X0026505Y0049054D01*
G01X0026770Y0049211D02*
G01X0026756Y0049240D01*
G01X0026756Y0049240D02*
G01X0026712Y0049254D01*
G01X0026712Y0049254D02*
G01X0026669Y0049254D01*
G01X0026669Y0049254D02*
G01X0026626Y0049240D01*
G01X0026626Y0049240D02*
G01X0026612Y0049211D01*
G01X0026612Y0049211D02*
G01X0026626Y0049183D01*
G01X0026626Y0049183D02*
G01X0026655Y0049168D01*
G01X0026655Y0049168D02*
G01X0026727Y0049154D01*
G01X0026727Y0049154D02*
G01X0026756Y0049140D01*
G01X0026756Y0049140D02*
G01X0026770Y0049111D01*
G01X0026770Y0049111D02*
G01X0026770Y0049097D01*
G01X0026770Y0049097D02*
G01X0026756Y0049068D01*
G01X0026756Y0049068D02*
G01X0026712Y0049054D01*
G01X0026712Y0049054D02*
G01X0026669Y0049054D01*
G01X0026669Y0049054D02*
G01X0026626Y0049068D01*
G01X0026626Y0049068D02*
G01X0026612Y0049097D01*
G01X0026906Y0049355D02*
G01X0026906Y0049111D01*
G01X0026906Y0049111D02*
G01X0026920Y0049068D01*
G01X0026920Y0049068D02*
G01X0026949Y0049054D01*
G01X0026949Y0049054D02*
G01X0026977Y0049054D01*
G01X0026862Y0049254D02*
G01X0026963Y0049254D01*
G01X0027141Y0049254D02*
G01X0027113Y0049240D01*
G01X0027113Y0049240D02*
G01X0027084Y0049211D01*
G01X0027084Y0049211D02*
G01X0027070Y0049168D01*
G01X0027070Y0049168D02*
G01X0027070Y0049140D01*
G01X0027070Y0049140D02*
G01X0027084Y0049097D01*
G01X0027084Y0049097D02*
G01X0027113Y0049068D01*
G01X0027113Y0049068D02*
G01X0027141Y0049054D01*
G01X0027141Y0049054D02*
G01X0027185Y0049054D01*
G01X0027185Y0049054D02*
G01X0027213Y0049068D01*
G01X0027213Y0049068D02*
G01X0027242Y0049097D01*
G01X0027242Y0049097D02*
G01X0027257Y0049140D01*
G01X0027257Y0049140D02*
G01X0027257Y0049168D01*
G01X0027257Y0049168D02*
G01X0027242Y0049211D01*
G01X0027242Y0049211D02*
G01X0027213Y0049240D01*
G01X0027213Y0049240D02*
G01X0027185Y0049254D01*
G01X0027185Y0049254D02*
G01X0027141Y0049254D01*
G01X0027349Y0049254D02*
G01X0027349Y0049054D01*
G01X0027349Y0049168D02*
G01X0027364Y0049211D01*
G01X0027364Y0049211D02*
G01X0027392Y0049240D01*
G01X0027392Y0049240D02*
G01X0027421Y0049254D01*
G01X0027421Y0049254D02*
G01X0027464Y0049254D01*
G01X0026588Y0048686D02*
G01X0026588Y0048384D01*
G01X0026789Y0048686D02*
G01X0026789Y0048384D01*
G01X0026588Y0048542D02*
G01X0026789Y0048542D01*
G01X0026882Y0048499D02*
G01X0027054Y0048499D01*
G01X0027054Y0048499D02*
G01X0027054Y0048528D01*
G01X0027054Y0048528D02*
G01X0027040Y0048557D01*
G01X0027040Y0048557D02*
G01X0027025Y0048571D01*
G01X0027025Y0048571D02*
G01X0026997Y0048585D01*
G01X0026997Y0048585D02*
G01X0026953Y0048585D01*
G01X0026953Y0048585D02*
G01X0026925Y0048571D01*
G01X0026925Y0048571D02*
G01X0026896Y0048542D01*
G01X0026896Y0048542D02*
G01X0026882Y0048499D01*
G01X0026882Y0048499D02*
G01X0026882Y0048471D01*
G01X0026882Y0048471D02*
G01X0026896Y0048427D01*
G01X0026896Y0048427D02*
G01X0026925Y0048399D01*
G01X0026925Y0048399D02*
G01X0026953Y0048384D01*
G01X0026953Y0048384D02*
G01X0026997Y0048384D01*
G01X0026997Y0048384D02*
G01X0027025Y0048399D01*
G01X0027025Y0048399D02*
G01X0027054Y0048427D01*
G01X0027319Y0048585D02*
G01X0027319Y0048384D01*
G01X0027319Y0048542D02*
G01X0027290Y0048571D01*
G01X0027290Y0048571D02*
G01X0027261Y0048585D01*
G01X0027261Y0048585D02*
G01X0027219Y0048585D01*
G01X0027219Y0048585D02*
G01X0027190Y0048571D01*
G01X0027190Y0048571D02*
G01X0027161Y0048542D01*
G01X0027161Y0048542D02*
G01X0027147Y0048499D01*
G01X0027147Y0048499D02*
G01X0027147Y0048471D01*
G01X0027147Y0048471D02*
G01X0027161Y0048427D01*
G01X0027161Y0048427D02*
G01X0027190Y0048399D01*
G01X0027190Y0048399D02*
G01X0027219Y0048384D01*
G01X0027219Y0048384D02*
G01X0027261Y0048384D01*
G01X0027261Y0048384D02*
G01X0027290Y0048399D01*
G01X0027290Y0048399D02*
G01X0027319Y0048427D01*
G01X0027454Y0048686D02*
G01X0027454Y0048442D01*
G01X0027454Y0048442D02*
G01X0027469Y0048399D01*
G01X0027469Y0048399D02*
G01X0027498Y0048384D01*
G01X0027498Y0048384D02*
G01X0027526Y0048384D01*
G01X0027411Y0048585D02*
G01X0027512Y0048585D01*
G01X0027805Y0048686D02*
G01X0027619Y0048686D01*
G01X0027619Y0048686D02*
G01X0027619Y0048384D01*
G01X0027619Y0048542D02*
G01X0027733Y0048542D01*
G01X0028070Y0048585D02*
G01X0028070Y0048384D01*
G01X0028070Y0048542D02*
G01X0028042Y0048571D01*
G01X0028042Y0048571D02*
G01X0028013Y0048585D01*
G01X0028013Y0048585D02*
G01X0027970Y0048585D01*
G01X0027970Y0048585D02*
G01X0027941Y0048571D01*
G01X0027941Y0048571D02*
G01X0027913Y0048542D01*
G01X0027913Y0048542D02*
G01X0027898Y0048499D01*
G01X0027898Y0048499D02*
G01X0027898Y0048471D01*
G01X0027898Y0048471D02*
G01X0027913Y0048427D01*
G01X0027913Y0048427D02*
G01X0027941Y0048399D01*
G01X0027941Y0048399D02*
G01X0027970Y0048384D01*
G01X0027970Y0048384D02*
G01X0028013Y0048384D01*
G01X0028013Y0048384D02*
G01X0028042Y0048399D01*
G01X0028042Y0048399D02*
G01X0028070Y0048427D01*
G01X0028163Y0048585D02*
G01X0028163Y0048384D01*
G01X0028163Y0048528D02*
G01X0028206Y0048571D01*
G01X0028206Y0048571D02*
G01X0028235Y0048585D01*
G01X0028235Y0048585D02*
G01X0028277Y0048585D01*
G01X0028277Y0048585D02*
G01X0028306Y0048571D01*
G01X0028306Y0048571D02*
G01X0028321Y0048528D01*
G01X0028321Y0048528D02*
G01X0028321Y0048384D01*
G01X0029031Y0060257D02*
G01X0029161Y0060257D01*
G01X0029161Y0060257D02*
G01X0029204Y0060271D01*
G01X0029204Y0060271D02*
G01X0029218Y0060285D01*
G01X0029218Y0060285D02*
G01X0029232Y0060314D01*
G01X0029232Y0060314D02*
G01X0029232Y0060357D01*
G01X0029232Y0060357D02*
G01X0029218Y0060386D01*
G01X0029218Y0060386D02*
G01X0029204Y0060400D01*
G01X0029204Y0060400D02*
G01X0029161Y0060414D01*
G01X0029161Y0060414D02*
G01X0029031Y0060414D01*
G01X0029031Y0060414D02*
G01X0029031Y0060113D01*
G01X0029497Y0060314D02*
G01X0029497Y0060113D01*
G01X0029497Y0060271D02*
G01X0029469Y0060300D01*
G01X0029469Y0060300D02*
G01X0029440Y0060314D01*
G01X0029440Y0060314D02*
G01X0029397Y0060314D01*
G01X0029397Y0060314D02*
G01X0029368Y0060300D01*
G01X0029368Y0060300D02*
G01X0029340Y0060271D01*
G01X0029340Y0060271D02*
G01X0029325Y0060228D01*
G01X0029325Y0060228D02*
G01X0029325Y0060199D01*
G01X0029325Y0060199D02*
G01X0029340Y0060156D01*
G01X0029340Y0060156D02*
G01X0029368Y0060128D01*
G01X0029368Y0060128D02*
G01X0029397Y0060113D01*
G01X0029397Y0060113D02*
G01X0029440Y0060113D01*
G01X0029440Y0060113D02*
G01X0029469Y0060128D01*
G01X0029469Y0060128D02*
G01X0029497Y0060156D01*
G01X0029590Y0060314D02*
G01X0029590Y0060113D01*
G01X0029590Y0060228D02*
G01X0029604Y0060271D01*
G01X0029604Y0060271D02*
G01X0029633Y0060300D01*
G01X0029633Y0060300D02*
G01X0029662Y0060314D01*
G01X0029662Y0060314D02*
G01X0029705Y0060314D01*
G01X0029841Y0060414D02*
G01X0029841Y0060170D01*
G01X0029841Y0060170D02*
G01X0029855Y0060128D01*
G01X0029855Y0060128D02*
G01X0029884Y0060113D01*
G01X0029884Y0060113D02*
G01X0029912Y0060113D01*
G01X0029797Y0060314D02*
G01X0029898Y0060314D01*
G01X0030192Y0060414D02*
G01X0030005Y0060414D01*
G01X0030005Y0060414D02*
G01X0030005Y0060113D01*
G01X0030005Y0060271D02*
G01X0030120Y0060271D01*
G01X0030456Y0060314D02*
G01X0030456Y0060113D01*
G01X0030456Y0060271D02*
G01X0030428Y0060300D01*
G01X0030428Y0060300D02*
G01X0030399Y0060314D01*
G01X0030399Y0060314D02*
G01X0030356Y0060314D01*
G01X0030356Y0060314D02*
G01X0030327Y0060300D01*
G01X0030327Y0060300D02*
G01X0030299Y0060271D01*
G01X0030299Y0060271D02*
G01X0030284Y0060228D01*
G01X0030284Y0060228D02*
G01X0030284Y0060199D01*
G01X0030284Y0060199D02*
G01X0030299Y0060156D01*
G01X0030299Y0060156D02*
G01X0030327Y0060128D01*
G01X0030327Y0060128D02*
G01X0030356Y0060113D01*
G01X0030356Y0060113D02*
G01X0030399Y0060113D01*
G01X0030399Y0060113D02*
G01X0030428Y0060128D01*
G01X0030428Y0060128D02*
G01X0030456Y0060156D01*
G01X0030549Y0060314D02*
G01X0030549Y0060113D01*
G01X0030549Y0060257D02*
G01X0030592Y0060300D01*
G01X0030592Y0060300D02*
G01X0030621Y0060314D01*
G01X0030621Y0060314D02*
G01X0030664Y0060314D01*
G01X0030664Y0060314D02*
G01X0030693Y0060300D01*
G01X0030693Y0060300D02*
G01X0030707Y0060257D01*
G01X0030707Y0060257D02*
G01X0030707Y0060113D01*
G01X0030799Y0060357D02*
G01X0030828Y0060371D01*
G01X0030828Y0060371D02*
G01X0030871Y0060414D01*
G01X0030871Y0060414D02*
G01X0030871Y0060113D01*
G01X0012311Y0030399D02*
G01X0012441Y0030399D01*
G01X0012441Y0030399D02*
G01X0012483Y0030413D01*
G01X0012483Y0030413D02*
G01X0012498Y0030427D01*
G01X0012498Y0030427D02*
G01X0012512Y0030456D01*
G01X0012512Y0030456D02*
G01X0012512Y0030499D01*
G01X0012512Y0030499D02*
G01X0012498Y0030528D01*
G01X0012498Y0030528D02*
G01X0012483Y0030542D01*
G01X0012483Y0030542D02*
G01X0012441Y0030556D01*
G01X0012441Y0030556D02*
G01X0012311Y0030556D01*
G01X0012311Y0030556D02*
G01X0012311Y0030255D01*
G01X0012777Y0030456D02*
G01X0012777Y0030255D01*
G01X0012777Y0030413D02*
G01X0012749Y0030442D01*
G01X0012749Y0030442D02*
G01X0012720Y0030456D01*
G01X0012720Y0030456D02*
G01X0012677Y0030456D01*
G01X0012677Y0030456D02*
G01X0012648Y0030442D01*
G01X0012648Y0030442D02*
G01X0012620Y0030413D01*
G01X0012620Y0030413D02*
G01X0012605Y0030370D01*
G01X0012605Y0030370D02*
G01X0012605Y0030341D01*
G01X0012605Y0030341D02*
G01X0012620Y0030298D01*
G01X0012620Y0030298D02*
G01X0012648Y0030270D01*
G01X0012648Y0030270D02*
G01X0012677Y0030255D01*
G01X0012677Y0030255D02*
G01X0012720Y0030255D01*
G01X0012720Y0030255D02*
G01X0012749Y0030270D01*
G01X0012749Y0030270D02*
G01X0012777Y0030298D01*
G01X0012870Y0030456D02*
G01X0012870Y0030255D01*
G01X0012870Y0030370D02*
G01X0012884Y0030413D01*
G01X0012884Y0030413D02*
G01X0012913Y0030442D01*
G01X0012913Y0030442D02*
G01X0012942Y0030456D01*
G01X0012942Y0030456D02*
G01X0012985Y0030456D01*
G01X0013121Y0030556D02*
G01X0013121Y0030312D01*
G01X0013121Y0030312D02*
G01X0013135Y0030270D01*
G01X0013135Y0030270D02*
G01X0013164Y0030255D01*
G01X0013164Y0030255D02*
G01X0013192Y0030255D01*
G01X0013077Y0030456D02*
G01X0013178Y0030456D01*
G01X0013471Y0030556D02*
G01X0013285Y0030556D01*
G01X0013285Y0030556D02*
G01X0013285Y0030255D01*
G01X0013285Y0030413D02*
G01X0013400Y0030413D01*
G01X0013736Y0030456D02*
G01X0013736Y0030255D01*
G01X0013736Y0030413D02*
G01X0013708Y0030442D01*
G01X0013708Y0030442D02*
G01X0013679Y0030456D01*
G01X0013679Y0030456D02*
G01X0013636Y0030456D01*
G01X0013636Y0030456D02*
G01X0013607Y0030442D01*
G01X0013607Y0030442D02*
G01X0013579Y0030413D01*
G01X0013579Y0030413D02*
G01X0013564Y0030370D01*
G01X0013564Y0030370D02*
G01X0013564Y0030341D01*
G01X0013564Y0030341D02*
G01X0013579Y0030298D01*
G01X0013579Y0030298D02*
G01X0013607Y0030270D01*
G01X0013607Y0030270D02*
G01X0013636Y0030255D01*
G01X0013636Y0030255D02*
G01X0013679Y0030255D01*
G01X0013679Y0030255D02*
G01X0013708Y0030270D01*
G01X0013708Y0030270D02*
G01X0013736Y0030298D01*
G01X0013829Y0030456D02*
G01X0013829Y0030255D01*
G01X0013829Y0030399D02*
G01X0013872Y0030442D01*
G01X0013872Y0030442D02*
G01X0013901Y0030456D01*
G01X0013901Y0030456D02*
G01X0013944Y0030456D01*
G01X0013944Y0030456D02*
G01X0013972Y0030442D01*
G01X0013972Y0030442D02*
G01X0013987Y0030399D01*
G01X0013987Y0030399D02*
G01X0013987Y0030255D01*
G01X0014079Y0030499D02*
G01X0014108Y0030513D01*
G01X0014108Y0030513D02*
G01X0014151Y0030556D01*
G01X0014151Y0030556D02*
G01X0014151Y0030255D01*
G01X0045692Y0030163D02*
G01X0045821Y0030163D01*
G01X0045821Y0030163D02*
G01X0045864Y0030177D01*
G01X0045864Y0030177D02*
G01X0045878Y0030192D01*
G01X0045878Y0030192D02*
G01X0045892Y0030221D01*
G01X0045892Y0030221D02*
G01X0045892Y0030264D01*
G01X0045892Y0030264D02*
G01X0045878Y0030292D01*
G01X0045878Y0030292D02*
G01X0045864Y0030307D01*
G01X0045864Y0030307D02*
G01X0045821Y0030321D01*
G01X0045821Y0030321D02*
G01X0045692Y0030321D01*
G01X0045692Y0030321D02*
G01X0045692Y0030020D01*
G01X0046157Y0030221D02*
G01X0046157Y0030020D01*
G01X0046157Y0030177D02*
G01X0046129Y0030206D01*
G01X0046129Y0030206D02*
G01X0046100Y0030221D01*
G01X0046100Y0030221D02*
G01X0046057Y0030221D01*
G01X0046057Y0030221D02*
G01X0046028Y0030206D01*
G01X0046028Y0030206D02*
G01X0046000Y0030177D01*
G01X0046000Y0030177D02*
G01X0045985Y0030134D01*
G01X0045985Y0030134D02*
G01X0045985Y0030106D01*
G01X0045985Y0030106D02*
G01X0046000Y0030063D01*
G01X0046000Y0030063D02*
G01X0046028Y0030034D01*
G01X0046028Y0030034D02*
G01X0046057Y0030020D01*
G01X0046057Y0030020D02*
G01X0046100Y0030020D01*
G01X0046100Y0030020D02*
G01X0046129Y0030034D01*
G01X0046129Y0030034D02*
G01X0046157Y0030063D01*
G01X0046250Y0030221D02*
G01X0046250Y0030020D01*
G01X0046250Y0030134D02*
G01X0046264Y0030177D01*
G01X0046264Y0030177D02*
G01X0046293Y0030206D01*
G01X0046293Y0030206D02*
G01X0046322Y0030221D01*
G01X0046322Y0030221D02*
G01X0046365Y0030221D01*
G01X0046501Y0030321D02*
G01X0046501Y0030077D01*
G01X0046501Y0030077D02*
G01X0046515Y0030034D01*
G01X0046515Y0030034D02*
G01X0046544Y0030020D01*
G01X0046544Y0030020D02*
G01X0046572Y0030020D01*
G01X0046458Y0030221D02*
G01X0046558Y0030221D01*
G01X0046852Y0030321D02*
G01X0046665Y0030321D01*
G01X0046665Y0030321D02*
G01X0046665Y0030020D01*
G01X0046665Y0030177D02*
G01X0046780Y0030177D01*
G01X0047116Y0030221D02*
G01X0047116Y0030020D01*
G01X0047116Y0030177D02*
G01X0047088Y0030206D01*
G01X0047088Y0030206D02*
G01X0047059Y0030221D01*
G01X0047059Y0030221D02*
G01X0047016Y0030221D01*
G01X0047016Y0030221D02*
G01X0046987Y0030206D01*
G01X0046987Y0030206D02*
G01X0046959Y0030177D01*
G01X0046959Y0030177D02*
G01X0046944Y0030134D01*
G01X0046944Y0030134D02*
G01X0046944Y0030106D01*
G01X0046944Y0030106D02*
G01X0046959Y0030063D01*
G01X0046959Y0030063D02*
G01X0046987Y0030034D01*
G01X0046987Y0030034D02*
G01X0047016Y0030020D01*
G01X0047016Y0030020D02*
G01X0047059Y0030020D01*
G01X0047059Y0030020D02*
G01X0047088Y0030034D01*
G01X0047088Y0030034D02*
G01X0047116Y0030063D01*
G01X0047209Y0030221D02*
G01X0047209Y0030020D01*
G01X0047209Y0030163D02*
G01X0047252Y0030206D01*
G01X0047252Y0030206D02*
G01X0047281Y0030221D01*
G01X0047281Y0030221D02*
G01X0047324Y0030221D01*
G01X0047324Y0030221D02*
G01X0047353Y0030206D01*
G01X0047353Y0030206D02*
G01X0047367Y0030163D01*
G01X0047367Y0030163D02*
G01X0047367Y0030020D01*
G01X0047460Y0030263D02*
G01X0047488Y0030278D01*
G01X0047488Y0030278D02*
G01X0047531Y0030321D01*
G01X0047531Y0030321D02*
G01X0047531Y0030020D01*
G01X0036528Y0033679D02*
G01X0036657Y0033679D01*
G01X0036657Y0033679D02*
G01X0036700Y0033693D01*
G01X0036700Y0033693D02*
G01X0036714Y0033708D01*
G01X0036714Y0033708D02*
G01X0036729Y0033736D01*
G01X0036729Y0033736D02*
G01X0036729Y0033765D01*
G01X0036729Y0033765D02*
G01X0036714Y0033793D01*
G01X0036714Y0033793D02*
G01X0036700Y0033808D01*
G01X0036700Y0033808D02*
G01X0036657Y0033822D01*
G01X0036657Y0033822D02*
G01X0036528Y0033822D01*
G01X0036528Y0033822D02*
G01X0036528Y0033521D01*
G01X0036628Y0033679D02*
G01X0036729Y0033521D01*
G01X0036821Y0033765D02*
G01X0036850Y0033779D01*
G01X0036850Y0033779D02*
G01X0036893Y0033822D01*
G01X0036893Y0033822D02*
G01X0036893Y0033521D01*
G01X0029924Y0030032D02*
G01X0030053Y0030032D01*
G01X0030053Y0030032D02*
G01X0030097Y0030047D01*
G01X0030097Y0030047D02*
G01X0030111Y0030061D01*
G01X0030111Y0030061D02*
G01X0030125Y0030090D01*
G01X0030125Y0030090D02*
G01X0030125Y0030119D01*
G01X0030125Y0030119D02*
G01X0030111Y0030147D01*
G01X0030111Y0030147D02*
G01X0030097Y0030162D01*
G01X0030097Y0030162D02*
G01X0030053Y0030176D01*
G01X0030053Y0030176D02*
G01X0029924Y0030176D01*
G01X0029924Y0030176D02*
G01X0029924Y0029875D01*
G01X0030025Y0030032D02*
G01X0030125Y0029875D01*
G01X0030247Y0030176D02*
G01X0030404Y0030176D01*
G01X0030404Y0030176D02*
G01X0030318Y0030061D01*
G01X0030318Y0030061D02*
G01X0030362Y0030061D01*
G01X0030362Y0030061D02*
G01X0030390Y0030047D01*
G01X0030390Y0030047D02*
G01X0030404Y0030032D01*
G01X0030404Y0030032D02*
G01X0030419Y0029989D01*
G01X0030419Y0029989D02*
G01X0030419Y0029961D01*
G01X0030419Y0029961D02*
G01X0030404Y0029918D01*
G01X0030404Y0029918D02*
G01X0030376Y0029889D01*
G01X0030376Y0029889D02*
G01X0030333Y0029875D01*
G01X0030333Y0029875D02*
G01X0030290Y0029875D01*
G01X0030290Y0029875D02*
G01X0030247Y0029889D01*
G01X0030247Y0029889D02*
G01X0030233Y0029903D01*
G01X0030233Y0029903D02*
G01X0030218Y0029932D01*
G01X0022663Y0038441D02*
G01X0022792Y0038441D01*
G01X0022792Y0038441D02*
G01X0022835Y0038456D01*
G01X0022835Y0038456D02*
G01X0022850Y0038470D01*
G01X0022850Y0038470D02*
G01X0022864Y0038499D01*
G01X0022864Y0038499D02*
G01X0022864Y0038527D01*
G01X0022864Y0038527D02*
G01X0022850Y0038556D01*
G01X0022850Y0038556D02*
G01X0022835Y0038570D01*
G01X0022835Y0038570D02*
G01X0022792Y0038585D01*
G01X0022792Y0038585D02*
G01X0022663Y0038585D01*
G01X0022663Y0038585D02*
G01X0022663Y0038283D01*
G01X0022763Y0038441D02*
G01X0022864Y0038283D01*
G01X0023129Y0038542D02*
G01X0023114Y0038570D01*
G01X0023114Y0038570D02*
G01X0023071Y0038584D01*
G01X0023071Y0038584D02*
G01X0023043Y0038584D01*
G01X0023043Y0038584D02*
G01X0023000Y0038570D01*
G01X0023000Y0038570D02*
G01X0022971Y0038527D01*
G01X0022971Y0038527D02*
G01X0022957Y0038455D01*
G01X0022957Y0038455D02*
G01X0022957Y0038384D01*
G01X0022957Y0038384D02*
G01X0022971Y0038326D01*
G01X0022971Y0038326D02*
G01X0023000Y0038298D01*
G01X0023000Y0038298D02*
G01X0023043Y0038283D01*
G01X0023043Y0038283D02*
G01X0023057Y0038283D01*
G01X0023057Y0038283D02*
G01X0023100Y0038298D01*
G01X0023100Y0038298D02*
G01X0023129Y0038326D01*
G01X0023129Y0038326D02*
G01X0023143Y0038370D01*
G01X0023143Y0038370D02*
G01X0023143Y0038384D01*
G01X0023143Y0038384D02*
G01X0023129Y0038427D01*
G01X0023129Y0038427D02*
G01X0023100Y0038455D01*
G01X0023100Y0038455D02*
G01X0023057Y0038470D01*
G01X0023057Y0038470D02*
G01X0023043Y0038470D01*
G01X0023043Y0038470D02*
G01X0023000Y0038455D01*
G01X0023000Y0038455D02*
G01X0022971Y0038427D01*
G01X0022971Y0038427D02*
G01X0022957Y0038384D01*
G01X0024142Y0031122D02*
G01X0024142Y0031251D01*
G01X0024142Y0031251D02*
G01X0024127Y0031294D01*
G01X0024127Y0031294D02*
G01X0024113Y0031309D01*
G01X0024113Y0031309D02*
G01X0024085Y0031323D01*
G01X0024085Y0031323D02*
G01X0024056Y0031323D01*
G01X0024056Y0031323D02*
G01X0024027Y0031309D01*
G01X0024027Y0031309D02*
G01X0024013Y0031294D01*
G01X0024013Y0031294D02*
G01X0023998Y0031251D01*
G01X0023998Y0031251D02*
G01X0023998Y0031122D01*
G01X0023998Y0031122D02*
G01X0024300Y0031122D01*
G01X0024142Y0031223D02*
G01X0024300Y0031323D01*
G01X0024300Y0031473D02*
G01X0023999Y0031617D01*
G01X0023999Y0031617D02*
G01X0023999Y0031416D01*
G01X0036480Y0048679D02*
G01X0036609Y0048679D01*
G01X0036609Y0048679D02*
G01X0036653Y0048693D01*
G01X0036653Y0048693D02*
G01X0036667Y0048707D01*
G01X0036667Y0048707D02*
G01X0036681Y0048736D01*
G01X0036681Y0048736D02*
G01X0036681Y0048765D01*
G01X0036681Y0048765D02*
G01X0036667Y0048793D01*
G01X0036667Y0048793D02*
G01X0036653Y0048808D01*
G01X0036653Y0048808D02*
G01X0036609Y0048822D01*
G01X0036609Y0048822D02*
G01X0036480Y0048822D01*
G01X0036480Y0048822D02*
G01X0036480Y0048521D01*
G01X0036581Y0048679D02*
G01X0036681Y0048521D01*
G01X0036846Y0048822D02*
G01X0036803Y0048808D01*
G01X0036803Y0048808D02*
G01X0036788Y0048779D01*
G01X0036788Y0048779D02*
G01X0036788Y0048750D01*
G01X0036788Y0048750D02*
G01X0036803Y0048722D01*
G01X0036803Y0048722D02*
G01X0036831Y0048707D01*
G01X0036831Y0048707D02*
G01X0036889Y0048693D01*
G01X0036889Y0048693D02*
G01X0036932Y0048679D01*
G01X0036932Y0048679D02*
G01X0036960Y0048650D01*
G01X0036960Y0048650D02*
G01X0036975Y0048621D01*
G01X0036975Y0048621D02*
G01X0036975Y0048578D01*
G01X0036975Y0048578D02*
G01X0036960Y0048550D01*
G01X0036960Y0048550D02*
G01X0036946Y0048535D01*
G01X0036946Y0048535D02*
G01X0036903Y0048521D01*
G01X0036903Y0048521D02*
G01X0036846Y0048521D01*
G01X0036846Y0048521D02*
G01X0036803Y0048535D01*
G01X0036803Y0048535D02*
G01X0036788Y0048550D01*
G01X0036788Y0048550D02*
G01X0036774Y0048578D01*
G01X0036774Y0048578D02*
G01X0036774Y0048621D01*
G01X0036774Y0048621D02*
G01X0036788Y0048650D01*
G01X0036788Y0048650D02*
G01X0036817Y0048679D01*
G01X0036817Y0048679D02*
G01X0036860Y0048693D01*
G01X0036860Y0048693D02*
G01X0036917Y0048707D01*
G01X0036917Y0048707D02*
G01X0036946Y0048722D01*
G01X0036946Y0048722D02*
G01X0036960Y0048750D01*
G01X0036960Y0048750D02*
G01X0036960Y0048779D01*
G01X0036960Y0048779D02*
G01X0036946Y0048808D01*
G01X0036946Y0048808D02*
G01X0036903Y0048822D01*
G01X0036903Y0048822D02*
G01X0036846Y0048822D01*
G01X0037029Y0047757D02*
G01X0037158Y0047757D01*
G01X0037158Y0047757D02*
G01X0037201Y0047772D01*
G01X0037201Y0047772D02*
G01X0037216Y0047786D01*
G01X0037216Y0047786D02*
G01X0037230Y0047815D01*
G01X0037230Y0047815D02*
G01X0037230Y0047844D01*
G01X0037230Y0047844D02*
G01X0037216Y0047872D01*
G01X0037216Y0047872D02*
G01X0037201Y0047887D01*
G01X0037201Y0047887D02*
G01X0037158Y0047901D01*
G01X0037158Y0047901D02*
G01X0037029Y0047901D01*
G01X0037029Y0047901D02*
G01X0037029Y0047600D01*
G01X0037130Y0047757D02*
G01X0037230Y0047600D01*
G01X0037510Y0047801D02*
G01X0037495Y0047757D01*
G01X0037495Y0047757D02*
G01X0037467Y0047729D01*
G01X0037467Y0047729D02*
G01X0037423Y0047714D01*
G01X0037423Y0047714D02*
G01X0037409Y0047714D01*
G01X0037409Y0047714D02*
G01X0037366Y0047729D01*
G01X0037366Y0047729D02*
G01X0037338Y0047757D01*
G01X0037338Y0047757D02*
G01X0037323Y0047801D01*
G01X0037323Y0047801D02*
G01X0037323Y0047815D01*
G01X0037323Y0047815D02*
G01X0037338Y0047858D01*
G01X0037338Y0047858D02*
G01X0037366Y0047886D01*
G01X0037366Y0047886D02*
G01X0037409Y0047901D01*
G01X0037409Y0047901D02*
G01X0037423Y0047901D01*
G01X0037423Y0047901D02*
G01X0037467Y0047886D01*
G01X0037467Y0047886D02*
G01X0037495Y0047858D01*
G01X0037495Y0047858D02*
G01X0037510Y0047801D01*
G01X0037510Y0047801D02*
G01X0037510Y0047729D01*
G01X0037510Y0047729D02*
G01X0037495Y0047657D01*
G01X0037495Y0047657D02*
G01X0037467Y0047614D01*
G01X0037467Y0047614D02*
G01X0037423Y0047600D01*
G01X0037423Y0047600D02*
G01X0037395Y0047600D01*
G01X0037395Y0047600D02*
G01X0037352Y0047614D01*
G01X0037352Y0047614D02*
G01X0037338Y0047643D01*
G01X0037125Y0032009D02*
G01X0037254Y0032009D01*
G01X0037254Y0032009D02*
G01X0037297Y0032024D01*
G01X0037297Y0032024D02*
G01X0037311Y0032038D01*
G01X0037311Y0032038D02*
G01X0037326Y0032067D01*
G01X0037326Y0032067D02*
G01X0037326Y0032096D01*
G01X0037326Y0032096D02*
G01X0037311Y0032124D01*
G01X0037311Y0032124D02*
G01X0037297Y0032139D01*
G01X0037297Y0032139D02*
G01X0037254Y0032153D01*
G01X0037254Y0032153D02*
G01X0037125Y0032153D01*
G01X0037125Y0032153D02*
G01X0037125Y0031852D01*
G01X0037225Y0032009D02*
G01X0037326Y0031852D01*
G01X0037418Y0032095D02*
G01X0037447Y0032110D01*
G01X0037447Y0032110D02*
G01X0037490Y0032153D01*
G01X0037490Y0032153D02*
G01X0037490Y0031852D01*
G01X0037583Y0032095D02*
G01X0037612Y0032110D01*
G01X0037612Y0032110D02*
G01X0037655Y0032153D01*
G01X0037655Y0032153D02*
G01X0037655Y0031852D01*
G01X0033321Y0032909D02*
G01X0033450Y0032909D01*
G01X0033450Y0032909D02*
G01X0033493Y0032923D01*
G01X0033493Y0032923D02*
G01X0033508Y0032938D01*
G01X0033508Y0032938D02*
G01X0033522Y0032966D01*
G01X0033522Y0032966D02*
G01X0033522Y0032995D01*
G01X0033522Y0032995D02*
G01X0033508Y0033023D01*
G01X0033508Y0033023D02*
G01X0033493Y0033038D01*
G01X0033493Y0033038D02*
G01X0033450Y0033052D01*
G01X0033450Y0033052D02*
G01X0033321Y0033052D01*
G01X0033321Y0033052D02*
G01X0033321Y0032751D01*
G01X0033421Y0032909D02*
G01X0033522Y0032751D01*
G01X0033614Y0032995D02*
G01X0033643Y0033009D01*
G01X0033643Y0033009D02*
G01X0033686Y0033052D01*
G01X0033686Y0033052D02*
G01X0033686Y0032751D01*
G01X0033808Y0033052D02*
G01X0033965Y0033052D01*
G01X0033965Y0033052D02*
G01X0033880Y0032937D01*
G01X0033880Y0032937D02*
G01X0033923Y0032937D01*
G01X0033923Y0032937D02*
G01X0033951Y0032923D01*
G01X0033951Y0032923D02*
G01X0033965Y0032909D01*
G01X0033965Y0032909D02*
G01X0033980Y0032866D01*
G01X0033980Y0032866D02*
G01X0033980Y0032837D01*
G01X0033980Y0032837D02*
G01X0033965Y0032794D01*
G01X0033965Y0032794D02*
G01X0033937Y0032765D01*
G01X0033937Y0032765D02*
G01X0033894Y0032751D01*
G01X0033894Y0032751D02*
G01X0033851Y0032751D01*
G01X0033851Y0032751D02*
G01X0033808Y0032765D01*
G01X0033808Y0032765D02*
G01X0033794Y0032780D01*
G01X0033794Y0032780D02*
G01X0033779Y0032808D01*
G01X0028285Y0033170D02*
G01X0028414Y0033170D01*
G01X0028414Y0033170D02*
G01X0028457Y0033185D01*
G01X0028457Y0033185D02*
G01X0028472Y0033199D01*
G01X0028472Y0033199D02*
G01X0028486Y0033228D01*
G01X0028486Y0033228D02*
G01X0028486Y0033257D01*
G01X0028486Y0033257D02*
G01X0028472Y0033285D01*
G01X0028472Y0033285D02*
G01X0028457Y0033300D01*
G01X0028457Y0033300D02*
G01X0028414Y0033314D01*
G01X0028414Y0033314D02*
G01X0028285Y0033314D01*
G01X0028285Y0033314D02*
G01X0028285Y0033012D01*
G01X0028385Y0033170D02*
G01X0028486Y0033012D01*
G01X0028579Y0033256D02*
G01X0028607Y0033271D01*
G01X0028607Y0033271D02*
G01X0028650Y0033314D01*
G01X0028650Y0033314D02*
G01X0028650Y0033012D01*
G01X0028887Y0033012D02*
G01X0028887Y0033314D01*
G01X0028887Y0033314D02*
G01X0028743Y0033113D01*
G01X0028743Y0033113D02*
G01X0028958Y0033113D01*
G01X0031801Y0030237D02*
G01X0031801Y0030022D01*
G01X0031801Y0030022D02*
G01X0031815Y0029979D01*
G01X0031815Y0029979D02*
G01X0031844Y0029951D01*
G01X0031844Y0029951D02*
G01X0031887Y0029936D01*
G01X0031887Y0029936D02*
G01X0031916Y0029936D01*
G01X0031916Y0029936D02*
G01X0031959Y0029951D01*
G01X0031959Y0029951D02*
G01X0031988Y0029979D01*
G01X0031988Y0029979D02*
G01X0032002Y0030022D01*
G01X0032002Y0030022D02*
G01X0032002Y0030237D01*
G01X0032094Y0030180D02*
G01X0032123Y0030194D01*
G01X0032123Y0030194D02*
G01X0032166Y0030237D01*
G01X0032166Y0030237D02*
G01X0032166Y0029936D01*
G01X0034414Y0030451D02*
G01X0034414Y0030235D01*
G01X0034414Y0030235D02*
G01X0034428Y0030192D01*
G01X0034428Y0030192D02*
G01X0034457Y0030164D01*
G01X0034457Y0030164D02*
G01X0034500Y0030149D01*
G01X0034500Y0030149D02*
G01X0034529Y0030149D01*
G01X0034529Y0030149D02*
G01X0034572Y0030164D01*
G01X0034572Y0030164D02*
G01X0034601Y0030192D01*
G01X0034601Y0030192D02*
G01X0034615Y0030235D01*
G01X0034615Y0030235D02*
G01X0034615Y0030451D01*
G01X0034737Y0030450D02*
G01X0034894Y0030450D01*
G01X0034894Y0030450D02*
G01X0034808Y0030335D01*
G01X0034808Y0030335D02*
G01X0034851Y0030335D01*
G01X0034851Y0030335D02*
G01X0034880Y0030321D01*
G01X0034880Y0030321D02*
G01X0034894Y0030307D01*
G01X0034894Y0030307D02*
G01X0034909Y0030264D01*
G01X0034909Y0030264D02*
G01X0034909Y0030235D01*
G01X0034909Y0030235D02*
G01X0034894Y0030192D01*
G01X0034894Y0030192D02*
G01X0034866Y0030163D01*
G01X0034866Y0030163D02*
G01X0034822Y0030149D01*
G01X0034822Y0030149D02*
G01X0034779Y0030149D01*
G01X0034779Y0030149D02*
G01X0034737Y0030163D01*
G01X0034737Y0030163D02*
G01X0034722Y0030178D01*
G01X0034722Y0030178D02*
G01X0034708Y0030206D01*
G01X0020344Y0036793D02*
G01X0020344Y0036492D01*
G01X0020344Y0036492D02*
G01X0020444Y0036492D01*
G01X0020444Y0036492D02*
G01X0020488Y0036506D01*
G01X0020488Y0036506D02*
G01X0020516Y0036535D01*
G01X0020516Y0036535D02*
G01X0020531Y0036564D01*
G01X0020531Y0036564D02*
G01X0020545Y0036607D01*
G01X0020545Y0036607D02*
G01X0020545Y0036679D01*
G01X0020545Y0036679D02*
G01X0020531Y0036722D01*
G01X0020531Y0036722D02*
G01X0020516Y0036750D01*
G01X0020516Y0036750D02*
G01X0020488Y0036779D01*
G01X0020488Y0036779D02*
G01X0020444Y0036793D01*
G01X0020444Y0036793D02*
G01X0020344Y0036793D01*
G01X0020781Y0036492D02*
G01X0020781Y0036793D01*
G01X0020781Y0036793D02*
G01X0020638Y0036592D01*
G01X0020638Y0036592D02*
G01X0020853Y0036592D01*
G01X0022499Y0033577D02*
G01X0022485Y0033605D01*
G01X0022485Y0033605D02*
G01X0022456Y0033634D01*
G01X0022456Y0033634D02*
G01X0022428Y0033648D01*
G01X0022428Y0033648D02*
G01X0022370Y0033648D01*
G01X0022370Y0033648D02*
G01X0022342Y0033634D01*
G01X0022342Y0033634D02*
G01X0022313Y0033605D01*
G01X0022313Y0033605D02*
G01X0022299Y0033577D01*
G01X0022299Y0033577D02*
G01X0022284Y0033533D01*
G01X0022284Y0033533D02*
G01X0022284Y0033462D01*
G01X0022284Y0033462D02*
G01X0022299Y0033419D01*
G01X0022299Y0033419D02*
G01X0022313Y0033390D01*
G01X0022313Y0033390D02*
G01X0022342Y0033361D01*
G01X0022342Y0033361D02*
G01X0022370Y0033347D01*
G01X0022370Y0033347D02*
G01X0022428Y0033347D01*
G01X0022428Y0033347D02*
G01X0022456Y0033361D01*
G01X0022456Y0033361D02*
G01X0022485Y0033390D01*
G01X0022485Y0033390D02*
G01X0022499Y0033419D01*
G01X0022592Y0033591D02*
G01X0022621Y0033605D01*
G01X0022621Y0033605D02*
G01X0022664Y0033648D01*
G01X0022664Y0033648D02*
G01X0022664Y0033347D01*
G01X0023602Y0034822D02*
G01X0023602Y0034521D01*
G01X0023602Y0034521D02*
G01X0023703Y0034521D01*
G01X0023703Y0034521D02*
G01X0023746Y0034536D01*
G01X0023746Y0034536D02*
G01X0023775Y0034564D01*
G01X0023775Y0034564D02*
G01X0023789Y0034593D01*
G01X0023789Y0034593D02*
G01X0023803Y0034636D01*
G01X0023803Y0034636D02*
G01X0023803Y0034708D01*
G01X0023803Y0034708D02*
G01X0023789Y0034751D01*
G01X0023789Y0034751D02*
G01X0023775Y0034779D01*
G01X0023775Y0034779D02*
G01X0023746Y0034808D01*
G01X0023746Y0034808D02*
G01X0023703Y0034822D01*
G01X0023703Y0034822D02*
G01X0023602Y0034822D01*
G01X0023925Y0034822D02*
G01X0024082Y0034822D01*
G01X0024082Y0034822D02*
G01X0023996Y0034707D01*
G01X0023996Y0034707D02*
G01X0024039Y0034707D01*
G01X0024039Y0034707D02*
G01X0024068Y0034693D01*
G01X0024068Y0034693D02*
G01X0024082Y0034679D01*
G01X0024082Y0034679D02*
G01X0024097Y0034636D01*
G01X0024097Y0034636D02*
G01X0024097Y0034607D01*
G01X0024097Y0034607D02*
G01X0024082Y0034564D01*
G01X0024082Y0034564D02*
G01X0024054Y0034535D01*
G01X0024054Y0034535D02*
G01X0024011Y0034521D01*
G01X0024011Y0034521D02*
G01X0023967Y0034521D01*
G01X0023967Y0034521D02*
G01X0023925Y0034535D01*
G01X0023925Y0034535D02*
G01X0023910Y0034550D01*
G01X0023910Y0034550D02*
G01X0023896Y0034578D01*
G01X0022218Y0031927D02*
G01X0022347Y0031927D01*
G01X0022347Y0031927D02*
G01X0022390Y0031941D01*
G01X0022390Y0031941D02*
G01X0022405Y0031956D01*
G01X0022405Y0031956D02*
G01X0022419Y0031984D01*
G01X0022419Y0031984D02*
G01X0022419Y0032013D01*
G01X0022419Y0032013D02*
G01X0022405Y0032042D01*
G01X0022405Y0032042D02*
G01X0022390Y0032056D01*
G01X0022390Y0032056D02*
G01X0022347Y0032070D01*
G01X0022347Y0032070D02*
G01X0022218Y0032070D01*
G01X0022218Y0032070D02*
G01X0022218Y0031769D01*
G01X0022319Y0031927D02*
G01X0022419Y0031769D01*
G01X0022526Y0031999D02*
G01X0022526Y0032013D01*
G01X0022526Y0032013D02*
G01X0022541Y0032042D01*
G01X0022541Y0032042D02*
G01X0022555Y0032056D01*
G01X0022555Y0032056D02*
G01X0022584Y0032070D01*
G01X0022584Y0032070D02*
G01X0022641Y0032070D01*
G01X0022641Y0032070D02*
G01X0022670Y0032056D01*
G01X0022670Y0032056D02*
G01X0022684Y0032042D01*
G01X0022684Y0032042D02*
G01X0022698Y0032013D01*
G01X0022698Y0032013D02*
G01X0022698Y0031984D01*
G01X0022698Y0031984D02*
G01X0022684Y0031955D01*
G01X0022684Y0031955D02*
G01X0022655Y0031913D01*
G01X0022655Y0031913D02*
G01X0022512Y0031769D01*
G01X0022512Y0031769D02*
G01X0022713Y0031769D01*
G01X0027010Y0029888D02*
G01X0027010Y0029672D01*
G01X0027010Y0029672D02*
G01X0027024Y0029629D01*
G01X0027024Y0029629D02*
G01X0027053Y0029601D01*
G01X0027053Y0029601D02*
G01X0027096Y0029586D01*
G01X0027096Y0029586D02*
G01X0027124Y0029586D01*
G01X0027124Y0029586D02*
G01X0027167Y0029601D01*
G01X0027167Y0029601D02*
G01X0027196Y0029629D01*
G01X0027196Y0029629D02*
G01X0027211Y0029672D01*
G01X0027211Y0029672D02*
G01X0027211Y0029888D01*
G01X0027318Y0029816D02*
G01X0027318Y0029830D01*
G01X0027318Y0029830D02*
G01X0027332Y0029859D01*
G01X0027332Y0029859D02*
G01X0027346Y0029873D01*
G01X0027346Y0029873D02*
G01X0027375Y0029887D01*
G01X0027375Y0029887D02*
G01X0027433Y0029887D01*
G01X0027433Y0029887D02*
G01X0027461Y0029873D01*
G01X0027461Y0029873D02*
G01X0027475Y0029859D01*
G01X0027475Y0029859D02*
G01X0027490Y0029830D01*
G01X0027490Y0029830D02*
G01X0027490Y0029801D01*
G01X0027490Y0029801D02*
G01X0027475Y0029772D01*
G01X0027475Y0029772D02*
G01X0027447Y0029730D01*
G01X0027447Y0029730D02*
G01X0027303Y0029586D01*
G01X0027303Y0029586D02*
G01X0027504Y0029586D01*
G01X0039810Y0039360D02*
G01X0039810Y0039059D01*
G01X0039810Y0039059D02*
G01X0039982Y0039059D01*
G01X0040075Y0039302D02*
G01X0040104Y0039317D01*
G01X0040104Y0039317D02*
G01X0040147Y0039360D01*
G01X0040147Y0039360D02*
G01X0040147Y0039059D01*
G01X0040301Y0041293D02*
G01X0040430Y0041293D01*
G01X0040430Y0041293D02*
G01X0040473Y0041307D01*
G01X0040473Y0041307D02*
G01X0040488Y0041322D01*
G01X0040488Y0041322D02*
G01X0040502Y0041350D01*
G01X0040502Y0041350D02*
G01X0040502Y0041379D01*
G01X0040502Y0041379D02*
G01X0040488Y0041407D01*
G01X0040488Y0041407D02*
G01X0040473Y0041422D01*
G01X0040473Y0041422D02*
G01X0040430Y0041436D01*
G01X0040430Y0041436D02*
G01X0040301Y0041436D01*
G01X0040301Y0041436D02*
G01X0040301Y0041135D01*
G01X0040401Y0041293D02*
G01X0040502Y0041135D01*
G01X0040738Y0041135D02*
G01X0040738Y0041436D01*
G01X0040738Y0041436D02*
G01X0040595Y0041235D01*
G01X0040595Y0041235D02*
G01X0040810Y0041235D01*
G01X0039608Y0042546D02*
G01X0039737Y0042546D01*
G01X0039737Y0042546D02*
G01X0039780Y0042560D01*
G01X0039780Y0042560D02*
G01X0039795Y0042574D01*
G01X0039795Y0042574D02*
G01X0039809Y0042603D01*
G01X0039809Y0042603D02*
G01X0039809Y0042632D01*
G01X0039809Y0042632D02*
G01X0039795Y0042660D01*
G01X0039795Y0042660D02*
G01X0039780Y0042675D01*
G01X0039780Y0042675D02*
G01X0039737Y0042689D01*
G01X0039737Y0042689D02*
G01X0039608Y0042689D01*
G01X0039608Y0042689D02*
G01X0039608Y0042388D01*
G01X0039709Y0042546D02*
G01X0039809Y0042388D01*
G01X0040074Y0042689D02*
G01X0039930Y0042689D01*
G01X0039930Y0042689D02*
G01X0039916Y0042560D01*
G01X0039916Y0042560D02*
G01X0039930Y0042574D01*
G01X0039930Y0042574D02*
G01X0039974Y0042589D01*
G01X0039974Y0042589D02*
G01X0040016Y0042589D01*
G01X0040016Y0042589D02*
G01X0040059Y0042574D01*
G01X0040059Y0042574D02*
G01X0040088Y0042546D01*
G01X0040088Y0042546D02*
G01X0040103Y0042503D01*
G01X0040103Y0042503D02*
G01X0040103Y0042474D01*
G01X0040103Y0042474D02*
G01X0040088Y0042431D01*
G01X0040088Y0042431D02*
G01X0040059Y0042402D01*
G01X0040059Y0042402D02*
G01X0040016Y0042388D01*
G01X0040016Y0042388D02*
G01X0039974Y0042388D01*
G01X0039974Y0042388D02*
G01X0039930Y0042402D01*
G01X0039930Y0042402D02*
G01X0039916Y0042417D01*
G01X0039916Y0042417D02*
G01X0039902Y0042445D01*
G54D14*
G01X0029020Y0043147D02*
G01X0029422Y0043147D01*
G01X0029422Y0043147D02*
G01X0029422Y0043320D01*
G01X0029422Y0043320D02*
G01X0029402Y0043377D01*
G01X0029402Y0043377D02*
G01X0029383Y0043396D01*
G01X0029383Y0043396D02*
G01X0029345Y0043415D01*
G01X0029345Y0043415D02*
G01X0029288Y0043415D01*
G01X0029288Y0043415D02*
G01X0029249Y0043396D01*
G01X0029249Y0043396D02*
G01X0029230Y0043377D01*
G01X0029230Y0043377D02*
G01X0029211Y0043320D01*
G01X0029211Y0043320D02*
G01X0029192Y0043377D01*
G01X0029192Y0043377D02*
G01X0029173Y0043396D01*
G01X0029173Y0043396D02*
G01X0029135Y0043415D01*
G01X0029135Y0043415D02*
G01X0029096Y0043415D01*
G01X0029096Y0043415D02*
G01X0029058Y0043396D01*
G01X0029058Y0043396D02*
G01X0029039Y0043377D01*
G01X0029039Y0043377D02*
G01X0029020Y0043320D01*
G01X0029020Y0043320D02*
G01X0029020Y0043147D01*
G01X0029211Y0043147D02*
G01X0029211Y0043320D01*
G01X0029154Y0043768D02*
G01X0029422Y0043768D01*
G01X0029211Y0043768D02*
G01X0029173Y0043730D01*
G01X0029173Y0043730D02*
G01X0029154Y0043692D01*
G01X0029154Y0043692D02*
G01X0029154Y0043635D01*
G01X0029154Y0043635D02*
G01X0029173Y0043596D01*
G01X0029173Y0043596D02*
G01X0029211Y0043558D01*
G01X0029211Y0043558D02*
G01X0029269Y0043539D01*
G01X0029269Y0043539D02*
G01X0029307Y0043539D01*
G01X0029307Y0043539D02*
G01X0029364Y0043558D01*
G01X0029364Y0043558D02*
G01X0029402Y0043596D01*
G01X0029402Y0043596D02*
G01X0029422Y0043635D01*
G01X0029422Y0043635D02*
G01X0029422Y0043692D01*
G01X0029422Y0043692D02*
G01X0029402Y0043730D01*
G01X0029402Y0043730D02*
G01X0029364Y0043768D01*
G01X0029211Y0044102D02*
G01X0029173Y0044083D01*
G01X0029173Y0044083D02*
G01X0029154Y0044026D01*
G01X0029154Y0044026D02*
G01X0029154Y0043968D01*
G01X0029154Y0043968D02*
G01X0029173Y0043911D01*
G01X0029173Y0043911D02*
G01X0029211Y0043892D01*
G01X0029211Y0043892D02*
G01X0029249Y0043911D01*
G01X0029249Y0043911D02*
G01X0029269Y0043949D01*
G01X0029269Y0043949D02*
G01X0029288Y0044045D01*
G01X0029288Y0044045D02*
G01X0029307Y0044083D01*
G01X0029307Y0044083D02*
G01X0029345Y0044102D01*
G01X0029345Y0044102D02*
G01X0029364Y0044102D01*
G01X0029364Y0044102D02*
G01X0029402Y0044083D01*
G01X0029402Y0044083D02*
G01X0029422Y0044026D01*
G01X0029422Y0044026D02*
G01X0029422Y0043968D01*
G01X0029422Y0043968D02*
G01X0029402Y0043911D01*
G01X0029402Y0043911D02*
G01X0029364Y0043892D01*
G01X0029269Y0044226D02*
G01X0029269Y0044455D01*
G01X0029269Y0044455D02*
G01X0029230Y0044455D01*
G01X0029230Y0044455D02*
G01X0029192Y0044436D01*
G01X0029192Y0044436D02*
G01X0029173Y0044417D01*
G01X0029173Y0044417D02*
G01X0029154Y0044379D01*
G01X0029154Y0044379D02*
G01X0029154Y0044321D01*
G01X0029154Y0044321D02*
G01X0029173Y0044283D01*
G01X0029173Y0044283D02*
G01X0029211Y0044245D01*
G01X0029211Y0044245D02*
G01X0029269Y0044226D01*
G01X0029269Y0044226D02*
G01X0029307Y0044226D01*
G01X0029307Y0044226D02*
G01X0029364Y0044245D01*
G01X0029364Y0044245D02*
G01X0029402Y0044283D01*
G01X0029402Y0044283D02*
G01X0029422Y0044321D01*
G01X0029422Y0044321D02*
G01X0029422Y0044379D01*
G01X0029422Y0044379D02*
G01X0029402Y0044417D01*
G01X0029402Y0044417D02*
G01X0029364Y0044455D01*
G01X0029020Y0044808D02*
G01X0029422Y0044808D01*
G01X0029211Y0044808D02*
G01X0029173Y0044770D01*
G01X0029173Y0044770D02*
G01X0029154Y0044732D01*
G01X0029154Y0044732D02*
G01X0029154Y0044674D01*
G01X0029154Y0044674D02*
G01X0029173Y0044636D01*
G01X0029173Y0044636D02*
G01X0029211Y0044598D01*
G01X0029211Y0044598D02*
G01X0029269Y0044579D01*
G01X0029269Y0044579D02*
G01X0029307Y0044579D01*
G01X0029307Y0044579D02*
G01X0029364Y0044598D01*
G01X0029364Y0044598D02*
G01X0029402Y0044636D01*
G01X0029402Y0044636D02*
G01X0029422Y0044674D01*
G01X0029422Y0044674D02*
G01X0029422Y0044732D01*
G01X0029422Y0044732D02*
G01X0029402Y0044770D01*
G01X0029402Y0044770D02*
G01X0029364Y0044808D01*
G01X0029154Y0045416D02*
G01X0029173Y0045378D01*
G01X0029173Y0045378D02*
G01X0029211Y0045339D01*
G01X0029211Y0045339D02*
G01X0029269Y0045320D01*
G01X0029269Y0045320D02*
G01X0029307Y0045320D01*
G01X0029307Y0045320D02*
G01X0029364Y0045339D01*
G01X0029364Y0045339D02*
G01X0029402Y0045378D01*
G01X0029402Y0045378D02*
G01X0029422Y0045416D01*
G01X0029422Y0045416D02*
G01X0029422Y0045473D01*
G01X0029422Y0045473D02*
G01X0029402Y0045512D01*
G01X0029402Y0045512D02*
G01X0029364Y0045550D01*
G01X0029364Y0045550D02*
G01X0029307Y0045569D01*
G01X0029307Y0045569D02*
G01X0029269Y0045569D01*
G01X0029269Y0045569D02*
G01X0029211Y0045550D01*
G01X0029211Y0045550D02*
G01X0029173Y0045512D01*
G01X0029173Y0045512D02*
G01X0029154Y0045473D01*
G01X0029154Y0045473D02*
G01X0029154Y0045416D01*
G01X0029154Y0045693D02*
G01X0029422Y0045693D01*
G01X0029230Y0045693D02*
G01X0029173Y0045750D01*
G01X0029173Y0045750D02*
G01X0029154Y0045789D01*
G01X0029154Y0045789D02*
G01X0029154Y0045846D01*
G01X0029154Y0045846D02*
G01X0029173Y0045884D01*
G01X0029173Y0045884D02*
G01X0029230Y0045903D01*
G01X0029230Y0045903D02*
G01X0029422Y0045903D01*
G01X0029020Y0046473D02*
G01X0029345Y0046473D01*
G01X0029345Y0046473D02*
G01X0029402Y0046492D01*
G01X0029402Y0046492D02*
G01X0029422Y0046531D01*
G01X0029422Y0046531D02*
G01X0029422Y0046569D01*
G01X0029154Y0046416D02*
G01X0029154Y0046550D01*
G01X0029020Y0046692D02*
G01X0029422Y0046692D01*
G01X0029230Y0046692D02*
G01X0029173Y0046750D01*
G01X0029173Y0046750D02*
G01X0029154Y0046788D01*
G01X0029154Y0046788D02*
G01X0029154Y0046846D01*
G01X0029154Y0046846D02*
G01X0029173Y0046884D01*
G01X0029173Y0046884D02*
G01X0029230Y0046903D01*
G01X0029230Y0046903D02*
G01X0029422Y0046903D01*
G01X0029269Y0047026D02*
G01X0029269Y0047256D01*
G01X0029269Y0047256D02*
G01X0029230Y0047256D01*
G01X0029230Y0047256D02*
G01X0029192Y0047237D01*
G01X0029192Y0047237D02*
G01X0029173Y0047218D01*
G01X0029173Y0047218D02*
G01X0029154Y0047179D01*
G01X0029154Y0047179D02*
G01X0029154Y0047122D01*
G01X0029154Y0047122D02*
G01X0029173Y0047084D01*
G01X0029173Y0047084D02*
G01X0029211Y0047045D01*
G01X0029211Y0047045D02*
G01X0029269Y0047026D01*
G01X0029269Y0047026D02*
G01X0029307Y0047026D01*
G01X0029307Y0047026D02*
G01X0029364Y0047045D01*
G01X0029364Y0047045D02*
G01X0029402Y0047084D01*
G01X0029402Y0047084D02*
G01X0029422Y0047122D01*
G01X0029422Y0047122D02*
G01X0029422Y0047179D01*
G01X0029422Y0047179D02*
G01X0029402Y0047218D01*
G01X0029402Y0047218D02*
G01X0029364Y0047256D01*
G01X0029077Y0048036D02*
G01X0029039Y0047998D01*
G01X0029039Y0047998D02*
G01X0029020Y0047940D01*
G01X0029020Y0047940D02*
G01X0029020Y0047864D01*
G01X0029020Y0047864D02*
G01X0029039Y0047806D01*
G01X0029039Y0047806D02*
G01X0029077Y0047768D01*
G01X0029077Y0047768D02*
G01X0029115Y0047768D01*
G01X0029115Y0047768D02*
G01X0029154Y0047787D01*
G01X0029154Y0047787D02*
G01X0029173Y0047806D01*
G01X0029173Y0047806D02*
G01X0029192Y0047844D01*
G01X0029192Y0047844D02*
G01X0029230Y0047959D01*
G01X0029230Y0047959D02*
G01X0029249Y0047998D01*
G01X0029249Y0047998D02*
G01X0029269Y0048017D01*
G01X0029269Y0048017D02*
G01X0029307Y0048036D01*
G01X0029307Y0048036D02*
G01X0029364Y0048036D01*
G01X0029364Y0048036D02*
G01X0029402Y0047998D01*
G01X0029402Y0047998D02*
G01X0029422Y0047940D01*
G01X0029422Y0047940D02*
G01X0029422Y0047864D01*
G01X0029422Y0047864D02*
G01X0029402Y0047806D01*
G01X0029402Y0047806D02*
G01X0029364Y0047768D01*
G01X0029154Y0048159D02*
G01X0029422Y0048159D01*
G01X0029230Y0048159D02*
G01X0029173Y0048217D01*
G01X0029173Y0048217D02*
G01X0029154Y0048255D01*
G01X0029154Y0048255D02*
G01X0029154Y0048312D01*
G01X0029154Y0048312D02*
G01X0029173Y0048351D01*
G01X0029173Y0048351D02*
G01X0029230Y0048370D01*
G01X0029230Y0048370D02*
G01X0029422Y0048370D01*
G01X0029230Y0048370D02*
G01X0029173Y0048427D01*
G01X0029173Y0048427D02*
G01X0029154Y0048466D01*
G01X0029154Y0048466D02*
G01X0029154Y0048523D01*
G01X0029154Y0048523D02*
G01X0029173Y0048561D01*
G01X0029173Y0048561D02*
G01X0029230Y0048581D01*
G01X0029230Y0048581D02*
G01X0029422Y0048581D01*
G01X0029154Y0048934D02*
G01X0029422Y0048934D01*
G01X0029211Y0048934D02*
G01X0029173Y0048896D01*
G01X0029173Y0048896D02*
G01X0029154Y0048857D01*
G01X0029154Y0048857D02*
G01X0029154Y0048800D01*
G01X0029154Y0048800D02*
G01X0029173Y0048762D01*
G01X0029173Y0048762D02*
G01X0029211Y0048724D01*
G01X0029211Y0048724D02*
G01X0029269Y0048704D01*
G01X0029269Y0048704D02*
G01X0029307Y0048704D01*
G01X0029307Y0048704D02*
G01X0029364Y0048724D01*
G01X0029364Y0048724D02*
G01X0029402Y0048762D01*
G01X0029402Y0048762D02*
G01X0029422Y0048800D01*
G01X0029422Y0048800D02*
G01X0029422Y0048857D01*
G01X0029422Y0048857D02*
G01X0029402Y0048896D01*
G01X0029402Y0048896D02*
G01X0029364Y0048934D01*
G01X0029154Y0049057D02*
G01X0029422Y0049057D01*
G01X0029269Y0049057D02*
G01X0029211Y0049077D01*
G01X0029211Y0049077D02*
G01X0029173Y0049115D01*
G01X0029173Y0049115D02*
G01X0029154Y0049153D01*
G01X0029154Y0049153D02*
G01X0029154Y0049211D01*
G01X0029020Y0049392D02*
G01X0029345Y0049392D01*
G01X0029345Y0049392D02*
G01X0029402Y0049411D01*
G01X0029402Y0049411D02*
G01X0029422Y0049449D01*
G01X0029422Y0049449D02*
G01X0029422Y0049487D01*
G01X0029154Y0049334D02*
G01X0029154Y0049468D01*
G01X0029020Y0049859D02*
G01X0029020Y0049611D01*
G01X0029020Y0049611D02*
G01X0029422Y0049611D01*
G01X0029422Y0049611D02*
G01X0029422Y0049859D01*
G01X0029211Y0049611D02*
G01X0029211Y0049764D01*
G01X0029020Y0050136D02*
G01X0029020Y0050098D01*
G01X0029020Y0050098D02*
G01X0029039Y0050059D01*
G01X0029039Y0050059D02*
G01X0029096Y0050040D01*
G01X0029096Y0050040D02*
G01X0029422Y0050040D01*
G01X0029154Y0049983D02*
G01X0029154Y0050117D01*
G01X0029020Y0050412D02*
G01X0029020Y0050374D01*
G01X0029020Y0050374D02*
G01X0029039Y0050336D01*
G01X0029039Y0050336D02*
G01X0029096Y0050317D01*
G01X0029096Y0050317D02*
G01X0029422Y0050317D01*
G01X0029154Y0050259D02*
G01X0029154Y0050393D01*
G01X0029269Y0050536D02*
G01X0029269Y0050765D01*
G01X0029269Y0050765D02*
G01X0029230Y0050765D01*
G01X0029230Y0050765D02*
G01X0029192Y0050746D01*
G01X0029192Y0050746D02*
G01X0029173Y0050727D01*
G01X0029173Y0050727D02*
G01X0029154Y0050689D01*
G01X0029154Y0050689D02*
G01X0029154Y0050631D01*
G01X0029154Y0050631D02*
G01X0029173Y0050593D01*
G01X0029173Y0050593D02*
G01X0029211Y0050555D01*
G01X0029211Y0050555D02*
G01X0029269Y0050536D01*
G01X0029269Y0050536D02*
G01X0029307Y0050536D01*
G01X0029307Y0050536D02*
G01X0029364Y0050555D01*
G01X0029364Y0050555D02*
G01X0029402Y0050593D01*
G01X0029402Y0050593D02*
G01X0029422Y0050631D01*
G01X0029422Y0050631D02*
G01X0029422Y0050689D01*
G01X0029422Y0050689D02*
G01X0029402Y0050727D01*
G01X0029402Y0050727D02*
G01X0029364Y0050765D01*
G01X0029211Y0051119D02*
G01X0029173Y0051080D01*
G01X0029173Y0051080D02*
G01X0029154Y0051042D01*
G01X0029154Y0051042D02*
G01X0029154Y0050985D01*
G01X0029154Y0050985D02*
G01X0029173Y0050946D01*
G01X0029173Y0050946D02*
G01X0029211Y0050908D01*
G01X0029211Y0050908D02*
G01X0029269Y0050889D01*
G01X0029269Y0050889D02*
G01X0029307Y0050889D01*
G01X0029307Y0050889D02*
G01X0029364Y0050908D01*
G01X0029364Y0050908D02*
G01X0029402Y0050946D01*
G01X0029402Y0050946D02*
G01X0029422Y0050985D01*
G01X0029422Y0050985D02*
G01X0029422Y0051042D01*
G01X0029422Y0051042D02*
G01X0029402Y0051080D01*
G01X0029402Y0051080D02*
G01X0029364Y0051119D01*
G01X0029020Y0051300D02*
G01X0029345Y0051300D01*
G01X0029345Y0051300D02*
G01X0029402Y0051319D01*
G01X0029402Y0051319D02*
G01X0029422Y0051357D01*
G01X0029422Y0051357D02*
G01X0029422Y0051395D01*
G01X0029154Y0051242D02*
G01X0029154Y0051376D01*
G01X0029154Y0051614D02*
G01X0029173Y0051576D01*
G01X0029173Y0051576D02*
G01X0029211Y0051538D01*
G01X0029211Y0051538D02*
G01X0029269Y0051519D01*
G01X0029269Y0051519D02*
G01X0029307Y0051519D01*
G01X0029307Y0051519D02*
G01X0029364Y0051538D01*
G01X0029364Y0051538D02*
G01X0029402Y0051576D01*
G01X0029402Y0051576D02*
G01X0029422Y0051614D01*
G01X0029422Y0051614D02*
G01X0029422Y0051672D01*
G01X0029422Y0051672D02*
G01X0029402Y0051710D01*
G01X0029402Y0051710D02*
G01X0029364Y0051748D01*
G01X0029364Y0051748D02*
G01X0029307Y0051768D01*
G01X0029307Y0051768D02*
G01X0029269Y0051768D01*
G01X0029269Y0051768D02*
G01X0029211Y0051748D01*
G01X0029211Y0051748D02*
G01X0029173Y0051710D01*
G01X0029173Y0051710D02*
G01X0029154Y0051672D01*
G01X0029154Y0051672D02*
G01X0029154Y0051614D01*
G01X0029154Y0051891D02*
G01X0029422Y0051891D01*
G01X0029269Y0051891D02*
G01X0029211Y0051911D01*
G01X0029211Y0051911D02*
G01X0029173Y0051949D01*
G01X0029173Y0051949D02*
G01X0029154Y0051987D01*
G01X0029154Y0051987D02*
G01X0029154Y0052045D01*
G01X0029020Y0052557D02*
G01X0029422Y0052710D01*
G01X0029422Y0052710D02*
G01X0029020Y0052863D01*
G01X0029097Y0052986D02*
G01X0029077Y0053025D01*
G01X0029077Y0053025D02*
G01X0029020Y0053082D01*
G01X0029020Y0053082D02*
G01X0029422Y0053082D01*
G01X0029383Y0053225D02*
G01X0029403Y0053206D01*
G01X0029403Y0053206D02*
G01X0029422Y0053225D01*
G01X0029422Y0053225D02*
G01X0029403Y0053244D01*
G01X0029403Y0053244D02*
G01X0029383Y0053225D01*
G01X0029020Y0053406D02*
G01X0029020Y0053616D01*
G01X0029020Y0053616D02*
G01X0029173Y0053502D01*
G01X0029173Y0053502D02*
G01X0029173Y0053559D01*
G01X0029173Y0053559D02*
G01X0029192Y0053597D01*
G01X0029192Y0053597D02*
G01X0029211Y0053616D01*
G01X0029211Y0053616D02*
G01X0029269Y0053636D01*
G01X0029269Y0053636D02*
G01X0029307Y0053636D01*
G01X0029307Y0053636D02*
G01X0029364Y0053616D01*
G01X0029364Y0053616D02*
G01X0029403Y0053578D01*
G01X0029403Y0053578D02*
G01X0029422Y0053521D01*
G01X0029422Y0053521D02*
G01X0029422Y0053463D01*
G01X0029422Y0053463D02*
G01X0029403Y0053406D01*
G01X0029403Y0053406D02*
G01X0029383Y0053387D01*
G01X0029383Y0053387D02*
G01X0029345Y0053368D01*
G01X0029020Y0054148D02*
G01X0029422Y0054148D01*
G01X0029211Y0054148D02*
G01X0029173Y0054187D01*
G01X0029173Y0054187D02*
G01X0029154Y0054225D01*
G01X0029154Y0054225D02*
G01X0029154Y0054282D01*
G01X0029154Y0054282D02*
G01X0029173Y0054320D01*
G01X0029173Y0054320D02*
G01X0029211Y0054359D01*
G01X0029211Y0054359D02*
G01X0029269Y0054378D01*
G01X0029269Y0054378D02*
G01X0029307Y0054378D01*
G01X0029307Y0054378D02*
G01X0029364Y0054359D01*
G01X0029364Y0054359D02*
G01X0029402Y0054320D01*
G01X0029402Y0054320D02*
G01X0029422Y0054282D01*
G01X0029422Y0054282D02*
G01X0029422Y0054225D01*
G01X0029422Y0054225D02*
G01X0029402Y0054187D01*
G01X0029402Y0054187D02*
G01X0029364Y0054148D01*
G01X0029154Y0054521D02*
G01X0029422Y0054635D01*
G01X0029422Y0054635D02*
G01X0029498Y0054597D01*
G01X0029498Y0054597D02*
G01X0029537Y0054559D01*
G01X0029537Y0054559D02*
G01X0029556Y0054521D01*
G01X0029556Y0054521D02*
G01X0029556Y0054501D01*
G01X0029154Y0054750D02*
G01X0029422Y0054635D01*
G01X0029020Y0055396D02*
G01X0029422Y0055396D01*
G01X0029020Y0055262D02*
G01X0029020Y0055530D01*
G01X0029020Y0055654D02*
G01X0029422Y0055654D01*
G01X0029230Y0055654D02*
G01X0029173Y0055711D01*
G01X0029173Y0055711D02*
G01X0029154Y0055750D01*
G01X0029154Y0055750D02*
G01X0029154Y0055807D01*
G01X0029154Y0055807D02*
G01X0029173Y0055845D01*
G01X0029173Y0055845D02*
G01X0029230Y0055864D01*
G01X0029230Y0055864D02*
G01X0029422Y0055864D01*
G01X0029020Y0055988D02*
G01X0029039Y0056007D01*
G01X0029039Y0056007D02*
G01X0029020Y0056026D01*
G01X0029020Y0056026D02*
G01X0029000Y0056007D01*
G01X0029000Y0056007D02*
G01X0029020Y0055988D01*
G01X0029154Y0056007D02*
G01X0029422Y0056007D01*
G01X0029154Y0056150D02*
G01X0029422Y0056150D01*
G01X0029230Y0056150D02*
G01X0029173Y0056207D01*
G01X0029173Y0056207D02*
G01X0029154Y0056246D01*
G01X0029154Y0056246D02*
G01X0029154Y0056303D01*
G01X0029154Y0056303D02*
G01X0029173Y0056341D01*
G01X0029173Y0056341D02*
G01X0029230Y0056360D01*
G01X0029230Y0056360D02*
G01X0029422Y0056360D01*
G01X0029020Y0056484D02*
G01X0029422Y0056484D01*
G01X0029154Y0056675D02*
G01X0029345Y0056484D01*
G01X0029269Y0056560D02*
G01X0029422Y0056694D01*
G01X0029020Y0056856D02*
G01X0029020Y0057066D01*
G01X0029020Y0057066D02*
G01X0029173Y0056952D01*
G01X0029173Y0056952D02*
G01X0029173Y0057009D01*
G01X0029173Y0057009D02*
G01X0029192Y0057047D01*
G01X0029192Y0057047D02*
G01X0029211Y0057066D01*
G01X0029211Y0057066D02*
G01X0029269Y0057086D01*
G01X0029269Y0057086D02*
G01X0029307Y0057086D01*
G01X0029307Y0057086D02*
G01X0029364Y0057066D01*
G01X0029364Y0057066D02*
G01X0029403Y0057028D01*
G01X0029403Y0057028D02*
G01X0029422Y0056971D01*
G01X0029422Y0056971D02*
G01X0029422Y0056913D01*
G01X0029422Y0056913D02*
G01X0029403Y0056856D01*
G01X0029403Y0056856D02*
G01X0029383Y0056837D01*
G01X0029383Y0056837D02*
G01X0029345Y0056818D01*
G01X0029020Y0057439D02*
G01X0029422Y0057439D01*
G01X0029211Y0057439D02*
G01X0029173Y0057401D01*
G01X0029173Y0057401D02*
G01X0029154Y0057362D01*
G01X0029154Y0057362D02*
G01X0029154Y0057305D01*
G01X0029154Y0057305D02*
G01X0029173Y0057267D01*
G01X0029173Y0057267D02*
G01X0029211Y0057228D01*
G01X0029211Y0057228D02*
G01X0029269Y0057209D01*
G01X0029269Y0057209D02*
G01X0029307Y0057209D01*
G01X0029307Y0057209D02*
G01X0029364Y0057228D01*
G01X0029364Y0057228D02*
G01X0029402Y0057267D01*
G01X0029402Y0057267D02*
G01X0029422Y0057305D01*
G01X0029422Y0057305D02*
G01X0029422Y0057362D01*
G01X0029422Y0057362D02*
G01X0029402Y0057401D01*
G01X0029402Y0057401D02*
G01X0029364Y0057439D01*
G01X0029230Y0057562D02*
G01X0029230Y0057735D01*
G01X0029230Y0057735D02*
G01X0029211Y0057792D01*
G01X0029211Y0057792D02*
G01X0029192Y0057811D01*
G01X0029192Y0057811D02*
G01X0029154Y0057830D01*
G01X0029154Y0057830D02*
G01X0029096Y0057830D01*
G01X0029096Y0057830D02*
G01X0029058Y0057811D01*
G01X0029058Y0057811D02*
G01X0029039Y0057792D01*
G01X0029039Y0057792D02*
G01X0029020Y0057735D01*
G01X0029020Y0057735D02*
G01X0029020Y0057562D01*
G01X0029020Y0057562D02*
G01X0029422Y0057562D01*
G01X0029154Y0057954D02*
G01X0029422Y0057954D01*
G01X0029269Y0057954D02*
G01X0029211Y0057973D01*
G01X0029211Y0057973D02*
G01X0029173Y0058011D01*
G01X0029173Y0058011D02*
G01X0029154Y0058050D01*
G01X0029154Y0058050D02*
G01X0029154Y0058107D01*
G01X0029020Y0058231D02*
G01X0029039Y0058250D01*
G01X0029039Y0058250D02*
G01X0029020Y0058269D01*
G01X0029020Y0058269D02*
G01X0029000Y0058250D01*
G01X0029000Y0058250D02*
G01X0029020Y0058231D01*
G01X0029154Y0058250D02*
G01X0029422Y0058250D01*
G01X0029154Y0058393D02*
G01X0029422Y0058393D01*
G01X0029230Y0058393D02*
G01X0029173Y0058450D01*
G01X0029173Y0058450D02*
G01X0029154Y0058488D01*
G01X0029154Y0058488D02*
G01X0029154Y0058546D01*
G01X0029154Y0058546D02*
G01X0029173Y0058584D01*
G01X0029173Y0058584D02*
G01X0029230Y0058603D01*
G01X0029230Y0058603D02*
G01X0029422Y0058603D01*
G01X0029020Y0058784D02*
G01X0029345Y0058784D01*
G01X0029345Y0058784D02*
G01X0029402Y0058803D01*
G01X0029402Y0058803D02*
G01X0029422Y0058841D01*
G01X0029422Y0058841D02*
G01X0029422Y0058879D01*
G01X0029154Y0058727D02*
G01X0029154Y0058860D01*
G01X0029020Y0059041D02*
G01X0029020Y0059251D01*
G01X0029020Y0059251D02*
G01X0029173Y0059137D01*
G01X0029173Y0059137D02*
G01X0029173Y0059194D01*
G01X0029173Y0059194D02*
G01X0029192Y0059232D01*
G01X0029192Y0059232D02*
G01X0029211Y0059251D01*
G01X0029211Y0059251D02*
G01X0029269Y0059271D01*
G01X0029269Y0059271D02*
G01X0029307Y0059271D01*
G01X0029307Y0059271D02*
G01X0029364Y0059251D01*
G01X0029364Y0059251D02*
G01X0029403Y0059213D01*
G01X0029403Y0059213D02*
G01X0029422Y0059156D01*
G01X0029422Y0059156D02*
G01X0029422Y0059099D01*
G01X0029422Y0059099D02*
G01X0029403Y0059041D01*
G01X0029403Y0059041D02*
G01X0029383Y0059022D01*
G01X0029383Y0059022D02*
G01X0029345Y0059003D01*
G01X0029020Y0059624D02*
G01X0029422Y0059624D01*
G01X0029211Y0059624D02*
G01X0029173Y0059586D01*
G01X0029173Y0059586D02*
G01X0029154Y0059547D01*
G01X0029154Y0059547D02*
G01X0029154Y0059490D01*
G01X0029154Y0059490D02*
G01X0029173Y0059452D01*
G01X0029173Y0059452D02*
G01X0029211Y0059413D01*
G01X0029211Y0059413D02*
G01X0029269Y0059394D01*
G01X0029269Y0059394D02*
G01X0029307Y0059394D01*
G01X0029307Y0059394D02*
G01X0029364Y0059413D01*
G01X0029364Y0059413D02*
G01X0029402Y0059452D01*
G01X0029402Y0059452D02*
G01X0029422Y0059490D01*
G01X0029422Y0059490D02*
G01X0029422Y0059547D01*
G01X0029422Y0059547D02*
G01X0029402Y0059586D01*
G01X0029402Y0059586D02*
G01X0029364Y0059624D01*
G01X0030040Y0043366D02*
G01X0030308Y0043366D01*
G01X0030097Y0043366D02*
G01X0030059Y0043328D01*
G01X0030059Y0043328D02*
G01X0030040Y0043289D01*
G01X0030040Y0043289D02*
G01X0030040Y0043232D01*
G01X0030040Y0043232D02*
G01X0030059Y0043194D01*
G01X0030059Y0043194D02*
G01X0030097Y0043156D01*
G01X0030097Y0043156D02*
G01X0030155Y0043136D01*
G01X0030155Y0043136D02*
G01X0030193Y0043136D01*
G01X0030193Y0043136D02*
G01X0030250Y0043156D01*
G01X0030250Y0043156D02*
G01X0030288Y0043194D01*
G01X0030288Y0043194D02*
G01X0030308Y0043232D01*
G01X0030308Y0043232D02*
G01X0030308Y0043289D01*
G01X0030308Y0043289D02*
G01X0030288Y0043328D01*
G01X0030288Y0043328D02*
G01X0030250Y0043366D01*
G01X0030040Y0043489D02*
G01X0030308Y0043489D01*
G01X0030116Y0043489D02*
G01X0030059Y0043547D01*
G01X0030059Y0043547D02*
G01X0030040Y0043585D01*
G01X0030040Y0043585D02*
G01X0030040Y0043642D01*
G01X0030040Y0043642D02*
G01X0030059Y0043681D01*
G01X0030059Y0043681D02*
G01X0030116Y0043700D01*
G01X0030116Y0043700D02*
G01X0030308Y0043700D01*
G01X0029906Y0044053D02*
G01X0030308Y0044053D01*
G01X0030097Y0044053D02*
G01X0030059Y0044015D01*
G01X0030059Y0044015D02*
G01X0030040Y0043976D01*
G01X0030040Y0043976D02*
G01X0030040Y0043919D01*
G01X0030040Y0043919D02*
G01X0030059Y0043881D01*
G01X0030059Y0043881D02*
G01X0030097Y0043842D01*
G01X0030097Y0043842D02*
G01X0030155Y0043823D01*
G01X0030155Y0043823D02*
G01X0030193Y0043823D01*
G01X0030193Y0043823D02*
G01X0030250Y0043842D01*
G01X0030250Y0043842D02*
G01X0030288Y0043881D01*
G01X0030288Y0043881D02*
G01X0030308Y0043919D01*
G01X0030308Y0043919D02*
G01X0030308Y0043976D01*
G01X0030308Y0043976D02*
G01X0030288Y0044015D01*
G01X0030288Y0044015D02*
G01X0030250Y0044053D01*
G01X0029906Y0044813D02*
G01X0029906Y0044565D01*
G01X0029906Y0044565D02*
G01X0030308Y0044565D01*
G01X0030308Y0044565D02*
G01X0030308Y0044813D01*
G01X0030097Y0044565D02*
G01X0030097Y0044718D01*
G01X0030097Y0045147D02*
G01X0030059Y0045128D01*
G01X0030059Y0045128D02*
G01X0030040Y0045071D01*
G01X0030040Y0045071D02*
G01X0030040Y0045013D01*
G01X0030040Y0045013D02*
G01X0030059Y0044956D01*
G01X0030059Y0044956D02*
G01X0030097Y0044937D01*
G01X0030097Y0044937D02*
G01X0030135Y0044956D01*
G01X0030135Y0044956D02*
G01X0030155Y0044994D01*
G01X0030155Y0044994D02*
G01X0030174Y0045090D01*
G01X0030174Y0045090D02*
G01X0030193Y0045128D01*
G01X0030193Y0045128D02*
G01X0030231Y0045147D01*
G01X0030231Y0045147D02*
G01X0030250Y0045147D01*
G01X0030250Y0045147D02*
G01X0030288Y0045128D01*
G01X0030288Y0045128D02*
G01X0030308Y0045071D01*
G01X0030308Y0045071D02*
G01X0030308Y0045013D01*
G01X0030308Y0045013D02*
G01X0030288Y0044956D01*
G01X0030288Y0044956D02*
G01X0030250Y0044937D01*
G01X0029906Y0045271D02*
G01X0030308Y0045271D01*
G01X0030116Y0045271D02*
G01X0030059Y0045328D01*
G01X0030059Y0045328D02*
G01X0030040Y0045367D01*
G01X0030040Y0045367D02*
G01X0030040Y0045424D01*
G01X0030040Y0045424D02*
G01X0030059Y0045462D01*
G01X0030059Y0045462D02*
G01X0030116Y0045481D01*
G01X0030116Y0045481D02*
G01X0030308Y0045481D01*
G01X0030155Y0045605D02*
G01X0030155Y0045834D01*
G01X0030155Y0045834D02*
G01X0030116Y0045834D01*
G01X0030116Y0045834D02*
G01X0030078Y0045815D01*
G01X0030078Y0045815D02*
G01X0030059Y0045796D01*
G01X0030059Y0045796D02*
G01X0030040Y0045758D01*
G01X0030040Y0045758D02*
G01X0030040Y0045700D01*
G01X0030040Y0045700D02*
G01X0030059Y0045662D01*
G01X0030059Y0045662D02*
G01X0030097Y0045624D01*
G01X0030097Y0045624D02*
G01X0030155Y0045605D01*
G01X0030155Y0045605D02*
G01X0030193Y0045605D01*
G01X0030193Y0045605D02*
G01X0030250Y0045624D01*
G01X0030250Y0045624D02*
G01X0030288Y0045662D01*
G01X0030288Y0045662D02*
G01X0030308Y0045700D01*
G01X0030308Y0045700D02*
G01X0030308Y0045758D01*
G01X0030308Y0045758D02*
G01X0030288Y0045796D01*
G01X0030288Y0045796D02*
G01X0030250Y0045834D01*
G01X0030040Y0045958D02*
G01X0030308Y0045958D01*
G01X0030155Y0045958D02*
G01X0030097Y0045977D01*
G01X0030097Y0045977D02*
G01X0030059Y0046015D01*
G01X0030059Y0046015D02*
G01X0030040Y0046054D01*
G01X0030040Y0046054D02*
G01X0030040Y0046111D01*
G01X0029906Y0046273D02*
G01X0029906Y0046483D01*
G01X0029906Y0046483D02*
G01X0030059Y0046369D01*
G01X0030059Y0046369D02*
G01X0030059Y0046426D01*
G01X0030059Y0046426D02*
G01X0030078Y0046464D01*
G01X0030078Y0046464D02*
G01X0030097Y0046483D01*
G01X0030097Y0046483D02*
G01X0030155Y0046503D01*
G01X0030155Y0046503D02*
G01X0030193Y0046503D01*
G01X0030193Y0046503D02*
G01X0030250Y0046483D01*
G01X0030250Y0046483D02*
G01X0030289Y0046445D01*
G01X0030289Y0046445D02*
G01X0030308Y0046388D01*
G01X0030308Y0046388D02*
G01X0030308Y0046330D01*
G01X0030308Y0046330D02*
G01X0030289Y0046273D01*
G01X0030289Y0046273D02*
G01X0030269Y0046254D01*
G01X0030269Y0046254D02*
G01X0030231Y0046235D01*
G01X0029906Y0046856D02*
G01X0030308Y0046856D01*
G01X0030097Y0046856D02*
G01X0030059Y0046818D01*
G01X0030059Y0046818D02*
G01X0030040Y0046779D01*
G01X0030040Y0046779D02*
G01X0030040Y0046722D01*
G01X0030040Y0046722D02*
G01X0030059Y0046684D01*
G01X0030059Y0046684D02*
G01X0030097Y0046645D01*
G01X0030097Y0046645D02*
G01X0030155Y0046626D01*
G01X0030155Y0046626D02*
G01X0030193Y0046626D01*
G01X0030193Y0046626D02*
G01X0030250Y0046645D01*
G01X0030250Y0046645D02*
G01X0030288Y0046684D01*
G01X0030288Y0046684D02*
G01X0030308Y0046722D01*
G01X0030308Y0046722D02*
G01X0030308Y0046779D01*
G01X0030308Y0046779D02*
G01X0030288Y0046818D01*
G01X0030288Y0046818D02*
G01X0030250Y0046856D01*
G01X0030269Y0046998D02*
G01X0030289Y0046979D01*
G01X0030289Y0046979D02*
G01X0030308Y0046998D01*
G01X0030308Y0046998D02*
G01X0030289Y0047018D01*
G01X0030289Y0047018D02*
G01X0030269Y0046998D01*
G01X0029906Y0047779D02*
G01X0029906Y0047530D01*
G01X0029906Y0047530D02*
G01X0030308Y0047530D01*
G01X0030097Y0047530D02*
G01X0030097Y0047683D01*
G01X0030040Y0047903D02*
G01X0030231Y0047903D01*
G01X0030231Y0047903D02*
G01X0030288Y0047922D01*
G01X0030288Y0047922D02*
G01X0030308Y0047960D01*
G01X0030308Y0047960D02*
G01X0030308Y0048017D01*
G01X0030308Y0048017D02*
G01X0030288Y0048056D01*
G01X0030288Y0048056D02*
G01X0030231Y0048113D01*
G01X0030040Y0048113D02*
G01X0030308Y0048113D01*
G01X0029906Y0048237D02*
G01X0030308Y0048237D01*
G01X0029906Y0048360D02*
G01X0030308Y0048360D01*
G01X0030040Y0049102D02*
G01X0030308Y0049102D01*
G01X0030097Y0049102D02*
G01X0030059Y0049064D01*
G01X0030059Y0049064D02*
G01X0030040Y0049025D01*
G01X0030040Y0049025D02*
G01X0030040Y0048968D01*
G01X0030040Y0048968D02*
G01X0030059Y0048930D01*
G01X0030059Y0048930D02*
G01X0030097Y0048892D01*
G01X0030097Y0048892D02*
G01X0030155Y0048872D01*
G01X0030155Y0048872D02*
G01X0030193Y0048872D01*
G01X0030193Y0048872D02*
G01X0030250Y0048892D01*
G01X0030250Y0048892D02*
G01X0030288Y0048930D01*
G01X0030288Y0048930D02*
G01X0030308Y0048968D01*
G01X0030308Y0048968D02*
G01X0030308Y0049025D01*
G01X0030308Y0049025D02*
G01X0030288Y0049064D01*
G01X0030288Y0049064D02*
G01X0030250Y0049102D01*
G01X0029906Y0049283D02*
G01X0030231Y0049283D01*
G01X0030231Y0049283D02*
G01X0030288Y0049302D01*
G01X0030288Y0049302D02*
G01X0030308Y0049340D01*
G01X0030308Y0049340D02*
G01X0030308Y0049378D01*
G01X0030040Y0049225D02*
G01X0030040Y0049359D01*
G01X0029906Y0049559D02*
G01X0030231Y0049559D01*
G01X0030231Y0049559D02*
G01X0030288Y0049578D01*
G01X0030288Y0049578D02*
G01X0030308Y0049617D01*
G01X0030308Y0049617D02*
G01X0030308Y0049655D01*
G01X0030040Y0049502D02*
G01X0030040Y0049636D01*
G01X0030040Y0049778D02*
G01X0030308Y0049778D01*
G01X0030155Y0049778D02*
G01X0030097Y0049798D01*
G01X0030097Y0049798D02*
G01X0030059Y0049836D01*
G01X0030059Y0049836D02*
G01X0030040Y0049874D01*
G01X0030040Y0049874D02*
G01X0030040Y0049932D01*
G01X0029906Y0050055D02*
G01X0029925Y0050074D01*
G01X0029925Y0050074D02*
G01X0029906Y0050094D01*
G01X0029906Y0050094D02*
G01X0029886Y0050074D01*
G01X0029886Y0050074D02*
G01X0029906Y0050055D01*
G01X0030040Y0050074D02*
G01X0030308Y0050074D01*
G01X0029906Y0050217D02*
G01X0030308Y0050217D01*
G01X0030097Y0050217D02*
G01X0030059Y0050256D01*
G01X0030059Y0050256D02*
G01X0030040Y0050294D01*
G01X0030040Y0050294D02*
G01X0030040Y0050351D01*
G01X0030040Y0050351D02*
G01X0030059Y0050389D01*
G01X0030059Y0050389D02*
G01X0030097Y0050428D01*
G01X0030097Y0050428D02*
G01X0030155Y0050447D01*
G01X0030155Y0050447D02*
G01X0030193Y0050447D01*
G01X0030193Y0050447D02*
G01X0030250Y0050428D01*
G01X0030250Y0050428D02*
G01X0030288Y0050389D01*
G01X0030288Y0050389D02*
G01X0030308Y0050351D01*
G01X0030308Y0050351D02*
G01X0030308Y0050294D01*
G01X0030308Y0050294D02*
G01X0030288Y0050256D01*
G01X0030288Y0050256D02*
G01X0030250Y0050217D01*
G01X0030040Y0050570D02*
G01X0030231Y0050570D01*
G01X0030231Y0050570D02*
G01X0030288Y0050589D01*
G01X0030288Y0050589D02*
G01X0030308Y0050628D01*
G01X0030308Y0050628D02*
G01X0030308Y0050685D01*
G01X0030308Y0050685D02*
G01X0030288Y0050723D01*
G01X0030288Y0050723D02*
G01X0030231Y0050781D01*
G01X0030040Y0050781D02*
G01X0030308Y0050781D01*
G01X0029906Y0050962D02*
G01X0030231Y0050962D01*
G01X0030231Y0050962D02*
G01X0030288Y0050981D01*
G01X0030288Y0050981D02*
G01X0030308Y0051019D01*
G01X0030308Y0051019D02*
G01X0030308Y0051057D01*
G01X0030040Y0050904D02*
G01X0030040Y0051038D01*
G01X0029906Y0051181D02*
G01X0029925Y0051200D01*
G01X0029925Y0051200D02*
G01X0029906Y0051219D01*
G01X0029906Y0051219D02*
G01X0029886Y0051200D01*
G01X0029886Y0051200D02*
G01X0029906Y0051181D01*
G01X0030040Y0051200D02*
G01X0030308Y0051200D01*
G01X0030040Y0051438D02*
G01X0030059Y0051400D01*
G01X0030059Y0051400D02*
G01X0030097Y0051362D01*
G01X0030097Y0051362D02*
G01X0030155Y0051343D01*
G01X0030155Y0051343D02*
G01X0030193Y0051343D01*
G01X0030193Y0051343D02*
G01X0030250Y0051362D01*
G01X0030250Y0051362D02*
G01X0030288Y0051400D01*
G01X0030288Y0051400D02*
G01X0030308Y0051438D01*
G01X0030308Y0051438D02*
G01X0030308Y0051496D01*
G01X0030308Y0051496D02*
G01X0030288Y0051534D01*
G01X0030288Y0051534D02*
G01X0030250Y0051572D01*
G01X0030250Y0051572D02*
G01X0030193Y0051592D01*
G01X0030193Y0051592D02*
G01X0030155Y0051592D01*
G01X0030155Y0051592D02*
G01X0030097Y0051572D01*
G01X0030097Y0051572D02*
G01X0030059Y0051534D01*
G01X0030059Y0051534D02*
G01X0030040Y0051496D01*
G01X0030040Y0051496D02*
G01X0030040Y0051438D01*
G01X0030040Y0051715D02*
G01X0030308Y0051715D01*
G01X0030116Y0051715D02*
G01X0030059Y0051773D01*
G01X0030059Y0051773D02*
G01X0030040Y0051811D01*
G01X0030040Y0051811D02*
G01X0030040Y0051868D01*
G01X0030040Y0051868D02*
G01X0030059Y0051907D01*
G01X0030059Y0051907D02*
G01X0030116Y0051926D01*
G01X0030116Y0051926D02*
G01X0030308Y0051926D01*
G01X0030040Y0052667D02*
G01X0030308Y0052667D01*
G01X0030097Y0052667D02*
G01X0030059Y0052629D01*
G01X0030059Y0052629D02*
G01X0030040Y0052591D01*
G01X0030040Y0052591D02*
G01X0030040Y0052534D01*
G01X0030040Y0052534D02*
G01X0030059Y0052495D01*
G01X0030059Y0052495D02*
G01X0030097Y0052457D01*
G01X0030097Y0052457D02*
G01X0030155Y0052438D01*
G01X0030155Y0052438D02*
G01X0030193Y0052438D01*
G01X0030193Y0052438D02*
G01X0030250Y0052457D01*
G01X0030250Y0052457D02*
G01X0030288Y0052495D01*
G01X0030288Y0052495D02*
G01X0030308Y0052534D01*
G01X0030308Y0052534D02*
G01X0030308Y0052591D01*
G01X0030308Y0052591D02*
G01X0030288Y0052629D01*
G01X0030288Y0052629D02*
G01X0030250Y0052667D01*
G01X0030040Y0052791D02*
G01X0030308Y0052791D01*
G01X0030116Y0052791D02*
G01X0030059Y0052848D01*
G01X0030059Y0052848D02*
G01X0030040Y0052887D01*
G01X0030040Y0052887D02*
G01X0030040Y0052944D01*
G01X0030040Y0052944D02*
G01X0030059Y0052982D01*
G01X0030059Y0052982D02*
G01X0030116Y0053001D01*
G01X0030116Y0053001D02*
G01X0030308Y0053001D01*
G01X0029906Y0053354D02*
G01X0030308Y0053354D01*
G01X0030097Y0053354D02*
G01X0030059Y0053316D01*
G01X0030059Y0053316D02*
G01X0030040Y0053278D01*
G01X0030040Y0053278D02*
G01X0030040Y0053220D01*
G01X0030040Y0053220D02*
G01X0030059Y0053182D01*
G01X0030059Y0053182D02*
G01X0030097Y0053144D01*
G01X0030097Y0053144D02*
G01X0030155Y0053125D01*
G01X0030155Y0053125D02*
G01X0030193Y0053125D01*
G01X0030193Y0053125D02*
G01X0030250Y0053144D01*
G01X0030250Y0053144D02*
G01X0030288Y0053182D01*
G01X0030288Y0053182D02*
G01X0030308Y0053220D01*
G01X0030308Y0053220D02*
G01X0030308Y0053278D01*
G01X0030308Y0053278D02*
G01X0030288Y0053316D01*
G01X0030288Y0053316D02*
G01X0030250Y0053354D01*
G01X0030001Y0054154D02*
G01X0029963Y0054135D01*
G01X0029963Y0054135D02*
G01X0029925Y0054096D01*
G01X0029925Y0054096D02*
G01X0029906Y0054058D01*
G01X0029906Y0054058D02*
G01X0029906Y0053982D01*
G01X0029906Y0053982D02*
G01X0029925Y0053943D01*
G01X0029925Y0053943D02*
G01X0029963Y0053905D01*
G01X0029963Y0053905D02*
G01X0030001Y0053886D01*
G01X0030001Y0053886D02*
G01X0030059Y0053867D01*
G01X0030059Y0053867D02*
G01X0030155Y0053867D01*
G01X0030155Y0053867D02*
G01X0030212Y0053886D01*
G01X0030212Y0053886D02*
G01X0030250Y0053905D01*
G01X0030250Y0053905D02*
G01X0030288Y0053943D01*
G01X0030288Y0053943D02*
G01X0030308Y0053982D01*
G01X0030308Y0053982D02*
G01X0030308Y0054058D01*
G01X0030308Y0054058D02*
G01X0030288Y0054096D01*
G01X0030288Y0054096D02*
G01X0030250Y0054135D01*
G01X0030250Y0054135D02*
G01X0030212Y0054154D01*
G01X0029906Y0054526D02*
G01X0029906Y0054277D01*
G01X0029906Y0054277D02*
G01X0030308Y0054277D01*
G01X0030308Y0054277D02*
G01X0030308Y0054526D01*
G01X0030097Y0054277D02*
G01X0030097Y0054430D01*
G01X0030097Y0054649D02*
G01X0030097Y0054821D01*
G01X0030097Y0054821D02*
G01X0030078Y0054879D01*
G01X0030078Y0054879D02*
G01X0030059Y0054898D01*
G01X0030059Y0054898D02*
G01X0030021Y0054917D01*
G01X0030021Y0054917D02*
G01X0029982Y0054917D01*
G01X0029982Y0054917D02*
G01X0029944Y0054898D01*
G01X0029944Y0054898D02*
G01X0029925Y0054879D01*
G01X0029925Y0054879D02*
G01X0029906Y0054821D01*
G01X0029906Y0054821D02*
G01X0029906Y0054649D01*
G01X0029906Y0054649D02*
G01X0030308Y0054649D01*
G01X0030097Y0054783D02*
G01X0030308Y0054917D01*
G01X0029906Y0055309D02*
G01X0030308Y0055309D01*
G01X0030308Y0055309D02*
G01X0029906Y0055041D01*
G01X0029906Y0055041D02*
G01X0030308Y0055041D01*
G01X0029906Y0055821D02*
G01X0030308Y0055821D01*
G01X0029906Y0055944D02*
G01X0029925Y0055963D01*
G01X0029925Y0055963D02*
G01X0029906Y0055983D01*
G01X0029906Y0055983D02*
G01X0029886Y0055963D01*
G01X0029886Y0055963D02*
G01X0029906Y0055944D01*
G01X0030040Y0055963D02*
G01X0030308Y0055963D01*
G01X0030097Y0056336D02*
G01X0030059Y0056298D01*
G01X0030059Y0056298D02*
G01X0030040Y0056259D01*
G01X0030040Y0056259D02*
G01X0030040Y0056202D01*
G01X0030040Y0056202D02*
G01X0030059Y0056164D01*
G01X0030059Y0056164D02*
G01X0030097Y0056126D01*
G01X0030097Y0056126D02*
G01X0030155Y0056106D01*
G01X0030155Y0056106D02*
G01X0030193Y0056106D01*
G01X0030193Y0056106D02*
G01X0030250Y0056126D01*
G01X0030250Y0056126D02*
G01X0030288Y0056164D01*
G01X0030288Y0056164D02*
G01X0030308Y0056202D01*
G01X0030308Y0056202D02*
G01X0030308Y0056259D01*
G01X0030308Y0056259D02*
G01X0030288Y0056298D01*
G01X0030288Y0056298D02*
G01X0030250Y0056336D01*
G01X0030155Y0056460D02*
G01X0030155Y0056689D01*
G01X0030155Y0056689D02*
G01X0030116Y0056689D01*
G01X0030116Y0056689D02*
G01X0030078Y0056670D01*
G01X0030078Y0056670D02*
G01X0030059Y0056651D01*
G01X0030059Y0056651D02*
G01X0030040Y0056613D01*
G01X0030040Y0056613D02*
G01X0030040Y0056555D01*
G01X0030040Y0056555D02*
G01X0030059Y0056517D01*
G01X0030059Y0056517D02*
G01X0030097Y0056479D01*
G01X0030097Y0056479D02*
G01X0030155Y0056460D01*
G01X0030155Y0056460D02*
G01X0030193Y0056460D01*
G01X0030193Y0056460D02*
G01X0030250Y0056479D01*
G01X0030250Y0056479D02*
G01X0030288Y0056517D01*
G01X0030288Y0056517D02*
G01X0030308Y0056555D01*
G01X0030308Y0056555D02*
G01X0030308Y0056613D01*
G01X0030308Y0056613D02*
G01X0030288Y0056651D01*
G01X0030288Y0056651D02*
G01X0030250Y0056689D01*
G01X0030040Y0056813D02*
G01X0030308Y0056813D01*
G01X0030116Y0056813D02*
G01X0030059Y0056870D01*
G01X0030059Y0056870D02*
G01X0030040Y0056909D01*
G01X0030040Y0056909D02*
G01X0030040Y0056966D01*
G01X0030040Y0056966D02*
G01X0030059Y0057004D01*
G01X0030059Y0057004D02*
G01X0030116Y0057023D01*
G01X0030116Y0057023D02*
G01X0030308Y0057023D01*
G01X0030097Y0057357D02*
G01X0030059Y0057338D01*
G01X0030059Y0057338D02*
G01X0030040Y0057281D01*
G01X0030040Y0057281D02*
G01X0030040Y0057223D01*
G01X0030040Y0057223D02*
G01X0030059Y0057166D01*
G01X0030059Y0057166D02*
G01X0030097Y0057147D01*
G01X0030097Y0057147D02*
G01X0030135Y0057166D01*
G01X0030135Y0057166D02*
G01X0030155Y0057204D01*
G01X0030155Y0057204D02*
G01X0030174Y0057300D01*
G01X0030174Y0057300D02*
G01X0030193Y0057338D01*
G01X0030193Y0057338D02*
G01X0030231Y0057357D01*
G01X0030231Y0057357D02*
G01X0030250Y0057357D01*
G01X0030250Y0057357D02*
G01X0030288Y0057338D01*
G01X0030288Y0057338D02*
G01X0030308Y0057281D01*
G01X0030308Y0057281D02*
G01X0030308Y0057223D01*
G01X0030308Y0057223D02*
G01X0030288Y0057166D01*
G01X0030288Y0057166D02*
G01X0030250Y0057147D01*
G01X0030155Y0057481D02*
G01X0030155Y0057710D01*
G01X0030155Y0057710D02*
G01X0030116Y0057710D01*
G01X0030116Y0057710D02*
G01X0030078Y0057691D01*
G01X0030078Y0057691D02*
G01X0030059Y0057672D01*
G01X0030059Y0057672D02*
G01X0030040Y0057634D01*
G01X0030040Y0057634D02*
G01X0030040Y0057576D01*
G01X0030040Y0057576D02*
G01X0030059Y0057538D01*
G01X0030059Y0057538D02*
G01X0030097Y0057500D01*
G01X0030097Y0057500D02*
G01X0030155Y0057481D01*
G01X0030155Y0057481D02*
G01X0030193Y0057481D01*
G01X0030193Y0057481D02*
G01X0030250Y0057500D01*
G01X0030250Y0057500D02*
G01X0030288Y0057538D01*
G01X0030288Y0057538D02*
G01X0030308Y0057576D01*
G01X0030308Y0057576D02*
G01X0030308Y0057634D01*
G01X0030308Y0057634D02*
G01X0030288Y0057672D01*
G01X0030288Y0057672D02*
G01X0030250Y0057710D01*
G01X0029906Y0058376D02*
G01X0029906Y0058338D01*
G01X0029906Y0058338D02*
G01X0029925Y0058299D01*
G01X0029925Y0058299D02*
G01X0029982Y0058280D01*
G01X0029982Y0058280D02*
G01X0030308Y0058280D01*
G01X0030040Y0058223D02*
G01X0030040Y0058357D01*
G01X0030040Y0058595D02*
G01X0030059Y0058557D01*
G01X0030059Y0058557D02*
G01X0030097Y0058518D01*
G01X0030097Y0058518D02*
G01X0030155Y0058499D01*
G01X0030155Y0058499D02*
G01X0030193Y0058499D01*
G01X0030193Y0058499D02*
G01X0030250Y0058518D01*
G01X0030250Y0058518D02*
G01X0030288Y0058557D01*
G01X0030288Y0058557D02*
G01X0030308Y0058595D01*
G01X0030308Y0058595D02*
G01X0030308Y0058652D01*
G01X0030308Y0058652D02*
G01X0030288Y0058691D01*
G01X0030288Y0058691D02*
G01X0030250Y0058729D01*
G01X0030250Y0058729D02*
G01X0030193Y0058748D01*
G01X0030193Y0058748D02*
G01X0030155Y0058748D01*
G01X0030155Y0058748D02*
G01X0030097Y0058729D01*
G01X0030097Y0058729D02*
G01X0030059Y0058691D01*
G01X0030059Y0058691D02*
G01X0030040Y0058652D01*
G01X0030040Y0058652D02*
G01X0030040Y0058595D01*
G01X0030040Y0058872D02*
G01X0030231Y0058872D01*
G01X0030231Y0058872D02*
G01X0030288Y0058891D01*
G01X0030288Y0058891D02*
G01X0030308Y0058929D01*
G01X0030308Y0058929D02*
G01X0030308Y0058987D01*
G01X0030308Y0058987D02*
G01X0030288Y0059025D01*
G01X0030288Y0059025D02*
G01X0030231Y0059082D01*
G01X0030040Y0059082D02*
G01X0030308Y0059082D01*
G01X0030040Y0059206D02*
G01X0030308Y0059206D01*
G01X0030116Y0059206D02*
G01X0030059Y0059263D01*
G01X0030059Y0059263D02*
G01X0030040Y0059302D01*
G01X0030040Y0059302D02*
G01X0030040Y0059359D01*
G01X0030040Y0059359D02*
G01X0030059Y0059397D01*
G01X0030059Y0059397D02*
G01X0030116Y0059416D01*
G01X0030116Y0059416D02*
G01X0030308Y0059416D01*
G01X0029906Y0059769D02*
G01X0030308Y0059769D01*
G01X0030097Y0059769D02*
G01X0030059Y0059731D01*
G01X0030059Y0059731D02*
G01X0030040Y0059693D01*
G01X0030040Y0059693D02*
G01X0030040Y0059635D01*
G01X0030040Y0059635D02*
G01X0030059Y0059597D01*
G01X0030059Y0059597D02*
G01X0030097Y0059559D01*
G01X0030097Y0059559D02*
G01X0030155Y0059540D01*
G01X0030155Y0059540D02*
G01X0030193Y0059540D01*
G01X0030193Y0059540D02*
G01X0030250Y0059559D01*
G01X0030250Y0059559D02*
G01X0030288Y0059597D01*
G01X0030288Y0059597D02*
G01X0030308Y0059635D01*
G01X0030308Y0059635D02*
G01X0030308Y0059693D01*
G01X0030308Y0059693D02*
G01X0030288Y0059731D01*
G01X0030288Y0059731D02*
G01X0030250Y0059769D01*
G01X0030881Y0043356D02*
G01X0031187Y0043356D01*
G01X0031187Y0043356D02*
G01X0031244Y0043337D01*
G01X0031244Y0043337D02*
G01X0031263Y0043318D01*
G01X0031263Y0043318D02*
G01X0031282Y0043280D01*
G01X0031282Y0043280D02*
G01X0031282Y0043222D01*
G01X0031282Y0043222D02*
G01X0031263Y0043184D01*
G01X0030938Y0043356D02*
G01X0030900Y0043318D01*
G01X0030900Y0043318D02*
G01X0030881Y0043280D01*
G01X0030881Y0043280D02*
G01X0030881Y0043222D01*
G01X0030881Y0043222D02*
G01X0030900Y0043184D01*
G01X0030900Y0043184D02*
G01X0030938Y0043146D01*
G01X0030938Y0043146D02*
G01X0030995Y0043127D01*
G01X0030995Y0043127D02*
G01X0031034Y0043127D01*
G01X0031034Y0043127D02*
G01X0031091Y0043146D01*
G01X0031091Y0043146D02*
G01X0031129Y0043184D01*
G01X0031129Y0043184D02*
G01X0031148Y0043222D01*
G01X0031148Y0043222D02*
G01X0031148Y0043280D01*
G01X0031148Y0043280D02*
G01X0031129Y0043318D01*
G01X0031129Y0043318D02*
G01X0031091Y0043356D01*
G01X0030728Y0043480D02*
G01X0030747Y0043499D01*
G01X0030747Y0043499D02*
G01X0030728Y0043518D01*
G01X0030728Y0043518D02*
G01X0030708Y0043499D01*
G01X0030708Y0043499D02*
G01X0030728Y0043480D01*
G01X0030862Y0043499D02*
G01X0031129Y0043499D01*
G01X0030728Y0043699D02*
G01X0031053Y0043699D01*
G01X0031053Y0043699D02*
G01X0031110Y0043718D01*
G01X0031110Y0043718D02*
G01X0031129Y0043757D01*
G01X0031129Y0043757D02*
G01X0031129Y0043795D01*
G01X0030862Y0043642D02*
G01X0030862Y0043776D01*
G01X0030728Y0043918D02*
G01X0031129Y0043918D01*
G01X0030938Y0043918D02*
G01X0030881Y0043976D01*
G01X0030881Y0043976D02*
G01X0030862Y0044014D01*
G01X0030862Y0044014D02*
G01X0030862Y0044072D01*
G01X0030862Y0044072D02*
G01X0030881Y0044110D01*
G01X0030881Y0044110D02*
G01X0030938Y0044129D01*
G01X0030938Y0044129D02*
G01X0031129Y0044129D01*
G01X0030862Y0044252D02*
G01X0031053Y0044252D01*
G01X0031053Y0044252D02*
G01X0031110Y0044271D01*
G01X0031110Y0044271D02*
G01X0031129Y0044310D01*
G01X0031129Y0044310D02*
G01X0031129Y0044367D01*
G01X0031129Y0044367D02*
G01X0031110Y0044405D01*
G01X0031110Y0044405D02*
G01X0031053Y0044463D01*
G01X0030862Y0044463D02*
G01X0031129Y0044463D01*
G01X0030728Y0044586D02*
G01X0031129Y0044586D01*
G01X0030919Y0044586D02*
G01X0030881Y0044625D01*
G01X0030881Y0044625D02*
G01X0030862Y0044663D01*
G01X0030862Y0044663D02*
G01X0030862Y0044720D01*
G01X0030862Y0044720D02*
G01X0030881Y0044758D01*
G01X0030881Y0044758D02*
G01X0030919Y0044797D01*
G01X0030919Y0044797D02*
G01X0030976Y0044816D01*
G01X0030976Y0044816D02*
G01X0031015Y0044816D01*
G01X0031015Y0044816D02*
G01X0031072Y0044797D01*
G01X0031072Y0044797D02*
G01X0031110Y0044758D01*
G01X0031110Y0044758D02*
G01X0031129Y0044720D01*
G01X0031129Y0044720D02*
G01X0031129Y0044663D01*
G01X0031129Y0044663D02*
G01X0031110Y0044625D01*
G01X0031110Y0044625D02*
G01X0031072Y0044586D01*
G01X0031091Y0044958D02*
G01X0031110Y0044939D01*
G01X0031110Y0044939D02*
G01X0031129Y0044958D01*
G01X0031129Y0044958D02*
G01X0031110Y0044978D01*
G01X0031110Y0044978D02*
G01X0031091Y0044958D01*
G01X0030919Y0045331D02*
G01X0030881Y0045293D01*
G01X0030881Y0045293D02*
G01X0030862Y0045254D01*
G01X0030862Y0045254D02*
G01X0030862Y0045197D01*
G01X0030862Y0045197D02*
G01X0030881Y0045159D01*
G01X0030881Y0045159D02*
G01X0030919Y0045121D01*
G01X0030919Y0045121D02*
G01X0030976Y0045101D01*
G01X0030976Y0045101D02*
G01X0031015Y0045101D01*
G01X0031015Y0045101D02*
G01X0031072Y0045121D01*
G01X0031072Y0045121D02*
G01X0031110Y0045159D01*
G01X0031110Y0045159D02*
G01X0031129Y0045197D01*
G01X0031129Y0045197D02*
G01X0031129Y0045254D01*
G01X0031129Y0045254D02*
G01X0031110Y0045293D01*
G01X0031110Y0045293D02*
G01X0031072Y0045331D01*
G01X0030862Y0045550D02*
G01X0030881Y0045512D01*
G01X0030881Y0045512D02*
G01X0030919Y0045474D01*
G01X0030919Y0045474D02*
G01X0030976Y0045455D01*
G01X0030976Y0045455D02*
G01X0031015Y0045455D01*
G01X0031015Y0045455D02*
G01X0031072Y0045474D01*
G01X0031072Y0045474D02*
G01X0031110Y0045512D01*
G01X0031110Y0045512D02*
G01X0031129Y0045550D01*
G01X0031129Y0045550D02*
G01X0031129Y0045608D01*
G01X0031129Y0045608D02*
G01X0031110Y0045646D01*
G01X0031110Y0045646D02*
G01X0031072Y0045684D01*
G01X0031072Y0045684D02*
G01X0031015Y0045704D01*
G01X0031015Y0045704D02*
G01X0030976Y0045704D01*
G01X0030976Y0045704D02*
G01X0030919Y0045684D01*
G01X0030919Y0045684D02*
G01X0030881Y0045646D01*
G01X0030881Y0045646D02*
G01X0030862Y0045608D01*
G01X0030862Y0045608D02*
G01X0030862Y0045550D01*
G01X0030862Y0045827D02*
G01X0031129Y0045827D01*
G01X0030938Y0045827D02*
G01X0030881Y0045885D01*
G01X0030881Y0045885D02*
G01X0030862Y0045923D01*
G01X0030862Y0045923D02*
G01X0030862Y0045980D01*
G01X0030862Y0045980D02*
G01X0030881Y0046019D01*
G01X0030881Y0046019D02*
G01X0030938Y0046038D01*
G01X0030938Y0046038D02*
G01X0031129Y0046038D01*
G01X0030938Y0046038D02*
G01X0030881Y0046095D01*
G01X0030881Y0046095D02*
G01X0030862Y0046134D01*
G01X0030862Y0046134D02*
G01X0030862Y0046191D01*
G01X0030862Y0046191D02*
G01X0030881Y0046229D01*
G01X0030881Y0046229D02*
G01X0030938Y0046249D01*
G01X0030938Y0046249D02*
G01X0031129Y0046249D01*
G01X0031129Y0046372D02*
G01X0030728Y0046640D01*
G01X0030919Y0046974D02*
G01X0030881Y0046955D01*
G01X0030881Y0046955D02*
G01X0030862Y0046897D01*
G01X0030862Y0046897D02*
G01X0030862Y0046840D01*
G01X0030862Y0046840D02*
G01X0030881Y0046783D01*
G01X0030881Y0046783D02*
G01X0030919Y0046764D01*
G01X0030919Y0046764D02*
G01X0030957Y0046783D01*
G01X0030957Y0046783D02*
G01X0030976Y0046821D01*
G01X0030976Y0046821D02*
G01X0030995Y0046916D01*
G01X0030995Y0046916D02*
G01X0031015Y0046955D01*
G01X0031015Y0046955D02*
G01X0031053Y0046974D01*
G01X0031053Y0046974D02*
G01X0031072Y0046974D01*
G01X0031072Y0046974D02*
G01X0031110Y0046955D01*
G01X0031110Y0046955D02*
G01X0031129Y0046897D01*
G01X0031129Y0046897D02*
G01X0031129Y0046840D01*
G01X0031129Y0046840D02*
G01X0031110Y0046783D01*
G01X0031110Y0046783D02*
G01X0031072Y0046764D01*
G01X0030976Y0047097D02*
G01X0030976Y0047327D01*
G01X0030976Y0047327D02*
G01X0030938Y0047327D01*
G01X0030938Y0047327D02*
G01X0030900Y0047308D01*
G01X0030900Y0047308D02*
G01X0030881Y0047289D01*
G01X0030881Y0047289D02*
G01X0030862Y0047250D01*
G01X0030862Y0047250D02*
G01X0030862Y0047193D01*
G01X0030862Y0047193D02*
G01X0030881Y0047155D01*
G01X0030881Y0047155D02*
G01X0030919Y0047117D01*
G01X0030919Y0047117D02*
G01X0030976Y0047097D01*
G01X0030976Y0047097D02*
G01X0031015Y0047097D01*
G01X0031015Y0047097D02*
G01X0031072Y0047117D01*
G01X0031072Y0047117D02*
G01X0031110Y0047155D01*
G01X0031110Y0047155D02*
G01X0031129Y0047193D01*
G01X0031129Y0047193D02*
G01X0031129Y0047250D01*
G01X0031129Y0047250D02*
G01X0031110Y0047289D01*
G01X0031110Y0047289D02*
G01X0031072Y0047327D01*
G01X0030976Y0047450D02*
G01X0030976Y0047680D01*
G01X0030976Y0047680D02*
G01X0030938Y0047680D01*
G01X0030938Y0047680D02*
G01X0030900Y0047661D01*
G01X0030900Y0047661D02*
G01X0030881Y0047642D01*
G01X0030881Y0047642D02*
G01X0030862Y0047603D01*
G01X0030862Y0047603D02*
G01X0030862Y0047546D01*
G01X0030862Y0047546D02*
G01X0030881Y0047508D01*
G01X0030881Y0047508D02*
G01X0030919Y0047469D01*
G01X0030919Y0047469D02*
G01X0030976Y0047450D01*
G01X0030976Y0047450D02*
G01X0031015Y0047450D01*
G01X0031015Y0047450D02*
G01X0031072Y0047469D01*
G01X0031072Y0047469D02*
G01X0031110Y0047508D01*
G01X0031110Y0047508D02*
G01X0031129Y0047546D01*
G01X0031129Y0047546D02*
G01X0031129Y0047603D01*
G01X0031129Y0047603D02*
G01X0031110Y0047642D01*
G01X0031110Y0047642D02*
G01X0031072Y0047680D01*
G01X0030862Y0047803D02*
G01X0031129Y0047803D01*
G01X0030938Y0047803D02*
G01X0030881Y0047861D01*
G01X0030881Y0047861D02*
G01X0030862Y0047899D01*
G01X0030862Y0047899D02*
G01X0030862Y0047956D01*
G01X0030862Y0047956D02*
G01X0030881Y0047995D01*
G01X0030881Y0047995D02*
G01X0030938Y0048014D01*
G01X0030938Y0048014D02*
G01X0031129Y0048014D01*
G01X0030938Y0048014D02*
G01X0030881Y0048071D01*
G01X0030881Y0048071D02*
G01X0030862Y0048110D01*
G01X0030862Y0048110D02*
G01X0030862Y0048167D01*
G01X0030862Y0048167D02*
G01X0030881Y0048205D01*
G01X0030881Y0048205D02*
G01X0030938Y0048225D01*
G01X0030938Y0048225D02*
G01X0031129Y0048225D01*
G01X0030976Y0048348D02*
G01X0030976Y0048578D01*
G01X0030976Y0048578D02*
G01X0030938Y0048578D01*
G01X0030938Y0048578D02*
G01X0030900Y0048559D01*
G01X0030900Y0048559D02*
G01X0030881Y0048540D01*
G01X0030881Y0048540D02*
G01X0030862Y0048501D01*
G01X0030862Y0048501D02*
G01X0030862Y0048444D01*
G01X0030862Y0048444D02*
G01X0030881Y0048406D01*
G01X0030881Y0048406D02*
G01X0030919Y0048367D01*
G01X0030919Y0048367D02*
G01X0030976Y0048348D01*
G01X0030976Y0048348D02*
G01X0031015Y0048348D01*
G01X0031015Y0048348D02*
G01X0031072Y0048367D01*
G01X0031072Y0048367D02*
G01X0031110Y0048406D01*
G01X0031110Y0048406D02*
G01X0031129Y0048444D01*
G01X0031129Y0048444D02*
G01X0031129Y0048501D01*
G01X0031129Y0048501D02*
G01X0031110Y0048540D01*
G01X0031110Y0048540D02*
G01X0031072Y0048578D01*
G01X0030919Y0048931D02*
G01X0030881Y0048893D01*
G01X0030881Y0048893D02*
G01X0030862Y0048854D01*
G01X0030862Y0048854D02*
G01X0030862Y0048797D01*
G01X0030862Y0048797D02*
G01X0030881Y0048759D01*
G01X0030881Y0048759D02*
G01X0030919Y0048721D01*
G01X0030919Y0048721D02*
G01X0030976Y0048701D01*
G01X0030976Y0048701D02*
G01X0031015Y0048701D01*
G01X0031015Y0048701D02*
G01X0031072Y0048721D01*
G01X0031072Y0048721D02*
G01X0031110Y0048759D01*
G01X0031110Y0048759D02*
G01X0031129Y0048797D01*
G01X0031129Y0048797D02*
G01X0031129Y0048854D01*
G01X0031129Y0048854D02*
G01X0031110Y0048893D01*
G01X0031110Y0048893D02*
G01X0031072Y0048931D01*
G01X0030862Y0049055D02*
G01X0031129Y0049055D01*
G01X0030938Y0049055D02*
G01X0030881Y0049112D01*
G01X0030881Y0049112D02*
G01X0030862Y0049151D01*
G01X0030862Y0049151D02*
G01X0030862Y0049208D01*
G01X0030862Y0049208D02*
G01X0030881Y0049246D01*
G01X0030881Y0049246D02*
G01X0030938Y0049265D01*
G01X0030938Y0049265D02*
G01X0031129Y0049265D01*
G01X0030919Y0049619D02*
G01X0030881Y0049580D01*
G01X0030881Y0049580D02*
G01X0030862Y0049542D01*
G01X0030862Y0049542D02*
G01X0030862Y0049485D01*
G01X0030862Y0049485D02*
G01X0030881Y0049446D01*
G01X0030881Y0049446D02*
G01X0030919Y0049408D01*
G01X0030919Y0049408D02*
G01X0030976Y0049389D01*
G01X0030976Y0049389D02*
G01X0031015Y0049389D01*
G01X0031015Y0049389D02*
G01X0031072Y0049408D01*
G01X0031072Y0049408D02*
G01X0031110Y0049446D01*
G01X0031110Y0049446D02*
G01X0031129Y0049485D01*
G01X0031129Y0049485D02*
G01X0031129Y0049542D01*
G01X0031129Y0049542D02*
G01X0031110Y0049580D01*
G01X0031110Y0049580D02*
G01X0031072Y0049619D01*
G01X0031129Y0049742D02*
G01X0030728Y0050010D01*
G01X0031129Y0050440D02*
G01X0030728Y0050440D01*
G01X0030728Y0050440D02*
G01X0031129Y0050287D01*
G01X0031129Y0050287D02*
G01X0030728Y0050134D01*
G01X0030728Y0050134D02*
G01X0031129Y0050134D01*
G01X0030862Y0050793D02*
G01X0031129Y0050793D01*
G01X0030919Y0050793D02*
G01X0030881Y0050755D01*
G01X0030881Y0050755D02*
G01X0030862Y0050716D01*
G01X0030862Y0050716D02*
G01X0030862Y0050659D01*
G01X0030862Y0050659D02*
G01X0030881Y0050621D01*
G01X0030881Y0050621D02*
G01X0030919Y0050583D01*
G01X0030919Y0050583D02*
G01X0030976Y0050563D01*
G01X0030976Y0050563D02*
G01X0031015Y0050563D01*
G01X0031015Y0050563D02*
G01X0031072Y0050583D01*
G01X0031072Y0050583D02*
G01X0031110Y0050621D01*
G01X0031110Y0050621D02*
G01X0031129Y0050659D01*
G01X0031129Y0050659D02*
G01X0031129Y0050716D01*
G01X0031129Y0050716D02*
G01X0031110Y0050755D01*
G01X0031110Y0050755D02*
G01X0031072Y0050793D01*
G01X0030919Y0051146D02*
G01X0030881Y0051108D01*
G01X0030881Y0051108D02*
G01X0030862Y0051069D01*
G01X0030862Y0051069D02*
G01X0030862Y0051012D01*
G01X0030862Y0051012D02*
G01X0030881Y0050974D01*
G01X0030881Y0050974D02*
G01X0030919Y0050936D01*
G01X0030919Y0050936D02*
G01X0030976Y0050916D01*
G01X0030976Y0050916D02*
G01X0031015Y0050916D01*
G01X0031015Y0050916D02*
G01X0031072Y0050936D01*
G01X0031072Y0050936D02*
G01X0031110Y0050974D01*
G01X0031110Y0050974D02*
G01X0031129Y0051012D01*
G01X0031129Y0051012D02*
G01X0031129Y0051069D01*
G01X0031129Y0051069D02*
G01X0031110Y0051108D01*
G01X0031110Y0051108D02*
G01X0031072Y0051146D01*
G01X0030728Y0051270D02*
G01X0031129Y0051270D01*
G01X0030938Y0051270D02*
G01X0030881Y0051327D01*
G01X0030881Y0051327D02*
G01X0030862Y0051366D01*
G01X0030862Y0051366D02*
G01X0030862Y0051423D01*
G01X0030862Y0051423D02*
G01X0030881Y0051461D01*
G01X0030881Y0051461D02*
G01X0030938Y0051480D01*
G01X0030938Y0051480D02*
G01X0031129Y0051480D01*
G01X0030728Y0051604D02*
G01X0030747Y0051623D01*
G01X0030747Y0051623D02*
G01X0030728Y0051642D01*
G01X0030728Y0051642D02*
G01X0030708Y0051623D01*
G01X0030708Y0051623D02*
G01X0030728Y0051604D01*
G01X0030862Y0051623D02*
G01X0031129Y0051623D01*
G01X0030862Y0051766D02*
G01X0031129Y0051766D01*
G01X0030938Y0051766D02*
G01X0030881Y0051823D01*
G01X0030881Y0051823D02*
G01X0030862Y0051861D01*
G01X0030862Y0051861D02*
G01X0030862Y0051919D01*
G01X0030862Y0051919D02*
G01X0030881Y0051957D01*
G01X0030881Y0051957D02*
G01X0030938Y0051976D01*
G01X0030938Y0051976D02*
G01X0031129Y0051976D01*
G01X0030976Y0052100D02*
G01X0030976Y0052329D01*
G01X0030976Y0052329D02*
G01X0030938Y0052329D01*
G01X0030938Y0052329D02*
G01X0030900Y0052310D01*
G01X0030900Y0052310D02*
G01X0030881Y0052291D01*
G01X0030881Y0052291D02*
G01X0030862Y0052253D01*
G01X0030862Y0052253D02*
G01X0030862Y0052195D01*
G01X0030862Y0052195D02*
G01X0030881Y0052157D01*
G01X0030881Y0052157D02*
G01X0030919Y0052119D01*
G01X0030919Y0052119D02*
G01X0030976Y0052100D01*
G01X0030976Y0052100D02*
G01X0031015Y0052100D01*
G01X0031015Y0052100D02*
G01X0031072Y0052119D01*
G01X0031072Y0052119D02*
G01X0031110Y0052157D01*
G01X0031110Y0052157D02*
G01X0031129Y0052195D01*
G01X0031129Y0052195D02*
G01X0031129Y0052253D01*
G01X0031129Y0052253D02*
G01X0031110Y0052291D01*
G01X0031110Y0052291D02*
G01X0031072Y0052329D01*
G01X0031196Y0052453D02*
G01X0031196Y0052816D01*
G01X0030728Y0053188D02*
G01X0030728Y0052939D01*
G01X0030728Y0052939D02*
G01X0031129Y0052939D01*
G01X0031129Y0052939D02*
G01X0031129Y0053188D01*
G01X0030919Y0052939D02*
G01X0030919Y0053092D01*
G01X0030728Y0053311D02*
G01X0031129Y0053311D01*
G01X0030976Y0053435D02*
G01X0030976Y0053664D01*
G01X0030976Y0053664D02*
G01X0030938Y0053664D01*
G01X0030938Y0053664D02*
G01X0030900Y0053645D01*
G01X0030900Y0053645D02*
G01X0030881Y0053626D01*
G01X0030881Y0053626D02*
G01X0030862Y0053588D01*
G01X0030862Y0053588D02*
G01X0030862Y0053531D01*
G01X0030862Y0053531D02*
G01X0030881Y0053492D01*
G01X0030881Y0053492D02*
G01X0030919Y0053454D01*
G01X0030919Y0053454D02*
G01X0030976Y0053435D01*
G01X0030976Y0053435D02*
G01X0031015Y0053435D01*
G01X0031015Y0053435D02*
G01X0031072Y0053454D01*
G01X0031072Y0053454D02*
G01X0031110Y0053492D01*
G01X0031110Y0053492D02*
G01X0031129Y0053531D01*
G01X0031129Y0053531D02*
G01X0031129Y0053588D01*
G01X0031129Y0053588D02*
G01X0031110Y0053626D01*
G01X0031110Y0053626D02*
G01X0031072Y0053664D01*
G01X0030862Y0053788D02*
G01X0031129Y0053788D01*
G01X0030938Y0053788D02*
G01X0030881Y0053845D01*
G01X0030881Y0053845D02*
G01X0030862Y0053884D01*
G01X0030862Y0053884D02*
G01X0030862Y0053941D01*
G01X0030862Y0053941D02*
G01X0030881Y0053979D01*
G01X0030881Y0053979D02*
G01X0030938Y0053998D01*
G01X0030938Y0053998D02*
G01X0031129Y0053998D01*
G01X0030938Y0053998D02*
G01X0030881Y0054056D01*
G01X0030881Y0054056D02*
G01X0030862Y0054094D01*
G01X0030862Y0054094D02*
G01X0030862Y0054151D01*
G01X0030862Y0054151D02*
G01X0030881Y0054190D01*
G01X0030881Y0054190D02*
G01X0030938Y0054209D01*
G01X0030938Y0054209D02*
G01X0031129Y0054209D01*
G01X0030976Y0054333D02*
G01X0030976Y0054562D01*
G01X0030976Y0054562D02*
G01X0030938Y0054562D01*
G01X0030938Y0054562D02*
G01X0030900Y0054543D01*
G01X0030900Y0054543D02*
G01X0030881Y0054524D01*
G01X0030881Y0054524D02*
G01X0030862Y0054486D01*
G01X0030862Y0054486D02*
G01X0030862Y0054428D01*
G01X0030862Y0054428D02*
G01X0030881Y0054390D01*
G01X0030881Y0054390D02*
G01X0030919Y0054352D01*
G01X0030919Y0054352D02*
G01X0030976Y0054333D01*
G01X0030976Y0054333D02*
G01X0031015Y0054333D01*
G01X0031015Y0054333D02*
G01X0031072Y0054352D01*
G01X0031072Y0054352D02*
G01X0031110Y0054390D01*
G01X0031110Y0054390D02*
G01X0031129Y0054428D01*
G01X0031129Y0054428D02*
G01X0031129Y0054486D01*
G01X0031129Y0054486D02*
G01X0031110Y0054524D01*
G01X0031110Y0054524D02*
G01X0031072Y0054562D01*
G01X0030862Y0054686D02*
G01X0031129Y0054686D01*
G01X0030938Y0054686D02*
G01X0030881Y0054743D01*
G01X0030881Y0054743D02*
G01X0030862Y0054782D01*
G01X0030862Y0054782D02*
G01X0030862Y0054839D01*
G01X0030862Y0054839D02*
G01X0030881Y0054877D01*
G01X0030881Y0054877D02*
G01X0030938Y0054896D01*
G01X0030938Y0054896D02*
G01X0031129Y0054896D01*
G01X0030728Y0055077D02*
G01X0031053Y0055077D01*
G01X0031053Y0055077D02*
G01X0031110Y0055096D01*
G01X0031110Y0055096D02*
G01X0031129Y0055135D01*
G01X0031129Y0055135D02*
G01X0031129Y0055173D01*
G01X0030862Y0055020D02*
G01X0030862Y0055154D01*
G01X0030919Y0055507D02*
G01X0030881Y0055488D01*
G01X0030881Y0055488D02*
G01X0030862Y0055430D01*
G01X0030862Y0055430D02*
G01X0030862Y0055373D01*
G01X0030862Y0055373D02*
G01X0030881Y0055315D01*
G01X0030881Y0055315D02*
G01X0030919Y0055296D01*
G01X0030919Y0055296D02*
G01X0030957Y0055315D01*
G01X0030957Y0055315D02*
G01X0030976Y0055354D01*
G01X0030976Y0055354D02*
G01X0030995Y0055449D01*
G01X0030995Y0055449D02*
G01X0031015Y0055488D01*
G01X0031015Y0055488D02*
G01X0031053Y0055507D01*
G01X0031053Y0055507D02*
G01X0031072Y0055507D01*
G01X0031072Y0055507D02*
G01X0031110Y0055488D01*
G01X0031110Y0055488D02*
G01X0031129Y0055430D01*
G01X0031129Y0055430D02*
G01X0031129Y0055373D01*
G01X0031129Y0055373D02*
G01X0031110Y0055315D01*
G01X0031110Y0055315D02*
G01X0031072Y0055296D01*
G01X0031129Y0055630D02*
G01X0030728Y0055898D01*
G01X0030785Y0056290D02*
G01X0030747Y0056252D01*
G01X0030747Y0056252D02*
G01X0030728Y0056194D01*
G01X0030728Y0056194D02*
G01X0030728Y0056118D01*
G01X0030728Y0056118D02*
G01X0030747Y0056060D01*
G01X0030747Y0056060D02*
G01X0030785Y0056022D01*
G01X0030785Y0056022D02*
G01X0030823Y0056022D01*
G01X0030823Y0056022D02*
G01X0030862Y0056041D01*
G01X0030862Y0056041D02*
G01X0030881Y0056060D01*
G01X0030881Y0056060D02*
G01X0030900Y0056098D01*
G01X0030900Y0056098D02*
G01X0030938Y0056213D01*
G01X0030938Y0056213D02*
G01X0030957Y0056252D01*
G01X0030957Y0056252D02*
G01X0030976Y0056271D01*
G01X0030976Y0056271D02*
G01X0031015Y0056290D01*
G01X0031015Y0056290D02*
G01X0031072Y0056290D01*
G01X0031072Y0056290D02*
G01X0031110Y0056252D01*
G01X0031110Y0056252D02*
G01X0031129Y0056194D01*
G01X0031129Y0056194D02*
G01X0031129Y0056118D01*
G01X0031129Y0056118D02*
G01X0031110Y0056060D01*
G01X0031110Y0056060D02*
G01X0031072Y0056022D01*
G01X0030728Y0056662D02*
G01X0030728Y0056413D01*
G01X0030728Y0056413D02*
G01X0031129Y0056413D01*
G01X0031129Y0056413D02*
G01X0031129Y0056662D01*
G01X0030919Y0056413D02*
G01X0030919Y0056566D01*
G01X0030728Y0056824D02*
G01X0030728Y0057034D01*
G01X0030728Y0057034D02*
G01X0030881Y0056919D01*
G01X0030881Y0056919D02*
G01X0030881Y0056977D01*
G01X0030881Y0056977D02*
G01X0030900Y0057015D01*
G01X0030900Y0057015D02*
G01X0030919Y0057034D01*
G01X0030919Y0057034D02*
G01X0030976Y0057053D01*
G01X0030976Y0057053D02*
G01X0031015Y0057053D01*
G01X0031015Y0057053D02*
G01X0031072Y0057034D01*
G01X0031072Y0057034D02*
G01X0031110Y0056996D01*
G01X0031110Y0056996D02*
G01X0031129Y0056938D01*
G01X0031129Y0056938D02*
G01X0031129Y0056881D01*
G01X0031129Y0056881D02*
G01X0031110Y0056824D01*
G01X0031110Y0056824D02*
G01X0031091Y0056805D01*
G01X0031091Y0056805D02*
G01X0031053Y0056785D01*
G01X0030728Y0057292D02*
G01X0030747Y0057234D01*
G01X0030747Y0057234D02*
G01X0030804Y0057196D01*
G01X0030804Y0057196D02*
G01X0030900Y0057177D01*
G01X0030900Y0057177D02*
G01X0030957Y0057177D01*
G01X0030957Y0057177D02*
G01X0031053Y0057196D01*
G01X0031053Y0057196D02*
G01X0031110Y0057234D01*
G01X0031110Y0057234D02*
G01X0031129Y0057292D01*
G01X0031129Y0057292D02*
G01X0031129Y0057330D01*
G01X0031129Y0057330D02*
G01X0031110Y0057387D01*
G01X0031110Y0057387D02*
G01X0031053Y0057425D01*
G01X0031053Y0057425D02*
G01X0030957Y0057445D01*
G01X0030957Y0057445D02*
G01X0030900Y0057445D01*
G01X0030900Y0057445D02*
G01X0030804Y0057425D01*
G01X0030804Y0057425D02*
G01X0030747Y0057387D01*
G01X0030747Y0057387D02*
G01X0030728Y0057330D01*
G01X0030728Y0057330D02*
G01X0030728Y0057292D01*
G01X0030804Y0057425D02*
G01X0031053Y0057196D01*
G01X0030728Y0057683D02*
G01X0030747Y0057626D01*
G01X0030747Y0057626D02*
G01X0030804Y0057587D01*
G01X0030804Y0057587D02*
G01X0030900Y0057568D01*
G01X0030900Y0057568D02*
G01X0030957Y0057568D01*
G01X0030957Y0057568D02*
G01X0031053Y0057587D01*
G01X0031053Y0057587D02*
G01X0031110Y0057626D01*
G01X0031110Y0057626D02*
G01X0031129Y0057683D01*
G01X0031129Y0057683D02*
G01X0031129Y0057721D01*
G01X0031129Y0057721D02*
G01X0031110Y0057779D01*
G01X0031110Y0057779D02*
G01X0031053Y0057817D01*
G01X0031053Y0057817D02*
G01X0030957Y0057836D01*
G01X0030957Y0057836D02*
G01X0030900Y0057836D01*
G01X0030900Y0057836D02*
G01X0030804Y0057817D01*
G01X0030804Y0057817D02*
G01X0030747Y0057779D01*
G01X0030747Y0057779D02*
G01X0030728Y0057721D01*
G01X0030728Y0057721D02*
G01X0030728Y0057683D01*
G01X0030804Y0057817D02*
G01X0031053Y0057587D01*
G54D15*
G01X0032832Y0047099D02*
G01X0032889Y0047128D01*
G01X0032889Y0047128D02*
G01X0032976Y0047214D01*
G01X0032976Y0047214D02*
G01X0032976Y0046612D01*
G54D12*
G01X0038044Y0045408D02*
G01X0038073Y0045423D01*
G01X0038073Y0045423D02*
G01X0038116Y0045466D01*
G01X0038116Y0045466D02*
G01X0038116Y0045165D01*
G01X0025458Y0048811D02*
G01X0025487Y0048825D01*
G01X0025487Y0048825D02*
G01X0025530Y0048868D01*
G01X0025530Y0048868D02*
G01X0025530Y0048567D01*
G01X0027532Y0047868D02*
G01X0027517Y0047897D01*
G01X0027517Y0047897D02*
G01X0027474Y0047940D01*
G01X0027474Y0047940D02*
G01X0027775Y0047940D01*
G01X0029217Y0062032D02*
G01X0029188Y0062017D01*
G01X0029188Y0062017D02*
G01X0029145Y0061974D01*
G01X0029145Y0061974D02*
G01X0029145Y0062275D01*
G01X0011580Y0028704D02*
G01X0011552Y0028690D01*
G01X0011552Y0028690D02*
G01X0011508Y0028647D01*
G01X0011508Y0028647D02*
G01X0011508Y0028948D01*
G01X0049265Y0030086D02*
G01X0049236Y0030072D01*
G01X0049236Y0030072D02*
G01X0049193Y0030029D01*
G01X0049193Y0030029D02*
G01X0049193Y0030330D01*
M02*
