G04 Layer_Physical_Order=2*
G04 Layer_Color=16711680*
%FSLAX24Y24*%
%MOIN*%
G70*
G01*
G75*
%ADD27C,0.0080*%
%ADD28C,0.0130*%
%ADD30C,0.0300*%
%ADD32C,0.0800*%
%ADD35C,0.0748*%
%ADD38C,0.0800*%
%ADD39P,0.0990X4X165.0*%
%ADD40P,0.0866X8X22.5*%
%ADD41C,0.0300*%
%ADD42C,0.0400*%
%ADD43C,0.0500*%
%ADD44C,0.0600*%
%ADD45C,0.1400*%
%ADD46C,0.0650*%
%ADD47C,0.0500*%
%ADD48C,0.0450*%
%ADD49C,0.0220*%
%ADD50C,0.1000*%
%ADD51C,0.3937*%
G36*
X7295Y16134D02*
X9265D01*
X9325Y16074D01*
X11377Y12473D01*
X11377Y12297D01*
X11332Y12275D01*
X11269Y12327D01*
X11141Y12395D01*
X11001Y12438D01*
X10857Y12452D01*
X10712Y12438D01*
X10572Y12395D01*
X10444Y12327D01*
X10331Y12234D01*
X10239Y12122D01*
X10170Y11993D01*
X10128Y11854D01*
X10114Y11709D01*
X10128Y11564D01*
X10170Y11425D01*
X10239Y11297D01*
X10331Y11184D01*
X10444Y11092D01*
X10572Y11023D01*
X10712Y10981D01*
X10857Y10967D01*
X11001Y10981D01*
X11141Y11023D01*
X11269Y11092D01*
X11333Y11144D01*
X11378Y11123D01*
X11378Y10949D01*
X10977Y10548D01*
X10976Y10549D01*
X10936Y10490D01*
X10923Y10420D01*
X10936Y10350D01*
X10976Y10291D01*
X10976Y10291D01*
X11012Y10257D01*
X11380Y9890D01*
X11381Y8819D01*
X11890Y8310D01*
X9611Y4446D01*
X9561Y4440D01*
X9135Y4888D01*
X9137Y5179D01*
X9196Y5357D01*
X9243Y5366D01*
X9309Y5410D01*
X9354Y5476D01*
X9369Y5554D01*
X9354Y5632D01*
X9309Y5698D01*
X9243Y5743D01*
X9214Y5748D01*
X9187Y5790D01*
X9828Y8577D01*
X10355Y9104D01*
Y9885D01*
X9706Y10534D01*
X7865Y10534D01*
X6956Y10534D01*
X5635Y11310D01*
X3250D01*
X2474Y10534D01*
X1308Y10534D01*
X730Y11112D01*
X730Y12412D01*
X751Y12417D01*
X755Y12420D01*
X761Y12421D01*
X769Y12427D01*
X778Y12431D01*
X782Y12435D01*
X786Y12438D01*
X1038Y12690D01*
X1041Y12694D01*
X1045Y12698D01*
X1050Y12707D01*
X1056Y12716D01*
X1057Y12721D01*
X1059Y12726D01*
X1151Y13070D01*
X1152Y13075D01*
X1153Y13080D01*
X1153Y13091D01*
X1153Y13101D01*
X1152Y13106D01*
X1151Y13111D01*
X1059Y13456D01*
X1057Y13460D01*
X1056Y13465D01*
X1050Y13474D01*
X1045Y13483D01*
X1041Y13487D01*
X1038Y13491D01*
X786Y13743D01*
X778Y13749D01*
X770Y13756D01*
X730Y13779D01*
X730Y15179D01*
X1665Y16114D01*
X2574D01*
X3236Y16776D01*
X6653D01*
X7295Y16134D01*
D02*
G37*
D27*
X9217Y2673D02*
X10035Y3004D01*
X9835Y4014D02*
X10115Y3844D01*
X9043Y4823D02*
X9835Y4014D01*
X9043Y4823D02*
X9045Y5194D01*
X9165Y5554D01*
X10115Y3844D02*
X10257Y3703D01*
Y3404D02*
Y3703D01*
X10035Y3004D02*
X10257Y3404D01*
X11200Y3248D02*
X11850Y3598D01*
D28*
X12175Y7780D02*
X12450Y7123D01*
X-1783Y4869D02*
X-1013Y3519D01*
X8359Y670D02*
X8615D01*
X6555Y2474D02*
X8359Y670D01*
X6157Y1896D02*
X6405Y2144D01*
X6157Y959D02*
Y1896D01*
X5916Y4694D02*
X6307Y4719D01*
X5916Y4694D02*
X6277Y4749D01*
X3557Y4329D02*
X5916Y4694D01*
X12287Y5515D02*
X12288Y5519D01*
X12450Y7123D01*
X8825Y1084D02*
X8925D01*
X9207Y669D02*
X9338Y800D01*
X8905Y669D02*
X8905D01*
X9207D01*
X8615Y670D02*
X8905Y669D01*
X9136Y669D01*
X7092Y4354D02*
X7092Y4354D01*
X7083Y4354D02*
X7090Y4347D01*
X6415Y4354D02*
X6511D01*
X6986D02*
X7083D01*
X6511D02*
X6591D01*
X7086D02*
X7092D01*
X7086D02*
X7092Y4354D01*
X6986Y4354D02*
X7090Y4347D01*
X7083Y4354D02*
X7086D01*
X1695Y2474D02*
X6555D01*
X1640Y2529D02*
X1695Y2474D01*
X1297Y2529D02*
X1640D01*
X9338Y800D02*
X12288Y5519D01*
X2197Y4449D02*
X2873Y4494D01*
X2873D01*
X5916Y4694D01*
X-103Y9479D02*
X-103Y9479D01*
Y9479D02*
X697Y6999D01*
X-103Y9479D02*
Y9479D01*
Y9479D02*
Y9479D01*
X5991Y4424D02*
X6418Y4394D01*
X6621Y4380D01*
X6827Y4365D01*
X6591Y4354D02*
X6986D01*
X6420Y4411D02*
X6626Y4394D01*
X6831Y4376D01*
X5734Y4442D02*
X5991Y4424D01*
X5704Y4472D02*
X6047Y4443D01*
X6420Y4411D01*
X6831Y4376D02*
X7086Y4354D01*
X6827Y4365D02*
X6986Y4354D01*
D30*
X587Y3496D02*
X2197Y4449D01*
X-715Y4284D02*
Y4984D01*
Y4284D02*
X215Y2734D01*
X8525Y1084D02*
X8825D01*
X6715Y2894D02*
X8525Y1084D01*
X6375Y2894D02*
X6715D01*
X215Y2734D02*
X575D01*
X1734Y3231D02*
X2047Y2919D01*
X575Y2734D02*
X1395Y3231D01*
X1734D01*
X-893Y6046D02*
X343Y6787D01*
X697Y6999D01*
D32*
X7704Y5530D02*
Y5652D01*
X8209Y5024D02*
X8211Y5023D01*
X8211Y5023D01*
X8305Y4934D01*
X7704Y5530D02*
X8209Y5024D01*
X6511Y4354D02*
X6551Y4314D01*
X6591Y4354D01*
X6615Y4378D01*
X7336Y4554D02*
X9217Y2673D01*
X6338Y4554D02*
X6338D01*
X6814D01*
X7336D01*
D35*
X12170Y7787D02*
D03*
X11677Y6935D02*
D03*
X11185Y6082D02*
D03*
X10693Y5230D02*
D03*
X10201Y4377D02*
D03*
X9709Y3525D02*
D03*
X9217Y2673D02*
D03*
X8725Y1820D02*
D03*
D38*
X6157Y959D02*
D03*
X87Y4362D02*
D03*
X-1393Y6912D02*
D03*
D39*
X587Y3496D02*
D03*
X-893Y6046D02*
D03*
D40*
X3277Y959D02*
D03*
D41*
X3290Y11640D02*
D03*
X2190Y11440D02*
D03*
X3240Y14250D02*
D03*
X-1783Y4869D02*
D03*
X-1013Y3519D02*
D03*
X9300Y13980D02*
D03*
X3920Y14030D02*
D03*
X7160Y12290D02*
D03*
X8930Y12940D02*
D03*
X7885Y12835D02*
D03*
X4365Y3854D02*
D03*
X6405Y2144D02*
D03*
X3845Y3854D02*
D03*
X7439Y14731D02*
D03*
X9165Y5554D02*
D03*
X11850Y3598D02*
D03*
X11200Y3248D02*
D03*
D42*
X8123Y5520D02*
D03*
X6814Y4682D02*
D03*
X6375Y2894D02*
D03*
X7794Y5219D02*
D03*
X7704Y5652D02*
D03*
X8253Y5068D02*
D03*
X6415Y4354D02*
D03*
X6815Y4194D02*
D03*
X7215Y4444D02*
D03*
D43*
X-715Y4984D02*
D03*
D44*
X2047Y2919D02*
D03*
X1297Y2529D02*
D03*
D45*
X343Y6787D02*
G03*
X2873Y4494I4187J2077D01*
G01*
X3557Y4293D02*
G03*
X5991Y4424I974J4572D01*
G01*
X2873Y4494D02*
G03*
X3557Y4293I1657J4371D01*
G01*
X5991Y4424D02*
G03*
X6047Y4443I-1461J4440D01*
G01*
D02*
G03*
X6338Y4554I-1517J4421D01*
G01*
X-103Y9479D02*
G03*
X343Y6787I4634J-615D01*
G01*
X-99Y9515D02*
G03*
X-103Y9479I4629J-651D01*
G01*
X8664Y7894D02*
X9172Y9299D01*
X9557Y9479D01*
X8130Y5551D02*
X8131Y5554D01*
X8664Y7894D01*
D46*
X9550Y5006D02*
X10170Y4386D01*
X9550Y5006D02*
X11020Y7550D01*
X8305Y4934D02*
X9708Y3526D01*
D47*
X11020Y7550D02*
X11455Y8026D01*
X11230Y9660D02*
X11620Y8350D01*
D48*
X11455Y8026D02*
X11620Y8350D01*
D49*
X10734Y3641D02*
Y3816D01*
X10725Y3824D02*
X10734Y3816D01*
X9095Y1084D02*
X9297Y1287D01*
X8925Y1084D02*
X9095D01*
X9297Y1287D02*
X10734Y3641D01*
X10190Y4366D02*
X10725Y3824D01*
X10170Y4386D02*
X10190Y4366D01*
D50*
X-103Y9479D02*
D03*
X9557D02*
D03*
D51*
X4717Y8169D02*
D03*
M02*
