G04 Layer_Color=16711935*
%FSLAX24Y24*%
%MOIN*%
G70*
G01*
G75*
%ADD87C,0.0828*%
%ADD90C,0.0080*%
%ADD91C,0.0880*%
%ADD92P,0.1103X4X165.0*%
%ADD93P,0.0953X8X22.5*%
%ADD94C,0.0680*%
%ADD95C,0.0200*%
%ADD96C,0.1080*%
%ADD97C,0.4017*%
G36*
X1339Y2743D02*
X1376Y2733D01*
X1412Y2717D01*
X1444Y2695D01*
X1471Y2668D01*
X1494Y2637D01*
X1510Y2602D01*
X1520Y2565D01*
X1524Y2526D01*
X1520Y2488D01*
X1510Y2451D01*
X1494Y2416D01*
X1471Y2385D01*
X1444Y2358D01*
X1412Y2336D01*
X1376Y2319D01*
X1339Y2309D01*
X1300Y2306D01*
X1261Y2309D01*
X1223Y2319D01*
X1188Y2336D01*
X1156Y2358D01*
X1128Y2385D01*
X1106Y2416D01*
X1089Y2451D01*
X1079Y2488D01*
X1076Y2526D01*
X1079Y2565D01*
X1089Y2602D01*
X1106Y2637D01*
X1128Y2668D01*
X1156Y2695D01*
X1188Y2717D01*
X1223Y2733D01*
X1261Y2743D01*
X1300Y2747D01*
X1339Y2743D01*
D02*
G37*
G36*
X2081Y3136D02*
X2119Y3127D01*
X2154Y3110D01*
X2186Y3088D01*
X2214Y3061D01*
X2236Y3030D01*
X2253Y2995D01*
X2263Y2958D01*
X2266Y2919D01*
X2263Y2881D01*
X2253Y2844D01*
X2236Y2809D01*
X2214Y2778D01*
X2186Y2751D01*
X2154Y2729D01*
X2119Y2712D01*
X2081Y2702D01*
X2042Y2699D01*
X2003Y2702D01*
X1966Y2712D01*
X1930Y2729D01*
X1898Y2751D01*
X1871Y2778D01*
X1848Y2809D01*
X1832Y2844D01*
X1822Y2881D01*
X1818Y2919D01*
X1822Y2958D01*
X1832Y2995D01*
X1848Y3030D01*
X1871Y3061D01*
X1898Y3088D01*
X1930Y3110D01*
X1966Y3127D01*
X2003Y3136D01*
X2042Y3140D01*
X2081Y3136D01*
D02*
G37*
D87*
X12170Y7787D02*
D03*
X11677Y6935D02*
D03*
X11185Y6082D02*
D03*
X10693Y5230D02*
D03*
X10201Y4377D02*
D03*
X9709Y3525D02*
D03*
X9217Y2673D02*
D03*
X8725Y1820D02*
D03*
D90*
X4717Y1079D02*
D03*
D91*
X6157Y959D02*
D03*
X87Y4362D02*
D03*
X-1393Y6912D02*
D03*
D92*
X587Y3496D02*
D03*
X-893Y6046D02*
D03*
D93*
X3277Y959D02*
D03*
D94*
X2047Y2919D02*
D03*
X1297Y2529D02*
D03*
D95*
X6415Y4354D02*
D03*
X6815Y4194D02*
D03*
D96*
X-103Y9479D02*
D03*
X9557D02*
D03*
D97*
X4717Y8169D02*
D03*
M02*
