G04 Layer_Physical_Order=1*
G04 Layer_Color=255*
%FSLAX24Y24*%
%MOIN*%
G70*
G01*
G75*
%ADD10C,0.0070*%
%ADD11C,0.0200*%
G04:AMPARAMS|DCode=12|XSize=47.2mil|YSize=59.1mil|CornerRadius=0mil|HoleSize=0mil|Usage=FLASHONLY|Rotation=240.000|XOffset=0mil|YOffset=0mil|HoleType=Round|Shape=Rectangle|*
%AMROTATEDRECTD12*
4,1,4,-0.0138,0.0352,0.0374,0.0057,0.0138,-0.0352,-0.0374,-0.0057,-0.0138,0.0352,0.0*
%
%ADD12ROTATEDRECTD12*%

G04:AMPARAMS|DCode=13|XSize=47.2mil|YSize=59.1mil|CornerRadius=0mil|HoleSize=0mil|Usage=FLASHONLY|Rotation=300.000|XOffset=0mil|YOffset=0mil|HoleType=Round|Shape=Rectangle|*
%AMROTATEDRECTD13*
4,1,4,-0.0374,0.0057,0.0138,0.0352,0.0374,-0.0057,-0.0138,-0.0352,-0.0374,0.0057,0.0*
%
%ADD13ROTATEDRECTD13*%

G04:AMPARAMS|DCode=14|XSize=52mil|YSize=60mil|CornerRadius=13mil|HoleSize=0mil|Usage=FLASHONLY|Rotation=270.000|XOffset=0mil|YOffset=0mil|HoleType=Round|Shape=RoundedRectangle|*
%AMROUNDEDRECTD14*
21,1,0.0520,0.0340,0,0,270.0*
21,1,0.0260,0.0600,0,0,270.0*
1,1,0.0260,-0.0170,-0.0130*
1,1,0.0260,-0.0170,0.0130*
1,1,0.0260,0.0170,0.0130*
1,1,0.0260,0.0170,-0.0130*
%
%ADD14ROUNDEDRECTD14*%
G04:AMPARAMS|DCode=15|XSize=78.7mil|YSize=78.7mil|CornerRadius=39.4mil|HoleSize=0mil|Usage=FLASHONLY|Rotation=45.000|XOffset=0mil|YOffset=0mil|HoleType=Round|Shape=RoundedRectangle|*
%AMROUNDEDRECTD15*
21,1,0.0787,0.0000,0,0,45.0*
21,1,0.0000,0.0787,0,0,45.0*
1,1,0.0787,0.0000,0.0000*
1,1,0.0787,0.0000,0.0000*
1,1,0.0787,0.0000,0.0000*
1,1,0.0787,0.0000,0.0000*
%
%ADD15ROUNDEDRECTD15*%
G04:AMPARAMS|DCode=16|XSize=78.7mil|YSize=78.7mil|CornerRadius=39.4mil|HoleSize=0mil|Usage=FLASHONLY|Rotation=60.000|XOffset=0mil|YOffset=0mil|HoleType=Round|Shape=RoundedRectangle|*
%AMROUNDEDRECTD16*
21,1,0.0787,0.0000,0,0,60.0*
21,1,0.0000,0.0787,0,0,60.0*
1,1,0.0787,0.0000,0.0000*
1,1,0.0787,0.0000,0.0000*
1,1,0.0787,0.0000,0.0000*
1,1,0.0787,0.0000,0.0000*
%
%ADD16ROUNDEDRECTD16*%
%ADD17R,0.0472X0.0197*%
%ADD18R,0.0394X0.0197*%
G04:AMPARAMS|DCode=19|XSize=29.1mil|YSize=39.4mil|CornerRadius=5.8mil|HoleSize=0mil|Usage=FLASHONLY|Rotation=0.000|XOffset=0mil|YOffset=0mil|HoleType=Round|Shape=RoundedRectangle|*
%AMROUNDEDRECTD19*
21,1,0.0291,0.0277,0,0,0.0*
21,1,0.0175,0.0394,0,0,0.0*
1,1,0.0117,0.0087,-0.0139*
1,1,0.0117,-0.0087,-0.0139*
1,1,0.0117,-0.0087,0.0139*
1,1,0.0117,0.0087,0.0139*
%
%ADD19ROUNDEDRECTD19*%
%ADD20R,0.0320X0.0360*%
%ADD21R,0.0360X0.0320*%
%ADD22R,0.0492X0.0335*%
%ADD23R,0.0148X0.0138*%
%ADD24R,0.0138X0.0148*%
%ADD25R,0.0335X0.0492*%
G04:AMPARAMS|DCode=26|XSize=29.1mil|YSize=39.4mil|CornerRadius=5.8mil|HoleSize=0mil|Usage=FLASHONLY|Rotation=90.000|XOffset=0mil|YOffset=0mil|HoleType=Round|Shape=RoundedRectangle|*
%AMROUNDEDRECTD26*
21,1,0.0291,0.0277,0,0,90.0*
21,1,0.0175,0.0394,0,0,90.0*
1,1,0.0117,0.0139,0.0087*
1,1,0.0117,0.0139,-0.0087*
1,1,0.0117,-0.0139,-0.0087*
1,1,0.0117,-0.0139,0.0087*
%
%ADD26ROUNDEDRECTD26*%
%ADD27C,0.0080*%
%ADD28C,0.0130*%
%ADD29C,0.0100*%
%ADD30C,0.0300*%
%ADD31C,0.0130*%
%ADD32C,0.0800*%
%ADD33C,0.0120*%
%ADD34C,0.0400*%
%ADD35C,0.0748*%
%ADD36C,0.1181*%
%ADD37C,0.6000*%
%ADD38C,0.0800*%
%ADD39P,0.0990X4X165.0*%
%ADD40P,0.0866X8X22.5*%
%ADD41C,0.0300*%
%ADD42C,0.0400*%
%ADD43C,0.0500*%
%ADD44C,0.0600*%
G36*
X2399Y12571D02*
X2635Y12334D01*
Y12137D01*
X2399Y11901D01*
X1415Y11901D01*
X1415Y12571D01*
X2399Y12571D01*
D02*
G37*
G36*
X2392Y14580D02*
X2628Y14344D01*
Y14147D01*
X2392Y13911D01*
X1408Y13911D01*
X1408Y14580D01*
X2392Y14580D01*
D02*
G37*
D10*
X-3021Y8140D02*
G03*
X-3021Y8140I-669J0D01*
G01*
X12609Y10420D02*
G03*
X12609Y10420I-669J0D01*
G01*
X7885Y13735D02*
Y13875D01*
X6751Y13342D02*
X7295D01*
X7492Y13735D02*
Y13922D01*
X8238Y13538D02*
X8392Y13385D01*
Y13340D02*
Y13385D01*
X7885Y13538D02*
X8238D01*
X7730Y12990D02*
X7885Y12835D01*
X7688Y12998D02*
Y13145D01*
X7680Y12990D02*
X7688Y12998D01*
X7680Y12990D02*
X7730D01*
X7885Y12835D02*
Y13149D01*
Y13342D02*
X8008D01*
X8070Y13280D01*
Y13019D02*
Y13280D01*
X7885Y12835D02*
X8070Y13019D01*
X7295Y12965D02*
Y13145D01*
X7492Y13018D02*
Y13145D01*
Y13018D02*
X7520Y12990D01*
X7680D01*
X7071Y13538D02*
X7295D01*
X6807Y13802D02*
X7071Y13538D01*
X6750Y13802D02*
X6807D01*
X7295Y13735D02*
Y13954D01*
D11*
X6957Y4754D02*
G03*
X7040Y4399I1658J200D01*
G01*
D12*
X12330Y3310D02*
D03*
X11700Y2219D02*
D03*
X13360Y5090D02*
D03*
X12730Y3999D02*
D03*
D13*
X-2850Y3320D02*
D03*
X-2220Y2229D02*
D03*
X-3870Y5120D02*
D03*
X-3240Y4029D02*
D03*
D14*
X3700Y12080D02*
D03*
Y12834D02*
D03*
X3790Y14750D02*
D03*
Y15504D02*
D03*
D15*
X-3690Y8140D02*
D03*
D16*
X11940Y10420D02*
D03*
D17*
X2793Y11645D02*
D03*
X2793Y12826D02*
D03*
X2786Y14836D02*
D03*
Y13655D02*
D03*
D18*
X2832Y12236D02*
D03*
X2825Y14246D02*
D03*
D19*
X1968Y10940D02*
D03*
X1432D02*
D03*
X8928Y13980D02*
D03*
X8392D02*
D03*
X8928Y13340D02*
D03*
X8392D02*
D03*
X3382Y13650D02*
D03*
X3918D02*
D03*
X5278Y13410D02*
D03*
X4742D02*
D03*
X4747Y14074D02*
D03*
X5283D02*
D03*
X5177Y16154D02*
D03*
X5713D02*
D03*
D20*
X6675Y15564D02*
D03*
X7055Y14731D02*
D03*
X6301D02*
D03*
X5255Y15514D02*
D03*
X5635Y14681D02*
D03*
X4881D02*
D03*
D21*
X4730Y12440D02*
D03*
X5564Y12820D02*
D03*
Y12066D02*
D03*
D22*
X6895Y2160D02*
D03*
Y2888D02*
D03*
D23*
X7295Y13731D02*
D03*
X7885D02*
D03*
X7295Y13538D02*
D03*
X7885D02*
D03*
X7295Y13342D02*
D03*
X7885D02*
D03*
X7295Y13149D02*
D03*
X7885D02*
D03*
D24*
X7492Y13735D02*
D03*
X7688D02*
D03*
X7492Y13145D02*
D03*
X7688D02*
D03*
D25*
X3111Y2649D02*
D03*
X3839D02*
D03*
X4366D02*
D03*
X5095D02*
D03*
X4366Y3399D02*
D03*
X5095D02*
D03*
X3111D02*
D03*
X3839D02*
D03*
D26*
X6750Y12752D02*
D03*
Y12217D02*
D03*
Y13267D02*
D03*
Y13802D02*
D03*
X4615Y16262D02*
D03*
Y15727D02*
D03*
X6135Y12531D02*
D03*
Y13066D02*
D03*
D27*
X7440Y12104D02*
Y12820D01*
X7260Y11924D02*
X7440Y12104D01*
X1680Y12350D02*
Y13130D01*
X1060Y13750D02*
X1680Y13130D01*
X1060Y13750D02*
Y14820D01*
X1430Y15190D02*
X2780D01*
X1060Y14820D02*
X1430Y15190D01*
X3290Y11670D02*
X3700Y12080D01*
X3290Y11640D02*
Y11670D01*
X4410Y12000D02*
X4820Y11590D01*
X1968Y11218D02*
X2190Y11440D01*
X1968Y10940D02*
Y11218D01*
X1490Y11980D02*
X1790Y12280D01*
X1490Y10998D02*
Y11980D01*
X1432Y10940D02*
X1490Y10998D01*
X4300Y13628D02*
X4518Y13410D01*
X4300Y13628D02*
Y14300D01*
X4518Y13410D02*
X4742D01*
X4280Y14320D02*
X4300Y14300D01*
X3710Y14320D02*
X4280D01*
X3286Y14246D02*
X3790Y14750D01*
X4470Y13840D02*
X4570Y13740D01*
X5283Y14074D02*
Y14388D01*
X5463Y13727D02*
X5550Y13640D01*
Y13370D02*
Y13640D01*
X5782Y13138D02*
X6080D01*
X4730Y11950D02*
Y12440D01*
X5463Y13103D02*
X5640Y13280D01*
X5170Y12460D02*
X5564Y12066D01*
X5550Y13370D02*
X5640Y13280D01*
X5782Y13138D01*
X5781Y12602D02*
X6080D01*
X5564Y12820D02*
X5781Y12602D01*
X4747Y14074D02*
X4956D01*
X5020Y14010D01*
Y13830D02*
Y14010D01*
Y13830D02*
X5123Y13727D01*
X5463D01*
X4570Y13740D02*
X4890D01*
X5010Y13620D01*
X5323Y13103D02*
X5463D01*
X5278Y13298D02*
Y13410D01*
X4730Y12440D02*
X5020Y12730D01*
Y13012D01*
X5148Y13140D01*
Y13168D01*
X5170Y12950D02*
X5298Y13077D01*
Y13078D01*
X5323Y13103D01*
X5148Y13168D02*
X5278Y13298D01*
X5170Y12460D02*
Y12950D01*
X4998Y13608D02*
X5010Y13620D01*
X4998Y13202D02*
Y13608D01*
X4870Y13074D02*
X4998Y13202D01*
X4730Y11950D02*
X4920Y11760D01*
X3918Y13650D02*
X3920Y13652D01*
Y14030D01*
X2786Y13655D02*
X3317D01*
X3322Y13650D01*
X4644Y13074D02*
X4870D01*
X4410Y12000D02*
Y12840D01*
X4644Y13074D01*
X6750Y13267D02*
X6751Y13266D01*
X6750Y12752D02*
Y13267D01*
X6440Y11924D02*
X7260D01*
X6448Y13802D02*
X6750D01*
X7295Y12965D02*
X7440Y12820D01*
X6135Y12229D02*
Y12531D01*
Y13066D02*
Y13489D01*
X6080Y13434D02*
X6135Y13489D01*
X3382Y13650D02*
Y13992D01*
X6135Y12229D02*
X6440Y11924D01*
X3382Y13992D02*
X3710Y14320D01*
X6135Y13489D02*
X6448Y13802D01*
X5283Y14388D02*
X5565Y14671D01*
X2780Y15190D02*
X4144Y16554D01*
X4470Y13840D02*
Y15029D01*
X4945Y15504D02*
X5185D01*
X4615Y15494D02*
Y15727D01*
Y15494D02*
X4775Y15334D01*
X4470Y15029D02*
X4775Y15334D01*
X4945Y15504D01*
X4300Y14300D02*
Y16209D01*
X4353Y16262D01*
X4615D01*
X4144Y16554D02*
X5335D01*
X5445Y16444D01*
X7492Y13922D02*
Y14078D01*
X8392Y13660D02*
Y13980D01*
Y13385D02*
Y13660D01*
X7990Y13980D02*
X8392D01*
X7885Y13875D02*
X7990Y13980D01*
X7551Y14314D02*
X9355D01*
X9565Y14104D01*
Y13864D02*
Y14104D01*
X9361Y13660D02*
X9565Y13864D01*
X8392Y13660D02*
X9361D01*
X9285Y13344D02*
X9715Y13774D01*
Y14204D01*
X9425Y14494D02*
X9715Y14204D01*
X5275Y15134D02*
X5575D01*
X6080Y13138D02*
Y13434D01*
X6301Y14438D02*
Y14731D01*
Y14438D02*
X6501Y14239D01*
X7175Y14074D02*
X7295Y13954D01*
X5283Y14074D02*
X7175D01*
X7331Y14239D02*
X7492Y14078D01*
X6501Y14239D02*
X7331D01*
X7461Y14404D02*
X7551Y14314D01*
X6805Y14404D02*
X7461D01*
X6665Y14544D02*
X6805Y14404D01*
X6665Y14544D02*
Y14984D01*
X6525Y15124D02*
X6665Y14984D01*
X6965Y15564D02*
X8035Y14494D01*
X9425D01*
X6675Y15564D02*
X6965D01*
X4845Y14374D02*
X4881Y14410D01*
Y14681D01*
X4747Y14325D02*
X4796Y14374D01*
X4747Y14074D02*
Y14325D01*
X4796Y14374D02*
X4845D01*
X4615Y16262D02*
X4617Y16264D01*
X4865D01*
X4975Y16154D01*
X5117D01*
X5177Y16214D01*
X5773Y16154D02*
X6335D01*
X6675Y15814D01*
Y15564D02*
Y15814D01*
X5445Y15894D02*
Y16444D01*
X6215Y15124D02*
X6525D01*
X5445Y15894D02*
X5890Y15449D01*
X6215Y15124D01*
X5575Y15134D02*
X5890Y15449D01*
X4851Y14711D02*
X5275Y15134D01*
X6080Y13062D02*
Y13138D01*
X9714Y3545D02*
X9714D01*
X4920Y11760D02*
X9169D01*
X9285Y11924D02*
Y13344D01*
X4820Y11590D02*
X9139D01*
X10685Y10045D01*
Y5230D02*
Y10045D01*
X9714Y3545D02*
X9714Y3545D01*
X9714Y3545D02*
X9714Y3545D01*
X9924Y3493D01*
X9714Y3545D02*
X11200Y3248D01*
X12284Y3233D02*
X12307Y3219D01*
X12331Y3312D02*
X12384Y3281D01*
X11850Y3598D02*
X12331Y3312D01*
X9708Y3546D02*
X9977D01*
X9169Y11760D02*
X11185Y9745D01*
Y6090D02*
Y9745D01*
X9285Y11924D02*
X11395Y9814D01*
Y7684D02*
Y9814D01*
Y7684D02*
X11675Y7405D01*
Y6940D02*
Y7405D01*
X5713Y16214D02*
X5773Y16154D01*
X2825Y14246D02*
X3286D01*
D28*
X-2663Y3430D02*
X-1037Y4361D01*
Y4362D02*
X87D01*
X-1163Y2859D02*
X-533D01*
X-2483Y5929D02*
Y6489D01*
X12723Y3986D02*
X12725Y3985D01*
X12985Y5285D02*
X13360Y5090D01*
X-3242Y4035D02*
X-1783Y4869D01*
X-3833Y5149D02*
X-2483Y5929D01*
Y6489D02*
X-1853Y6912D01*
X-1393D01*
X-1013Y3519D02*
X-533D01*
X11450Y3638D02*
X11600Y3298D01*
X5095Y3399D02*
X5340D01*
X6365Y1794D02*
X7050D01*
X7785Y1059D01*
X4365Y3854D02*
X4366Y3853D01*
Y3399D02*
Y3853D01*
X3839Y3399D02*
X4366D01*
X3839Y2649D02*
Y3399D01*
X4366Y2649D02*
Y3399D01*
X3839Y2078D02*
Y2649D01*
X3277Y1516D02*
X3839Y2078D01*
X3277Y959D02*
Y1516D01*
X6419Y2160D02*
X6895D01*
X6405Y2146D02*
X6419Y2160D01*
X6405Y2144D02*
Y2146D01*
X3839Y3848D02*
X3845Y3854D01*
X3839Y3399D02*
Y3848D01*
X6381Y2888D02*
X6895D01*
X6375Y2894D02*
X6381Y2888D01*
X-533Y3519D02*
X-100Y2754D01*
X355D01*
X-533Y2859D02*
X-319Y2474D01*
X115D01*
X2850Y2649D02*
X3111D01*
X5935Y2224D02*
X6365Y1794D01*
X5935Y2224D02*
Y2804D01*
X5340Y3399D02*
X5935Y2804D01*
X11731Y2277D02*
X11731Y2277D01*
X11755Y2265D01*
X7785Y1059D02*
X8937D01*
X7625Y759D02*
X9127D01*
X11380Y2948D02*
X11600Y3298D01*
X11075Y2821D02*
X11380Y2948D01*
X9127Y759D02*
X10186Y2410D01*
X11731Y2277D02*
X11731D01*
X11145Y2543D02*
X11700Y2219D01*
X10319Y2543D02*
X11145D01*
X10186Y2410D02*
X10319Y2543D01*
X10124Y2821D02*
X11075D01*
X9992Y2689D02*
X9992Y2689D01*
X10124Y2821D01*
X8937Y1059D02*
X9992Y2689D01*
X11856Y4203D02*
X12365D01*
X11838Y4184D02*
X11856Y4203D01*
X11450Y3638D02*
X11838Y4184D01*
X11421Y4918D02*
X12985Y5285D01*
X11089Y4386D02*
X11090Y4384D01*
X11421Y4918D01*
X355Y2754D02*
X1085Y2024D01*
X1855D01*
X115Y2474D02*
X855Y1734D01*
X1935D01*
X2850Y2649D01*
X2840Y3399D02*
X3111D01*
X1855Y2024D02*
X2735Y2904D01*
Y3294D01*
X2840Y3399D01*
X10170Y4386D02*
X11089D01*
X12365Y4203D02*
X12723Y3986D01*
X-2231Y2249D02*
X-1163Y2859D01*
D29*
X2786Y14836D02*
X3122D01*
X1406D02*
X2786D01*
X1250Y14680D02*
X1406Y14836D01*
X1250Y13790D02*
Y14680D01*
Y13790D02*
X1780Y13260D01*
X4040D01*
X4184Y13116D01*
Y12826D02*
Y13116D01*
X4250Y11900D02*
Y12760D01*
X4184Y12826D02*
X4250Y12760D01*
Y11900D02*
X4760Y11390D01*
X2190Y11440D02*
X2395Y11645D01*
X2793D01*
X3122Y14836D02*
X3790Y15504D01*
X2789Y14840D02*
X2890D01*
X6750Y12217D02*
X7158D01*
X7160Y12214D01*
X8928Y12942D02*
Y13340D01*
Y12942D02*
X8930Y12940D01*
X8928Y13980D02*
X9300D01*
X7049Y14737D02*
X7055Y14731D01*
X7439D01*
X4760Y11390D02*
X6019D01*
X2793Y12826D02*
X4184D01*
D30*
X-1393Y6912D02*
X-833Y7269D01*
X-715Y4984D02*
X435Y5684D01*
X-565Y7269D02*
X435Y5684D01*
X-833Y7269D02*
X-565D01*
X2232Y5684D02*
X4717Y8169D01*
X435Y5684D02*
X2232D01*
X6971Y3574D02*
X8725Y1820D01*
X6305Y3574D02*
X6971D01*
X610Y4674D02*
X5205D01*
X6305Y3574D01*
X2885Y4254D02*
X5025D01*
X2047Y3416D02*
X2885Y4254D01*
X2047Y2919D02*
Y3416D01*
X87Y4362D02*
X610Y4674D01*
X6375Y2894D02*
Y2904D01*
X5025Y4254D02*
X6375Y2904D01*
D31*
X6850Y1534D02*
X7625Y759D01*
X5095Y2649D02*
X5380D01*
X5575Y2454D01*
Y2214D02*
Y2454D01*
Y2214D02*
X6255Y1534D01*
X6850D01*
D32*
X7828Y5701D02*
X7830Y5699D01*
X8437Y4797D02*
X9709Y3525D01*
X8437Y4797D02*
Y5092D01*
X7743Y5491D02*
X8437Y4797D01*
X7830Y5699D02*
X8437Y5092D01*
X7743Y5491D02*
Y5613D01*
X7743Y5612D02*
X7830Y5699D01*
X6505Y4354D02*
X6545Y4314D01*
X6415Y4354D02*
X6505D01*
X7535D02*
X9217Y2673D01*
X7336Y4553D02*
X7535Y4354D01*
X6505D02*
X7535D01*
D33*
X9165Y5554D02*
X10415Y6804D01*
Y9954D01*
X9145Y11224D02*
X10415Y9954D01*
X6019Y11390D02*
X6185Y11224D01*
X9145D01*
D34*
X6200Y4409D02*
X6295Y4314D01*
X6545D01*
X6200Y4409D02*
X6545Y4754D01*
X6957D01*
X7395D01*
D35*
X12170Y7787D02*
D03*
X11677Y6935D02*
D03*
X11185Y6082D02*
D03*
X10693Y5230D02*
D03*
X10201Y4377D02*
D03*
X9709Y3525D02*
D03*
X9217Y2673D02*
D03*
X8725Y1820D02*
D03*
D36*
X-103Y9479D02*
D03*
X9557D02*
D03*
D37*
X4717Y8169D02*
D03*
D38*
X6157Y959D02*
D03*
X87Y4362D02*
D03*
X-1393Y6912D02*
D03*
D39*
X587Y3496D02*
D03*
X-893Y6046D02*
D03*
D40*
X3277Y959D02*
D03*
D41*
X3290Y11640D02*
D03*
X2190Y11440D02*
D03*
X3240Y14250D02*
D03*
X-1783Y4869D02*
D03*
X-1013Y3519D02*
D03*
X9300Y13980D02*
D03*
X3920Y14030D02*
D03*
X7160Y12290D02*
D03*
X8930Y12940D02*
D03*
X7885Y12835D02*
D03*
X4365Y3854D02*
D03*
X6405Y2144D02*
D03*
X3845Y3854D02*
D03*
X7439Y14731D02*
D03*
X9165Y5554D02*
D03*
X11850Y3598D02*
D03*
X11200Y3248D02*
D03*
D42*
X8123Y5520D02*
D03*
X6814Y4682D02*
D03*
X6375Y2894D02*
D03*
X7794Y5219D02*
D03*
X7704Y5652D02*
D03*
X8253Y5068D02*
D03*
X6415Y4354D02*
D03*
X6815Y4194D02*
D03*
X7215Y4444D02*
D03*
D43*
X-715Y4984D02*
D03*
D44*
X2047Y2919D02*
D03*
X1297Y2529D02*
D03*
M02*
