G04 This is an RS-274x file exported by *
G04 gerbv version 2.6A *
G04 More information is available about gerbv at *
G04 http://gerbv.geda-project.org/ *
G04 --End of header info--*
%MOIN*%
%FSLAX34Y34*%
%IPPOS*%
G04 --Define apertures--*
%ADD10C,0.0100*%
%ADD11C,0.0046*%
%ADD12C,0.0077*%
%ADD13C,0.0247*%
%ADD14C,0.0093*%
G04 --Start main section--*
G54D10*
G01X0033660Y0031464D02*
G01X0031928Y0030464D01*
G01X0031928Y0030464D02*
G01X0032428Y0029598D01*
G01X0032428Y0029598D02*
G01X0034160Y0030598D01*
G01X0034160Y0030598D02*
G01X0033660Y0031464D01*
G01X0025418Y0025673D02*
G01X0024668Y0024374D01*
G01X0025418Y0025673D02*
G01X0025143Y0026698D01*
G01X0023644Y0024100D02*
G01X0024668Y0024374D01*
G01X0023644Y0024100D02*
G01X0022778Y0024600D01*
G01X0022778Y0024600D02*
G01X0024277Y0027198D01*
G01X0024277Y0027198D02*
G01X0025143Y0026698D01*
G01X0037813Y0024244D02*
G01X0038565Y0022947D01*
G01X0038247Y0024495D02*
G01X0036746Y0027093D01*
G01X0036313Y0026843D02*
G01X0036746Y0027093D01*
G01X0038247Y0024495D02*
G01X0037813Y0024244D01*
G01X0039313Y0021646D02*
G01X0039813Y0020781D01*
G01X0039813Y0020781D02*
G01X0038081Y0019780D01*
G01X0038081Y0019780D02*
G01X0037581Y0020647D01*
G01X0036833Y0021947D02*
G01X0033834Y0027142D01*
G01X0036313Y0026843D02*
G01X0035566Y0028142D01*
G01X0034813Y0029441D02*
G01X0034313Y0030307D01*
G01X0034315Y0030308D02*
G01X0032581Y0029307D01*
G01X0032581Y0029307D02*
G01X0033081Y0028440D01*
G01X0021915Y0028597D02*
G01X0020415Y0025999D01*
G01X0020848Y0025749D02*
G01X0020415Y0025999D01*
G01X0021915Y0028597D02*
G01X0022348Y0028347D01*
G01X0022596Y0028782D02*
G01X0022848Y0029214D01*
G01X0022848Y0029214D02*
G01X0024580Y0028214D01*
G01X0024580Y0028214D02*
G01X0024328Y0027782D01*
G01X0024078Y0027349D02*
G01X0022578Y0024751D01*
G01X0020596Y0025318D02*
G01X0020348Y0024883D01*
G01X0020346Y0024884D02*
G01X0022080Y0023883D01*
G01X0022080Y0023883D02*
G01X0022328Y0024318D01*
G54D11*
G01X0032931Y0032336D02*
G01X0032931Y0032107D01*
G01X0032931Y0032107D02*
G01X0032945Y0032064D01*
G01X0032945Y0032064D02*
G01X0032960Y0032049D01*
G01X0032960Y0032049D02*
G01X0032988Y0032035D01*
G01X0032988Y0032035D02*
G01X0033017Y0032035D01*
G01X0033017Y0032035D02*
G01X0033046Y0032049D01*
G01X0033046Y0032049D02*
G01X0033060Y0032064D01*
G01X0033060Y0032064D02*
G01X0033075Y0032107D01*
G01X0033075Y0032107D02*
G01X0033075Y0032135D01*
G01X0032695Y0032035D02*
G01X0032695Y0032336D01*
G01X0032695Y0032336D02*
G01X0032838Y0032135D01*
G01X0032838Y0032135D02*
G01X0032623Y0032135D01*
G01X0025391Y0027269D02*
G01X0025261Y0027269D01*
G01X0025261Y0027269D02*
G01X0025218Y0027284D01*
G01X0025218Y0027284D02*
G01X0025204Y0027298D01*
G01X0025204Y0027298D02*
G01X0025190Y0027327D01*
G01X0025190Y0027327D02*
G01X0025190Y0027370D01*
G01X0025190Y0027370D02*
G01X0025204Y0027398D01*
G01X0025204Y0027398D02*
G01X0025218Y0027413D01*
G01X0025218Y0027413D02*
G01X0025261Y0027427D01*
G01X0025261Y0027427D02*
G01X0025391Y0027427D01*
G01X0025391Y0027427D02*
G01X0025391Y0027126D01*
G01X0025097Y0027369D02*
G01X0025068Y0027384D01*
G01X0025068Y0027384D02*
G01X0025025Y0027427D01*
G01X0025025Y0027427D02*
G01X0025025Y0027126D01*
G01X0036451Y0030589D02*
G01X0036322Y0030589D01*
G01X0036322Y0030589D02*
G01X0036279Y0030604D01*
G01X0036279Y0030604D02*
G01X0036265Y0030618D01*
G01X0036265Y0030618D02*
G01X0036250Y0030647D01*
G01X0036250Y0030647D02*
G01X0036250Y0030690D01*
G01X0036250Y0030690D02*
G01X0036265Y0030718D01*
G01X0036265Y0030718D02*
G01X0036279Y0030733D01*
G01X0036279Y0030733D02*
G01X0036322Y0030747D01*
G01X0036322Y0030747D02*
G01X0036451Y0030747D01*
G01X0036451Y0030747D02*
G01X0036451Y0030446D01*
G01X0036014Y0030446D02*
G01X0036014Y0030747D01*
G01X0036014Y0030747D02*
G01X0036158Y0030546D01*
G01X0036158Y0030546D02*
G01X0035943Y0030546D01*
G01X0023040Y0029655D02*
G01X0022911Y0029655D01*
G01X0022911Y0029655D02*
G01X0022868Y0029669D01*
G01X0022868Y0029669D02*
G01X0022854Y0029684D01*
G01X0022854Y0029684D02*
G01X0022839Y0029712D01*
G01X0022839Y0029712D02*
G01X0022839Y0029756D01*
G01X0022839Y0029756D02*
G01X0022854Y0029784D01*
G01X0022854Y0029784D02*
G01X0022868Y0029799D01*
G01X0022868Y0029799D02*
G01X0022911Y0029813D01*
G01X0022911Y0029813D02*
G01X0023040Y0029813D01*
G01X0023040Y0029813D02*
G01X0023040Y0029511D01*
G01X0022575Y0029813D02*
G01X0022718Y0029813D01*
G01X0022718Y0029813D02*
G01X0022732Y0029684D01*
G01X0022732Y0029684D02*
G01X0022718Y0029698D01*
G01X0022718Y0029698D02*
G01X0022675Y0029712D01*
G01X0022675Y0029712D02*
G01X0022632Y0029712D01*
G01X0022632Y0029712D02*
G01X0022589Y0029698D01*
G01X0022589Y0029698D02*
G01X0022560Y0029669D01*
G01X0022560Y0029669D02*
G01X0022546Y0029626D01*
G01X0022546Y0029626D02*
G01X0022546Y0029598D01*
G01X0022546Y0029598D02*
G01X0022560Y0029555D01*
G01X0022560Y0029555D02*
G01X0022589Y0029526D01*
G01X0022589Y0029526D02*
G01X0022632Y0029511D01*
G01X0022632Y0029511D02*
G01X0022675Y0029511D01*
G01X0022675Y0029511D02*
G01X0022718Y0029526D01*
G01X0022718Y0029526D02*
G01X0022732Y0029540D01*
G01X0022732Y0029540D02*
G01X0022747Y0029569D01*
G54D12*
G01X0028206Y0017949D02*
G01X0028206Y0017446D01*
G01X0028206Y0017446D02*
G01X0027991Y0017446D01*
G01X0027991Y0017446D02*
G01X0027919Y0017471D01*
G01X0027919Y0017471D02*
G01X0027895Y0017494D01*
G01X0027895Y0017494D02*
G01X0027872Y0017542D01*
G01X0027872Y0017542D02*
G01X0027872Y0017614D01*
G01X0027872Y0017614D02*
G01X0027895Y0017662D01*
G01X0027895Y0017662D02*
G01X0027919Y0017686D01*
G01X0027919Y0017686D02*
G01X0027991Y0017709D01*
G01X0027991Y0017709D02*
G01X0027919Y0017734D01*
G01X0027919Y0017734D02*
G01X0027895Y0017757D01*
G01X0027895Y0017757D02*
G01X0027872Y0017805D01*
G01X0027872Y0017805D02*
G01X0027872Y0017853D01*
G01X0027872Y0017853D02*
G01X0027895Y0017901D01*
G01X0027895Y0017901D02*
G01X0027919Y0017925D01*
G01X0027919Y0017925D02*
G01X0027991Y0017949D01*
G01X0027991Y0017949D02*
G01X0028206Y0017949D01*
G01X0028206Y0017709D02*
G01X0027991Y0017709D01*
G01X0027598Y0017781D02*
G01X0027645Y0017757D01*
G01X0027645Y0017757D02*
G01X0027693Y0017709D01*
G01X0027693Y0017709D02*
G01X0027717Y0017637D01*
G01X0027717Y0017637D02*
G01X0027717Y0017590D01*
G01X0027717Y0017590D02*
G01X0027693Y0017518D01*
G01X0027693Y0017518D02*
G01X0027645Y0017471D01*
G01X0027645Y0017471D02*
G01X0027598Y0017446D01*
G01X0027598Y0017446D02*
G01X0027526Y0017446D01*
G01X0027526Y0017446D02*
G01X0027478Y0017471D01*
G01X0027478Y0017471D02*
G01X0027430Y0017518D01*
G01X0027430Y0017518D02*
G01X0027406Y0017590D01*
G01X0027406Y0017590D02*
G01X0027406Y0017637D01*
G01X0027406Y0017637D02*
G01X0027430Y0017709D01*
G01X0027430Y0017709D02*
G01X0027478Y0017757D01*
G01X0027478Y0017757D02*
G01X0027526Y0017781D01*
G01X0027526Y0017781D02*
G01X0027598Y0017781D01*
G01X0026965Y0017781D02*
G01X0026965Y0017446D01*
G01X0026965Y0017709D02*
G01X0027012Y0017757D01*
G01X0027012Y0017757D02*
G01X0027060Y0017781D01*
G01X0027060Y0017781D02*
G01X0027132Y0017781D01*
G01X0027132Y0017781D02*
G01X0027180Y0017757D01*
G01X0027180Y0017757D02*
G01X0027227Y0017709D01*
G01X0027227Y0017709D02*
G01X0027252Y0017637D01*
G01X0027252Y0017637D02*
G01X0027252Y0017590D01*
G01X0027252Y0017590D02*
G01X0027227Y0017518D01*
G01X0027227Y0017518D02*
G01X0027180Y0017471D01*
G01X0027180Y0017471D02*
G01X0027132Y0017446D01*
G01X0027132Y0017446D02*
G01X0027060Y0017446D01*
G01X0027060Y0017446D02*
G01X0027012Y0017471D01*
G01X0027012Y0017471D02*
G01X0026965Y0017518D01*
G01X0026810Y0017781D02*
G01X0026810Y0017446D01*
G01X0026810Y0017637D02*
G01X0026786Y0017709D01*
G01X0026786Y0017709D02*
G01X0026738Y0017757D01*
G01X0026738Y0017757D02*
G01X0026690Y0017781D01*
G01X0026690Y0017781D02*
G01X0026619Y0017781D01*
G01X0026177Y0017949D02*
G01X0026177Y0017446D01*
G01X0026177Y0017709D02*
G01X0026225Y0017757D01*
G01X0026225Y0017757D02*
G01X0026273Y0017781D01*
G01X0026273Y0017781D02*
G01X0026345Y0017781D01*
G01X0026345Y0017781D02*
G01X0026392Y0017757D01*
G01X0026392Y0017757D02*
G01X0026440Y0017709D01*
G01X0026440Y0017709D02*
G01X0026464Y0017637D01*
G01X0026464Y0017637D02*
G01X0026464Y0017590D01*
G01X0026464Y0017590D02*
G01X0026440Y0017518D01*
G01X0026440Y0017518D02*
G01X0026392Y0017471D01*
G01X0026392Y0017471D02*
G01X0026345Y0017446D01*
G01X0026345Y0017446D02*
G01X0026273Y0017446D01*
G01X0026273Y0017446D02*
G01X0026225Y0017471D01*
G01X0026225Y0017471D02*
G01X0026177Y0017518D01*
G01X0025999Y0017781D02*
G01X0026023Y0017757D01*
G01X0026023Y0017757D02*
G01X0025999Y0017733D01*
G01X0025999Y0017733D02*
G01X0025975Y0017757D01*
G01X0025975Y0017757D02*
G01X0025999Y0017781D01*
G01X0025999Y0017494D02*
G01X0026023Y0017470D01*
G01X0026023Y0017470D02*
G01X0025999Y0017446D01*
G01X0025999Y0017446D02*
G01X0025975Y0017470D01*
G01X0025975Y0017470D02*
G01X0025999Y0017494D01*
G01X0024999Y0017877D02*
G01X0025047Y0017925D01*
G01X0025047Y0017925D02*
G01X0025119Y0017949D01*
G01X0025119Y0017949D02*
G01X0025214Y0017949D01*
G01X0025214Y0017949D02*
G01X0025286Y0017925D01*
G01X0025286Y0017925D02*
G01X0025334Y0017877D01*
G01X0025334Y0017877D02*
G01X0025334Y0017829D01*
G01X0025334Y0017829D02*
G01X0025310Y0017781D01*
G01X0025310Y0017781D02*
G01X0025286Y0017757D01*
G01X0025286Y0017757D02*
G01X0025239Y0017734D01*
G01X0025239Y0017734D02*
G01X0025095Y0017686D01*
G01X0025095Y0017686D02*
G01X0025047Y0017662D01*
G01X0025047Y0017662D02*
G01X0025023Y0017637D01*
G01X0025023Y0017637D02*
G01X0024999Y0017590D01*
G01X0024999Y0017590D02*
G01X0024999Y0017518D01*
G01X0024999Y0017518D02*
G01X0025047Y0017471D01*
G01X0025047Y0017471D02*
G01X0025119Y0017446D01*
G01X0025119Y0017446D02*
G01X0025214Y0017446D01*
G01X0025214Y0017446D02*
G01X0025286Y0017471D01*
G01X0025286Y0017471D02*
G01X0025334Y0017518D01*
G01X0024534Y0017949D02*
G01X0024845Y0017949D01*
G01X0024845Y0017949D02*
G01X0024845Y0017446D01*
G01X0024845Y0017446D02*
G01X0024534Y0017446D01*
G01X0024845Y0017709D02*
G01X0024654Y0017709D01*
G01X0024332Y0017948D02*
G01X0024069Y0017948D01*
G01X0024069Y0017948D02*
G01X0024213Y0017757D01*
G01X0024213Y0017757D02*
G01X0024141Y0017757D01*
G01X0024141Y0017757D02*
G01X0024093Y0017733D01*
G01X0024093Y0017733D02*
G01X0024069Y0017709D01*
G01X0024069Y0017709D02*
G01X0024045Y0017637D01*
G01X0024045Y0017637D02*
G01X0024045Y0017590D01*
G01X0024045Y0017590D02*
G01X0024069Y0017518D01*
G01X0024069Y0017518D02*
G01X0024117Y0017470D01*
G01X0024117Y0017470D02*
G01X0024189Y0017446D01*
G01X0024189Y0017446D02*
G01X0024261Y0017446D01*
G01X0024261Y0017446D02*
G01X0024332Y0017470D01*
G01X0024332Y0017470D02*
G01X0024356Y0017494D01*
G01X0024356Y0017494D02*
G01X0024380Y0017542D01*
G01X0023747Y0017948D02*
G01X0023819Y0017924D01*
G01X0023819Y0017924D02*
G01X0023867Y0017852D01*
G01X0023867Y0017852D02*
G01X0023891Y0017733D01*
G01X0023891Y0017733D02*
G01X0023891Y0017661D01*
G01X0023891Y0017661D02*
G01X0023867Y0017542D01*
G01X0023867Y0017542D02*
G01X0023819Y0017470D01*
G01X0023819Y0017470D02*
G01X0023747Y0017446D01*
G01X0023747Y0017446D02*
G01X0023700Y0017446D01*
G01X0023700Y0017446D02*
G01X0023628Y0017470D01*
G01X0023628Y0017470D02*
G01X0023580Y0017542D01*
G01X0023580Y0017542D02*
G01X0023556Y0017661D01*
G01X0023556Y0017661D02*
G01X0023556Y0017733D01*
G01X0023556Y0017733D02*
G01X0023580Y0017852D01*
G01X0023580Y0017852D02*
G01X0023628Y0017924D01*
G01X0023628Y0017924D02*
G01X0023700Y0017948D01*
G01X0023700Y0017948D02*
G01X0023747Y0017948D01*
G01X0023580Y0017852D02*
G01X0023867Y0017542D01*
G01X0023258Y0017948D02*
G01X0023330Y0017924D01*
G01X0023330Y0017924D02*
G01X0023378Y0017852D01*
G01X0023378Y0017852D02*
G01X0023401Y0017733D01*
G01X0023401Y0017733D02*
G01X0023401Y0017661D01*
G01X0023401Y0017661D02*
G01X0023378Y0017542D01*
G01X0023378Y0017542D02*
G01X0023330Y0017470D01*
G01X0023330Y0017470D02*
G01X0023258Y0017446D01*
G01X0023258Y0017446D02*
G01X0023210Y0017446D01*
G01X0023210Y0017446D02*
G01X0023138Y0017470D01*
G01X0023138Y0017470D02*
G01X0023091Y0017542D01*
G01X0023091Y0017542D02*
G01X0023066Y0017661D01*
G01X0023066Y0017661D02*
G01X0023066Y0017733D01*
G01X0023066Y0017733D02*
G01X0023091Y0017852D01*
G01X0023091Y0017852D02*
G01X0023138Y0017924D01*
G01X0023138Y0017924D02*
G01X0023210Y0017948D01*
G01X0023210Y0017948D02*
G01X0023258Y0017948D01*
G01X0023091Y0017852D02*
G01X0023378Y0017542D01*
G01X0022426Y0017781D02*
G01X0022282Y0017446D01*
G01X0022282Y0017446D02*
G01X0022139Y0017781D01*
G01X0021985Y0017852D02*
G01X0021937Y0017877D01*
G01X0021937Y0017877D02*
G01X0021865Y0017948D01*
G01X0021865Y0017948D02*
G01X0021865Y0017446D01*
G01X0021687Y0017494D02*
G01X0021711Y0017470D01*
G01X0021711Y0017470D02*
G01X0021687Y0017446D01*
G01X0021687Y0017446D02*
G01X0021662Y0017470D01*
G01X0021662Y0017470D02*
G01X0021687Y0017494D01*
G01X0021508Y0017852D02*
G01X0021460Y0017877D01*
G01X0021460Y0017877D02*
G01X0021388Y0017948D01*
G01X0021388Y0017948D02*
G01X0021388Y0017446D01*
G01X0028088Y0016930D02*
G01X0028112Y0016978D01*
G01X0028112Y0016978D02*
G01X0028160Y0017026D01*
G01X0028160Y0017026D02*
G01X0028208Y0017050D01*
G01X0028208Y0017050D02*
G01X0028303Y0017050D01*
G01X0028303Y0017050D02*
G01X0028351Y0017026D01*
G01X0028351Y0017026D02*
G01X0028399Y0016978D01*
G01X0028399Y0016978D02*
G01X0028423Y0016930D01*
G01X0028423Y0016930D02*
G01X0028447Y0016859D01*
G01X0028447Y0016859D02*
G01X0028447Y0016739D01*
G01X0028447Y0016739D02*
G01X0028423Y0016667D01*
G01X0028423Y0016667D02*
G01X0028399Y0016619D01*
G01X0028399Y0016619D02*
G01X0028351Y0016572D01*
G01X0028351Y0016572D02*
G01X0028303Y0016547D01*
G01X0028303Y0016547D02*
G01X0028208Y0016547D01*
G01X0028208Y0016547D02*
G01X0028160Y0016572D01*
G01X0028160Y0016572D02*
G01X0028112Y0016619D01*
G01X0028112Y0016619D02*
G01X0028088Y0016667D01*
G01X0027623Y0017050D02*
G01X0027934Y0017050D01*
G01X0027934Y0017050D02*
G01X0027934Y0016547D01*
G01X0027934Y0016547D02*
G01X0027623Y0016547D01*
G01X0027934Y0016810D02*
G01X0027743Y0016810D01*
G01X0027469Y0016810D02*
G01X0027254Y0016810D01*
G01X0027254Y0016810D02*
G01X0027182Y0016835D01*
G01X0027182Y0016835D02*
G01X0027158Y0016859D01*
G01X0027158Y0016859D02*
G01X0027134Y0016906D01*
G01X0027134Y0016906D02*
G01X0027134Y0016954D01*
G01X0027134Y0016954D02*
G01X0027158Y0017002D01*
G01X0027158Y0017002D02*
G01X0027182Y0017026D01*
G01X0027182Y0017026D02*
G01X0027254Y0017050D01*
G01X0027254Y0017050D02*
G01X0027469Y0017050D01*
G01X0027469Y0017050D02*
G01X0027469Y0016547D01*
G01X0027301Y0016810D02*
G01X0027134Y0016547D01*
G01X0026979Y0017050D02*
G01X0026979Y0016547D01*
G01X0026979Y0016547D02*
G01X0026693Y0016547D01*
G01X0025908Y0017050D02*
G01X0025957Y0017026D01*
G01X0025957Y0017026D02*
G01X0026004Y0016978D01*
G01X0026004Y0016978D02*
G01X0026028Y0016930D01*
G01X0026028Y0016930D02*
G01X0026052Y0016859D01*
G01X0026052Y0016859D02*
G01X0026052Y0016739D01*
G01X0026052Y0016739D02*
G01X0026028Y0016667D01*
G01X0026028Y0016667D02*
G01X0026004Y0016619D01*
G01X0026004Y0016619D02*
G01X0025957Y0016572D01*
G01X0025957Y0016572D02*
G01X0025908Y0016547D01*
G01X0025908Y0016547D02*
G01X0025813Y0016547D01*
G01X0025813Y0016547D02*
G01X0025765Y0016572D01*
G01X0025765Y0016572D02*
G01X0025717Y0016619D01*
G01X0025717Y0016619D02*
G01X0025693Y0016667D01*
G01X0025693Y0016667D02*
G01X0025670Y0016739D01*
G01X0025670Y0016739D02*
G01X0025670Y0016859D01*
G01X0025670Y0016859D02*
G01X0025693Y0016930D01*
G01X0025693Y0016930D02*
G01X0025717Y0016978D01*
G01X0025717Y0016978D02*
G01X0025765Y0017026D01*
G01X0025765Y0017026D02*
G01X0025813Y0017050D01*
G01X0025813Y0017050D02*
G01X0025908Y0017050D01*
G01X0025515Y0017050D02*
G01X0025515Y0016547D01*
G01X0025180Y0017050D02*
G01X0025180Y0016547D01*
G01X0025515Y0016810D02*
G01X0025180Y0016810D01*
G01X0025026Y0017050D02*
G01X0025026Y0016547D01*
G01X0025026Y0016547D02*
G01X0024739Y0016547D01*
G01X0024099Y0016954D02*
G01X0024051Y0016978D01*
G01X0024051Y0016978D02*
G01X0023979Y0017049D01*
G01X0023979Y0017049D02*
G01X0023979Y0016547D01*
G01X0023801Y0016595D02*
G01X0023824Y0016571D01*
G01X0023824Y0016571D02*
G01X0023801Y0016547D01*
G01X0023801Y0016547D02*
G01X0023776Y0016571D01*
G01X0023776Y0016571D02*
G01X0023801Y0016595D01*
G01X0023598Y0016930D02*
G01X0023598Y0016954D01*
G01X0023598Y0016954D02*
G01X0023574Y0017002D01*
G01X0023574Y0017002D02*
G01X0023550Y0017025D01*
G01X0023550Y0017025D02*
G01X0023502Y0017049D01*
G01X0023502Y0017049D02*
G01X0023406Y0017049D01*
G01X0023406Y0017049D02*
G01X0023359Y0017025D01*
G01X0023359Y0017025D02*
G01X0023335Y0017002D01*
G01X0023335Y0017002D02*
G01X0023311Y0016954D01*
G01X0023311Y0016954D02*
G01X0023311Y0016906D01*
G01X0023311Y0016906D02*
G01X0023335Y0016858D01*
G01X0023335Y0016858D02*
G01X0023383Y0016787D01*
G01X0023383Y0016787D02*
G01X0023622Y0016547D01*
G01X0023622Y0016547D02*
G01X0023287Y0016547D01*
G54D11*
G01X0022983Y0024490D02*
G01X0023012Y0024475D01*
G01X0023012Y0024475D02*
G01X0023055Y0024432D01*
G01X0023055Y0024432D02*
G01X0023055Y0024734D01*
G01X0022201Y0024277D02*
G01X0022172Y0024291D01*
G01X0022172Y0024291D02*
G01X0022129Y0024334D01*
G01X0022129Y0024334D02*
G01X0022129Y0024033D01*
M02*
