G04 DipTrace 3.0.0.2*
G04 Bottom.gbr*
%MOIN*%
G04 #@! TF.FileFunction,Copper,L4,Bot*
G04 #@! TF.Part,Single*
%AMOUTLINE0*
4,1,4,
-0.05214,-0.010311,
-0.01714,0.050311,
0.05214,0.010311,
0.01714,-0.050311,
-0.05214,-0.010311,
0*%
%AMOUTLINE6*
4,1,4,
0.01714,0.050311,
0.05214,-0.010311,
-0.01714,-0.050311,
-0.05214,0.010311,
0.01714,0.050311,
0*%
%AMOUTLINE9*5,1,4,0,0,0.094653,-164.999604*%
%AMOUTLINE12*5,1,4,0,0,0.094653,-195.000396*%
G04 #@! TA.AperFunction,Conductor*
%ADD13C,0.012992*%
%ADD14C,0.015*%
%ADD15C,0.02*%
G04 #@! TA.AperFunction,ComponentPad*
%ADD16C,0.09*%
G04 #@! TA.AperFunction,CopperBalancing*
%ADD19C,0.025*%
G04 #@! TA.AperFunction,ComponentPad*
%ADD21C,0.12*%
%ADD27R,0.07X0.08*%
%ADD28C,0.066929*%
%ADD29R,0.059055X0.059055*%
%ADD30C,0.059055*%
%ADD31C,0.065*%
%ADD36C,0.08*%
%ADD37C,0.25*%
%ADD38C,0.031*%
G04 #@! TA.AperFunction,ViaPad*
%ADD39C,0.04*%
%ADD41C,0.059*%
G04 #@! TA.AperFunction,ComponentPad*
%ADD96OUTLINE0*%
%ADD102OUTLINE6*%
%ADD105OUTLINE9*%
%ADD108OUTLINE12*%
%FSLAX26Y26*%
G04*
G70*
G90*
G75*
G01*
G04 Bottom*
%LPD*%
X3154699Y1368072D2*
D14*
X2797450D1*
X2703699Y1461823D1*
X3927699Y1932072D2*
D15*
Y1740072D1*
X3409699Y1222072D1*
X1928812Y1836860D2*
X1678699Y1480572D1*
X1153764Y1079282D1*
X2392699Y2509072D2*
X2488537D1*
X2543699Y2607072D1*
Y2835085D1*
X2595831Y2904823D1*
X2661807D1*
Y3094358D1*
X2749445Y3245538D1*
X3042348Y3750810D1*
X2964778Y4352857D1*
X3042348Y3750810D2*
X3378660Y3167970D1*
X3641133D1*
X4147329Y2274314D1*
X4034841Y2024340D1*
X4266067Y1618133D1*
X4703521Y1355660D1*
X4894631Y1146925D1*
X3347699Y3078071D2*
Y3137009D1*
X3378660Y3167970D1*
X3301169Y1461899D2*
D14*
X3442699Y1582072D1*
D13*
X3470934Y1673909D1*
X3730437Y1865366D1*
X4011699Y2067072D1*
X4015105Y2227122D1*
X3891346Y2444110D1*
X3644699Y2461060D1*
X2442699Y2595676D2*
D16*
X2356699Y2648072D1*
X2271699Y2507072D1*
X2178627Y2217469D1*
X2022400Y2217478D1*
X2916199Y1405572D2*
D14*
X3316084D1*
X3428655Y1518143D1*
X2153789Y1418154D2*
X2196699Y1506072D1*
X2389936Y1611883D1*
X2653639D1*
X2703699Y1561823D1*
X3869949Y2368322D2*
D13*
Y2242669D1*
X3913730Y2181846D1*
Y2084298D1*
X3804262Y2002976D1*
X3724828D1*
X3452424Y1730572D1*
X2872449D1*
X2703699Y1561823D1*
X3694699Y2374458D2*
X3664084Y2320458D1*
Y1989385D1*
X3441772Y1767072D1*
X2598073D1*
X2103699Y1491072D1*
X2094699Y1407915D1*
X2114592Y1380028D1*
X2468858D1*
X2704997Y1169072D1*
X2812199D1*
X2841199Y1190316D1*
Y1216072D1*
X2603699Y1461823D1*
X2503699Y1561823D2*
D14*
X2553747Y1511776D1*
Y1381950D1*
X2723772Y1211925D1*
X2784972D1*
X2603699Y1561823D2*
D13*
X2659950Y1505572D1*
X2797987D1*
X2953597Y1699322D1*
X3466199D1*
X3741205Y1974327D1*
X3813041D1*
X3944950Y2071734D1*
Y2237072D1*
X3553642Y1586886D2*
D14*
X3338491Y1371735D1*
Y1224159D1*
X3391013Y1171636D1*
X3473264D1*
X3567699Y1266072D1*
D39*
X3771699Y1473072D3*
X3057411Y1649322D3*
X2960474D3*
X3154699Y1368072D3*
X3428655Y1518143D3*
X2916199Y1405572D3*
X2784972Y1211925D3*
X2153789Y1418154D3*
X3567699Y1266072D3*
X3553642Y1586886D3*
X3301169Y1461899D3*
X3442699Y1582072D3*
D41*
X3204505Y1567266D3*
X2952143Y1566516D3*
X2531699Y2458072D3*
D39*
X1928812Y1836860D3*
X3409699Y1222072D3*
D41*
X3927699Y1932072D3*
X2303699Y2161823D3*
X3891199Y2543072D3*
X3869949Y2368322D3*
X3944950Y2237072D3*
D39*
X3269699Y1582072D3*
X2813299Y1603281D3*
X468699Y5055703D2*
D19*
X5538724D1*
X468699Y5030835D2*
X5538724D1*
X468699Y5005966D2*
X5538724D1*
X468699Y4981097D2*
X5538724D1*
X468699Y4956228D2*
X5538724D1*
X468699Y4931360D2*
X5538724D1*
X468699Y4906491D2*
X5538724D1*
X5541199Y4918072D2*
Y5080572D1*
X466199D1*
Y4905572D1*
X5541199D1*
Y4918072D1*
X468699Y4655703D2*
X2638724D1*
X468699Y4630835D2*
X2638724D1*
X468699Y4605966D2*
X2638724D1*
X468699Y4581097D2*
X2638724D1*
X468699Y4556228D2*
X663626D1*
X743773D2*
X2638724D1*
X468699Y4531360D2*
X638480D1*
X768919D2*
X2638724D1*
X468699Y4506491D2*
X628958D1*
X778441D2*
X2638724D1*
X468699Y4481622D2*
X628617D1*
X778782D2*
X2638724D1*
X468699Y4456753D2*
X637308D1*
X770091D2*
X2638724D1*
X468699Y4431885D2*
X660501D1*
X746898D2*
X2638724D1*
X468699Y4407016D2*
X2638724D1*
X468699Y4382147D2*
X2638724D1*
X468699Y4357278D2*
X2638724D1*
X468699Y4332409D2*
X2638724D1*
X468699Y4307541D2*
X2638724D1*
X468699Y4282672D2*
X2638724D1*
X468699Y4257803D2*
X2638724D1*
X468699Y4232934D2*
X2638724D1*
X468699Y4208066D2*
X2638724D1*
X468699Y4183197D2*
X2638724D1*
X468699Y4158328D2*
X2638724D1*
X468699Y4133459D2*
X2638724D1*
X468699Y4108591D2*
X2638724D1*
X468699Y4083722D2*
X2638724D1*
X468699Y4058853D2*
X2638724D1*
X468699Y4033984D2*
X2638724D1*
X468699Y4009115D2*
X2638724D1*
X468699Y3984247D2*
X2638724D1*
X468699Y3959378D2*
X2638724D1*
X468699Y3934509D2*
X2638724D1*
X468699Y3909640D2*
X2638724D1*
X468699Y3884772D2*
X2638724D1*
X468699Y3859903D2*
X2638724D1*
X468699Y3835034D2*
X2638724D1*
X468699Y3810165D2*
X2638724D1*
X468699Y3785297D2*
X2638724D1*
X468699Y3760428D2*
X2638724D1*
X468699Y3735559D2*
X2638724D1*
X468699Y3710690D2*
X2638724D1*
X468699Y3685822D2*
X2638724D1*
X468699Y3660953D2*
X2638724D1*
X468699Y3636084D2*
X2638724D1*
X468699Y3611215D2*
X2638724D1*
X468699Y3586346D2*
X2632572D1*
X468699Y3561478D2*
X2617678D1*
X468699Y3536609D2*
X2602738D1*
X468699Y3511740D2*
X2587845D1*
X468699Y3486871D2*
X2572904D1*
X468699Y3462003D2*
X2557962D1*
X468699Y3437134D2*
X2543070D1*
X468699Y3412265D2*
X2528129D1*
X468699Y3387396D2*
X2513236D1*
X468699Y3362528D2*
X2498294D1*
X468699Y3337659D2*
X2183988D1*
X468699Y3312790D2*
X2170462D1*
X468699Y3287921D2*
X2156888D1*
X468699Y3263052D2*
X2143314D1*
X468699Y3238184D2*
X2129740D1*
X468699Y3213315D2*
X2116165D1*
X468699Y3188446D2*
X2102640D1*
X468699Y3163577D2*
X2089066D1*
X468699Y3138709D2*
X2075491D1*
X468699Y3113840D2*
X2061917D1*
X468699Y3088971D2*
X2048343D1*
X468699Y3064102D2*
X2034818D1*
X468699Y3039234D2*
X2021243D1*
X468699Y3014365D2*
X2007669D1*
X468699Y2989496D2*
X1994094D1*
X468699Y2964627D2*
X1980521D1*
X468699Y2939759D2*
X1966995D1*
X468699Y2914890D2*
X1953421D1*
X468699Y2890021D2*
X1939846D1*
X468699Y2865152D2*
X1926273D1*
X468699Y2840283D2*
X1912698D1*
X468699Y2815415D2*
X1899125D1*
X468699Y2790546D2*
X1885598D1*
X468699Y2765677D2*
X1872025D1*
X468699Y2740808D2*
X1858450D1*
X468699Y2715940D2*
X1844877D1*
X468699Y2691071D2*
X1831302D1*
X468699Y2666202D2*
X1817777D1*
X468699Y2641333D2*
X1804202D1*
X468699Y2616465D2*
X1790629D1*
X468699Y2591596D2*
X1777054D1*
X468699Y2566727D2*
X1763480D1*
X468699Y2541858D2*
X1749954D1*
X468699Y2516990D2*
X1736381D1*
X468699Y2492121D2*
X1722806D1*
X468699Y2467252D2*
X1709232D1*
X468699Y2442383D2*
X1695657D1*
X468699Y2417514D2*
X1682133D1*
X468699Y2392646D2*
X1668558D1*
X468699Y2367777D2*
X1654984D1*
X468699Y2342908D2*
X1641409D1*
X468699Y2318039D2*
X1627835D1*
X468699Y2293171D2*
X1614310D1*
X468699Y2268302D2*
X1600736D1*
X468699Y2243433D2*
X1587161D1*
X468699Y2218564D2*
X1599466D1*
X468699Y2193696D2*
X1611917D1*
X468699Y2168827D2*
X1624369D1*
X468699Y2143958D2*
X1636770D1*
X468699Y2119089D2*
X1649222D1*
X468699Y2094220D2*
X1661673D1*
X468699Y2069352D2*
X1674075D1*
X468699Y2044483D2*
X1686526D1*
X468699Y2019614D2*
X1678373D1*
X468699Y1994745D2*
X1668411D1*
X468699Y1969877D2*
X1658450D1*
X468699Y1945008D2*
X1648490D1*
X468699Y1920139D2*
X1638577D1*
X468699Y1895270D2*
X1628617D1*
X468699Y1870402D2*
X1618656D1*
X468699Y1845533D2*
X1608743D1*
X468699Y1820664D2*
X1598782D1*
X468699Y1795795D2*
X1580374D1*
X468699Y1770927D2*
X1535598D1*
X468822Y1746058D2*
X1490824D1*
X482640Y1721189D2*
X1446049D1*
X496458Y1696320D2*
X1401322D1*
X510277Y1671451D2*
X1356546D1*
X524094Y1646583D2*
X1311770D1*
X537913Y1621714D2*
X1266995D1*
X551732Y1596845D2*
X1222269D1*
X565550Y1571976D2*
X1177493D1*
X579369Y1547108D2*
X1132718D1*
X593186Y1522239D2*
X1087942D1*
X607005Y1497370D2*
X1043217D1*
X620824Y1472501D2*
X998441D1*
X634642Y1447633D2*
X953665D1*
X648461Y1422764D2*
X908890D1*
X662278Y1397895D2*
X864163D1*
X676097Y1373026D2*
X819388D1*
X689915Y1348157D2*
X774613D1*
X703734Y1323289D2*
X729837D1*
X776972Y4487306D2*
X775169Y4475913D1*
X771605Y4464945D1*
X766369Y4454668D1*
X759589Y4445337D1*
X751434Y4437182D1*
X742104Y4430403D1*
X731827Y4425167D1*
X720858Y4421602D1*
X709466Y4419799D1*
X697933D1*
X686541Y4421602D1*
X675572Y4425167D1*
X665295Y4430403D1*
X655965Y4437182D1*
X647810Y4445337D1*
X641030Y4454668D1*
X635794Y4464945D1*
X632230Y4475913D1*
X630427Y4487306D1*
Y4498839D1*
X632230Y4510231D1*
X635794Y4521199D1*
X641030Y4531476D1*
X647810Y4540807D1*
X655965Y4548962D1*
X665295Y4555741D1*
X675572Y4560978D1*
X686541Y4564542D1*
X697933Y4566345D1*
X709466D1*
X720858Y4564542D1*
X731827Y4560978D1*
X742104Y4555741D1*
X751434Y4548962D1*
X759589Y4540807D1*
X766369Y4531476D1*
X771605Y4521199D1*
X775169Y4510231D1*
X776972Y4498839D1*
Y4487306D1*
X2408084Y3358062D2*
X2498172D1*
X2641215Y3596562D1*
X2641199Y4680572D1*
X466199D1*
Y1746245D1*
X708556Y1310070D1*
X1593749Y1801844D1*
X1690025Y2042543D1*
X1591782Y2239299D1*
X1591199Y2243167D1*
X1591841Y2247025D1*
X1598711Y2260031D1*
X2193797Y3350701D1*
X2196639Y3353387D1*
X2200172Y3355064D1*
X2204169Y3355559D1*
X2361659Y3355572D1*
X2375331Y3357218D1*
X2395584Y3358062D1*
X2408084D1*
X3368699Y4655703D2*
X5538724D1*
X3368699Y4630835D2*
X5538724D1*
X3368699Y4605966D2*
X5538724D1*
X3368699Y4581097D2*
X5538724D1*
X3368699Y4556228D2*
X5538724D1*
X3368699Y4531360D2*
X5538724D1*
X3368699Y4506491D2*
X5538724D1*
X3368699Y4481622D2*
X5538724D1*
X3368699Y4456753D2*
X5538724D1*
X3368699Y4431885D2*
X5538724D1*
X3368699Y4407016D2*
X5538724D1*
X3368699Y4382147D2*
X5538724D1*
X3368699Y4357278D2*
X5538724D1*
X3368699Y4332409D2*
X5538724D1*
X3368699Y4307541D2*
X5538724D1*
X3368699Y4282672D2*
X5538724D1*
X3368699Y4257803D2*
X5538724D1*
X3368699Y4232934D2*
X5538724D1*
X3368699Y4208066D2*
X5538724D1*
X3368699Y4183197D2*
X5538724D1*
X3368699Y4158328D2*
X5538724D1*
X3368699Y4133459D2*
X5538724D1*
X3368699Y4108591D2*
X5538724D1*
X3368699Y4083722D2*
X5538724D1*
X3368699Y4058853D2*
X5538724D1*
X3368699Y4033984D2*
X5538724D1*
X3368699Y4009115D2*
X5538724D1*
X3368699Y3984247D2*
X5538724D1*
X3368699Y3959378D2*
X5538724D1*
X3368699Y3934509D2*
X5538724D1*
X3368699Y3909640D2*
X5538724D1*
X3368699Y3884772D2*
X5538724D1*
X3368699Y3859903D2*
X5538724D1*
X3368699Y3835034D2*
X5538724D1*
X3368699Y3810165D2*
X5538724D1*
X3368699Y3785297D2*
X5538724D1*
X3368699Y3760428D2*
X5538724D1*
X3368699Y3735559D2*
X5538724D1*
X3368699Y3710690D2*
X5538724D1*
X3368699Y3685822D2*
X5538724D1*
X3368699Y3660953D2*
X5538724D1*
X3374974Y3636084D2*
X5538724D1*
X3389915Y3611215D2*
X5538724D1*
X3404808Y3586346D2*
X5538724D1*
X3419749Y3561478D2*
X5538724D1*
X3434642Y3536609D2*
X5538724D1*
X3449583Y3511740D2*
X5538724D1*
X3464476Y3486871D2*
X5538724D1*
X3479417Y3462003D2*
X5538724D1*
X3494358Y3437134D2*
X5538724D1*
X3509251Y3412265D2*
X5538724D1*
X3774094Y3387396D2*
X5538724D1*
X3788743Y3362528D2*
X5538724D1*
X3803441Y3337659D2*
X5538724D1*
X3818138Y3312790D2*
X5538724D1*
X3832835Y3287921D2*
X5538724D1*
X3847533Y3263052D2*
X5538724D1*
X3862230Y3238184D2*
X5538724D1*
X3876927Y3213315D2*
X5538724D1*
X3891625Y3188446D2*
X5538724D1*
X3906322Y3163577D2*
X5538724D1*
X3921018Y3138709D2*
X5538724D1*
X3935717Y3113840D2*
X5538724D1*
X3950413Y3088971D2*
X5538724D1*
X3965110Y3064102D2*
X5538724D1*
X3979808Y3039234D2*
X5538724D1*
X3994505Y3014365D2*
X5538724D1*
X4009202Y2989496D2*
X5538724D1*
X4023900Y2964627D2*
X5538724D1*
X4038597Y2939759D2*
X5538724D1*
X4053294Y2914890D2*
X5538724D1*
X4067991Y2890021D2*
X5538724D1*
X4082689Y2865152D2*
X5538724D1*
X4097386Y2840283D2*
X5538724D1*
X4112083Y2815415D2*
X5538724D1*
X4126781Y2790546D2*
X5538724D1*
X4141429Y2765677D2*
X5538724D1*
X4156126Y2740808D2*
X5538724D1*
X4170824Y2715940D2*
X5538724D1*
X4185521Y2691071D2*
X5538724D1*
X4200218Y2666202D2*
X5538724D1*
X4214915Y2641333D2*
X5538724D1*
X4229613Y2616465D2*
X5538724D1*
X4244310Y2591596D2*
X5538724D1*
X4259007Y2566727D2*
X5538724D1*
X4273705Y2541858D2*
X5538724D1*
X4288402Y2516990D2*
X5538724D1*
X4303098Y2492121D2*
X5538724D1*
X4317797Y2467252D2*
X5538724D1*
X4332493Y2442383D2*
X5538724D1*
X4347190Y2417514D2*
X5538724D1*
X4361888Y2392646D2*
X5538724D1*
X4376585Y2367777D2*
X5538724D1*
X4391282Y2342908D2*
X5538724D1*
X4405980Y2318039D2*
X5538724D1*
X4419701Y2293171D2*
X5538724D1*
X4409740Y2268302D2*
X5538724D1*
X4399827Y2243433D2*
X5538724D1*
X4389866Y2218564D2*
X5538724D1*
X4379906Y2193696D2*
X5538724D1*
X4369945Y2168827D2*
X5538724D1*
X4360033Y2143958D2*
X5538724D1*
X4350072Y2119089D2*
X5538724D1*
X4340110Y2094220D2*
X5538724D1*
X4330198Y2069352D2*
X5538724D1*
X4320238Y2044483D2*
X5538724D1*
X4331908Y2019614D2*
X5538724D1*
X4344358Y1994745D2*
X5538724D1*
X4356761Y1969877D2*
X5538724D1*
X4369213Y1945008D2*
X5538724D1*
X4381663Y1920139D2*
X5538724D1*
X4394066Y1895270D2*
X5538724D1*
X4406517Y1870402D2*
X5538724D1*
X4418969Y1845533D2*
X5538724D1*
X4431370Y1820664D2*
X5538724D1*
X4443822Y1795795D2*
X5538724D1*
X4456224Y1770927D2*
X5538724D1*
X4475755Y1746058D2*
X5538724D1*
X4518041Y1721189D2*
X5538724D1*
X4560325Y1696320D2*
X5538724D1*
X4602610Y1671451D2*
X5538724D1*
X4644896Y1646583D2*
X5538675D1*
X4687181Y1621714D2*
X5523098D1*
X4729417Y1596845D2*
X5507572D1*
X4771702Y1571976D2*
X5492045D1*
X4813988Y1547108D2*
X5476469D1*
X4856273Y1522239D2*
X5460941D1*
X4898558Y1497370D2*
X5445413D1*
X4940843Y1472501D2*
X5429837D1*
X4983079Y1447633D2*
X5414310D1*
X5025365Y1422764D2*
X5398782D1*
X5067650Y1397895D2*
X5383206D1*
X5109934Y1373026D2*
X5367678D1*
X5152220Y1348157D2*
X5352152D1*
X5194505Y1323289D2*
X5336575D1*
X5236741Y1298420D2*
X5321049D1*
X5279026Y1273551D2*
X5305521D1*
X5528699Y4680572D2*
X3366199D1*
Y3646539D1*
X3510803Y3405529D1*
X3755655Y3405419D1*
X3759374Y3404210D1*
X3762538Y3401911D1*
X3764461Y3399432D1*
X4415323Y2297669D1*
X4416175Y2293853D1*
X4415806Y2289959D1*
X4396736Y2242007D1*
X4317374Y2043601D1*
X4463224Y1751972D1*
X5299539Y1260021D1*
X5541214Y1646681D1*
X5541199Y4680572D1*
X5528699D1*
X468699Y1155966D2*
X485843D1*
X468699Y1131097D2*
X499857D1*
X468699Y1106228D2*
X513822D1*
X468699Y1081360D2*
X527835D1*
X468699Y1056491D2*
X541801D1*
X468699Y1031622D2*
X555814D1*
X468699Y1006753D2*
X569778D1*
X468699Y981885D2*
X583793D1*
X468699Y957016D2*
X597757D1*
X468699Y932147D2*
X611770D1*
X468699Y907278D2*
X625736D1*
X468699Y882409D2*
X639749D1*
X468699Y857541D2*
X653714D1*
X468699Y832672D2*
X667728D1*
X468699Y807803D2*
X681693D1*
X468699Y782934D2*
X695706D1*
X468699Y758066D2*
X709671D1*
X468699Y733197D2*
X723685D1*
X468699Y708328D2*
X737650D1*
X468699Y683459D2*
X751663D1*
X468699Y658591D2*
X765629D1*
X468699Y633722D2*
X779593D1*
X468699Y608853D2*
X793606D1*
X468699Y583984D2*
X807572D1*
X468699Y559115D2*
X821585D1*
X468699Y534247D2*
X835550D1*
X468699Y509378D2*
X849564D1*
X468699Y484509D2*
X863529D1*
X468699Y459640D2*
X877542D1*
X882344Y455542D2*
X466196Y1195360D1*
X466199Y455572D1*
X882362D1*
X1914671Y1105703D2*
X2205911D1*
X3793822D2*
X4140091D1*
X1869896Y1080835D2*
X2218362D1*
X3775169D2*
X4182327D1*
X1825169Y1055966D2*
X2230765D1*
X3756517D2*
X4224613D1*
X1780394Y1031097D2*
X2243217D1*
X3737865D2*
X4266898D1*
X1735618Y1006228D2*
X2255667D1*
X3719213D2*
X4309182D1*
X1690843Y981360D2*
X2268070D1*
X3700560D2*
X4351469D1*
X1646117Y956491D2*
X2280521D1*
X3681908D2*
X4393753D1*
X1601341Y931622D2*
X2292972D1*
X3663255D2*
X4435990D1*
X1556566Y906753D2*
X4478274D1*
X1511790Y881885D2*
X4520560D1*
X1467014Y857016D2*
X4562845D1*
X1422289Y832147D2*
X4605130D1*
X1377513Y807278D2*
X4647415D1*
X1332738Y782409D2*
X4689652D1*
X1287962Y757541D2*
X4465921D1*
X4541478D2*
X4731937D1*
X1243236Y732672D2*
X4439261D1*
X4568138D2*
X4774222D1*
X1198461Y707803D2*
X4429202D1*
X4578197D2*
X4816507D1*
X1153685Y682934D2*
X4428421D1*
X4578978D2*
X4858793D1*
X1108909Y658066D2*
X4436575D1*
X4570824D2*
X4901077D1*
X1075121Y633197D2*
X4458549D1*
X4548850D2*
X4932278D1*
X1087522Y608328D2*
X4919877D1*
X1099974Y583459D2*
X4907425D1*
X1112425Y558591D2*
X4894974D1*
X1124827Y533722D2*
X4882572D1*
X1137278Y508853D2*
X4870121D1*
X1149730Y483984D2*
X4857669D1*
X1162133Y459115D2*
X4845266D1*
X4576972Y687306D2*
X4575169Y675913D1*
X4571605Y664945D1*
X4566369Y654668D1*
X4559589Y645337D1*
X4551434Y637182D1*
X4542104Y630403D1*
X4531827Y625167D1*
X4520858Y621602D1*
X4509466Y619799D1*
X4497933D1*
X4486541Y621602D1*
X4475572Y625167D1*
X4465295Y630403D1*
X4455965Y637182D1*
X4447810Y645337D1*
X4441030Y654668D1*
X4435794Y664945D1*
X4432230Y675913D1*
X4430427Y687306D1*
Y698839D1*
X4432230Y710231D1*
X4435794Y721199D1*
X4441030Y731476D1*
X4447810Y740807D1*
X4455965Y748962D1*
X4465295Y755741D1*
X4475572Y760978D1*
X4486541Y764542D1*
X4497933Y766345D1*
X4509466D1*
X4520858Y764542D1*
X4531827Y760978D1*
X4542104Y755741D1*
X4551434Y748962D1*
X4559589Y740807D1*
X4566369Y731476D1*
X4571605Y721199D1*
X4575169Y710231D1*
X4576972Y698839D1*
Y687306D1*
X1956996Y1130604D2*
X1070205Y637942D1*
X1161446Y455531D1*
X4846033Y455572D1*
X4937312Y638248D1*
X4100253Y1130597D1*
X3809900Y1130572D1*
X3662403Y934100D1*
X3659205Y931849D1*
X3655467Y930698D1*
X3628699Y930572D1*
X2301744Y930726D1*
X2298025Y931934D1*
X2294861Y934234D1*
X2292394Y937762D1*
X2195954Y1130613D1*
X1956873Y1130572D1*
X5521556Y1155966D2*
X5538724D1*
X5507542Y1131097D2*
X5538724D1*
X5493577Y1106228D2*
X5538724D1*
X5479564Y1081360D2*
X5538724D1*
X5465598Y1056491D2*
X5538724D1*
X5451585Y1031622D2*
X5538724D1*
X5437621Y1006753D2*
X5538724D1*
X5423606Y981885D2*
X5538724D1*
X5409642Y957016D2*
X5538724D1*
X5395629Y932147D2*
X5538724D1*
X5381663Y907278D2*
X5538724D1*
X5367650Y882409D2*
X5538724D1*
X5353685Y857541D2*
X5538724D1*
X5339671Y832672D2*
X5538724D1*
X5325706Y807803D2*
X5538724D1*
X5311693Y782934D2*
X5538724D1*
X5297728Y758066D2*
X5538724D1*
X5283714Y733197D2*
X5538724D1*
X5269749Y708328D2*
X5538724D1*
X5255736Y683459D2*
X5538724D1*
X5241770Y658591D2*
X5538724D1*
X5227806Y633722D2*
X5538724D1*
X5213793Y608853D2*
X5538724D1*
X5199827Y583984D2*
X5538724D1*
X5185814Y559115D2*
X5538724D1*
X5171849Y534247D2*
X5538724D1*
X5157835Y509378D2*
X5538724D1*
X5143870Y484509D2*
X5538724D1*
X5129857Y459640D2*
X5538724D1*
X5125037Y455572D2*
X5541199D1*
Y1195367D1*
X5125059Y455547D1*
X2851814Y4383340D2*
X2903748D1*
X3104549D2*
X3154236D1*
X2851814Y4358471D2*
X2896521D1*
X3111774D2*
X3154236D1*
X2851814Y4333602D2*
X2899157D1*
X3109138D2*
X3154236D1*
X2851814Y4308734D2*
X2913171D1*
X3095125D2*
X3154236D1*
X2851814Y4283865D2*
X2927332D1*
X3020026D2*
X3154236D1*
X2851814Y4258996D2*
X2930505D1*
X3023201D2*
X3154236D1*
X2851814Y4234127D2*
X2933728D1*
X3026423D2*
X3154236D1*
X2851814Y4209259D2*
X2936950D1*
X3029646D2*
X3154236D1*
X2851814Y4184390D2*
X2940125D1*
X3032820D2*
X3154236D1*
X2851814Y4159521D2*
X2943346D1*
X3036042D2*
X3154236D1*
X2851814Y4134652D2*
X2946570D1*
X3039217D2*
X3154236D1*
X2851814Y4109783D2*
X2949744D1*
X3042438D2*
X3154236D1*
X2851814Y4084915D2*
X2952966D1*
X3045661D2*
X3154236D1*
X2851814Y4060046D2*
X2956140D1*
X3048836D2*
X3154236D1*
X2851814Y4035177D2*
X2959362D1*
X3052058D2*
X3154236D1*
X2851814Y4010308D2*
X2962585D1*
X3055281D2*
X3154236D1*
X2851814Y3985440D2*
X2965759D1*
X3058454D2*
X3154236D1*
X2851814Y3960571D2*
X2968982D1*
X3061677D2*
X3154236D1*
X2851814Y3935702D2*
X2972156D1*
X3064850D2*
X3154236D1*
X2851814Y3910833D2*
X2975378D1*
X3068073D2*
X3154236D1*
X2851814Y3885965D2*
X2978601D1*
X3071297D2*
X3154236D1*
X2851814Y3861096D2*
X2981774D1*
X3074470D2*
X3154236D1*
X2851814Y3836227D2*
X2984997D1*
X3077693D2*
X3154236D1*
X2851814Y3811358D2*
X2988220D1*
X3080916D2*
X3154236D1*
X2851814Y3786490D2*
X2991394D1*
X3084089D2*
X3154236D1*
X2851814Y3761621D2*
X2994617D1*
X3088825D2*
X3154236D1*
X2851814Y3736752D2*
X2981433D1*
X3103181D2*
X3154236D1*
X2851814Y3711883D2*
X2967029D1*
X3117537D2*
X3154236D1*
X2851814Y3687014D2*
X2952625D1*
X3131843D2*
X3154236D1*
X2851814Y3662146D2*
X2938171D1*
X3146198D2*
X3154182D1*
X2851814Y3637277D2*
X2923766D1*
X3029304D2*
X3055164D1*
X2851814Y3612408D2*
X2909362D1*
X3014900D2*
X3069518D1*
X2851912Y3587539D2*
X2894958D1*
X3000446D2*
X3083874D1*
X2849080Y3562671D2*
X2880505D1*
X2986042D2*
X3098181D1*
X2836921Y3537802D2*
X2866101D1*
X2971638D2*
X3112537D1*
X2824762Y3512933D2*
X2851697D1*
X2957234D2*
X3126892D1*
X2812605Y3488064D2*
X2837293D1*
X2942781D2*
X3141248D1*
X2800446Y3463196D2*
X2822839D1*
X2928377D2*
X3155602D1*
X2788289Y3438327D2*
X2808434D1*
X2913972D2*
X3169958D1*
X2776130Y3413458D2*
X2794030D1*
X2899568D2*
X3184314D1*
X2763972Y3388589D2*
X2779626D1*
X2885114D2*
X3198669D1*
X2751814Y3363720D2*
X2765173D1*
X2870710D2*
X3212976D1*
X2739656Y3338852D2*
X2750769D1*
X2856306D2*
X3227332D1*
X2727497Y3313983D2*
X2736339D1*
X2841902D2*
X3241686D1*
X2827449Y3289114D2*
X3256042D1*
X2813045Y3264245D2*
X3270398D1*
X2798640Y3239377D2*
X3284753D1*
X2784236Y3214508D2*
X3299109D1*
X2769782Y3189639D2*
X3313465D1*
X2755378Y3164770D2*
X3311706D1*
X2362165Y3139902D2*
X2635437D1*
X2740974D2*
X3301794D1*
X2348054Y3115033D2*
X2621033D1*
X2726570D2*
X3276892D1*
X3406160D2*
X3618640D1*
X2333942Y3090164D2*
X2615808D1*
X2712165D2*
X3233533D1*
X3420514D2*
X3632702D1*
X2319881Y3065295D2*
X2420252D1*
X2515877D2*
X2615808D1*
X2707770D2*
X3202917D1*
X3429402D2*
X3646814D1*
X2305769Y3040427D2*
X2403748D1*
X2532381D2*
X2615808D1*
X2707770D2*
X3192761D1*
X3417732D2*
X3660877D1*
X2291657Y3015558D2*
X2399597D1*
X2536530D2*
X2615808D1*
X2707770D2*
X3192810D1*
X3375837D2*
X3674988D1*
X2277546Y2990689D2*
X2374938D1*
X2530965D2*
X2615808D1*
X2707770D2*
X3203014D1*
X3319148D2*
X3689050D1*
X2263484Y2965820D2*
X2362341D1*
X2511824D2*
X2615808D1*
X2707770D2*
X3233923D1*
X3288289D2*
X3376257D1*
X3413142D2*
X3703161D1*
X2249373Y2940951D2*
X2360681D1*
X2496686D2*
X2569129D1*
X2719538D2*
X3335584D1*
X3453816D2*
X3717224D1*
X2245369Y2916083D2*
X2369080D1*
X2488337D2*
X2547449D1*
X2729353D2*
X3322058D1*
X3467341D2*
X3731336D1*
X2274861Y2891214D2*
X2394518D1*
X2462849D2*
X2528845D1*
X2728913D2*
X3318738D1*
X3470661D2*
X3745398D1*
X2284724Y2866345D2*
X2510290D1*
X2717927D2*
X3324109D1*
X3491218D2*
X3759509D1*
X2370661Y2841476D2*
X2498181D1*
X2690778D2*
X3340857D1*
X3512361D2*
X3773572D1*
X2390144Y2816608D2*
X2497693D1*
X2687849D2*
X3369274D1*
X3520125D2*
X3787682D1*
X2397077Y2791739D2*
X2497693D1*
X2673298D2*
X3370398D1*
X3519001D2*
X3801745D1*
X2395222Y2766870D2*
X2497693D1*
X2589705D2*
X3380945D1*
X3554500D2*
X3755993D1*
X2383698Y2742001D2*
X2497693D1*
X2589705D2*
X3408777D1*
X3567585D2*
X3715514D1*
X2396492Y2717133D2*
X2497693D1*
X2589705D2*
X3418786D1*
X3570613D2*
X3706140D1*
X2437507Y2692264D2*
X2497693D1*
X2589705D2*
X3424500D1*
X3592341D2*
X3716198D1*
X2478328Y2667395D2*
X2497693D1*
X2589705D2*
X3441785D1*
X3612801D2*
X3730554D1*
X2589705Y2642526D2*
X3469177D1*
X3620222D2*
X3744909D1*
X2589705Y2617657D2*
X3470593D1*
X3619636D2*
X3762732D1*
X2587262Y2592789D2*
X3481530D1*
X3655232D2*
X3773621D1*
X2574080Y2567920D2*
X3510584D1*
X3667829D2*
X3787976D1*
X2560066Y2543051D2*
X3518836D1*
X3670564D2*
X3802332D1*
X2009724Y2518182D2*
X2031629D1*
X2553084D2*
X3524890D1*
X3664509D2*
X3830846D1*
X1995613Y2493314D2*
X2102429D1*
X2586433D2*
X3542713D1*
X3646686D2*
X3850037D1*
X3932332D2*
X3970789D1*
X1981501Y2468445D2*
X2121862D1*
X2596345D2*
X3984900D1*
X1967390Y2443576D2*
X2166345D1*
X2336238D2*
X2346898D1*
X2438484D2*
X2467908D1*
X2595514D2*
X3667224D1*
X3722175D2*
X3998962D1*
X1953328Y2418707D2*
X2043689D1*
X2138923D2*
X2158337D1*
X2380916D2*
X2480017D1*
X2583406D2*
X2909606D1*
X3097761D2*
X3633533D1*
X3755866D2*
X3829626D1*
X3910261D2*
X4013073D1*
X1939217Y2393839D2*
X2014685D1*
X2423982D2*
X2860974D1*
X3146394D2*
X3621277D1*
X3768073D2*
X3809850D1*
X3930037D2*
X4027136D1*
X1925105Y2368970D2*
X2001013D1*
X2456745D2*
X2834217D1*
X3173152D2*
X3618885D1*
X3770514D2*
X3804430D1*
X3935457D2*
X4041248D1*
X1910993Y2344101D2*
X1995593D1*
X2459285D2*
X2809362D1*
X3198054D2*
X3625281D1*
X3794490D2*
X3809291D1*
X3930622D2*
X4055310D1*
X1896930Y2319232D2*
X1996961D1*
X2446052D2*
X2793640D1*
X3213728D2*
X3621618D1*
X3813678D2*
X3827478D1*
X3912409D2*
X4069421D1*
X1882820Y2294364D2*
X1966686D1*
X2431697D2*
X2780993D1*
X3226423D2*
X3621618D1*
X3973640D2*
X4083484D1*
X1868709Y2269495D2*
X1942224D1*
X2416169D2*
X2768885D1*
X3238484D2*
X3621618D1*
X4001472D2*
X4094958D1*
X1871101Y2244626D2*
X1930408D1*
X2402253D2*
X2764441D1*
X3242976D2*
X3621618D1*
X4010017D2*
X4083777D1*
X1883748Y2219757D2*
X1926453D1*
X2388630D2*
X2760486D1*
X3246930D2*
X3621618D1*
X3706550D2*
X3714510D1*
X4008014D2*
X4072594D1*
X1896394Y2194888D2*
X1929186D1*
X2374274D2*
X2756970D1*
X3250446D2*
X3621618D1*
X3706550D2*
X3718936D1*
X3994245D2*
X4061413D1*
X1909041Y2170020D2*
X1939343D1*
X2368660D2*
X2760193D1*
X3247175D2*
X3621618D1*
X3706550D2*
X3725671D1*
X3987409D2*
X4050232D1*
X1921686Y2145151D2*
X1960633D1*
X2211629D2*
X2240466D1*
X2366950D2*
X2764148D1*
X3243269D2*
X3621618D1*
X3706550D2*
X3744714D1*
X3987409D2*
X4039001D1*
X1934333Y2120282D2*
X2253845D1*
X2353572D2*
X2768346D1*
X3239021D2*
X3621618D1*
X3706550D2*
X3768933D1*
X3987409D2*
X4027820D1*
X1946980Y2095413D2*
X2780114D1*
X3227302D2*
X3621618D1*
X3706550D2*
X3771277D1*
X3987409D2*
X4016638D1*
X1959626Y2070545D2*
X2792761D1*
X3214656D2*
X3621618D1*
X3706550D2*
X3783386D1*
X3987409D2*
X4005457D1*
X1972273Y2045676D2*
X2807605D1*
X3199762D2*
X3621618D1*
X3706550D2*
X3792175D1*
X3977790D2*
X3994274D1*
X1962018Y2020807D2*
X2832507D1*
X3174909D2*
X3621618D1*
X3945808D2*
X3989001D1*
X1947664Y1995938D2*
X2858289D1*
X3149129D2*
X3611609D1*
X3912117D2*
X3998474D1*
X1933259Y1971070D2*
X2906189D1*
X3101178D2*
X3586706D1*
X3979694D2*
X4012634D1*
X1918904Y1946201D2*
X3561853D1*
X3844782D2*
X3863806D1*
X3991609D2*
X4026794D1*
X1904500Y1921332D2*
X3537000D1*
X3747273D2*
X3863122D1*
X3992293D2*
X4040954D1*
X1890144Y1896463D2*
X3512097D1*
X3722370D2*
X3873230D1*
X3982185D2*
X4055114D1*
X1875740Y1871594D2*
X1885598D1*
X1971980D2*
X3487244D1*
X3697517D2*
X3881726D1*
X3973689D2*
X4069226D1*
X1861385Y1846726D2*
X1873706D1*
X1983894D2*
X3462390D1*
X3672664D2*
X3881726D1*
X3973689D2*
X4083386D1*
X1846980Y1821857D2*
X1862634D1*
X1982673D2*
X3437488D1*
X3647761D2*
X3881726D1*
X3973689D2*
X4097546D1*
X1832625Y1796988D2*
X1845150D1*
X1967000D2*
X2567126D1*
X3622908D2*
X3881726D1*
X3973689D2*
X4111706D1*
X1818220Y1772119D2*
X1827768D1*
X1939021D2*
X2522594D1*
X3598054D2*
X3881726D1*
X3973689D2*
X4125866D1*
X1921541Y1747251D2*
X2478064D1*
X3573152D2*
X3870886D1*
X3973689D2*
X4140026D1*
X1904060Y1722382D2*
X2433484D1*
X2602546D2*
X2805213D1*
X3548298D2*
X3846033D1*
X3969929D2*
X4154186D1*
X1886629Y1697513D2*
X2388953D1*
X2558014D2*
X2780358D1*
X3523445D2*
X3821130D1*
X3949129D2*
X4168346D1*
X1869148Y1672644D2*
X2344421D1*
X2513434D2*
X2755457D1*
X3498542D2*
X3796277D1*
X3924274D2*
X4182507D1*
X1851717Y1647776D2*
X2299841D1*
X2675934D2*
X2730602D1*
X3113386D2*
X3771423D1*
X3899421D2*
X4196668D1*
X1834236Y1622907D2*
X2255310D1*
X3306745D2*
X3511609D1*
X3595710D2*
X3746521D1*
X3874518D2*
X4210828D1*
X1673640Y1598038D2*
X1705505D1*
X1816804D2*
X2210778D1*
X3323249D2*
X3498816D1*
X3608454D2*
X3721668D1*
X3849665D2*
X4224988D1*
X1630916Y1573169D2*
X1688073D1*
X1799324D2*
X2166248D1*
X3324958D2*
X3479480D1*
X3607869D2*
X3696814D1*
X3824812D2*
X4253992D1*
X1588142Y1548301D2*
X1670593D1*
X1781892D2*
X2121668D1*
X3313678D2*
X3381970D1*
X3593220D2*
X3671912D1*
X3799909D2*
X4295446D1*
X1545417Y1523432D2*
X1653161D1*
X1764412D2*
X2077722D1*
X2866121D2*
X2903698D1*
X3252253D2*
X3372937D1*
X3550642D2*
X3647058D1*
X3792244D2*
X4336902D1*
X1502693Y1498563D2*
X1628113D1*
X1746980D2*
X2061902D1*
X2846150D2*
X2949646D1*
X3204646D2*
X3348621D1*
X3525789D2*
X3622205D1*
X3821248D2*
X4378308D1*
X1459969Y1473694D2*
X1595593D1*
X1729500D2*
X2059118D1*
X2229010D2*
X2271325D1*
X2502106D2*
X2510259D1*
X2824617D2*
X3323718D1*
X3500934D2*
X3597302D1*
X3827693D2*
X4419762D1*
X1417244Y1448825D2*
X1563073D1*
X1710896D2*
X2056433D1*
X2216853D2*
X2284997D1*
X2488386D2*
X2510241D1*
X2777156D2*
X2882214D1*
X2950202D2*
X3298865D1*
X3476033D2*
X3572449D1*
X3700446D2*
X3721521D1*
X3821882D2*
X4461218D1*
X1374518Y1423957D2*
X1530554D1*
X1678766D2*
X2053698D1*
X2209480D2*
X2318640D1*
X2454744D2*
X2510241D1*
X2802009D2*
X2863465D1*
X3451178D2*
X3547594D1*
X3675593D2*
X3747986D1*
X3795417D2*
X4502673D1*
X1331794Y1399088D2*
X1497986D1*
X1646198D2*
X2053210D1*
X3426325D2*
X3522693D1*
X3650690D2*
X4544129D1*
X1289070Y1374219D2*
X1465466D1*
X1613678D2*
X2067126D1*
X2621930D2*
X2630252D1*
X3401423D2*
X3497839D1*
X3625837D2*
X3656774D1*
X4178034D2*
X4585584D1*
X1246345Y1349350D2*
X1432946D1*
X1581160D2*
X1834118D1*
X3207332D2*
X3295007D1*
X3381990D2*
X3472986D1*
X3600984D2*
X3641004D1*
X4221638D2*
X4626990D1*
X1203621Y1324482D2*
X1400427D1*
X1548640D2*
X1790125D1*
X2389705D2*
X2468542D1*
X2794538D2*
X3121178D1*
X3188240D2*
X3295007D1*
X3381990D2*
X3448133D1*
X3576130D2*
X3625232D1*
X4265241D2*
X4668445D1*
X1160896Y1299613D2*
X1367858D1*
X1516072D2*
X1746130D1*
X2408797D2*
X2496374D1*
X2818562D2*
X3295007D1*
X3381990D2*
X3423230D1*
X4308845D2*
X4693396D1*
X1118171Y1274744D2*
X1335339D1*
X1483552D2*
X1702136D1*
X2427888D2*
X2524206D1*
X2842585D2*
X3295007D1*
X3381990D2*
X3397854D1*
X4352449D2*
X4716150D1*
X1075446Y1249875D2*
X1302820D1*
X1451033D2*
X1658142D1*
X2446980D2*
X2552038D1*
X2866657D2*
X3295007D1*
X4396052D2*
X4738904D1*
X4861824D2*
X4876062D1*
X1032722Y1225007D2*
X1270301D1*
X1418513D2*
X1614148D1*
X2466072D2*
X2579870D1*
X2882673D2*
X3295007D1*
X4439656D2*
X4761706D1*
X4884626D2*
X4920593D1*
X1015437Y1200138D2*
X1072106D1*
X1156697D2*
X1237732D1*
X1385945D2*
X1570154D1*
X2485164D2*
X2607702D1*
X2883698D2*
X3302770D1*
X4483210D2*
X4784461D1*
X4936189D2*
X4965125D1*
X1029500Y1175269D2*
X1052038D1*
X1176765D2*
X1205213D1*
X1353425D2*
X1526160D1*
X2504255D2*
X2635534D1*
X2880720D2*
X3326941D1*
X4526814D2*
X4807214D1*
X4956745D2*
X4991882D1*
X1320906Y1150400D2*
X1482117D1*
X4570417D2*
X4826209D1*
X4963045D2*
X4978014D1*
X1288386Y1125531D2*
X1438122D1*
X4614021D2*
X4806238D1*
X1255818Y1100663D2*
X1394129D1*
X4657625D2*
X4790514D1*
X1223298Y1075794D2*
X1350134D1*
X4701228D2*
X4786804D1*
X1215877Y1050925D2*
X1306140D1*
X4744832D2*
X4792908D1*
X1195270Y1026056D2*
X1262146D1*
X4788434D2*
X4812976D1*
X4897517D2*
X4906374D1*
X1127937Y1001188D2*
X1218152D1*
X4832038D2*
X4895007D1*
X1142000Y976319D2*
X1174157D1*
X2318811Y2397168D2*
X2327701Y2412358D1*
X2332892Y2418278D1*
X2339324Y2422824D1*
X2346638Y2425741D1*
X2354432Y2426871D1*
X2362273Y2426151D1*
X2369731Y2423619D1*
X2441340Y2382395D1*
X2447651Y2377684D1*
X2452686Y2371629D1*
X2456169Y2364566D1*
X2457907Y2356885D1*
X2457804Y2349010D1*
X2455865Y2341378D1*
X2453602Y2336633D1*
X2417198Y2273786D1*
X2412007Y2267866D1*
X2405575Y2263322D1*
X2402844Y2262009D1*
X2401407Y2259024D1*
X2401304Y2251150D1*
X2399366Y2243517D1*
X2397102Y2238772D1*
X2365178Y2183505D1*
X2364959Y2176530D1*
X2366505Y2166766D1*
Y2156879D1*
X2364959Y2147115D1*
X2361904Y2137714D1*
X2357416Y2128906D1*
X2351605Y2120908D1*
X2344614Y2113917D1*
X2336617Y2108106D1*
X2327808Y2103618D1*
X2318407Y2100563D1*
X2308643Y2099017D1*
X2298756D1*
X2288992Y2100563D1*
X2279591Y2103618D1*
X2270782Y2108106D1*
X2262785Y2113917D1*
X2255794Y2120908D1*
X2249983Y2128906D1*
X2245495Y2137714D1*
X2242440Y2147115D1*
X2240894Y2156879D1*
Y2166766D1*
X2241304Y2170239D1*
X2234312Y2162139D1*
X2224972Y2154109D1*
X2214490Y2147639D1*
X2203125Y2142888D1*
X2191156Y2139975D1*
X2178623Y2138969D1*
X2073203Y2138974D1*
X2064848Y2134168D1*
X2051294Y2128554D1*
X2037026Y2125129D1*
X2022400Y2123978D1*
X2007774Y2125129D1*
X1993507Y2128554D1*
X1979953Y2134168D1*
X1967442Y2141835D1*
X1956286Y2151364D1*
X1946757Y2162520D1*
X1939091Y2175029D1*
X1933476Y2188584D1*
X1930051Y2202850D1*
X1928900Y2217478D1*
X1930051Y2232104D1*
X1933476Y2246370D1*
X1939091Y2259925D1*
X1946757Y2272436D1*
X1956286Y2283592D1*
X1967442Y2293121D1*
X1979953Y2300786D1*
X1993507Y2306402D1*
X2002121Y2308702D1*
X1998951Y2322189D1*
X1997801Y2336816D1*
X1998951Y2351442D1*
X2002377Y2365709D1*
X2007991Y2379264D1*
X2015657Y2391774D1*
X2025186Y2402930D1*
X2036343Y2412459D1*
X2048853Y2420125D1*
X2062407Y2425740D1*
X2076675Y2429165D1*
X2091301Y2430316D1*
X2105927Y2429165D1*
X2120194Y2425740D1*
X2133748Y2420125D1*
X2146259Y2412459D1*
X2156172Y2404079D1*
X2171199Y2451571D1*
X2159702Y2452476D1*
X2148487Y2455168D1*
X2137831Y2459583D1*
X2127997Y2465609D1*
X2119227Y2473098D1*
X2111736Y2481869D1*
X2105710Y2491703D1*
X2101297Y2502358D1*
X2098533Y2514177D1*
X2094615Y2509963D1*
X2088184Y2505417D1*
X2080870Y2502500D1*
X2073076Y2501370D1*
X2065234Y2502091D1*
X2057777Y2504621D1*
X2019058Y2526873D1*
X2009232Y2521764D1*
X1860794Y2259920D1*
X1969386Y2046118D1*
X1969995Y2042255D1*
X1969381Y2038392D1*
X1968316Y2036007D1*
X1748030Y1655020D1*
X1875304Y1836348D1*
X1875971Y1845228D1*
X1877930Y1853392D1*
X1881143Y1861148D1*
X1885530Y1868306D1*
X1890982Y1874690D1*
X1897366Y1880142D1*
X1904524Y1884529D1*
X1912280Y1887741D1*
X1920444Y1889701D1*
X1928812Y1890360D1*
X1937181Y1889701D1*
X1945345Y1887741D1*
X1953101Y1884529D1*
X1960259Y1880142D1*
X1966643Y1874690D1*
X1972094Y1868306D1*
X1976482Y1861148D1*
X1979694Y1853392D1*
X1981654Y1845228D1*
X1982312Y1836860D1*
X1981654Y1828491D1*
X1979694Y1820327D1*
X1976482Y1812571D1*
X1972094Y1805413D1*
X1966643Y1799029D1*
X1960259Y1793577D1*
X1953101Y1789190D1*
X1946530Y1786416D1*
X1712232Y1452862D1*
X1707484Y1447958D1*
X1625673Y1385281D1*
X1219640Y1074887D1*
X1217940Y1063875D1*
X1214739Y1054025D1*
X1210038Y1044798D1*
X1203950Y1036419D1*
X1196627Y1029096D1*
X1188248Y1023008D1*
X1179021Y1018306D1*
X1169171Y1015106D1*
X1158941Y1013486D1*
X1148585D1*
X1138356Y1015106D1*
X1128507Y1018306D1*
X1119278Y1023008D1*
X1110900Y1029096D1*
X1108269Y1031528D1*
X1148501Y960409D1*
X1874193Y1370406D1*
X1878025Y1371184D1*
X1911471Y1371316D1*
X1933711Y1372755D1*
X2070634Y1372766D1*
X2060416Y1387315D1*
X2057615Y1392932D1*
X2055728Y1398917D1*
X2054801Y1405125D1*
X2054936Y1412218D1*
X2064396Y1498483D1*
X2066039Y1504539D1*
X2068609Y1510265D1*
X2072043Y1515518D1*
X2076257Y1520169D1*
X2081147Y1524104D1*
X2116946Y1544274D1*
X2581377Y1803416D1*
X2587268Y1805581D1*
X2593425Y1806798D1*
X2610573Y1807068D1*
X3425270D1*
X3624068Y2005932D1*
X3624211Y2323596D1*
X3625193Y2329795D1*
X3627133Y2335764D1*
X3629508Y2340566D1*
X3624797Y2351745D1*
X3622104Y2362959D1*
X3621199Y2374458D1*
X3622104Y2385955D1*
X3624797Y2397171D1*
X3629210Y2407825D1*
X3635236Y2417660D1*
X3642727Y2426430D1*
X3651497Y2433920D1*
X3661331Y2439946D1*
X3671986Y2444361D1*
X3683201Y2447052D1*
X3694699Y2447958D1*
X3706197Y2447052D1*
X3717412Y2444361D1*
X3728067Y2439946D1*
X3737902Y2433920D1*
X3746672Y2426430D1*
X3754161Y2417660D1*
X3760188Y2407825D1*
X3764601Y2397171D1*
X3767294Y2385955D1*
X3768199Y2374458D1*
X3767294Y2362959D1*
X3766331Y2358118D1*
X3778067Y2353344D1*
X3787902Y2347318D1*
X3796672Y2339828D1*
X3804161Y2331058D1*
X3810188Y2321223D1*
X3814601Y2310568D1*
X3817294Y2299353D1*
X3818199Y2287856D1*
X3817294Y2276357D1*
X3816331Y2271514D1*
X3828067Y2266741D1*
X3829975Y2265673D1*
X3829953Y2319671D1*
X3822043Y2327407D1*
X3816232Y2335404D1*
X3811744Y2344213D1*
X3808689Y2353614D1*
X3807143Y2363378D1*
Y2373265D1*
X3808689Y2383029D1*
X3811744Y2392430D1*
X3816232Y2401239D1*
X3822043Y2409236D1*
X3829034Y2416227D1*
X3837031Y2422038D1*
X3845840Y2426526D1*
X3855241Y2429581D1*
X3865005Y2431127D1*
X3874892D1*
X3884656Y2429581D1*
X3894058Y2426526D1*
X3902866Y2422038D1*
X3910864Y2416227D1*
X3917854Y2409236D1*
X3923665Y2401239D1*
X3928154Y2392430D1*
X3931209Y2383029D1*
X3932755Y2373265D1*
Y2363378D1*
X3931209Y2353614D1*
X3928154Y2344213D1*
X3923665Y2335404D1*
X3917854Y2327407D1*
X3910864Y2320416D1*
X3909938Y2319686D1*
X3909945Y2289465D1*
X3916349Y2293206D1*
X3925482Y2296988D1*
X3935094Y2299297D1*
X3944950Y2300072D1*
X3954806Y2299297D1*
X3964419Y2296988D1*
X3973551Y2293206D1*
X3981980Y2288041D1*
X3989497Y2281619D1*
X3995919Y2274102D1*
X4001084Y2265673D1*
X4004866Y2256541D1*
X4007175Y2246928D1*
X4007950Y2237072D1*
X4007175Y2227217D1*
X4004866Y2217604D1*
X4001084Y2208471D1*
X3995919Y2200042D1*
X3989497Y2192525D1*
X3984940Y2188437D1*
X3984823Y2068596D1*
X3983841Y2062396D1*
X3981902Y2056428D1*
X3979052Y2050836D1*
X3975364Y2045759D1*
X3970925Y2041320D1*
X3899302Y1988307D1*
X3908231Y1991988D1*
X3917844Y1994297D1*
X3927699Y1995072D1*
X3937555Y1994297D1*
X3947168Y1991988D1*
X3956301Y1988206D1*
X3964730Y1983041D1*
X3972247Y1976619D1*
X3978668Y1969102D1*
X3983833Y1960673D1*
X3987615Y1951541D1*
X3989924Y1941928D1*
X3990699Y1932072D1*
X3989924Y1922217D1*
X3987615Y1912604D1*
X3983833Y1903471D1*
X3978668Y1895042D1*
X3972247Y1887525D1*
X3971182Y1886541D1*
X3971066Y1736659D1*
X3969997Y1729917D1*
X3967888Y1723425D1*
X3964790Y1717344D1*
X3960777Y1711822D1*
X3914265Y1665119D1*
X3775898Y1526407D1*
X3784189Y1525094D1*
X3792173Y1522500D1*
X3799654Y1518689D1*
X3806445Y1513753D1*
X3812381Y1507818D1*
X3817316Y1501026D1*
X3821127Y1493546D1*
X3823722Y1485562D1*
X3825034Y1477270D1*
Y1468874D1*
X3823722Y1460583D1*
X3821127Y1452598D1*
X3817316Y1445118D1*
X3812381Y1438327D1*
X3806445Y1432391D1*
X3799654Y1427455D1*
X3792173Y1423644D1*
X3784189Y1421050D1*
X3775898Y1419738D1*
X3767501D1*
X3759210Y1421050D1*
X3751226Y1423644D1*
X3743745Y1427455D1*
X3736954Y1432391D1*
X3731018Y1438327D1*
X3726083Y1445118D1*
X3722272Y1452598D1*
X3719677Y1460583D1*
X3718350Y1469219D1*
X3568686Y1319541D1*
X3576068Y1318913D1*
X3584232Y1316954D1*
X3591988Y1313741D1*
X3599146Y1309354D1*
X3605530Y1303903D1*
X3610810Y1297738D1*
X3664407Y1381993D1*
X3667420Y1384487D1*
X3671055Y1385928D1*
X3673583Y1386228D1*
X4139720Y1393622D1*
X4143459Y1392475D1*
X4881108Y971785D1*
X4908160Y1020336D1*
X4911579Y1040073D1*
X4913993Y1048635D1*
X4908656Y1039940D1*
X4901930Y1032064D1*
X4894055Y1025339D1*
X4885224Y1019928D1*
X4875656Y1015965D1*
X4865587Y1013546D1*
X4855261Y1012734D1*
X4844937Y1013546D1*
X4834866Y1015965D1*
X4825298Y1019928D1*
X4816467Y1025339D1*
X4808593Y1032064D1*
X4801866Y1039940D1*
X4796455Y1048770D1*
X4792492Y1058339D1*
X4790075Y1068409D1*
X4789261Y1078734D1*
X4790075Y1089059D1*
X4792492Y1099129D1*
X4796455Y1108697D1*
X4801866Y1117528D1*
X4808593Y1125403D1*
X4816467Y1132129D1*
X4825298Y1137541D1*
X4829067Y1139278D1*
X4828631Y1146925D1*
X4829076Y1154134D1*
X4675684Y1321648D1*
X4240828Y1582702D1*
X4235597Y1587087D1*
X4231115Y1592236D1*
X4222079Y1607476D1*
X3995465Y2005853D1*
X3993058Y2012240D1*
X3991680Y2018925D1*
X3991364Y2025744D1*
X3992119Y2032529D1*
X3993925Y2039110D1*
X4020820Y2099186D1*
X4098626Y2272085D1*
X3952741Y2529584D1*
X3949404Y2518963D1*
X3944916Y2510155D1*
X3939105Y2502157D1*
X3932114Y2495167D1*
X3924117Y2489356D1*
X3915308Y2484867D1*
X3905907Y2481812D1*
X3896143Y2480266D1*
X3886256D1*
X3876492Y2481812D1*
X3867091Y2484867D1*
X3858282Y2489356D1*
X3850285Y2495167D1*
X3843294Y2502157D1*
X3837483Y2510155D1*
X3832995Y2518963D1*
X3830344Y2526933D1*
X3824915Y2527896D1*
X3817601Y2530814D1*
X3811169Y2535360D1*
X3805976Y2541280D1*
X3769573Y2604126D1*
X3766465Y2611362D1*
X3765131Y2619123D1*
X3765327Y2624774D1*
X3763459Y2627512D1*
X3756692Y2631538D1*
X3751051Y2637033D1*
X3748073Y2641366D1*
X3711849Y2704315D1*
X3709318Y2711772D1*
X3708597Y2719614D1*
X3709727Y2727408D1*
X3712644Y2734722D1*
X3717190Y2741154D1*
X3723110Y2746345D1*
X3794617Y2787749D1*
X3801853Y2790858D1*
X3802241Y2790957D1*
X3801853Y2790858D1*
X3802241Y2790957D1*
X3801442Y2796693D1*
X3615778Y3124470D1*
X3398213D1*
X3423650Y3080244D1*
X3426180Y3072787D1*
X3426902Y3064945D1*
X3425770Y3057151D1*
X3422853Y3049837D1*
X3418308Y3043406D1*
X3412387Y3038214D1*
X3352199Y3003345D1*
X3344965Y3000238D1*
X3337203Y2998903D1*
X3329345Y2999419D1*
X3323895Y3000928D1*
X3320762Y2997669D1*
X3315272Y2988710D1*
X3308448Y2980719D1*
X3300457Y2973895D1*
X3291497Y2968406D1*
X3281790Y2964383D1*
X3271572Y2961930D1*
X3261096Y2961106D1*
X3250621Y2961930D1*
X3240403Y2964383D1*
X3230696Y2968406D1*
X3221736Y2973895D1*
X3213745Y2980719D1*
X3206921Y2988710D1*
X3201430Y2997669D1*
X3197409Y3007378D1*
X3194957Y3017596D1*
X3194131Y3028071D1*
X3194957Y3038546D1*
X3197409Y3048764D1*
X3201430Y3058472D1*
X3206921Y3067432D1*
X3213745Y3075423D1*
X3221736Y3082247D1*
X3230696Y3087736D1*
X3240403Y3091759D1*
X3250621Y3094211D1*
X3261096Y3095035D1*
X3268778Y3094542D1*
X3270407Y3101503D1*
X3273890Y3108566D1*
X3278925Y3114619D1*
X3285235Y3119332D1*
X3301646Y3128791D1*
X3304199Y3137009D1*
X3304735Y3143814D1*
X3306328Y3150451D1*
X3308940Y3156757D1*
X3312507Y3162577D1*
X3316940Y3167768D1*
X3324294Y3175122D1*
X3042257Y3663930D1*
X2705319Y3082680D1*
X2705307Y2954466D1*
X2711995Y2947686D1*
X2718081Y2939307D1*
X2722783Y2930080D1*
X2725984Y2920230D1*
X2727604Y2910001D1*
Y2899644D1*
X2725984Y2889415D1*
X2722783Y2879566D1*
X2718081Y2870337D1*
X2711995Y2861959D1*
X2704671Y2854635D1*
X2696293Y2848549D1*
X2688003Y2844278D1*
X2688437Y2836631D1*
X2687625Y2826307D1*
X2685207Y2816236D1*
X2681244Y2806668D1*
X2675832Y2797837D1*
X2669106Y2789962D1*
X2661231Y2783236D1*
X2652400Y2777825D1*
X2642832Y2773862D1*
X2632762Y2771444D1*
X2622437Y2770631D1*
X2612113Y2771444D1*
X2602042Y2773862D1*
X2592474Y2777825D1*
X2587196Y2780864D1*
X2587066Y2603659D1*
X2585997Y2596917D1*
X2583888Y2590425D1*
X2575475Y2574841D1*
X2544459Y2519739D1*
X2551168Y2517988D1*
X2560301Y2514206D1*
X2568730Y2509041D1*
X2576247Y2502619D1*
X2582668Y2495102D1*
X2587833Y2486673D1*
X2591615Y2477541D1*
X2593924Y2467928D1*
X2594699Y2458072D1*
X2593924Y2448217D1*
X2591615Y2438604D1*
X2587833Y2429471D1*
X2582668Y2421042D1*
X2576247Y2413525D1*
X2568730Y2407104D1*
X2560301Y2401938D1*
X2551168Y2398156D1*
X2541555Y2395848D1*
X2531699Y2395072D1*
X2521844Y2395848D1*
X2512231Y2398156D1*
X2503098Y2401938D1*
X2494669Y2407104D1*
X2487152Y2413525D1*
X2480731Y2421042D1*
X2475566Y2429471D1*
X2471783Y2438604D1*
X2469475Y2448217D1*
X2468699Y2458072D1*
X2469196Y2465567D1*
X2458020Y2465572D1*
X2452391Y2458091D1*
X2443681Y2449381D1*
X2433715Y2442140D1*
X2422740Y2436549D1*
X2411025Y2432741D1*
X2398858Y2430815D1*
X2386541D1*
X2374374Y2432741D1*
X2362659Y2436549D1*
X2351684Y2442140D1*
X2341718Y2449381D1*
X2337012Y2453760D1*
X2318841Y2397193D1*
X2327701Y2412358D1*
X2332892Y2418278D1*
X2339324Y2422824D1*
X2346638Y2425741D1*
X2354432Y2426871D1*
X2362273Y2426151D1*
X2369731Y2423619D1*
X2372059Y2422395D1*
X3089144Y1476052D2*
X2952144Y1476016D1*
X2952143Y1503516D1*
X2942287Y1504291D1*
X2932675Y1506600D1*
X2923542Y1510382D1*
X2915113Y1515547D1*
X2907596Y1521969D1*
X2901175Y1529486D1*
X2896009Y1537915D1*
X2892227Y1547047D1*
X2889997Y1556262D1*
X2827109Y1478157D1*
X2822462Y1473940D1*
X2817213Y1470500D1*
X2811490Y1467924D1*
X2805433Y1466276D1*
X2797987Y1465576D1*
X2766591D1*
X2766535Y1456936D1*
X2814416Y1409089D1*
X2862831Y1409072D1*
X2864177Y1418062D1*
X2866772Y1426046D1*
X2870583Y1433526D1*
X2875518Y1440318D1*
X2881454Y1446253D1*
X2888245Y1451189D1*
X2895726Y1455000D1*
X2903710Y1457594D1*
X2912001Y1458907D1*
X2920398D1*
X2928689Y1457594D1*
X2936673Y1455000D1*
X2944154Y1451189D1*
X2950546Y1446568D1*
X3299159Y1446572D1*
X3375377Y1522848D1*
X3376633Y1530633D1*
X3379227Y1538617D1*
X3383038Y1546097D1*
X3387974Y1552888D1*
X3393909Y1558824D1*
X3400701Y1563760D1*
X3408181Y1567571D1*
X3416165Y1570165D1*
X3424457Y1571478D1*
X3432853D1*
X3441144Y1570165D1*
X3449129Y1567571D1*
X3456609Y1563760D1*
X3463400Y1558824D1*
X3465581Y1556808D1*
X3500328Y1591555D1*
X3501619Y1599375D1*
X3504214Y1607360D1*
X3508025Y1614840D1*
X3512961Y1621631D1*
X3518896Y1627567D1*
X3525688Y1632503D1*
X3533168Y1636314D1*
X3541152Y1638908D1*
X3549444Y1640220D1*
X3557840D1*
X3566131Y1638908D1*
X3574115Y1636314D1*
X3581596Y1632503D1*
X3588387Y1627567D1*
X3594323Y1621631D1*
X3599259Y1614840D1*
X3603070Y1607360D1*
X3605664Y1599375D1*
X3606976Y1591084D1*
Y1582688D1*
X3605664Y1574396D1*
X3603070Y1566412D1*
X3599259Y1558932D1*
X3594323Y1552140D1*
X3588387Y1546205D1*
X3581596Y1541269D1*
X3574115Y1537458D1*
X3566131Y1534864D1*
X3558344Y1533610D1*
X3379444Y1354705D1*
X3379491Y1266218D1*
X3385411Y1269741D1*
X3393167Y1272954D1*
X3400961Y1274840D1*
X3884239Y1758130D1*
X3884199Y1886508D1*
X3879794Y1891157D1*
X3873983Y1899155D1*
X3869495Y1907963D1*
X3866440Y1917365D1*
X3864894Y1927129D1*
Y1937016D1*
X3866440Y1946780D1*
X3869495Y1956181D1*
X3873983Y1964990D1*
X3879794Y1972987D1*
X3882509Y1975925D1*
X3834202Y1940387D1*
X3828633Y1937495D1*
X3822678Y1935509D1*
X3816487Y1934479D1*
X3763041Y1934331D1*
X3757718D1*
X3492175Y1668908D1*
X3487097Y1665219D1*
X3481505Y1662370D1*
X3475537Y1660430D1*
X3469337Y1659449D1*
X3403699Y1659325D1*
X3109999D1*
X3110911Y1649322D1*
X3110252Y1640953D1*
X3108293Y1632789D1*
X3105080Y1625033D1*
X3103949Y1623014D1*
X3175155Y1623016D1*
X3185037Y1627182D1*
X3194650Y1629491D1*
X3204505Y1630266D1*
X3214361Y1629491D1*
X3223974Y1627182D1*
X3233106Y1623400D1*
X3234954Y1622753D1*
X3241745Y1627689D1*
X3249226Y1631500D1*
X3257210Y1634094D1*
X3265501Y1635407D1*
X3273898D1*
X3282189Y1634094D1*
X3290173Y1631500D1*
X3297654Y1627689D1*
X3304445Y1622753D1*
X3310381Y1616818D1*
X3315316Y1610026D1*
X3319127Y1602546D1*
X3321722Y1594562D1*
X3323034Y1586270D1*
Y1577874D1*
X3321722Y1569583D1*
X3319127Y1561598D1*
X3315316Y1554118D1*
X3310381Y1547327D1*
X3304445Y1541391D1*
X3297654Y1536455D1*
X3290173Y1532644D1*
X3282189Y1530050D1*
X3273898Y1528738D1*
X3265501D1*
X3257210Y1530050D1*
X3255474Y1530236D1*
X3249052Y1522719D1*
X3241535Y1516298D1*
X3233106Y1511133D1*
X3223974Y1507350D1*
X3214361Y1505042D1*
X3204505Y1504266D1*
X3202130Y1504360D1*
X3202144Y1476016D1*
X3065144Y1476064D1*
X2283046Y2849361D2*
X2283013Y2847423D1*
X2293289Y2852659D1*
X2304259Y2856223D1*
X2315650Y2858028D1*
X2327184D1*
X2338575Y2856223D1*
X2349543Y2852659D1*
X2359820Y2847423D1*
X2369151Y2840643D1*
X2377306Y2832488D1*
X2384085Y2823157D1*
X2389322Y2812881D1*
X2392886Y2801912D1*
X2394690Y2790520D1*
Y2778987D1*
X2392886Y2767596D1*
X2389322Y2756626D1*
X2384085Y2746350D1*
X2377306Y2737020D1*
X2369151Y2728864D1*
X2365592Y2726059D1*
X2374469Y2724534D1*
X2386211Y2720814D1*
X2397543Y2715110D1*
X2488677Y2659302D1*
X2498453Y2650917D1*
X2500199Y2657072D1*
X2500333Y2838499D1*
X2501402Y2845240D1*
X2503510Y2851732D1*
X2506609Y2857814D1*
X2531311Y2891165D1*
X2563140Y2933521D1*
X2568033Y2938282D1*
X2573609Y2942219D1*
X2579732Y2945235D1*
X2586252Y2947256D1*
X2593008Y2948231D1*
X2612189Y2948323D1*
X2618335Y2954446D1*
X2618441Y3097772D1*
X2619509Y3104513D1*
X2621618Y3111005D1*
X2624173Y3116175D1*
X2997320Y3759870D1*
X2927979Y4298055D1*
X2921915Y4302671D1*
X2914592Y4309993D1*
X2908504Y4318373D1*
X2903802Y4327600D1*
X2900602Y4337450D1*
X2898982Y4347678D1*
Y4358035D1*
X2900602Y4368264D1*
X2903802Y4378114D1*
X2908504Y4387341D1*
X2914592Y4395720D1*
X2921915Y4403043D1*
X2928930Y4408220D1*
X2849353Y4408209D1*
X2849459Y3570562D1*
X2848562Y3566755D1*
X2651781Y3164608D1*
X2649062Y3161797D1*
X2645608Y3159965D1*
X2641643Y3159291D1*
X2363356Y3146462D1*
X2234454Y2919055D1*
X2241913Y2916482D1*
X2251277Y2911711D1*
X2259777Y2905535D1*
X2267207Y2898105D1*
X2273385Y2889604D1*
X2278155Y2880241D1*
X2281402Y2870248D1*
X2283046Y2859869D1*
Y2849361D1*
X2698631Y1624850D2*
X2710155D1*
X2812386Y1727072D1*
X2608423Y1727076D1*
X2475556Y1652866D1*
X2656856Y1652757D1*
X2663210Y1651751D1*
X2669329Y1649762D1*
X2675062Y1646841D1*
X2680266Y1643060D1*
X2698685Y1624820D1*
X2608818Y1399010D2*
X2598755Y1398990D1*
X2594747Y1399276D1*
X2600416Y1393264D1*
X2740766Y1252913D1*
X2742946Y1260185D1*
X2608811Y1398979D1*
X2533854Y3012144D2*
X2532235Y3001915D1*
X2529034Y2992066D1*
X2524332Y2982837D1*
X2518245Y2974459D1*
X2510921Y2967135D1*
X2502543Y2961049D1*
X2494253Y2956778D1*
X2494688Y2949131D1*
X2493875Y2938807D1*
X2491458Y2928736D1*
X2487495Y2919168D1*
X2482083Y2910337D1*
X2475357Y2902462D1*
X2467482Y2895736D1*
X2458651Y2890325D1*
X2449083Y2886362D1*
X2439013Y2883944D1*
X2428688Y2883131D1*
X2418364Y2883944D1*
X2408293Y2886362D1*
X2398724Y2890325D1*
X2389894Y2895736D1*
X2382020Y2902462D1*
X2375293Y2910337D1*
X2369882Y2919168D1*
X2365919Y2928736D1*
X2363501Y2938807D1*
X2362688Y2949131D1*
X2363501Y2959457D1*
X2365919Y2969526D1*
X2369882Y2979094D1*
X2375293Y2987925D1*
X2382020Y2995801D1*
X2389894Y3002526D1*
X2398724Y3007938D1*
X2402493Y3009676D1*
X2402058Y3017323D1*
X2402871Y3027647D1*
X2405289Y3037718D1*
X2409252Y3047286D1*
X2414663Y3056117D1*
X2421390Y3063992D1*
X2429264Y3070718D1*
X2438094Y3076129D1*
X2447663Y3080092D1*
X2457734Y3082510D1*
X2468058Y3083323D1*
X2478383Y3082510D1*
X2488453Y3080092D1*
X2498021Y3076129D1*
X2506852Y3070718D1*
X2514727Y3063992D1*
X2521453Y3056117D1*
X2526865Y3047286D1*
X2530828Y3037718D1*
X2533245Y3027647D1*
X2534058Y3017323D1*
X2533854Y3012144D1*
X3109315Y4347678D2*
X3107694Y4337450D1*
X3104495Y4327600D1*
X3099793Y4318373D1*
X3093705Y4309993D1*
X3086382Y4302671D1*
X3078003Y4296583D1*
X3068776Y4291881D1*
X3058925Y4288681D1*
X3048697Y4287060D1*
X3038340D1*
X3028112Y4288681D1*
X3018261Y4291881D1*
X3016367Y4292753D1*
X3084387Y3764933D1*
X3156726Y3639626D1*
X3156718Y4408209D1*
X3079423D1*
X3086382Y4403043D1*
X3093705Y4395720D1*
X3099793Y4387341D1*
X3104495Y4378114D1*
X3107694Y4368264D1*
X3109315Y4358035D1*
Y4347678D1*
X1049573Y1135302D2*
X1048597Y1142295D1*
Y1152652D1*
X1050217Y1162881D1*
X1053417Y1172731D1*
X1058119Y1181958D1*
X1064206Y1190337D1*
X1071530Y1197660D1*
X1079908Y1203748D1*
X1089136Y1208450D1*
X1098986Y1211650D1*
X1109215Y1213270D1*
X1119571D1*
X1129801Y1211650D1*
X1139651Y1208450D1*
X1148878Y1203748D1*
X1157257Y1197660D1*
X1164580Y1190337D1*
X1170668Y1181958D1*
X1175369Y1172731D1*
X1178570Y1162881D1*
X1180021Y1154079D1*
X1646976Y1511076D1*
X1733516Y1634370D1*
X1006705Y1211143D1*
X1049512Y1135446D1*
X4960428Y1141747D2*
X4958808Y1131517D1*
X4955608Y1121668D1*
X4950738Y1112188D1*
X4962762Y1123597D1*
X4967916Y1127660D1*
X4998576Y1182862D1*
X4839259Y1271819D1*
X4893182Y1212927D1*
X4904957Y1212113D1*
X4915026Y1209694D1*
X4924594Y1205731D1*
X4933425Y1200320D1*
X4941301Y1193594D1*
X4948026Y1185719D1*
X4953438Y1176888D1*
X4957402Y1167320D1*
X4959819Y1157249D1*
X4960631Y1146925D1*
X4960428Y1141747D1*
X3467972Y2888306D2*
X3466331Y2877732D1*
X3478067Y2872959D1*
X3487902Y2866933D1*
X3496672Y2859442D1*
X3504161Y2850673D1*
X3510188Y2840839D1*
X3514601Y2830184D1*
X3517294Y2818969D1*
X3518199Y2807470D1*
X3517294Y2795972D1*
X3516331Y2791130D1*
X3528067Y2786357D1*
X3537902Y2780331D1*
X3546672Y2772840D1*
X3554161Y2764070D1*
X3560188Y2754236D1*
X3564601Y2743580D1*
X3567294Y2732366D1*
X3568199Y2720867D1*
X3567294Y2709370D1*
X3566331Y2704528D1*
X3578067Y2699755D1*
X3587902Y2693728D1*
X3596672Y2686238D1*
X3604161Y2677467D1*
X3610188Y2667634D1*
X3614601Y2656978D1*
X3617294Y2645764D1*
X3618199Y2634265D1*
X3617294Y2622768D1*
X3616331Y2617925D1*
X3628067Y2613152D1*
X3637902Y2607126D1*
X3646672Y2599635D1*
X3654161Y2590865D1*
X3660188Y2581031D1*
X3664601Y2570375D1*
X3667294Y2559160D1*
X3668199Y2547663D1*
X3667294Y2536165D1*
X3664601Y2524950D1*
X3660188Y2514294D1*
X3654161Y2504461D1*
X3646672Y2495690D1*
X3637902Y2488199D1*
X3628067Y2482173D1*
X3617412Y2477760D1*
X3606197Y2475068D1*
X3594699Y2474163D1*
X3583201Y2475068D1*
X3571986Y2477760D1*
X3561331Y2482173D1*
X3551497Y2488199D1*
X3542727Y2495690D1*
X3535236Y2504461D1*
X3529210Y2514294D1*
X3524797Y2524950D1*
X3522104Y2536165D1*
X3521199Y2547663D1*
X3522104Y2559160D1*
X3523067Y2564003D1*
X3511331Y2568777D1*
X3501497Y2574803D1*
X3492727Y2582293D1*
X3485236Y2591063D1*
X3479210Y2600898D1*
X3474797Y2611552D1*
X3472104Y2622768D1*
X3471199Y2634265D1*
X3472104Y2645764D1*
X3473067Y2650605D1*
X3461331Y2655379D1*
X3451497Y2661406D1*
X3442727Y2668895D1*
X3435236Y2677665D1*
X3429210Y2687500D1*
X3424797Y2698155D1*
X3422104Y2709370D1*
X3421199Y2720867D1*
X3422104Y2732366D1*
X3423067Y2737209D1*
X3411331Y2741982D1*
X3401497Y2748008D1*
X3392727Y2755499D1*
X3385236Y2764268D1*
X3379210Y2774102D1*
X3374797Y2784757D1*
X3372104Y2795972D1*
X3371199Y2807470D1*
X3372104Y2818969D1*
X3373067Y2823811D1*
X3361331Y2828584D1*
X3351497Y2834610D1*
X3342727Y2842101D1*
X3335236Y2850871D1*
X3329210Y2860705D1*
X3324797Y2871360D1*
X3322104Y2882575D1*
X3321199Y2894073D1*
X3322104Y2905571D1*
X3324797Y2916786D1*
X3329210Y2927441D1*
X3335236Y2937276D1*
X3342727Y2946046D1*
X3351497Y2953535D1*
X3361331Y2959562D1*
X3371986Y2963975D1*
X3383201Y2966668D1*
X3394699Y2967573D1*
X3406197Y2966668D1*
X3417412Y2963975D1*
X3428067Y2959562D1*
X3437902Y2953535D1*
X3446672Y2946046D1*
X3454161Y2937276D1*
X3460188Y2927441D1*
X3464601Y2916786D1*
X3467294Y2905571D1*
X3468199Y2894073D1*
X3467972Y2888306D1*
X3723050Y2217652D2*
X3716572Y2219950D1*
X3706295Y2225186D1*
X3704064Y2226677D1*
X3704080Y2037109D1*
X3709522Y2039928D1*
X3715491Y2041867D1*
X3721690Y2042849D1*
X3791088Y2042972D1*
X3804596Y2053049D1*
X3796965Y2058760D1*
X3788810Y2066916D1*
X3782030Y2076247D1*
X3776794Y2086522D1*
X3773230Y2097492D1*
X3771425Y2108883D1*
Y2120417D1*
X3773067Y2130991D1*
X3761331Y2135764D1*
X3751497Y2141790D1*
X3742727Y2149281D1*
X3735236Y2158050D1*
X3729210Y2167885D1*
X3724797Y2178539D1*
X3722104Y2189755D1*
X3721199Y2201253D1*
X3722104Y2212751D1*
X3723067Y2217593D1*
X3208062Y1364580D2*
X3206722Y1355583D1*
X3204127Y1347598D1*
X3200316Y1340118D1*
X3195381Y1333327D1*
X3189445Y1327391D1*
X3182654Y1322455D1*
X3175173Y1318644D1*
X3167189Y1316050D1*
X3158898Y1314738D1*
X3150501D1*
X3142210Y1316050D1*
X3134226Y1318644D1*
X3126745Y1322455D1*
X3120353Y1327076D1*
X2794234Y1327198D1*
X2788820Y1327825D1*
X2872051Y1241525D1*
X2875654Y1236385D1*
X2878407Y1230745D1*
X2880244Y1224744D1*
X2881121Y1218529D1*
X2881072Y1187178D1*
X2880091Y1180979D1*
X2878151Y1175010D1*
X2875302Y1169419D1*
X2871613Y1164341D1*
X2869475Y1162037D1*
X3340961Y1163772D1*
X3307314Y1197531D1*
X3303533Y1202736D1*
X3300612Y1208469D1*
X3298623Y1214588D1*
X3297617Y1220942D1*
X3297491Y1286659D1*
Y1364610D1*
X3208125Y1364572D1*
X2205690Y1431070D2*
X2207123Y1422352D1*
X2207217Y1420007D1*
X2333055Y1420252D1*
X2327685Y1421690D1*
X2320643Y1424143D1*
X2309652Y1429613D1*
X2300751Y1435707D1*
X2292719Y1442912D1*
X2285698Y1451105D1*
X2279806Y1460143D1*
X2275143Y1469873D1*
X2271791Y1480127D1*
X2269807Y1490732D1*
X2269281Y1498171D1*
X2267097Y1497875D1*
X2227823Y1476370D1*
X2205724Y1431088D1*
X3239528Y2250671D2*
X3247840Y2197352D1*
Y2190682D1*
X3237572Y2125017D1*
X3236016Y2118533D1*
X3233463Y2112371D1*
X3203173Y2053213D1*
X3199253Y2047818D1*
X3152350Y2000728D1*
X3147278Y1996398D1*
X3141593Y1992912D1*
X3082315Y1962856D1*
X3075972Y1960795D1*
X3010348Y1950269D1*
X3003699Y1949745D1*
X2997051Y1950269D1*
X2931428Y1960795D1*
X2925084Y1962856D1*
X2865807Y1992912D1*
X2860121Y1996398D1*
X2855049Y2000728D1*
X2808146Y2047818D1*
X2804226Y2053213D1*
X2773936Y2112371D1*
X2771383Y2118533D1*
X2769827Y2125018D1*
X2759559Y2190682D1*
Y2197352D1*
X2769827Y2263016D1*
X2771383Y2269501D1*
X2773936Y2275663D1*
X2804226Y2334822D1*
X2808146Y2340217D1*
X2855049Y2387306D1*
X2860121Y2391636D1*
X2865807Y2395122D1*
X2925084Y2425178D1*
X2931427Y2427239D1*
X2997051Y2437765D1*
X3003699Y2438289D1*
X3010348Y2437765D1*
X3075972Y2427239D1*
X3082315Y2425178D1*
X3141592Y2395122D1*
X3147278Y2391636D1*
X3152350Y2387306D1*
X3199253Y2340217D1*
X3203173Y2334822D1*
X3233463Y2275663D1*
X3236016Y2269501D1*
X3237572Y2263017D1*
X3247840Y2197352D1*
Y2190682D1*
X3247385Y2187049D1*
X3247448Y2187369D1*
X2503881Y1494312D2*
X2503041Y1487060D1*
X2501529Y1479759D1*
X2497541Y1468147D1*
X2492660Y1458525D1*
X2486564Y1449623D1*
X2479360Y1441592D1*
X2471167Y1434571D1*
X2462129Y1428678D1*
X2452399Y1424016D1*
X2442144Y1420664D1*
X2439592Y1420024D1*
X2471996Y1419900D1*
X2478196Y1418919D1*
X2484164Y1416979D1*
X2489756Y1414130D1*
X2495504Y1409854D1*
X2512747Y1394450D1*
Y1494791D1*
X2504109Y1497793D1*
X2503881Y1494312D1*
X2453575Y1340031D2*
X2375255D1*
X2512958Y1160701D1*
X2653759Y1161256D1*
X2453568Y1340055D1*
D96*
X2372449Y2343072D3*
X2315949Y2245211D3*
D102*
X3850726Y2610566D3*
X3794226Y2708427D3*
D27*
X3020644Y1549516D3*
X3133644D3*
D105*
X2166287Y2768012D3*
D28*
X2216287Y2854614D3*
D105*
X2059950Y2580572D3*
D28*
X2109950Y2667175D3*
D108*
X3347698Y3078071D3*
D28*
X3261096Y3028071D3*
D16*
X2392699Y2509072D3*
X2442699Y2595675D3*
D29*
X2703699Y1561823D3*
D30*
Y1461823D3*
X2603699Y1561823D3*
Y1461823D3*
X2503699Y1561823D3*
Y1461823D3*
D21*
X2091301Y2336816D3*
X2022400Y2217478D3*
D31*
X2468059Y3017323D3*
X2428689Y2949131D3*
X2661808Y2904823D3*
X2622438Y2836631D3*
X2964778Y4352857D3*
X3043518D3*
X1153762Y1079282D3*
X1114392Y1147474D3*
X4894633Y1146925D3*
X4855262Y1078734D3*
D36*
X3394699Y2894072D3*
X3444699Y2807470D3*
X3494699Y2720867D3*
X3544699Y2634265D3*
X3594699Y2547663D3*
X3644699Y2461060D3*
X3694699Y2374458D3*
X3744699Y2287856D3*
X3794699Y2201252D3*
X3844699Y2114650D3*
X2171199Y2525072D3*
X2221416Y2611549D3*
X2271416Y2698152D3*
X2321416Y2784755D3*
D37*
X3003699Y4574072D3*
X5065699Y1003072D3*
X942699D3*
D36*
X703699Y4493072D3*
X4503699Y693072D3*
D38*
X862699Y4739072D3*
X913199Y4739572D3*
X963199D3*
X1012699D3*
X1063199Y4738572D3*
X2112699Y4739072D3*
X2163699D3*
X2213199D3*
X2263199Y4739572D3*
X2312699D3*
X2903699D3*
X2953699D3*
X3003699D3*
X3053699D3*
X3103699D3*
X3694199Y4739072D3*
X3744199Y4739572D3*
X3795199D3*
X3844699D3*
X3895199Y4739072D3*
X4944699D3*
X4994699D3*
X5044699D3*
X5094699Y4740072D3*
X5145699Y4739072D3*
X5464699Y1365572D3*
X5439699Y1322072D3*
X5364699Y1192072D3*
X5389699Y1235572D3*
X5414699Y1279072D3*
X5258199Y1008072D3*
X5233199Y964572D3*
X5158199Y834572D3*
X5183199Y878072D3*
X5208199Y921572D3*
X5026199Y606572D3*
X5001199Y563072D3*
X4926199Y433072D3*
X4951199Y476572D3*
X4976199Y520072D3*
X5051199Y651072D3*
X1080699Y433072D3*
X1055699Y476572D3*
X1030699Y520072D3*
X955699Y650572D3*
X981199Y606572D3*
X1005699Y563072D3*
X849199Y834572D3*
X824199Y878072D3*
X799199Y921572D3*
X749199Y1007572D3*
X774199Y964572D3*
X642699Y1192072D3*
X617699Y1235572D3*
X592699Y1279072D3*
X543199Y1365572D3*
X567699Y1322072D3*
X3158699Y1094072D3*
X3208699D3*
X3258699D3*
X3308699D3*
X3358699D3*
X2648699Y1093572D3*
X2698699Y1094072D3*
X2748699D3*
X2798699D3*
X2848699D3*
X3778699Y3051572D3*
X3803699Y3008072D3*
X3828699Y2965072D3*
X3853699Y2921572D3*
X3879199Y2878072D3*
X4033699Y2609572D3*
X4058699Y2566572D3*
X4083699Y2523072D3*
X4108699Y2479572D3*
X4133699Y2436072D3*
X2228699Y3051572D3*
X2203199Y3008072D3*
X2178699Y2965072D3*
X2153699Y2921572D3*
X2128699Y2878072D3*
X1973699Y2609572D3*
X1948699Y2566072D3*
X1923699Y2523072D3*
X1898699Y2480072D3*
X1873699Y2436572D3*
M02*
