M48
INCH
T01C0.0191
T02C0.03
T03C0.031
T04C0.033
T05C0.035
T06C0.0354
T07C0.043
T08C0.0433
T09C0.045
T10C0.05
T11C0.13
%
T01
X+037717Y+014731
X+035536Y+015869
X+034427Y+015821
X+034287Y+015181
X+033012Y+014619
X+032697Y+015821
X+030574Y+016493
X+029605Y+016493
X+028133Y+016033
X+029162Y+014056
X+027850Y+012119
X+031547Y+013681
X+034097Y+012221
X+035677Y+012661
X+021538Y+014182
X+019288Y+018369
T02
X+024681Y+030173
X+024287Y+029491
X+026224Y+028366
X+026618Y+029048
X+029648Y+043529
X+030435Y+043529
X+048946Y+011469
X+048553Y+010787
X+011538Y+010793
X+011144Y+011475
T03
X+008627Y+047391
X+009132Y+047396
X+009632Y+047396
X+010127Y+047396
X+010632Y+047386
X+021127Y+047391
X+021637Y+047391
X+022132Y+047391
X+022632Y+047396
X+023127Y+047396
X+029037Y+047396
X+029537Y+047396
X+030037Y+047396
X+030537Y+047396
X+031037Y+047396
X+036942Y+047391
X+037442Y+047396
X+037952Y+047396
X+038447Y+047396
X+038952Y+047391
X+049447Y+047391
X+049947Y+047391
X+050447Y+047391
X+050947Y+047401
X+051457Y+047391
X+037787Y+030516
X+038037Y+030081
X+038287Y+029651
X+038537Y+029216
X+038792Y+028781
X+040337Y+026096
X+040587Y+025666
X+040837Y+025231
X+041087Y+024796
X+041337Y+024361
X+033587Y+010941
X+033087Y+010941
X+032587Y+010941
X+032087Y+010941
X+031587Y+010941
X+028487Y+010941
X+027987Y+010941
X+027487Y+010941
X+026987Y+010941
X+026487Y+010936
X+018737Y+024366
X+018987Y+024801
X+019237Y+025231
X+019487Y+025661
X+019737Y+026096
X+021287Y+028781
X+021537Y+029216
X+021787Y+029651
X+022032Y+030081
X+022287Y+030516
X+005432Y+013656
X+005677Y+013221
X+005927Y+012791
X+006177Y+012356
X+006427Y+011921
X+007492Y+010076
X+007742Y+009646
X+007992Y+009216
X+008242Y+008781
X+008492Y+008346
X+009557Y+006506
X+009812Y+006066
X+010057Y+005631
X+010307Y+005201
X+010557Y+004766
X+010807Y+004331
X+049262Y+004331
X+049512Y+004766
X+049762Y+005201
X+050012Y+005631
X+050262Y+006066
X+050512Y+006511
X+051582Y+008346
X+051832Y+008781
X+052082Y+009216
X+052332Y+009646
X+052582Y+010081
X+053647Y+011921
X+053897Y+012356
X+054147Y+012791
X+054397Y+013221
X+054647Y+013656
T04
X+020913Y+023368
X+020224Y+022175
T05
X+032045Y+015673
X+029521Y+015665
X+023037Y+021618
X+025317Y+024581
X+038699Y+023683
X+039450Y+022371
X+039277Y+019321
X+038912Y+025431
T06
X+027037Y+015618
X+027037Y+014618
X+026037Y+014618
X+026037Y+015618
X+025037Y+015618
X+025037Y+014618
T07
X+023927Y+025091
X+024427Y+025957
T08
X+021663Y+027680
X+022163Y+028546
X+021100Y+026672
X+020600Y+025806
X+032611Y+030281
X+033477Y+030781
T09
X+033947Y+028941
X+034447Y+028075
X+034947Y+027209
X+035447Y+026343
X+035947Y+025477
X+036447Y+024611
X+036947Y+023745
X+037447Y+022879
X+037947Y+022013
X+038447Y+021146
X+023214Y+027848
X+022714Y+026982
X+022214Y+026115
X+021712Y+025251
T10
X+020914Y+023369
X+020224Y+022174
T11
X+030037Y+045741
X+009427Y+010031
X+050657Y+010031
T00
M30
