G04 DipTrace 3.0.0.2*
G04 Top.gbr*
%MOIN*%
G04 #@! TF.FileFunction,Copper,L1,Top*
G04 #@! TF.Part,Single*
%AMOUTLINE0*
4,1,4,
-0.05214,-0.010311,
-0.01714,0.050311,
0.05214,0.010311,
0.01714,-0.050311,
-0.05214,-0.010311,
0*%
%AMOUTLINE3*
4,1,4,
-0.059088,0.000018,
-0.02956,0.051163,
0.059088,-0.000018,
0.02956,-0.051163,
-0.059088,0.000018,
0*%
%AMOUTLINE6*
4,1,4,
0.01714,0.050311,
0.05214,-0.010311,
-0.01714,-0.050311,
-0.05214,0.010311,
0.01714,0.050311,
0*%
%AMOUTLINE9*5,1,4,0,0,0.094653,-164.999604*%
%AMOUTLINE12*5,1,4,0,0,0.094653,-195.000396*%
%AMOUTLINE15*
4,1,4,
-0.014938,0.044993,
0.046434,0.00956,
0.014938,-0.044993,
-0.046434,-0.00956,
-0.014938,0.044993,
0*%
%AMOUTLINE18*
4,1,4,
0.007398,0.038367,
0.036925,-0.012777,
-0.007398,-0.038367,
-0.036925,0.012777,
0.007398,0.038367,
0*%
%AMOUTLINE21*
4,1,4,
-0.006185,-0.03653,
-0.034728,0.012908,
0.006185,0.03653,
0.034728,-0.012908,
-0.006185,-0.03653,
0*%
%AMOUTLINE24*
4,1,4,
-0.027874,0.008909,
0.00622,0.028594,
0.027874,-0.008909,
-0.00622,-0.028594,
-0.027874,0.008909,
0*%
G04 #@! TA.AperFunction,Conductor*
%ADD10C,0.01*%
%ADD13C,0.012992*%
%ADD15C,0.02*%
G04 #@! TA.AperFunction,ComponentPad*
%ADD16C,0.09*%
G04 #@! TA.AperFunction,Conductor*
%ADD17C,0.03*%
G04 #@! TA.AperFunction,CopperBalancing*
%ADD19C,0.025*%
G04 #@! TA.AperFunction,ComponentPad*
%ADD21C,0.12*%
%ADD24R,0.043307X0.03937*%
%ADD25R,0.03937X0.043307*%
%ADD26R,0.051181X0.059055*%
G04 #@! TA.AperFunction,ComponentPad*
%ADD27R,0.07X0.08*%
%ADD28C,0.066929*%
%ADD29R,0.059055X0.059055*%
%ADD30C,0.059055*%
%ADD31C,0.065*%
%ADD33R,0.043307X0.023622*%
%ADD34R,0.068898X0.059055*%
%ADD35R,0.07874X0.023622*%
G04 #@! TA.AperFunction,ComponentPad*
%ADD36C,0.08*%
%ADD37C,0.25*%
%ADD38C,0.031*%
G04 #@! TA.AperFunction,ViaPad*
%ADD39C,0.04*%
%ADD41C,0.059*%
G04 #@! TA.AperFunction,ComponentPad*
%ADD96OUTLINE0*%
%ADD99OUTLINE3*%
G04 #@! TA.AperFunction,ComponentPad*
%ADD102OUTLINE6*%
%ADD105OUTLINE9*%
%ADD108OUTLINE12*%
%ADD111OUTLINE15*%
%ADD114OUTLINE18*%
%ADD117OUTLINE21*%
%ADD120OUTLINE24*%
%FSLAX26Y26*%
G04*
G70*
G90*
G75*
G01*
G04 Top*
%LPD*%
X2581110Y1211822D2*
D10*
X2534950D1*
X2466199Y1280572D1*
X3409846Y1265673D2*
D13*
X3341165D1*
X3341164Y1265672D1*
X3147450Y1314323D2*
X3177449D1*
X3191199Y1300572D1*
Y1251572D1*
X3179147Y1239520D1*
X3147450D1*
D10*
Y1218071D1*
X3155449Y1210072D1*
X3316699D1*
X3341164Y1234537D1*
Y1265672D1*
X3147450Y1314323D2*
D13*
Y1368072D1*
X3154699D1*
X2211770Y1480572D2*
D10*
X2159950D1*
X2116199Y1449322D1*
Y1393072D1*
X2148324Y1380572D1*
X2316199D1*
X2348699Y1361072D1*
X2376699D1*
X2427007Y1280572D1*
X2466199D1*
X2703699Y1461823D2*
D13*
Y1274387D1*
X2641238Y1211925D1*
X2581214D1*
X2581110Y1211822D1*
X3409846Y1265673D2*
Y1222219D1*
X3409699Y1222072D1*
X3876888Y2034621D2*
X3868699Y2029072D1*
X3927699Y1932072D1*
X2392699Y2509072D2*
D16*
X2332303D1*
X2160047Y2336816D1*
X2091301D1*
D15*
X1978597D1*
X1921971Y2229849D1*
X1957835Y1886028D1*
X1972558Y1905602D1*
X1928812Y1836860D2*
X1926332Y1829631D1*
X1970077Y1898374D1*
X1972558Y1905602D1*
X3347699Y3078071D2*
D13*
X3545885D1*
X3605982Y3017974D1*
X2872449Y1311822D2*
D10*
X2928699D1*
X2934949Y1305572D1*
X2978699D1*
D13*
Y1232392D1*
X2980520Y1230572D1*
X3253749Y1239520D2*
D10*
X3275018D1*
X3291169Y1255671D1*
Y1335602D1*
X3222427Y1404345D1*
Y1405549D1*
X3232450Y1415572D1*
X3603699Y1355572D2*
Y1318072D1*
X3588702Y1303075D1*
X3516146D1*
X3459902D1*
Y1293075D1*
X3380690D1*
X3341164Y1332601D1*
X3339171D1*
X3328699Y1343072D1*
X3353699D1*
X3293699Y1403072D1*
Y1409892D1*
X3299379Y1415572D1*
X3045629Y1305572D2*
Y1386823D1*
X3147450Y1276921D2*
X3099861D1*
Y1261921D1*
X3089280D1*
X3045629Y1305572D1*
X2872449Y1361822D2*
X2934950D1*
X2953699Y1343072D1*
X3001878D1*
X3045629Y1386823D1*
X2828699Y1449322D2*
Y1430572D1*
X2878699Y1380572D1*
Y1355571D1*
X2872449Y1361822D1*
X2278699Y1480572D2*
Y1549323D1*
X2297744Y1568367D1*
X2384950D1*
Y1580573D1*
X2422449Y1618072D1*
X2553699D1*
Y1530572D1*
X2503699Y1480572D1*
Y1461823D1*
X2553699Y1618072D2*
X2747449D1*
X2772449Y1593072D1*
Y1505572D1*
X2828699Y1449322D1*
X3099861Y1261921D2*
Y1225911D1*
X3137699Y1188072D1*
X3425699D1*
X3459902Y1222274D1*
Y1293075D1*
X3387699Y1582072D2*
D13*
X3442699D1*
X3301169Y1461899D2*
Y1417362D1*
X3299379Y1415572D1*
X2622437Y2836631D2*
X2784759D1*
X2841199Y2893072D1*
X3393698D1*
X3394699Y2894073D1*
X2531699Y2458072D2*
D17*
X2438699Y2435072D1*
X2372449Y2343072D1*
X2531699Y2458072D2*
D13*
Y2627072D1*
X2700699Y2796072D1*
X3306699D1*
X3381904Y2720867D1*
X3494699D1*
X3043518Y4352857D2*
D15*
X3090507D1*
X3141199Y4280795D1*
Y3156091D1*
Y3043072D1*
X3228699Y2955572D1*
X3441199D1*
X3491199Y2905572D1*
Y2853971D1*
X3444699Y2807470D1*
X1114394Y1147474D2*
X1091199Y1068072D1*
X1141199Y980572D1*
X1197450Y968072D1*
X1853699Y1355572D1*
X2296461D1*
X2353224Y1323209D1*
X2495951Y1141022D1*
X3537440D1*
X3673911Y1362249D1*
X4138066D1*
X4629818Y1078734D1*
X4855261D1*
X4809699Y1191072D1*
Y1293072D1*
X4251699Y1602072D1*
X4026699Y1998072D1*
Y2094072D1*
X4137699Y2253072D1*
X3615689Y3156091D1*
X3141199D1*
X2022400Y2217478D2*
X2129383D1*
X2241280Y2105581D1*
X2186161Y2010114D2*
X2033839D1*
X2031613Y2007888D1*
X2895629Y1449322D2*
D13*
Y1426143D1*
X2916199Y1405572D1*
X3372411Y1518143D2*
X3428655D1*
X3397450Y1415572D2*
D10*
Y1436860D1*
X3372411Y1461899D1*
Y1518143D1*
X2581110Y1311822D2*
X2634895D1*
X2653699Y1330626D1*
Y1511823D1*
X2703699Y1561823D1*
X2153789Y1418154D2*
D13*
X2211689D1*
X2211770Y1418072D1*
X3869949Y2368322D2*
X3923877D1*
X3934664Y2379109D1*
X2581110Y1361822D2*
Y1439234D1*
X2603699Y1461823D1*
X2278699Y1418072D2*
D10*
X2372450D1*
X2384950Y1430572D1*
X3844699Y2114650D2*
D13*
X3905962D1*
X3934852Y2068085D1*
X3794699Y2201253D2*
X3841699Y2258072D1*
X3976199Y2312072D1*
X3744699Y2287856D2*
X3769699Y2384072D1*
X3901199Y2437072D1*
X2303699Y2161823D2*
D17*
Y2232962D1*
X2315949Y2245211D1*
X2952143Y1566516D2*
X3003644D1*
X3020644Y1549516D1*
X2952143Y1566516D2*
D13*
Y1599629D1*
X2880699Y1671072D1*
X2484699D1*
X2349699Y1806072D1*
Y2115823D1*
X2303699Y2161823D1*
X3204505Y1567266D2*
D17*
X3151395D1*
X3133644Y1549516D1*
X3850726Y2610566D2*
D13*
X3891199Y2543072D1*
X3933699Y2508072D1*
X4086699Y2244072D1*
X3993699Y2118072D1*
Y1889003D1*
X3611085Y1646903D1*
X3243699D1*
X3204505Y1567266D1*
X3595168Y2886920D2*
X3541199Y2980572D1*
X3261096Y3028071D2*
X3309917Y2992988D1*
X3516146Y3017986D1*
X3541199Y2980572D1*
X3659950Y2924322D2*
X3792699Y2711072D1*
X3794226Y2708427D1*
X3269699Y1582072D2*
X3320770D1*
X3771699Y1473072D2*
Y1425071D1*
X3772449Y1424322D1*
X3269699Y1582072D2*
Y1554728D1*
X3192499Y1477528D1*
X2971917D1*
X2934350Y1515094D1*
X2880711Y1547049D1*
X2466199Y1347501D2*
D10*
Y1399323D1*
X2453699Y1411823D1*
Y1511823D1*
X2503699Y1561823D1*
X2872449Y1211822D2*
D13*
X2785076D1*
X2784972Y1211925D1*
X2603699Y1561823D2*
D10*
Y1536822D1*
X2553699Y1486822D1*
Y1430572D1*
X2516199Y1393072D1*
Y1268072D1*
X2522450Y1261822D1*
X2581110D1*
X3944950Y2237072D2*
D13*
X3992627D1*
X4009664Y2254109D1*
X2059950Y2580571D2*
X2115699D1*
X2171199Y2525071D1*
X2109950Y2667175D2*
X2165791D1*
X2221416Y2611549D1*
X2468058Y3017323D2*
X2531699Y2883072D1*
X2349560Y2605572D1*
X2227392D1*
X2221416Y2611549D1*
X2166287Y2768012D2*
X2201555D1*
X2271416Y2698151D1*
X2350387D1*
X2463699Y2876072D1*
X2428688Y2949131D1*
X2216287Y2854615D2*
X2251555D1*
X2321416Y2784753D1*
X2813299Y1603281D2*
Y1547531D1*
X2813782Y1547049D1*
Y1531654D1*
X2852693Y1492743D1*
X2915727D1*
X2975139Y1433331D1*
Y1390383D1*
X2978699Y1386823D1*
Y1426718D1*
X3154190D1*
X3266585Y1314323D1*
X3253749D1*
X3305482Y1518143D2*
X3280429D1*
X3216009Y1453723D1*
X3187125D1*
X3154190Y1426718D1*
X3603699Y1422501D2*
X3703699D1*
X3705520Y1424322D1*
X3603699Y1422501D2*
X3564239D1*
X3528644Y1386907D1*
Y1352975D1*
X3516146Y1340476D1*
X3486770Y1536822D2*
D10*
Y1495450D1*
Y1430089D1*
X3472253Y1415572D1*
D13*
Y1386626D1*
X3426104Y1340476D1*
X3409846D1*
X3641199Y1505572D2*
D10*
X3603564D1*
X3591138Y1493146D1*
X3489075D1*
X3486770Y1495450D1*
X3047449Y1230572D2*
Y1222072D1*
X3075699D1*
X3129699Y1168072D1*
X3445699D1*
X3516146Y1238518D1*
Y1265673D1*
X3708129Y1505572D2*
D13*
Y1532394D1*
X3697450Y1543072D1*
X3559950D1*
X3553699Y1536822D1*
X3516146Y1265673D2*
X3567699D1*
Y1266072D1*
X3553642Y1586886D2*
X3553699Y1586828D1*
Y1536822D1*
D39*
X3771699Y1473072D3*
X3057411Y1649322D3*
X2960474D3*
X3154699Y1368072D3*
X3428655Y1518143D3*
X2916199Y1405572D3*
X2784972Y1211925D3*
X2153789Y1418154D3*
X3567699Y1266072D3*
X3553642Y1586886D3*
X3301169Y1461899D3*
X3442699Y1582072D3*
D41*
X3204505Y1567266D3*
X2952143Y1566516D3*
X2531699Y2458072D3*
D39*
X1928812Y1836860D3*
X3409699Y1222072D3*
D41*
X3927699Y1932072D3*
X2303699Y2161823D3*
X3891199Y2543072D3*
X3869949Y2368322D3*
X3944950Y2237072D3*
D39*
X3269699Y1582072D3*
X2813299Y1603281D3*
X443699Y4655703D2*
D19*
X2663724D1*
X443699Y4630835D2*
X2663724D1*
X443699Y4605966D2*
X2663724D1*
X443699Y4581097D2*
X2663724D1*
X443699Y4556228D2*
X663626D1*
X743773D2*
X2663724D1*
X443699Y4531360D2*
X638480D1*
X768919D2*
X2663724D1*
X443699Y4506491D2*
X628958D1*
X778441D2*
X2663724D1*
X443699Y4481622D2*
X628617D1*
X778782D2*
X2663724D1*
X443699Y4456753D2*
X637308D1*
X770091D2*
X2663724D1*
X443699Y4431885D2*
X660501D1*
X746898D2*
X2663724D1*
X443699Y4407016D2*
X2663724D1*
X443699Y4382147D2*
X2663724D1*
X443699Y4357278D2*
X2663724D1*
X443699Y4332409D2*
X2663724D1*
X443699Y4307541D2*
X2663724D1*
X443699Y4282672D2*
X2663724D1*
X443699Y4257803D2*
X2663724D1*
X443699Y4232934D2*
X2663724D1*
X443699Y4208066D2*
X2663724D1*
X443699Y4183197D2*
X2663724D1*
X443699Y4158328D2*
X2663724D1*
X443699Y4133459D2*
X2663724D1*
X443699Y4108591D2*
X2663724D1*
X443699Y4083722D2*
X2663724D1*
X443699Y4058853D2*
X2663724D1*
X443699Y4033984D2*
X2663724D1*
X443699Y4009115D2*
X2663724D1*
X443699Y3984247D2*
X2663724D1*
X443699Y3959378D2*
X2663724D1*
X443699Y3934509D2*
X2663724D1*
X443699Y3909640D2*
X2663724D1*
X443699Y3884772D2*
X2663724D1*
X443699Y3859903D2*
X2663724D1*
X443699Y3835034D2*
X2663724D1*
X443699Y3810165D2*
X2663724D1*
X443699Y3785297D2*
X2663724D1*
X443699Y3760428D2*
X2663724D1*
X443699Y3735559D2*
X2663724D1*
X443699Y3710690D2*
X2663724D1*
X443699Y3685822D2*
X2663724D1*
X443699Y3660953D2*
X2663724D1*
X443699Y3636084D2*
X2663724D1*
X443699Y3611215D2*
X2663724D1*
X443699Y3586346D2*
X2651224D1*
X443699Y3561478D2*
X2636869D1*
X443699Y3536609D2*
X2622513D1*
X443699Y3511740D2*
X2608157D1*
X443699Y3486871D2*
X2593802D1*
X443699Y3462003D2*
X2579446D1*
X443699Y3437134D2*
X2565091D1*
X443699Y3412265D2*
X2550736D1*
X443699Y3387396D2*
X2536381D1*
X443699Y3362528D2*
X2522025D1*
X443699Y3337659D2*
X2208988D1*
X443699Y3312790D2*
X2195462D1*
X443699Y3287921D2*
X2181888D1*
X443699Y3263052D2*
X2168314D1*
X443699Y3238184D2*
X2154740D1*
X443699Y3213315D2*
X2141165D1*
X443699Y3188446D2*
X2127640D1*
X443699Y3163577D2*
X2114066D1*
X443699Y3138709D2*
X2100491D1*
X443699Y3113840D2*
X2086917D1*
X443699Y3088971D2*
X2073343D1*
X443699Y3064102D2*
X2059818D1*
X443699Y3039234D2*
X2046243D1*
X443699Y3014365D2*
X2032669D1*
X443699Y2989496D2*
X2019094D1*
X443699Y2964627D2*
X2005521D1*
X443699Y2939759D2*
X1991995D1*
X443699Y2914890D2*
X1978421D1*
X443699Y2890021D2*
X1964846D1*
X443699Y2865152D2*
X1951273D1*
X443699Y2840283D2*
X1937698D1*
X443699Y2815415D2*
X1924125D1*
X443699Y2790546D2*
X1910598D1*
X443699Y2765677D2*
X1897025D1*
X443699Y2740808D2*
X1883450D1*
X443699Y2715940D2*
X1869877D1*
X443699Y2691071D2*
X1856302D1*
X443699Y2666202D2*
X1842777D1*
X443699Y2641333D2*
X1829202D1*
X443699Y2616465D2*
X1815629D1*
X443699Y2591596D2*
X1802054D1*
X443699Y2566727D2*
X1788480D1*
X443699Y2541858D2*
X1774954D1*
X443699Y2516990D2*
X1761381D1*
X443699Y2492121D2*
X1747513D1*
X443699Y2467252D2*
X1732377D1*
X443699Y2442383D2*
X1718021D1*
X443699Y2417514D2*
X1703665D1*
X443699Y2392646D2*
X1689310D1*
X443699Y2367777D2*
X1676810D1*
X443699Y2342908D2*
X1666409D1*
X443699Y2318039D2*
X1652835D1*
X443699Y2293171D2*
X1639310D1*
X443699Y2268302D2*
X1625736D1*
X443699Y2243433D2*
X1612161D1*
X443699Y2218564D2*
X1624466D1*
X443699Y2193696D2*
X1636917D1*
X443699Y2168827D2*
X1649369D1*
X443699Y2143958D2*
X1661770D1*
X443699Y2119089D2*
X1674222D1*
X443699Y2094220D2*
X1686673D1*
X443699Y2069352D2*
X1699075D1*
X443699Y2044483D2*
X1711526D1*
X443699Y2019614D2*
X1700491D1*
X443699Y1994745D2*
X1688041D1*
X443699Y1969877D2*
X1675638D1*
X443699Y1945008D2*
X1663186D1*
X443699Y1920139D2*
X1650736D1*
X443699Y1895270D2*
X1638333D1*
X443699Y1870402D2*
X1625882D1*
X443699Y1845533D2*
X1613430D1*
X443699Y1820664D2*
X1601029D1*
X443699Y1795795D2*
X1581058D1*
X443919Y1770927D2*
X1538430D1*
X457591Y1746058D2*
X1495804D1*
X471262Y1721189D2*
X1453177D1*
X484934Y1696320D2*
X1410550D1*
X498606Y1671451D2*
X1367923D1*
X512278Y1646583D2*
X1325247D1*
X525950Y1621714D2*
X1282621D1*
X539622Y1596845D2*
X1239993D1*
X553294Y1571976D2*
X1197366D1*
X567014Y1547108D2*
X1154740D1*
X580686Y1522239D2*
X1112113D1*
X594358Y1497370D2*
X1069486D1*
X608030Y1472501D2*
X1026858D1*
X621702Y1447633D2*
X984232D1*
X635374Y1422764D2*
X941556D1*
X649046Y1397895D2*
X898929D1*
X662718Y1373026D2*
X856302D1*
X676438Y1348157D2*
X813675D1*
X690110Y1323289D2*
X771049D1*
X703782Y1298420D2*
X728421D1*
X776972Y4487306D2*
X775169Y4475913D1*
X771605Y4464945D1*
X766369Y4454668D1*
X759589Y4445337D1*
X751434Y4437182D1*
X742104Y4430403D1*
X731827Y4425167D1*
X720858Y4421602D1*
X709466Y4419799D1*
X697933D1*
X686541Y4421602D1*
X675572Y4425167D1*
X665295Y4430403D1*
X655965Y4437182D1*
X647810Y4445337D1*
X641030Y4454668D1*
X635794Y4464945D1*
X632230Y4475913D1*
X630427Y4487306D1*
Y4498839D1*
X632230Y4510231D1*
X635794Y4521199D1*
X641030Y4531476D1*
X647810Y4540807D1*
X655965Y4548962D1*
X665295Y4555741D1*
X675572Y4560978D1*
X686541Y4564542D1*
X697933Y4566345D1*
X709466D1*
X720858Y4564542D1*
X731827Y4560978D1*
X742104Y4555741D1*
X751434Y4548962D1*
X759589Y4540807D1*
X766369Y4531476D1*
X771605Y4521199D1*
X775169Y4510231D1*
X776972Y4498839D1*
Y4487306D1*
X1697799Y2403072D2*
X1745407Y2485350D1*
X1750308Y2492518D1*
X1785324Y2556322D1*
X2218797Y3350701D1*
X2221639Y3353387D1*
X2225172Y3355064D1*
X2229169Y3355559D1*
X2361659Y3355572D1*
X2375331Y3357218D1*
X2395584Y3358062D1*
X2521962D1*
X2666198Y3607949D1*
X2666199Y4680572D1*
X441199D1*
Y1771245D1*
X708496Y1285289D1*
X1594215Y1802010D1*
X1714739Y2043101D1*
X1616782Y2239299D1*
X1616199Y2243167D1*
X1616841Y2247025D1*
X1623711Y2260031D1*
X1671293Y2347264D1*
X1673538Y2353911D1*
X1682154Y2374286D1*
X1691550Y2392247D1*
X1697799Y2403072D1*
X3368699Y4655703D2*
X5538724D1*
X3368699Y4630835D2*
X5538724D1*
X3368699Y4605966D2*
X5538724D1*
X3368699Y4581097D2*
X5538724D1*
X3368699Y4556228D2*
X5538724D1*
X3368699Y4531360D2*
X5538724D1*
X3368699Y4506491D2*
X5538724D1*
X3368699Y4481622D2*
X5538724D1*
X3368699Y4456753D2*
X5538724D1*
X3368699Y4431885D2*
X5538724D1*
X3368699Y4407016D2*
X5538724D1*
X3368699Y4382147D2*
X5538724D1*
X3368699Y4357278D2*
X5538724D1*
X3368699Y4332409D2*
X5538724D1*
X3368699Y4307541D2*
X5538724D1*
X3368699Y4282672D2*
X5538724D1*
X3368699Y4257803D2*
X5538724D1*
X3368699Y4232934D2*
X5538724D1*
X3368699Y4208066D2*
X5538724D1*
X3368699Y4183197D2*
X5538724D1*
X3368699Y4158328D2*
X5538724D1*
X3368699Y4133459D2*
X5538724D1*
X3368699Y4108591D2*
X5538724D1*
X3368699Y4083722D2*
X5538724D1*
X3368699Y4058853D2*
X5538724D1*
X3368699Y4033984D2*
X5538724D1*
X3368699Y4009115D2*
X5538724D1*
X3368699Y3984247D2*
X5538724D1*
X3368699Y3959378D2*
X5538724D1*
X3368699Y3934509D2*
X5538724D1*
X3368699Y3909640D2*
X5538724D1*
X3368699Y3884772D2*
X5538724D1*
X3368699Y3859903D2*
X5538724D1*
X3368699Y3835034D2*
X5538724D1*
X3368699Y3810165D2*
X5538724D1*
X3368699Y3785297D2*
X5538724D1*
X3368699Y3760428D2*
X5538724D1*
X3368699Y3735559D2*
X5538724D1*
X3368699Y3710690D2*
X5538724D1*
X3368699Y3685822D2*
X5538724D1*
X3368699Y3660953D2*
X5538724D1*
X3374974Y3636084D2*
X5538724D1*
X3389915Y3611215D2*
X5538724D1*
X3404808Y3586346D2*
X5538724D1*
X3419749Y3561478D2*
X5538724D1*
X3434642Y3536609D2*
X5538724D1*
X3449583Y3511740D2*
X5538724D1*
X3464476Y3486871D2*
X5538724D1*
X3479417Y3462003D2*
X5538724D1*
X3494358Y3437134D2*
X5538724D1*
X3509251Y3412265D2*
X5538724D1*
X3774094Y3387396D2*
X5538724D1*
X3788743Y3362528D2*
X5538724D1*
X3803441Y3337659D2*
X5538724D1*
X3818138Y3312790D2*
X5538724D1*
X3832835Y3287921D2*
X5538724D1*
X3847533Y3263052D2*
X5538724D1*
X3862230Y3238184D2*
X5538724D1*
X3876927Y3213315D2*
X5538724D1*
X3891625Y3188446D2*
X5538724D1*
X3906322Y3163577D2*
X5538724D1*
X3921018Y3138709D2*
X5538724D1*
X3935717Y3113840D2*
X5538724D1*
X3950413Y3088971D2*
X5538724D1*
X3965110Y3064102D2*
X5538724D1*
X3979808Y3039234D2*
X5538724D1*
X3994505Y3014365D2*
X5538724D1*
X4009202Y2989496D2*
X5538724D1*
X4023900Y2964627D2*
X5538724D1*
X4038597Y2939759D2*
X5538724D1*
X4053294Y2914890D2*
X5538724D1*
X4067991Y2890021D2*
X5538724D1*
X4082689Y2865152D2*
X5538724D1*
X4097386Y2840283D2*
X5538724D1*
X4112083Y2815415D2*
X5538724D1*
X4126781Y2790546D2*
X5538724D1*
X4141429Y2765677D2*
X5538724D1*
X4156126Y2740808D2*
X5538724D1*
X4170824Y2715940D2*
X5538724D1*
X4185521Y2691071D2*
X5538724D1*
X4200218Y2666202D2*
X5538724D1*
X4214915Y2641333D2*
X5538724D1*
X4229613Y2616465D2*
X5538724D1*
X4244310Y2591596D2*
X5538724D1*
X4259007Y2566727D2*
X5538724D1*
X4273705Y2541858D2*
X5538724D1*
X4288402Y2516990D2*
X5538724D1*
X4303098Y2492121D2*
X5538724D1*
X4317797Y2467252D2*
X5538724D1*
X4332493Y2442383D2*
X5538724D1*
X4347190Y2417514D2*
X5538724D1*
X4361888Y2392646D2*
X5538724D1*
X4376585Y2367777D2*
X5538724D1*
X4391282Y2342908D2*
X5538724D1*
X4405980Y2318039D2*
X5538724D1*
X4419701Y2293171D2*
X5538724D1*
X4409740Y2268302D2*
X5538724D1*
X4399827Y2243433D2*
X5538724D1*
X4389866Y2218564D2*
X5538724D1*
X4379906Y2193696D2*
X5538724D1*
X4369945Y2168827D2*
X5538724D1*
X4360033Y2143958D2*
X5538724D1*
X4350072Y2119089D2*
X5538724D1*
X4340110Y2094220D2*
X5538724D1*
X4330198Y2069352D2*
X5538724D1*
X4320238Y2044483D2*
X5538724D1*
X4331908Y2019614D2*
X5538724D1*
X4344358Y1994745D2*
X5538724D1*
X4356761Y1969877D2*
X5538724D1*
X4369213Y1945008D2*
X5538724D1*
X4381663Y1920139D2*
X5538724D1*
X4394066Y1895270D2*
X5538724D1*
X4406517Y1870402D2*
X5538724D1*
X4418969Y1845533D2*
X5538724D1*
X4431370Y1820664D2*
X5538724D1*
X4443822Y1795795D2*
X5538724D1*
X4456224Y1770927D2*
X5538724D1*
X4475755Y1746058D2*
X5538724D1*
X4518041Y1721189D2*
X5538724D1*
X4560325Y1696320D2*
X5538724D1*
X4602610Y1671451D2*
X5538724D1*
X4644896Y1646583D2*
X5538675D1*
X4687181Y1621714D2*
X5523098D1*
X4729417Y1596845D2*
X5507572D1*
X4771702Y1571976D2*
X5492045D1*
X4813988Y1547108D2*
X5476469D1*
X4856273Y1522239D2*
X5460941D1*
X4898558Y1497370D2*
X5445413D1*
X4940843Y1472501D2*
X5429837D1*
X4983079Y1447633D2*
X5414310D1*
X5025365Y1422764D2*
X5398782D1*
X5067650Y1397895D2*
X5383206D1*
X5109934Y1373026D2*
X5367678D1*
X5152220Y1348157D2*
X5352152D1*
X5194505Y1323289D2*
X5336575D1*
X5236741Y1298420D2*
X5321049D1*
X5279026Y1273551D2*
X5305521D1*
X5528699Y4680572D2*
X3366199D1*
Y3646539D1*
X3510803Y3405529D1*
X3755655Y3405419D1*
X3759374Y3404210D1*
X3762538Y3401911D1*
X3764461Y3399432D1*
X4415323Y2297669D1*
X4416175Y2293853D1*
X4415806Y2289959D1*
X4396736Y2242007D1*
X4317374Y2043601D1*
X4463224Y1751972D1*
X5299539Y1260021D1*
X5541214Y1646681D1*
X5541199Y4680572D1*
X5528699D1*
X1914671Y1105703D2*
X2205911D1*
X3793822D2*
X4145072D1*
X1869896Y1080835D2*
X2218362D1*
X3775169D2*
X4192045D1*
X1825169Y1055966D2*
X2230765D1*
X3756517D2*
X4239017D1*
X1780394Y1031097D2*
X2243217D1*
X3737865D2*
X4285990D1*
X1735618Y1006228D2*
X2255667D1*
X3719213D2*
X4332962D1*
X1690843Y981360D2*
X2268070D1*
X3700560D2*
X4379934D1*
X1646117Y956491D2*
X2280521D1*
X3681908D2*
X4426908D1*
X1601341Y931622D2*
X2292972D1*
X3663255D2*
X4473881D1*
X1556566Y906753D2*
X4520853D1*
X1511790Y881885D2*
X4567825D1*
X1467014Y857016D2*
X4614798D1*
X1422289Y832147D2*
X4661770D1*
X1377513Y807278D2*
X4708743D1*
X1332738Y782409D2*
X4755717D1*
X1287962Y757541D2*
X4465921D1*
X4541478D2*
X4802689D1*
X1243236Y732672D2*
X4439261D1*
X4568138D2*
X4849661D1*
X1198461Y707803D2*
X4429202D1*
X4578197D2*
X4896682D1*
X1153685Y682934D2*
X4428421D1*
X4578978D2*
X4933694D1*
X1108909Y658066D2*
X4436575D1*
X4570824D2*
X4923734D1*
X1075121Y633197D2*
X4458549D1*
X4548850D2*
X4913773D1*
X1087522Y608328D2*
X4903861D1*
X1099974Y583459D2*
X4893900D1*
X1112425Y558591D2*
X4883938D1*
X1124827Y533722D2*
X4873978D1*
X1137278Y508853D2*
X4864066D1*
X1149730Y483984D2*
X4854105D1*
X1162133Y459115D2*
X4844144D1*
X4576972Y687306D2*
X4575169Y675913D1*
X4571605Y664945D1*
X4566369Y654668D1*
X4559589Y645337D1*
X4551434Y637182D1*
X4542104Y630403D1*
X4531827Y625167D1*
X4520858Y621602D1*
X4509466Y619799D1*
X4497933D1*
X4486541Y621602D1*
X4475572Y625167D1*
X4465295Y630403D1*
X4455965Y637182D1*
X4447810Y645337D1*
X4441030Y654668D1*
X4435794Y664945D1*
X4432230Y675913D1*
X4430427Y687306D1*
Y698839D1*
X4432230Y710231D1*
X4435794Y721199D1*
X4441030Y731476D1*
X4447810Y740807D1*
X4455965Y748962D1*
X4465295Y755741D1*
X4475572Y760978D1*
X4486541Y764542D1*
X4497933Y766345D1*
X4509466D1*
X4520858Y764542D1*
X4531827Y760978D1*
X4542104Y755741D1*
X4551434Y748962D1*
X4559589Y740807D1*
X4566369Y731476D1*
X4571605Y721199D1*
X4575169Y710231D1*
X4576972Y698839D1*
Y687306D1*
X1070230Y637962D2*
X1161446Y455531D1*
X4845252Y455572D1*
X4937933Y687314D1*
X4100573Y1130584D1*
X3809900Y1130572D1*
X3662403Y934100D1*
X3659205Y931849D1*
X3655467Y930698D1*
X3616199Y930572D1*
X2301744Y930726D1*
X2298025Y931934D1*
X2294861Y934234D1*
X2292394Y937762D1*
X2195953Y1130613D1*
X1956873Y1130572D1*
X1070203Y637942D1*
X468699Y1155966D2*
X485843D1*
X468699Y1131097D2*
X499857D1*
X468699Y1106228D2*
X513822D1*
X468699Y1081360D2*
X527835D1*
X468699Y1056491D2*
X541801D1*
X468699Y1031622D2*
X555814D1*
X468699Y1006753D2*
X569778D1*
X468699Y981885D2*
X583793D1*
X468699Y957016D2*
X597757D1*
X468699Y932147D2*
X611770D1*
X468699Y907278D2*
X625736D1*
X468699Y882409D2*
X639749D1*
X468699Y857541D2*
X653714D1*
X468699Y832672D2*
X667728D1*
X468699Y807803D2*
X681693D1*
X468699Y782934D2*
X695706D1*
X468699Y758066D2*
X709671D1*
X468699Y733197D2*
X723685D1*
X468699Y708328D2*
X737650D1*
X468699Y683459D2*
X751663D1*
X468699Y658591D2*
X765629D1*
X468699Y633722D2*
X779593D1*
X468699Y608853D2*
X793606D1*
X468699Y583984D2*
X807572D1*
X468699Y559115D2*
X821585D1*
X468699Y534247D2*
X835550D1*
X468699Y509378D2*
X849564D1*
X468699Y484509D2*
X863529D1*
X468699Y459640D2*
X877542D1*
X466199Y1195367D2*
Y455572D1*
X882362D1*
X466196Y1195360D1*
X5521556Y1155966D2*
X5538724D1*
X5507542Y1131097D2*
X5538724D1*
X5493577Y1106228D2*
X5538724D1*
X5479564Y1081360D2*
X5538724D1*
X5465598Y1056491D2*
X5538724D1*
X5451585Y1031622D2*
X5538724D1*
X5437621Y1006753D2*
X5538724D1*
X5423606Y981885D2*
X5538724D1*
X5409642Y957016D2*
X5538724D1*
X5395629Y932147D2*
X5538724D1*
X5381663Y907278D2*
X5538724D1*
X5367650Y882409D2*
X5538724D1*
X5353685Y857541D2*
X5538724D1*
X5339671Y832672D2*
X5538724D1*
X5325706Y807803D2*
X5538724D1*
X5311693Y782934D2*
X5538724D1*
X5297728Y758066D2*
X5538724D1*
X5283714Y733197D2*
X5538724D1*
X5269749Y708328D2*
X5538724D1*
X5255736Y683459D2*
X5538724D1*
X5241770Y658591D2*
X5538724D1*
X5227806Y633722D2*
X5538724D1*
X5213793Y608853D2*
X5538724D1*
X5199827Y583984D2*
X5538724D1*
X5185814Y559115D2*
X5538724D1*
X5171849Y534247D2*
X5538724D1*
X5157835Y509378D2*
X5538724D1*
X5143870Y484509D2*
X5538724D1*
X5129857Y459640D2*
X5538724D1*
X5541199Y468072D2*
Y1195367D1*
X5125059Y455547D1*
X5541199Y455572D1*
Y468072D1*
X468699Y5055703D2*
X5538724D1*
X468699Y5030835D2*
X5538724D1*
X468699Y5005966D2*
X5538724D1*
X468699Y4981097D2*
X5538724D1*
X468699Y4956228D2*
X5538724D1*
X468699Y4931360D2*
X5538724D1*
X468699Y4906491D2*
X5538724D1*
X466199Y5068072D2*
Y4905572D1*
X5541199D1*
Y5080572D1*
X466199D1*
Y5068072D1*
X2855794Y4385907D2*
X2905139D1*
X3121272D2*
X3147230D1*
X2855794Y4361038D2*
X2896790D1*
X2855794Y4336169D2*
X2898400D1*
X2855794Y4311301D2*
X2910999D1*
X2855794Y4286432D2*
X3081555D1*
X2855794Y4261563D2*
X3095227D1*
X2855794Y4236694D2*
X3095227D1*
X2855794Y4211825D2*
X3095227D1*
X2855794Y4186957D2*
X3095227D1*
X2855794Y4162088D2*
X3095227D1*
X2855794Y4137219D2*
X3095227D1*
X2855794Y4112350D2*
X3095227D1*
X2855794Y4087482D2*
X3095227D1*
X2855794Y4062613D2*
X3095227D1*
X2855843Y4037744D2*
X3095227D1*
X2855843Y4012875D2*
X3095227D1*
X2855843Y3988007D2*
X3095227D1*
X2855843Y3963138D2*
X3095227D1*
X2855843Y3938269D2*
X3095227D1*
X2855843Y3913400D2*
X3095227D1*
X2855843Y3888531D2*
X3095227D1*
X2855843Y3863663D2*
X3095227D1*
X2855843Y3838794D2*
X3095227D1*
X2855843Y3813925D2*
X3095227D1*
X2855843Y3789056D2*
X3095227D1*
X2855843Y3764188D2*
X3095227D1*
X2855843Y3739319D2*
X3095227D1*
X2855843Y3714450D2*
X3095227D1*
X2855843Y3689581D2*
X3095227D1*
X2855843Y3664713D2*
X3095227D1*
X2855843Y3639844D2*
X3095227D1*
X2855843Y3614975D2*
X3095227D1*
X2855843Y3590106D2*
X3095227D1*
X2855843Y3565238D2*
X3095227D1*
X2855891Y3540369D2*
X3095227D1*
X2855891Y3515500D2*
X3095227D1*
X2846370Y3490631D2*
X3095227D1*
X2832307Y3465762D2*
X3095227D1*
X3187190D2*
X3202030D1*
X2818294Y3440894D2*
X3095227D1*
X3187190D2*
X3215783D1*
X2804231Y3416025D2*
X3095227D1*
X3187190D2*
X3229602D1*
X2790168Y3391156D2*
X3095227D1*
X3187190D2*
X3243371D1*
X2776106Y3366287D2*
X3095227D1*
X3187190D2*
X3257142D1*
X2762043Y3341419D2*
X3095227D1*
X3187190D2*
X3270911D1*
X2747980Y3316550D2*
X3095227D1*
X3187190D2*
X3284680D1*
X2733919Y3291681D2*
X3095227D1*
X3187190D2*
X3298450D1*
X2762776Y3266812D2*
X3095227D1*
X3187190D2*
X3312268D1*
X2788558Y3241944D2*
X3095227D1*
X3187190D2*
X3326038D1*
X2798371Y3217075D2*
X3095227D1*
X3187190D2*
X3339807D1*
X2798908Y3192206D2*
X3095227D1*
X2790412Y3167337D2*
X3095227D1*
X2371711Y3142469D2*
X2679602D1*
X2767806D2*
X3095227D1*
X2357454Y3117600D2*
X3095227D1*
X2343244Y3092731D2*
X3095227D1*
X3187190D2*
X3241175D1*
X2328987Y3067862D2*
X2423108D1*
X2513020D2*
X3095227D1*
X3187190D2*
X3204705D1*
X2314730Y3042993D2*
X2404748D1*
X2531379D2*
X3095227D1*
X2300520Y3018125D2*
X2399572D1*
X2536555D2*
X3103088D1*
X2286262Y2993256D2*
X2377112D1*
X2532014D2*
X3127014D1*
X2272054Y2968387D2*
X2363050D1*
X2538020D2*
X2641564D1*
X2682063D2*
X3151867D1*
X2257795Y2943518D2*
X2360412D1*
X2549787D2*
X2605823D1*
X2717756D2*
X3176770D1*
X2243538Y2918650D2*
X2367639D1*
X2561604D2*
X2594787D1*
X2728840D2*
X2807727D1*
X2273127Y2893781D2*
X2390247D1*
X2572736D2*
X2586951D1*
X2729378D2*
X2782874D1*
X2296320Y2868912D2*
X2409240D1*
X2367366Y2844043D2*
X2393420D1*
X2851203D2*
X3338343D1*
X3536018D2*
X3549252D1*
X3649446D2*
X3660353D1*
X2540071Y2819175D2*
X2556311D1*
X3342659D2*
X3369642D1*
X3520394D2*
X3569202D1*
X3606331D2*
X3675794D1*
X2523762Y2794306D2*
X2569299D1*
X3519514D2*
X3691272D1*
X2507454Y2769437D2*
X2615003D1*
X3552375D2*
X3706751D1*
X2491096Y2744568D2*
X2590148D1*
X2708235D2*
X3299182D1*
X3566780D2*
X3718274D1*
X2474787Y2719699D2*
X2565295D1*
X2683382D2*
X3324035D1*
X3570686D2*
X3706115D1*
X2458479Y2694831D2*
X2540394D1*
X2658479D2*
X3348890D1*
X3588850D2*
X3714710D1*
X2470588Y2669962D2*
X2515539D1*
X2633626D2*
X3439172D1*
X3611458D2*
X3729064D1*
X2608772Y2645093D2*
X3469495D1*
X3619904D2*
X3743420D1*
X2583919Y2620224D2*
X3470031D1*
X3619367D2*
X3762610D1*
X2574202Y2595356D2*
X3479846D1*
X3653108D2*
X3772131D1*
X2574202Y2570487D2*
X3505676D1*
X3667072D2*
X3786487D1*
X2574202Y2545618D2*
X3518714D1*
X3670686D2*
X3800891D1*
X2015706Y2520749D2*
X2027188D1*
X2574202D2*
X3523791D1*
X3690071D2*
X3829798D1*
X2001448Y2495881D2*
X2101232D1*
X2584602D2*
X3540051D1*
X3711946D2*
X3846984D1*
X1987239Y2471012D2*
X2118908D1*
X2595832D2*
X3569396D1*
X3720003D2*
X3848596D1*
X1972980Y2446143D2*
X2155871D1*
X2596076D2*
X3570227D1*
X3719172D2*
X3814270D1*
X1958723Y2421274D2*
X2048694D1*
X2585335D2*
X2914660D1*
X3092756D2*
X3580383D1*
X1944514Y2396406D2*
X2016760D1*
X2486799D2*
X2516320D1*
X2547102D2*
X2865832D1*
X3141535D2*
X3607239D1*
X1930256Y2371537D2*
X1949915D1*
X2455207D2*
X2836780D1*
X3170588D2*
X3618762D1*
X1915999Y2346668D2*
X1932092D1*
X2459895D2*
X2811927D1*
X3195491D2*
X3624134D1*
X1901790Y2321799D2*
X1918958D1*
X2258528D2*
X2275550D1*
X2447542D2*
X2794934D1*
X3212434D2*
X3640930D1*
X3812386D2*
X3824934D1*
X1887531Y2296930D2*
X1905774D1*
X2233675D2*
X2258459D1*
X2433186D2*
X2782287D1*
X3225130D2*
X3669251D1*
X3820148D2*
X3828652D1*
X1873274Y2272062D2*
X1892591D1*
X2206916D2*
X2244104D1*
X2418391D2*
X2769836D1*
X3237580D2*
X3670423D1*
X2163655Y2247193D2*
X2230139D1*
X2403010D2*
X2764856D1*
X3242562D2*
X3680970D1*
X2188558Y2222324D2*
X2230286D1*
X2390071D2*
X2760900D1*
X3246516D2*
X3708899D1*
X3867610D2*
X3881214D1*
X2213411Y2197455D2*
X2249231D1*
X2375715D2*
X2757092D1*
X3250324D2*
X3718811D1*
X3870588D2*
X3893470D1*
X2368294Y2172587D2*
X2759827D1*
X3247591D2*
X3724524D1*
X3892415D2*
X3981751D1*
X2087142Y2147718D2*
X2135119D1*
X2376839D2*
X2763732D1*
X3243635D2*
X3741858D1*
X3930940D2*
X3963391D1*
X1979378Y2122849D2*
X2160022D1*
X2391584D2*
X2767736D1*
X3239680D2*
X3769152D1*
X1981966Y2097980D2*
X2158899D1*
X2392171D2*
X2778772D1*
X3228596D2*
X3770618D1*
X2047151Y2073112D2*
X2140491D1*
X2392171D2*
X2791467D1*
X3215950D2*
X3781555D1*
X2290266Y2048243D2*
X2307239D1*
X2392171D2*
X2805286D1*
X3202083D2*
X3806164D1*
X2268391Y2023374D2*
X2307239D1*
X2392171D2*
X2829944D1*
X3177474D2*
X3814954D1*
X2261555Y1998505D2*
X2307239D1*
X2392171D2*
X2854992D1*
X3152424D2*
X3829310D1*
X2247199Y1973636D2*
X2307239D1*
X2392171D2*
X2901184D1*
X3106232D2*
X3845324D1*
X2097736Y1948768D2*
X2159974D1*
X2232844D2*
X2307239D1*
X2392171D2*
X3864466D1*
X2070295Y1923899D2*
X2307239D1*
X2392171D2*
X3862756D1*
X2066975Y1899030D2*
X2307239D1*
X2392171D2*
X3871546D1*
X2054671Y1874161D2*
X2307239D1*
X2392171D2*
X3892980D1*
X4033332D2*
X4044592D1*
X2040315Y1849293D2*
X2307239D1*
X2392171D2*
X3853675D1*
X4008235D2*
X4058703D1*
X1857600Y1824424D2*
X1874280D1*
X2019466D2*
X2307239D1*
X2392171D2*
X3814367D1*
X3968928D2*
X4072864D1*
X1843391Y1799555D2*
X1887951D1*
X1969660D2*
X2307727D1*
X2415266D2*
X3775062D1*
X3929622D2*
X4086975D1*
X1829182Y1774686D2*
X2322034D1*
X2440119D2*
X3735755D1*
X3890315D2*
X4101087D1*
X1814974Y1749818D2*
X2346887D1*
X2465022D2*
X3696448D1*
X3851008D2*
X4115247D1*
X1800764Y1724949D2*
X2371790D1*
X2489875D2*
X3657142D1*
X3811702D2*
X4129358D1*
X1786555Y1700080D2*
X2396643D1*
X2910726D2*
X2941076D1*
X2979866D2*
X3038000D1*
X3076839D2*
X3617835D1*
X3772395D2*
X4143518D1*
X1772346Y1675211D2*
X2421496D1*
X3106722D2*
X3212951D1*
X3733088D2*
X4157630D1*
X1754084Y1650343D2*
X2398987D1*
X3113411D2*
X3198352D1*
X3693782D2*
X4171740D1*
X1711262Y1625474D2*
X2314514D1*
X3107795D2*
X3177894D1*
X3654475D2*
X4185900D1*
X1669660Y1600605D2*
X2274231D1*
X3607844D2*
X4200012D1*
X1626594Y1575736D2*
X2248206D1*
X3723030D2*
X4214612D1*
X1583528Y1550867D2*
X2237756D1*
X3765803D2*
X4251916D1*
X1540412Y1525999D2*
X2154114D1*
X3782014D2*
X4296790D1*
X1497346Y1501130D2*
X2120031D1*
X3819759D2*
X3841663D1*
X3941731D2*
X4341711D1*
X1454280Y1476261D2*
X2086194D1*
X3960774D2*
X4386634D1*
X1411214Y1451392D2*
X2075256D1*
X3967415D2*
X4431555D1*
X1368147Y1426524D2*
X2075207D1*
X2758430D2*
X2771058D1*
X3965315D2*
X4476428D1*
X1325080Y1401655D2*
X2075207D1*
X2746175D2*
X2771058D1*
X4158967D2*
X4521350D1*
X1281966Y1376786D2*
X1801623D1*
X2746175D2*
X2797083D1*
X4202424D2*
X4566272D1*
X1238899Y1351917D2*
X1759484D1*
X2746175D2*
X2797083D1*
X4245539D2*
X4611146D1*
X1195832Y1327049D2*
X1717346D1*
X2746175D2*
X2797083D1*
X4288703D2*
X4656067D1*
X1152766Y1302180D2*
X1675256D1*
X2746175D2*
X2797083D1*
X4331819D2*
X4700988D1*
X1109699Y1277311D2*
X1633118D1*
X2746175D2*
X2797083D1*
X4374934D2*
X4745911D1*
X1066634Y1252442D2*
X1591028D1*
X2739631D2*
X2747571D1*
X4418098D2*
X4763732D1*
X1023567Y1227573D2*
X1548890D1*
X2715950D2*
X2731311D1*
X4461214D2*
X4763732D1*
X4855696D2*
X4897131D1*
X1013215Y1202705D2*
X1075744D1*
X1153010D2*
X1506799D1*
X2691047D2*
X2729798D1*
X4504378D2*
X4763732D1*
X4932404D2*
X4941720D1*
X1028303Y1177836D2*
X1053283D1*
X1175471D2*
X1464660D1*
X4547492D2*
X4765783D1*
X4955451D2*
X4968567D1*
X1182648Y1152967D2*
X1422571D1*
X4590608D2*
X4775744D1*
X1200667Y1128098D2*
X1380432D1*
X4633772D2*
X4785803D1*
X1217756Y1103230D2*
X1338343D1*
X1222248Y1078361D2*
X1296203D1*
X1217024Y1053492D2*
X1254064D1*
X1198567Y1028623D2*
X1211950D1*
X4737923D2*
X4809827D1*
X4780207Y1003755D2*
X4873694D1*
X4822542Y978886D2*
X4860168D1*
X3607041Y1590007D2*
X3608853D1*
Y1583024D1*
X3700588Y1582945D1*
X3706787Y1581963D1*
X3712756Y1580024D1*
X3718348Y1577175D1*
X3723425Y1573486D1*
X3736668Y1560396D1*
X3740475Y1558757D1*
X3763282D1*
X3763331Y1525913D1*
X3771699Y1526572D1*
X3780068Y1525913D1*
X3788232Y1523954D1*
X3795988Y1520741D1*
X3803146Y1516354D1*
X3809530Y1510903D1*
X3814982Y1504518D1*
X3819369Y1497361D1*
X3822581Y1489605D1*
X3824541Y1481441D1*
X3825005Y1477514D1*
X3826210Y1478441D1*
X3832236Y1488274D1*
X3839727Y1497045D1*
X3848497Y1504535D1*
X3858331Y1510562D1*
X3868987Y1514975D1*
X3880202Y1517667D1*
X3891699Y1518572D1*
X3903197Y1517667D1*
X3914412Y1514975D1*
X3925068Y1510562D1*
X3934902Y1504535D1*
X3943672Y1497045D1*
X3951163Y1488274D1*
X3957189Y1478441D1*
X3961602Y1467785D1*
X3964294Y1456570D1*
X3965199Y1445072D1*
X3964294Y1433575D1*
X3961602Y1422360D1*
X3957189Y1411703D1*
X3953755Y1405751D1*
X4141479Y1405615D1*
X4148220Y1404547D1*
X4154713Y1402438D1*
X4159793Y1399934D1*
X4641476Y1122224D1*
X4790706Y1122234D1*
X4768230Y1177936D1*
X4766686Y1184585D1*
X4766199Y1191072D1*
Y1267488D1*
X4227705Y1565789D1*
X4222324Y1569988D1*
X4217668Y1574979D1*
X4213878Y1580583D1*
X4033665Y1897756D1*
X4033572Y1885865D1*
X4032591Y1879665D1*
X4030651Y1873697D1*
X4027802Y1868105D1*
X4024113Y1863028D1*
X4019675Y1858589D1*
X4015085Y1855205D1*
X3629753Y1611530D1*
X3623991Y1609046D1*
X3617909Y1607493D1*
X3611085Y1606907D1*
X3603224D1*
X3605664Y1599375D1*
X3607018Y1590017D1*
X3614223Y1607030D1*
X3611085Y1606907D1*
X2297546Y2360337D2*
X2301623Y2367399D1*
X2211029Y2277125D1*
X2201063Y2269883D1*
X2190088Y2264291D1*
X2178373Y2260486D1*
X2166206Y2258558D1*
X2144373Y2258316D1*
X2152113Y2254567D1*
X2157635Y2250555D1*
X2204337Y2204042D1*
X2224398Y2183983D1*
X2230714Y2183787D1*
X2238346Y2181849D1*
X2243222Y2179504D1*
X2245495Y2185932D1*
X2249983Y2194740D1*
X2254777Y2201449D1*
X2244833Y2207293D1*
X2238913Y2212484D1*
X2234367Y2218916D1*
X2231450Y2226230D1*
X2230320Y2234024D1*
X2231041Y2241866D1*
X2233572Y2249323D1*
X2269797Y2312272D1*
X2274508Y2318583D1*
X2280563Y2323618D1*
X2285555Y2326274D1*
X2286992Y2329260D1*
X2287094Y2337134D1*
X2289033Y2344766D1*
X2291297Y2349512D1*
X2297546Y2360337D1*
X2447353Y2325808D2*
X2417199Y2273786D1*
X2412007Y2267866D1*
X2405575Y2263322D1*
X2402844Y2262009D1*
X2401407Y2259024D1*
X2401304Y2251150D1*
X2399365Y2243517D1*
X2397102Y2238772D1*
X2365178Y2183505D1*
X2364959Y2176530D1*
X2366505Y2166766D1*
Y2156879D1*
X2366366Y2155710D1*
X2380113Y2141798D1*
X2383802Y2136720D1*
X2386651Y2131129D1*
X2388591Y2125160D1*
X2389572Y2118961D1*
X2389696Y2053323D1*
Y1822610D1*
X2501276Y1711059D1*
X2883837Y1710945D1*
X2890037Y1709963D1*
X2896005Y1708024D1*
X2901597Y1705175D1*
X2906675Y1701486D1*
X2921929Y1686407D1*
X2929028Y1692604D1*
X2936185Y1696991D1*
X2943941Y1700203D1*
X2952105Y1702163D1*
X2960474Y1702822D1*
X2968843Y1702163D1*
X2977007Y1700203D1*
X2984762Y1696991D1*
X2991920Y1692604D1*
X2998304Y1687152D1*
X3003756Y1680768D1*
X3008143Y1673610D1*
X3008919Y1671927D1*
X3014129Y1680768D1*
X3019580Y1687152D1*
X3025965Y1692604D1*
X3033122Y1696991D1*
X3040878Y1700203D1*
X3049042Y1702163D1*
X3057411Y1702822D1*
X3065780Y1702163D1*
X3073944Y1700203D1*
X3081699Y1696991D1*
X3088857Y1692604D1*
X3095241Y1687152D1*
X3100693Y1680768D1*
X3105080Y1673610D1*
X3108293Y1665854D1*
X3110252Y1657690D1*
X3110911Y1649322D1*
X3110252Y1640953D1*
X3108293Y1632789D1*
X3105080Y1625033D1*
X3103949Y1623014D1*
X3175154Y1623016D1*
X3185037Y1627182D1*
X3190121Y1628589D1*
X3209311Y1667325D1*
X3212929Y1672454D1*
X3217304Y1676953D1*
X3222331Y1680711D1*
X3227882Y1683639D1*
X3233824Y1685660D1*
X3240008Y1686728D1*
X3281199Y1686899D1*
X3599510D1*
X3898626Y1876176D1*
X3890669Y1881104D1*
X3883152Y1887525D1*
X3876731Y1895042D1*
X3871566Y1903471D1*
X3867783Y1912604D1*
X3865475Y1922217D1*
X3864699Y1932072D1*
X3865475Y1941928D1*
X3867783Y1951541D1*
X3868272Y1952864D1*
X3860059Y1966312D1*
X3854718Y1968650D1*
X3848287Y1973196D1*
X3843094Y1979115D1*
X3813148Y2030780D1*
X3810039Y2038014D1*
X3808706Y2045776D1*
X3808806Y2050514D1*
X3801497Y2055188D1*
X3792727Y2062677D1*
X3785236Y2071448D1*
X3779210Y2081282D1*
X3774797Y2091937D1*
X3772104Y2103152D1*
X3771199Y2114650D1*
X3772104Y2126148D1*
X3773067Y2130991D1*
X3761331Y2135764D1*
X3751497Y2141790D1*
X3742727Y2149281D1*
X3735236Y2158050D1*
X3729210Y2167885D1*
X3724797Y2178539D1*
X3722104Y2189755D1*
X3721199Y2201253D1*
X3722104Y2212751D1*
X3723067Y2217593D1*
X3711331Y2222366D1*
X3701497Y2228392D1*
X3692727Y2235883D1*
X3685236Y2244654D1*
X3679210Y2254487D1*
X3674797Y2265143D1*
X3672104Y2276357D1*
X3671199Y2287856D1*
X3672104Y2299353D1*
X3673067Y2304196D1*
X3661331Y2308969D1*
X3651497Y2314995D1*
X3642727Y2322486D1*
X3635236Y2331256D1*
X3629210Y2341089D1*
X3624797Y2351745D1*
X3622104Y2362959D1*
X3621199Y2374458D1*
X3622104Y2385955D1*
X3623067Y2390798D1*
X3611331Y2395571D1*
X3601497Y2401597D1*
X3592727Y2409088D1*
X3585236Y2417858D1*
X3579210Y2427692D1*
X3574797Y2438348D1*
X3572104Y2449563D1*
X3571199Y2461060D1*
X3572104Y2472558D1*
X3573067Y2477400D1*
X3561331Y2482173D1*
X3551497Y2488199D1*
X3542727Y2495690D1*
X3535236Y2504461D1*
X3529210Y2514294D1*
X3524797Y2524950D1*
X3522104Y2536165D1*
X3521199Y2547663D1*
X3522104Y2559160D1*
X3523067Y2564003D1*
X3511331Y2568777D1*
X3501497Y2574803D1*
X3492727Y2582293D1*
X3485236Y2591063D1*
X3479210Y2600898D1*
X3474797Y2611552D1*
X3472104Y2622768D1*
X3471199Y2634265D1*
X3472104Y2645764D1*
X3473067Y2650605D1*
X3461331Y2655379D1*
X3451497Y2661406D1*
X3442727Y2668895D1*
X3435236Y2677665D1*
X3433094Y2680871D1*
X3378765Y2680995D1*
X3372567Y2681976D1*
X3366598Y2683916D1*
X3361005Y2686765D1*
X3355928Y2690454D1*
X3309428Y2736781D1*
X3290127Y2756081D1*
X2717295Y2756076D1*
X2571711Y2610521D1*
X2571696Y2506711D1*
X2576247Y2502619D1*
X2582668Y2495102D1*
X2587833Y2486673D1*
X2591615Y2477541D1*
X2593924Y2467928D1*
X2594699Y2458072D1*
X2593924Y2448217D1*
X2591615Y2438604D1*
X2587833Y2429471D1*
X2582668Y2421042D1*
X2576247Y2413525D1*
X2568730Y2407104D1*
X2560301Y2401938D1*
X2551168Y2398156D1*
X2541555Y2395848D1*
X2531699Y2395072D1*
X2521844Y2395848D1*
X2512231Y2398156D1*
X2504344Y2401365D1*
X2467646Y2392269D1*
X2452748Y2371584D1*
X2456169Y2364566D1*
X2457907Y2356885D1*
X2457804Y2349010D1*
X2455866Y2341378D1*
X2453602Y2336633D1*
X2447353Y2325808D1*
X2054408Y1878008D2*
X2029727Y1835466D1*
X2024534Y1829545D1*
X2018102Y1825000D1*
X2010789Y1822081D1*
X2002995Y1820951D1*
X1995154Y1821672D1*
X1987696Y1824203D1*
X1981520Y1827650D1*
X1979694Y1820327D1*
X1976482Y1812571D1*
X1972094Y1805413D1*
X1966643Y1799029D1*
X1960259Y1793577D1*
X1953101Y1789190D1*
X1945345Y1785978D1*
X1937181Y1784018D1*
X1928812Y1783360D1*
X1920444Y1784018D1*
X1912280Y1785978D1*
X1904524Y1789190D1*
X1897366Y1793577D1*
X1890982Y1799029D1*
X1885530Y1805413D1*
X1881143Y1812571D1*
X1877930Y1820327D1*
X1875971Y1828491D1*
X1875312Y1836860D1*
X1875971Y1845228D1*
X1877930Y1853392D1*
X1881143Y1861148D1*
X1885530Y1868306D1*
X1890982Y1874690D1*
X1894495Y1878013D1*
X1890130Y1881608D1*
X1883697Y1874457D1*
X1758182Y1655118D1*
X1755289Y1652488D1*
X1712885Y1628218D1*
X1698332Y1618591D1*
X1002171Y1216661D1*
X1048841Y1139940D1*
X1048394Y1147474D1*
X1049206Y1157798D1*
X1051623Y1167869D1*
X1055587Y1177437D1*
X1060999Y1186268D1*
X1067724Y1194143D1*
X1075600Y1200869D1*
X1084430Y1206280D1*
X1093999Y1210243D1*
X1104068Y1212661D1*
X1114394Y1213474D1*
X1124718Y1212661D1*
X1134789Y1210243D1*
X1144357Y1206280D1*
X1153188Y1200869D1*
X1161062Y1194143D1*
X1167789Y1186268D1*
X1173199Y1177437D1*
X1177163Y1167869D1*
X1179580Y1157798D1*
X1180394Y1147474D1*
X1179907Y1139903D1*
X1188248Y1135556D1*
X1196627Y1129470D1*
X1203950Y1122146D1*
X1210038Y1113768D1*
X1214739Y1104539D1*
X1217940Y1094690D1*
X1219560Y1084461D1*
Y1074104D1*
X1217940Y1063875D1*
X1214739Y1054025D1*
X1210038Y1044798D1*
X1203950Y1036419D1*
X1196627Y1029096D1*
X1188248Y1023008D1*
X1179021Y1018306D1*
X1176343Y1017319D1*
X1190151Y1014256D1*
X1834589Y1394650D1*
X1840937Y1397157D1*
X1847600Y1398643D1*
X1853699Y1399072D1*
X2077675D1*
X2077818Y1452343D1*
X2078764Y1458310D1*
X2080630Y1464055D1*
X2083373Y1469438D1*
X2086924Y1474325D1*
X2091196Y1478597D1*
X2137572Y1511900D1*
X2142749Y1515016D1*
X2148349Y1517282D1*
X2154315Y1518644D1*
X2156617Y1527387D1*
Y1533757D1*
X2240197D1*
X2240318Y1552344D1*
X2241264Y1558311D1*
X2243130Y1564056D1*
X2245873Y1569440D1*
X2249424Y1574327D1*
X2270521Y1595591D1*
X2275114Y1599514D1*
X2280265Y1602672D1*
X2285846Y1604983D1*
X2291722Y1606394D1*
X2297744Y1606867D1*
X2317031D1*
X2317001Y1631395D1*
X2381308D1*
X2397445Y1647348D1*
X2402332Y1650899D1*
X2407715Y1653642D1*
X2413461Y1655508D1*
X2419428Y1656454D1*
X2442615Y1656572D1*
X2319286Y1780097D1*
X2315597Y1785175D1*
X2312748Y1790766D1*
X2310808Y1796735D1*
X2309827Y1802934D1*
X2309703Y1868572D1*
X2309441Y2085801D1*
X2283825Y2041614D1*
X2278634Y2035693D1*
X2272202Y2031148D1*
X2267017Y2028891D1*
X2265534Y2025778D1*
X2266050Y2017921D1*
X2264717Y2010159D1*
X2261608Y2002924D1*
X2228707Y1946147D1*
X2223516Y1940226D1*
X2217084Y1935681D1*
X2209770Y1932762D1*
X2201976Y1931633D1*
X2194134Y1932353D1*
X2186677Y1934885D1*
X2131449Y1966651D1*
X2105546Y1966614D1*
X2088782Y1937752D1*
X2083589Y1931831D1*
X2077157Y1927286D1*
X2069844Y1924367D1*
X2062050Y1923238D1*
X2061650Y1923243D1*
X2061087Y1921568D1*
X2064004Y1914253D1*
X2065134Y1906461D1*
X2064413Y1898618D1*
X2061882Y1891161D1*
X2054408Y1878008D1*
X2029627Y2081812D2*
X2078469Y2053614D1*
X2131739D1*
X2143615Y2074081D1*
X2148807Y2080003D1*
X2155239Y2084547D1*
X2160424Y2086804D1*
X2161907Y2089917D1*
X2161391Y2097774D1*
X2162724Y2105537D1*
X2165833Y2112772D1*
X2168299Y2117042D1*
X2111325Y2174017D1*
X2102122Y2168623D1*
X2093499Y2156755D1*
X2083123Y2146379D1*
X2071253Y2137756D1*
X2058181Y2131094D1*
X2044227Y2126560D1*
X2029736Y2124265D1*
X2015064D1*
X2000573Y2126560D1*
X1986619Y2131094D1*
X1975424Y2136705D1*
X1980824Y2084929D1*
X1986068Y2088491D1*
X1993382Y2091409D1*
X2001176Y2092539D1*
X2009017Y2091819D1*
X2016475Y2089287D1*
X2029627Y2081812D1*
X3798323Y2554329D2*
X3768349Y2606454D1*
X3765818Y2613911D1*
X3765097Y2621753D1*
X3765327Y2624774D1*
X3763459Y2627512D1*
X3756692Y2631538D1*
X3751051Y2637033D1*
X3748073Y2641365D1*
X3711849Y2704315D1*
X3709318Y2711772D1*
X3708597Y2719614D1*
X3709727Y2727408D1*
X3712644Y2734722D1*
X3717190Y2741154D1*
X3723110Y2746345D1*
X3723450Y2746559D1*
X3723110Y2746345D1*
X3723450Y2746559D1*
X3657566Y2852470D1*
X3653176Y2848109D1*
X3648844Y2845131D1*
X3602192Y2818316D1*
X3594735Y2815785D1*
X3586894Y2815064D1*
X3579100Y2816194D1*
X3571785Y2819113D1*
X3565354Y2823657D1*
X3560161Y2829579D1*
X3534710Y2873455D1*
X3534566Y2850558D1*
X3533497Y2843816D1*
X3531388Y2837324D1*
X3528289Y2831243D1*
X3524277Y2825720D1*
X3517366Y2818619D1*
X3518199Y2807470D1*
X3517294Y2795972D1*
X3516331Y2791130D1*
X3528067Y2786357D1*
X3537902Y2780331D1*
X3546672Y2772840D1*
X3554161Y2764070D1*
X3560188Y2754236D1*
X3564601Y2743580D1*
X3567294Y2732366D1*
X3568199Y2720867D1*
X3567294Y2709370D1*
X3566331Y2704528D1*
X3578067Y2699755D1*
X3587902Y2693728D1*
X3596672Y2686238D1*
X3604161Y2677467D1*
X3610188Y2667634D1*
X3614601Y2656978D1*
X3617294Y2645764D1*
X3618199Y2634265D1*
X3617294Y2622768D1*
X3616331Y2617925D1*
X3628067Y2613152D1*
X3637902Y2607126D1*
X3646672Y2599635D1*
X3654161Y2590865D1*
X3660188Y2581031D1*
X3664601Y2570375D1*
X3667294Y2559160D1*
X3668199Y2547663D1*
X3667294Y2536165D1*
X3666331Y2531323D1*
X3678067Y2526550D1*
X3687902Y2520524D1*
X3696672Y2513033D1*
X3704161Y2504262D1*
X3710188Y2494429D1*
X3714601Y2483773D1*
X3717294Y2472558D1*
X3718199Y2461060D1*
X3717294Y2449563D1*
X3716331Y2444720D1*
X3728067Y2439946D1*
X3737902Y2433920D1*
X3746672Y2426430D1*
X3752277Y2420050D1*
X3841385Y2456087D1*
X3843885Y2461967D1*
X3848429Y2468398D1*
X3854350Y2473591D1*
X3871079Y2483367D1*
X3862598Y2486938D1*
X3854169Y2492104D1*
X3846652Y2498525D1*
X3840231Y2506042D1*
X3835066Y2514471D1*
X3831283Y2523604D1*
X3830084Y2526938D1*
X3822403Y2528676D1*
X3815340Y2532159D1*
X3809285Y2537194D1*
X3804573Y2543505D1*
X3804416Y2543804D1*
X3798323Y2554329D1*
X2240160Y2917129D2*
X2246689Y2914281D1*
X2255648Y2908790D1*
X2263639Y2901966D1*
X2270463Y2893975D1*
X2275064Y2886972D1*
X2279837Y2882896D1*
X2306112Y2856622D1*
X2315650Y2858028D1*
X2327184D1*
X2338575Y2856223D1*
X2349543Y2852659D1*
X2359820Y2847423D1*
X2369151Y2840643D1*
X2377306Y2832488D1*
X2383322Y2824301D1*
X2418029Y2878816D1*
X2415329Y2884459D1*
X2408293Y2886362D1*
X2398724Y2890325D1*
X2389894Y2895736D1*
X2382020Y2902462D1*
X2375293Y2910337D1*
X2369882Y2919168D1*
X2365919Y2928736D1*
X2363501Y2938807D1*
X2362688Y2949131D1*
X2363501Y2959457D1*
X2365919Y2969526D1*
X2369882Y2979094D1*
X2375293Y2987925D1*
X2382020Y2995801D1*
X2389894Y3002526D1*
X2398724Y3007938D1*
X2402493Y3009676D1*
X2402058Y3017323D1*
X2402871Y3027647D1*
X2405289Y3037718D1*
X2409252Y3047286D1*
X2414663Y3056117D1*
X2421390Y3063992D1*
X2429264Y3070718D1*
X2438094Y3076129D1*
X2447663Y3080092D1*
X2457734Y3082510D1*
X2468058Y3083323D1*
X2478383Y3082510D1*
X2488453Y3080092D1*
X2498021Y3076129D1*
X2506852Y3070718D1*
X2514727Y3063992D1*
X2521453Y3056117D1*
X2526865Y3047286D1*
X2530828Y3037718D1*
X2533245Y3027647D1*
X2534058Y3017323D1*
X2533245Y3006997D1*
X2530828Y2996928D1*
X2526677Y2987024D1*
X2569073Y2897316D1*
X2570841Y2891294D1*
X2571646Y2885070D1*
X2571428Y2878516D1*
X2579573Y2886819D1*
X2587953Y2892906D1*
X2596243Y2897176D1*
X2595807Y2904823D1*
X2596621Y2915147D1*
X2599038Y2925218D1*
X2603001Y2934786D1*
X2608412Y2943617D1*
X2615139Y2951492D1*
X2623013Y2958218D1*
X2631844Y2963629D1*
X2641412Y2967592D1*
X2651483Y2970010D1*
X2661807Y2970823D1*
X2672133Y2970010D1*
X2682202Y2967592D1*
X2691770Y2963629D1*
X2700601Y2958218D1*
X2708476Y2951492D1*
X2715202Y2943617D1*
X2720614Y2934786D1*
X2724577Y2925218D1*
X2726995Y2915147D1*
X2727807Y2904823D1*
X2726995Y2894497D1*
X2724577Y2884428D1*
X2721419Y2876605D1*
X2768189Y2876627D1*
X2815224Y2923486D1*
X2820302Y2927175D1*
X2825894Y2930024D1*
X2831862Y2931963D1*
X2838062Y2932945D1*
X2903699Y2933068D1*
X3189686D1*
X3108122Y3014822D1*
X3104110Y3020344D1*
X3101010Y3026425D1*
X3098902Y3032917D1*
X3097833Y3039659D1*
X3097699Y3105572D1*
Y4267077D1*
X3077218Y4296143D1*
X3068776Y4291881D1*
X3058925Y4288681D1*
X3048697Y4287060D1*
X3038340D1*
X3028112Y4288681D1*
X3018261Y4291881D1*
X3009034Y4296583D1*
X3004168Y4299900D1*
X2994741Y4294050D1*
X2985173Y4290087D1*
X2975102Y4287669D1*
X2964778Y4286857D1*
X2954454Y4287669D1*
X2944383Y4290087D1*
X2934815Y4294050D1*
X2925984Y4299462D1*
X2918109Y4306188D1*
X2911383Y4314063D1*
X2905971Y4322894D1*
X2902008Y4332462D1*
X2899591Y4342533D1*
X2898778Y4352857D1*
X2899591Y4363181D1*
X2902008Y4373252D1*
X2905971Y4382820D1*
X2911383Y4391651D1*
X2918109Y4399526D1*
X2925984Y4406252D1*
X2932466Y4410348D1*
X2853281Y4410715D1*
X2853219Y3508745D1*
X2852010Y3505026D1*
X2722902Y3276579D1*
X2735197Y3275667D1*
X2746412Y3272975D1*
X2757068Y3268562D1*
X2766902Y3262535D1*
X2775672Y3255045D1*
X2783163Y3246274D1*
X2789189Y3236441D1*
X2793602Y3225785D1*
X2796294Y3214570D1*
X2797199Y3203072D1*
X2796294Y3191575D1*
X2793602Y3180360D1*
X2789189Y3169703D1*
X2783163Y3159870D1*
X2775672Y3151100D1*
X2766902Y3143609D1*
X2757068Y3137583D1*
X2746412Y3133169D1*
X2735197Y3130478D1*
X2723699Y3129572D1*
X2712202Y3130478D1*
X2700987Y3133169D1*
X2690331Y3137583D1*
X2680497Y3143609D1*
X2671727Y3151100D1*
X2664236Y3159870D1*
X2660336Y3165908D1*
X2654916Y3156999D1*
X2651835Y3154589D1*
X2648160Y3153251D1*
X2633441Y3152850D1*
X2373163Y3149311D1*
X2240192Y2917154D1*
X2044623Y2512096D2*
X2017264Y2527892D1*
X1867236Y2265848D1*
X1879895Y2240919D1*
X1882904Y2248950D1*
X1941867Y2360122D1*
X1945965Y2365581D1*
X1950866Y2370332D1*
X1956451Y2374257D1*
X1962580Y2377260D1*
X1969105Y2379268D1*
X1975862Y2380230D1*
X2008529Y2380316D1*
X2015657Y2391774D1*
X2025186Y2402930D1*
X2036343Y2412459D1*
X2048853Y2420125D1*
X2062407Y2425740D1*
X2076675Y2429165D1*
X2091301Y2430316D1*
X2105927Y2429165D1*
X2120194Y2425740D1*
X2132785Y2420570D1*
X2164097Y2451883D1*
X2154041Y2453602D1*
X2143072Y2457167D1*
X2132795Y2462402D1*
X2123465Y2469181D1*
X2115310Y2477337D1*
X2108530Y2486668D1*
X2103294Y2496944D1*
X2099730Y2507913D1*
X2098533Y2514177D1*
X2094615Y2509962D1*
X2088184Y2505417D1*
X2080870Y2502500D1*
X2073076Y2501369D1*
X2065234Y2502091D1*
X2057777Y2504621D1*
X2044623Y2512096D1*
X3197325Y3048467D2*
X3201430Y3058472D1*
X3206921Y3067432D1*
X3213745Y3075423D1*
X3221736Y3082247D1*
X3230696Y3087736D1*
X3240403Y3091759D1*
X3250621Y3094211D1*
X3261096Y3095035D1*
X3268778Y3094542D1*
X3270407Y3101503D1*
X3273890Y3108566D1*
X3275664Y3111021D1*
X3265689Y3112591D1*
X3184684D1*
X3184699Y3061119D1*
X3197336Y3048454D1*
X2442387Y2674163D2*
X2454979Y2673209D1*
X2466957Y2670333D1*
X2478337Y2665619D1*
X2488841Y2659184D1*
X2498207Y2651184D1*
X2499106Y2650211D1*
X2503417Y2655354D1*
X2618772Y2770707D1*
X2607030Y2772455D1*
X2597180Y2775655D1*
X2587953Y2780357D1*
X2579573Y2786445D1*
X2572251Y2793768D1*
X2566163Y2802147D1*
X2561462Y2811374D1*
X2558261Y2821224D1*
X2556640Y2831453D1*
Y2841810D1*
X2557870Y2850073D1*
X2442451Y2674207D1*
X2766539Y1457051D2*
X2764986Y1447109D1*
X2761929Y1437703D1*
X2757440Y1428891D1*
X2751626Y1420890D1*
X2744633Y1413896D1*
X2743676Y1413142D1*
X2743572Y1271249D1*
X2742591Y1265050D1*
X2740651Y1259081D1*
X2737802Y1253490D1*
X2734113Y1248412D1*
X2687787Y1201911D1*
X2670350Y1184475D1*
X2739067Y1184522D1*
X2735545Y1191451D1*
X2732950Y1199436D1*
X2731638Y1207727D1*
Y1216123D1*
X2732950Y1224415D1*
X2735545Y1232399D1*
X2739356Y1239879D1*
X2744291Y1246671D1*
X2750227Y1252606D1*
X2757018Y1257542D1*
X2764499Y1261353D1*
X2772483Y1263948D1*
X2780774Y1265260D1*
X2789171D1*
X2797462Y1263948D1*
X2799594Y1263345D1*
X2799579Y1396148D1*
X2773546Y1396136D1*
Y1450092D1*
X3077067Y4409655D2*
X3082312Y4406252D1*
X3090188Y4399526D1*
X3093197Y4396270D1*
X3100661Y4395155D1*
X3107154Y4393046D1*
X3113235Y4389948D1*
X3118757Y4385934D1*
X3123584Y4381108D1*
X3140470Y4357438D1*
X3149656Y4344379D1*
X3149714Y4409283D1*
X3077205Y4409634D1*
X4853596Y1198552D2*
X4860147Y1203199D1*
X4869374Y1207902D1*
X4879224Y1211101D1*
X4889454Y1212722D1*
X4899810D1*
X4910039Y1211101D1*
X4919888Y1207902D1*
X4929117Y1203199D1*
X4937495Y1197112D1*
X4944819Y1189789D1*
X4950906Y1181409D1*
X4955608Y1172182D1*
X4958808Y1162332D1*
X4959827Y1157189D1*
X4975089Y1185497D1*
X4853165Y1253487D1*
X4853199Y1199567D1*
X4884986Y1019818D2*
X4875656Y1015965D1*
X4865587Y1013546D1*
X4855261Y1012734D1*
X4844937Y1013546D1*
X4834866Y1015965D1*
X4825298Y1019928D1*
X4816467Y1025339D1*
X4808593Y1032064D1*
X4805261Y1035234D1*
X4724159D1*
X4852381Y959894D1*
X4884954Y1019804D1*
X3615462Y2825874D2*
X3602192Y2818316D1*
X3594735Y2815785D1*
X3586894Y2815064D1*
X3579100Y2816194D1*
X3571785Y2819113D1*
X3565354Y2823657D1*
X3560161Y2829579D1*
X3555753Y2837034D1*
X3373050Y2823870D2*
X3366572Y2826168D1*
X3356295Y2831404D1*
X3346965Y2838184D1*
X3338810Y2846339D1*
X3333745Y2853101D1*
X2857711Y2853076D1*
X2840720Y2836030D1*
X3309837Y2835945D1*
X3316037Y2834963D1*
X3322005Y2833024D1*
X3327597Y2830175D1*
X3332675Y2826486D1*
X3374928Y2784407D1*
X3372104Y2795972D1*
X3371199Y2807470D1*
X3372104Y2818969D1*
X3373067Y2823811D1*
X3798890Y2337427D2*
X3804161Y2331058D1*
X3810188Y2321223D1*
X3814601Y2310568D1*
X3817294Y2299353D1*
X3818101Y2290356D1*
X3823932Y2293906D1*
X3855934Y2306886D1*
X3845840Y2310117D1*
X3837031Y2314605D1*
X3829034Y2320416D1*
X3822043Y2327407D1*
X3816232Y2335404D1*
X3811744Y2344213D1*
X3808689Y2353614D1*
X3808127Y2356438D1*
X3802123Y2349818D1*
X3798919Y2337483D1*
X3867972Y2195486D2*
X3866331Y2184912D1*
X3878067Y2180139D1*
X3887902Y2174113D1*
X3896672Y2166622D1*
X3904161Y2157852D1*
X3906303Y2154647D1*
X3912000Y2154188D1*
X3918112Y2152756D1*
X3923923Y2150386D1*
X3929293Y2147136D1*
X3934087Y2143087D1*
X3938421Y2138005D1*
X3944538Y2137932D1*
X3952219Y2136194D1*
X3957049Y2134041D1*
X3959597Y2138970D1*
X3991213Y2182052D1*
X3998839Y2192385D1*
X3992261Y2193936D1*
X3991888Y2194084D1*
X3992261Y2193936D1*
X3989497Y2192525D1*
X3981980Y2186104D1*
X3973551Y2180938D1*
X3964419Y2177156D1*
X3954806Y2174848D1*
X3944950Y2174072D1*
X3935094Y2174848D1*
X3925482Y2177156D1*
X3916349Y2180938D1*
X3907920Y2186104D1*
X3900403Y2192525D1*
X3893982Y2200042D1*
X3888816Y2208471D1*
X3885034Y2217604D1*
X3882726Y2227217D1*
X3882247Y2231265D1*
X3865993Y2224727D1*
X3866168Y2218411D1*
X3867972Y2207020D1*
Y2195486D1*
X3239528Y2250671D2*
X3247840Y2197352D1*
Y2190682D1*
X3237572Y2125017D1*
X3236016Y2118533D1*
X3233463Y2112371D1*
X3203173Y2053213D1*
X3199253Y2047818D1*
X3152350Y2000728D1*
X3147278Y1996398D1*
X3141592Y1992912D1*
X3082315Y1962856D1*
X3075971Y1960795D1*
X3010348Y1950269D1*
X3003699Y1949745D1*
X2997051Y1950269D1*
X2931428Y1960795D1*
X2925084Y1962856D1*
X2865807Y1992912D1*
X2860121Y1996398D1*
X2855049Y2000728D1*
X2808146Y2047818D1*
X2804226Y2053213D1*
X2773936Y2112371D1*
X2771383Y2118533D1*
X2769827Y2125018D1*
X2759559Y2190682D1*
Y2197352D1*
X2769827Y2263017D1*
X2771383Y2269501D1*
X2773936Y2275663D1*
X2804226Y2334822D1*
X2808146Y2340217D1*
X2855049Y2387306D1*
X2860121Y2391636D1*
X2865807Y2395122D1*
X2925084Y2425178D1*
X2931427Y2427239D1*
X2997051Y2437765D1*
X3003699Y2438289D1*
X3010348Y2437765D1*
X3075972Y2427239D1*
X3082315Y2425178D1*
X3141593Y2395122D1*
X3147278Y2391636D1*
X3152350Y2387306D1*
X3199253Y2340217D1*
X3203173Y2334822D1*
X3233463Y2275663D1*
X3236016Y2269501D1*
X3237572Y2263017D1*
X3247840Y2197352D1*
Y2190682D1*
X3247385Y2187049D1*
X3247448Y2187369D1*
X3184699Y3501547D2*
Y3199594D1*
X3351991Y3199591D1*
X3184668Y3501597D1*
D24*
X2978699Y1305572D3*
X3045629D3*
D25*
X3341164Y1265672D3*
Y1332601D3*
D24*
X2978699Y1386823D3*
X3045629D3*
X3553699Y1536822D3*
X3486770D3*
D26*
X3397450Y1415572D3*
X3472253D3*
D24*
X3232450D3*
X3299379D3*
D25*
X3603699Y1355572D3*
Y1422501D3*
D96*
X2372449Y2343072D3*
X2315949Y2245211D3*
D99*
X1972558Y1905602D3*
X2031613Y2007888D3*
D102*
X3850726Y2610566D3*
X3794226Y2708427D3*
D27*
X3020644Y1549516D3*
X3133644D3*
D105*
X2166287Y2768012D3*
D28*
X2216287Y2854614D3*
D105*
X2059950Y2580572D3*
D28*
X2109950Y2667175D3*
D108*
X3347698Y3078071D3*
D28*
X3261096Y3028071D3*
D16*
X2392699Y2509072D3*
X2442699Y2595675D3*
D29*
X2703699Y1561823D3*
D30*
Y1461823D3*
X2603699Y1561823D3*
Y1461823D3*
X2503699Y1561823D3*
Y1461823D3*
D21*
X2091301Y2336816D3*
X2022400Y2217478D3*
D31*
X2468059Y3017323D3*
X2428689Y2949131D3*
X2661808Y2904823D3*
X2622438Y2836631D3*
X2964778Y4352857D3*
X3043518D3*
X1153762Y1079282D3*
X1114392Y1147474D3*
X4894633Y1146925D3*
X4855262Y1078734D3*
D24*
X3641199Y1505572D3*
X3708129D3*
X3047449Y1230572D3*
X2980520D3*
D111*
X2241280Y2105581D3*
X2186161Y2010114D3*
D25*
X2466199Y1280572D3*
Y1347501D3*
D114*
X3541199Y2980572D3*
X3605982Y3017974D3*
X3659950Y2924322D3*
X3595168Y2886920D3*
D24*
X3772449Y1424322D3*
X3705520D3*
X3372411Y1518143D3*
X3305482D3*
X2828699Y1449322D3*
X2895629D3*
X2880711Y1547049D3*
X2813782D3*
X3387699Y1582072D3*
X3320770D3*
D33*
X3147450Y1314323D3*
Y1276921D3*
Y1239520D3*
X3253749D3*
Y1314323D3*
X3516146Y1265673D3*
Y1303075D3*
Y1340476D3*
X3409846D3*
Y1265673D3*
D24*
X2211770Y1480572D3*
X2278699D3*
D34*
X2384950Y1430572D3*
Y1568367D3*
D24*
X2278699Y1418072D3*
X2211770D3*
D35*
X2872449Y1211822D3*
Y1261822D3*
Y1311822D3*
Y1361822D3*
X2581110D3*
Y1311822D3*
Y1261822D3*
Y1211822D3*
D117*
X3934852Y2068085D3*
X3876888Y2034621D3*
D36*
X3394699Y2894072D3*
X3444699Y2807470D3*
X3494699Y2720867D3*
X3544699Y2634265D3*
X3594699Y2547663D3*
X3644699Y2461060D3*
X3694699Y2374458D3*
X3744699Y2287856D3*
X3794699Y2201252D3*
X3844699Y2114650D3*
D120*
X3976199Y2312072D3*
X4009664Y2254109D3*
X3901199Y2437072D3*
X3934664Y2379109D3*
D36*
X2171199Y2525072D3*
X2221416Y2611549D3*
X2271416Y2698152D3*
X2321416Y2784755D3*
D37*
X3003699Y4574072D3*
X5065699Y1003072D3*
X942699D3*
D36*
X3891699Y1445072D3*
X2723699Y3203072D3*
X703699Y4493072D3*
X4503699Y693072D3*
D38*
X862699Y4739072D3*
X913199Y4739572D3*
X963199D3*
X1012699D3*
X1063199Y4738572D3*
X2112699Y4739072D3*
X2163699D3*
X2213199D3*
X2263199Y4739572D3*
X2312699D3*
X2903699D3*
X2953699D3*
X3003699D3*
X3053699D3*
X3103699D3*
X3694199Y4739072D3*
X3744199Y4739572D3*
X3795199D3*
X3844699D3*
X3895199Y4739072D3*
X4944699D3*
X4994699D3*
X5044699D3*
X5094699Y4740072D3*
X5145699Y4739072D3*
X5464699Y1365572D3*
X5439699Y1322072D3*
X5364699Y1192072D3*
X5389699Y1235572D3*
X5414699Y1279072D3*
X5258199Y1008072D3*
X5233199Y964572D3*
X5158199Y834572D3*
X5183199Y878072D3*
X5208199Y921572D3*
X5026199Y606572D3*
X5001199Y563072D3*
X4926199Y433072D3*
X4951199Y476572D3*
X4976199Y520072D3*
X5051199Y651072D3*
X1080699Y433072D3*
X1055699Y476572D3*
X1030699Y520072D3*
X955699Y650572D3*
X981199Y606572D3*
X1005699Y563072D3*
X849199Y834572D3*
X824199Y878072D3*
X799199Y921572D3*
X749199Y1007572D3*
X774199Y964572D3*
X642699Y1192072D3*
X617699Y1235572D3*
X592699Y1279072D3*
X543199Y1365572D3*
X567699Y1322072D3*
X3158699Y1094072D3*
X3208699D3*
X3258699D3*
X3308699D3*
X3358699D3*
X2648699Y1093572D3*
X2698699Y1094072D3*
X2748699D3*
X2798699D3*
X2848699D3*
X3778699Y3051572D3*
X3803699Y3008072D3*
X3828699Y2965072D3*
X3853699Y2921572D3*
X3879199Y2878072D3*
X4033699Y2609572D3*
X4058699Y2566572D3*
X4083699Y2523072D3*
X4108699Y2479572D3*
X4133699Y2436072D3*
X2228699Y3051572D3*
X2203199Y3008072D3*
X2178699Y2965072D3*
X2153699Y2921572D3*
X2128699Y2878072D3*
X1973699Y2609572D3*
X1948699Y2566072D3*
X1923699Y2523072D3*
X1898699Y2480072D3*
X1873699Y2436572D3*
M02*
