G04 DipTrace 3.0.0.2*
G04 TopSilk.gbr*
%MOIN*%
G04 #@! TF.FileFunction,Legend,Top*
G04 #@! TF.Part,Single*
%ADD10C,0.01*%
%ADD32C,0.015395*%
%ADD89C,0.004632*%
%ADD91C,0.006176*%
%ADD93C,0.018527*%
%ADD94C,0.009264*%
%FSLAX26Y26*%
G04*
G70*
G90*
G75*
G01*
G04 TopSilk*
%LPD*%
X3356091Y1390001D2*
D10*
Y1441143D1*
X2437247Y2355317D2*
X2337258Y2182106D1*
X2250648Y2232106D1*
X2350657Y2405317D1*
X2437247Y2355317D1*
X2449751Y2376962D2*
X2363141Y2426962D1*
X2089318Y2029123D2*
X2021138Y2068486D1*
X2060128Y1939160D2*
X2046340Y1915272D1*
X1957831Y1998215D2*
X1944042Y1974327D1*
X3828934Y2548321D2*
X3728925Y2721532D1*
X3815535Y2771531D1*
X3915524Y2598321D1*
X3828934Y2548321D1*
X3841418Y2526676D2*
X3928028Y2576675D1*
X2977642Y1599516D2*
X3177644D1*
Y1499516D1*
X2977642D1*
Y1599516D1*
X2952644D2*
Y1499516D1*
X2097972Y2749713D2*
X2197985Y2922920D1*
X2284594Y2872934D1*
X2184581Y2699700D1*
X2097972Y2749713D1*
X1991634Y2562268D2*
X2091648Y2735499D1*
X2178257Y2685491D1*
X2078244Y2512260D1*
X1991634Y2562268D1*
X2645399Y1611823D2*
X2453699D1*
X2753699D2*
X2453699D1*
X2753699Y1411823D2*
X2453699D1*
X2753699Y1611823D2*
Y1411823D1*
X2453699Y1611823D2*
Y1411823D1*
X1838461Y2243906D2*
X1976364Y2482736D1*
X2275140Y2310215D1*
X2137237Y2071385D1*
X1838461Y2243906D1*
X2077499Y2165646D2*
G02X2077499Y2165646I34498J0D01*
G01*
X2146494Y2285143D2*
G02X2146494Y2285143I34498J0D01*
G01*
X1855710Y2273770D2*
X1945360Y2222022D1*
X1890208Y2333539D2*
X1979858Y2281791D1*
X1924705Y2393267D2*
X2014355Y2341519D1*
X1959203Y2453036D2*
X2048853Y2401288D1*
X2287662Y2940222D2*
X2405265Y3143919D1*
X2574989Y3045932D1*
X2457386Y2842236D1*
X2287662Y2940222D1*
X2481411Y2827722D2*
X2599022Y3031419D1*
X2768728Y2933432D1*
X2651149Y2729736D1*
X2481411Y2827722D1*
X3121744Y4235177D2*
X2886539D1*
Y4431158D1*
X3121744D1*
Y4235177D1*
X1177193Y1274058D2*
X1294796Y1070362D1*
X1125072Y972375D1*
X1007469Y1176072D1*
X1177193Y1274058D1*
X4714236Y1069825D2*
X4831838Y1273522D1*
X5001562Y1175535D1*
X4883959Y971838D1*
X4714236Y1069825D1*
X2192366Y2083774D2*
X2180587Y2063374D1*
X2246854Y2052321D2*
X2235075Y2031921D1*
D32*
X3130825Y1341237D3*
X3184890Y1335974D2*
D10*
Y1217866D1*
X3216381Y1335974D2*
Y1217866D1*
X3184890D2*
X3216381D1*
X3184890Y1335974D2*
X3216381D1*
D32*
X3532771Y1238759D3*
X3478706Y1244022D2*
D10*
Y1362130D1*
X3447215Y1244022D2*
Y1362130D1*
X3478706D2*
X3447215D1*
X3478706Y1244022D2*
X3447215D1*
X2412509Y1616596D2*
X2357391D1*
X2416443Y1521128D2*
Y1477824D1*
X2353457Y1521128D2*
Y1477824D1*
X2813378Y1184461D2*
Y1389182D1*
X2640181Y1184461D2*
Y1389182D1*
X2813378D2*
X2640181D1*
X2813378Y1184461D2*
X2754350D1*
X2699209D2*
X2640181D1*
X2754350D2*
G03X2699209Y1184461I-27571J-15D01*
G01*
X3008245Y1362028D2*
D89*
X3006819Y1364880D1*
X3003934Y1367765D1*
X3001082Y1369191D1*
X2995345D1*
X2992460Y1367765D1*
X2989608Y1364880D1*
X2988149Y1362028D1*
X2986723Y1357717D1*
Y1350521D1*
X2988149Y1346243D1*
X2989608Y1343358D1*
X2992460Y1340506D1*
X2995345Y1339047D1*
X3001082D1*
X3003934Y1340506D1*
X3006819Y1343358D1*
X3008245Y1346243D1*
X3018968Y1361995D2*
Y1363421D1*
X3020394Y1366306D1*
X3021820Y1367732D1*
X3024705Y1369158D1*
X3030442D1*
X3033294Y1367732D1*
X3034720Y1366306D1*
X3036179Y1363421D1*
Y1360569D1*
X3034720Y1357684D1*
X3031868Y1353406D1*
X3017509Y1339047D1*
X3037605D1*
X3334544Y1203946D2*
X3331692Y1202520D1*
X3328807Y1199635D1*
X3327381Y1196783D1*
Y1191046D1*
X3328807Y1188161D1*
X3331692Y1185309D1*
X3334544Y1183850D1*
X3338855Y1182424D1*
X3346051D1*
X3350329Y1183850D1*
X3353214Y1185309D1*
X3356066Y1188161D1*
X3357525Y1191046D1*
Y1196783D1*
X3356066Y1199635D1*
X3353214Y1202520D1*
X3350329Y1203946D1*
X3327414Y1216095D2*
Y1231847D1*
X3338888Y1223258D1*
Y1227569D1*
X3340314Y1230421D1*
X3341740Y1231846D1*
X3346051Y1233306D1*
X3348903D1*
X3353214Y1231846D1*
X3356099Y1228995D1*
X3357525Y1224684D1*
Y1220373D1*
X3356099Y1216095D1*
X3354640Y1214669D1*
X3351788Y1213210D1*
X3007532Y1443279D2*
X3006106Y1446131D1*
X3003221Y1449016D1*
X3000369Y1450442D1*
X2994632D1*
X2991747Y1449016D1*
X2988895Y1446131D1*
X2987436Y1443279D1*
X2986010Y1438968D1*
Y1431772D1*
X2987436Y1427494D1*
X2988895Y1424609D1*
X2991747Y1421757D1*
X2994632Y1420298D1*
X3000369D1*
X3003221Y1421757D1*
X3006106Y1424609D1*
X3007532Y1427494D1*
X3031155Y1420298D2*
Y1450409D1*
X3016796Y1430346D1*
X3038318D1*
X3517218Y1500392D2*
X3515792Y1503244D1*
X3512907Y1506129D1*
X3510055Y1507555D1*
X3504318D1*
X3501433Y1506129D1*
X3498581Y1503244D1*
X3497122Y1500392D1*
X3495696Y1496081D1*
Y1488885D1*
X3497122Y1484607D1*
X3498581Y1481722D1*
X3501433Y1478870D1*
X3504318Y1477411D1*
X3510055D1*
X3512907Y1478870D1*
X3515792Y1481722D1*
X3517218Y1484607D1*
X3543692Y1507521D2*
X3529366D1*
X3527940Y1494622D1*
X3529366Y1496047D1*
X3533677Y1497507D1*
X3537955D1*
X3542266Y1496047D1*
X3545151Y1493196D1*
X3546577Y1488885D1*
Y1486033D1*
X3545151Y1481722D1*
X3542266Y1478837D1*
X3537955Y1477411D1*
X3533677D1*
X3529366Y1478837D1*
X3527940Y1480296D1*
X3526481Y1483148D1*
X3423778Y1481871D2*
X3422352Y1484723D1*
X3419467Y1487608D1*
X3416615Y1489034D1*
X3410878D1*
X3407993Y1487608D1*
X3405141Y1484723D1*
X3403682Y1481871D1*
X3402256Y1477560D1*
Y1470364D1*
X3403682Y1466086D1*
X3405141Y1463201D1*
X3407993Y1460349D1*
X3410878Y1458890D1*
X3416615D1*
X3419467Y1460349D1*
X3422352Y1463201D1*
X3423778Y1466086D1*
X3450252Y1484723D2*
X3448826Y1487574D1*
X3444515Y1489000D1*
X3441664D1*
X3437353Y1487574D1*
X3434467Y1483263D1*
X3433042Y1476101D1*
Y1468938D1*
X3434467Y1463201D1*
X3437353Y1460316D1*
X3441664Y1458890D1*
X3443090D1*
X3447367Y1460316D1*
X3450252Y1463201D1*
X3451678Y1467512D1*
Y1468938D1*
X3450252Y1473249D1*
X3447367Y1476101D1*
X3443090Y1477526D1*
X3441664D1*
X3437353Y1476101D1*
X3434467Y1473249D1*
X3433042Y1468938D1*
X3247567Y1469322D2*
X3246141Y1472174D1*
X3243256Y1475059D1*
X3240404Y1476485D1*
X3234667D1*
X3231782Y1475059D1*
X3228930Y1472174D1*
X3227471Y1469322D1*
X3226045Y1465011D1*
Y1457815D1*
X3227471Y1453537D1*
X3228930Y1450652D1*
X3231782Y1447800D1*
X3234667Y1446341D1*
X3240404D1*
X3243256Y1447800D1*
X3246141Y1450652D1*
X3247567Y1453537D1*
X3262567Y1446341D2*
X3276926Y1476452D1*
X3256830D1*
X3547244Y1385135D2*
X3544392Y1383709D1*
X3541507Y1380824D1*
X3540081Y1377972D1*
Y1372235D1*
X3541507Y1369350D1*
X3544392Y1366498D1*
X3547244Y1365039D1*
X3551555Y1363613D1*
X3558751D1*
X3563029Y1365039D1*
X3565914Y1366498D1*
X3568766Y1369350D1*
X3570225Y1372235D1*
Y1377972D1*
X3568766Y1380824D1*
X3565914Y1383709D1*
X3563029Y1385135D1*
X3540114Y1401561D2*
X3541540Y1397283D1*
X3544392Y1395824D1*
X3547277D1*
X3550129Y1397283D1*
X3551588Y1400135D1*
X3553014Y1405872D1*
X3554440Y1410183D1*
X3557325Y1413035D1*
X3560177Y1414461D1*
X3564488D1*
X3567340Y1413035D1*
X3568799Y1411609D1*
X3570225Y1407298D1*
Y1401561D1*
X3568799Y1397283D1*
X3567340Y1395824D1*
X3564488Y1394398D1*
X3560177D1*
X3557325Y1395824D1*
X3554440Y1398709D1*
X3553014Y1402987D1*
X3551588Y1408724D1*
X3550129Y1411609D1*
X3547277Y1413035D1*
X3544392D1*
X3541540Y1411609D1*
X3540114Y1407298D1*
Y1401561D1*
X2285710Y2406200D2*
Y2376056D1*
X2295758D1*
X2300069Y2377515D1*
X2302954Y2380367D1*
X2304380Y2383252D1*
X2305806Y2387530D1*
Y2394726D1*
X2304380Y2399037D1*
X2302954Y2401889D1*
X2300069Y2404774D1*
X2295758Y2406200D1*
X2285710D1*
X2315070Y2400430D2*
X2317955Y2401889D1*
X2322266Y2406167D1*
Y2376056D1*
X2069067Y1942097D2*
Y1911953D1*
X2079115D1*
X2083426Y1913412D1*
X2086311Y1916264D1*
X2087737Y1919149D1*
X2089163Y1923427D1*
Y1930623D1*
X2087737Y1934934D1*
X2086311Y1937786D1*
X2083426Y1940671D1*
X2079115Y1942097D1*
X2069067D1*
X2112786Y1911953D2*
Y1942064D1*
X2098427Y1922001D1*
X2119949D1*
X3706709Y2616872D2*
Y2586728D1*
X3716757D1*
X3721068Y2588187D1*
X3723953Y2591039D1*
X3725379Y2593924D1*
X3726805Y2598202D1*
Y2605398D1*
X3725379Y2609709D1*
X3723953Y2612561D1*
X3721068Y2615446D1*
X3716757Y2616872D1*
X3706709D1*
X3753280Y2612561D2*
X3751854Y2615413D1*
X3747543Y2616839D1*
X3744691D1*
X3740380Y2615413D1*
X3737495Y2611102D1*
X3736069Y2603939D1*
Y2596776D1*
X3737495Y2591039D1*
X3740380Y2588154D1*
X3744691Y2586728D1*
X3746117D1*
X3750395Y2588154D1*
X3753280Y2591039D1*
X3754706Y2595350D1*
Y2596776D1*
X3753280Y2601087D1*
X3750395Y2603939D1*
X3746117Y2605365D1*
X3744691D1*
X3740380Y2603939D1*
X3737495Y2601087D1*
X3736069Y2596776D1*
X3040417Y1643450D2*
Y1613306D1*
X3050465D1*
X3054776Y1614765D1*
X3057661Y1617617D1*
X3059087Y1620502D1*
X3060513Y1624780D1*
Y1631976D1*
X3059087Y1636287D1*
X3057661Y1639139D1*
X3054776Y1642024D1*
X3050465Y1643450D1*
X3040417D1*
X3075513Y1613306D2*
X3089872Y1643416D1*
X3069776D1*
X2306959Y2880066D2*
Y2857118D1*
X2305533Y2852807D1*
X2304074Y2851381D1*
X2301222Y2849922D1*
X2298337D1*
X2295485Y2851381D1*
X2294059Y2852807D1*
X2292600Y2857118D1*
Y2859970D1*
X2316222Y2874296D2*
X2319107Y2875755D1*
X2323419Y2880033D1*
Y2849922D1*
X2090716Y2497620D2*
Y2474672D1*
X2089290Y2470361D1*
X2087831Y2468935D1*
X2084979Y2467476D1*
X2082094D1*
X2079242Y2468935D1*
X2077816Y2470361D1*
X2076357Y2474672D1*
Y2477524D1*
X2102865Y2497587D2*
X2118617D1*
X2110028Y2486113D1*
X2114339D1*
X2117191Y2484687D1*
X2118617Y2483261D1*
X2120076Y2478950D1*
Y2476098D1*
X2118617Y2471787D1*
X2115765Y2468902D1*
X2111454Y2467476D1*
X2107143D1*
X2102865Y2468902D1*
X2101439Y2470361D1*
X2099980Y2473213D1*
X2578972Y1639972D2*
X2591905D1*
X2596183Y1641398D1*
X2597642Y1642857D1*
X2599068Y1645709D1*
Y1650020D1*
X2597642Y1652872D1*
X2596183Y1654331D1*
X2591905Y1655757D1*
X2578972D1*
Y1625613D1*
X2609790Y1648561D2*
Y1649987D1*
X2611216Y1652872D1*
X2612642Y1654298D1*
X2615527Y1655724D1*
X2621264D1*
X2624116Y1654298D1*
X2625542Y1652872D1*
X2627001Y1649987D1*
Y1647135D1*
X2625542Y1644250D1*
X2622690Y1639972D1*
X2608331Y1625613D1*
X2628427D1*
X1928028Y2124290D2*
X1940961D1*
X1945239Y2125716D1*
X1946698Y2127175D1*
X1948124Y2130027D1*
Y2134338D1*
X1946698Y2137190D1*
X1945239Y2138649D1*
X1940961Y2140075D1*
X1928028D1*
Y2109931D1*
X1960273Y2140042D2*
X1976025D1*
X1967436Y2128568D1*
X1971747D1*
X1974599Y2127142D1*
X1976025Y2125716D1*
X1977484Y2121405D1*
Y2118553D1*
X1976025Y2114242D1*
X1973173Y2111357D1*
X1968862Y2109931D1*
X1964551D1*
X1960273Y2111357D1*
X1958847Y2112816D1*
X1957388Y2115668D1*
X2517894Y3112803D2*
X2530827D1*
X2535105Y3114229D1*
X2536564Y3115688D1*
X2537990Y3118540D1*
Y3122851D1*
X2536564Y3125703D1*
X2535105Y3127162D1*
X2530827Y3128588D1*
X2517894D1*
Y3098444D1*
X2564465Y3124277D2*
X2563039Y3127129D1*
X2558728Y3128555D1*
X2555876D1*
X2551565Y3127129D1*
X2548680Y3122818D1*
X2547254Y3115655D1*
Y3108492D1*
X2548680Y3102755D1*
X2551565Y3099870D1*
X2555876Y3098444D1*
X2557302D1*
X2561580Y3099870D1*
X2564465Y3102755D1*
X2565891Y3107066D1*
Y3108492D1*
X2564465Y3112803D1*
X2561580Y3115655D1*
X2557302Y3117081D1*
X2555876D1*
X2551565Y3115655D1*
X2548680Y3112803D1*
X2547254Y3108492D1*
X2678969Y3018266D2*
X2691902D1*
X2696180Y3019692D1*
X2697639Y3021151D1*
X2699065Y3024003D1*
Y3028314D1*
X2697639Y3031166D1*
X2696180Y3032625D1*
X2691902Y3034051D1*
X2678969D1*
Y3003907D1*
X2714066D2*
X2728425Y3034018D1*
X2708329D1*
X2633820Y3081133D2*
Y3050989D1*
X2653916Y3081133D2*
Y3050989D1*
X2633820Y3066774D2*
X2653916D1*
X2663180Y3062462D2*
X2680391D1*
Y3065348D1*
X2678965Y3068233D1*
X2677539Y3069659D1*
X2674654Y3071085D1*
X2670343D1*
X2667491Y3069659D1*
X2664606Y3066774D1*
X2663180Y3062462D1*
Y3059611D1*
X2664606Y3055300D1*
X2667491Y3052448D1*
X2670343Y3050989D1*
X2674654D1*
X2677539Y3052448D1*
X2680391Y3055300D1*
X2706865Y3071085D2*
Y3050989D1*
Y3066774D2*
X2704013Y3069659D1*
X2701128Y3071085D1*
X2696850D1*
X2693965Y3069659D1*
X2691113Y3066774D1*
X2689654Y3062462D1*
Y3059611D1*
X2691113Y3055300D1*
X2693965Y3052448D1*
X2696850Y3050989D1*
X2701128D1*
X2704013Y3052448D1*
X2706865Y3055300D1*
X2720440Y3081133D2*
Y3056726D1*
X2721866Y3052448D1*
X2724751Y3050989D1*
X2727603D1*
X2716129Y3071085D2*
X2726177D1*
X2755536Y3081133D2*
X2736866D1*
Y3050989D1*
Y3066774D2*
X2748340D1*
X2782011Y3071085D2*
Y3050989D1*
Y3066774D2*
X2779159Y3069659D1*
X2776274Y3071085D1*
X2771996D1*
X2769111Y3069659D1*
X2766259Y3066774D1*
X2764800Y3062462D1*
Y3059611D1*
X2766259Y3055300D1*
X2769111Y3052448D1*
X2771996Y3050989D1*
X2776274D1*
X2779159Y3052448D1*
X2782011Y3055300D1*
X2791274Y3071085D2*
Y3050989D1*
Y3065348D2*
X2795585Y3069659D1*
X2798470Y3071085D1*
X2802748D1*
X2805633Y3069659D1*
X2807059Y3065348D1*
Y3050989D1*
X3090007Y4210545D2*
X3102940D1*
X3107218Y4211971D1*
X3108677Y4213430D1*
X3110103Y4216282D1*
Y4220593D1*
X3108677Y4223445D1*
X3107218Y4224904D1*
X3102940Y4226330D1*
X3090007D1*
Y4196186D1*
X3126529Y4226297D2*
X3122251Y4224871D1*
X3120792Y4222019D1*
Y4219134D1*
X3122251Y4216282D1*
X3125103Y4214823D1*
X3130840Y4213397D1*
X3135151Y4211971D1*
X3138003Y4209086D1*
X3139429Y4206234D1*
Y4201923D1*
X3138003Y4199071D1*
X3136577Y4197612D1*
X3132266Y4196186D1*
X3126529D1*
X3122251Y4197612D1*
X3120792Y4199071D1*
X3119366Y4201923D1*
Y4206234D1*
X3120792Y4209086D1*
X3123677Y4211971D1*
X3127955Y4213397D1*
X3133692Y4214823D1*
X3136577Y4216282D1*
X3138003Y4219134D1*
Y4222019D1*
X3136577Y4224871D1*
X3132266Y4226297D1*
X3126529D1*
X2874971Y4209217D2*
X2887904D1*
X2892182Y4210643D1*
X2893641Y4212102D1*
X2895067Y4214954D1*
Y4219265D1*
X2893641Y4222117D1*
X2892182Y4223576D1*
X2887904Y4225002D1*
X2874971D1*
Y4194858D1*
X2921542Y4214954D2*
Y4194858D1*
Y4210643D2*
X2918690Y4213528D1*
X2915805Y4214954D1*
X2911527D1*
X2908642Y4213528D1*
X2905790Y4210643D1*
X2904331Y4206332D1*
Y4203480D1*
X2905790Y4199169D1*
X2908642Y4196317D1*
X2911527Y4194858D1*
X2915805D1*
X2918690Y4196317D1*
X2921542Y4199169D1*
X2930805Y4214954D2*
Y4194858D1*
Y4206332D2*
X2932264Y4210643D1*
X2935116Y4213528D1*
X2938001Y4214954D1*
X2942312D1*
X2955887Y4225002D2*
Y4200595D1*
X2957313Y4196317D1*
X2960198Y4194858D1*
X2963050D1*
X2951576Y4214954D2*
X2961624D1*
X2990983Y4225002D2*
X2972313D1*
Y4194858D1*
Y4210643D2*
X2983787D1*
X3017458Y4214954D2*
Y4194858D1*
Y4210643D2*
X3014606Y4213528D1*
X3011721Y4214954D1*
X3007443D1*
X3004558Y4213528D1*
X3001706Y4210643D1*
X3000247Y4206332D1*
Y4203480D1*
X3001706Y4199169D1*
X3004558Y4196317D1*
X3007443Y4194858D1*
X3011721D1*
X3014606Y4196317D1*
X3017458Y4199169D1*
X3026721Y4214954D2*
Y4194858D1*
Y4209217D2*
X3031032Y4213528D1*
X3033917Y4214954D1*
X3038195D1*
X3041080Y4213528D1*
X3042506Y4209217D1*
Y4194858D1*
X3051770Y4219232D2*
X3054655Y4220691D1*
X3058966Y4224969D1*
Y4194858D1*
X1279118Y1219207D2*
X1292051D1*
X1296329Y1220633D1*
X1297788Y1222092D1*
X1299214Y1224944D1*
Y1229255D1*
X1297788Y1232107D1*
X1296329Y1233566D1*
X1292051Y1234992D1*
X1279118D1*
Y1204848D1*
X1327147Y1224944D2*
X1325688Y1220633D1*
X1322836Y1217748D1*
X1318525Y1216322D1*
X1317099D1*
X1312788Y1217748D1*
X1309936Y1220633D1*
X1308477Y1224944D1*
Y1226370D1*
X1309936Y1230681D1*
X1312788Y1233533D1*
X1317099Y1234959D1*
X1318525D1*
X1322836Y1233533D1*
X1325688Y1230681D1*
X1327147Y1224944D1*
Y1217748D1*
X1325688Y1210585D1*
X1322836Y1206274D1*
X1318525Y1204848D1*
X1315673D1*
X1311362Y1206274D1*
X1309936Y1209159D1*
X1234135Y1271414D2*
X1247068D1*
X1251346Y1272840D1*
X1252805Y1274300D1*
X1254231Y1277151D1*
Y1281462D1*
X1252805Y1284314D1*
X1251346Y1285774D1*
X1247068Y1287199D1*
X1234135D1*
Y1257055D1*
X1280706Y1277151D2*
Y1257055D1*
Y1272840D2*
X1277854Y1275726D1*
X1274969Y1277151D1*
X1270691D1*
X1267806Y1275726D1*
X1264954Y1272840D1*
X1263495Y1268529D1*
Y1265678D1*
X1264954Y1261366D1*
X1267806Y1258515D1*
X1270691Y1257055D1*
X1274969D1*
X1277854Y1258515D1*
X1280706Y1261366D1*
X1289969Y1277151D2*
Y1257055D1*
Y1268529D2*
X1291428Y1272840D1*
X1294280Y1275726D1*
X1297165Y1277151D1*
X1301476D1*
X1315051Y1287199D2*
Y1262792D1*
X1316477Y1258515D1*
X1319362Y1257055D1*
X1322214D1*
X1310740Y1277151D2*
X1320788D1*
X1350147Y1287199D2*
X1331477D1*
Y1257055D1*
Y1272840D2*
X1342951D1*
X1376622Y1277151D2*
Y1257055D1*
Y1272840D2*
X1373770Y1275726D1*
X1370885Y1277151D1*
X1366607D1*
X1363722Y1275726D1*
X1360870Y1272840D1*
X1359411Y1268529D1*
Y1265678D1*
X1360870Y1261366D1*
X1363722Y1258515D1*
X1366607Y1257055D1*
X1370885D1*
X1373770Y1258515D1*
X1376622Y1261366D1*
X1385885Y1277151D2*
Y1257055D1*
Y1271414D2*
X1390196Y1275726D1*
X1393081Y1277151D1*
X1397359D1*
X1400244Y1275726D1*
X1401670Y1271414D1*
Y1257055D1*
X1410934Y1281429D2*
X1413819Y1282888D1*
X1418130Y1287166D1*
Y1257055D1*
X4692941Y1193671D2*
X4705874D1*
X4710152Y1195096D1*
X4711611Y1196556D1*
X4713037Y1199407D1*
Y1203719D1*
X4711611Y1206570D1*
X4710152Y1208030D1*
X4705874Y1209455D1*
X4692941D1*
Y1179311D1*
X4722301Y1203685D2*
X4725186Y1205144D1*
X4729497Y1209422D1*
Y1179311D1*
X4747383Y1209422D2*
X4743072Y1207996D1*
X4740186Y1203685D1*
X4738761Y1196522D1*
Y1192211D1*
X4740186Y1185048D1*
X4743072Y1180737D1*
X4747383Y1179311D1*
X4750234D1*
X4754546Y1180737D1*
X4757397Y1185048D1*
X4758857Y1192211D1*
Y1196522D1*
X4757397Y1203685D1*
X4754546Y1207996D1*
X4750234Y1209422D1*
X4747383D1*
X4757397Y1203685D2*
X4740186Y1185048D1*
X4572151Y1245878D2*
X4585084D1*
X4589362Y1247304D1*
X4590821Y1248763D1*
X4592247Y1251615D1*
Y1255926D1*
X4590821Y1258778D1*
X4589362Y1260237D1*
X4585084Y1261663D1*
X4572151D1*
Y1231519D1*
X4618721Y1251615D2*
Y1231519D1*
Y1247304D2*
X4615869Y1250189D1*
X4612984Y1251615D1*
X4608706D1*
X4605821Y1250189D1*
X4602970Y1247304D1*
X4601510Y1242993D1*
Y1240141D1*
X4602970Y1235830D1*
X4605821Y1232978D1*
X4608706Y1231519D1*
X4612984D1*
X4615869Y1232978D1*
X4618721Y1235830D1*
X4627985Y1251615D2*
Y1231519D1*
Y1242993D2*
X4629444Y1247304D1*
X4632296Y1250189D1*
X4635181Y1251615D1*
X4639492D1*
X4653067Y1261663D2*
Y1237256D1*
X4654493Y1232978D1*
X4657378Y1231519D1*
X4660229D1*
X4648756Y1251615D2*
X4658804D1*
X4688163Y1261663D2*
X4669493D1*
Y1231519D1*
Y1247304D2*
X4680967D1*
X4714638Y1251615D2*
Y1231519D1*
Y1247304D2*
X4711786Y1250189D1*
X4708901Y1251615D1*
X4704623D1*
X4701738Y1250189D1*
X4698886Y1247304D1*
X4697427Y1242993D1*
Y1240141D1*
X4698886Y1235830D1*
X4701738Y1232978D1*
X4704623Y1231519D1*
X4708901D1*
X4711786Y1232978D1*
X4714638Y1235830D1*
X4723901Y1251615D2*
Y1231519D1*
Y1245878D2*
X4728212Y1250189D1*
X4731097Y1251615D1*
X4735375D1*
X4738260Y1250189D1*
X4739686Y1245878D1*
Y1231519D1*
X4748950Y1255893D2*
X4751835Y1257352D1*
X4756146Y1261630D1*
Y1231519D1*
X3652779Y1549421D2*
X3665679D1*
X3669990Y1550880D1*
X3671449Y1552306D1*
X3672875Y1555158D1*
Y1558043D1*
X3671449Y1560895D1*
X3669990Y1562354D1*
X3665679Y1563780D1*
X3652779D1*
Y1533636D1*
X3662827Y1549421D2*
X3672875Y1533636D1*
X3682138Y1558010D2*
X3685023Y1559469D1*
X3689334Y1563747D1*
Y1533636D1*
X2992439Y1184794D2*
X3005339D1*
X3009650Y1186253D1*
X3011109Y1187679D1*
X3012535Y1190531D1*
Y1193416D1*
X3011109Y1196268D1*
X3009650Y1197727D1*
X3005339Y1199153D1*
X2992439D1*
Y1169009D1*
X3002487Y1184794D2*
X3012535Y1169009D1*
X3024684Y1199120D2*
X3040435D1*
X3031846Y1187646D1*
X3036157D1*
X3039009Y1186220D1*
X3040435Y1184794D1*
X3041894Y1180483D1*
Y1177631D1*
X3040435Y1173320D1*
X3037583Y1170435D1*
X3033272Y1169009D1*
X3028961D1*
X3024684Y1170435D1*
X3023258Y1171894D1*
X3021798Y1174746D1*
X2266301Y2025670D2*
X2279201D1*
X2283512Y2027129D1*
X2284971Y2028555D1*
X2286397Y2031407D1*
Y2034292D1*
X2284971Y2037144D1*
X2283512Y2038603D1*
X2279201Y2040029D1*
X2266301D1*
Y2009885D1*
X2276349Y2025670D2*
X2286397Y2009885D1*
X2312871Y2035718D2*
X2311446Y2038570D1*
X2307134Y2039996D1*
X2304283D1*
X2299972Y2038570D1*
X2297086Y2034259D1*
X2295661Y2027096D1*
Y2019933D1*
X2297086Y2014196D1*
X2299972Y2011311D1*
X2304283Y2009885D1*
X2305709D1*
X2309986Y2011311D1*
X2312871Y2014196D1*
X2314297Y2018507D1*
Y2019933D1*
X2312871Y2024244D1*
X2309986Y2027096D1*
X2305709Y2028522D1*
X2304283D1*
X2299972Y2027096D1*
X2297086Y2024244D1*
X2295661Y2019933D1*
X2414192Y1293792D2*
Y1306692D1*
X2412733Y1311003D1*
X2411307Y1312462D1*
X2408455Y1313888D1*
X2405570D1*
X2402718Y1312462D1*
X2401259Y1311003D1*
X2399833Y1306692D1*
Y1293792D1*
X2429977D1*
X2414192Y1303840D2*
X2429977Y1313888D1*
Y1328888D2*
X2399866Y1343248D1*
Y1323152D1*
X3648039Y3049415D2*
X3660939D1*
X3665250Y3050874D1*
X3666710Y3052300D1*
X3668135Y3055152D1*
Y3058037D1*
X3666710Y3060889D1*
X3665250Y3062348D1*
X3660939Y3063774D1*
X3648039D1*
Y3033630D1*
X3658087Y3049415D2*
X3668135Y3033630D1*
X3684562Y3063741D2*
X3680284Y3062315D1*
X3678825Y3059463D1*
Y3056578D1*
X3680284Y3053726D1*
X3683136Y3052267D1*
X3688873Y3050841D1*
X3693184Y3049415D1*
X3696036Y3046530D1*
X3697462Y3043678D1*
Y3039367D1*
X3696036Y3036515D1*
X3694610Y3035056D1*
X3690299Y3033630D1*
X3684562D1*
X3680284Y3035056D1*
X3678825Y3036515D1*
X3677399Y3039367D1*
Y3043678D1*
X3678825Y3046530D1*
X3681710Y3049415D1*
X3685988Y3050841D1*
X3691725Y3052267D1*
X3694610Y3053726D1*
X3696036Y3056578D1*
Y3059463D1*
X3694610Y3062315D1*
X3690299Y3063741D1*
X3684562D1*
X3702935Y2957300D2*
X3715835D1*
X3720146Y2958759D1*
X3721605Y2960185D1*
X3723031Y2963037D1*
Y2965922D1*
X3721605Y2968774D1*
X3720146Y2970233D1*
X3715835Y2971659D1*
X3702935D1*
Y2941515D1*
X3712983Y2957300D2*
X3723031Y2941515D1*
X3750965Y2961611D2*
X3749506Y2957300D1*
X3746654Y2954415D1*
X3742343Y2952989D1*
X3740917D1*
X3736606Y2954415D1*
X3733754Y2957300D1*
X3732295Y2961611D1*
Y2963037D1*
X3733754Y2967348D1*
X3736606Y2970200D1*
X3740917Y2971626D1*
X3742343D1*
X3746654Y2970200D1*
X3749506Y2967348D1*
X3750965Y2961611D1*
Y2954415D1*
X3749506Y2947252D1*
X3746654Y2942941D1*
X3742343Y2941515D1*
X3739491D1*
X3735180Y2942941D1*
X3733754Y2945826D1*
X3712477Y1382499D2*
X3725377D1*
X3729688Y1383958D1*
X3731147Y1385384D1*
X3732573Y1388236D1*
Y1391121D1*
X3731147Y1393973D1*
X3729688Y1395432D1*
X3725377Y1396858D1*
X3712477D1*
Y1366714D1*
X3722525Y1382499D2*
X3732573Y1366714D1*
X3741836Y1391088D2*
X3744721Y1392547D1*
X3749032Y1396825D1*
Y1366714D1*
X3758296Y1391088D2*
X3761181Y1392547D1*
X3765492Y1396825D1*
Y1366714D1*
X3305087Y1475419D2*
X3317987D1*
X3322298Y1476878D1*
X3323757Y1478304D1*
X3325183Y1481156D1*
Y1484041D1*
X3323757Y1486893D1*
X3322298Y1488352D1*
X3317987Y1489778D1*
X3305087D1*
Y1459634D1*
X3315135Y1475419D2*
X3325183Y1459634D1*
X3334447Y1484008D2*
X3337332Y1485467D1*
X3341643Y1489745D1*
Y1459634D1*
X3353791Y1489745D2*
X3369543D1*
X3360954Y1478271D1*
X3365265D1*
X3368117Y1476845D1*
X3369543Y1475419D1*
X3371002Y1471108D1*
Y1468256D1*
X3369543Y1463945D1*
X3366691Y1461060D1*
X3362380Y1459634D1*
X3358069D1*
X3353791Y1461060D1*
X3352365Y1462519D1*
X3350906Y1465371D1*
X2828493Y1498581D2*
X2841393D1*
X2845704Y1500040D1*
X2847164Y1501466D1*
X2848589Y1504318D1*
Y1507203D1*
X2847164Y1510055D1*
X2845704Y1511514D1*
X2841393Y1512940D1*
X2828493D1*
Y1482796D1*
X2838541Y1498581D2*
X2848589Y1482796D1*
X2857853Y1507170D2*
X2860738Y1508629D1*
X2865049Y1512907D1*
Y1482796D1*
X2888672D2*
Y1512907D1*
X2874313Y1492844D1*
X2895835D1*
X2804313Y1606356D2*
X2801461Y1609241D1*
X2797150Y1610667D1*
X2791413D1*
X2787102Y1609241D1*
X2784217Y1606356D1*
Y1603505D1*
X2785676Y1600619D1*
X2787102Y1599193D1*
X2789954Y1597768D1*
X2798576Y1594882D1*
X2801461Y1593457D1*
X2802887Y1591997D1*
X2804313Y1589145D1*
Y1584834D1*
X2801461Y1581983D1*
X2797150Y1580523D1*
X2791413D1*
X2787102Y1581983D1*
X2784217Y1584834D1*
X2823624Y1610667D2*
Y1580523D1*
X2813576Y1610667D2*
X2833672D1*
X2842936Y1596308D2*
X2855836D1*
X2860147Y1597768D1*
X2861606Y1599193D1*
X2863032Y1602045D1*
Y1604930D1*
X2861606Y1607782D1*
X2860147Y1609241D1*
X2855836Y1610667D1*
X2842936D1*
Y1580523D1*
X2852984Y1596308D2*
X2863032Y1580523D1*
X2893817Y1603505D2*
X2892391Y1606356D1*
X2889506Y1609241D1*
X2886654Y1610667D1*
X2880917D1*
X2878032Y1609241D1*
X2875180Y1606356D1*
X2873721Y1603505D1*
X2872295Y1599193D1*
Y1591997D1*
X2873721Y1587720D1*
X2875180Y1584834D1*
X2878032Y1581983D1*
X2880917Y1580523D1*
X2886654D1*
X2889506Y1581983D1*
X2892391Y1584834D1*
X2893817Y1587720D1*
Y1591997D1*
X2886654D1*
X2903081Y1604897D2*
X2905966Y1606356D1*
X2910277Y1610634D1*
Y1580523D1*
X3304851Y1641380D2*
X3301999Y1644265D1*
X3297688Y1645691D1*
X3291951D1*
X3287640Y1644265D1*
X3284755Y1641380D1*
Y1638528D1*
X3286214Y1635643D1*
X3287640Y1634217D1*
X3290492Y1632791D1*
X3299114Y1629906D1*
X3301999Y1628480D1*
X3303425Y1627021D1*
X3304851Y1624169D1*
Y1619858D1*
X3301999Y1617006D1*
X3297688Y1615547D1*
X3291951D1*
X3287640Y1617006D1*
X3284755Y1619858D1*
X3324162Y1645691D2*
Y1615547D1*
X3314114Y1645691D2*
X3334210D1*
X3343474Y1631332D2*
X3356374D1*
X3360685Y1632791D1*
X3362144Y1634217D1*
X3363570Y1637069D1*
Y1639954D1*
X3362144Y1642806D1*
X3360685Y1644265D1*
X3356374Y1645691D1*
X3343474D1*
Y1615547D1*
X3353522Y1631332D2*
X3363570Y1615547D1*
X3394355Y1638528D2*
X3392929Y1641380D1*
X3390044Y1644265D1*
X3387193Y1645691D1*
X3381456D1*
X3378570Y1644265D1*
X3375719Y1641380D1*
X3374259Y1638528D1*
X3372833Y1634217D1*
Y1627021D1*
X3374259Y1622743D1*
X3375719Y1619858D1*
X3378570Y1617006D1*
X3381456Y1615547D1*
X3387193D1*
X3390044Y1617006D1*
X3392929Y1619858D1*
X3394355Y1622743D1*
Y1627021D1*
X3387193D1*
X3405078Y1638495D2*
Y1639921D1*
X3406504Y1642806D1*
X3407930Y1644232D1*
X3410815Y1645658D1*
X3416552D1*
X3419404Y1644232D1*
X3420830Y1642806D1*
X3422289Y1639921D1*
Y1637069D1*
X3420830Y1634184D1*
X3417978Y1629906D1*
X3403619Y1615547D1*
X3423715D1*
X3180086Y1205296D2*
Y1183774D1*
X3181512Y1179463D1*
X3184397Y1176611D1*
X3188708Y1175152D1*
X3191560D1*
X3195871Y1176611D1*
X3198756Y1179463D1*
X3200182Y1183774D1*
Y1205296D1*
X3209445Y1199526D2*
X3212330Y1200985D1*
X3216641Y1205263D1*
Y1175152D1*
X3441406Y1226604D2*
Y1205082D1*
X3442832Y1200771D1*
X3445717Y1197920D1*
X3450028Y1196460D1*
X3452880D1*
X3457191Y1197920D1*
X3460076Y1200771D1*
X3461502Y1205082D1*
Y1226604D1*
X3473651Y1226571D2*
X3489403D1*
X3480814Y1215097D1*
X3485125D1*
X3487977Y1213671D1*
X3489403Y1212245D1*
X3490862Y1207934D1*
Y1205082D1*
X3489403Y1200771D1*
X3486551Y1197886D1*
X3482240Y1196460D1*
X3477929D1*
X3473651Y1197886D1*
X3472225Y1199346D1*
X3470766Y1202197D1*
X2249948Y1539211D2*
X2248523Y1542062D1*
X2245637Y1544948D1*
X2242786Y1546373D1*
X2237049D1*
X2234164Y1544948D1*
X2231312Y1542062D1*
X2229852Y1539211D1*
X2228427Y1534900D1*
Y1527703D1*
X2229852Y1523426D1*
X2231312Y1520540D1*
X2234164Y1517689D1*
X2237049Y1516229D1*
X2242786D1*
X2245637Y1517689D1*
X2248523Y1520540D1*
X2249948Y1523426D1*
X2259212Y1540603D2*
X2262097Y1542062D1*
X2266408Y1546340D1*
Y1516229D1*
X2360222Y1663803D2*
Y1633659D1*
X2370270D1*
X2374581Y1635118D1*
X2377466Y1637970D1*
X2378892Y1640855D1*
X2380318Y1645133D1*
Y1652329D1*
X2378892Y1656640D1*
X2377466Y1659492D1*
X2374581Y1662377D1*
X2370270Y1663803D1*
X2360222D1*
X2392467Y1663769D2*
X2408219D1*
X2399630Y1652295D1*
X2403941D1*
X2406793Y1650870D1*
X2408219Y1649444D1*
X2409678Y1645133D1*
Y1642281D1*
X2408219Y1637970D1*
X2405367Y1635085D1*
X2401056Y1633659D1*
X2396745D1*
X2392467Y1635085D1*
X2391041Y1636544D1*
X2389582Y1639396D1*
X2221819Y1374241D2*
X2234719D1*
X2239030Y1375701D1*
X2240490Y1377127D1*
X2241915Y1379978D1*
Y1382864D1*
X2240490Y1385715D1*
X2239030Y1387175D1*
X2234719Y1388601D1*
X2221819D1*
Y1358457D1*
X2231867Y1374241D2*
X2241915Y1358457D1*
X2252638Y1381404D2*
Y1382830D1*
X2254064Y1385715D1*
X2255490Y1387141D1*
X2258375Y1388567D1*
X2264112D1*
X2266964Y1387141D1*
X2268390Y1385715D1*
X2269849Y1382830D1*
Y1379978D1*
X2268390Y1377093D1*
X2265538Y1372816D1*
X2251179Y1358457D1*
X2271275D1*
X2700961Y1170305D2*
Y1148783D1*
X2702387Y1144472D1*
X2705272Y1141620D1*
X2709583Y1140161D1*
X2712435D1*
X2716746Y1141620D1*
X2719631Y1144472D1*
X2721057Y1148783D1*
Y1170305D1*
X2731780Y1163109D2*
Y1164535D1*
X2733206Y1167420D1*
X2734632Y1168846D1*
X2737517Y1170272D1*
X2743254D1*
X2746106Y1168846D1*
X2747532Y1167420D1*
X2748991Y1164535D1*
Y1161683D1*
X2747532Y1158798D1*
X2744680Y1154520D1*
X2730321Y1140161D1*
X2750417D1*
X3981035Y2117549D2*
Y2087405D1*
X3998246D1*
X4007509Y2111779D2*
X4010394Y2113238D1*
X4014705Y2117516D1*
Y2087405D1*
X4030091Y2310821D2*
X4042991D1*
X4047302Y2312280D1*
X4048761Y2313706D1*
X4050187Y2316558D1*
Y2319443D1*
X4048761Y2322295D1*
X4047302Y2323754D1*
X4042991Y2325180D1*
X4030091D1*
Y2295036D1*
X4040139Y2310821D2*
X4050187Y2295036D1*
X4073809D2*
Y2325147D1*
X4059450Y2305084D1*
X4080972D1*
X3960804Y2436116D2*
X3973704D1*
X3978015Y2437575D1*
X3979474Y2439001D1*
X3980900Y2441853D1*
Y2444738D1*
X3979474Y2447590D1*
X3978015Y2449049D1*
X3973704Y2450475D1*
X3960804D1*
Y2420331D1*
X3970852Y2436116D2*
X3980900Y2420331D1*
X4007374Y2450442D2*
X3993048D1*
X3991622Y2437542D1*
X3993048Y2438968D1*
X3997359Y2440427D1*
X4001637D1*
X4005948Y2438968D1*
X4008833Y2436116D1*
X4010259Y2431805D1*
Y2428953D1*
X4008833Y2424642D1*
X4005948Y2421757D1*
X4001637Y2420331D1*
X3997359D1*
X3993048Y2421757D1*
X3991622Y2423216D1*
X3990163Y2426068D1*
X2901972Y2496273D2*
D91*
X2942164D1*
X2942165Y2513517D1*
X2940219Y2519265D1*
X2938318Y2521166D1*
X2934515Y2523068D1*
X2928767D1*
X2924920Y2521166D1*
X2923019Y2519265D1*
X2921118Y2513517D1*
X2919172Y2519265D1*
X2917271Y2521166D1*
X2913469Y2523068D1*
X2909622D1*
X2905819Y2521166D1*
X2903874Y2519265D1*
X2901973Y2513517D1*
X2901972Y2496273D1*
X2921118D2*
Y2513517D1*
X2915370Y2558367D2*
X2942165D1*
X2921118D2*
X2917271Y2554564D1*
X2915370Y2550718D1*
Y2545014D1*
X2917271Y2541167D1*
X2921118Y2537365D1*
X2926866Y2535419D1*
X2930668D1*
X2936416Y2537364D1*
X2940219Y2541167D1*
X2942165Y2545014D1*
Y2550718D1*
X2940219Y2554564D1*
X2936416Y2558367D1*
X2921118Y2591765D2*
X2917271Y2589864D1*
X2915370Y2584116D1*
Y2578368D1*
X2917271Y2572620D1*
X2921118Y2570718D1*
X2924920Y2572620D1*
X2926866Y2576466D1*
X2928767Y2586017D1*
X2930668Y2589864D1*
X2934515Y2591765D1*
X2936416D1*
X2940219Y2589864D1*
X2942164Y2584116D1*
Y2578368D1*
X2940219Y2572620D1*
X2936416Y2570718D1*
X2926866Y2604116D2*
Y2627064D1*
X2923019D1*
X2919172Y2625163D1*
X2917271Y2623262D1*
X2915370Y2619415D1*
Y2613667D1*
X2917271Y2609864D1*
X2921118Y2606018D1*
X2926866Y2604116D1*
X2930668D1*
X2936416Y2606018D1*
X2940219Y2609864D1*
X2942164Y2613667D1*
Y2619415D1*
X2940219Y2623262D1*
X2936416Y2627064D1*
X2901973Y2662364D2*
X2942164D1*
X2921118D2*
X2917271Y2658561D1*
X2915370Y2654714D1*
Y2648966D1*
X2917271Y2645164D1*
X2921118Y2641317D1*
X2926866Y2639416D1*
X2930668D1*
X2936416Y2641317D1*
X2940219Y2645164D1*
X2942164Y2648966D1*
Y2654714D1*
X2940219Y2658561D1*
X2936416Y2662364D1*
X2915370Y2723146D2*
X2917271Y2719344D1*
X2921118Y2715497D1*
X2926866Y2713596D1*
X2930668D1*
X2936416Y2715497D1*
X2940219Y2719344D1*
X2942164Y2723146D1*
Y2728894D1*
X2940219Y2732741D1*
X2936416Y2736544D1*
X2930668Y2738489D1*
X2926866D1*
X2921118Y2736544D1*
X2917271Y2732741D1*
X2915370Y2728894D1*
Y2723146D1*
Y2750840D2*
X2942164D1*
X2923019D2*
X2917271Y2756589D1*
X2915370Y2760435D1*
Y2766139D1*
X2917271Y2769986D1*
X2923019Y2771887D1*
X2942164D1*
X2901972Y2828867D2*
X2934515D1*
X2940219Y2830769D1*
X2942164Y2834615D1*
Y2838418D1*
X2915370Y2823119D2*
Y2836517D1*
X2901972Y2850769D2*
X2942164D1*
X2923019D2*
X2917271Y2856517D1*
X2915370Y2860364D1*
Y2866112D1*
X2917271Y2869915D1*
X2923019Y2871816D1*
X2942164D1*
X2926866Y2884167D2*
Y2907115D1*
X2923019D1*
X2919172Y2905214D1*
X2917271Y2903313D1*
X2915370Y2899466D1*
Y2893718D1*
X2917271Y2889915D1*
X2921118Y2886069D1*
X2926866Y2884167D1*
X2930668D1*
X2936416Y2886069D1*
X2940219Y2889915D1*
X2942164Y2893718D1*
Y2899466D1*
X2940219Y2903313D1*
X2936416Y2907115D1*
X2907721Y2985142D2*
X2903874Y2981340D1*
X2901972Y2975592D1*
Y2967942D1*
X2903874Y2962194D1*
X2907721Y2958347D1*
X2911523D1*
X2915370Y2960293D1*
X2917271Y2962194D1*
X2919172Y2965997D1*
X2923019Y2977493D1*
X2924920Y2981340D1*
X2926866Y2983241D1*
X2930668Y2985142D1*
X2936416D1*
X2940219Y2981340D1*
X2942164Y2975592D1*
Y2967942D1*
X2940219Y2962194D1*
X2936416Y2958347D1*
X2915370Y2997493D2*
X2942164D1*
X2923019D2*
X2917271Y3003242D1*
X2915370Y3007088D1*
Y3012792D1*
X2917271Y3016639D1*
X2923019Y3018540D1*
X2942164D1*
X2923019D2*
X2917271Y3024288D1*
X2915370Y3028135D1*
Y3033839D1*
X2917271Y3037685D1*
X2923019Y3039631D1*
X2942164D1*
X2915370Y3074930D2*
X2942164D1*
X2921118D2*
X2917271Y3071128D1*
X2915370Y3067281D1*
Y3061577D1*
X2917271Y3057730D1*
X2921118Y3053928D1*
X2926866Y3051982D1*
X2930668D1*
X2936416Y3053928D1*
X2940219Y3057730D1*
X2942164Y3061577D1*
Y3067281D1*
X2940219Y3071128D1*
X2936416Y3074930D1*
X2915370Y3087282D2*
X2942164D1*
X2926866D2*
X2921118Y3089227D1*
X2917271Y3093030D1*
X2915370Y3096876D1*
Y3102625D1*
X2901972Y3120724D2*
X2934515D1*
X2940219Y3122625D1*
X2942164Y3126472D1*
Y3130275D1*
X2915370Y3114976D2*
Y3128373D1*
X2901972Y3167475D2*
Y3142626D1*
X2942164D1*
Y3167475D1*
X2921118Y3142626D2*
Y3157925D1*
X2901972Y3195125D2*
Y3191323D1*
X2903874Y3187476D1*
X2909622Y3185575D1*
X2942164D1*
X2915370Y3179826D2*
Y3193224D1*
X2901972Y3222775D2*
Y3218973D1*
X2903874Y3215126D1*
X2909622Y3213225D1*
X2942164D1*
X2915370Y3207476D2*
Y3220874D1*
X2926866Y3235126D2*
Y3258074D1*
X2923019D1*
X2919172Y3256173D1*
X2917271Y3254272D1*
X2915370Y3250425D1*
Y3244677D1*
X2917271Y3240875D1*
X2921118Y3237028D1*
X2926866Y3235126D1*
X2930668D1*
X2936416Y3237028D1*
X2940219Y3240875D1*
X2942164Y3244677D1*
Y3250425D1*
X2940219Y3254272D1*
X2936416Y3258074D1*
X2921118Y3293418D2*
X2917271Y3289571D1*
X2915370Y3285724D1*
Y3280021D1*
X2917271Y3276174D1*
X2921118Y3272371D1*
X2926866Y3270426D1*
X2930668D1*
X2936416Y3272371D1*
X2940219Y3276174D1*
X2942164Y3280021D1*
Y3285724D1*
X2940219Y3289571D1*
X2936416Y3293418D1*
X2901972Y3311517D2*
X2934515D1*
X2940219Y3313419D1*
X2942164Y3317265D1*
Y3321068D1*
X2915370Y3305769D2*
Y3319167D1*
Y3342970D2*
X2917271Y3339167D1*
X2921118Y3335321D1*
X2926866Y3333419D1*
X2930668D1*
X2936416Y3335321D1*
X2940219Y3339167D1*
X2942164Y3342970D1*
Y3348718D1*
X2940219Y3352565D1*
X2936416Y3356367D1*
X2930668Y3358313D1*
X2926866D1*
X2921118Y3356367D1*
X2917271Y3352565D1*
X2915370Y3348718D1*
Y3342970D1*
Y3370664D2*
X2942164D1*
X2926866D2*
X2921118Y3372610D1*
X2917271Y3376412D1*
X2915370Y3380259D1*
Y3386007D1*
X2901972Y3437239D2*
X2942164Y3452538D1*
X2901972Y3467836D1*
X2909666Y3480188D2*
X2907721Y3484034D1*
X2902017Y3489783D1*
X2942164D1*
X2938318Y3504035D2*
X2940263Y3502134D1*
X2942164Y3504035D1*
X2940263Y3505981D1*
X2938318Y3504035D1*
X2902017Y3522179D2*
Y3543181D1*
X2917315Y3531729D1*
Y3537477D1*
X2919217Y3541280D1*
X2921118Y3543181D1*
X2926866Y3545127D1*
X2930668D1*
X2936416Y3543181D1*
X2940263Y3539379D1*
X2942164Y3533631D1*
Y3527883D1*
X2940263Y3522179D1*
X2938318Y3520278D1*
X2934515Y3518332D1*
X2901972Y3596359D2*
X2942164D1*
X2921118D2*
X2917271Y3600206D1*
X2915370Y3604008D1*
Y3609756D1*
X2917271Y3613559D1*
X2921118Y3617406D1*
X2926866Y3619307D1*
X2930668D1*
X2936416Y3617406D1*
X2940219Y3613559D1*
X2942164Y3609756D1*
Y3604008D1*
X2940219Y3600206D1*
X2936416Y3596359D1*
X2915370Y3633604D2*
X2942164Y3645056D1*
X2949814Y3641253D1*
X2953661Y3637406D1*
X2955562Y3633604D1*
Y3631658D1*
X2915370Y3656552D2*
X2942164Y3645056D1*
X2901972Y3721181D2*
X2942164D1*
X2901972Y3707784D2*
Y3734578D1*
Y3746930D2*
X2942164D1*
X2923019D2*
X2917271Y3752678D1*
X2915370Y3756525D1*
Y3762273D1*
X2917271Y3766075D1*
X2923019Y3767976D1*
X2942164D1*
X2901972Y3780328D2*
X2903874Y3782229D1*
X2901972Y3784175D1*
X2900027Y3782229D1*
X2901972Y3780328D1*
X2915370Y3782229D2*
X2942164D1*
X2915370Y3796526D2*
X2942164D1*
X2923019D2*
X2917271Y3802274D1*
X2915370Y3806121D1*
Y3811825D1*
X2917271Y3815671D1*
X2923019Y3817573D1*
X2942164D1*
X2901972Y3829924D2*
X2942164D1*
X2915370Y3849069D2*
X2934515Y3829924D1*
X2926866Y3837573D2*
X2942164Y3850971D1*
X2902017Y3867169D2*
Y3888171D1*
X2917315Y3876719D1*
Y3882467D1*
X2919217Y3886270D1*
X2921118Y3888171D1*
X2926866Y3890117D1*
X2930668D1*
X2936416Y3888171D1*
X2940263Y3884369D1*
X2942164Y3878621D1*
Y3872873D1*
X2940263Y3867169D1*
X2938318Y3865268D1*
X2934515Y3863322D1*
X2901972Y3925416D2*
X2942164D1*
X2921118D2*
X2917271Y3921614D1*
X2915370Y3917767D1*
Y3912019D1*
X2917271Y3908216D1*
X2921118Y3904369D1*
X2926866Y3902468D1*
X2930668D1*
X2936416Y3904369D1*
X2940219Y3908216D1*
X2942164Y3912019D1*
Y3917767D1*
X2940219Y3921614D1*
X2936416Y3925416D1*
X2923019Y3937767D2*
Y3955012D1*
X2921118Y3960715D1*
X2919172Y3962661D1*
X2915370Y3964562D1*
X2909622D1*
X2905819Y3962661D1*
X2903874Y3960715D1*
X2901972Y3955012D1*
Y3937767D1*
X2942164D1*
X2915370Y3976914D2*
X2942164D1*
X2926866D2*
X2921118Y3978859D1*
X2917271Y3982662D1*
X2915370Y3986508D1*
Y3992256D1*
X2901972Y4004608D2*
X2903874Y4006509D1*
X2901972Y4008455D1*
X2900027Y4006509D1*
X2901972Y4004608D1*
X2915370Y4006509D2*
X2942164D1*
X2915370Y4020806D2*
X2942164D1*
X2923019D2*
X2917271Y4026554D1*
X2915370Y4030401D1*
Y4036105D1*
X2917271Y4039951D1*
X2923019Y4041853D1*
X2942164D1*
X2901972Y4059952D2*
X2934515D1*
X2940219Y4061853D1*
X2942164Y4065700D1*
Y4069503D1*
X2915370Y4054204D2*
Y4067601D1*
X2902017Y4085701D2*
Y4106703D1*
X2917315Y4095251D1*
Y4100999D1*
X2919217Y4104802D1*
X2921118Y4106703D1*
X2926866Y4108649D1*
X2930668D1*
X2936416Y4106703D1*
X2940263Y4102901D1*
X2942164Y4097153D1*
Y4091405D1*
X2940263Y4085701D1*
X2938318Y4083799D1*
X2934515Y4081854D1*
X2901972Y4143948D2*
X2942164D1*
X2921118D2*
X2917271Y4140145D1*
X2915370Y4136299D1*
Y4130551D1*
X2917271Y4126748D1*
X2921118Y4122901D1*
X2926866Y4121000D1*
X2930668D1*
X2936416Y4122901D1*
X2940219Y4126748D1*
X2942164Y4130551D1*
Y4136299D1*
X2940219Y4140145D1*
X2936416Y4143948D1*
X3003971Y2518119D2*
X3030766Y2518118D1*
X3009719Y2518119D2*
X3005872Y2514316D1*
X3003971Y2510469D1*
Y2504765D1*
X3005872Y2500919D1*
X3009719Y2497116D1*
X3015467Y2495171D1*
X3019269D1*
X3025017Y2497116D1*
X3028820Y2500919D1*
X3030766Y2504765D1*
Y2510469D1*
X3028820Y2514316D1*
X3025018Y2518118D1*
X3003971Y2530470D2*
X3030766D1*
X3011620D2*
X3005872Y2536218D1*
X3003971Y2540065D1*
Y2545768D1*
X3005872Y2549615D1*
X3011620Y2551517D1*
X3030766Y2551516D1*
X2990574Y2586816D2*
X3030766D1*
X3009719D2*
X3005872Y2583013D1*
X3003971Y2579167D1*
Y2573418D1*
X3005872Y2569616D1*
X3009719Y2565769D1*
X3015467Y2563868D1*
X3019270D1*
X3025018Y2565769D1*
X3028820Y2569616D1*
X3030766Y2573418D1*
Y2579166D1*
X3028820Y2583013D1*
X3025018Y2586816D1*
X2990574Y2662897D2*
Y2638048D1*
X3030766D1*
Y2662897D1*
X3009719Y2638048D2*
Y2653347D1*
Y2696295D2*
X3005872Y2694394D1*
X3003971Y2688646D1*
Y2682898D1*
X3005872Y2677150D1*
X3009719Y2675249D1*
X3013521Y2677150D1*
X3015467Y2680997D1*
X3017368Y2690547D1*
X3019269Y2694394D1*
X3023116Y2696295D1*
X3025018D1*
X3028820Y2694394D1*
X3030766Y2688646D1*
Y2682898D1*
X3028820Y2677150D1*
X3025018Y2675249D1*
X2990574Y2708647D2*
X3030766D1*
X3011620D2*
X3005872Y2714395D1*
X3003971Y2718241D1*
Y2723989D1*
X3005872Y2727792D1*
X3011620Y2729693D1*
X3030766D1*
X3015467Y2742045D2*
Y2764993D1*
X3011620D1*
X3007773Y2763091D1*
X3005872Y2761190D1*
X3003971Y2757343D1*
Y2751595D1*
X3005872Y2747793D1*
X3009719Y2743946D1*
X3015467Y2742045D1*
X3019269D1*
X3025017Y2743946D1*
X3028820Y2747793D1*
X3030766Y2751595D1*
Y2757343D1*
X3028820Y2761190D1*
X3025017Y2764993D1*
X3003971Y2777344D2*
X3030766D1*
X3015467D2*
X3009719Y2779289D1*
X3005872Y2783092D1*
X3003971Y2786939D1*
Y2792687D1*
X2990618Y2808885D2*
Y2829887D1*
X3005916Y2818435D1*
Y2824183D1*
X3007818Y2827986D1*
X3009719Y2829887D1*
X3015467Y2831833D1*
X3019269D1*
X3025017Y2829887D1*
X3028864Y2826085D1*
X3030766Y2820337D1*
Y2814589D1*
X3028864Y2808885D1*
X3026919Y2806984D1*
X3023116Y2805038D1*
X2990574Y2867132D2*
X3030766D1*
X3009719D2*
X3005872Y2863330D1*
X3003971Y2859483D1*
Y2853735D1*
X3005872Y2849932D1*
X3009719Y2846085D1*
X3015467Y2844184D1*
X3019269D1*
X3025017Y2846085D1*
X3028820Y2849932D1*
X3030766Y2853735D1*
Y2859483D1*
X3028820Y2863330D1*
X3025017Y2867132D1*
X3026919Y2881385D2*
X3028864Y2879484D1*
X3030766Y2881385D1*
X3028864Y2883330D1*
X3026919Y2881385D1*
X2990574Y2959456D2*
Y2934562D1*
X3030766D1*
X3009719D2*
Y2949861D1*
X3003971Y2971807D2*
X3023116D1*
X3028820Y2973709D1*
X3030766Y2977555D1*
Y2983303D1*
X3028820Y2987106D1*
X3023116Y2992854D1*
X3003971D2*
X3030766D1*
X2990574Y3005205D2*
X3030766D1*
X2990574Y3017557D2*
X3030766D1*
X3003971Y3091737D2*
X3030766D1*
X3009719D2*
X3005872Y3087934D1*
X3003971Y3084087D1*
Y3078384D1*
X3005872Y3074537D1*
X3009719Y3070734D1*
X3015467Y3068789D1*
X3019269D1*
X3025017Y3070734D1*
X3028820Y3074537D1*
X3030766Y3078384D1*
Y3084087D1*
X3028820Y3087934D1*
X3025017Y3091737D1*
X2990574Y3109836D2*
X3023116D1*
X3028820Y3111737D1*
X3030766Y3115584D1*
Y3119387D1*
X3003971Y3104088D2*
Y3117485D1*
X2990574Y3137486D2*
X3023116D1*
X3028820Y3139387D1*
X3030766Y3143234D1*
Y3147037D1*
X3003971Y3131738D2*
Y3145135D1*
Y3159388D2*
X3030766D1*
X3015467D2*
X3009719Y3161334D1*
X3005872Y3165136D1*
X3003971Y3168983D1*
Y3174731D1*
X2990574Y3187082D2*
X2992475Y3188984D1*
X2990574Y3190929D1*
X2988628Y3188984D1*
X2990574Y3187082D1*
X3003971Y3188984D2*
X3030766D1*
X2990574Y3203281D2*
X3030766D1*
X3009719D2*
X3005872Y3207127D1*
X3003971Y3210930D1*
Y3216678D1*
X3005872Y3220480D1*
X3009719Y3224327D1*
X3015467Y3226228D1*
X3019269D1*
X3025017Y3224327D1*
X3028820Y3220480D1*
X3030766Y3216678D1*
Y3210930D1*
X3028820Y3207127D1*
X3025017Y3203281D1*
X3003971Y3238580D2*
X3023116D1*
X3028820Y3240481D1*
X3030766Y3244328D1*
Y3250076D1*
X3028820Y3253878D1*
X3023116Y3259626D1*
X3003971D2*
X3030766D1*
X2990574Y3277726D2*
X3023116D1*
X3028820Y3279627D1*
X3030766Y3283474D1*
Y3287276D1*
X3003971Y3271978D2*
Y3285375D1*
X2990574Y3299628D2*
X2992475Y3301529D1*
X2990574Y3303475D1*
X2988628Y3301529D1*
X2990574Y3299628D1*
X3003971Y3301529D2*
X3030766D1*
X3003971Y3325377D2*
X3005872Y3321574D1*
X3009719Y3317727D1*
X3015467Y3315826D1*
X3019269D1*
X3025017Y3317727D1*
X3028820Y3321574D1*
X3030766Y3325377D1*
Y3331125D1*
X3028820Y3334971D1*
X3025017Y3338774D1*
X3019269Y3340719D1*
X3015467D1*
X3009719Y3338774D1*
X3005872Y3334971D1*
X3003971Y3331125D1*
Y3325377D1*
Y3353071D2*
X3030766D1*
X3011620D2*
X3005872Y3358819D1*
X3003971Y3362666D1*
Y3368369D1*
X3005872Y3372216D1*
X3011620Y3374117D1*
X3030766D1*
X3003971Y3448298D2*
X3030766D1*
X3009719D2*
X3005872Y3444495D1*
X3003971Y3440648D1*
Y3434944D1*
X3005872Y3431098D1*
X3009719Y3427295D1*
X3015467Y3425350D1*
X3019269D1*
X3025017Y3427295D1*
X3028820Y3431098D1*
X3030766Y3434944D1*
Y3440648D1*
X3028820Y3444495D1*
X3025017Y3448298D1*
X3003971Y3460649D2*
X3030766D1*
X3011620D2*
X3005872Y3466397D1*
X3003971Y3470244D1*
Y3475948D1*
X3005872Y3479794D1*
X3011620Y3481696D1*
X3030766D1*
X2990574Y3516995D2*
X3030766D1*
X3009719D2*
X3005872Y3513192D1*
X3003971Y3509346D1*
Y3503598D1*
X3005872Y3499795D1*
X3009719Y3495948D1*
X3015467Y3494047D1*
X3019269D1*
X3025017Y3495948D1*
X3028820Y3499795D1*
X3030766Y3503598D1*
Y3509346D1*
X3028820Y3513192D1*
X3025017Y3516995D1*
X3000124Y3596923D2*
X2996322Y3595022D1*
X2992475Y3591175D1*
X2990574Y3587372D1*
Y3579723D1*
X2992475Y3575876D1*
X2996322Y3572074D1*
X3000124Y3570128D1*
X3005872Y3568227D1*
X3015467D1*
X3021171Y3570128D1*
X3025017Y3572074D1*
X3028820Y3575876D1*
X3030766Y3579723D1*
Y3587372D1*
X3028820Y3591175D1*
X3025017Y3595022D1*
X3021171Y3596923D1*
X2990574Y3634124D2*
Y3609274D1*
X3030766D1*
Y3634124D1*
X3009719Y3609274D2*
Y3624573D1*
Y3646475D2*
Y3663675D1*
X3007773Y3669423D1*
X3005872Y3671368D1*
X3002070Y3673270D1*
X2998223D1*
X2994420Y3671368D1*
X2992475Y3669423D1*
X2990574Y3663675D1*
Y3646475D1*
X3030766D1*
X3009719Y3659872D2*
X3030766Y3673270D1*
X2990574Y3685621D2*
X3030766D1*
Y3708569D1*
X2990574Y3759801D2*
X3030766D1*
X2990574Y3772153D2*
X2992475Y3774054D1*
X2990574Y3775999D1*
X2988628Y3774054D1*
X2990574Y3772153D1*
X3003971Y3774054D2*
X3030766D1*
X3009719Y3811343D2*
X3005872Y3807496D1*
X3003971Y3803649D1*
Y3797945D1*
X3005872Y3794099D1*
X3009719Y3790296D1*
X3015467Y3788351D1*
X3019269D1*
X3025017Y3790296D1*
X3028820Y3794099D1*
X3030766Y3797945D1*
Y3803649D1*
X3028820Y3807496D1*
X3025017Y3811343D1*
X3015467Y3823694D2*
Y3846642D1*
X3011620D1*
X3007773Y3844741D1*
X3005872Y3842840D1*
X3003971Y3838993D1*
Y3833245D1*
X3005872Y3829442D1*
X3009719Y3825595D1*
X3015467Y3823694D1*
X3019269D1*
X3025017Y3825595D1*
X3028820Y3829442D1*
X3030766Y3833245D1*
Y3838993D1*
X3028820Y3842840D1*
X3025017Y3846642D1*
X3003971Y3858994D2*
X3030766D1*
X3011620D2*
X3005872Y3864742D1*
X3003971Y3868588D1*
Y3874292D1*
X3005872Y3878139D1*
X3011620Y3880040D1*
X3030766D1*
X3009719Y3913438D2*
X3005872Y3911537D1*
X3003971Y3905789D1*
Y3900041D1*
X3005872Y3894293D1*
X3009719Y3892392D1*
X3013521Y3894293D1*
X3015467Y3898140D1*
X3017368Y3907690D1*
X3019269Y3911537D1*
X3023116Y3913438D1*
X3025017D1*
X3028820Y3911537D1*
X3030766Y3905789D1*
Y3900041D1*
X3028820Y3894293D1*
X3025017Y3892392D1*
X3015467Y3925790D2*
Y3948737D1*
X3011620D1*
X3007773Y3946836D1*
X3005872Y3944935D1*
X3003971Y3941088D1*
Y3935340D1*
X3005872Y3931538D1*
X3009719Y3927691D1*
X3015467Y3925790D1*
X3019269D1*
X3025017Y3927691D1*
X3028820Y3931538D1*
X3030766Y3935340D1*
Y3941088D1*
X3028820Y3944935D1*
X3025017Y3948737D1*
X2990574Y4015268D2*
Y4011466D1*
X2992475Y4007619D1*
X2998223Y4005718D1*
X3030766D1*
X3003971Y3999970D2*
Y4013367D1*
Y4037170D2*
X3005872Y4033368D1*
X3009719Y4029521D1*
X3015467Y4027620D1*
X3019269D1*
X3025017Y4029521D1*
X3028820Y4033368D1*
X3030766Y4037170D1*
Y4042918D1*
X3028820Y4046765D1*
X3025017Y4050568D1*
X3019269Y4052513D1*
X3015467D1*
X3009719Y4050568D1*
X3005872Y4046765D1*
X3003971Y4042918D1*
Y4037170D1*
Y4064864D2*
X3023116D1*
X3028820Y4066766D1*
X3030766Y4070612D1*
Y4076361D1*
X3028820Y4080163D1*
X3023116Y4085911D1*
X3003971D2*
X3030766D1*
X3003971Y4098262D2*
X3030766D1*
X3011620D2*
X3005872Y4104011D1*
X3003971Y4107857D1*
Y4113561D1*
X3005872Y4117408D1*
X3011620Y4119309D1*
X3030766D1*
X2990574Y4154608D2*
X3030766D1*
X3009719D2*
X3005872Y4150806D1*
X3003971Y4146959D1*
Y4141211D1*
X3005872Y4137409D1*
X3009719Y4133562D1*
X3015467Y4131661D1*
X3019269D1*
X3025017Y4133562D1*
X3028820Y4137409D1*
X3030766Y4141211D1*
Y4146959D1*
X3028820Y4150806D1*
X3025017Y4154608D1*
X3088053Y2517188D2*
X3118695D1*
X3124398Y2515287D1*
X3126344Y2513385D1*
X3128245Y2509539D1*
Y2503791D1*
X3126344Y2499988D1*
X3093801Y2517188D2*
X3089999Y2513386D1*
X3088053Y2509539D1*
Y2503791D1*
X3089999Y2499988D1*
X3093801Y2496141D1*
X3099549Y2494240D1*
X3103396D1*
X3109100Y2496141D1*
X3112947Y2499988D1*
X3114848Y2503791D1*
Y2509539D1*
X3112947Y2513385D1*
X3109100Y2517188D1*
X3072755Y2529539D2*
X3074656Y2531441D1*
X3072755Y2533386D1*
X3070809Y2531441D1*
X3072755Y2529539D1*
X3086152Y2531441D2*
X3112947D1*
X3072755Y2551486D2*
X3105297D1*
X3111001Y2553387D1*
X3112947Y2557234D1*
Y2561036D1*
X3086152Y2545738D2*
Y2559135D1*
X3072755Y2573388D2*
X3112947D1*
X3093801D2*
X3088053Y2579136D1*
X3086152Y2582982D1*
Y2588730D1*
X3088053Y2592533D1*
X3093801Y2594434D1*
X3112947D1*
X3086152Y2606786D2*
X3105297D1*
X3111001Y2608687D1*
X3112947Y2612534D1*
Y2618282D1*
X3111001Y2622084D1*
X3105297Y2627832D1*
X3086152D2*
X3112947D1*
X3072755Y2640184D2*
X3112947D1*
X3091900D2*
X3088053Y2644030D1*
X3086152Y2647833D1*
Y2653581D1*
X3088053Y2657384D1*
X3091900Y2661230D1*
X3097648Y2663132D1*
X3101451D1*
X3107199Y2661230D1*
X3111001Y2657384D1*
X3112947Y2653581D1*
Y2647833D1*
X3111001Y2644030D1*
X3107199Y2640184D1*
X3109100Y2677384D2*
X3111045Y2675483D1*
X3112947Y2677384D1*
X3111045Y2679330D1*
X3109100Y2677384D1*
X3091900Y2714673D2*
X3088053Y2710826D1*
X3086152Y2706980D1*
Y2701276D1*
X3088053Y2697429D1*
X3091900Y2693627D1*
X3097648Y2691681D1*
X3101451D1*
X3107199Y2693627D1*
X3111001Y2697429D1*
X3112947Y2701276D1*
Y2706980D1*
X3111001Y2710826D1*
X3107199Y2714673D1*
X3086152Y2736575D2*
X3088053Y2732773D1*
X3091900Y2728926D1*
X3097648Y2727025D1*
X3101451D1*
X3107199Y2728926D1*
X3111001Y2732773D1*
X3112947Y2736575D1*
Y2742323D1*
X3111001Y2746170D1*
X3107199Y2749973D1*
X3101451Y2751918D1*
X3097648D1*
X3091900Y2749973D1*
X3088053Y2746170D1*
X3086152Y2742323D1*
Y2736575D1*
Y2764269D2*
X3112947D1*
X3093801D2*
X3088053Y2770017D1*
X3086152Y2773864D1*
Y2779568D1*
X3088053Y2783415D1*
X3093801Y2785316D1*
X3112947D1*
X3093801D2*
X3088053Y2791064D1*
X3086152Y2794911D1*
Y2800615D1*
X3088053Y2804461D1*
X3093801Y2806407D1*
X3112947D1*
Y2818758D2*
X3072799Y2845553D1*
X3091900Y2878951D2*
X3088053Y2877050D1*
X3086152Y2871302D1*
Y2865554D1*
X3088053Y2859806D1*
X3091900Y2857904D1*
X3095703Y2859806D1*
X3097648Y2863652D1*
X3099549Y2873203D1*
X3101451Y2877050D1*
X3105297Y2878951D1*
X3107199D1*
X3111001Y2877050D1*
X3112947Y2871302D1*
Y2865554D1*
X3111001Y2859806D1*
X3107199Y2857904D1*
X3097648Y2891302D2*
Y2914250D1*
X3093801D1*
X3089955Y2912349D1*
X3088053Y2910448D1*
X3086152Y2906601D1*
Y2900853D1*
X3088053Y2897050D1*
X3091900Y2893204D1*
X3097648Y2891302D1*
X3101451D1*
X3107199Y2893204D1*
X3111001Y2897050D1*
X3112947Y2900853D1*
Y2906601D1*
X3111001Y2910448D1*
X3107199Y2914250D1*
X3097648Y2926602D2*
Y2949550D1*
X3093801D1*
X3089955Y2947648D1*
X3088053Y2945747D1*
X3086152Y2941900D1*
Y2936152D1*
X3088053Y2932350D1*
X3091900Y2928503D1*
X3097648Y2926602D1*
X3101451D1*
X3107199Y2928503D1*
X3111001Y2932350D1*
X3112947Y2936152D1*
Y2941900D1*
X3111001Y2945747D1*
X3107199Y2949550D1*
X3086152Y2961901D2*
X3112947D1*
X3093801D2*
X3088053Y2967649D1*
X3086152Y2971496D1*
Y2977200D1*
X3088053Y2981046D1*
X3093801Y2982948D1*
X3112947D1*
X3093801D2*
X3088053Y2988696D1*
X3086152Y2992542D1*
Y2998246D1*
X3088053Y3002093D1*
X3093801Y3004039D1*
X3112947D1*
X3097648Y3016390D2*
Y3039338D1*
X3093801D1*
X3089955Y3037437D1*
X3088053Y3035535D1*
X3086152Y3031689D1*
Y3025940D1*
X3088053Y3022138D1*
X3091900Y3018291D1*
X3097648Y3016390D1*
X3101451D1*
X3107199Y3018291D1*
X3111001Y3022138D1*
X3112947Y3025940D1*
Y3031689D1*
X3111001Y3035535D1*
X3107199Y3039338D1*
X3091900Y3074681D2*
X3088053Y3070835D1*
X3086152Y3066988D1*
Y3061284D1*
X3088053Y3057437D1*
X3091900Y3053635D1*
X3097648Y3051689D1*
X3101451D1*
X3107199Y3053635D1*
X3111001Y3057437D1*
X3112947Y3061284D1*
Y3066988D1*
X3111001Y3070835D1*
X3107199Y3074681D1*
X3086152Y3087033D2*
X3112947D1*
X3093801D2*
X3088053Y3092781D1*
X3086152Y3096628D1*
Y3102331D1*
X3088053Y3106178D1*
X3093801Y3108079D1*
X3112947D1*
X3091900Y3143423D2*
X3088053Y3139576D1*
X3086152Y3135729D1*
Y3130026D1*
X3088053Y3126179D1*
X3091900Y3122376D1*
X3097648Y3120431D1*
X3101451D1*
X3107199Y3122376D1*
X3111001Y3126179D1*
X3112947Y3130026D1*
Y3135729D1*
X3111001Y3139576D1*
X3107199Y3143423D1*
X3112947Y3155774D2*
X3072799Y3182569D1*
X3112947Y3225518D2*
X3072755D1*
X3112947Y3210219D1*
X3072755Y3194920D1*
X3112947D1*
X3086152Y3260817D2*
X3112947D1*
X3091900D2*
X3088053Y3257014D1*
X3086152Y3253168D1*
Y3247464D1*
X3088053Y3243617D1*
X3091900Y3239814D1*
X3097648Y3237869D1*
X3101451D1*
X3107199Y3239814D1*
X3111001Y3243617D1*
X3112947Y3247464D1*
Y3253168D1*
X3111001Y3257014D1*
X3107199Y3260817D1*
X3091900Y3296160D2*
X3088053Y3292314D1*
X3086152Y3288467D1*
Y3282763D1*
X3088053Y3278916D1*
X3091900Y3275114D1*
X3097648Y3273168D1*
X3101451D1*
X3107199Y3275114D1*
X3111001Y3278916D1*
X3112947Y3282763D1*
Y3288467D1*
X3111001Y3292314D1*
X3107199Y3296160D1*
X3072755Y3308512D2*
X3112947D1*
X3093801D2*
X3088053Y3314260D1*
X3086152Y3318107D1*
Y3323855D1*
X3088053Y3327657D1*
X3093801Y3329558D1*
X3112947D1*
X3072755Y3341910D2*
X3074656Y3343811D1*
X3072755Y3345757D1*
X3070809Y3343811D1*
X3072755Y3341910D1*
X3086152Y3343811D2*
X3112947D1*
X3086152Y3358108D2*
X3112947D1*
X3093801D2*
X3088053Y3363856D1*
X3086152Y3367703D1*
Y3373407D1*
X3088053Y3377253D1*
X3093801Y3379155D1*
X3112947D1*
X3097648Y3391506D2*
Y3414454D1*
X3093801D1*
X3089955Y3412553D1*
X3088053Y3410651D1*
X3086152Y3406805D1*
Y3401057D1*
X3088053Y3397254D1*
X3091900Y3393407D1*
X3097648Y3391506D1*
X3101451D1*
X3107199Y3393407D1*
X3111001Y3397254D1*
X3112947Y3401057D1*
Y3406805D1*
X3111001Y3410651D1*
X3107199Y3414454D1*
X3119579Y3426805D2*
Y3463151D1*
X3072755Y3500351D2*
Y3475502D1*
X3112947D1*
Y3500351D1*
X3091900Y3475502D2*
Y3490801D1*
X3072755Y3512703D2*
X3112947D1*
X3097648Y3525054D2*
Y3548002D1*
X3093801D1*
X3089955Y3546101D1*
X3088053Y3544199D1*
X3086152Y3540353D1*
Y3534605D1*
X3088053Y3530802D1*
X3091900Y3526955D1*
X3097648Y3525054D1*
X3101451D1*
X3107199Y3526955D1*
X3111001Y3530802D1*
X3112947Y3534605D1*
Y3540353D1*
X3111001Y3544199D1*
X3107199Y3548002D1*
X3086152Y3560353D2*
X3112947D1*
X3093801D2*
X3088053Y3566101D1*
X3086152Y3569948D1*
Y3575652D1*
X3088053Y3579499D1*
X3093801Y3581400D1*
X3112947D1*
X3093801D2*
X3088053Y3587148D1*
X3086152Y3590995D1*
Y3596699D1*
X3088053Y3600545D1*
X3093801Y3602491D1*
X3112947D1*
X3097648Y3614842D2*
Y3637790D1*
X3093801D1*
X3089955Y3635889D1*
X3088053Y3633988D1*
X3086152Y3630141D1*
Y3624393D1*
X3088053Y3620590D1*
X3091900Y3616743D1*
X3097648Y3614842D1*
X3101451D1*
X3107199Y3616743D1*
X3111001Y3620590D1*
X3112947Y3624393D1*
Y3630141D1*
X3111001Y3633988D1*
X3107199Y3637790D1*
X3086152Y3650141D2*
X3112947D1*
X3093801D2*
X3088053Y3655889D1*
X3086152Y3659736D1*
Y3665440D1*
X3088053Y3669287D1*
X3093801Y3671188D1*
X3112947D1*
X3072755Y3689288D2*
X3105297D1*
X3111001Y3691189D1*
X3112947Y3695036D1*
Y3698838D1*
X3086152Y3683539D2*
Y3696937D1*
X3091900Y3732236D2*
X3088053Y3730335D1*
X3086152Y3724587D1*
Y3718839D1*
X3088053Y3713091D1*
X3091900Y3711189D1*
X3095703Y3713091D1*
X3097648Y3716938D1*
X3099549Y3726488D1*
X3101451Y3730335D1*
X3105297Y3732236D1*
X3107199D1*
X3111001Y3730335D1*
X3112947Y3724587D1*
Y3718839D1*
X3111001Y3713091D1*
X3107199Y3711189D1*
X3112947Y3744588D2*
X3072799Y3771382D1*
X3078503Y3810528D2*
X3074656Y3806726D1*
X3072755Y3800978D1*
Y3793328D1*
X3074656Y3787580D1*
X3078503Y3783734D1*
X3082305D1*
X3086152Y3785679D1*
X3088053Y3787580D1*
X3089954Y3791383D1*
X3093801Y3802879D1*
X3095703Y3806726D1*
X3097648Y3808627D1*
X3101451Y3810528D1*
X3107199D1*
X3111001Y3806726D1*
X3112947Y3800978D1*
Y3793328D1*
X3111001Y3787580D1*
X3107199Y3783734D1*
X3072755Y3847729D2*
Y3822880D1*
X3112947D1*
Y3847729D1*
X3091900Y3822880D2*
Y3838178D1*
X3072799Y3863927D2*
Y3884929D1*
X3088097Y3873478D1*
Y3879226D1*
X3089999Y3883028D1*
X3091900Y3884929D1*
X3097648Y3886875D1*
X3101451D1*
X3107199Y3884929D1*
X3111045Y3881127D1*
X3112947Y3875379D1*
Y3869631D1*
X3111045Y3863927D1*
X3109100Y3862026D1*
X3105297Y3860080D1*
X3072799Y3910722D2*
X3074700Y3904974D1*
X3080448Y3901128D1*
X3089999Y3899226D1*
X3095747D1*
X3105297Y3901128D1*
X3111045Y3904974D1*
X3112947Y3910722D1*
Y3914525D1*
X3111045Y3920273D1*
X3105297Y3924075D1*
X3095747Y3926021D1*
X3089999D1*
X3080448Y3924075D1*
X3074700Y3920273D1*
X3072799Y3914525D1*
Y3910722D1*
X3080448Y3924075D2*
X3105297Y3901128D1*
X3072799Y3949868D2*
X3074700Y3944120D1*
X3080448Y3940274D1*
X3089999Y3938372D1*
X3095747D1*
X3105297Y3940274D1*
X3111045Y3944120D1*
X3112947Y3949868D1*
Y3953671D1*
X3111045Y3959419D1*
X3105297Y3963222D1*
X3095747Y3965167D1*
X3089999D1*
X3080448Y3963222D1*
X3074700Y3959419D1*
X3072799Y3953671D1*
Y3949868D1*
X3080448Y3963222D2*
X3105297Y3940274D1*
X2640333Y1850640D2*
D93*
X2628925Y1862181D1*
X2611681Y1867884D1*
X2588733D1*
X2571489Y1862181D1*
X2559949Y1850640D1*
Y1839233D1*
X2565785Y1827692D1*
X2571489Y1821989D1*
X2582896Y1816285D1*
X2617385Y1804745D1*
X2628925Y1799041D1*
X2634629Y1793204D1*
X2640333Y1781797D1*
Y1764553D1*
X2628925Y1753145D1*
X2611681Y1747308D1*
X2588733D1*
X2571489Y1753145D1*
X2559949Y1764553D1*
X2677387Y1793204D2*
X2746231D1*
Y1804745D1*
X2740527Y1816285D1*
X2734823Y1821989D1*
X2723283Y1827692D1*
X2706039D1*
X2694631Y1821989D1*
X2683091Y1810448D1*
X2677387Y1793204D1*
Y1781797D1*
X2683091Y1764553D1*
X2694631Y1753145D1*
X2706039Y1747308D1*
X2723283D1*
X2734823Y1753145D1*
X2746231Y1764553D1*
X2783285Y1793204D2*
X2852128D1*
Y1804745D1*
X2846425Y1816285D1*
X2840721Y1821989D1*
X2829181Y1827692D1*
X2811936D1*
X2800529Y1821989D1*
X2788989Y1810448D1*
X2783285Y1793204D1*
Y1781797D1*
X2788989Y1764553D1*
X2800529Y1753145D1*
X2811936Y1747308D1*
X2829181D1*
X2840721Y1753145D1*
X2852128Y1764553D1*
X2980974Y1747308D2*
Y1867884D1*
X2935078Y1747308D1*
X2889183Y1867884D1*
Y1747308D1*
X3018028Y1793204D2*
X3086872D1*
Y1804745D1*
X3081168Y1816285D1*
X3075465Y1821989D1*
X3063924Y1827692D1*
X3046680D1*
X3035273Y1821989D1*
X3023732Y1810448D1*
X3018028Y1793204D1*
Y1781797D1*
X3023732Y1764553D1*
X3035273Y1753145D1*
X3046680Y1747308D1*
X3063924D1*
X3075465Y1753145D1*
X3086872Y1764553D1*
X3210014Y1839233D2*
X3204310Y1850640D1*
X3192770Y1862181D1*
X3181362Y1867884D1*
X3158415D1*
X3146874Y1862181D1*
X3135467Y1850640D1*
X3129630Y1839233D1*
X3123926Y1821989D1*
Y1793204D1*
X3129630Y1776093D1*
X3135467Y1764553D1*
X3146874Y1753145D1*
X3158415Y1747308D1*
X3181362D1*
X3192770Y1753145D1*
X3204310Y1764553D1*
X3210014Y1776093D1*
X3327452Y1867884D2*
Y1747308D1*
X3247068Y1867884D1*
Y1747308D1*
X3450594Y1839233D2*
X3444891Y1850640D1*
X3433350Y1862181D1*
X3421943Y1867884D1*
X3398995D1*
X3387455Y1862181D1*
X3376047Y1850640D1*
X3370210Y1839233D1*
X3364507Y1821989D1*
Y1793204D1*
X3370210Y1776093D1*
X3376047Y1764553D1*
X3387455Y1753145D1*
X3398995Y1747308D1*
X3421943D1*
X3433350Y1753145D1*
X3444891Y1764553D1*
X3450594Y1776093D1*
X3279172Y2911485D2*
D94*
X3284943Y2914403D1*
X3293565Y2922959D1*
Y2862737D1*
X2545785Y3062629D2*
D89*
X2548670Y3064088D1*
X2552981Y3068366D1*
Y3038255D1*
X2753156Y2968391D2*
X2751697Y2971276D1*
X2747419Y2975587D1*
X2777530D1*
X2871712Y4403477D2*
X2868827Y4402017D1*
X2864516Y4397740D1*
Y4427851D1*
X1166803Y999301D2*
X1163918Y997842D1*
X1159607Y993564D1*
Y1023675D1*
X4967727Y1224122D2*
X4964842Y1222663D1*
X4960530Y1218385D1*
X4960531Y1248496D1*
M02*
