G04 DipTrace 3.2.0.1*
G04 BoardOutline.gbr*
%MOIN*%
G04 #@! TF.FileFunction,Profile*
G04 #@! TF.Part,Single*
%ADD11C,0.006*%
%FSLAX26Y26*%
G04*
G70*
G90*
G75*
G01*
G04 BoardOutline*
%LPD*%
X2801928Y2194017D2*
D11*
G02X2801928Y2194017I201772J0D01*
G01*
X2531966Y3222562D2*
X2395584D1*
X2791026Y3553156D2*
X2634252Y3281617D1*
X2806849Y3612211D2*
Y4621450D1*
X3200550D2*
Y3612211D1*
X3373147Y3281617D2*
X3216373Y3553156D1*
X3611815Y3222562D2*
X3475433D1*
X4130312Y2088277D2*
X4198503Y2206387D1*
X4287085Y1698629D2*
X4130312Y1970168D1*
X4330318Y1655396D2*
X5204344Y1150777D1*
X5007493Y809823D2*
X4133467Y1314442D1*
X3760865Y1330266D2*
X4074412D1*
X3590388Y1153101D2*
X3658579Y1271211D1*
X2348820D2*
X2417010Y1153101D1*
X1932987Y1330266D2*
X2246534D1*
X1873932Y1314442D2*
X999906Y809823D1*
X803055Y1150777D2*
X1677081Y1655396D1*
X1877087Y1970168D2*
X1720314Y1698629D1*
X1808896Y2206387D2*
X1877087Y2088277D1*
X2395584Y3222562D2*
G03X2293298Y3163507I-3J-118104D01*
G01*
X2531966Y3222562D2*
G03X2634252Y3281617I-1J118111D01*
G01*
X2791026Y3553156D2*
G03X2806849Y3612211I-102282J59052D01*
G01*
X2891717Y4734786D2*
G03X2806849Y4621450I33242J-113335D01*
G01*
X3200550Y3612211D2*
G03X3216373Y3553156I118105J-3D01*
G01*
X3373147Y3281617D2*
G03X3475433Y3222562I102287J59056D01*
G01*
X4130312Y2088277D2*
G03X4130312Y1970168I102281J-59054D01*
G01*
X4287085Y1698629D2*
G03X4330318Y1655396I102289J59057D01*
G01*
X4133467Y1314442D2*
G03X4074412Y1330266I-59057J-102290D01*
G01*
X3760865D2*
G03X3658579Y1271211I1J-118111D01*
G01*
X3488102Y1094046D2*
G03X3590388Y1153101I-1J118111D01*
G01*
X2417010D2*
G03X2519297Y1094046I102287J59056D01*
G01*
X2348820Y1271211D2*
G03X2246534Y1330266I-102287J-59056D01*
G01*
X1932987D2*
G03X1873932Y1314442I2J-118114D01*
G01*
X1677081Y1655396D2*
G03X1720314Y1698629I-59057J102289D01*
G01*
X1877087Y1970168D2*
G03X1877087Y2088277I-102281J59054D01*
G01*
X1808896Y2324497D2*
G03X1808896Y2206387I102284J-59055D01*
G01*
X2116285Y2856911D2*
X1985909Y2631094D1*
X1861285Y2415238D2*
X1808896Y2324497D1*
X1780744Y2461738D2*
X1728356Y2370997D1*
X2212757Y3210007D2*
X2160369Y3119268D1*
X1861285Y2415238D2*
G03X1780744Y2461738I-40271J23249D01*
G01*
X1905369Y2677594D2*
G03X1985909Y2631094I40270J-23250D01*
G01*
X2160369Y3119268D2*
G03X2240909Y3072768I40270J-23250D01*
G01*
X2116285Y2856911D2*
G03X2035744Y2903411I-40271J23249D01*
G01*
X2240909Y3072768D2*
X2293298Y3163507D1*
X1905369Y2677594D2*
X2035744Y2903411D1*
X3134075Y1094046D2*
X2873324D1*
X2624075D2*
X2519297D1*
X2624075Y1001046D2*
X2519297D1*
X3488102D2*
X3383324D1*
X2624075D2*
G03X2624075Y1094046I0J46500D01*
G01*
X2873324D2*
G03X2873324Y1001046I0J-46500D01*
G01*
X3383324Y1094046D2*
G03X3383324Y1001046I0J-46500D01*
G01*
X3134075D2*
G03X3134075Y1094046I0J46500D01*
G01*
X3383324D2*
X3488102D1*
X2873324Y1001046D2*
X3134075D1*
X2879075Y4832560D2*
X2337383D1*
X2088133D2*
X1087383D1*
G03X1087383Y4739560I0J-46500D01*
G01*
X838133D2*
G03X838133Y4832560I0J46500D01*
G01*
X394000D1*
X2925575Y4786060D2*
G03X2879075Y4832560I-46500J0D01*
G01*
X838133Y4739560D2*
X394000D1*
X2088133D2*
X1087383D1*
X2925575Y4786060D2*
X2925484Y4779264D1*
X2891717Y4734786D2*
G03X2925484Y4779264I-13227J45099D01*
G01*
X3081824Y4786060D2*
X3081915Y4779264D1*
G03X3115682Y4734786I46995J621D01*
G01*
X2713849Y3612211D2*
Y4621450D1*
X2749982Y4739560D2*
X2337383D1*
X2749982D2*
G03X2713849Y4621450I174966J-118108D01*
G01*
X2710486Y3599656D2*
X2553713Y3328117D1*
X2531966Y3315562D2*
X2395584D1*
X2531966D2*
G03X2553713Y3328117I-3J25116D01*
G01*
X2710486Y3599656D2*
G03X2713849Y3612211I-21758J12557D01*
G01*
X2395584Y3315562D2*
G03X2212757Y3210007I0J-211110D01*
G01*
X2087757Y4739560D2*
X2097257D1*
X2337383Y4832560D2*
G03X2337383Y4739560I0J-46500D01*
G01*
X2088133D2*
G03X2088133Y4832560I0J46500D01*
G01*
X1630581Y1735937D2*
X756555Y1231318D1*
X1639773Y1745129D2*
X1796546Y2016668D1*
Y2041777D2*
X1728356Y2159887D1*
X1796546Y2016668D2*
G03X1796546Y2041777I-21738J12554D01*
G01*
X1630581Y1735937D2*
G03X1639773Y1745129I-12558J21749D01*
G01*
X1728356Y2370997D2*
G03X1728356Y2159887I182826J-105555D01*
G01*
X858135Y827799D2*
G03X999906Y809823I82715J84309D01*
G01*
X394000Y4832560D2*
Y5139560D1*
X933971Y701112D2*
G03X1046406Y729282I6880J210999D01*
G01*
X858135Y827799D2*
G03X786948Y769764I-30900J-34775D01*
G01*
X1920432Y1233903D2*
X1046406Y729282D1*
X1932987Y1237266D2*
X2246534D1*
X1932987D2*
G03X1920432Y1233903I2J-25121D01*
G01*
X2268280Y1224711D2*
G03X2246534Y1237266I-21743J-12549D01*
G01*
X2268280Y1224711D2*
X2336470Y1106601D1*
G03X2519297Y1001046I182827J105555D01*
G01*
X786948Y769764D2*
X868430Y628631D1*
X933971Y701112D2*
X948971Y675131D1*
X868430Y628631D2*
G03X948971Y675131I40271J23249D01*
G01*
X803055Y1150777D2*
G03X747739Y1019012I59057J-102286D01*
G01*
X756555Y1231318D2*
G03X675941Y1148033I105551J-182823D01*
G01*
X661883Y986381D2*
G03X747739Y1019012I40288J23261D01*
G01*
X661883Y986381D2*
X580402Y1127513D1*
X660941Y1174013D2*
G03X580402Y1127513I-40270J-23249D01*
G01*
X675941Y1148033D2*
X660941Y1174013D1*
X536566Y1389438D2*
X394000Y1636369D1*
Y394000D2*
Y1450369D1*
Y1636369D2*
Y4739560D1*
X456025Y1342938D2*
X394000Y1450369D1*
X3128324Y4832560D2*
G03X3081824Y4786060I0J-46500D01*
G01*
X3714101Y3163507D2*
G03X3611815Y3222562I-102283J-59049D01*
G01*
X3200550Y4621450D2*
G03X3115682Y4734786I-118109J1D01*
G01*
X4198503Y2206387D2*
G03X4198503Y2324497I-102284J59055D01*
G01*
X3891114Y2856911D2*
X4021490Y2631094D1*
X4146114Y2415238D2*
X4198503Y2324497D1*
X4226655Y2461738D2*
X4279043Y2370997D1*
X3794642Y3210007D2*
X3847030Y3119268D1*
X4226655Y2461738D2*
G03X4146114Y2415238I-40270J-23251D01*
G01*
X4021490Y2631094D2*
G03X4102030Y2677594I40270J23250D01*
G01*
X3766490Y3072768D2*
G03X3847030Y3119268I40270J23250D01*
G01*
X3971655Y2903411D2*
G03X3891114Y2856911I-40270J-23251D01*
G01*
X3766490Y3072768D2*
X3714101Y3163507D1*
X4102030Y2677594D2*
X3971655Y2903411D1*
X3128324Y4832560D2*
X3670016D1*
X3919266D2*
X4920016D1*
Y4739560D2*
G03X4920016Y4832560I0J46500D01*
G01*
X5169266D2*
G03X5169266Y4739560I0J-46500D01*
G01*
Y4832560D2*
X5613399D1*
X5169266Y4739560D2*
X5613399D1*
X3919266D2*
X4920016D1*
X3293550Y3612211D2*
Y4621450D1*
X3257417Y4739560D2*
X3670016D1*
X3293550Y4621450D2*
G03X3257417Y4739560I-211098J2D01*
G01*
X3296913Y3599656D2*
X3453686Y3328117D1*
X3475433Y3315562D2*
X3611815D1*
X3453686Y3328117D2*
G03X3475433Y3315562I21750J12561D01*
G01*
X3293550Y3612211D2*
G03X3296913Y3599656I25121J2D01*
G01*
X3794642Y3210007D2*
G03X3611815Y3315562I-182827J-105555D01*
G01*
X3919642Y4739560D2*
X3910142D1*
X3670016D2*
G03X3670016Y4832560I0J46500D01*
G01*
X3919266D2*
G03X3919266Y4739560I0J-46500D01*
G01*
X4376818Y1735937D2*
X5250844Y1231318D1*
X4367626Y1745129D2*
X4210853Y2016668D1*
Y2041777D2*
X4279043Y2159887D1*
X4210853Y2041777D2*
G03X4210853Y2016668I21738J-12554D01*
G01*
X4367626Y1745129D2*
G03X4376818Y1735937I21749J12558D01*
G01*
X4279043Y2159887D2*
G03X4279043Y2370997I-182826J105555D01*
G01*
X5007493Y809823D2*
G03X5149264Y827799I59055J102285D01*
G01*
X5613399Y4832560D2*
Y5139560D1*
X4960993Y729282D2*
G03X5073428Y701112I105554J182828D01*
G01*
X5220451Y769764D2*
G03X5149264Y827799I-40288J23260D01*
G01*
X4086967Y1233903D2*
X4960993Y729282D1*
X4074412Y1237266D2*
X3760865D1*
X4086967Y1233903D2*
G03X4074412Y1237266I-12557J-21758D01*
G01*
X3760865D2*
G03X3739119Y1224711I-3J-25105D01*
G01*
X3670929Y1106601D1*
X3488102Y1001046D2*
G03X3670929Y1106601I0J211110D01*
G01*
X5220451Y769764D2*
X5138969Y628631D1*
X5073428Y701112D2*
X5058428Y675131D1*
G03X5138969Y628631I40270J-23251D01*
G01*
X5259660Y1019012D2*
G03X5204344Y1150777I-114373J29479D01*
G01*
X5331458Y1148033D2*
G03X5250844Y1231318I-186165J-99538D01*
G01*
X5259660Y1019012D2*
G03X5345516Y986381I45568J-9370D01*
G01*
X5426997Y1127513D1*
G03X5346458Y1174013I-40269J23251D01*
G01*
X5331458Y1148033D2*
X5346458Y1174013D1*
X5613399Y394000D2*
X394000D1*
Y5139560D2*
X5613399D1*
X456025Y1342938D2*
G03X536566Y1389438I40270J23251D01*
G01*
X5470833D2*
X5613399Y1636369D1*
Y394000D2*
Y1450369D1*
Y1636369D2*
Y4739560D1*
X5551374Y1342938D2*
X5613399Y1450369D1*
X5470833Y1389438D2*
G03X5551374Y1342938I40271J-23249D01*
G01*
X2399699Y1539072D2*
G02X2399699Y1459072I0J-40000D01*
G01*
X2359699Y1539072D2*
G03X2359699Y1459072I0J-40000D01*
G01*
Y1539072D2*
X2399699D1*
Y1459072D2*
X2359699D1*
X2047020Y1981713D2*
G02X2007020Y1912432I-19999J-34641D01*
G01*
X2012379Y2001713D2*
G03X1972379Y1932432I-20001J-34640D01*
G01*
X2012379Y2001713D2*
X2047020Y1981713D1*
X2007020Y1912432D2*
X1972379Y1932432D1*
M02*
