G04 This is an RS-274x file exported by *
G04 gerbv version 2.6A *
G04 More information is available about gerbv at *
G04 http://gerbv.geda-project.org/ *
G04 --End of header info--*
%MOIN*%
%FSLAX34Y34*%
%IPPOS*%
G04 --Define apertures--*
%ADD10C,0.0100*%
%ADD11C,0.0400*%
%ADD12C,0.0077*%
%ADD13C,0.0247*%
G04 --Start main section--*
G54D10*
G01X0022663Y0028215D02*
G01X0020663Y0024751D01*
G01X0020663Y0024751D02*
G01X0022568Y0023651D01*
G01X0022568Y0023651D02*
G01X0024568Y0027115D01*
G01X0024568Y0027115D02*
G01X0022663Y0028215D01*
G54D11*
G01X0024168Y0026422D03*
G54D10*
G01X0025785Y0015981D02*
G01X0027702Y0015981D01*
G01X0024702Y0015981D02*
G01X0027702Y0015981D01*
G01X0024702Y0013981D02*
G01X0027702Y0013981D01*
G01X0024702Y0015981D02*
G01X0024702Y0013981D01*
G01X0027702Y0015981D02*
G01X0027702Y0013981D01*
G01X0037813Y0024244D02*
G01X0038565Y0022947D01*
G01X0038247Y0024495D02*
G01X0036746Y0027093D01*
G01X0036313Y0026843D02*
G01X0036746Y0027093D01*
G01X0038247Y0024495D02*
G01X0037813Y0024244D01*
G01X0039313Y0021646D02*
G01X0039813Y0020781D01*
G01X0039813Y0020781D02*
G01X0038081Y0019780D01*
G01X0038081Y0019780D02*
G01X0037581Y0020647D01*
G01X0036833Y0021947D02*
G01X0033834Y0027142D01*
G01X0036313Y0026843D02*
G01X0035566Y0028142D01*
G01X0034813Y0029441D02*
G01X0034313Y0030307D01*
G01X0034315Y0030308D02*
G01X0032581Y0029307D01*
G01X0032581Y0029307D02*
G01X0033081Y0028440D01*
G54D12*
G01X0028549Y0018791D02*
G01X0028549Y0018289D01*
G01X0028549Y0018289D02*
G01X0028333Y0018289D01*
G01X0028333Y0018289D02*
G01X0028262Y0018313D01*
G01X0028262Y0018313D02*
G01X0028238Y0018337D01*
G01X0028238Y0018337D02*
G01X0028214Y0018385D01*
G01X0028214Y0018385D02*
G01X0028214Y0018456D01*
G01X0028214Y0018456D02*
G01X0028238Y0018505D01*
G01X0028238Y0018505D02*
G01X0028262Y0018528D01*
G01X0028262Y0018528D02*
G01X0028333Y0018552D01*
G01X0028333Y0018552D02*
G01X0028262Y0018576D01*
G01X0028262Y0018576D02*
G01X0028238Y0018600D01*
G01X0028238Y0018600D02*
G01X0028214Y0018648D01*
G01X0028214Y0018648D02*
G01X0028214Y0018696D01*
G01X0028214Y0018696D02*
G01X0028238Y0018743D01*
G01X0028238Y0018743D02*
G01X0028262Y0018768D01*
G01X0028262Y0018768D02*
G01X0028333Y0018791D01*
G01X0028333Y0018791D02*
G01X0028549Y0018791D01*
G01X0028549Y0018552D02*
G01X0028333Y0018552D01*
G01X0027940Y0018624D02*
G01X0027988Y0018600D01*
G01X0027988Y0018600D02*
G01X0028036Y0018552D01*
G01X0028036Y0018552D02*
G01X0028060Y0018480D01*
G01X0028060Y0018480D02*
G01X0028060Y0018433D01*
G01X0028060Y0018433D02*
G01X0028036Y0018361D01*
G01X0028036Y0018361D02*
G01X0027988Y0018313D01*
G01X0027988Y0018313D02*
G01X0027940Y0018289D01*
G01X0027940Y0018289D02*
G01X0027868Y0018289D01*
G01X0027868Y0018289D02*
G01X0027820Y0018313D01*
G01X0027820Y0018313D02*
G01X0027773Y0018361D01*
G01X0027773Y0018361D02*
G01X0027748Y0018433D01*
G01X0027748Y0018433D02*
G01X0027748Y0018480D01*
G01X0027748Y0018480D02*
G01X0027773Y0018552D01*
G01X0027773Y0018552D02*
G01X0027820Y0018600D01*
G01X0027820Y0018600D02*
G01X0027868Y0018624D01*
G01X0027868Y0018624D02*
G01X0027940Y0018624D01*
G01X0027307Y0018624D02*
G01X0027307Y0018289D01*
G01X0027307Y0018552D02*
G01X0027355Y0018600D01*
G01X0027355Y0018600D02*
G01X0027403Y0018624D01*
G01X0027403Y0018624D02*
G01X0027474Y0018624D01*
G01X0027474Y0018624D02*
G01X0027522Y0018600D01*
G01X0027522Y0018600D02*
G01X0027570Y0018552D01*
G01X0027570Y0018552D02*
G01X0027594Y0018480D01*
G01X0027594Y0018480D02*
G01X0027594Y0018433D01*
G01X0027594Y0018433D02*
G01X0027570Y0018361D01*
G01X0027570Y0018361D02*
G01X0027522Y0018313D01*
G01X0027522Y0018313D02*
G01X0027474Y0018289D01*
G01X0027474Y0018289D02*
G01X0027403Y0018289D01*
G01X0027403Y0018289D02*
G01X0027355Y0018313D01*
G01X0027355Y0018313D02*
G01X0027307Y0018361D01*
G01X0027153Y0018624D02*
G01X0027153Y0018289D01*
G01X0027153Y0018480D02*
G01X0027128Y0018552D01*
G01X0027128Y0018552D02*
G01X0027081Y0018600D01*
G01X0027081Y0018600D02*
G01X0027033Y0018624D01*
G01X0027033Y0018624D02*
G01X0026961Y0018624D01*
G01X0026520Y0018791D02*
G01X0026520Y0018289D01*
G01X0026520Y0018552D02*
G01X0026567Y0018600D01*
G01X0026567Y0018600D02*
G01X0026615Y0018624D01*
G01X0026615Y0018624D02*
G01X0026687Y0018624D01*
G01X0026687Y0018624D02*
G01X0026735Y0018600D01*
G01X0026735Y0018600D02*
G01X0026783Y0018552D01*
G01X0026783Y0018552D02*
G01X0026807Y0018480D01*
G01X0026807Y0018480D02*
G01X0026807Y0018433D01*
G01X0026807Y0018433D02*
G01X0026783Y0018361D01*
G01X0026783Y0018361D02*
G01X0026735Y0018313D01*
G01X0026735Y0018313D02*
G01X0026687Y0018289D01*
G01X0026687Y0018289D02*
G01X0026615Y0018289D01*
G01X0026615Y0018289D02*
G01X0026567Y0018313D01*
G01X0026567Y0018313D02*
G01X0026520Y0018361D01*
G01X0026341Y0018624D02*
G01X0026365Y0018600D01*
G01X0026365Y0018600D02*
G01X0026341Y0018576D01*
G01X0026341Y0018576D02*
G01X0026317Y0018600D01*
G01X0026317Y0018600D02*
G01X0026341Y0018624D01*
G01X0026341Y0018337D02*
G01X0026365Y0018313D01*
G01X0026365Y0018313D02*
G01X0026341Y0018289D01*
G01X0026341Y0018289D02*
G01X0026317Y0018313D01*
G01X0026317Y0018313D02*
G01X0026341Y0018337D01*
G01X0025342Y0018720D02*
G01X0025389Y0018768D01*
G01X0025389Y0018768D02*
G01X0025461Y0018791D01*
G01X0025461Y0018791D02*
G01X0025557Y0018791D01*
G01X0025557Y0018791D02*
G01X0025629Y0018768D01*
G01X0025629Y0018768D02*
G01X0025677Y0018720D01*
G01X0025677Y0018720D02*
G01X0025677Y0018672D01*
G01X0025677Y0018672D02*
G01X0025653Y0018624D01*
G01X0025653Y0018624D02*
G01X0025629Y0018600D01*
G01X0025629Y0018600D02*
G01X0025581Y0018576D01*
G01X0025581Y0018576D02*
G01X0025438Y0018528D01*
G01X0025438Y0018528D02*
G01X0025389Y0018505D01*
G01X0025389Y0018505D02*
G01X0025366Y0018480D01*
G01X0025366Y0018480D02*
G01X0025342Y0018433D01*
G01X0025342Y0018433D02*
G01X0025342Y0018361D01*
G01X0025342Y0018361D02*
G01X0025389Y0018313D01*
G01X0025389Y0018313D02*
G01X0025461Y0018289D01*
G01X0025461Y0018289D02*
G01X0025557Y0018289D01*
G01X0025557Y0018289D02*
G01X0025629Y0018313D01*
G01X0025629Y0018313D02*
G01X0025677Y0018361D01*
G01X0024877Y0018791D02*
G01X0025188Y0018791D01*
G01X0025188Y0018791D02*
G01X0025188Y0018289D01*
G01X0025188Y0018289D02*
G01X0024877Y0018289D01*
G01X0025188Y0018552D02*
G01X0024996Y0018552D01*
G01X0024674Y0018791D02*
G01X0024412Y0018791D01*
G01X0024412Y0018791D02*
G01X0024555Y0018600D01*
G01X0024555Y0018600D02*
G01X0024483Y0018600D01*
G01X0024483Y0018600D02*
G01X0024436Y0018576D01*
G01X0024436Y0018576D02*
G01X0024412Y0018552D01*
G01X0024412Y0018552D02*
G01X0024388Y0018480D01*
G01X0024388Y0018480D02*
G01X0024388Y0018433D01*
G01X0024388Y0018433D02*
G01X0024412Y0018361D01*
G01X0024412Y0018361D02*
G01X0024459Y0018313D01*
G01X0024459Y0018313D02*
G01X0024531Y0018289D01*
G01X0024531Y0018289D02*
G01X0024603Y0018289D01*
G01X0024603Y0018289D02*
G01X0024674Y0018313D01*
G01X0024674Y0018313D02*
G01X0024698Y0018337D01*
G01X0024698Y0018337D02*
G01X0024723Y0018385D01*
G01X0024090Y0018791D02*
G01X0024161Y0018767D01*
G01X0024161Y0018767D02*
G01X0024209Y0018695D01*
G01X0024209Y0018695D02*
G01X0024233Y0018576D01*
G01X0024233Y0018576D02*
G01X0024233Y0018504D01*
G01X0024233Y0018504D02*
G01X0024209Y0018385D01*
G01X0024209Y0018385D02*
G01X0024161Y0018313D01*
G01X0024161Y0018313D02*
G01X0024090Y0018289D01*
G01X0024090Y0018289D02*
G01X0024042Y0018289D01*
G01X0024042Y0018289D02*
G01X0023970Y0018313D01*
G01X0023970Y0018313D02*
G01X0023923Y0018385D01*
G01X0023923Y0018385D02*
G01X0023898Y0018504D01*
G01X0023898Y0018504D02*
G01X0023898Y0018576D01*
G01X0023898Y0018576D02*
G01X0023923Y0018695D01*
G01X0023923Y0018695D02*
G01X0023970Y0018767D01*
G01X0023970Y0018767D02*
G01X0024042Y0018791D01*
G01X0024042Y0018791D02*
G01X0024090Y0018791D01*
G01X0023923Y0018695D02*
G01X0024209Y0018385D01*
G01X0023600Y0018791D02*
G01X0023672Y0018767D01*
G01X0023672Y0018767D02*
G01X0023720Y0018695D01*
G01X0023720Y0018695D02*
G01X0023744Y0018576D01*
G01X0023744Y0018576D02*
G01X0023744Y0018504D01*
G01X0023744Y0018504D02*
G01X0023720Y0018385D01*
G01X0023720Y0018385D02*
G01X0023672Y0018313D01*
G01X0023672Y0018313D02*
G01X0023600Y0018289D01*
G01X0023600Y0018289D02*
G01X0023553Y0018289D01*
G01X0023553Y0018289D02*
G01X0023481Y0018313D01*
G01X0023481Y0018313D02*
G01X0023433Y0018385D01*
G01X0023433Y0018385D02*
G01X0023409Y0018504D01*
G01X0023409Y0018504D02*
G01X0023409Y0018576D01*
G01X0023409Y0018576D02*
G01X0023433Y0018695D01*
G01X0023433Y0018695D02*
G01X0023481Y0018767D01*
G01X0023481Y0018767D02*
G01X0023553Y0018791D01*
G01X0023553Y0018791D02*
G01X0023600Y0018791D01*
G01X0023433Y0018695D02*
G01X0023720Y0018385D01*
G01X0022769Y0018624D02*
G01X0022625Y0018289D01*
G01X0022625Y0018289D02*
G01X0022482Y0018624D01*
G01X0022327Y0018695D02*
G01X0022279Y0018720D01*
G01X0022279Y0018720D02*
G01X0022207Y0018791D01*
G01X0022207Y0018791D02*
G01X0022207Y0018289D01*
G01X0022029Y0018337D02*
G01X0022053Y0018313D01*
G01X0022053Y0018313D02*
G01X0022029Y0018289D01*
G01X0022029Y0018289D02*
G01X0022005Y0018313D01*
G01X0022005Y0018313D02*
G01X0022029Y0018337D01*
G01X0021611Y0018289D02*
G01X0021611Y0018791D01*
G01X0021611Y0018791D02*
G01X0021851Y0018456D01*
G01X0021851Y0018456D02*
G01X0021492Y0018456D01*
G01X0028240Y0017747D02*
G01X0028264Y0017795D01*
G01X0028264Y0017795D02*
G01X0028312Y0017843D01*
G01X0028312Y0017843D02*
G01X0028359Y0017867D01*
G01X0028359Y0017867D02*
G01X0028455Y0017867D01*
G01X0028455Y0017867D02*
G01X0028503Y0017843D01*
G01X0028503Y0017843D02*
G01X0028551Y0017795D01*
G01X0028551Y0017795D02*
G01X0028575Y0017747D01*
G01X0028575Y0017747D02*
G01X0028599Y0017675D01*
G01X0028599Y0017675D02*
G01X0028599Y0017555D01*
G01X0028599Y0017555D02*
G01X0028575Y0017484D01*
G01X0028575Y0017484D02*
G01X0028551Y0017436D01*
G01X0028551Y0017436D02*
G01X0028503Y0017389D01*
G01X0028503Y0017389D02*
G01X0028455Y0017364D01*
G01X0028455Y0017364D02*
G01X0028359Y0017364D01*
G01X0028359Y0017364D02*
G01X0028312Y0017389D01*
G01X0028312Y0017389D02*
G01X0028264Y0017436D01*
G01X0028264Y0017436D02*
G01X0028240Y0017484D01*
G01X0027775Y0017867D02*
G01X0028086Y0017867D01*
G01X0028086Y0017867D02*
G01X0028086Y0017364D01*
G01X0028086Y0017364D02*
G01X0027775Y0017364D01*
G01X0028086Y0017627D02*
G01X0027894Y0017627D01*
G01X0027621Y0017627D02*
G01X0027406Y0017627D01*
G01X0027406Y0017627D02*
G01X0027334Y0017652D01*
G01X0027334Y0017652D02*
G01X0027309Y0017675D01*
G01X0027309Y0017675D02*
G01X0027286Y0017723D01*
G01X0027286Y0017723D02*
G01X0027286Y0017771D01*
G01X0027286Y0017771D02*
G01X0027309Y0017819D01*
G01X0027309Y0017819D02*
G01X0027334Y0017843D01*
G01X0027334Y0017843D02*
G01X0027406Y0017867D01*
G01X0027406Y0017867D02*
G01X0027621Y0017867D01*
G01X0027621Y0017867D02*
G01X0027621Y0017364D01*
G01X0027453Y0017627D02*
G01X0027286Y0017364D01*
G01X0026796Y0017867D02*
G01X0026796Y0017364D01*
G01X0026796Y0017364D02*
G01X0027131Y0017867D01*
G01X0027131Y0017867D02*
G01X0027131Y0017364D01*
G01X0026012Y0017867D02*
G01X0026060Y0017843D01*
G01X0026060Y0017843D02*
G01X0026108Y0017795D01*
G01X0026108Y0017795D02*
G01X0026132Y0017747D01*
G01X0026132Y0017747D02*
G01X0026156Y0017675D01*
G01X0026156Y0017675D02*
G01X0026156Y0017555D01*
G01X0026156Y0017555D02*
G01X0026132Y0017484D01*
G01X0026132Y0017484D02*
G01X0026108Y0017436D01*
G01X0026108Y0017436D02*
G01X0026060Y0017389D01*
G01X0026060Y0017389D02*
G01X0026012Y0017364D01*
G01X0026012Y0017364D02*
G01X0025917Y0017364D01*
G01X0025917Y0017364D02*
G01X0025869Y0017389D01*
G01X0025869Y0017389D02*
G01X0025821Y0017436D01*
G01X0025821Y0017436D02*
G01X0025797Y0017484D01*
G01X0025797Y0017484D02*
G01X0025773Y0017555D01*
G01X0025773Y0017555D02*
G01X0025773Y0017675D01*
G01X0025773Y0017675D02*
G01X0025797Y0017747D01*
G01X0025797Y0017747D02*
G01X0025821Y0017795D01*
G01X0025821Y0017795D02*
G01X0025869Y0017843D01*
G01X0025869Y0017843D02*
G01X0025917Y0017867D01*
G01X0025917Y0017867D02*
G01X0026012Y0017867D01*
G01X0025619Y0017867D02*
G01X0025619Y0017364D01*
G01X0025284Y0017867D02*
G01X0025284Y0017364D01*
G01X0025619Y0017627D02*
G01X0025284Y0017627D01*
G01X0025130Y0017867D02*
G01X0025130Y0017364D01*
G01X0025130Y0017364D02*
G01X0024843Y0017364D01*
G01X0024202Y0017770D02*
G01X0024154Y0017795D01*
G01X0024154Y0017795D02*
G01X0024083Y0017866D01*
G01X0024083Y0017866D02*
G01X0024083Y0017364D01*
G01X0023904Y0017412D02*
G01X0023928Y0017388D01*
G01X0023928Y0017388D02*
G01X0023904Y0017364D01*
G01X0023904Y0017364D02*
G01X0023880Y0017388D01*
G01X0023880Y0017388D02*
G01X0023904Y0017412D01*
G01X0023701Y0017747D02*
G01X0023701Y0017770D01*
G01X0023701Y0017770D02*
G01X0023678Y0017819D01*
G01X0023678Y0017819D02*
G01X0023654Y0017842D01*
G01X0023654Y0017842D02*
G01X0023606Y0017866D01*
G01X0023606Y0017866D02*
G01X0023510Y0017866D01*
G01X0023510Y0017866D02*
G01X0023463Y0017842D01*
G01X0023463Y0017842D02*
G01X0023439Y0017819D01*
G01X0023439Y0017819D02*
G01X0023414Y0017770D01*
G01X0023414Y0017770D02*
G01X0023414Y0017723D01*
G01X0023414Y0017723D02*
G01X0023439Y0017675D01*
G01X0023439Y0017675D02*
G01X0023486Y0017604D01*
G01X0023486Y0017604D02*
G01X0023726Y0017364D01*
G01X0023726Y0017364D02*
G01X0023391Y0017364D01*
G54D13*
G01X0037538Y0017809D02*
G01X0037690Y0017963D01*
G01X0037690Y0017963D02*
G01X0037920Y0018039D01*
G01X0037920Y0018039D02*
G01X0038226Y0018039D01*
G01X0038226Y0018039D02*
G01X0038455Y0017963D01*
G01X0038455Y0017963D02*
G01X0038609Y0017809D01*
G01X0038609Y0017809D02*
G01X0038609Y0017657D01*
G01X0038609Y0017657D02*
G01X0038532Y0017503D01*
G01X0038532Y0017503D02*
G01X0038455Y0017427D01*
G01X0038455Y0017427D02*
G01X0038303Y0017351D01*
G01X0038303Y0017351D02*
G01X0037844Y0017197D01*
G01X0037844Y0017197D02*
G01X0037690Y0017121D01*
G01X0037690Y0017121D02*
G01X0037614Y0017043D01*
G01X0037614Y0017043D02*
G01X0037538Y0016891D01*
G01X0037538Y0016891D02*
G01X0037538Y0016661D01*
G01X0037538Y0016661D02*
G01X0037690Y0016509D01*
G01X0037690Y0016509D02*
G01X0037920Y0016431D01*
G01X0037920Y0016431D02*
G01X0038226Y0016431D01*
G01X0038226Y0016431D02*
G01X0038455Y0016509D01*
G01X0038455Y0016509D02*
G01X0038609Y0016661D01*
G01X0036050Y0018039D02*
G01X0037044Y0018039D01*
G01X0037044Y0018039D02*
G01X0037044Y0016431D01*
G01X0037044Y0016431D02*
G01X0036050Y0016431D01*
G01X0037044Y0017273D02*
G01X0036432Y0017273D01*
G01X0035402Y0018037D02*
G01X0034562Y0018037D01*
G01X0034562Y0018037D02*
G01X0035020Y0017425D01*
G01X0035020Y0017425D02*
G01X0034790Y0017425D01*
G01X0034790Y0017425D02*
G01X0034638Y0017349D01*
G01X0034638Y0017349D02*
G01X0034562Y0017273D01*
G01X0034562Y0017273D02*
G01X0034484Y0017043D01*
G01X0034484Y0017043D02*
G01X0034484Y0016891D01*
G01X0034484Y0016891D02*
G01X0034562Y0016661D01*
G01X0034562Y0016661D02*
G01X0034714Y0016507D01*
G01X0034714Y0016507D02*
G01X0034944Y0016431D01*
G01X0034944Y0016431D02*
G01X0035173Y0016431D01*
G01X0035173Y0016431D02*
G01X0035402Y0016507D01*
G01X0035402Y0016507D02*
G01X0035478Y0016585D01*
G01X0035478Y0016585D02*
G01X0035555Y0016737D01*
G01X0033530Y0018037D02*
G01X0033760Y0017961D01*
G01X0033760Y0017961D02*
G01X0033914Y0017731D01*
G01X0033914Y0017731D02*
G01X0033990Y0017349D01*
G01X0033990Y0017349D02*
G01X0033990Y0017119D01*
G01X0033990Y0017119D02*
G01X0033914Y0016737D01*
G01X0033914Y0016737D02*
G01X0033760Y0016507D01*
G01X0033760Y0016507D02*
G01X0033530Y0016431D01*
G01X0033530Y0016431D02*
G01X0033378Y0016431D01*
G01X0033378Y0016431D02*
G01X0033148Y0016507D01*
G01X0033148Y0016507D02*
G01X0032996Y0016737D01*
G01X0032996Y0016737D02*
G01X0032918Y0017119D01*
G01X0032918Y0017119D02*
G01X0032918Y0017349D01*
G01X0032918Y0017349D02*
G01X0032996Y0017731D01*
G01X0032996Y0017731D02*
G01X0033148Y0017961D01*
G01X0033148Y0017961D02*
G01X0033378Y0018037D01*
G01X0033378Y0018037D02*
G01X0033530Y0018037D01*
G01X0031964Y0018037D02*
G01X0032194Y0017961D01*
G01X0032194Y0017961D02*
G01X0032348Y0017731D01*
G01X0032348Y0017731D02*
G01X0032424Y0017349D01*
G01X0032424Y0017349D02*
G01X0032424Y0017119D01*
G01X0032424Y0017119D02*
G01X0032348Y0016737D01*
G01X0032348Y0016737D02*
G01X0032194Y0016507D01*
G01X0032194Y0016507D02*
G01X0031964Y0016431D01*
G01X0031964Y0016431D02*
G01X0031812Y0016431D01*
G01X0031812Y0016431D02*
G01X0031582Y0016507D01*
G01X0031582Y0016507D02*
G01X0031430Y0016737D01*
G01X0031430Y0016737D02*
G01X0031352Y0017119D01*
G01X0031352Y0017119D02*
G01X0031352Y0017349D01*
G01X0031352Y0017349D02*
G01X0031430Y0017731D01*
G01X0031430Y0017731D02*
G01X0031582Y0017961D01*
G01X0031582Y0017961D02*
G01X0031812Y0018037D01*
G01X0031812Y0018037D02*
G01X0031964Y0018037D01*
M02*
