G04 This is an RS-274x file exported by *
G04 gerbv version 2.6A *
G04 More information is available about gerbv at *
G04 http://gerbv.geda-project.org/ *
G04 --End of header info--*
%MOIN*%
%FSLAX34Y34*%
%IPPOS*%
G04 --Define apertures--*
%ADD10C,0.1200*%
%ADD11R,0.0760X0.0860*%
%ADD12C,0.0500*%
%ADD13R,0.0789X0.0237*%
%ADD14R,0.0513X0.0316*%
%ADD15C,0.0390*%
%ADD16C,0.2580*%
%ADD17C,0.0730*%
%ADD18C,0.0880*%
%ADD19C,0.1280*%
%ADD20C,0.0671*%
%ADD21R,0.0671X0.0671*%
%ADD22R,0.0769X0.0671*%
%ADD23R,0.0592X0.0671*%
%ADD24R,0.0474X0.0513*%
%ADD25R,0.0513X0.0474*%
%AMMACRO26*
4,1,4,0.101086,0.027086,0.027086,-0.101086,-0.101086,-0.027086,-0.027086,0.101086,0.101086,0.027086,0.000000*
%
%ADD26MACRO26*%
%AMMACRO27*
4,1,4,-0.056238,-0.011409,-0.018238,0.054409,0.056238,0.011409,0.018238,-0.054409,-0.056238,-0.011409,0.000000*
%
%ADD27MACRO27*%
%AMMACRO28*
4,1,4,0.050061,0.009812,0.016534,-0.048261,-0.050061,-0.009812,-0.016534,0.048261,0.050061,0.009812,0.000000*
%
%ADD28MACRO28*%
%AMMACRO29*
4,1,4,0.018238,0.054409,0.056238,-0.011409,-0.018238,-0.054409,-0.056238,0.011409,0.018238,0.054409,0.000000*
%
%ADD29MACRO29*%
%AMMACRO30*
4,1,4,-0.007649,-0.041994,-0.040192,0.014372,0.007649,0.041994,0.040192,-0.014372,-0.007649,-0.041994,0.000000*
%
%ADD30MACRO30*%
%AMMACRO31*
4,1,4,-0.033338,0.010373,0.007685,0.034059,0.033338,-0.010373,-0.007685,-0.034059,-0.033338,0.010373,0.000000*
%
%ADD31MACRO31*%
%AMMACRO32*
4,1,4,-0.016402,0.050458,0.051898,0.011025,0.016402,-0.050458,-0.051898,-0.011025,-0.016402,0.050458,0.000000*
%
%ADD32MACRO32*%
%AMMACRO33*
4,1,4,0.008862,0.043832,0.042389,-0.014241,-0.008862,-0.043832,-0.042389,0.014241,0.008862,0.043832,0.000000*
%
%ADD33MACRO33*%
G04 --Start main section--*
G54D25*
G01X0022118Y0014806D03*
G01X0022787Y0014806D03*
G01X0029787Y0013056D03*
G01X0030456Y0013056D03*
G54D24*
G01X0033412Y0012657D03*
G01X0033412Y0013326D03*
G54D25*
G01X0029787Y0013868D03*
G01X0030456Y0013868D03*
G01X0035537Y0015368D03*
G01X0034868Y0015368D03*
G54D23*
G01X0033975Y0014156D03*
G01X0034723Y0014156D03*
G54D25*
G01X0032325Y0014156D03*
G01X0032994Y0014156D03*
G54D24*
G01X0036037Y0013556D03*
G01X0036037Y0014225D03*
G54D27*
G01X0023724Y0023431D03*
G01X0023159Y0022452D03*
G54D22*
G01X0023850Y0014306D03*
G01X0023850Y0015684D03*
G54D28*
G01X0019757Y0018991D03*
G01X0020446Y0020184D03*
G54D29*
G01X0038507Y0026106D03*
G01X0037942Y0027084D03*
G54D11*
G01X0030206Y0015495D03*
G01X0031336Y0015495D03*
G54D30*
G01X0039349Y0020681D03*
G01X0038769Y0020346D03*
G54D25*
G01X0036412Y0015056D03*
G01X0037081Y0015056D03*
G01X0022787Y0014181D03*
G01X0022118Y0014181D03*
G01X0030474Y0012306D03*
G01X0029805Y0012306D03*
G54D31*
G01X0039762Y0023121D03*
G01X0040097Y0022541D03*
G01X0039012Y0024371D03*
G01X0039347Y0023791D03*
G54D32*
G01X0022413Y0021056D03*
G01X0021862Y0020101D03*
G54D24*
G01X0024832Y0013001D03*
G01X0024832Y0013670D03*
G54D33*
G01X0035412Y0029806D03*
G01X0036060Y0030180D03*
G01X0036600Y0029243D03*
G01X0035952Y0028869D03*
G54D25*
G01X0037724Y0014243D03*
G01X0037055Y0014243D03*
G01X0033724Y0015181D03*
G01X0033055Y0015181D03*
G01X0028287Y0014493D03*
G01X0028956Y0014493D03*
G01X0028807Y0015470D03*
G01X0028138Y0015470D03*
G01X0033877Y0015821D03*
G01X0033208Y0015821D03*
G54D14*
G01X0031475Y0013143D03*
G01X0031475Y0012769D03*
G01X0031475Y0012395D03*
G01X0032537Y0012395D03*
G01X0032537Y0013143D03*
G54D13*
G01X0028012Y0012727D03*
G01X0028012Y0012983D03*
G01X0028012Y0013239D03*
G01X0028012Y0013494D03*
G01X0025729Y0013494D03*
G01X0025729Y0013239D03*
G01X0025729Y0012983D03*
G01X0025729Y0012727D03*
G54D14*
G01X0035161Y0012657D03*
G01X0035161Y0013031D03*
G01X0035161Y0013405D03*
G01X0034098Y0013405D03*
G01X0034098Y0012657D03*
M02*
