G04 DipTrace 3.2.0.1*
G04 Top.gbr*
%MOIN*%
G04 #@! TF.FileFunction,Copper,L1,Top*
G04 #@! TF.Part,Single*
%AMOUTLINE0*
4,1,4,
0.095622,0.025622,
0.025622,-0.095622,
-0.095622,-0.025622,
-0.025622,0.095622,
0.095622,0.025622,
0*%
%AMOUTLINE3*
4,1,4,
-0.05214,-0.010311,
-0.01714,0.050311,
0.05214,0.010311,
0.01714,-0.050311,
-0.05214,-0.010311,
0*%
%AMOUTLINE6*
4,1,4,
0.044597,0.008348,
0.01507,-0.042797,
-0.044597,-0.008348,
-0.01507,0.042797,
0.044597,0.008348,
0*%
%AMOUTLINE9*
4,1,4,
0.01714,0.050311,
0.05214,-0.010311,
-0.01714,-0.050311,
-0.05214,0.010311,
0.01714,0.050311,
0*%
%AMOUTLINE12*
4,1,4,
-0.006185,-0.03653,
-0.034728,0.012908,
0.006185,0.03653,
0.034728,-0.012908,
-0.006185,-0.03653,
0*%
%AMOUTLINE15*
4,1,4,
-0.027874,0.008909,
0.00622,0.028594,
0.027874,-0.008909,
-0.00622,-0.028594,
-0.027874,0.008909,
0*%
%AMOUTLINE18*
4,1,4,
-0.014938,0.044993,
0.046434,0.00956,
0.014938,-0.044993,
-0.046434,-0.00956,
-0.014938,0.044993,
0*%
%AMOUTLINE21*
4,1,4,
0.007398,0.038367,
0.036925,-0.012777,
-0.007398,-0.038367,
-0.036925,0.012777,
0.007398,0.038367,
0*%
G04 #@! TA.AperFunction,Conductor*
%ADD10C,0.01*%
%ADD13C,0.012992*%
%ADD14C,0.02*%
%ADD15C,0.09*%
%ADD16C,0.013*%
%ADD18C,0.03*%
G04 #@! TA.AperFunction,CopperBalancing*
%ADD19C,0.025*%
G04 #@! TA.AperFunction,ComponentPad*
%ADD23C,0.12*%
%ADD24R,0.043307X0.03937*%
%ADD25R,0.03937X0.043307*%
%ADD26R,0.051181X0.059055*%
%ADD28R,0.068898X0.059055*%
G04 #@! TA.AperFunction,ComponentPad*
%ADD29R,0.07X0.08*%
%ADD32R,0.059055X0.059055*%
%ADD33C,0.059055*%
%ADD34C,0.08*%
%ADD35C,0.065*%
%ADD36C,0.25*%
%ADD37C,0.031*%
%ADD39R,0.043307X0.023622*%
%ADD40R,0.070866X0.015748*%
G04 #@! TA.AperFunction,ViaPad*
%ADD41C,0.04*%
%ADD43C,0.059*%
G04 #@! TA.AperFunction,ComponentPad*
%ADD92OUTLINE0*%
%ADD95OUTLINE3*%
%ADD98OUTLINE6*%
G04 #@! TA.AperFunction,ComponentPad*
%ADD101OUTLINE9*%
%ADD104OUTLINE12*%
%ADD107OUTLINE15*%
%ADD110OUTLINE18*%
%ADD113OUTLINE21*%
%FSLAX26Y26*%
G04*
G70*
G90*
G75*
G01*
G04 Top*
%LPD*%
X3409846Y1265673D2*
D13*
X3341164Y1265672D1*
X3147450Y1314323D2*
X3177449D1*
X3191760Y1300012D1*
Y1252133D1*
X3179147Y1239520D1*
X3147450D1*
D10*
Y1218071D1*
X3155449Y1210072D1*
X3316699D1*
X3341164Y1234537D1*
Y1265672D1*
X3409846Y1265673D2*
D13*
Y1222219D1*
X3409699Y1222072D1*
X3876888Y2034621D2*
X3868699Y2029072D1*
X3927699Y1932072D1*
X3147450Y1314323D2*
Y1360823D1*
X3154699Y1368072D1*
X2211770Y1480572D2*
D10*
X2159950D1*
X2116199Y1449322D1*
Y1393072D1*
X2148324Y1380572D1*
X2316199D1*
X2348699Y1361072D1*
X2415134D1*
X2479102Y1304169D1*
X2483199Y1300072D1*
X2572853Y1272672D2*
X2510600D1*
X2483199Y1300072D1*
X2520199Y1448072D2*
Y1272672D1*
X2572853D1*
X1928812Y1836860D2*
D14*
X1974802Y1899739D1*
D13*
X1975699Y1899072D1*
X1967034Y1899739D1*
D14*
X1921199Y1928017D1*
X1926799Y1996572D1*
X1969000Y2061873D1*
X1921199Y2242072D1*
X1983399Y2345572D1*
X2098629Y2351669D1*
D13*
X2091301Y2336816D1*
X3605982Y3017974D2*
D14*
X3561699Y3089072D1*
X2315699Y2687072D2*
D15*
X2143411D1*
X2011199Y2456072D1*
X2091301Y2336816D1*
X2978699Y1305572D2*
D13*
Y1232392D1*
X2980520Y1230572D1*
X2978699Y1305572D2*
X2898699D1*
X2880419Y1323853D1*
X2801199D1*
X3253749Y1239520D2*
D10*
X3275018D1*
X3291169Y1255671D1*
Y1335602D1*
X3222427Y1404345D1*
Y1405549D1*
X3232450Y1415572D1*
X3603699Y1355572D2*
Y1318072D1*
X3588702Y1303075D1*
X3516146D1*
X3459902D1*
Y1293075D1*
X3380690D1*
X3341164Y1332601D1*
X3339171D1*
X3328699Y1343072D1*
X3353699D1*
X3293699Y1403072D1*
Y1409892D1*
X3299379Y1415572D1*
X3045629Y1305572D2*
D16*
Y1386823D1*
X3147450Y1276921D2*
D10*
X3099861D1*
Y1261921D1*
X3089280D1*
X3045629Y1305572D1*
X3099861Y1261921D2*
Y1225911D1*
X3137699Y1188072D1*
X3425699D1*
X3459902Y1222274D1*
Y1293075D1*
X3387699Y1582072D2*
D13*
X3442699D1*
X3301169Y1461899D2*
Y1417362D1*
X3299379Y1415572D1*
X3045629Y1386823D2*
Y1349572D1*
X2892699D1*
X2892571Y1349444D1*
X2801199D1*
X2278699Y1480572D2*
D10*
Y1549323D1*
X2297744Y1568367D1*
X2384950D1*
X2720199Y1448072D2*
D13*
X2827450D1*
X2828699Y1449322D1*
X2384950Y1568367D2*
X2392594D1*
D10*
X2440650Y1624656D1*
X2711016D1*
X2760341Y1575331D1*
Y1488214D1*
X2720199Y1448072D1*
D13*
Y1371272D1*
X2742028Y1349444D1*
X2801199D1*
X2622438Y2836631D2*
X2784759D1*
X2841199Y2893072D1*
X3393699D1*
X3394699Y2894072D1*
X2531699Y2458072D2*
D18*
X2438699Y2435072D1*
X2372449Y2343072D1*
X2531699Y2458072D2*
D14*
Y2627072D1*
X2700699Y2796072D1*
X3306699D1*
X3381904Y2720867D1*
X3494699D1*
X3043518Y4352857D2*
X3090507D1*
X3141199Y4280795D1*
Y3156091D1*
Y3043072D1*
X3228699Y2955572D1*
X3441199D1*
X3491199Y2905572D1*
Y2853970D1*
X3444699Y2807470D1*
X1114392Y1147474D2*
X1091199Y1068072D1*
X1141199Y980572D1*
X1197450Y968072D1*
X1853699Y1355572D1*
X2296461D1*
X2353224Y1323209D1*
X2495951Y1141022D1*
X3537440D1*
X3673911Y1362249D1*
X4138066D1*
X4629818Y1078734D1*
X4855262D1*
X4809699Y1191072D1*
Y1293072D1*
X4251699Y1602072D1*
X4026699Y1998072D1*
Y2094072D1*
X4137699Y2253072D1*
X3615689Y3156091D1*
X3141199D1*
X2022400Y2217478D2*
X2129383D1*
X2241280Y2105581D1*
X2895629Y1449322D2*
D13*
Y1426143D1*
X2916199Y1405572D1*
X3372411Y1518143D2*
X3428655D1*
X3397450Y1415572D2*
D10*
Y1436860D1*
X3372411Y1461899D1*
Y1518143D1*
X2153789Y1418154D2*
D13*
X2211689D1*
X2211770Y1418072D1*
X3869949Y2368322D2*
X3923877D1*
X3934664Y2379109D1*
X2520199Y1548072D2*
D10*
X2568783Y1499488D1*
X2640100D1*
X2661100Y1478488D1*
Y1361846D1*
X2623106Y1323853D1*
X2572853D1*
Y1349444D2*
Y1400726D1*
X2620199Y1448072D1*
X2186161Y2010114D2*
D14*
X2052888D1*
D13*
X2044597Y2018406D1*
X2278699Y1418072D2*
D10*
X2372450D1*
X2384950Y1430572D1*
X3844699Y2114650D2*
D13*
X3905962D1*
X3934852Y2068085D1*
X3794699Y2201252D2*
X3841699Y2258072D1*
X3976199Y2312072D1*
X3744699Y2287856D2*
X3769699Y2384072D1*
X3901199Y2437072D1*
X2303699Y2161823D2*
D18*
Y2232962D1*
X2315949Y2245211D1*
X3020644Y1549516D2*
X3013812Y1574613D1*
D14*
X2976659D1*
X2880199Y1671072D1*
X2484699D1*
X2349699Y1806072D1*
Y2115823D1*
X2303699Y2161823D1*
X3133644Y1549516D2*
Y1579203D1*
X3183034D1*
X3243699Y1646903D1*
X3611085D1*
X3993699Y1889003D1*
Y2118072D1*
X4086699Y2244072D1*
X3894199Y2571072D1*
X3865168Y2619646D1*
X3850726Y2610566D1*
X3595168Y2886920D2*
X3541199Y2980572D1*
X3659950Y2924322D2*
X3792699Y2711072D1*
D13*
X3794226Y2708427D1*
X3269699Y1582072D2*
X3320770D1*
X3771699Y1473072D2*
Y1425071D1*
X3772449Y1424322D1*
X3269699Y1582072D2*
Y1554728D1*
X3192499Y1477528D1*
X2971917D1*
X2934350Y1515094D1*
X2880711Y1547049D1*
X2483199Y1367001D2*
D10*
X2494629D1*
X2496100Y1368472D1*
X2478100D1*
X2468500Y1378072D1*
Y1580572D1*
X2488862Y1600934D1*
X2679711D1*
X2725169Y1548072D1*
X2720199D1*
X2784972Y1211925D2*
D13*
Y1272672D1*
X2801199D1*
X3944950Y2237072D2*
X3992627D1*
X4009664Y2254109D1*
X2620199Y1548072D2*
X2639602Y1528669D1*
D10*
X2679592Y1488680D1*
Y1340442D1*
X2637412Y1298262D1*
X2572853D1*
X2813299Y1603281D2*
D13*
Y1547531D1*
X2813782Y1547049D1*
Y1531654D1*
X2852693Y1492743D1*
X2915727D1*
X2975139Y1433331D1*
Y1390383D1*
X2978699Y1386823D1*
Y1426718D1*
X3154190D1*
X3266585Y1314323D1*
X3253749D1*
X3305482Y1518143D2*
X3280429D1*
X3216009Y1453723D1*
X3187125D1*
X3154190Y1426718D1*
X3603699Y1422501D2*
X3703699D1*
X3705520Y1424322D1*
X3603699Y1422501D2*
X3564239D1*
X3528644Y1386907D1*
Y1352975D1*
X3516146Y1340476D1*
X3486770Y1536822D2*
D10*
Y1495450D1*
Y1430089D1*
X3472253Y1415572D1*
D13*
Y1386626D1*
X3426104Y1340476D1*
X3409846D1*
X3641199Y1505572D2*
D10*
X3603564D1*
X3591138Y1493146D1*
X3489075D1*
X3486770Y1495450D1*
X3047449Y1230572D2*
Y1222072D1*
X3075699D1*
X3129699Y1168072D1*
X3445699D1*
X3516146Y1238518D1*
Y1265673D1*
X3708129Y1505572D2*
D13*
Y1532394D1*
X3697450Y1543072D1*
X3559950D1*
X3553699Y1536822D1*
X3516146Y1265673D2*
X3567699D1*
Y1266072D1*
X3553642Y1586886D2*
X3553699Y1586828D1*
Y1536822D1*
D41*
X3154699Y1368072D3*
X3428655Y1518143D3*
X2916199Y1405572D3*
X2784972Y1211925D3*
X2153789Y1418154D3*
X3567699Y1266072D3*
X3553642Y1586886D3*
X3301169Y1461899D3*
X3442699Y1582072D3*
D43*
X2531699Y2458072D3*
D41*
X1928812Y1836860D3*
X3409699Y1222072D3*
D43*
X3927699Y1932072D3*
X2303699Y2161823D3*
X3869949Y2368322D3*
X3944950Y2237072D3*
D41*
X3269699Y1582072D3*
X2960474Y1649322D3*
X3057411D3*
X3771699Y1473072D3*
X2813299Y1603281D3*
D43*
X3561699Y3089072D3*
X443699Y4655703D2*
D19*
X2663724D1*
X443699Y4630835D2*
X2663724D1*
X443699Y4605966D2*
X2663724D1*
X443699Y4581097D2*
X2663724D1*
X443699Y4556228D2*
X663626D1*
X743773D2*
X2663724D1*
X443699Y4531360D2*
X638480D1*
X768919D2*
X2663724D1*
X443699Y4506491D2*
X628958D1*
X778441D2*
X2663724D1*
X443699Y4481622D2*
X628617D1*
X778782D2*
X2663724D1*
X443699Y4456753D2*
X637308D1*
X770091D2*
X2663724D1*
X443699Y4431885D2*
X660501D1*
X746898D2*
X2663724D1*
X443699Y4407016D2*
X2663724D1*
X443699Y4382147D2*
X2663724D1*
X443699Y4357278D2*
X2663724D1*
X443699Y4332409D2*
X2663724D1*
X443699Y4307541D2*
X2663724D1*
X443699Y4282672D2*
X2663724D1*
X443699Y4257803D2*
X2663724D1*
X443699Y4232934D2*
X2663724D1*
X443699Y4208066D2*
X2663724D1*
X443699Y4183197D2*
X2663724D1*
X443699Y4158328D2*
X2663724D1*
X443699Y4133459D2*
X2663724D1*
X443699Y4108591D2*
X2663724D1*
X443699Y4083722D2*
X2663724D1*
X443699Y4058853D2*
X2663724D1*
X443699Y4033984D2*
X2663724D1*
X443699Y4009115D2*
X2663724D1*
X443699Y3984247D2*
X2663724D1*
X443699Y3959378D2*
X2663724D1*
X443699Y3934509D2*
X2663724D1*
X443699Y3909640D2*
X2663724D1*
X443699Y3884772D2*
X2663724D1*
X443699Y3859903D2*
X2663724D1*
X443699Y3835034D2*
X2663724D1*
X443699Y3810165D2*
X2663724D1*
X443699Y3785297D2*
X2663724D1*
X443699Y3760428D2*
X2663724D1*
X443699Y3735559D2*
X2663724D1*
X443699Y3710690D2*
X2663724D1*
X443699Y3685822D2*
X2663724D1*
X443699Y3660953D2*
X2663724D1*
X443699Y3636084D2*
X2663724D1*
X443699Y3611215D2*
X2663724D1*
X443699Y3586346D2*
X2651224D1*
X443699Y3561478D2*
X2636869D1*
X443699Y3536609D2*
X2622513D1*
X443699Y3511740D2*
X2608157D1*
X443699Y3486871D2*
X2593802D1*
X443699Y3462003D2*
X2579446D1*
X443699Y3437134D2*
X2565091D1*
X443699Y3412265D2*
X2550736D1*
X443699Y3387396D2*
X2536381D1*
X443699Y3362528D2*
X2522025D1*
X443699Y3337659D2*
X2208988D1*
X443699Y3312790D2*
X2195462D1*
X443699Y3287921D2*
X2181888D1*
X443699Y3263052D2*
X2168314D1*
X443699Y3238184D2*
X2154740D1*
X443699Y3213315D2*
X2141165D1*
X443699Y3188446D2*
X2127640D1*
X443699Y3163577D2*
X2114066D1*
X443699Y3138709D2*
X2100491D1*
X443699Y3113840D2*
X2086917D1*
X443699Y3088971D2*
X2073343D1*
X443699Y3064102D2*
X2059818D1*
X443699Y3039234D2*
X2046243D1*
X443699Y3014365D2*
X2032669D1*
X443699Y2989496D2*
X2019094D1*
X443699Y2964627D2*
X2005521D1*
X443699Y2939759D2*
X1991995D1*
X443699Y2914890D2*
X1978421D1*
X443699Y2890021D2*
X1964846D1*
X443699Y2865152D2*
X1951273D1*
X443699Y2840283D2*
X1937698D1*
X443699Y2815415D2*
X1924125D1*
X443699Y2790546D2*
X1910598D1*
X443699Y2765677D2*
X1897025D1*
X443699Y2740808D2*
X1883450D1*
X443699Y2715940D2*
X1869877D1*
X443699Y2691071D2*
X1856302D1*
X443699Y2666202D2*
X1842777D1*
X443699Y2641333D2*
X1829202D1*
X443699Y2616465D2*
X1815629D1*
X443699Y2591596D2*
X1802054D1*
X443699Y2566727D2*
X1788480D1*
X443699Y2541858D2*
X1774954D1*
X443699Y2516990D2*
X1761381D1*
X443699Y2492121D2*
X1747513D1*
X443699Y2467252D2*
X1732377D1*
X443699Y2442383D2*
X1718021D1*
X443699Y2417514D2*
X1703665D1*
X443699Y2392646D2*
X1689310D1*
X443699Y2367777D2*
X1676810D1*
X443699Y2342908D2*
X1666409D1*
X443699Y2318039D2*
X1652835D1*
X443699Y2293171D2*
X1639310D1*
X443699Y2268302D2*
X1625736D1*
X443699Y2243433D2*
X1612161D1*
X443699Y2218564D2*
X1624466D1*
X443699Y2193696D2*
X1636917D1*
X443699Y2168827D2*
X1649369D1*
X443699Y2143958D2*
X1661770D1*
X443699Y2119089D2*
X1674222D1*
X443699Y2094220D2*
X1686673D1*
X443699Y2069352D2*
X1699075D1*
X443699Y2044483D2*
X1711526D1*
X443699Y2019614D2*
X1700491D1*
X443699Y1994745D2*
X1688041D1*
X443699Y1969877D2*
X1675638D1*
X443699Y1945008D2*
X1663186D1*
X443699Y1920139D2*
X1650736D1*
X443699Y1895270D2*
X1638333D1*
X443699Y1870402D2*
X1625882D1*
X443699Y1845533D2*
X1613430D1*
X443699Y1820664D2*
X1601029D1*
X443699Y1795795D2*
X1581058D1*
X443919Y1770927D2*
X1538430D1*
X457591Y1746058D2*
X1495804D1*
X471262Y1721189D2*
X1453177D1*
X484934Y1696320D2*
X1410550D1*
X498606Y1671451D2*
X1367923D1*
X512278Y1646583D2*
X1325247D1*
X525950Y1621714D2*
X1282621D1*
X539622Y1596845D2*
X1239993D1*
X553294Y1571976D2*
X1197366D1*
X567014Y1547108D2*
X1154740D1*
X580686Y1522239D2*
X1112113D1*
X594358Y1497370D2*
X1069486D1*
X608030Y1472501D2*
X1026858D1*
X621702Y1447633D2*
X984232D1*
X635374Y1422764D2*
X941556D1*
X649046Y1397895D2*
X898929D1*
X662718Y1373026D2*
X856302D1*
X676438Y1348157D2*
X813675D1*
X690110Y1323289D2*
X771049D1*
X703782Y1298420D2*
X728421D1*
X776972Y4487306D2*
X775169Y4475913D1*
X771605Y4464945D1*
X766369Y4454668D1*
X759589Y4445337D1*
X751434Y4437182D1*
X742104Y4430403D1*
X731827Y4425167D1*
X720858Y4421602D1*
X709466Y4419799D1*
X697933D1*
X686541Y4421602D1*
X675572Y4425167D1*
X665295Y4430403D1*
X655965Y4437182D1*
X647810Y4445337D1*
X641030Y4454668D1*
X635794Y4464945D1*
X632230Y4475913D1*
X630427Y4487306D1*
Y4498839D1*
X632230Y4510231D1*
X635794Y4521199D1*
X641030Y4531476D1*
X647810Y4540807D1*
X655965Y4548962D1*
X665295Y4555741D1*
X675572Y4560978D1*
X686541Y4564542D1*
X697933Y4566345D1*
X709466D1*
X720858Y4564542D1*
X731827Y4560978D1*
X742104Y4555741D1*
X751434Y4548962D1*
X759589Y4540807D1*
X766369Y4531476D1*
X771605Y4521199D1*
X775169Y4510231D1*
X776972Y4498839D1*
Y4487306D1*
X1697799Y2403072D2*
X1745407Y2485350D1*
X1750308Y2492518D1*
X1785324Y2556322D1*
X2218797Y3350701D1*
X2221639Y3353387D1*
X2225172Y3355064D1*
X2229169Y3355559D1*
X2361659Y3355572D1*
X2375331Y3357218D1*
X2395584Y3358062D1*
X2521962D1*
X2666198Y3607949D1*
X2666199Y4680572D1*
X441199D1*
Y1771245D1*
X708496Y1285289D1*
X1594215Y1802010D1*
X1714739Y2043101D1*
X1616782Y2239299D1*
X1616199Y2243167D1*
X1616841Y2247025D1*
X1623711Y2260031D1*
X1671293Y2347264D1*
X1673538Y2353911D1*
X1682154Y2374286D1*
X1691550Y2392247D1*
X1697799Y2403072D1*
X3368699Y4655703D2*
X5538724D1*
X3368699Y4630835D2*
X5538724D1*
X3368699Y4605966D2*
X5538724D1*
X3368699Y4581097D2*
X5538724D1*
X3368699Y4556228D2*
X5538724D1*
X3368699Y4531360D2*
X5538724D1*
X3368699Y4506491D2*
X5538724D1*
X3368699Y4481622D2*
X5538724D1*
X3368699Y4456753D2*
X5538724D1*
X3368699Y4431885D2*
X5538724D1*
X3368699Y4407016D2*
X5538724D1*
X3368699Y4382147D2*
X5538724D1*
X3368699Y4357278D2*
X5538724D1*
X3368699Y4332409D2*
X5538724D1*
X3368699Y4307541D2*
X5538724D1*
X3368699Y4282672D2*
X5538724D1*
X3368699Y4257803D2*
X5538724D1*
X3368699Y4232934D2*
X5538724D1*
X3368699Y4208066D2*
X5538724D1*
X3368699Y4183197D2*
X5538724D1*
X3368699Y4158328D2*
X5538724D1*
X3368699Y4133459D2*
X5538724D1*
X3368699Y4108591D2*
X5538724D1*
X3368699Y4083722D2*
X5538724D1*
X3368699Y4058853D2*
X5538724D1*
X3368699Y4033984D2*
X5538724D1*
X3368699Y4009115D2*
X5538724D1*
X3368699Y3984247D2*
X5538724D1*
X3368699Y3959378D2*
X5538724D1*
X3368699Y3934509D2*
X5538724D1*
X3368699Y3909640D2*
X5538724D1*
X3368699Y3884772D2*
X5538724D1*
X3368699Y3859903D2*
X5538724D1*
X3368699Y3835034D2*
X5538724D1*
X3368699Y3810165D2*
X5538724D1*
X3368699Y3785297D2*
X5538724D1*
X3368699Y3760428D2*
X5538724D1*
X3368699Y3735559D2*
X5538724D1*
X3368699Y3710690D2*
X5538724D1*
X3368699Y3685822D2*
X5538724D1*
X3368699Y3660953D2*
X5538724D1*
X3374974Y3636084D2*
X5538724D1*
X3389915Y3611215D2*
X5538724D1*
X3404808Y3586346D2*
X5538724D1*
X3419749Y3561478D2*
X5538724D1*
X3434642Y3536609D2*
X5538724D1*
X3449583Y3511740D2*
X5538724D1*
X3464476Y3486871D2*
X5538724D1*
X3479417Y3462003D2*
X5538724D1*
X3494358Y3437134D2*
X5538724D1*
X3509251Y3412265D2*
X5538724D1*
X3774094Y3387396D2*
X5538724D1*
X3788743Y3362528D2*
X5538724D1*
X3803441Y3337659D2*
X5538724D1*
X3818138Y3312790D2*
X5538724D1*
X3832835Y3287921D2*
X5538724D1*
X3847533Y3263052D2*
X5538724D1*
X3862230Y3238184D2*
X5538724D1*
X3876927Y3213315D2*
X5538724D1*
X3891625Y3188446D2*
X5538724D1*
X3906322Y3163577D2*
X5538724D1*
X3921018Y3138709D2*
X5538724D1*
X3935717Y3113840D2*
X5538724D1*
X3950413Y3088971D2*
X5538724D1*
X3965110Y3064102D2*
X5538724D1*
X3979808Y3039234D2*
X5538724D1*
X3994505Y3014365D2*
X5538724D1*
X4009202Y2989496D2*
X5538724D1*
X4023900Y2964627D2*
X5538724D1*
X4038597Y2939759D2*
X5538724D1*
X4053294Y2914890D2*
X5538724D1*
X4067991Y2890021D2*
X5538724D1*
X4082689Y2865152D2*
X5538724D1*
X4097386Y2840283D2*
X5538724D1*
X4112083Y2815415D2*
X5538724D1*
X4126781Y2790546D2*
X5538724D1*
X4141429Y2765677D2*
X5538724D1*
X4156126Y2740808D2*
X5538724D1*
X4170824Y2715940D2*
X5538724D1*
X4185521Y2691071D2*
X5538724D1*
X4200218Y2666202D2*
X5538724D1*
X4214915Y2641333D2*
X5538724D1*
X4229613Y2616465D2*
X5538724D1*
X4244310Y2591596D2*
X5538724D1*
X4259007Y2566727D2*
X5538724D1*
X4273705Y2541858D2*
X5538724D1*
X4288402Y2516990D2*
X5538724D1*
X4303098Y2492121D2*
X5538724D1*
X4317797Y2467252D2*
X5538724D1*
X4332493Y2442383D2*
X5538724D1*
X4347190Y2417514D2*
X5538724D1*
X4361888Y2392646D2*
X5538724D1*
X4376585Y2367777D2*
X5538724D1*
X4391282Y2342908D2*
X5538724D1*
X4405980Y2318039D2*
X5538724D1*
X4419701Y2293171D2*
X5538724D1*
X4409740Y2268302D2*
X5538724D1*
X4399827Y2243433D2*
X5538724D1*
X4389866Y2218564D2*
X5538724D1*
X4379906Y2193696D2*
X5538724D1*
X4369945Y2168827D2*
X5538724D1*
X4360033Y2143958D2*
X5538724D1*
X4350072Y2119089D2*
X5538724D1*
X4340110Y2094220D2*
X5538724D1*
X4330198Y2069352D2*
X5538724D1*
X4320238Y2044483D2*
X5538724D1*
X4331908Y2019614D2*
X5538724D1*
X4344358Y1994745D2*
X5538724D1*
X4356761Y1969877D2*
X5538724D1*
X4369213Y1945008D2*
X5538724D1*
X4381663Y1920139D2*
X5538724D1*
X4394066Y1895270D2*
X5538724D1*
X4406517Y1870402D2*
X5538724D1*
X4418969Y1845533D2*
X5538724D1*
X4431370Y1820664D2*
X5538724D1*
X4443822Y1795795D2*
X5538724D1*
X4456224Y1770927D2*
X5538724D1*
X4475755Y1746058D2*
X5538724D1*
X4518041Y1721189D2*
X5538724D1*
X4560325Y1696320D2*
X5538724D1*
X4602610Y1671451D2*
X5538724D1*
X4644896Y1646583D2*
X5538675D1*
X4687181Y1621714D2*
X5523098D1*
X4729417Y1596845D2*
X5507572D1*
X4771702Y1571976D2*
X5492045D1*
X4813988Y1547108D2*
X5476469D1*
X4856273Y1522239D2*
X5460941D1*
X4898558Y1497370D2*
X5445413D1*
X4940843Y1472501D2*
X5429837D1*
X4983079Y1447633D2*
X5414310D1*
X5025365Y1422764D2*
X5398782D1*
X5067650Y1397895D2*
X5383206D1*
X5109934Y1373026D2*
X5367678D1*
X5152220Y1348157D2*
X5352152D1*
X5194505Y1323289D2*
X5336575D1*
X5236741Y1298420D2*
X5321049D1*
X5279026Y1273551D2*
X5305521D1*
X5528699Y4680572D2*
X3366199D1*
Y3646539D1*
X3510803Y3405529D1*
X3755655Y3405419D1*
X3759374Y3404210D1*
X3762538Y3401911D1*
X3764461Y3399432D1*
X4415323Y2297669D1*
X4416175Y2293853D1*
X4415806Y2289959D1*
X4396736Y2242007D1*
X4317374Y2043601D1*
X4463224Y1751972D1*
X5299539Y1260021D1*
X5541214Y1646681D1*
X5541199Y4680572D1*
X5528699D1*
X1914671Y1105703D2*
X2205911D1*
X3793822D2*
X4145072D1*
X1869896Y1080835D2*
X2218362D1*
X3775169D2*
X4192045D1*
X1825169Y1055966D2*
X2230765D1*
X3756517D2*
X4239017D1*
X1780394Y1031097D2*
X2243217D1*
X3737865D2*
X4285990D1*
X1735618Y1006228D2*
X2255667D1*
X3719213D2*
X4332962D1*
X1690843Y981360D2*
X2268070D1*
X3700560D2*
X4379934D1*
X1646117Y956491D2*
X2280521D1*
X3681908D2*
X4426908D1*
X1601341Y931622D2*
X2292972D1*
X3663255D2*
X4473881D1*
X1556566Y906753D2*
X4520853D1*
X1511790Y881885D2*
X4567825D1*
X1467014Y857016D2*
X4614798D1*
X1422289Y832147D2*
X4661770D1*
X1377513Y807278D2*
X4708743D1*
X1332738Y782409D2*
X4755717D1*
X1287962Y757541D2*
X4465921D1*
X4541478D2*
X4802689D1*
X1243236Y732672D2*
X4439261D1*
X4568138D2*
X4849661D1*
X1198461Y707803D2*
X4429202D1*
X4578197D2*
X4896682D1*
X1153685Y682934D2*
X4428421D1*
X4578978D2*
X4933694D1*
X1108909Y658066D2*
X4436575D1*
X4570824D2*
X4923734D1*
X1075121Y633197D2*
X4458549D1*
X4548850D2*
X4913773D1*
X1087522Y608328D2*
X4903861D1*
X1099974Y583459D2*
X4893900D1*
X1112425Y558591D2*
X4883938D1*
X1124827Y533722D2*
X4873978D1*
X1137278Y508853D2*
X4864066D1*
X1149730Y483984D2*
X4854105D1*
X1162133Y459115D2*
X4844144D1*
X4576972Y687306D2*
X4575169Y675913D1*
X4571605Y664945D1*
X4566369Y654668D1*
X4559589Y645337D1*
X4551434Y637182D1*
X4542104Y630403D1*
X4531827Y625167D1*
X4520858Y621602D1*
X4509466Y619799D1*
X4497933D1*
X4486541Y621602D1*
X4475572Y625167D1*
X4465295Y630403D1*
X4455965Y637182D1*
X4447810Y645337D1*
X4441030Y654668D1*
X4435794Y664945D1*
X4432230Y675913D1*
X4430427Y687306D1*
Y698839D1*
X4432230Y710231D1*
X4435794Y721199D1*
X4441030Y731476D1*
X4447810Y740807D1*
X4455965Y748962D1*
X4465295Y755741D1*
X4475572Y760978D1*
X4486541Y764542D1*
X4497933Y766345D1*
X4509466D1*
X4520858Y764542D1*
X4531827Y760978D1*
X4542104Y755741D1*
X4551434Y748962D1*
X4559589Y740807D1*
X4566369Y731476D1*
X4571605Y721199D1*
X4575169Y710231D1*
X4576972Y698839D1*
Y687306D1*
X1070230Y637962D2*
X1161446Y455531D1*
X4845252Y455572D1*
X4937933Y687314D1*
X4100573Y1130584D1*
X3809900Y1130572D1*
X3662403Y934100D1*
X3659205Y931849D1*
X3655467Y930698D1*
X3616199Y930572D1*
X2301744Y930726D1*
X2298025Y931934D1*
X2294861Y934234D1*
X2292394Y937762D1*
X2195953Y1130613D1*
X1956873Y1130572D1*
X1070203Y637942D1*
X468699Y1155966D2*
X485843D1*
X468699Y1131097D2*
X499857D1*
X468699Y1106228D2*
X513822D1*
X468699Y1081360D2*
X527835D1*
X468699Y1056491D2*
X541801D1*
X468699Y1031622D2*
X555814D1*
X468699Y1006753D2*
X569778D1*
X468699Y981885D2*
X583793D1*
X468699Y957016D2*
X597757D1*
X468699Y932147D2*
X611770D1*
X468699Y907278D2*
X625736D1*
X468699Y882409D2*
X639749D1*
X468699Y857541D2*
X653714D1*
X468699Y832672D2*
X667728D1*
X468699Y807803D2*
X681693D1*
X468699Y782934D2*
X695706D1*
X468699Y758066D2*
X709671D1*
X468699Y733197D2*
X723685D1*
X468699Y708328D2*
X737650D1*
X468699Y683459D2*
X751663D1*
X468699Y658591D2*
X765629D1*
X468699Y633722D2*
X779593D1*
X468699Y608853D2*
X793606D1*
X468699Y583984D2*
X807572D1*
X468699Y559115D2*
X821585D1*
X468699Y534247D2*
X835550D1*
X468699Y509378D2*
X849564D1*
X468699Y484509D2*
X863529D1*
X468699Y459640D2*
X877542D1*
X466199Y1195367D2*
Y455572D1*
X882362D1*
X466196Y1195360D1*
X5521556Y1155966D2*
X5538724D1*
X5507542Y1131097D2*
X5538724D1*
X5493577Y1106228D2*
X5538724D1*
X5479564Y1081360D2*
X5538724D1*
X5465598Y1056491D2*
X5538724D1*
X5451585Y1031622D2*
X5538724D1*
X5437621Y1006753D2*
X5538724D1*
X5423606Y981885D2*
X5538724D1*
X5409642Y957016D2*
X5538724D1*
X5395629Y932147D2*
X5538724D1*
X5381663Y907278D2*
X5538724D1*
X5367650Y882409D2*
X5538724D1*
X5353685Y857541D2*
X5538724D1*
X5339671Y832672D2*
X5538724D1*
X5325706Y807803D2*
X5538724D1*
X5311693Y782934D2*
X5538724D1*
X5297728Y758066D2*
X5538724D1*
X5283714Y733197D2*
X5538724D1*
X5269749Y708328D2*
X5538724D1*
X5255736Y683459D2*
X5538724D1*
X5241770Y658591D2*
X5538724D1*
X5227806Y633722D2*
X5538724D1*
X5213793Y608853D2*
X5538724D1*
X5199827Y583984D2*
X5538724D1*
X5185814Y559115D2*
X5538724D1*
X5171849Y534247D2*
X5538724D1*
X5157835Y509378D2*
X5538724D1*
X5143870Y484509D2*
X5538724D1*
X5129857Y459640D2*
X5538724D1*
X5541199Y468072D2*
Y1195367D1*
X5125059Y455547D1*
X5541199Y455572D1*
Y468072D1*
X468699Y5055703D2*
X5538724D1*
X468699Y5030835D2*
X5538724D1*
X468699Y5005966D2*
X5538724D1*
X468699Y4981097D2*
X5538724D1*
X468699Y4956228D2*
X5538724D1*
X468699Y4931360D2*
X5538724D1*
X468699Y4906491D2*
X5538724D1*
X466199Y5068072D2*
Y4905572D1*
X5541199D1*
Y5080572D1*
X466199D1*
Y5068072D1*
X2855798Y4385907D2*
X2905163D1*
X3121304D2*
X3147201D1*
X2855798Y4361038D2*
X2896801D1*
X2855798Y4336169D2*
X2898416D1*
X2855798Y4311301D2*
X2911012D1*
X2855798Y4286432D2*
X3081533D1*
X2855798Y4261563D2*
X3095205D1*
X2855798Y4236694D2*
X3095205D1*
X2855798Y4211825D2*
X3095205D1*
X2855798Y4186957D2*
X3095205D1*
X2855798Y4162088D2*
X3095205D1*
X2855798Y4137219D2*
X3095205D1*
X2855798Y4112350D2*
X3095205D1*
X2855798Y4087482D2*
X3095205D1*
X2855833Y4062613D2*
X3095205D1*
X2855833Y4037744D2*
X3095205D1*
X2855833Y4012875D2*
X3095205D1*
X2855833Y3988007D2*
X3095205D1*
X2855833Y3963138D2*
X3095205D1*
X2855833Y3938269D2*
X3095205D1*
X2855833Y3913400D2*
X3095205D1*
X2855833Y3888531D2*
X3095205D1*
X2855833Y3863663D2*
X3095205D1*
X2855833Y3838794D2*
X3095205D1*
X2855833Y3813925D2*
X3095205D1*
X2855833Y3789056D2*
X3095205D1*
X2855833Y3764188D2*
X3095205D1*
X2855833Y3739319D2*
X3095205D1*
X2855869Y3714450D2*
X3095205D1*
X2855869Y3689581D2*
X3095205D1*
X2855869Y3664713D2*
X3095205D1*
X2855869Y3639844D2*
X3095205D1*
X2855869Y3614975D2*
X3095205D1*
X2855869Y3590106D2*
X3095205D1*
X2855869Y3565238D2*
X3095205D1*
X2855869Y3540369D2*
X3095205D1*
X2855869Y3515500D2*
X3095205D1*
X2846396Y3490631D2*
X3095205D1*
X2832329Y3465762D2*
X3095205D1*
X3187188D2*
X3202031D1*
X2818262Y3440894D2*
X3095205D1*
X3187188D2*
X3215811D1*
X2804232Y3416025D2*
X3095205D1*
X3187188D2*
X3229591D1*
X2790165Y3391156D2*
X3095205D1*
X3187188D2*
X3243370D1*
X2776098Y3366287D2*
X3095205D1*
X3187188D2*
X3257150D1*
X2762033Y3341419D2*
X3095205D1*
X3187188D2*
X3270929D1*
X2748001Y3316550D2*
X3095205D1*
X3187188D2*
X3284673D1*
X2733934Y3291681D2*
X3095205D1*
X3187188D2*
X3298453D1*
X2719869Y3266812D2*
X3095205D1*
X3187188D2*
X3312232D1*
X2705837Y3241944D2*
X3095205D1*
X3187188D2*
X3326012D1*
X2691770Y3217075D2*
X3095205D1*
X3187188D2*
X3339791D1*
X2677705Y3192206D2*
X3095205D1*
X2663673Y3167337D2*
X3095205D1*
X2371720Y3142469D2*
X3095205D1*
X2357474Y3117600D2*
X3095205D1*
X2343228Y3092731D2*
X3095205D1*
X3187188D2*
X3496318D1*
X2328982Y3067862D2*
X2412652D1*
X2512745D2*
X3095205D1*
X3187188D2*
X3499871D1*
X2314736Y3042993D2*
X2397617D1*
X2527781D2*
X3095205D1*
X3205310D2*
X3516234D1*
X2300526Y3018125D2*
X2394315D1*
X2531081D2*
X3103063D1*
X3230177D2*
X3479238D1*
X2286280Y2993256D2*
X2367869D1*
X2524587D2*
X3126999D1*
X2272034Y2968387D2*
X2356457D1*
X2503594D2*
X2641556D1*
X2682083D2*
X3151866D1*
X2257787Y2943518D2*
X2355631D1*
X2490999D2*
X2605852D1*
X2717787D2*
X3176734D1*
X2243542Y2918650D2*
X2365033D1*
X2481633D2*
X2594764D1*
X2728840D2*
X2807701D1*
X2229295Y2893781D2*
X2393562D1*
X2453105D2*
X2586906D1*
X2729378D2*
X2782833D1*
X2215050Y2868912D2*
X2562361D1*
X2200840Y2844043D2*
X2554358D1*
X2851240D2*
X3338356D1*
X3536054D2*
X3549176D1*
X2186593Y2819175D2*
X2556297D1*
X3347626D2*
X3369647D1*
X3520408D2*
X3569163D1*
X3606352D2*
X3671648D1*
X2172348Y2794306D2*
X2255587D1*
X2339461D2*
X2569286D1*
X3519512D2*
X3687151D1*
X2158101Y2769437D2*
X2241232D1*
X2382556D2*
X2610051D1*
X3552382D2*
X3702617D1*
X2425618Y2744568D2*
X2585182D1*
X2713230D2*
X3294182D1*
X3566770D2*
X3718118D1*
X2446575Y2719699D2*
X2560315D1*
X2688362D2*
X3319050D1*
X3570682D2*
X3706097D1*
X2442197Y2694831D2*
X2535448D1*
X2663495D2*
X3343919D1*
X3588840D2*
X3714710D1*
X2427843Y2669962D2*
X2510580D1*
X2638591D2*
X3439190D1*
X3611446D2*
X3729063D1*
X2413490Y2645093D2*
X2489623D1*
X2613723D2*
X3469513D1*
X3619879D2*
X3743417D1*
X2399100Y2620224D2*
X2485711D1*
X2588856D2*
X3470051D1*
X3619341D2*
X3762579D1*
X2250072Y2595356D2*
X2265060D1*
X2384745D2*
X2485711D1*
X2577696D2*
X3479848D1*
X3653109D2*
X3772125D1*
X2293134Y2570487D2*
X2308121D1*
X2369962D2*
X2485711D1*
X2577696D2*
X3505684D1*
X3667067D2*
X3786478D1*
X2331530Y2545618D2*
X2485711D1*
X2577696D2*
X3518710D1*
X3670656D2*
X3800867D1*
X2338563Y2520749D2*
X2485711D1*
X2577696D2*
X3523806D1*
X3690105D2*
X3870841D1*
X2327331Y2495881D2*
X2478822D1*
X2584585D2*
X3540025D1*
X3711923D2*
X3885482D1*
X2312978Y2471012D2*
X2403644D1*
X2595853D2*
X3569378D1*
X3720033D2*
X3848558D1*
X2298623Y2446143D2*
X2384411D1*
X2596068D2*
X3570240D1*
X3719171D2*
X3814217D1*
X2284270Y2421274D2*
X2334244D1*
X2585339D2*
X2914635D1*
X3092777D2*
X3580395D1*
X1944483Y2396406D2*
X1954231D1*
X2165852D2*
X2175631D1*
X2269881D2*
X2315871D1*
X2486873D2*
X2516322D1*
X2547085D2*
X2865833D1*
X3141579D2*
X3607236D1*
X1930273Y2371537D2*
X1946013D1*
X2180601D2*
X2220348D1*
X2245264D2*
X2301518D1*
X2455259D2*
X2836766D1*
X3170609D2*
X3618755D1*
X1916026Y2346668D2*
X1930799D1*
X2186773D2*
X2287344D1*
X2459924D2*
X2811899D1*
X3195478D2*
X3624138D1*
X1901781Y2321799D2*
X1915871D1*
X2186091D2*
X2275538D1*
X2447543D2*
X2794927D1*
X3212450D2*
X3640932D1*
X3812398D2*
X3824982D1*
X1887534Y2296930D2*
X1900907D1*
X2178375D2*
X2258421D1*
X2433189D2*
X2782259D1*
X3225118D2*
X3669244D1*
X3820150D2*
X3828639D1*
X1873289Y2272062D2*
X1885979D1*
X2161259D2*
X2244068D1*
X2418441D2*
X2769807D1*
X3237605D2*
X3670428D1*
X2163699Y2247193D2*
X2230144D1*
X2403047D2*
X2764819D1*
X3242593D2*
X3680978D1*
X2188567Y2222324D2*
X2230252D1*
X2390093D2*
X2760871D1*
X3246505D2*
X3708896D1*
X3867623D2*
X3881213D1*
X2213434Y2197455D2*
X2249235D1*
X2375739D2*
X2757068D1*
X3250344D2*
X3718801D1*
X3870602D2*
X3893449D1*
X2368276Y2172587D2*
X2759795D1*
X3247617D2*
X3724505D1*
X3892420D2*
X3977382D1*
X2087159Y2147718D2*
X2135123D1*
X2381840D2*
X2763743D1*
X3243669D2*
X3741837D1*
X3930959D2*
X3959009D1*
X2000319Y2122849D2*
X2159991D1*
X2395117D2*
X2767726D1*
X3239686D2*
X3769146D1*
X2006921Y2097980D2*
X2158915D1*
X2395690D2*
X2778778D1*
X3228634D2*
X3770617D1*
X2078403Y2073112D2*
X2140470D1*
X2395690D2*
X2791445D1*
X3215967D2*
X3781562D1*
X2290262Y2048243D2*
X2303707D1*
X2395690D2*
X2805297D1*
X3202115D2*
X3806178D1*
X2268374Y2023374D2*
X2303707D1*
X2395690D2*
X2829913D1*
X3177499D2*
X3814934D1*
X2261555Y1998505D2*
X2303707D1*
X2395690D2*
X2854961D1*
X3152453D2*
X3829287D1*
X2247202Y1973636D2*
X2303707D1*
X2395690D2*
X2901143D1*
X3106269D2*
X3845291D1*
X2111991Y1948768D2*
X2159920D1*
X2232848D2*
X2303707D1*
X2395690D2*
X3864454D1*
X2108689Y1923899D2*
X2303707D1*
X2395690D2*
X3862732D1*
X2096524Y1899030D2*
X2303707D1*
X2395690D2*
X3871559D1*
X2067996Y1874161D2*
X2303707D1*
X2395690D2*
X3886379D1*
X2027913Y1849293D2*
X2303707D1*
X2395690D2*
X3847087D1*
X4014785D2*
X4058696D1*
X1857608Y1824424D2*
X1874281D1*
X2003656D2*
X2303707D1*
X2395690D2*
X3807793D1*
X3975492D2*
X4072833D1*
X1843398Y1799555D2*
X1887953D1*
X1969673D2*
X2304173D1*
X2420235D2*
X3768500D1*
X3936198D2*
X4086972D1*
X1829186Y1774686D2*
X2317056D1*
X2445104D2*
X3729171D1*
X3896906D2*
X4101075D1*
X1814976Y1749818D2*
X2341924D1*
X2469971D2*
X3689878D1*
X3857576D2*
X4115213D1*
X1800766Y1724949D2*
X2366791D1*
X2494839D2*
X3650584D1*
X3818283D2*
X4129352D1*
X1786556Y1700080D2*
X2391659D1*
X2915222D2*
X2941083D1*
X2979885D2*
X3038005D1*
X3076808D2*
X3611256D1*
X3778990D2*
X4143490D1*
X1772346Y1675211D2*
X2416528D1*
X3106736D2*
X3208168D1*
X3739661D2*
X4157627D1*
X1754081Y1650343D2*
X2409458D1*
X3113411D2*
X3185885D1*
X3700367D2*
X4171731D1*
X1711307Y1625474D2*
X2314508D1*
X3107812D2*
X3163600D1*
X3661075D2*
X4185869D1*
X1669681Y1600605D2*
X2274210D1*
X3607858D2*
X4200007D1*
X1626621Y1575736D2*
X2248194D1*
X3723047D2*
X4214576D1*
X1583524Y1550867D2*
X2237717D1*
X3765785D2*
X4251860D1*
X1540463Y1525999D2*
X2154106D1*
X3782004D2*
X4296787D1*
X1497402Y1501130D2*
X2119980D1*
X3819755D2*
X4341678D1*
X1454304Y1476261D2*
X2086177D1*
X3830089D2*
X4386605D1*
X1411244Y1451392D2*
X2075269D1*
X3830089D2*
X4431496D1*
X1368147Y1426524D2*
X2075197D1*
X3830089D2*
X4476423D1*
X1325085Y1401655D2*
X2075197D1*
X4159004D2*
X4521314D1*
X1282025Y1376786D2*
X1801580D1*
X4202459D2*
X4566241D1*
X1238928Y1351917D2*
X1759451D1*
X4245592D2*
X4611133D1*
X1195867Y1327049D2*
X1717324D1*
X4288724D2*
X4656059D1*
X1152806Y1302180D2*
X1675232D1*
X2698266D2*
X2729760D1*
X4331858D2*
X4700950D1*
X1109709Y1277311D2*
X1633104D1*
X2673398D2*
X2729760D1*
X4374991D2*
X4745878D1*
X1066648Y1252442D2*
X1590975D1*
X2644297D2*
X2729760D1*
X2872627D2*
X2921059D1*
X4418123D2*
X4763711D1*
X1023587Y1227573D2*
X1548883D1*
X2485903D2*
X2731303D1*
X2838644D2*
X2922853D1*
X4461256D2*
X4763711D1*
X4855696D2*
X4897129D1*
X1013217Y1202705D2*
X1075751D1*
X1153021D2*
X1506756D1*
X2505388D2*
X2729760D1*
X2840188D2*
X2922853D1*
X4504388D2*
X4763711D1*
X4932416D2*
X4941726D1*
X1028324Y1177836D2*
X1053287D1*
X1175484D2*
X1464627D1*
X4547522D2*
X4765757D1*
X4955453D2*
X4968539D1*
X1182661Y1152967D2*
X1422535D1*
X4590655D2*
X4775697D1*
X1200676Y1128098D2*
X1380407D1*
X4633787D2*
X4785816D1*
X1217756Y1103230D2*
X1338280D1*
X1222241Y1078361D2*
X1296186D1*
X1217003Y1053492D2*
X1254059D1*
X1198558Y1028623D2*
X1211930D1*
X4737887D2*
X4809823D1*
X4780231Y1003755D2*
X4873697D1*
X4822538Y978886D2*
X4860168D1*
X2165803Y1533757D2*
X2240192D1*
X2240318Y1552344D1*
X2241264Y1558311D1*
X2243130Y1564056D1*
X2245873Y1569440D1*
X2249424Y1574327D1*
X2270521Y1595591D1*
X2275114Y1599514D1*
X2280265Y1602671D1*
X2285846Y1604983D1*
X2291722Y1606394D1*
X2297744Y1606867D1*
X2317014D1*
X2317001Y1631395D1*
X2395768D1*
X2413425Y1651881D1*
X2418020Y1655804D1*
X2423171Y1658961D1*
X2428752Y1661273D1*
X2431673Y1662096D1*
X2421462Y1672791D1*
X2316622Y1777822D1*
X2312609Y1783344D1*
X2309510Y1789425D1*
X2307402Y1795917D1*
X2306333Y1802659D1*
X2306199Y1842818D1*
Y2080192D1*
X2283825Y2041614D1*
X2280517Y2037529D1*
X2276612Y2034010D1*
X2272202Y2031148D1*
X2267390Y2029007D1*
X2265534Y2025778D1*
X2266084Y2020551D1*
X2265808Y2015302D1*
X2264717Y2010159D1*
X2262832Y2005252D1*
X2230112Y1948371D1*
X2227134Y1944039D1*
X2223516Y1940226D1*
X2219345Y1937026D1*
X2214724Y1934517D1*
X2209770Y1932762D1*
X2204601Y1931804D1*
X2199346Y1931667D1*
X2194134Y1932353D1*
X2189094Y1933846D1*
X2184349Y1936109D1*
X2131488Y1966629D1*
X2107180Y1966614D1*
X2108738Y1958391D1*
X2109517Y1947629D1*
X2108883Y1936856D1*
X2106849Y1926257D1*
X2103450Y1916016D1*
X2098741Y1906304D1*
X2092807Y1897291D1*
X2085747Y1889131D1*
X2077681Y1881961D1*
X2068749Y1875906D1*
X2059102Y1871067D1*
X2048908Y1867530D1*
X2038339Y1865354D1*
X2034469Y1864969D1*
X2018378Y1837301D1*
X2015070Y1833215D1*
X2011163Y1829698D1*
X2006755Y1826835D1*
X2001951Y1824697D1*
X1996874Y1823336D1*
X1991646Y1822787D1*
X1986396Y1823062D1*
X1981245Y1824159D1*
X1978240Y1816386D1*
X1974429Y1808906D1*
X1969493Y1802114D1*
X1963558Y1796178D1*
X1956766Y1791243D1*
X1949286Y1787432D1*
X1941302Y1784837D1*
X1933010Y1783525D1*
X1924614D1*
X1916323Y1784837D1*
X1908339Y1787432D1*
X1900858Y1791243D1*
X1894067Y1796178D1*
X1888131Y1802114D1*
X1883196Y1808906D1*
X1879385Y1816386D1*
X1876790Y1824370D1*
X1875478Y1832661D1*
Y1841058D1*
X1876790Y1849349D1*
X1879385Y1857333D1*
X1883196Y1864814D1*
X1888131Y1871605D1*
X1894067Y1877541D1*
X1898990Y1881227D1*
X1897786Y1887223D1*
X1897614Y1889858D1*
X1895516Y1892908D1*
X1890126Y1885709D1*
X1758182Y1655118D1*
X1756087Y1653058D1*
X1722738Y1633852D1*
X1710970Y1626925D1*
X1700682Y1620052D1*
X1523308Y1517541D1*
X1002247Y1216705D1*
X1048808Y1139993D1*
X1048394Y1147474D1*
X1049206Y1157798D1*
X1051623Y1167869D1*
X1055587Y1177437D1*
X1060999Y1186268D1*
X1067724Y1194143D1*
X1075600Y1200869D1*
X1084430Y1206280D1*
X1093999Y1210243D1*
X1104068Y1212661D1*
X1114394Y1213474D1*
X1124718Y1212661D1*
X1134789Y1210243D1*
X1144357Y1206280D1*
X1153188Y1200869D1*
X1161062Y1194143D1*
X1167789Y1186268D1*
X1173199Y1177437D1*
X1177163Y1167869D1*
X1179580Y1157798D1*
X1180394Y1147474D1*
X1179907Y1139903D1*
X1188248Y1135556D1*
X1196627Y1129470D1*
X1203950Y1122146D1*
X1210038Y1113768D1*
X1214739Y1104539D1*
X1217940Y1094690D1*
X1219560Y1084461D1*
Y1074104D1*
X1217940Y1063875D1*
X1214739Y1054025D1*
X1210038Y1044798D1*
X1203950Y1036419D1*
X1196627Y1029096D1*
X1188248Y1023008D1*
X1179021Y1018306D1*
X1176343Y1017319D1*
X1190114Y1014264D1*
X1834589Y1394650D1*
X1840937Y1397157D1*
X1847600Y1398643D1*
X1851010Y1398988D1*
X2077724Y1399072D1*
X2077818Y1452343D1*
X2078764Y1458310D1*
X2080630Y1464055D1*
X2083373Y1469438D1*
X2086924Y1474325D1*
X2091196Y1478597D1*
X2116248Y1496669D1*
X2139833Y1513399D1*
X2145217Y1516142D1*
X2150962Y1518009D1*
X2156617Y1519251D1*
Y1533757D1*
X2165803D1*
X2925375Y1252387D2*
X2923546D1*
Y1265556D1*
X2895562Y1265699D1*
X2889362Y1266681D1*
X2883394Y1268621D1*
X2877802Y1271470D1*
X2872724Y1275159D1*
X2870139Y1277570D1*
X2870133Y1231298D1*
X2834858D1*
X2836995Y1224415D1*
X2838307Y1216123D1*
Y1207727D1*
X2836995Y1199436D1*
X2834400Y1191451D1*
X2830902Y1184530D1*
X2925378Y1184522D1*
X2925366Y1252421D1*
X3607024Y1590007D2*
X3608853D1*
Y1583081D1*
X3700588Y1582945D1*
X3706787Y1581963D1*
X3712756Y1580024D1*
X3718348Y1577175D1*
X3723425Y1573486D1*
X3736419Y1560667D1*
X3744839Y1558757D1*
X3763282D1*
X3763331Y1525913D1*
X3771699Y1526572D1*
X3780068Y1525913D1*
X3788232Y1523954D1*
X3795988Y1520741D1*
X3803146Y1516354D1*
X3809530Y1510903D1*
X3814982Y1504518D1*
X3819369Y1497361D1*
X3822581Y1489605D1*
X3824541Y1481441D1*
X3825005Y1477514D1*
X3827602Y1477507D1*
Y1405774D1*
X4140316Y1405692D1*
X4147084Y1404804D1*
X4153630Y1402870D1*
X4159793Y1399934D1*
X4641432Y1122249D1*
X4790686Y1122234D1*
X4768328Y1177630D1*
X4766735Y1184268D1*
X4766199Y1191072D1*
Y1267470D1*
X4230639Y1564009D1*
X4224980Y1567745D1*
X4219940Y1572348D1*
X4215681Y1577681D1*
X4195726Y1612531D1*
X4037192Y1891551D1*
X4037066Y1885589D1*
X4035997Y1878848D1*
X4033888Y1872356D1*
X4030790Y1866274D1*
X4026777Y1860752D1*
X4021950Y1855925D1*
X4019257Y1853803D1*
X3838413Y1739268D1*
X3631388Y1608432D1*
X3625121Y1605730D1*
X3618507Y1604041D1*
X3611697Y1603408D1*
X3605664Y1599375D1*
X3606976Y1591084D1*
X3607018Y1590017D1*
X2440315Y2695913D2*
X2368929Y2572476D1*
X2365622Y2568391D1*
X2361715Y2564873D1*
X2357306Y2562010D1*
X2352504Y2559871D1*
X2347427Y2558512D1*
X2342198Y2557962D1*
X2336949Y2558238D1*
X2331807Y2559329D1*
X2326899Y2561214D1*
X2276837Y2589997D1*
X2244673Y2608568D1*
X2224661Y2608572D1*
X2321795Y2552375D1*
X2325881Y2549067D1*
X2329399Y2545160D1*
X2332261Y2540752D1*
X2334400Y2535949D1*
X2335760Y2530871D1*
X2336310Y2525643D1*
X2336034Y2520394D1*
X2334942Y2515252D1*
X2333058Y2510344D1*
X2304274Y2460283D1*
X2260429Y2384549D1*
X2257121Y2380463D1*
X2253215Y2376946D1*
X2248806Y2374083D1*
X2244004Y2371945D1*
X2238927Y2370584D1*
X2233698Y2370034D1*
X2228449Y2370310D1*
X2223307Y2371403D1*
X2218399Y2373286D1*
X2168337Y2402070D1*
X2125358Y2426885D1*
X2128126Y2422780D1*
X2133748Y2420125D1*
X2140154Y2416538D1*
X2146259Y2412459D1*
X2152024Y2407915D1*
X2157415Y2402930D1*
X2162399Y2397539D1*
X2166944Y2391774D1*
X2171022Y2385669D1*
X2174610Y2379264D1*
X2177684Y2372597D1*
X2180224Y2365709D1*
X2182217Y2358643D1*
X2183650Y2351442D1*
X2184512Y2344152D1*
X2184801Y2336816D1*
X2184512Y2329480D1*
X2183650Y2322189D1*
X2182217Y2314990D1*
X2180224Y2307923D1*
X2177684Y2301035D1*
X2174610Y2294367D1*
X2171022Y2287962D1*
X2166944Y2281858D1*
X2162399Y2276093D1*
X2157415Y2270702D1*
X2152024Y2265718D1*
X2142801Y2258862D1*
X2149133Y2256236D1*
X2154953Y2252669D1*
X2160143Y2248236D1*
X2224365Y2184016D1*
X2230714Y2183787D1*
X2235856Y2182696D1*
X2240764Y2180811D1*
X2243100Y2179581D1*
X2245495Y2185932D1*
X2249983Y2194740D1*
X2254777Y2201449D1*
X2244833Y2207293D1*
X2240748Y2210600D1*
X2237231Y2214507D1*
X2234367Y2218916D1*
X2232230Y2223718D1*
X2230869Y2228795D1*
X2230320Y2234024D1*
X2230594Y2239273D1*
X2231688Y2244415D1*
X2233572Y2249323D1*
X2262356Y2299385D1*
X2271199Y2314497D1*
X2274508Y2318583D1*
X2278415Y2322100D1*
X2282824Y2324963D1*
X2285193Y2326130D1*
X2286992Y2329260D1*
X2286854Y2334514D1*
X2287541Y2339727D1*
X2289033Y2344766D1*
X2291302Y2349520D1*
X2327701Y2412358D1*
X2331008Y2416444D1*
X2334915Y2419961D1*
X2339324Y2422824D1*
X2344126Y2424962D1*
X2349203Y2426323D1*
X2354432Y2426871D1*
X2359681Y2426597D1*
X2364823Y2425504D1*
X2369740Y2423615D1*
X2370669Y2423596D1*
X2401688Y2466415D1*
X2407046Y2471819D1*
X2413184Y2476318D1*
X2419950Y2479802D1*
X2423531Y2481139D1*
X2481014Y2495499D1*
X2487152Y2502619D1*
X2488188Y2503577D1*
X2488333Y2630486D1*
X2489402Y2637227D1*
X2491510Y2643719D1*
X2494610Y2649801D1*
X2498622Y2655323D1*
X2526924Y2683814D1*
X2614235Y2771126D1*
X2607030Y2772455D1*
X2597180Y2775655D1*
X2587953Y2780357D1*
X2579573Y2786445D1*
X2572251Y2793768D1*
X2566163Y2802147D1*
X2561462Y2811374D1*
X2558261Y2821224D1*
X2556640Y2831453D1*
Y2841810D1*
X2558261Y2852039D1*
X2561462Y2861888D1*
X2566163Y2871117D1*
X2572251Y2879495D1*
X2579573Y2886819D1*
X2587953Y2892906D1*
X2596243Y2897176D1*
X2595807Y2904823D1*
X2596621Y2915147D1*
X2599038Y2925218D1*
X2603001Y2934786D1*
X2608412Y2943617D1*
X2615139Y2951492D1*
X2623013Y2958218D1*
X2631844Y2963629D1*
X2641412Y2967592D1*
X2651483Y2970010D1*
X2661807Y2970823D1*
X2672133Y2970010D1*
X2682202Y2967592D1*
X2691770Y2963629D1*
X2700601Y2958218D1*
X2708476Y2951492D1*
X2715202Y2943617D1*
X2720614Y2934786D1*
X2724577Y2925218D1*
X2726995Y2915147D1*
X2727807Y2904823D1*
X2726995Y2894497D1*
X2724577Y2884428D1*
X2721436Y2876642D1*
X2768163Y2876627D1*
X2815224Y2923486D1*
X2820302Y2927175D1*
X2825894Y2930024D1*
X2831862Y2931963D1*
X2838062Y2932945D1*
X2877945Y2933068D1*
X3189671D1*
X3108122Y3014822D1*
X3104109Y3020344D1*
X3101010Y3026425D1*
X3098902Y3032917D1*
X3097833Y3039659D1*
X3097699Y3079818D1*
Y4267029D1*
X3077232Y4296122D1*
X3068776Y4291881D1*
X3058925Y4288681D1*
X3048697Y4287060D1*
X3038340D1*
X3028112Y4288681D1*
X3018261Y4291881D1*
X3009034Y4296583D1*
X3004168Y4299900D1*
X2999262Y4296583D1*
X2990035Y4291881D1*
X2980185Y4288681D1*
X2969957Y4287060D1*
X2959600D1*
X2949371Y4288681D1*
X2939521Y4291881D1*
X2930294Y4296583D1*
X2921915Y4302671D1*
X2914592Y4309993D1*
X2908504Y4318373D1*
X2903802Y4327600D1*
X2900602Y4337450D1*
X2898982Y4347678D1*
Y4358035D1*
X2900602Y4368264D1*
X2903802Y4378114D1*
X2908504Y4387341D1*
X2914592Y4395720D1*
X2921915Y4403043D1*
X2930294Y4409131D1*
X2932430Y4410328D1*
X2853289Y4410715D1*
X2853219Y3508747D1*
X2852421Y3505919D1*
X2815593Y3440572D1*
X2655556Y3157743D1*
X2653470Y3155673D1*
X2650959Y3154147D1*
X2648160Y3153251D1*
X2636755Y3152896D1*
X2373138Y3149311D1*
X2153406Y2765596D1*
X2241591Y2765713D1*
X2262470Y2801669D1*
X2265777Y2805755D1*
X2269684Y2809272D1*
X2274093Y2812135D1*
X2278895Y2814273D1*
X2283972Y2815634D1*
X2289201Y2816182D1*
X2294450Y2815908D1*
X2299592Y2814815D1*
X2304500Y2812930D1*
X2354562Y2784147D1*
X2430297Y2740302D1*
X2434382Y2736995D1*
X2437899Y2733088D1*
X2440761Y2728678D1*
X2442900Y2723877D1*
X2444260Y2718799D1*
X2444810Y2713571D1*
X2444535Y2708322D1*
X2443442Y2703180D1*
X2441558Y2698272D1*
X2440328Y2695936D1*
X2449009Y2328677D2*
X2417198Y2273786D1*
X2413891Y2269701D1*
X2409984Y2266184D1*
X2405575Y2263322D1*
X2403206Y2262154D1*
X2401407Y2259024D1*
X2401545Y2253769D1*
X2400858Y2248558D1*
X2399366Y2243517D1*
X2397102Y2238772D1*
X2363715Y2180944D1*
X2365924Y2171678D1*
X2366699Y2161823D1*
X2366644Y2160413D1*
X2382777Y2144073D1*
X2386790Y2138551D1*
X2389888Y2132470D1*
X2391997Y2125978D1*
X2393066Y2119236D1*
X2393199Y2079077D1*
Y1824121D1*
X2502736Y1714554D1*
X2883613Y1714438D1*
X2890354Y1713370D1*
X2896846Y1711261D1*
X2902928Y1708163D1*
X2908450Y1704150D1*
X2924178Y1688612D1*
X2929028Y1692604D1*
X2936185Y1696991D1*
X2943941Y1700203D1*
X2952105Y1702163D1*
X2960474Y1702822D1*
X2968843Y1702163D1*
X2977007Y1700203D1*
X2984762Y1696991D1*
X2991920Y1692604D1*
X2998304Y1687152D1*
X3003756Y1680768D1*
X3008143Y1673610D1*
X3008919Y1671927D1*
X3011794Y1677276D1*
X3016730Y1684067D1*
X3022665Y1690003D1*
X3029457Y1694938D1*
X3036937Y1698749D1*
X3044921Y1701344D1*
X3053213Y1702656D1*
X3061609D1*
X3069900Y1701344D1*
X3077885Y1698749D1*
X3085365Y1694938D1*
X3092156Y1690003D1*
X3098092Y1684067D1*
X3103028Y1677276D1*
X3106839Y1669795D1*
X3109433Y1661811D1*
X3110745Y1653520D1*
Y1645123D1*
X3109433Y1636832D1*
X3106839Y1628848D1*
X3103949Y1623014D1*
X3163862Y1623016D1*
X3212940Y1677663D1*
X3218131Y1682096D1*
X3223951Y1685661D1*
X3230257Y1688274D1*
X3236895Y1689867D1*
X3243699Y1690403D1*
X3598487D1*
X3895156Y1878126D1*
X3886785Y1884167D1*
X3879794Y1891157D1*
X3873983Y1899155D1*
X3869495Y1907963D1*
X3866440Y1917365D1*
X3864894Y1927129D1*
Y1937016D1*
X3866440Y1946780D1*
X3868257Y1952827D1*
X3860055Y1966319D1*
X3854718Y1968650D1*
X3850310Y1971513D1*
X3846403Y1975030D1*
X3843094Y1979115D1*
X3813148Y2030780D1*
X3810885Y2035524D1*
X3809392Y2040564D1*
X3808706Y2045776D1*
X3808672Y2048416D1*
X3806295Y2051982D1*
X3796965Y2058760D1*
X3788810Y2066916D1*
X3782030Y2076247D1*
X3776794Y2086522D1*
X3773230Y2097492D1*
X3771425Y2108883D1*
Y2120417D1*
X3773067Y2130991D1*
X3766572Y2133348D1*
X3756295Y2138584D1*
X3746965Y2145362D1*
X3738810Y2153518D1*
X3732030Y2162849D1*
X3726794Y2173126D1*
X3723230Y2184094D1*
X3721425Y2195486D1*
Y2207020D1*
X3723067Y2217593D1*
X3716572Y2219950D1*
X3706295Y2225186D1*
X3696965Y2231966D1*
X3688810Y2240121D1*
X3682030Y2249451D1*
X3676794Y2259728D1*
X3673230Y2270697D1*
X3671425Y2282088D1*
Y2293622D1*
X3673067Y2304196D1*
X3666572Y2306552D1*
X3656295Y2311789D1*
X3646965Y2318568D1*
X3638810Y2326723D1*
X3632030Y2336054D1*
X3626794Y2346331D1*
X3623230Y2357299D1*
X3621425Y2368692D1*
Y2380224D1*
X3623067Y2390798D1*
X3616572Y2393155D1*
X3606295Y2398391D1*
X3596965Y2405171D1*
X3588810Y2413325D1*
X3582030Y2422656D1*
X3576794Y2432933D1*
X3573230Y2443902D1*
X3571425Y2455294D1*
Y2466827D1*
X3573067Y2477400D1*
X3566572Y2479757D1*
X3556295Y2484993D1*
X3546965Y2491773D1*
X3538810Y2499928D1*
X3532030Y2509259D1*
X3526794Y2519535D1*
X3523230Y2530504D1*
X3521425Y2541896D1*
Y2553429D1*
X3523067Y2564003D1*
X3516572Y2566360D1*
X3506295Y2571596D1*
X3496965Y2578375D1*
X3488810Y2586531D1*
X3482030Y2595862D1*
X3476794Y2606138D1*
X3473230Y2617108D1*
X3471425Y2628499D1*
Y2640031D1*
X3473067Y2650605D1*
X3466572Y2652963D1*
X3456295Y2658199D1*
X3446965Y2664978D1*
X3438810Y2673134D1*
X3435474Y2677365D1*
X3378491Y2677501D1*
X3371749Y2678570D1*
X3365257Y2680678D1*
X3359175Y2683778D1*
X3353652Y2687790D1*
X3325161Y2716092D1*
X3288699Y2752554D1*
X2718738Y2752572D1*
X2575181Y2609035D1*
X2575199Y2503667D1*
X2579605Y2498987D1*
X2585416Y2490990D1*
X2589904Y2482181D1*
X2592959Y2472780D1*
X2594505Y2463016D1*
Y2453129D1*
X2592959Y2443365D1*
X2589904Y2433963D1*
X2585416Y2425155D1*
X2579605Y2417157D1*
X2572614Y2410167D1*
X2564617Y2404356D1*
X2555808Y2399867D1*
X2546407Y2396812D1*
X2536643Y2395266D1*
X2526756D1*
X2516992Y2396812D1*
X2507591Y2399867D1*
X2504379Y2401348D1*
X2467647Y2392270D1*
X2452747Y2371583D1*
X2455194Y2367009D1*
X2456949Y2362054D1*
X2457907Y2356885D1*
X2458045Y2351630D1*
X2457358Y2346419D1*
X2455866Y2341378D1*
X2453602Y2336633D1*
X2449009Y2328677D1*
X2054234Y2085621D2*
X2108177Y2054356D1*
X2117193Y2053614D1*
X2131655D1*
X2143615Y2074081D1*
X2146924Y2078167D1*
X2150829Y2081685D1*
X2155239Y2084547D1*
X2160051Y2086689D1*
X2161907Y2089917D1*
X2161357Y2095144D1*
X2161633Y2100394D1*
X2162724Y2105537D1*
X2164609Y2110444D1*
X2168291Y2117029D1*
X2111385Y2173958D1*
X2105161Y2173978D1*
X2102122Y2168623D1*
X2098043Y2162520D1*
X2093499Y2156755D1*
X2088514Y2151364D1*
X2083123Y2146379D1*
X2077358Y2141835D1*
X2071253Y2137756D1*
X2064848Y2134168D1*
X2058181Y2131094D1*
X2051294Y2128554D1*
X2044227Y2126560D1*
X2037026Y2125129D1*
X2029736Y2124265D1*
X2022400Y2123978D1*
X2015064Y2124265D1*
X2007774Y2125129D1*
X1996516Y2127705D1*
X2007491Y2086427D1*
X2011282Y2089298D1*
X2015902Y2091806D1*
X2020857Y2093560D1*
X2026026Y2094518D1*
X2031281Y2094656D1*
X2036492Y2093970D1*
X2041533Y2092478D1*
X2046277Y2090214D1*
X2054234Y2085621D1*
X3862903Y2538499D2*
X3848008Y2530018D1*
X3843100Y2528134D1*
X3837958Y2527041D1*
X3832709Y2526766D1*
X3827480Y2527315D1*
X3822403Y2528676D1*
X3817601Y2530814D1*
X3813192Y2533677D1*
X3809285Y2537194D1*
X3805978Y2541280D1*
X3777014Y2591239D1*
X3768349Y2606454D1*
X3766465Y2611362D1*
X3765371Y2616504D1*
X3765097Y2621753D1*
X3765270Y2624388D1*
X3763459Y2627512D1*
X3758840Y2630020D1*
X3754669Y2633220D1*
X3751051Y2637033D1*
X3748073Y2641365D1*
X3711849Y2704315D1*
X3709965Y2709223D1*
X3708871Y2714365D1*
X3708597Y2719614D1*
X3709146Y2724843D1*
X3710507Y2729920D1*
X3712644Y2734722D1*
X3715508Y2739131D1*
X3719033Y2743045D1*
X3716932Y2750474D1*
X3655091Y2849815D1*
X3651068Y2846535D1*
X3604520Y2819541D1*
X3599776Y2817278D1*
X3594735Y2815785D1*
X3589524Y2815098D1*
X3584268Y2815236D1*
X3579100Y2816194D1*
X3574144Y2817949D1*
X3569525Y2820458D1*
X3565354Y2823657D1*
X3561735Y2827471D1*
X3558759Y2831803D1*
X3534698Y2873476D1*
X3534566Y2850558D1*
X3533497Y2843816D1*
X3531388Y2837324D1*
X3528290Y2831243D1*
X3524277Y2825720D1*
X3517366Y2818619D1*
X3518199Y2807470D1*
X3517294Y2795972D1*
X3516331Y2791130D1*
X3522827Y2788773D1*
X3533102Y2783537D1*
X3542433Y2776757D1*
X3550589Y2768602D1*
X3557367Y2759272D1*
X3562604Y2748995D1*
X3566168Y2738026D1*
X3567972Y2726635D1*
Y2715101D1*
X3566331Y2704528D1*
X3572827Y2702171D1*
X3583102Y2696934D1*
X3592433Y2690155D1*
X3600589Y2682000D1*
X3607367Y2672669D1*
X3612604Y2662392D1*
X3616168Y2651424D1*
X3617972Y2640031D1*
Y2628499D1*
X3616331Y2617925D1*
X3622827Y2615568D1*
X3633102Y2610332D1*
X3642433Y2603552D1*
X3650589Y2595398D1*
X3657367Y2586067D1*
X3662604Y2575790D1*
X3666168Y2564822D1*
X3667972Y2553429D1*
Y2541896D1*
X3666331Y2531323D1*
X3672827Y2528966D1*
X3683102Y2523730D1*
X3692433Y2516950D1*
X3700589Y2508795D1*
X3707367Y2499465D1*
X3712604Y2489188D1*
X3716168Y2478219D1*
X3717972Y2466827D1*
Y2455294D1*
X3716331Y2444720D1*
X3722827Y2442364D1*
X3733102Y2437127D1*
X3742433Y2430348D1*
X3750589Y2422192D1*
X3752277Y2420050D1*
X3797350Y2438339D1*
X3841383Y2456085D1*
X3843885Y2461967D1*
X3846748Y2466375D1*
X3850265Y2470282D1*
X3854350Y2473591D1*
X3889188Y2493823D1*
X3862891Y2538509D1*
X3939273Y2138068D2*
X3944538Y2137932D1*
X3949707Y2136974D1*
X3952228Y2136190D1*
X3955091Y2138112D1*
X3958701Y2143904D1*
X3994773Y2193156D1*
X3992251Y2193940D1*
X3989497Y2192525D1*
X3981980Y2186104D1*
X3973551Y2180938D1*
X3964419Y2177156D1*
X3954806Y2174848D1*
X3944950Y2174072D1*
X3935094Y2174848D1*
X3925482Y2177156D1*
X3916349Y2180938D1*
X3907920Y2186104D1*
X3900403Y2192525D1*
X3893982Y2200042D1*
X3888816Y2208471D1*
X3885034Y2217604D1*
X3882726Y2227217D1*
X3882247Y2231265D1*
X3866058Y2224752D1*
X3866168Y2218411D1*
X3867972Y2207020D1*
Y2195486D1*
X3866331Y2184912D1*
X3872827Y2182555D1*
X3883102Y2177319D1*
X3892433Y2170539D1*
X3900589Y2162385D1*
X3906303Y2154647D1*
X3912000Y2154188D1*
X3918112Y2152756D1*
X3923923Y2150386D1*
X3929293Y2147136D1*
X3934087Y2143087D1*
X3938197Y2138327D1*
X2768856Y1408066D2*
X2764766Y1403505D1*
X2760206Y1399416D1*
X2760196Y1390837D1*
X2864786Y1390818D1*
X2863572Y1396125D1*
X2773546Y1396136D1*
Y1408085D1*
X2768923Y1408076D1*
X3373050Y2823870D2*
X3366572Y2826168D1*
X3356295Y2831404D1*
X3346965Y2838184D1*
X3338810Y2846339D1*
X3333770Y2853064D1*
X2857768Y2853076D1*
X2844285Y2839594D1*
X3310113Y2839438D1*
X3316854Y2838370D1*
X3323346Y2836261D1*
X3329428Y2833161D1*
X3334950Y2829150D1*
X3363441Y2800849D1*
X3373008Y2791282D1*
X3371425Y2801703D1*
Y2813238D1*
X3373067Y2823811D1*
X3798890Y2337427D2*
X3804161Y2331058D1*
X3810188Y2321223D1*
X3814601Y2310568D1*
X3817294Y2299353D1*
X3818101Y2290356D1*
X3822983Y2293419D1*
X3835323Y2298612D1*
X3855936Y2306887D1*
X3850480Y2308406D1*
X3841348Y2312188D1*
X3832919Y2317353D1*
X3825402Y2323774D1*
X3818980Y2331291D1*
X3813815Y2339720D1*
X3810033Y2348853D1*
X3808127Y2356438D1*
X3803356Y2354514D1*
X3798925Y2337512D1*
X2528496Y3016894D2*
X2526877Y3006664D1*
X2523676Y2996815D1*
X2518974Y2987587D1*
X2512887Y2979209D1*
X2505564Y2971886D1*
X2497185Y2965798D1*
X2488895Y2961529D1*
X2489329Y2953881D1*
X2488517Y2943556D1*
X2486100Y2933486D1*
X2482136Y2923917D1*
X2476726Y2915088D1*
X2469999Y2907213D1*
X2462123Y2900486D1*
X2453294Y2895075D1*
X2443726Y2891112D1*
X2433655Y2888694D1*
X2423329Y2887881D1*
X2413005Y2888694D1*
X2402934Y2891112D1*
X2393366Y2895075D1*
X2384537Y2900486D1*
X2376661Y2907213D1*
X2369934Y2915088D1*
X2364524Y2923917D1*
X2360560Y2933486D1*
X2358143Y2943556D1*
X2357329Y2953881D1*
X2358143Y2964206D1*
X2360560Y2974276D1*
X2364524Y2983844D1*
X2369934Y2992675D1*
X2376661Y3000550D1*
X2384537Y3007276D1*
X2393366Y3012688D1*
X2397135Y3014425D1*
X2396699Y3022072D1*
X2397513Y3032396D1*
X2399930Y3042467D1*
X2403894Y3052035D1*
X2409304Y3060866D1*
X2416031Y3068741D1*
X2423907Y3075467D1*
X2432736Y3080878D1*
X2442304Y3084841D1*
X2452375Y3087260D1*
X2462699Y3088072D1*
X2473025Y3087260D1*
X2483096Y3084841D1*
X2492664Y3080878D1*
X2501493Y3075467D1*
X2509369Y3068741D1*
X2516096Y3060866D1*
X2521507Y3052035D1*
X2525470Y3042467D1*
X2527887Y3032396D1*
X2528699Y3022072D1*
X2528496Y3016894D1*
X3077102Y4409635D2*
X3082312Y4406252D1*
X3090188Y4399526D1*
X3093197Y4396270D1*
X3097967Y4395713D1*
X3104579Y4394018D1*
X3110845Y4391310D1*
X3116610Y4387655D1*
X3121732Y4383143D1*
X3126085Y4377886D1*
X3149643Y4344398D1*
X3149751Y4409286D1*
X3077203Y4409634D1*
X4853596Y1198552D2*
X4860147Y1203199D1*
X4869374Y1207902D1*
X4879224Y1211101D1*
X4889454Y1212722D1*
X4899810D1*
X4910039Y1211101D1*
X4919888Y1207902D1*
X4929117Y1203199D1*
X4937495Y1197112D1*
X4944819Y1189789D1*
X4950906Y1181409D1*
X4955608Y1172182D1*
X4958808Y1162332D1*
X4959822Y1157230D1*
X4975203Y1185453D1*
X4853217Y1253458D1*
X4853199Y1199522D1*
X4853584Y1198609D1*
X4884949Y1019801D2*
X4875656Y1015965D1*
X4865587Y1013546D1*
X4855261Y1012734D1*
X4844937Y1013546D1*
X4834866Y1015965D1*
X4825298Y1019928D1*
X4816467Y1025339D1*
X4808593Y1032064D1*
X4805665Y1035231D1*
X4724177Y1035234D1*
X4852318Y959930D1*
X4884934Y1019769D1*
X2483886Y1244919D2*
X2469819D1*
X2517126Y1184530D1*
X2738995Y1184522D1*
X2735545Y1191451D1*
X2732950Y1199436D1*
X2731638Y1207727D1*
Y1216123D1*
X2732950Y1224415D1*
X2735142Y1231306D1*
X2732266Y1231298D1*
Y1310648D1*
X2726722Y1312492D1*
X2721130Y1315341D1*
X2716052Y1319030D1*
X2713738Y1321171D1*
X2712419Y1320327D1*
X2708867Y1315440D1*
X2674337Y1280740D1*
X2662416Y1268987D1*
X2657529Y1265436D1*
X2652146Y1262693D1*
X2646400Y1260827D1*
X2643423Y1260235D1*
X2641786Y1258928D1*
Y1231298D1*
X2503920D1*
Y1234778D1*
X2498702Y1236056D1*
X2493121Y1238367D1*
X2487970Y1241525D1*
X2485587Y1243404D1*
X3495479Y3026954D2*
X3520496Y3041398D1*
X3513794Y3048157D1*
X3507983Y3056155D1*
X3503495Y3064963D1*
X3500440Y3074365D1*
X3498894Y3084129D1*
Y3094016D1*
X3500440Y3103780D1*
X3503274Y3112583D1*
X3184684Y3112591D1*
X3184699Y3061105D1*
X3246736Y2999054D1*
X3444613Y2998938D1*
X3451354Y2997870D1*
X3457846Y2995761D1*
X3463928Y2992663D1*
X3469461Y2988640D1*
X3471060Y2988976D1*
X3470785Y2994226D1*
X3471335Y2999454D1*
X3472696Y3004531D1*
X3474833Y3009333D1*
X3477697Y3013741D1*
X3481214Y3017648D1*
X3485299Y3020957D1*
X3495479Y3026954D1*
X3239009Y2253944D2*
X3247840Y2197352D1*
Y2190682D1*
X3241699Y2151076D1*
X3236921Y2121744D1*
X3234861Y2115402D1*
X3216782Y2079631D1*
X3203173Y2053213D1*
X3199253Y2047818D1*
X3171005Y2019383D1*
X3149899Y1998463D1*
X3144504Y1994543D1*
X3108852Y1976231D1*
X3082315Y1962856D1*
X3075972Y1960795D1*
X3036406Y1954396D1*
X3007034Y1949877D1*
X3000365D1*
X2960759Y1956017D1*
X2931427Y1960795D1*
X2925084Y1962856D1*
X2889314Y1980934D1*
X2862895Y1994543D1*
X2857500Y1998463D1*
X2829066Y2026711D1*
X2808146Y2047818D1*
X2804226Y2053213D1*
X2785913Y2088865D1*
X2772538Y2115402D1*
X2770478Y2121744D1*
X2764079Y2161311D1*
X2759559Y2190682D1*
Y2197352D1*
X2765699Y2236958D1*
X2770478Y2266289D1*
X2772538Y2272633D1*
X2790618Y2308403D1*
X2804226Y2334822D1*
X2808146Y2340217D1*
X2836394Y2368651D1*
X2857500Y2389571D1*
X2862895Y2393491D1*
X2898547Y2411803D1*
X2925084Y2425178D1*
X2931428Y2427239D1*
X2970993Y2433638D1*
X3000365Y2438157D1*
X3007034D1*
X3046640Y2432017D1*
X3075972Y2427239D1*
X3082315Y2425178D1*
X3118085Y2407098D1*
X3144504Y2393491D1*
X3149899Y2389571D1*
X3178333Y2361323D1*
X3199253Y2340217D1*
X3203173Y2334822D1*
X3221486Y2299169D1*
X3234861Y2272633D1*
X3236921Y2266290D1*
X3239009Y2253944D1*
X3233457Y2275675D2*
X3236016Y2269501D1*
X3237572Y2263017D1*
X3247444Y2200697D1*
X1888646Y2272353D2*
X1946906Y2369245D1*
X1951058Y2374663D1*
X1956007Y2379365D1*
X1961642Y2383240D1*
X1959549Y2392182D1*
X1948781Y2408214D1*
X1867243Y2265860D1*
X1877806Y2245110D1*
X1878815Y2251861D1*
X1880867Y2258371D1*
X1883915Y2264479D1*
X1888646Y2272353D1*
X3184699Y3501570D2*
Y3199568D1*
X3352020Y3199591D1*
X3184688Y3501562D1*
D24*
X2211770Y1480572D3*
X2278699D3*
X2978699Y1305572D3*
X3045629D3*
D25*
X3341164Y1265672D3*
Y1332601D3*
D24*
X2978699Y1386823D3*
X3045629D3*
X3553699Y1536822D3*
X3486770D3*
D26*
X3397450Y1415572D3*
X3472253D3*
D24*
X3232450D3*
X3299379D3*
D25*
X3603699Y1355572D3*
Y1422501D3*
D92*
X2315699Y2687072D3*
X2207199Y2499144D3*
D95*
X2372449Y2343072D3*
X2315949Y2245211D3*
D28*
X2384950Y1430572D3*
Y1568367D3*
D98*
X1975699Y1899072D3*
X2044597Y2018406D3*
D101*
X3850726Y2610566D3*
X3794226Y2708427D3*
D29*
X3020644Y1549516D3*
X3133644D3*
D104*
X3934852Y2068085D3*
X3876888Y2034621D3*
D32*
X2520199Y1548072D3*
D33*
Y1448072D3*
X2620199Y1548072D3*
Y1448072D3*
X2720199Y1548072D3*
Y1448072D3*
D23*
X2091301Y2336816D3*
X2022400Y2217478D3*
D34*
X3394699Y2894072D3*
X3444699Y2807470D3*
X3494699Y2720867D3*
X3544699Y2634265D3*
X3594699Y2547663D3*
X3644699Y2461060D3*
X3694699Y2374458D3*
X3744699Y2287856D3*
X3794699Y2201252D3*
X3844699Y2114650D3*
D35*
X2462699Y3022072D3*
X2423329Y2953881D3*
X2661808Y2904823D3*
X2622438Y2836631D3*
X2964778Y4352857D3*
X3043518D3*
X1153762Y1079282D3*
X1114392Y1147474D3*
X4894633Y1146925D3*
X4855262Y1078734D3*
D36*
X3003699Y4574072D3*
X5065699Y1003072D3*
X942699D3*
D34*
X703699Y4493072D3*
X4503699Y693072D3*
D37*
X862699Y4739072D3*
X913199Y4739572D3*
X963199D3*
X1012699D3*
X1063199Y4738572D3*
X2112699Y4739072D3*
X2163699D3*
X2213199D3*
X2263199Y4739572D3*
X2312699D3*
X2903699D3*
X2953699D3*
X3003699D3*
X3053699D3*
X3103699D3*
X3694199Y4739072D3*
X3744199Y4739572D3*
X3795199D3*
X3844699D3*
X3895199Y4739072D3*
X4944699D3*
X4994699D3*
X5044699D3*
X5094699Y4740072D3*
X5145699Y4739072D3*
X5464699Y1365572D3*
X5439699Y1322072D3*
X5364699Y1192072D3*
X5389699Y1235572D3*
X5414699Y1279072D3*
X5258199Y1008072D3*
X5233199Y964572D3*
X5158199Y834572D3*
X5183199Y878072D3*
X5208199Y921572D3*
X5026199Y606572D3*
X5001199Y563072D3*
X4926199Y433072D3*
X4951199Y476572D3*
X4976199Y520072D3*
X5051199Y651072D3*
X1080699Y433072D3*
X1055699Y476572D3*
X1030699Y520072D3*
X955699Y650572D3*
X981199Y606572D3*
X1005699Y563072D3*
X849199Y834572D3*
X824199Y878072D3*
X799199Y921572D3*
X749199Y1007572D3*
X774199Y964572D3*
X642699Y1192072D3*
X617699Y1235572D3*
X592699Y1279072D3*
X543199Y1365572D3*
X567699Y1322072D3*
X3158699Y1094072D3*
X3208699D3*
X3258699D3*
X3308699D3*
X3358699D3*
X2648699Y1093572D3*
X2698699Y1094072D3*
X2748699D3*
X2798699D3*
X2848699D3*
X3778699Y3051572D3*
X3803699Y3008072D3*
X3828699Y2965072D3*
X3853699Y2921572D3*
X3879199Y2878072D3*
X4033699Y2609572D3*
X4058699Y2566572D3*
X4083699Y2523072D3*
X4108699Y2479572D3*
X4133699Y2436072D3*
X2228699Y3051572D3*
X2203199Y3008072D3*
X2178699Y2965072D3*
X2153699Y2921572D3*
X2128699Y2878072D3*
X1973699Y2609572D3*
X1948699Y2566072D3*
X1923699Y2523072D3*
X1898699Y2480072D3*
X1873699Y2436572D3*
D24*
X3641199Y1505572D3*
X3708129D3*
X2278699Y1418072D3*
X2211770D3*
X3047449Y1230572D3*
X2980520D3*
D107*
X3976199Y2312072D3*
X4009664Y2254109D3*
X3901199Y2437072D3*
X3934664Y2379109D3*
D110*
X2241280Y2105581D3*
X2186161Y2010114D3*
D25*
X2483199Y1300072D3*
Y1367001D3*
D113*
X3541199Y2980572D3*
X3605982Y3017974D3*
X3659950Y2924322D3*
X3595168Y2886920D3*
D24*
X3772449Y1424322D3*
X3705520D3*
X3372411Y1518143D3*
X3305482D3*
X2828699Y1449322D3*
X2895629D3*
X2880711Y1547049D3*
X2813782D3*
X3387699Y1582072D3*
X3320770D3*
D39*
X3147450Y1314323D3*
Y1276921D3*
Y1239520D3*
X3253749D3*
Y1314323D3*
D40*
X2801199Y1272672D3*
Y1298262D3*
Y1323853D3*
Y1349444D3*
X2572853D3*
Y1323853D3*
Y1298262D3*
Y1272672D3*
D39*
X3516146Y1265673D3*
Y1303075D3*
Y1340476D3*
X3409846D3*
Y1265673D3*
M02*
