G04 This is an RS-274x file exported by *
G04 gerbv version 2.6A *
G04 More information is available about gerbv at *
G04 http://gerbv.geda-project.org/ *
G04 --End of header info--*
%MOIN*%
%FSLAX34Y34*%
%IPPOS*%
G04 --Define apertures--*
%ADD10C,0.1200*%
%ADD11R,0.0760X0.0860*%
%ADD12C,0.0500*%
%ADD13R,0.0789X0.0237*%
%ADD14R,0.0513X0.0316*%
%ADD15C,0.0390*%
%ADD16C,0.2580*%
%ADD17C,0.0730*%
%ADD18C,0.0880*%
%ADD19C,0.1280*%
%ADD20C,0.0671*%
%ADD21R,0.0671X0.0671*%
%ADD22R,0.0769X0.0671*%
%ADD23R,0.0592X0.0671*%
%ADD24R,0.0474X0.0513*%
%ADD25R,0.0513X0.0474*%
%AMMACRO26*
4,1,4,0.101086,0.027086,0.027086,-0.101086,-0.101086,-0.027086,-0.027086,0.101086,0.101086,0.027086,0.000000*
%
%ADD26MACRO26*%
%AMMACRO27*
4,1,4,-0.056238,-0.011409,-0.018238,0.054409,0.056238,0.011409,0.018238,-0.054409,-0.056238,-0.011409,0.000000*
%
%ADD27MACRO27*%
%AMMACRO28*
4,1,4,0.050061,0.009812,0.016534,-0.048261,-0.050061,-0.009812,-0.016534,0.048261,0.050061,0.009812,0.000000*
%
%ADD28MACRO28*%
%AMMACRO29*
4,1,4,0.018238,0.054409,0.056238,-0.011409,-0.018238,-0.054409,-0.056238,0.011409,0.018238,0.054409,0.000000*
%
%ADD29MACRO29*%
%AMMACRO30*
4,1,4,-0.007649,-0.041994,-0.040192,0.014372,0.007649,0.041994,0.040192,-0.014372,-0.007649,-0.041994,0.000000*
%
%ADD30MACRO30*%
%AMMACRO31*
4,1,4,-0.033338,0.010373,0.007685,0.034059,0.033338,-0.010373,-0.007685,-0.034059,-0.033338,0.010373,0.000000*
%
%ADD31MACRO31*%
%AMMACRO32*
4,1,4,-0.016402,0.050458,0.051898,0.011025,0.016402,-0.050458,-0.051898,-0.011025,-0.016402,0.050458,0.000000*
%
%ADD32MACRO32*%
%AMMACRO33*
4,1,4,0.008862,0.043832,0.042389,-0.014241,-0.008862,-0.043832,-0.042389,0.014241,0.008862,0.043832,0.000000*
%
%ADD33MACRO33*%
G04 --Start main section--*
G54D25*
G01X0022118Y0014806D03*
G01X0022787Y0014806D03*
G01X0029787Y0013056D03*
G01X0030456Y0013056D03*
G54D24*
G01X0033412Y0012657D03*
G01X0033412Y0013326D03*
G54D25*
G01X0029787Y0013868D03*
G01X0030456Y0013868D03*
G01X0035537Y0015368D03*
G01X0034868Y0015368D03*
G54D23*
G01X0033975Y0014156D03*
G01X0034723Y0014156D03*
G54D25*
G01X0032325Y0014156D03*
G01X0032994Y0014156D03*
G54D24*
G01X0036037Y0013556D03*
G01X0036037Y0014225D03*
G54D26*
G01X0023157Y0026871D03*
G01X0022072Y0024991D03*
G54D27*
G01X0023724Y0023431D03*
G01X0023159Y0022452D03*
G54D22*
G01X0023850Y0014306D03*
G01X0023850Y0015684D03*
G54D28*
G01X0019757Y0018991D03*
G01X0020446Y0020184D03*
G54D29*
G01X0038507Y0026106D03*
G01X0037942Y0027084D03*
G54D11*
G01X0030206Y0015495D03*
G01X0031336Y0015495D03*
G54D30*
G01X0039349Y0020681D03*
G01X0038769Y0020346D03*
G54D21*
G01X0025202Y0015481D03*
G54D20*
G01X0025202Y0014481D03*
G01X0026202Y0015481D03*
G01X0026202Y0014481D03*
G01X0027202Y0015481D03*
G01X0027202Y0014481D03*
G54D19*
G01X0020913Y0023368D03*
G01X0020224Y0022175D03*
G54D12*
G01X0020914Y0023369D03*
G01X0020224Y0022174D03*
G54D18*
G01X0033947Y0028941D03*
G01X0034447Y0028075D03*
G01X0034947Y0027209D03*
G01X0035447Y0026343D03*
G01X0035947Y0025477D03*
G01X0036447Y0024611D03*
G01X0036947Y0023745D03*
G01X0037447Y0022879D03*
G01X0037947Y0022013D03*
G01X0038447Y0021147D03*
G54D17*
G01X0024627Y0030221D03*
G01X0024233Y0029539D03*
G01X0026618Y0029048D03*
G01X0026224Y0028366D03*
G01X0029648Y0043529D03*
G01X0030435Y0043529D03*
G01X0011538Y0010793D03*
G01X0011144Y0011475D03*
G01X0048946Y0011469D03*
G01X0048553Y0010787D03*
G54D16*
G01X0030037Y0045741D03*
G01X0050657Y0010031D03*
G01X0009427Y0010031D03*
G54D15*
G01X0008627Y0047391D03*
G01X0009132Y0047396D03*
G01X0009632Y0047396D03*
G01X0010127Y0047396D03*
G01X0010632Y0047386D03*
G01X0021127Y0047391D03*
G01X0021637Y0047391D03*
G01X0022132Y0047391D03*
G01X0022632Y0047396D03*
G01X0023127Y0047396D03*
G01X0029037Y0047396D03*
G01X0029537Y0047396D03*
G01X0030037Y0047396D03*
G01X0030537Y0047396D03*
G01X0031037Y0047396D03*
G01X0036942Y0047391D03*
G01X0037442Y0047396D03*
G01X0037952Y0047396D03*
G01X0038447Y0047396D03*
G01X0038952Y0047391D03*
G01X0049447Y0047391D03*
G01X0049947Y0047391D03*
G01X0050447Y0047391D03*
G01X0050947Y0047401D03*
G01X0051457Y0047391D03*
G01X0054647Y0013656D03*
G01X0054397Y0013221D03*
G01X0053647Y0011921D03*
G01X0053897Y0012356D03*
G01X0054147Y0012791D03*
G01X0052582Y0010081D03*
G01X0052332Y0009646D03*
G01X0051582Y0008346D03*
G01X0051832Y0008781D03*
G01X0052082Y0009216D03*
G01X0050262Y0006066D03*
G01X0050012Y0005631D03*
G01X0049262Y0004331D03*
G01X0049512Y0004766D03*
G01X0049762Y0005201D03*
G01X0050512Y0006511D03*
G01X0010807Y0004331D03*
G01X0010557Y0004766D03*
G01X0010307Y0005201D03*
G01X0009557Y0006506D03*
G01X0009812Y0006066D03*
G01X0010057Y0005631D03*
G01X0008492Y0008346D03*
G01X0008242Y0008781D03*
G01X0007992Y0009216D03*
G01X0007492Y0010076D03*
G01X0007742Y0009646D03*
G01X0006427Y0011921D03*
G01X0006177Y0012356D03*
G01X0005927Y0012791D03*
G01X0005432Y0013656D03*
G01X0005677Y0013221D03*
G01X0031587Y0010941D03*
G01X0032087Y0010941D03*
G01X0032587Y0010941D03*
G01X0033087Y0010941D03*
G01X0033587Y0010941D03*
G01X0026487Y0010936D03*
G01X0026987Y0010941D03*
G01X0027487Y0010941D03*
G01X0027987Y0010941D03*
G01X0028487Y0010941D03*
G01X0037787Y0030516D03*
G01X0038037Y0030081D03*
G01X0038287Y0029651D03*
G01X0038537Y0029216D03*
G01X0038792Y0028781D03*
G01X0040337Y0026096D03*
G01X0040587Y0025666D03*
G01X0040837Y0025231D03*
G01X0041087Y0024796D03*
G01X0041337Y0024361D03*
G01X0022287Y0030516D03*
G01X0022032Y0030081D03*
G01X0021787Y0029651D03*
G01X0021537Y0029216D03*
G01X0021287Y0028781D03*
G01X0019737Y0026096D03*
G01X0019487Y0025661D03*
G01X0019237Y0025231D03*
G01X0018987Y0024801D03*
G01X0018737Y0024366D03*
G54D25*
G01X0036412Y0015056D03*
G01X0037081Y0015056D03*
G01X0022787Y0014181D03*
G01X0022118Y0014181D03*
G01X0030474Y0012306D03*
G01X0029805Y0012306D03*
G54D31*
G01X0039762Y0023121D03*
G01X0040097Y0022541D03*
G01X0039012Y0024371D03*
G01X0039347Y0023791D03*
G54D32*
G01X0022413Y0021056D03*
G01X0021862Y0020101D03*
G54D24*
G01X0024832Y0013001D03*
G01X0024832Y0013670D03*
G54D33*
G01X0035412Y0029806D03*
G01X0036060Y0030180D03*
G01X0036600Y0029243D03*
G01X0035952Y0028869D03*
G54D25*
G01X0037724Y0014243D03*
G01X0037055Y0014243D03*
G01X0033724Y0015181D03*
G01X0033055Y0015181D03*
G01X0028287Y0014493D03*
G01X0028956Y0014493D03*
G01X0028807Y0015470D03*
G01X0028138Y0015470D03*
G01X0033877Y0015821D03*
G01X0033208Y0015821D03*
G54D14*
G01X0031475Y0013143D03*
G01X0031475Y0012769D03*
G01X0031475Y0012395D03*
G01X0032537Y0012395D03*
G01X0032537Y0013143D03*
G54D13*
G01X0028012Y0012727D03*
G01X0028012Y0012983D03*
G01X0028012Y0013239D03*
G01X0028012Y0013494D03*
G01X0025729Y0013494D03*
G01X0025729Y0013239D03*
G01X0025729Y0012983D03*
G01X0025729Y0012727D03*
G54D14*
G01X0035161Y0012657D03*
G01X0035161Y0013031D03*
G01X0035161Y0013405D03*
G01X0034098Y0013405D03*
G01X0034098Y0012657D03*
M02*
