G04 DipTrace 3.2.0.1*
G04 TopSilk.gbr*
%MOIN*%
G04 #@! TF.FileFunction,Legend,Top*
G04 #@! TF.Part,Single*
%ADD10C,0.01*%
%ADD38C,0.015395*%
%ADD86C,0.004632*%
%ADD88C,0.006176*%
%ADD90C,0.012351*%
%ADD91C,0.009264*%
%FSLAX26Y26*%
G04*
G70*
G90*
G75*
G01*
G04 TopSilk*
%LPD*%
X3356091Y1390001D2*
D10*
Y1441143D1*
X2437247Y2355317D2*
X2337258Y2182106D1*
X2250648Y2232106D1*
X2350657Y2405317D1*
X2437247Y2355317D1*
X2449751Y2376962D2*
X2363141Y2426962D1*
X2412509Y1616596D2*
X2357391D1*
X2416443Y1521128D2*
Y1477824D1*
X2353457Y1521128D2*
Y1477824D1*
X2092577Y2046394D2*
X2044845Y2073952D1*
X2048253Y1961740D2*
X2026599Y1924256D1*
X1993706Y1993238D2*
X1972052Y1955732D1*
X3828934Y2548321D2*
X3728925Y2721532D1*
X3815535Y2771531D1*
X3915524Y2598321D1*
X3828934Y2548321D1*
X3841418Y2526676D2*
X3928028Y2576675D1*
X2977642Y1599516D2*
X3177644D1*
Y1499516D1*
X2977642D1*
Y1599516D1*
X2952644D2*
Y1499516D1*
X1838461Y2243906D2*
X1976364Y2482736D1*
X2275140Y2310215D1*
X2137237Y2071385D1*
X1838461Y2243906D1*
X2077499Y2165646D2*
G02X2077499Y2165646I34498J0D01*
G01*
X2146494Y2285143D2*
G02X2146494Y2285143I34498J0D01*
G01*
X1855710Y2273770D2*
X1945360Y2222022D1*
X1890208Y2333539D2*
X1979858Y2281791D1*
X1924705Y2393267D2*
X2014355Y2341519D1*
X1959203Y2453036D2*
X2048853Y2401288D1*
X2282298Y2944970D2*
X2399906Y3148674D1*
X2569636Y3050684D1*
X2452029Y2846980D1*
X2282298Y2944970D1*
X2481411Y2827722D2*
X2599022Y3031419D1*
X2768728Y2933432D1*
X2651149Y2729736D1*
X2481411Y2827722D1*
X3121744Y4235177D2*
X2886539D1*
Y4431158D1*
X3121744D1*
Y4235177D1*
X1177193Y1274058D2*
X1294796Y1070362D1*
X1125072Y972375D1*
X1007469Y1176072D1*
X1177193Y1274058D1*
X4714236Y1069825D2*
X4831838Y1273522D1*
X5001562Y1175535D1*
X4883959Y971838D1*
X4714236Y1069825D1*
X2192366Y2083774D2*
X2180587Y2063374D1*
X2246854Y2052321D2*
X2235075Y2031921D1*
D38*
X3130825Y1341237D3*
X3184890Y1335974D2*
D10*
Y1217866D1*
X3216381Y1335974D2*
Y1217866D1*
X3184890D2*
X3216381D1*
X3184890Y1335974D2*
X3216381D1*
X2750010Y1252003D2*
Y1370113D1*
X2624042Y1252003D2*
Y1370113D1*
X2750010D2*
X2624042D1*
X2750010Y1252003D2*
X2706714D1*
X2667338D2*
X2624042D1*
X2706714D2*
G03X2667338Y1252003I-19688J13D01*
G01*
D38*
X3532771Y1238759D3*
X3478706Y1244022D2*
D10*
Y1362130D1*
X3447215Y1244022D2*
Y1362130D1*
X3478706D2*
X3447215D1*
X3478706Y1244022D2*
X3447215D1*
X2249948Y1539211D2*
D86*
X2248523Y1542062D1*
X2245637Y1544948D1*
X2242786Y1546373D1*
X2237049D1*
X2234164Y1544948D1*
X2231312Y1542062D1*
X2229852Y1539211D1*
X2228427Y1534900D1*
Y1527703D1*
X2229852Y1523426D1*
X2231312Y1520540D1*
X2234164Y1517689D1*
X2237049Y1516229D1*
X2242786D1*
X2245637Y1517689D1*
X2248523Y1520540D1*
X2249948Y1523426D1*
X2259212Y1540603D2*
X2262097Y1542062D1*
X2266408Y1546340D1*
Y1516229D1*
X3082245Y1353028D2*
X3080819Y1355880D1*
X3077934Y1358765D1*
X3075082Y1360191D1*
X3069345D1*
X3066460Y1358765D1*
X3063608Y1355880D1*
X3062149Y1353028D1*
X3060723Y1348717D1*
Y1341521D1*
X3062149Y1337243D1*
X3063608Y1334358D1*
X3066460Y1331506D1*
X3069345Y1330047D1*
X3075082D1*
X3077934Y1331506D1*
X3080819Y1334358D1*
X3082245Y1337243D1*
X3092968Y1352995D2*
Y1354421D1*
X3094394Y1357306D1*
X3095820Y1358732D1*
X3098705Y1360158D1*
X3104442D1*
X3107294Y1358732D1*
X3108720Y1357306D1*
X3110179Y1354421D1*
Y1351569D1*
X3108720Y1348684D1*
X3105868Y1344406D1*
X3091509Y1330047D1*
X3111605D1*
X3334544Y1203946D2*
X3331692Y1202520D1*
X3328807Y1199635D1*
X3327381Y1196783D1*
Y1191046D1*
X3328807Y1188161D1*
X3331692Y1185309D1*
X3334544Y1183850D1*
X3338855Y1182424D1*
X3346051D1*
X3350329Y1183850D1*
X3353214Y1185309D1*
X3356066Y1188161D1*
X3357525Y1191046D1*
Y1196783D1*
X3356066Y1199635D1*
X3353214Y1202520D1*
X3350329Y1203946D1*
X3327414Y1216095D2*
Y1231847D1*
X3338888Y1223258D1*
Y1227569D1*
X3340314Y1230421D1*
X3341740Y1231846D1*
X3346051Y1233306D1*
X3348903D1*
X3353214Y1231846D1*
X3356099Y1228995D1*
X3357525Y1224684D1*
Y1220373D1*
X3356099Y1216095D1*
X3354640Y1214669D1*
X3351788Y1213210D1*
X3007532Y1438279D2*
X3006106Y1441131D1*
X3003221Y1444016D1*
X3000369Y1445442D1*
X2994632D1*
X2991747Y1444016D1*
X2988895Y1441131D1*
X2987436Y1438279D1*
X2986010Y1433968D1*
Y1426772D1*
X2987436Y1422494D1*
X2988895Y1419609D1*
X2991747Y1416757D1*
X2994632Y1415298D1*
X3000369D1*
X3003221Y1416757D1*
X3006106Y1419609D1*
X3007532Y1422494D1*
X3031155Y1415298D2*
Y1445409D1*
X3016796Y1425346D1*
X3038318D1*
X3542218Y1500392D2*
X3540792Y1503244D1*
X3537907Y1506129D1*
X3535055Y1507555D1*
X3529318D1*
X3526433Y1506129D1*
X3523581Y1503244D1*
X3522122Y1500392D1*
X3520696Y1496081D1*
Y1488885D1*
X3522122Y1484607D1*
X3523581Y1481722D1*
X3526433Y1478870D1*
X3529318Y1477411D1*
X3535055D1*
X3537907Y1478870D1*
X3540792Y1481722D1*
X3542218Y1484607D1*
X3568692Y1507521D2*
X3554366D1*
X3552940Y1494622D1*
X3554366Y1496047D1*
X3558677Y1497507D1*
X3562955D1*
X3567266Y1496047D1*
X3570151Y1493196D1*
X3571577Y1488885D1*
Y1486033D1*
X3570151Y1481722D1*
X3567266Y1478837D1*
X3562955Y1477411D1*
X3558677D1*
X3554366Y1478837D1*
X3552940Y1480296D1*
X3551481Y1483148D1*
X3450778Y1477871D2*
X3449352Y1480723D1*
X3446467Y1483608D1*
X3443615Y1485034D1*
X3437878D1*
X3434993Y1483608D1*
X3432141Y1480723D1*
X3430682Y1477871D1*
X3429256Y1473560D1*
Y1466364D1*
X3430682Y1462086D1*
X3432141Y1459201D1*
X3434993Y1456349D1*
X3437878Y1454890D1*
X3443615D1*
X3446467Y1456349D1*
X3449352Y1459201D1*
X3450778Y1462086D1*
X3477252Y1480723D2*
X3475826Y1483574D1*
X3471515Y1485000D1*
X3468664D1*
X3464353Y1483574D1*
X3461467Y1479263D1*
X3460042Y1472101D1*
Y1464938D1*
X3461467Y1459201D1*
X3464353Y1456316D1*
X3468664Y1454890D1*
X3470090D1*
X3474367Y1456316D1*
X3477252Y1459201D1*
X3478678Y1463512D1*
Y1464938D1*
X3477252Y1469249D1*
X3474367Y1472101D1*
X3470090Y1473526D1*
X3468664D1*
X3464353Y1472101D1*
X3461467Y1469249D1*
X3460042Y1464938D1*
X3225567Y1469322D2*
X3224141Y1472174D1*
X3221256Y1475059D1*
X3218404Y1476485D1*
X3212667D1*
X3209782Y1475059D1*
X3206930Y1472174D1*
X3205471Y1469322D1*
X3204045Y1465011D1*
Y1457815D1*
X3205471Y1453537D1*
X3206930Y1450652D1*
X3209782Y1447800D1*
X3212667Y1446341D1*
X3218404D1*
X3221256Y1447800D1*
X3224141Y1450652D1*
X3225567Y1453537D1*
X3240567Y1446341D2*
X3254926Y1476452D1*
X3234830D1*
X3547244Y1385135D2*
X3544392Y1383709D1*
X3541507Y1380824D1*
X3540081Y1377972D1*
Y1372235D1*
X3541507Y1369350D1*
X3544392Y1366498D1*
X3547244Y1365039D1*
X3551555Y1363613D1*
X3558751D1*
X3563029Y1365039D1*
X3565914Y1366498D1*
X3568766Y1369350D1*
X3570225Y1372235D1*
Y1377972D1*
X3568766Y1380824D1*
X3565914Y1383709D1*
X3563029Y1385135D1*
X3540114Y1401561D2*
X3541540Y1397283D1*
X3544392Y1395824D1*
X3547277D1*
X3550129Y1397283D1*
X3551588Y1400135D1*
X3553014Y1405872D1*
X3554440Y1410183D1*
X3557325Y1413035D1*
X3560177Y1414461D1*
X3564488D1*
X3567340Y1413035D1*
X3568799Y1411609D1*
X3570225Y1407298D1*
Y1401561D1*
X3568799Y1397283D1*
X3567340Y1395824D1*
X3564488Y1394398D1*
X3560177D1*
X3557325Y1395824D1*
X3554440Y1398709D1*
X3553014Y1402987D1*
X3551588Y1408724D1*
X3550129Y1411609D1*
X3547277Y1413035D1*
X3544392D1*
X3541540Y1411609D1*
X3540114Y1407298D1*
Y1401561D1*
X2285710Y2406200D2*
Y2376056D1*
X2295758D1*
X2300069Y2377515D1*
X2302954Y2380367D1*
X2304380Y2383252D1*
X2305806Y2387530D1*
Y2394726D1*
X2304380Y2399037D1*
X2302954Y2401889D1*
X2300069Y2404774D1*
X2295758Y2406200D1*
X2285710D1*
X2315070Y2400430D2*
X2317955Y2401889D1*
X2322266Y2406167D1*
Y2376056D1*
X2360222Y1663803D2*
Y1633659D1*
X2370270D1*
X2374581Y1635118D1*
X2377466Y1637970D1*
X2378892Y1640855D1*
X2380318Y1645133D1*
Y1652329D1*
X2378892Y1656640D1*
X2377466Y1659492D1*
X2374581Y1662377D1*
X2370270Y1663803D1*
X2360222D1*
X2392467Y1663769D2*
X2408219D1*
X2399630Y1652295D1*
X2403941D1*
X2406793Y1650870D1*
X2408219Y1649444D1*
X2409678Y1645133D1*
Y1642281D1*
X2408219Y1637970D1*
X2405367Y1635085D1*
X2401056Y1633659D1*
X2396745D1*
X2392467Y1635085D1*
X2391041Y1636544D1*
X2389582Y1639396D1*
X2034399Y1860886D2*
Y1830742D1*
X2044447D1*
X2048758Y1832201D1*
X2051643Y1835053D1*
X2053069Y1837938D1*
X2054495Y1842216D1*
Y1849412D1*
X2053069Y1853723D1*
X2051643Y1856575D1*
X2048758Y1859460D1*
X2044447Y1860886D1*
X2034399D1*
X2078118Y1830742D2*
Y1860853D1*
X2063759Y1840790D1*
X2085281D1*
X3706709Y2616872D2*
Y2586728D1*
X3716757D1*
X3721068Y2588187D1*
X3723953Y2591039D1*
X3725379Y2593924D1*
X3726805Y2598202D1*
Y2605398D1*
X3725379Y2609709D1*
X3723953Y2612561D1*
X3721068Y2615446D1*
X3716757Y2616872D1*
X3706709D1*
X3753280Y2612561D2*
X3751854Y2615413D1*
X3747543Y2616839D1*
X3744691D1*
X3740380Y2615413D1*
X3737495Y2611102D1*
X3736069Y2603939D1*
Y2596776D1*
X3737495Y2591039D1*
X3740380Y2588154D1*
X3744691Y2586728D1*
X3746117D1*
X3750395Y2588154D1*
X3753280Y2591039D1*
X3754706Y2595350D1*
Y2596776D1*
X3753280Y2601087D1*
X3750395Y2603939D1*
X3746117Y2605365D1*
X3744691D1*
X3740380Y2603939D1*
X3737495Y2601087D1*
X3736069Y2596776D1*
X3083417Y1483450D2*
Y1453306D1*
X3093465D1*
X3097776Y1454765D1*
X3100661Y1457617D1*
X3102087Y1460502D1*
X3103513Y1464780D1*
Y1471976D1*
X3102087Y1476287D1*
X3100661Y1479139D1*
X3097776Y1482024D1*
X3093465Y1483450D1*
X3083417D1*
X3118513Y1453306D2*
X3132872Y1483416D1*
X3112776D1*
X3981035Y2117549D2*
Y2087405D1*
X3998246D1*
X4007509Y2111779D2*
X4010394Y2113238D1*
X4014705Y2117516D1*
Y2087405D1*
X1965028Y2106290D2*
X1977961D1*
X1982239Y2107716D1*
X1983698Y2109175D1*
X1985124Y2112027D1*
Y2116338D1*
X1983698Y2119190D1*
X1982239Y2120649D1*
X1977961Y2122075D1*
X1965028D1*
Y2091931D1*
X1997273Y2122042D2*
X2013025D1*
X2004436Y2110568D1*
X2008747D1*
X2011599Y2109142D1*
X2013025Y2107716D1*
X2014484Y2103405D1*
Y2100553D1*
X2013025Y2096242D1*
X2010173Y2093357D1*
X2005862Y2091931D1*
X2001551D1*
X1997273Y2093357D1*
X1995847Y2094816D1*
X1994388Y2097668D1*
X2478642Y3147608D2*
Y3123201D1*
X2480068Y3118923D1*
X2482953Y3117464D1*
X2485805D1*
X2474331Y3137560D2*
X2484379D1*
X2495068Y3147608D2*
Y3117464D1*
Y3131823D2*
X2499379Y3136134D1*
X2502264Y3137560D1*
X2506575D1*
X2509427Y3136134D1*
X2510853Y3131823D1*
Y3117464D1*
X2520117Y3128938D2*
X2537328D1*
Y3131823D1*
X2535902Y3134708D1*
X2534476Y3136134D1*
X2531591Y3137560D1*
X2527280D1*
X2524428Y3136134D1*
X2521543Y3133249D1*
X2520117Y3128938D1*
Y3126086D1*
X2521543Y3121775D1*
X2524428Y3118923D1*
X2527280Y3117464D1*
X2531591D1*
X2534476Y3118923D1*
X2537328Y3121775D1*
X2546591Y3137560D2*
Y3117464D1*
Y3128938D2*
X2548050Y3133249D1*
X2550902Y3136134D1*
X2553787Y3137560D1*
X2558098D1*
X2567362D2*
Y3117464D1*
Y3131823D2*
X2571673Y3136134D1*
X2574558Y3137560D1*
X2578836D1*
X2581721Y3136134D1*
X2583147Y3131823D1*
Y3117464D1*
Y3131823D2*
X2587458Y3136134D1*
X2590343Y3137560D1*
X2594621D1*
X2597506Y3136134D1*
X2598965Y3131823D1*
Y3117464D1*
X2608228Y3147608D2*
X2609654Y3146182D1*
X2611114Y3147608D1*
X2609654Y3149067D1*
X2608228Y3147608D1*
X2609654Y3137560D2*
Y3117464D1*
X2636162Y3133249D2*
X2634736Y3136134D1*
X2630425Y3137560D1*
X2626114D1*
X2621803Y3136134D1*
X2620377Y3133249D1*
X2621803Y3130397D1*
X2624688Y3128938D1*
X2631851Y3127512D1*
X2634736Y3126086D1*
X2636162Y3123201D1*
Y3121775D1*
X2634736Y3118923D1*
X2630425Y3117464D1*
X2626114D1*
X2621803Y3118923D1*
X2620377Y3121775D1*
X2649737Y3147608D2*
Y3123201D1*
X2651163Y3118923D1*
X2654048Y3117464D1*
X2656900D1*
X2645426Y3137560D2*
X2655474D1*
X2673326D2*
X2670474Y3136134D1*
X2667589Y3133249D1*
X2666163Y3128938D1*
Y3126086D1*
X2667589Y3121775D1*
X2670474Y3118923D1*
X2673326Y3117464D1*
X2677637D1*
X2680522Y3118923D1*
X2683374Y3121775D1*
X2684833Y3126086D1*
Y3128938D1*
X2683374Y3133249D1*
X2680522Y3136134D1*
X2677637Y3137560D1*
X2673326D1*
X2694097D2*
Y3117464D1*
Y3128938D2*
X2695556Y3133249D1*
X2698408Y3136134D1*
X2701293Y3137560D1*
X2705604D1*
X2658820Y3050133D2*
Y3019989D1*
X2678916Y3050133D2*
Y3019989D1*
X2658820Y3035774D2*
X2678916D1*
X2688180Y3031462D2*
X2705391D1*
Y3034348D1*
X2703965Y3037233D1*
X2702539Y3038659D1*
X2699654Y3040085D1*
X2695343D1*
X2692491Y3038659D1*
X2689606Y3035774D1*
X2688180Y3031462D1*
Y3028611D1*
X2689606Y3024300D1*
X2692491Y3021448D1*
X2695343Y3019989D1*
X2699654D1*
X2702539Y3021448D1*
X2705391Y3024300D1*
X2731865Y3040085D2*
Y3019989D1*
Y3035774D2*
X2729013Y3038659D1*
X2726128Y3040085D1*
X2721850D1*
X2718965Y3038659D1*
X2716113Y3035774D1*
X2714654Y3031462D1*
Y3028611D1*
X2716113Y3024300D1*
X2718965Y3021448D1*
X2721850Y3019989D1*
X2726128D1*
X2729013Y3021448D1*
X2731865Y3024300D1*
X2745440Y3050133D2*
Y3025726D1*
X2746866Y3021448D1*
X2749751Y3019989D1*
X2752603D1*
X2741129Y3040085D2*
X2751177D1*
X2780536Y3050133D2*
X2761866D1*
Y3019989D1*
Y3035774D2*
X2773340D1*
X2807011Y3040085D2*
Y3019989D1*
Y3035774D2*
X2804159Y3038659D1*
X2801274Y3040085D1*
X2796996D1*
X2794111Y3038659D1*
X2791259Y3035774D1*
X2789800Y3031462D1*
Y3028611D1*
X2791259Y3024300D1*
X2794111Y3021448D1*
X2796996Y3019989D1*
X2801274D1*
X2804159Y3021448D1*
X2807011Y3024300D1*
X2816274Y3040085D2*
Y3019989D1*
Y3034348D2*
X2820585Y3038659D1*
X2823470Y3040085D1*
X2827748D1*
X2830633Y3038659D1*
X2832059Y3034348D1*
Y3019989D1*
X2890971Y4207217D2*
X2903904D1*
X2908182Y4208643D1*
X2909641Y4210102D1*
X2911067Y4212954D1*
Y4217265D1*
X2909641Y4220117D1*
X2908182Y4221576D1*
X2903904Y4223002D1*
X2890971D1*
Y4192858D1*
X2937542Y4212954D2*
Y4192858D1*
Y4208643D2*
X2934690Y4211528D1*
X2931805Y4212954D1*
X2927527D1*
X2924642Y4211528D1*
X2921790Y4208643D1*
X2920331Y4204332D1*
Y4201480D1*
X2921790Y4197169D1*
X2924642Y4194317D1*
X2927527Y4192858D1*
X2931805D1*
X2934690Y4194317D1*
X2937542Y4197169D1*
X2946805Y4212954D2*
Y4192858D1*
Y4204332D2*
X2948264Y4208643D1*
X2951116Y4211528D1*
X2954001Y4212954D1*
X2958312D1*
X2971887Y4223002D2*
Y4198595D1*
X2973313Y4194317D1*
X2976198Y4192858D1*
X2979050D1*
X2967576Y4212954D2*
X2977624D1*
X3006983Y4223002D2*
X2988313D1*
Y4192858D1*
Y4208643D2*
X2999787D1*
X3033458Y4212954D2*
Y4192858D1*
Y4208643D2*
X3030606Y4211528D1*
X3027721Y4212954D1*
X3023443D1*
X3020558Y4211528D1*
X3017706Y4208643D1*
X3016247Y4204332D1*
Y4201480D1*
X3017706Y4197169D1*
X3020558Y4194317D1*
X3023443Y4192858D1*
X3027721D1*
X3030606Y4194317D1*
X3033458Y4197169D1*
X3042721Y4212954D2*
Y4192858D1*
Y4207217D2*
X3047032Y4211528D1*
X3049917Y4212954D1*
X3054195D1*
X3057080Y4211528D1*
X3058506Y4207217D1*
Y4192858D1*
X3067770Y4217232D2*
X3070655Y4218691D1*
X3074966Y4222969D1*
Y4192858D1*
X1231135Y1221414D2*
X1244068D1*
X1248346Y1222840D1*
X1249805Y1224300D1*
X1251231Y1227151D1*
Y1231462D1*
X1249805Y1234314D1*
X1248346Y1235774D1*
X1244068Y1237199D1*
X1231135D1*
Y1207055D1*
X1277706Y1227151D2*
Y1207055D1*
Y1222840D2*
X1274854Y1225726D1*
X1271969Y1227151D1*
X1267691D1*
X1264806Y1225726D1*
X1261954Y1222840D1*
X1260495Y1218529D1*
Y1215678D1*
X1261954Y1211366D1*
X1264806Y1208515D1*
X1267691Y1207055D1*
X1271969D1*
X1274854Y1208515D1*
X1277706Y1211366D1*
X1286969Y1227151D2*
Y1207055D1*
Y1218529D2*
X1288428Y1222840D1*
X1291280Y1225726D1*
X1294165Y1227151D1*
X1298476D1*
X1312051Y1237199D2*
Y1212792D1*
X1313477Y1208515D1*
X1316362Y1207055D1*
X1319214D1*
X1307740Y1227151D2*
X1317788D1*
X1347147Y1237199D2*
X1328477D1*
Y1207055D1*
Y1222840D2*
X1339951D1*
X1373622Y1227151D2*
Y1207055D1*
Y1222840D2*
X1370770Y1225726D1*
X1367885Y1227151D1*
X1363607D1*
X1360722Y1225726D1*
X1357870Y1222840D1*
X1356411Y1218529D1*
Y1215678D1*
X1357870Y1211366D1*
X1360722Y1208515D1*
X1363607Y1207055D1*
X1367885D1*
X1370770Y1208515D1*
X1373622Y1211366D1*
X1382885Y1227151D2*
Y1207055D1*
Y1221414D2*
X1387196Y1225726D1*
X1390081Y1227151D1*
X1394359D1*
X1397244Y1225726D1*
X1398670Y1221414D1*
Y1207055D1*
X1407934Y1231429D2*
X1410819Y1232888D1*
X1415130Y1237166D1*
Y1207055D1*
X4569151Y1197878D2*
X4582084D1*
X4586362Y1199304D1*
X4587821Y1200763D1*
X4589247Y1203615D1*
Y1207926D1*
X4587821Y1210778D1*
X4586362Y1212237D1*
X4582084Y1213663D1*
X4569151D1*
Y1183519D1*
X4615721Y1203615D2*
Y1183519D1*
Y1199304D2*
X4612869Y1202189D1*
X4609984Y1203615D1*
X4605706D1*
X4602821Y1202189D1*
X4599970Y1199304D1*
X4598510Y1194993D1*
Y1192141D1*
X4599970Y1187830D1*
X4602821Y1184978D1*
X4605706Y1183519D1*
X4609984D1*
X4612869Y1184978D1*
X4615721Y1187830D1*
X4624985Y1203615D2*
Y1183519D1*
Y1194993D2*
X4626444Y1199304D1*
X4629296Y1202189D1*
X4632181Y1203615D1*
X4636492D1*
X4650067Y1213663D2*
Y1189256D1*
X4651493Y1184978D1*
X4654378Y1183519D1*
X4657229D1*
X4645756Y1203615D2*
X4655804D1*
X4685163Y1213663D2*
X4666493D1*
Y1183519D1*
Y1199304D2*
X4677967D1*
X4711638Y1203615D2*
Y1183519D1*
Y1199304D2*
X4708786Y1202189D1*
X4705901Y1203615D1*
X4701623D1*
X4698738Y1202189D1*
X4695886Y1199304D1*
X4694427Y1194993D1*
Y1192141D1*
X4695886Y1187830D1*
X4698738Y1184978D1*
X4701623Y1183519D1*
X4705901D1*
X4708786Y1184978D1*
X4711638Y1187830D1*
X4720901Y1203615D2*
Y1183519D1*
Y1197878D2*
X4725212Y1202189D1*
X4728097Y1203615D1*
X4732375D1*
X4735260Y1202189D1*
X4736686Y1197878D1*
Y1183519D1*
X4745950Y1207893D2*
X4748835Y1209352D1*
X4753146Y1213630D1*
Y1183519D1*
X3652779Y1549421D2*
X3665679D1*
X3669990Y1550880D1*
X3671449Y1552306D1*
X3672875Y1555158D1*
Y1558043D1*
X3671449Y1560895D1*
X3669990Y1562354D1*
X3665679Y1563780D1*
X3652779D1*
Y1533636D1*
X3662827Y1549421D2*
X3672875Y1533636D1*
X3682138Y1558010D2*
X3685023Y1559469D1*
X3689334Y1563747D1*
Y1533636D1*
X2221819Y1374241D2*
X2234719D1*
X2239030Y1375701D1*
X2240490Y1377127D1*
X2241915Y1379978D1*
Y1382864D1*
X2240490Y1385715D1*
X2239030Y1387175D1*
X2234719Y1388601D1*
X2221819D1*
Y1358457D1*
X2231867Y1374241D2*
X2241915Y1358457D1*
X2252638Y1381404D2*
Y1382830D1*
X2254064Y1385715D1*
X2255490Y1387141D1*
X2258375Y1388567D1*
X2264112D1*
X2266964Y1387141D1*
X2268390Y1385715D1*
X2269849Y1382830D1*
Y1379978D1*
X2268390Y1377093D1*
X2265538Y1372816D1*
X2251179Y1358457D1*
X2271275D1*
X2992439Y1184794D2*
X3005339D1*
X3009650Y1186253D1*
X3011109Y1187679D1*
X3012535Y1190531D1*
Y1193416D1*
X3011109Y1196268D1*
X3009650Y1197727D1*
X3005339Y1199153D1*
X2992439D1*
Y1169009D1*
X3002487Y1184794D2*
X3012535Y1169009D1*
X3024684Y1199120D2*
X3040435D1*
X3031846Y1187646D1*
X3036157D1*
X3039009Y1186220D1*
X3040435Y1184794D1*
X3041894Y1180483D1*
Y1177631D1*
X3040435Y1173320D1*
X3037583Y1170435D1*
X3033272Y1169009D1*
X3028961D1*
X3024684Y1170435D1*
X3023258Y1171894D1*
X3021798Y1174746D1*
X4030091Y2310821D2*
X4042991D1*
X4047302Y2312280D1*
X4048761Y2313706D1*
X4050187Y2316558D1*
Y2319443D1*
X4048761Y2322295D1*
X4047302Y2323754D1*
X4042991Y2325180D1*
X4030091D1*
Y2295036D1*
X4040139Y2310821D2*
X4050187Y2295036D1*
X4073809D2*
Y2325147D1*
X4059450Y2305084D1*
X4080972D1*
X3960804Y2436116D2*
X3973704D1*
X3978015Y2437575D1*
X3979474Y2439001D1*
X3980900Y2441853D1*
Y2444738D1*
X3979474Y2447590D1*
X3978015Y2449049D1*
X3973704Y2450475D1*
X3960804D1*
Y2420331D1*
X3970852Y2436116D2*
X3980900Y2420331D1*
X4007374Y2450442D2*
X3993048D1*
X3991622Y2437542D1*
X3993048Y2438968D1*
X3997359Y2440427D1*
X4001637D1*
X4005948Y2438968D1*
X4008833Y2436116D1*
X4010259Y2431805D1*
Y2428953D1*
X4008833Y2424642D1*
X4005948Y2421757D1*
X4001637Y2420331D1*
X3997359D1*
X3993048Y2421757D1*
X3991622Y2423216D1*
X3990163Y2426068D1*
X2266301Y2025670D2*
X2279201D1*
X2283512Y2027129D1*
X2284971Y2028555D1*
X2286397Y2031407D1*
Y2034292D1*
X2284971Y2037144D1*
X2283512Y2038603D1*
X2279201Y2040029D1*
X2266301D1*
Y2009885D1*
X2276349Y2025670D2*
X2286397Y2009885D1*
X2312871Y2035718D2*
X2311446Y2038570D1*
X2307134Y2039996D1*
X2304283D1*
X2299972Y2038570D1*
X2297086Y2034259D1*
X2295661Y2027096D1*
Y2019933D1*
X2297086Y2014196D1*
X2299972Y2011311D1*
X2304283Y2009885D1*
X2305709D1*
X2309986Y2011311D1*
X2312871Y2014196D1*
X2314297Y2018507D1*
Y2019933D1*
X2312871Y2024244D1*
X2309986Y2027096D1*
X2305709Y2028522D1*
X2304283D1*
X2299972Y2027096D1*
X2297086Y2024244D1*
X2295661Y2019933D1*
X2431192Y1313292D2*
Y1326192D1*
X2429733Y1330503D1*
X2428307Y1331962D1*
X2425455Y1333388D1*
X2422570D1*
X2419718Y1331962D1*
X2418259Y1330503D1*
X2416833Y1326192D1*
Y1313292D1*
X2446977D1*
X2431192Y1323340D2*
X2446977Y1333388D1*
Y1348388D2*
X2416866Y1362748D1*
Y1342652D1*
X3648039Y3049415D2*
X3660939D1*
X3665250Y3050874D1*
X3666710Y3052300D1*
X3668135Y3055152D1*
Y3058037D1*
X3666710Y3060889D1*
X3665250Y3062348D1*
X3660939Y3063774D1*
X3648039D1*
Y3033630D1*
X3658087Y3049415D2*
X3668135Y3033630D1*
X3684562Y3063741D2*
X3680284Y3062315D1*
X3678825Y3059463D1*
Y3056578D1*
X3680284Y3053726D1*
X3683136Y3052267D1*
X3688873Y3050841D1*
X3693184Y3049415D1*
X3696036Y3046530D1*
X3697462Y3043678D1*
Y3039367D1*
X3696036Y3036515D1*
X3694610Y3035056D1*
X3690299Y3033630D1*
X3684562D1*
X3680284Y3035056D1*
X3678825Y3036515D1*
X3677399Y3039367D1*
Y3043678D1*
X3678825Y3046530D1*
X3681710Y3049415D1*
X3685988Y3050841D1*
X3691725Y3052267D1*
X3694610Y3053726D1*
X3696036Y3056578D1*
Y3059463D1*
X3694610Y3062315D1*
X3690299Y3063741D1*
X3684562D1*
X3702935Y2957300D2*
X3715835D1*
X3720146Y2958759D1*
X3721605Y2960185D1*
X3723031Y2963037D1*
Y2965922D1*
X3721605Y2968774D1*
X3720146Y2970233D1*
X3715835Y2971659D1*
X3702935D1*
Y2941515D1*
X3712983Y2957300D2*
X3723031Y2941515D1*
X3750965Y2961611D2*
X3749506Y2957300D1*
X3746654Y2954415D1*
X3742343Y2952989D1*
X3740917D1*
X3736606Y2954415D1*
X3733754Y2957300D1*
X3732295Y2961611D1*
Y2963037D1*
X3733754Y2967348D1*
X3736606Y2970200D1*
X3740917Y2971626D1*
X3742343D1*
X3746654Y2970200D1*
X3749506Y2967348D1*
X3750965Y2961611D1*
Y2954415D1*
X3749506Y2947252D1*
X3746654Y2942941D1*
X3742343Y2941515D1*
X3739491D1*
X3735180Y2942941D1*
X3733754Y2945826D1*
X3712477Y1382499D2*
X3725377D1*
X3729688Y1383958D1*
X3731147Y1385384D1*
X3732573Y1388236D1*
Y1391121D1*
X3731147Y1393973D1*
X3729688Y1395432D1*
X3725377Y1396858D1*
X3712477D1*
Y1366714D1*
X3722525Y1382499D2*
X3732573Y1366714D1*
X3741836Y1391088D2*
X3744721Y1392547D1*
X3749032Y1396825D1*
Y1366714D1*
X3758296Y1391088D2*
X3761181Y1392547D1*
X3765492Y1396825D1*
Y1366714D1*
X3332087Y1472419D2*
X3344987D1*
X3349298Y1473878D1*
X3350757Y1475304D1*
X3352183Y1478156D1*
Y1481041D1*
X3350757Y1483893D1*
X3349298Y1485352D1*
X3344987Y1486778D1*
X3332087D1*
Y1456634D1*
X3342135Y1472419D2*
X3352183Y1456634D1*
X3361447Y1481008D2*
X3364332Y1482467D1*
X3368643Y1486745D1*
Y1456634D1*
X3380791Y1486745D2*
X3396543D1*
X3387954Y1475271D1*
X3392265D1*
X3395117Y1473845D1*
X3396543Y1472419D1*
X3398002Y1468108D1*
Y1465256D1*
X3396543Y1460945D1*
X3393691Y1458060D1*
X3389380Y1456634D1*
X3385069D1*
X3380791Y1458060D1*
X3379365Y1459519D1*
X3377906Y1462371D1*
X2828493Y1498581D2*
X2841393D1*
X2845704Y1500040D1*
X2847164Y1501466D1*
X2848589Y1504318D1*
Y1507203D1*
X2847164Y1510055D1*
X2845704Y1511514D1*
X2841393Y1512940D1*
X2828493D1*
Y1482796D1*
X2838541Y1498581D2*
X2848589Y1482796D1*
X2857853Y1507170D2*
X2860738Y1508629D1*
X2865049Y1512907D1*
Y1482796D1*
X2888672D2*
Y1512907D1*
X2874313Y1492844D1*
X2895835D1*
X3180086Y1205296D2*
Y1183774D1*
X3181512Y1179463D1*
X3184397Y1176611D1*
X3188708Y1175152D1*
X3191560D1*
X3195871Y1176611D1*
X3198756Y1179463D1*
X3200182Y1183774D1*
Y1205296D1*
X3209445Y1199526D2*
X3212330Y1200985D1*
X3216641Y1205263D1*
Y1175152D1*
X2662298Y1414047D2*
Y1392525D1*
X2663724Y1388214D1*
X2666609Y1385362D1*
X2670921Y1383903D1*
X2673772D1*
X2678083Y1385362D1*
X2680969Y1388214D1*
X2682394Y1392525D1*
Y1414047D1*
X2693117Y1406851D2*
Y1408277D1*
X2694543Y1411162D1*
X2695969Y1412588D1*
X2698854Y1414014D1*
X2704591D1*
X2707443Y1412588D1*
X2708869Y1411162D1*
X2710328Y1408277D1*
Y1405425D1*
X2708869Y1402540D1*
X2706017Y1398262D1*
X2691658Y1383903D1*
X2711754D1*
X3440693Y1226604D2*
Y1205082D1*
X3442119Y1200771D1*
X3445004Y1197920D1*
X3449315Y1196460D1*
X3452167D1*
X3456478Y1197920D1*
X3459363Y1200771D1*
X3460789Y1205082D1*
Y1226604D1*
X3484412Y1196460D2*
Y1226571D1*
X3470053Y1206508D1*
X3491575D1*
X2901972Y2496273D2*
D88*
X2942164D1*
X2942165Y2513517D1*
X2940219Y2519265D1*
X2938318Y2521166D1*
X2934515Y2523068D1*
X2928767D1*
X2924920Y2521166D1*
X2923019Y2519265D1*
X2921118Y2513517D1*
X2919172Y2519265D1*
X2917271Y2521166D1*
X2913469Y2523068D1*
X2909622D1*
X2905819Y2521166D1*
X2903874Y2519265D1*
X2901973Y2513517D1*
X2901972Y2496273D1*
X2921118D2*
Y2513517D1*
X2915370Y2558367D2*
X2942165D1*
X2921118D2*
X2917271Y2554564D1*
X2915370Y2550718D1*
Y2545014D1*
X2917271Y2541167D1*
X2921118Y2537365D1*
X2926866Y2535419D1*
X2930668D1*
X2936416Y2537364D1*
X2940219Y2541167D1*
X2942165Y2545014D1*
Y2550718D1*
X2940219Y2554564D1*
X2936416Y2558367D1*
X2921118Y2591765D2*
X2917271Y2589864D1*
X2915370Y2584116D1*
Y2578368D1*
X2917271Y2572620D1*
X2921118Y2570718D1*
X2924920Y2572620D1*
X2926866Y2576466D1*
X2928767Y2586017D1*
X2930668Y2589864D1*
X2934515Y2591765D1*
X2936416D1*
X2940219Y2589864D1*
X2942164Y2584116D1*
Y2578368D1*
X2940219Y2572620D1*
X2936416Y2570718D1*
X2926866Y2604116D2*
Y2627064D1*
X2923019D1*
X2919172Y2625163D1*
X2917271Y2623262D1*
X2915370Y2619415D1*
Y2613667D1*
X2917271Y2609864D1*
X2921118Y2606018D1*
X2926866Y2604116D1*
X2930668D1*
X2936416Y2606018D1*
X2940219Y2609864D1*
X2942164Y2613667D1*
Y2619415D1*
X2940219Y2623262D1*
X2936416Y2627064D1*
X2901973Y2662364D2*
X2942164D1*
X2921118D2*
X2917271Y2658561D1*
X2915370Y2654714D1*
Y2648966D1*
X2917271Y2645164D1*
X2921118Y2641317D1*
X2926866Y2639416D1*
X2930668D1*
X2936416Y2641317D1*
X2940219Y2645164D1*
X2942164Y2648966D1*
Y2654714D1*
X2940219Y2658561D1*
X2936416Y2662364D1*
X2915370Y2723146D2*
X2917271Y2719344D1*
X2921118Y2715497D1*
X2926866Y2713596D1*
X2930668D1*
X2936416Y2715497D1*
X2940219Y2719344D1*
X2942164Y2723146D1*
Y2728894D1*
X2940219Y2732741D1*
X2936416Y2736544D1*
X2930668Y2738489D1*
X2926866D1*
X2921118Y2736544D1*
X2917271Y2732741D1*
X2915370Y2728894D1*
Y2723146D1*
Y2750840D2*
X2942164D1*
X2923019D2*
X2917271Y2756589D1*
X2915370Y2760435D1*
Y2766139D1*
X2917271Y2769986D1*
X2923019Y2771887D1*
X2942164D1*
X2901972Y2828867D2*
X2934515D1*
X2940219Y2830769D1*
X2942164Y2834615D1*
Y2838418D1*
X2915370Y2823119D2*
Y2836517D1*
X2901972Y2850769D2*
X2942164D1*
X2923019D2*
X2917271Y2856517D1*
X2915370Y2860364D1*
Y2866112D1*
X2917271Y2869915D1*
X2923019Y2871816D1*
X2942164D1*
X2926866Y2884167D2*
Y2907115D1*
X2923019D1*
X2919172Y2905214D1*
X2917271Y2903313D1*
X2915370Y2899466D1*
Y2893718D1*
X2917271Y2889915D1*
X2921118Y2886069D1*
X2926866Y2884167D1*
X2930668D1*
X2936416Y2886069D1*
X2940219Y2889915D1*
X2942164Y2893718D1*
Y2899466D1*
X2940219Y2903313D1*
X2936416Y2907115D1*
X2907721Y2985142D2*
X2903874Y2981340D1*
X2901972Y2975592D1*
Y2967942D1*
X2903874Y2962194D1*
X2907721Y2958347D1*
X2911523D1*
X2915370Y2960293D1*
X2917271Y2962194D1*
X2919172Y2965997D1*
X2923019Y2977493D1*
X2924920Y2981340D1*
X2926866Y2983241D1*
X2930668Y2985142D1*
X2936416D1*
X2940219Y2981340D1*
X2942164Y2975592D1*
Y2967942D1*
X2940219Y2962194D1*
X2936416Y2958347D1*
X2915370Y2997493D2*
X2942164D1*
X2923019D2*
X2917271Y3003242D1*
X2915370Y3007088D1*
Y3012792D1*
X2917271Y3016639D1*
X2923019Y3018540D1*
X2942164D1*
X2923019D2*
X2917271Y3024288D1*
X2915370Y3028135D1*
Y3033839D1*
X2917271Y3037685D1*
X2923019Y3039631D1*
X2942164D1*
X2915370Y3074930D2*
X2942164D1*
X2921118D2*
X2917271Y3071128D1*
X2915370Y3067281D1*
Y3061577D1*
X2917271Y3057730D1*
X2921118Y3053928D1*
X2926866Y3051982D1*
X2930668D1*
X2936416Y3053928D1*
X2940219Y3057730D1*
X2942164Y3061577D1*
Y3067281D1*
X2940219Y3071128D1*
X2936416Y3074930D1*
X2915370Y3087282D2*
X2942164D1*
X2926866D2*
X2921118Y3089227D1*
X2917271Y3093030D1*
X2915370Y3096876D1*
Y3102625D1*
X2901972Y3120724D2*
X2934515D1*
X2940219Y3122625D1*
X2942164Y3126472D1*
Y3130275D1*
X2915370Y3114976D2*
Y3128373D1*
X2901972Y3167475D2*
Y3142626D1*
X2942164D1*
Y3167475D1*
X2921118Y3142626D2*
Y3157925D1*
X2901972Y3195125D2*
Y3191323D1*
X2903874Y3187476D1*
X2909622Y3185575D1*
X2942164D1*
X2915370Y3179826D2*
Y3193224D1*
X2901972Y3222775D2*
Y3218973D1*
X2903874Y3215126D1*
X2909622Y3213225D1*
X2942164D1*
X2915370Y3207476D2*
Y3220874D1*
X2926866Y3235126D2*
Y3258074D1*
X2923019D1*
X2919172Y3256173D1*
X2917271Y3254272D1*
X2915370Y3250425D1*
Y3244677D1*
X2917271Y3240875D1*
X2921118Y3237028D1*
X2926866Y3235126D1*
X2930668D1*
X2936416Y3237028D1*
X2940219Y3240875D1*
X2942164Y3244677D1*
Y3250425D1*
X2940219Y3254272D1*
X2936416Y3258074D1*
X2921118Y3293418D2*
X2917271Y3289571D1*
X2915370Y3285724D1*
Y3280021D1*
X2917271Y3276174D1*
X2921118Y3272371D1*
X2926866Y3270426D1*
X2930668D1*
X2936416Y3272371D1*
X2940219Y3276174D1*
X2942164Y3280021D1*
Y3285724D1*
X2940219Y3289571D1*
X2936416Y3293418D1*
X2901972Y3311517D2*
X2934515D1*
X2940219Y3313419D1*
X2942164Y3317265D1*
Y3321068D1*
X2915370Y3305769D2*
Y3319167D1*
Y3342970D2*
X2917271Y3339167D1*
X2921118Y3335321D1*
X2926866Y3333419D1*
X2930668D1*
X2936416Y3335321D1*
X2940219Y3339167D1*
X2942164Y3342970D1*
Y3348718D1*
X2940219Y3352565D1*
X2936416Y3356367D1*
X2930668Y3358313D1*
X2926866D1*
X2921118Y3356367D1*
X2917271Y3352565D1*
X2915370Y3348718D1*
Y3342970D1*
Y3370664D2*
X2942164D1*
X2926866D2*
X2921118Y3372610D1*
X2917271Y3376412D1*
X2915370Y3380259D1*
Y3386007D1*
X2901972Y3437239D2*
X2942164Y3452538D1*
X2901972Y3467836D1*
X2909666Y3480188D2*
X2907721Y3484034D1*
X2902017Y3489783D1*
X2942164D1*
X2938318Y3504035D2*
X2940263Y3502134D1*
X2942164Y3504035D1*
X2940263Y3505981D1*
X2938318Y3504035D1*
X2902017Y3522179D2*
Y3543181D1*
X2917315Y3531729D1*
Y3537477D1*
X2919217Y3541280D1*
X2921118Y3543181D1*
X2926866Y3545127D1*
X2930668D1*
X2936416Y3543181D1*
X2940263Y3539379D1*
X2942164Y3533631D1*
Y3527883D1*
X2940263Y3522179D1*
X2938318Y3520278D1*
X2934515Y3518332D1*
X2901972Y3596359D2*
X2942164D1*
X2921118D2*
X2917271Y3600206D1*
X2915370Y3604008D1*
Y3609756D1*
X2917271Y3613559D1*
X2921118Y3617406D1*
X2926866Y3619307D1*
X2930668D1*
X2936416Y3617406D1*
X2940219Y3613559D1*
X2942164Y3609756D1*
Y3604008D1*
X2940219Y3600206D1*
X2936416Y3596359D1*
X2915370Y3633604D2*
X2942164Y3645056D1*
X2949814Y3641253D1*
X2953661Y3637406D1*
X2955562Y3633604D1*
Y3631658D1*
X2915370Y3656552D2*
X2942164Y3645056D1*
X2901972Y3721181D2*
X2942164D1*
X2901972Y3707784D2*
Y3734578D1*
Y3746930D2*
X2942164D1*
X2923019D2*
X2917271Y3752678D1*
X2915370Y3756525D1*
Y3762273D1*
X2917271Y3766075D1*
X2923019Y3767976D1*
X2942164D1*
X2901972Y3780328D2*
X2903874Y3782229D1*
X2901972Y3784175D1*
X2900027Y3782229D1*
X2901972Y3780328D1*
X2915370Y3782229D2*
X2942164D1*
X2915370Y3796526D2*
X2942164D1*
X2923019D2*
X2917271Y3802274D1*
X2915370Y3806121D1*
Y3811825D1*
X2917271Y3815671D1*
X2923019Y3817573D1*
X2942164D1*
X2901972Y3829924D2*
X2942164D1*
X2915370Y3849069D2*
X2934515Y3829924D1*
X2926866Y3837573D2*
X2942164Y3850971D1*
X2902017Y3867169D2*
Y3888171D1*
X2917315Y3876719D1*
Y3882467D1*
X2919217Y3886270D1*
X2921118Y3888171D1*
X2926866Y3890117D1*
X2930668D1*
X2936416Y3888171D1*
X2940263Y3884369D1*
X2942164Y3878621D1*
Y3872873D1*
X2940263Y3867169D1*
X2938318Y3865268D1*
X2934515Y3863322D1*
X2901972Y3925416D2*
X2942164D1*
X2921118D2*
X2917271Y3921614D1*
X2915370Y3917767D1*
Y3912019D1*
X2917271Y3908216D1*
X2921118Y3904369D1*
X2926866Y3902468D1*
X2930668D1*
X2936416Y3904369D1*
X2940219Y3908216D1*
X2942164Y3912019D1*
Y3917767D1*
X2940219Y3921614D1*
X2936416Y3925416D1*
X2923019Y3937767D2*
Y3955012D1*
X2921118Y3960715D1*
X2919172Y3962661D1*
X2915370Y3964562D1*
X2909622D1*
X2905819Y3962661D1*
X2903874Y3960715D1*
X2901972Y3955012D1*
Y3937767D1*
X2942164D1*
X2915370Y3976914D2*
X2942164D1*
X2926866D2*
X2921118Y3978859D1*
X2917271Y3982662D1*
X2915370Y3986508D1*
Y3992256D1*
X2901972Y4004608D2*
X2903874Y4006509D1*
X2901972Y4008455D1*
X2900027Y4006509D1*
X2901972Y4004608D1*
X2915370Y4006509D2*
X2942164D1*
X2915370Y4020806D2*
X2942164D1*
X2923019D2*
X2917271Y4026554D1*
X2915370Y4030401D1*
Y4036105D1*
X2917271Y4039951D1*
X2923019Y4041853D1*
X2942164D1*
X2901972Y4059952D2*
X2934515D1*
X2940219Y4061853D1*
X2942164Y4065700D1*
Y4069503D1*
X2915370Y4054204D2*
Y4067601D1*
X2902017Y4085701D2*
Y4106703D1*
X2917315Y4095251D1*
Y4100999D1*
X2919217Y4104802D1*
X2921118Y4106703D1*
X2926866Y4108649D1*
X2930668D1*
X2936416Y4106703D1*
X2940263Y4102901D1*
X2942164Y4097153D1*
Y4091405D1*
X2940263Y4085701D1*
X2938318Y4083799D1*
X2934515Y4081854D1*
X2901972Y4143948D2*
X2942164D1*
X2921118D2*
X2917271Y4140145D1*
X2915370Y4136299D1*
Y4130551D1*
X2917271Y4126748D1*
X2921118Y4122901D1*
X2926866Y4121000D1*
X2930668D1*
X2936416Y4122901D1*
X2940219Y4126748D1*
X2942164Y4130551D1*
Y4136299D1*
X2940219Y4140145D1*
X2936416Y4143948D1*
X3003971Y2518119D2*
X3030766Y2518118D1*
X3009719Y2518119D2*
X3005872Y2514316D1*
X3003971Y2510469D1*
Y2504765D1*
X3005872Y2500919D1*
X3009719Y2497116D1*
X3015467Y2495171D1*
X3019269D1*
X3025017Y2497116D1*
X3028820Y2500919D1*
X3030766Y2504765D1*
Y2510469D1*
X3028820Y2514316D1*
X3025018Y2518118D1*
X3003971Y2530470D2*
X3030766D1*
X3011620D2*
X3005872Y2536218D1*
X3003971Y2540065D1*
Y2545768D1*
X3005872Y2549615D1*
X3011620Y2551517D1*
X3030766Y2551516D1*
X2990574Y2586816D2*
X3030766D1*
X3009719D2*
X3005872Y2583013D1*
X3003971Y2579167D1*
Y2573418D1*
X3005872Y2569616D1*
X3009719Y2565769D1*
X3015467Y2563868D1*
X3019270D1*
X3025018Y2565769D1*
X3028820Y2569616D1*
X3030766Y2573418D1*
Y2579166D1*
X3028820Y2583013D1*
X3025018Y2586816D1*
X2990574Y2662897D2*
Y2638048D1*
X3030766D1*
Y2662897D1*
X3009719Y2638048D2*
Y2653347D1*
Y2696295D2*
X3005872Y2694394D1*
X3003971Y2688646D1*
Y2682898D1*
X3005872Y2677150D1*
X3009719Y2675249D1*
X3013521Y2677150D1*
X3015467Y2680997D1*
X3017368Y2690547D1*
X3019269Y2694394D1*
X3023116Y2696295D1*
X3025018D1*
X3028820Y2694394D1*
X3030766Y2688646D1*
Y2682898D1*
X3028820Y2677150D1*
X3025018Y2675249D1*
X2990574Y2708647D2*
X3030766D1*
X3011620D2*
X3005872Y2714395D1*
X3003971Y2718241D1*
Y2723989D1*
X3005872Y2727792D1*
X3011620Y2729693D1*
X3030766D1*
X3015467Y2742045D2*
Y2764993D1*
X3011620D1*
X3007773Y2763091D1*
X3005872Y2761190D1*
X3003971Y2757343D1*
Y2751595D1*
X3005872Y2747793D1*
X3009719Y2743946D1*
X3015467Y2742045D1*
X3019269D1*
X3025017Y2743946D1*
X3028820Y2747793D1*
X3030766Y2751595D1*
Y2757343D1*
X3028820Y2761190D1*
X3025017Y2764993D1*
X3003971Y2777344D2*
X3030766D1*
X3015467D2*
X3009719Y2779289D1*
X3005872Y2783092D1*
X3003971Y2786939D1*
Y2792687D1*
X2990618Y2808885D2*
Y2829887D1*
X3005916Y2818435D1*
Y2824183D1*
X3007818Y2827986D1*
X3009719Y2829887D1*
X3015467Y2831833D1*
X3019269D1*
X3025017Y2829887D1*
X3028864Y2826085D1*
X3030766Y2820337D1*
Y2814589D1*
X3028864Y2808885D1*
X3026919Y2806984D1*
X3023116Y2805038D1*
X2990574Y2867132D2*
X3030766D1*
X3009719D2*
X3005872Y2863330D1*
X3003971Y2859483D1*
Y2853735D1*
X3005872Y2849932D1*
X3009719Y2846085D1*
X3015467Y2844184D1*
X3019269D1*
X3025017Y2846085D1*
X3028820Y2849932D1*
X3030766Y2853735D1*
Y2859483D1*
X3028820Y2863330D1*
X3025017Y2867132D1*
X3026919Y2881385D2*
X3028864Y2879484D1*
X3030766Y2881385D1*
X3028864Y2883330D1*
X3026919Y2881385D1*
X2990574Y2959456D2*
Y2934562D1*
X3030766D1*
X3009719D2*
Y2949861D1*
X3003971Y2971807D2*
X3023116D1*
X3028820Y2973709D1*
X3030766Y2977555D1*
Y2983303D1*
X3028820Y2987106D1*
X3023116Y2992854D1*
X3003971D2*
X3030766D1*
X2990574Y3005205D2*
X3030766D1*
X2990574Y3017557D2*
X3030766D1*
X3003971Y3091737D2*
X3030766D1*
X3009719D2*
X3005872Y3087934D1*
X3003971Y3084087D1*
Y3078384D1*
X3005872Y3074537D1*
X3009719Y3070734D1*
X3015467Y3068789D1*
X3019269D1*
X3025017Y3070734D1*
X3028820Y3074537D1*
X3030766Y3078384D1*
Y3084087D1*
X3028820Y3087934D1*
X3025017Y3091737D1*
X2990574Y3109836D2*
X3023116D1*
X3028820Y3111737D1*
X3030766Y3115584D1*
Y3119387D1*
X3003971Y3104088D2*
Y3117485D1*
X2990574Y3137486D2*
X3023116D1*
X3028820Y3139387D1*
X3030766Y3143234D1*
Y3147037D1*
X3003971Y3131738D2*
Y3145135D1*
Y3159388D2*
X3030766D1*
X3015467D2*
X3009719Y3161334D1*
X3005872Y3165136D1*
X3003971Y3168983D1*
Y3174731D1*
X2990574Y3187082D2*
X2992475Y3188984D1*
X2990574Y3190929D1*
X2988628Y3188984D1*
X2990574Y3187082D1*
X3003971Y3188984D2*
X3030766D1*
X2990574Y3203281D2*
X3030766D1*
X3009719D2*
X3005872Y3207127D1*
X3003971Y3210930D1*
Y3216678D1*
X3005872Y3220480D1*
X3009719Y3224327D1*
X3015467Y3226228D1*
X3019269D1*
X3025017Y3224327D1*
X3028820Y3220480D1*
X3030766Y3216678D1*
Y3210930D1*
X3028820Y3207127D1*
X3025017Y3203281D1*
X3003971Y3238580D2*
X3023116D1*
X3028820Y3240481D1*
X3030766Y3244328D1*
Y3250076D1*
X3028820Y3253878D1*
X3023116Y3259626D1*
X3003971D2*
X3030766D1*
X2990574Y3277726D2*
X3023116D1*
X3028820Y3279627D1*
X3030766Y3283474D1*
Y3287276D1*
X3003971Y3271978D2*
Y3285375D1*
X2990574Y3299628D2*
X2992475Y3301529D1*
X2990574Y3303475D1*
X2988628Y3301529D1*
X2990574Y3299628D1*
X3003971Y3301529D2*
X3030766D1*
X3003971Y3325377D2*
X3005872Y3321574D1*
X3009719Y3317727D1*
X3015467Y3315826D1*
X3019269D1*
X3025017Y3317727D1*
X3028820Y3321574D1*
X3030766Y3325377D1*
Y3331125D1*
X3028820Y3334971D1*
X3025017Y3338774D1*
X3019269Y3340719D1*
X3015467D1*
X3009719Y3338774D1*
X3005872Y3334971D1*
X3003971Y3331125D1*
Y3325377D1*
Y3353071D2*
X3030766D1*
X3011620D2*
X3005872Y3358819D1*
X3003971Y3362666D1*
Y3368369D1*
X3005872Y3372216D1*
X3011620Y3374117D1*
X3030766D1*
X3003971Y3448298D2*
X3030766D1*
X3009719D2*
X3005872Y3444495D1*
X3003971Y3440648D1*
Y3434944D1*
X3005872Y3431098D1*
X3009719Y3427295D1*
X3015467Y3425350D1*
X3019269D1*
X3025017Y3427295D1*
X3028820Y3431098D1*
X3030766Y3434944D1*
Y3440648D1*
X3028820Y3444495D1*
X3025017Y3448298D1*
X3003971Y3460649D2*
X3030766D1*
X3011620D2*
X3005872Y3466397D1*
X3003971Y3470244D1*
Y3475948D1*
X3005872Y3479794D1*
X3011620Y3481696D1*
X3030766D1*
X2990574Y3516995D2*
X3030766D1*
X3009719D2*
X3005872Y3513192D1*
X3003971Y3509346D1*
Y3503598D1*
X3005872Y3499795D1*
X3009719Y3495948D1*
X3015467Y3494047D1*
X3019269D1*
X3025017Y3495948D1*
X3028820Y3499795D1*
X3030766Y3503598D1*
Y3509346D1*
X3028820Y3513192D1*
X3025017Y3516995D1*
X3000124Y3596923D2*
X2996322Y3595022D1*
X2992475Y3591175D1*
X2990574Y3587372D1*
Y3579723D1*
X2992475Y3575876D1*
X2996322Y3572074D1*
X3000124Y3570128D1*
X3005872Y3568227D1*
X3015467D1*
X3021171Y3570128D1*
X3025017Y3572074D1*
X3028820Y3575876D1*
X3030766Y3579723D1*
Y3587372D1*
X3028820Y3591175D1*
X3025017Y3595022D1*
X3021171Y3596923D1*
X2990574Y3634124D2*
Y3609274D1*
X3030766D1*
Y3634124D1*
X3009719Y3609274D2*
Y3624573D1*
Y3646475D2*
Y3663675D1*
X3007773Y3669423D1*
X3005872Y3671368D1*
X3002070Y3673270D1*
X2998223D1*
X2994420Y3671368D1*
X2992475Y3669423D1*
X2990574Y3663675D1*
Y3646475D1*
X3030766D1*
X3009719Y3659872D2*
X3030766Y3673270D1*
X2990574Y3712416D2*
X3030766D1*
X2990574Y3685621D1*
X3030766D1*
X2990574Y3763648D2*
X3030766D1*
X2990574Y3775999D2*
X2992475Y3777901D1*
X2990574Y3779846D1*
X2988628Y3777901D1*
X2990574Y3775999D1*
X3003971Y3777901D2*
X3030766D1*
X3009719Y3815190D2*
X3005872Y3811343D1*
X3003971Y3807496D1*
Y3801792D1*
X3005872Y3797945D1*
X3009719Y3794143D1*
X3015467Y3792197D1*
X3019269D1*
X3025017Y3794143D1*
X3028820Y3797945D1*
X3030766Y3801792D1*
Y3807496D1*
X3028820Y3811343D1*
X3025017Y3815190D1*
X3015467Y3827541D2*
Y3850489D1*
X3011620D1*
X3007773Y3848588D1*
X3005872Y3846686D1*
X3003971Y3842840D1*
Y3837092D1*
X3005872Y3833289D1*
X3009719Y3829442D1*
X3015467Y3827541D1*
X3019269D1*
X3025017Y3829442D1*
X3028820Y3833289D1*
X3030766Y3837092D1*
Y3842840D1*
X3028820Y3846686D1*
X3025017Y3850489D1*
X3003971Y3862840D2*
X3030766D1*
X3011620D2*
X3005872Y3868588D1*
X3003971Y3872435D1*
Y3878139D1*
X3005872Y3881986D1*
X3011620Y3883887D1*
X3030766D1*
X3009719Y3917285D2*
X3005872Y3915384D1*
X3003971Y3909636D1*
Y3903888D1*
X3005872Y3898140D1*
X3009719Y3896238D1*
X3013521Y3898140D1*
X3015467Y3901986D1*
X3017368Y3911537D1*
X3019269Y3915384D1*
X3023116Y3917285D1*
X3025017D1*
X3028820Y3915384D1*
X3030766Y3909636D1*
Y3903888D1*
X3028820Y3898140D1*
X3025017Y3896238D1*
X3015467Y3929636D2*
Y3952584D1*
X3011620D1*
X3007773Y3950683D1*
X3005872Y3948782D1*
X3003971Y3944935D1*
Y3939187D1*
X3005872Y3935384D1*
X3009719Y3931538D1*
X3015467Y3929636D1*
X3019269D1*
X3025017Y3931538D1*
X3028820Y3935384D1*
X3030766Y3939187D1*
Y3944935D1*
X3028820Y3948782D1*
X3025017Y3952584D1*
X2990574Y4019115D2*
Y4015312D1*
X2992475Y4011466D1*
X2998223Y4009564D1*
X3030766D1*
X3003971Y4003816D2*
Y4017214D1*
Y4041017D2*
X3005872Y4037214D1*
X3009719Y4033368D1*
X3015467Y4031466D1*
X3019269D1*
X3025017Y4033368D1*
X3028820Y4037214D1*
X3030766Y4041017D1*
Y4046765D1*
X3028820Y4050612D1*
X3025017Y4054414D1*
X3019269Y4056360D1*
X3015467D1*
X3009719Y4054414D1*
X3005872Y4050612D1*
X3003971Y4046765D1*
Y4041017D1*
Y4068711D2*
X3023116D1*
X3028820Y4070612D1*
X3030766Y4074459D1*
Y4080207D1*
X3028820Y4084010D1*
X3023116Y4089758D1*
X3003971D2*
X3030766D1*
X3003971Y4102109D2*
X3030766D1*
X3011620D2*
X3005872Y4107857D1*
X3003971Y4111704D1*
Y4117408D1*
X3005872Y4121255D1*
X3011620Y4123156D1*
X3030766D1*
X2990574Y4158455D2*
X3030766D1*
X3009719D2*
X3005872Y4154653D1*
X3003971Y4150806D1*
Y4145058D1*
X3005872Y4141255D1*
X3009719Y4137409D1*
X3015467Y4135507D1*
X3019269D1*
X3025017Y4137409D1*
X3028820Y4141255D1*
X3030766Y4145058D1*
Y4150806D1*
X3028820Y4154653D1*
X3025017Y4158455D1*
X3088053Y2517188D2*
X3118695D1*
X3124398Y2515287D1*
X3126344Y2513385D1*
X3128245Y2509539D1*
Y2503791D1*
X3126344Y2499988D1*
X3093801Y2517188D2*
X3089999Y2513386D1*
X3088053Y2509539D1*
Y2503791D1*
X3089999Y2499988D1*
X3093801Y2496141D1*
X3099549Y2494240D1*
X3103396D1*
X3109100Y2496141D1*
X3112947Y2499988D1*
X3114848Y2503791D1*
Y2509539D1*
X3112947Y2513385D1*
X3109100Y2517188D1*
X3072755Y2529539D2*
X3074656Y2531441D1*
X3072755Y2533386D1*
X3070809Y2531441D1*
X3072755Y2529539D1*
X3086152Y2531441D2*
X3112947D1*
X3072755Y2551486D2*
X3105297D1*
X3111001Y2553387D1*
X3112947Y2557234D1*
Y2561036D1*
X3086152Y2545738D2*
Y2559135D1*
X3072755Y2573388D2*
X3112947D1*
X3093801D2*
X3088053Y2579136D1*
X3086152Y2582982D1*
Y2588730D1*
X3088053Y2592533D1*
X3093801Y2594434D1*
X3112947D1*
X3086152Y2606786D2*
X3105297D1*
X3111001Y2608687D1*
X3112947Y2612534D1*
Y2618282D1*
X3111001Y2622084D1*
X3105297Y2627832D1*
X3086152D2*
X3112947D1*
X3072755Y2640184D2*
X3112947D1*
X3091900D2*
X3088053Y2644030D1*
X3086152Y2647833D1*
Y2653581D1*
X3088053Y2657384D1*
X3091900Y2661230D1*
X3097648Y2663132D1*
X3101451D1*
X3107199Y2661230D1*
X3111001Y2657384D1*
X3112947Y2653581D1*
Y2647833D1*
X3111001Y2644030D1*
X3107199Y2640184D1*
X3109100Y2677384D2*
X3111045Y2675483D1*
X3112947Y2677384D1*
X3111045Y2679330D1*
X3109100Y2677384D1*
X3091900Y2714673D2*
X3088053Y2710826D1*
X3086152Y2706980D1*
Y2701276D1*
X3088053Y2697429D1*
X3091900Y2693627D1*
X3097648Y2691681D1*
X3101451D1*
X3107199Y2693627D1*
X3111001Y2697429D1*
X3112947Y2701276D1*
Y2706980D1*
X3111001Y2710826D1*
X3107199Y2714673D1*
X3086152Y2736575D2*
X3088053Y2732773D1*
X3091900Y2728926D1*
X3097648Y2727025D1*
X3101451D1*
X3107199Y2728926D1*
X3111001Y2732773D1*
X3112947Y2736575D1*
Y2742323D1*
X3111001Y2746170D1*
X3107199Y2749973D1*
X3101451Y2751918D1*
X3097648D1*
X3091900Y2749973D1*
X3088053Y2746170D1*
X3086152Y2742323D1*
Y2736575D1*
Y2764269D2*
X3112947D1*
X3093801D2*
X3088053Y2770017D1*
X3086152Y2773864D1*
Y2779568D1*
X3088053Y2783415D1*
X3093801Y2785316D1*
X3112947D1*
X3093801D2*
X3088053Y2791064D1*
X3086152Y2794911D1*
Y2800615D1*
X3088053Y2804461D1*
X3093801Y2806407D1*
X3112947D1*
Y2818758D2*
X3072799Y2845553D1*
X3091900Y2878951D2*
X3088053Y2877050D1*
X3086152Y2871302D1*
Y2865554D1*
X3088053Y2859806D1*
X3091900Y2857904D1*
X3095703Y2859806D1*
X3097648Y2863652D1*
X3099549Y2873203D1*
X3101451Y2877050D1*
X3105297Y2878951D1*
X3107199D1*
X3111001Y2877050D1*
X3112947Y2871302D1*
Y2865554D1*
X3111001Y2859806D1*
X3107199Y2857904D1*
X3097648Y2891302D2*
Y2914250D1*
X3093801D1*
X3089955Y2912349D1*
X3088053Y2910448D1*
X3086152Y2906601D1*
Y2900853D1*
X3088053Y2897050D1*
X3091900Y2893204D1*
X3097648Y2891302D1*
X3101451D1*
X3107199Y2893204D1*
X3111001Y2897050D1*
X3112947Y2900853D1*
Y2906601D1*
X3111001Y2910448D1*
X3107199Y2914250D1*
X3097648Y2926602D2*
Y2949550D1*
X3093801D1*
X3089955Y2947648D1*
X3088053Y2945747D1*
X3086152Y2941900D1*
Y2936152D1*
X3088053Y2932350D1*
X3091900Y2928503D1*
X3097648Y2926602D1*
X3101451D1*
X3107199Y2928503D1*
X3111001Y2932350D1*
X3112947Y2936152D1*
Y2941900D1*
X3111001Y2945747D1*
X3107199Y2949550D1*
X3086152Y2961901D2*
X3112947D1*
X3093801D2*
X3088053Y2967649D1*
X3086152Y2971496D1*
Y2977200D1*
X3088053Y2981046D1*
X3093801Y2982948D1*
X3112947D1*
X3093801D2*
X3088053Y2988696D1*
X3086152Y2992542D1*
Y2998246D1*
X3088053Y3002093D1*
X3093801Y3004039D1*
X3112947D1*
X3097648Y3016390D2*
Y3039338D1*
X3093801D1*
X3089955Y3037437D1*
X3088053Y3035535D1*
X3086152Y3031689D1*
Y3025940D1*
X3088053Y3022138D1*
X3091900Y3018291D1*
X3097648Y3016390D1*
X3101451D1*
X3107199Y3018291D1*
X3111001Y3022138D1*
X3112947Y3025940D1*
Y3031689D1*
X3111001Y3035535D1*
X3107199Y3039338D1*
X3091900Y3074681D2*
X3088053Y3070835D1*
X3086152Y3066988D1*
Y3061284D1*
X3088053Y3057437D1*
X3091900Y3053635D1*
X3097648Y3051689D1*
X3101451D1*
X3107199Y3053635D1*
X3111001Y3057437D1*
X3112947Y3061284D1*
Y3066988D1*
X3111001Y3070835D1*
X3107199Y3074681D1*
X3086152Y3087033D2*
X3112947D1*
X3093801D2*
X3088053Y3092781D1*
X3086152Y3096628D1*
Y3102331D1*
X3088053Y3106178D1*
X3093801Y3108079D1*
X3112947D1*
X3091900Y3143423D2*
X3088053Y3139576D1*
X3086152Y3135729D1*
Y3130026D1*
X3088053Y3126179D1*
X3091900Y3122376D1*
X3097648Y3120431D1*
X3101451D1*
X3107199Y3122376D1*
X3111001Y3126179D1*
X3112947Y3130026D1*
Y3135729D1*
X3111001Y3139576D1*
X3107199Y3143423D1*
X3112947Y3155774D2*
X3072799Y3182569D1*
X3112947Y3225518D2*
X3072755D1*
X3112947Y3210219D1*
X3072755Y3194920D1*
X3112947D1*
X3086152Y3260817D2*
X3112947D1*
X3091900D2*
X3088053Y3257014D1*
X3086152Y3253168D1*
Y3247464D1*
X3088053Y3243617D1*
X3091900Y3239814D1*
X3097648Y3237869D1*
X3101451D1*
X3107199Y3239814D1*
X3111001Y3243617D1*
X3112947Y3247464D1*
Y3253168D1*
X3111001Y3257014D1*
X3107199Y3260817D1*
X3091900Y3296160D2*
X3088053Y3292314D1*
X3086152Y3288467D1*
Y3282763D1*
X3088053Y3278916D1*
X3091900Y3275114D1*
X3097648Y3273168D1*
X3101451D1*
X3107199Y3275114D1*
X3111001Y3278916D1*
X3112947Y3282763D1*
Y3288467D1*
X3111001Y3292314D1*
X3107199Y3296160D1*
X3072755Y3308512D2*
X3112947D1*
X3093801D2*
X3088053Y3314260D1*
X3086152Y3318107D1*
Y3323855D1*
X3088053Y3327657D1*
X3093801Y3329558D1*
X3112947D1*
X3072755Y3341910D2*
X3074656Y3343811D1*
X3072755Y3345757D1*
X3070809Y3343811D1*
X3072755Y3341910D1*
X3086152Y3343811D2*
X3112947D1*
X3086152Y3358108D2*
X3112947D1*
X3093801D2*
X3088053Y3363856D1*
X3086152Y3367703D1*
Y3373407D1*
X3088053Y3377253D1*
X3093801Y3379155D1*
X3112947D1*
X3097648Y3391506D2*
Y3414454D1*
X3093801D1*
X3089955Y3412553D1*
X3088053Y3410651D1*
X3086152Y3406805D1*
Y3401057D1*
X3088053Y3397254D1*
X3091900Y3393407D1*
X3097648Y3391506D1*
X3101451D1*
X3107199Y3393407D1*
X3111001Y3397254D1*
X3112947Y3401057D1*
Y3406805D1*
X3111001Y3410651D1*
X3107199Y3414454D1*
X3119579Y3426805D2*
Y3463151D1*
X3072755Y3500351D2*
Y3475502D1*
X3112947D1*
Y3500351D1*
X3091900Y3475502D2*
Y3490801D1*
X3072755Y3512703D2*
X3112947D1*
X3097648Y3525054D2*
Y3548002D1*
X3093801D1*
X3089955Y3546101D1*
X3088053Y3544199D1*
X3086152Y3540353D1*
Y3534605D1*
X3088053Y3530802D1*
X3091900Y3526955D1*
X3097648Y3525054D1*
X3101451D1*
X3107199Y3526955D1*
X3111001Y3530802D1*
X3112947Y3534605D1*
Y3540353D1*
X3111001Y3544199D1*
X3107199Y3548002D1*
X3086152Y3560353D2*
X3112947D1*
X3093801D2*
X3088053Y3566101D1*
X3086152Y3569948D1*
Y3575652D1*
X3088053Y3579499D1*
X3093801Y3581400D1*
X3112947D1*
X3093801D2*
X3088053Y3587148D1*
X3086152Y3590995D1*
Y3596699D1*
X3088053Y3600545D1*
X3093801Y3602491D1*
X3112947D1*
X3097648Y3614842D2*
Y3637790D1*
X3093801D1*
X3089955Y3635889D1*
X3088053Y3633988D1*
X3086152Y3630141D1*
Y3624393D1*
X3088053Y3620590D1*
X3091900Y3616743D1*
X3097648Y3614842D1*
X3101451D1*
X3107199Y3616743D1*
X3111001Y3620590D1*
X3112947Y3624393D1*
Y3630141D1*
X3111001Y3633988D1*
X3107199Y3637790D1*
X3086152Y3650141D2*
X3112947D1*
X3093801D2*
X3088053Y3655889D1*
X3086152Y3659736D1*
Y3665440D1*
X3088053Y3669287D1*
X3093801Y3671188D1*
X3112947D1*
X3072755Y3689288D2*
X3105297D1*
X3111001Y3691189D1*
X3112947Y3695036D1*
Y3698838D1*
X3086152Y3683539D2*
Y3696937D1*
X3091900Y3732236D2*
X3088053Y3730335D1*
X3086152Y3724587D1*
Y3718839D1*
X3088053Y3713091D1*
X3091900Y3711189D1*
X3095703Y3713091D1*
X3097648Y3716938D1*
X3099549Y3726488D1*
X3101451Y3730335D1*
X3105297Y3732236D1*
X3107199D1*
X3111001Y3730335D1*
X3112947Y3724587D1*
Y3718839D1*
X3111001Y3713091D1*
X3107199Y3711189D1*
X3112947Y3744588D2*
X3072799Y3771382D1*
X3078503Y3810528D2*
X3074656Y3806726D1*
X3072755Y3800978D1*
Y3793328D1*
X3074656Y3787580D1*
X3078503Y3783734D1*
X3082305D1*
X3086152Y3785679D1*
X3088053Y3787580D1*
X3089954Y3791383D1*
X3093801Y3802879D1*
X3095703Y3806726D1*
X3097648Y3808627D1*
X3101451Y3810528D1*
X3107199D1*
X3111001Y3806726D1*
X3112947Y3800978D1*
Y3793328D1*
X3111001Y3787580D1*
X3107199Y3783734D1*
X3072755Y3847729D2*
Y3822880D1*
X3112947D1*
Y3847729D1*
X3091900Y3822880D2*
Y3838178D1*
X3072799Y3863927D2*
Y3884929D1*
X3088097Y3873478D1*
Y3879226D1*
X3089999Y3883028D1*
X3091900Y3884929D1*
X3097648Y3886875D1*
X3101451D1*
X3107199Y3884929D1*
X3111045Y3881127D1*
X3112947Y3875379D1*
Y3869631D1*
X3111045Y3863927D1*
X3109100Y3862026D1*
X3105297Y3860080D1*
X3072799Y3910722D2*
X3074700Y3904974D1*
X3080448Y3901128D1*
X3089999Y3899226D1*
X3095747D1*
X3105297Y3901128D1*
X3111045Y3904974D1*
X3112947Y3910722D1*
Y3914525D1*
X3111045Y3920273D1*
X3105297Y3924075D1*
X3095747Y3926021D1*
X3089999D1*
X3080448Y3924075D1*
X3074700Y3920273D1*
X3072799Y3914525D1*
Y3910722D1*
X3080448Y3924075D2*
X3105297Y3901128D1*
X3072799Y3949868D2*
X3074700Y3944120D1*
X3080448Y3940274D1*
X3089999Y3938372D1*
X3095747D1*
X3105297Y3940274D1*
X3111045Y3944120D1*
X3112947Y3949868D1*
Y3953671D1*
X3111045Y3959419D1*
X3105297Y3963222D1*
X3095747Y3965167D1*
X3089999D1*
X3080448Y3963222D1*
X3074700Y3959419D1*
X3072799Y3953671D1*
Y3949868D1*
X3080448Y3963222D2*
X3105297Y3940274D1*
X2791450Y1872955D2*
D90*
X2783845Y1880649D1*
X2772349Y1884451D1*
X2757050D1*
X2745554Y1880649D1*
X2737861Y1872955D1*
Y1865350D1*
X2741752Y1857657D1*
X2745554Y1853854D1*
X2753159Y1850052D1*
X2776151Y1842358D1*
X2783845Y1838556D1*
X2787648Y1834665D1*
X2791450Y1827060D1*
Y1815563D1*
X2783845Y1807958D1*
X2772349Y1804067D1*
X2757050D1*
X2745554Y1807958D1*
X2737861Y1815563D1*
X2816153Y1834665D2*
X2862049D1*
Y1842358D1*
X2858246Y1850052D1*
X2854444Y1853854D1*
X2846750Y1857657D1*
X2835254D1*
X2827649Y1853854D1*
X2819955Y1846161D1*
X2816153Y1834665D1*
Y1827060D1*
X2819955Y1815563D1*
X2827649Y1807958D1*
X2835254Y1804067D1*
X2846750D1*
X2854444Y1807958D1*
X2862049Y1815563D1*
X2886751Y1834665D2*
X2932647D1*
Y1842358D1*
X2928845Y1850052D1*
X2925042Y1853854D1*
X2917349Y1857657D1*
X2905853D1*
X2898248Y1853854D1*
X2890554Y1846161D1*
X2886751Y1834665D1*
Y1827060D1*
X2890554Y1815563D1*
X2898248Y1807958D1*
X2905853Y1804067D1*
X2917349D1*
X2925042Y1807958D1*
X2932647Y1815563D1*
X3018545Y1804067D2*
Y1884451D1*
X2987947Y1804067D1*
X2957350Y1884451D1*
Y1804067D1*
X3043247Y1834665D2*
X3089143D1*
Y1842358D1*
X3085341Y1850052D1*
X3081538Y1853854D1*
X3073845Y1857657D1*
X3062348D1*
X3054743Y1853854D1*
X3047050Y1846161D1*
X3043247Y1834665D1*
Y1827060D1*
X3047050Y1815563D1*
X3054743Y1807958D1*
X3062348Y1804067D1*
X3073845D1*
X3081538Y1807958D1*
X3089143Y1815563D1*
X3171238Y1865350D2*
X3167435Y1872955D1*
X3159742Y1880649D1*
X3152137Y1884451D1*
X3136838D1*
X3129145Y1880649D1*
X3121539Y1872955D1*
X3117648Y1865350D1*
X3113846Y1853854D1*
Y1834665D1*
X3117648Y1823257D1*
X3121539Y1815563D1*
X3129145Y1807958D1*
X3136838Y1804067D1*
X3152137D1*
X3159742Y1807958D1*
X3167435Y1815563D1*
X3171238Y1823257D1*
X3249530Y1884451D2*
Y1804067D1*
X3195941Y1884451D1*
Y1804067D1*
X3331625Y1865350D2*
X3327822Y1872955D1*
X3320129Y1880649D1*
X3312523Y1884451D1*
X3297225D1*
X3289531Y1880649D1*
X3281926Y1872955D1*
X3278035Y1865350D1*
X3274233Y1853854D1*
Y1834665D1*
X3278035Y1823257D1*
X3281926Y1815563D1*
X3289531Y1807958D1*
X3297225Y1804067D1*
X3312523D1*
X3320129Y1807958D1*
X3327822Y1815563D1*
X3331625Y1823257D1*
X3283172Y2891485D2*
D91*
X3288943Y2894403D1*
X3297565Y2902959D1*
Y2842737D1*
X2751773Y1747621D2*
D88*
Y1707429D1*
Y1741873D2*
X2755620Y1745676D1*
X2759422Y1747621D1*
X2765170D1*
X2769017Y1745676D1*
X2772820Y1741873D1*
X2774765Y1736125D1*
Y1732278D1*
X2772820Y1726574D1*
X2769017Y1722728D1*
X2765170Y1720826D1*
X2759422D1*
X2755620Y1722728D1*
X2751773Y1726574D1*
X2810109Y1741873D2*
X2806262Y1745720D1*
X2802415Y1747621D1*
X2796711D1*
X2792864Y1745720D1*
X2789062Y1741873D1*
X2787116Y1736125D1*
Y1732322D1*
X2789062Y1726574D1*
X2792864Y1722772D1*
X2796711Y1720826D1*
X2802415D1*
X2806262Y1722772D1*
X2810109Y1726574D1*
X2822460Y1761018D2*
Y1720826D1*
Y1741873D2*
X2826307Y1745720D1*
X2830109Y1747621D1*
X2835857D1*
X2839660Y1745720D1*
X2843507Y1741873D1*
X2845408Y1736125D1*
Y1732322D1*
X2843507Y1726574D1*
X2839660Y1722772D1*
X2835857Y1720826D1*
X2830109D1*
X2826307Y1722772D1*
X2822460Y1726574D1*
X2896640Y1761018D2*
Y1720826D1*
Y1741873D2*
X2900487Y1745720D1*
X2904289Y1747621D1*
X2910037D1*
X2913840Y1745720D1*
X2917687Y1741873D1*
X2919588Y1736125D1*
Y1732322D1*
X2917687Y1726574D1*
X2913840Y1722772D1*
X2910037Y1720826D1*
X2904289D1*
X2900487Y1722772D1*
X2896640Y1726574D1*
X2933885Y1747621D2*
X2945337Y1720826D1*
X2941534Y1713177D1*
X2937687Y1709330D1*
X2933885Y1707429D1*
X2931939D1*
X2956833Y1747621D2*
X2945337Y1720826D1*
X3008065Y1739972D2*
X3025309D1*
X3031013Y1741873D1*
X3032958Y1743818D1*
X3034860Y1747621D1*
Y1753369D1*
X3032958Y1757172D1*
X3031013Y1759117D1*
X3025309Y1761018D1*
X3008065D1*
Y1720826D1*
X3070159Y1747621D2*
Y1720826D1*
Y1741873D2*
X3066356Y1745720D1*
X3062510Y1747621D1*
X3056806D1*
X3052959Y1745720D1*
X3049156Y1741873D1*
X3047211Y1736125D1*
Y1732322D1*
X3049156Y1726574D1*
X3052959Y1722772D1*
X3056806Y1720826D1*
X3062510D1*
X3066356Y1722772D1*
X3070159Y1726574D1*
X3082510Y1747621D2*
Y1720826D1*
Y1736125D2*
X3084456Y1741873D1*
X3088258Y1745720D1*
X3092105Y1747621D1*
X3097853D1*
X3115953Y1761018D2*
Y1728476D1*
X3117854Y1722772D1*
X3121701Y1720826D1*
X3125503D1*
X3110204Y1747621D2*
X3123602D1*
X3137854Y1761018D2*
Y1720826D1*
X3151252D1*
X3157000Y1722772D1*
X3160847Y1726574D1*
X3162748Y1730421D1*
X3164649Y1736125D1*
Y1745720D1*
X3162748Y1751468D1*
X3160847Y1755270D1*
X3157000Y1759117D1*
X3151252Y1761018D1*
X3137854D1*
X3199948Y1747621D2*
Y1720826D1*
Y1741873D2*
X3196146Y1745720D1*
X3192299Y1747621D1*
X3186595D1*
X3182749Y1745720D1*
X3178946Y1741873D1*
X3177001Y1736125D1*
Y1732322D1*
X3178946Y1726574D1*
X3182749Y1722772D1*
X3186595Y1720826D1*
X3192299D1*
X3196146Y1722772D1*
X3199948Y1726574D1*
X3235248Y1761018D2*
Y1720826D1*
Y1741873D2*
X3231445Y1745720D1*
X3227598Y1747621D1*
X3221850D1*
X3218048Y1745720D1*
X3214201Y1741873D1*
X3212300Y1736125D1*
Y1732322D1*
X3214201Y1726574D1*
X3218048Y1722772D1*
X3221850Y1720826D1*
X3227598D1*
X3231445Y1722772D1*
X3235248Y1726574D1*
X3270547Y1761018D2*
Y1720826D1*
Y1741873D2*
X3266745Y1745720D1*
X3262898Y1747621D1*
X3257150D1*
X3253347Y1745720D1*
X3249500Y1741873D1*
X3247599Y1736125D1*
Y1732322D1*
X3249500Y1726574D1*
X3253347Y1722772D1*
X3257150Y1720826D1*
X3262898D1*
X3266745Y1722772D1*
X3270547Y1726574D1*
X3284844Y1747621D2*
X3296296Y1720826D1*
X3292493Y1713177D1*
X3288647Y1709330D1*
X3284844Y1707429D1*
X3282898D1*
X3307792Y1747621D2*
X3296296Y1720826D1*
X2512799Y3051702D2*
D86*
X2511340Y3054587D1*
X2507062Y3058898D1*
X2537173D1*
X2753156Y2968391D2*
X2751697Y2971276D1*
X2747419Y2975587D1*
X2777530D1*
X2871712Y4403477D2*
X2868827Y4402017D1*
X2864516Y4397740D1*
Y4427851D1*
X1166803Y999301D2*
X1163918Y997842D1*
X1159607Y993564D1*
Y1023675D1*
X4967727Y1224122D2*
X4964842Y1222663D1*
X4960530Y1218385D1*
X4960531Y1248496D1*
M02*
