G04 Layer_Color=2752767*
%FSLAX24Y24*%
%MOIN*%
G70*
G01*
G75*
%ADD105C,0.0020*%
%ADD107C,0.0027*%
%ADD108C,0.0013*%
D105*
X12090Y7707D02*
Y7867D01*
X12250D01*
Y7707D01*
X12090D01*
X11597Y6855D02*
Y7015D01*
X11757D01*
Y6855D01*
X11597D01*
X11105Y6002D02*
Y6162D01*
X11265D01*
Y6002D01*
X11105D01*
X10613Y5150D02*
Y5310D01*
X10773D01*
Y5150D01*
X10613D01*
X10121Y4297D02*
Y4457D01*
X10281D01*
Y4297D01*
X10121D01*
X9629Y3445D02*
Y3605D01*
X9789D01*
Y3445D01*
X9629D01*
X9137Y2593D02*
Y2753D01*
X9297D01*
Y2593D01*
X9137D01*
X8645Y1740D02*
Y1900D01*
X8805D01*
Y1740D01*
X8645D01*
X-103Y9399D02*
X-183Y9559D01*
X-23D01*
X-103Y9399D01*
X10857Y11629D02*
X10897Y11669D01*
X10937D01*
X10897Y11709D01*
X10937Y11749D01*
X10897D01*
X10857Y11789D01*
X10817Y11749D01*
X10777D01*
X10817Y11709D01*
X10777Y11669D01*
X10817D01*
X10857Y11629D01*
X9557Y9399D02*
X9477Y9559D01*
X9637D01*
X9557Y9399D01*
X4637Y8089D02*
X4677Y8169D01*
X4637Y8249D01*
X4717Y8209D01*
X4797Y8249D01*
X4757Y8169D01*
X4797Y8089D01*
X4717Y8129D01*
X4637Y8089D01*
X4717Y999D02*
X4757Y1039D01*
X4797D01*
X4757Y1079D01*
X4797Y1119D01*
X4757D01*
X4717Y1159D01*
X4677Y1119D01*
X4637D01*
X4677Y1079D01*
X4637Y1039D01*
X4677D01*
X4717Y999D01*
X6117Y919D02*
Y879D01*
X6197D01*
Y919D01*
X6237D01*
Y999D01*
X6197D01*
Y1039D01*
X6117D01*
Y999D01*
X6077D01*
Y919D01*
X6117D01*
X7Y4282D02*
Y4442D01*
X167D01*
Y4282D01*
X7D01*
X507Y3416D02*
Y3576D01*
X667D01*
Y3416D01*
X507D01*
X3237Y919D02*
Y879D01*
X3317D01*
Y919D01*
X3357D01*
Y999D01*
X3317D01*
Y1039D01*
X3237D01*
Y999D01*
X3197D01*
Y919D01*
X3237D01*
X-973Y5966D02*
Y6126D01*
X-813D01*
Y5966D01*
X-973D01*
X-1473Y6832D02*
Y6992D01*
X-1313D01*
Y6832D01*
X-1473D01*
X3210Y11560D02*
X3250D01*
X3290Y11600D01*
X3330Y11560D01*
X3370D01*
Y11600D01*
X3330Y11640D01*
X3370Y11680D01*
Y11720D01*
X3330D01*
X3290Y11680D01*
X3250Y11720D01*
X3210D01*
Y11680D01*
X3250Y11640D01*
X3210Y11600D01*
Y11560D01*
X2110Y11360D02*
X2150D01*
X2190Y11400D01*
X2230Y11360D01*
X2270D01*
Y11400D01*
X2230Y11440D01*
X2270Y11480D01*
Y11520D01*
X2230D01*
X2190Y11480D01*
X2150Y11520D01*
X2110D01*
Y11480D01*
X2150Y11440D01*
X2110Y11400D01*
Y11360D01*
X3160Y14170D02*
X3200D01*
X3240Y14210D01*
X3280Y14170D01*
X3320D01*
Y14210D01*
X3280Y14250D01*
X3320Y14290D01*
Y14330D01*
X3280D01*
X3240Y14290D01*
X3200Y14330D01*
X3160D01*
Y14290D01*
X3200Y14250D01*
X3160Y14210D01*
Y14170D01*
X-1863Y4789D02*
X-1823D01*
X-1783Y4829D01*
X-1743Y4789D01*
X-1703D01*
Y4829D01*
X-1743Y4869D01*
X-1703Y4909D01*
Y4949D01*
X-1743D01*
X-1783Y4909D01*
X-1823Y4949D01*
X-1863D01*
Y4909D01*
X-1823Y4869D01*
X-1863Y4829D01*
Y4789D01*
X-1093Y3439D02*
X-1053D01*
X-1013Y3479D01*
X-973Y3439D01*
X-933D01*
Y3479D01*
X-973Y3519D01*
X-933Y3559D01*
Y3599D01*
X-973D01*
X-1013Y3559D01*
X-1053Y3599D01*
X-1093D01*
Y3559D01*
X-1053Y3519D01*
X-1093Y3479D01*
Y3439D01*
X8043Y5520D02*
X8123Y5600D01*
X8203Y5520D01*
X8123Y5440D01*
X8043Y5520D01*
X-795Y4904D02*
Y5064D01*
X-635D01*
Y4904D01*
X-795D01*
X-755Y4944D02*
Y5024D01*
X-675D01*
Y4944D01*
X-755D01*
X9220Y13900D02*
X9260D01*
X9300Y13940D01*
X9340Y13900D01*
X9380D01*
Y13940D01*
X9340Y13980D01*
X9380Y14020D01*
Y14060D01*
X9340D01*
X9300Y14020D01*
X9260Y14060D01*
X9220D01*
Y14020D01*
X9260Y13980D01*
X9220Y13940D01*
Y13900D01*
X3840Y13950D02*
X3880D01*
X3920Y13990D01*
X3960Y13950D01*
X4000D01*
Y13990D01*
X3960Y14030D01*
X4000Y14070D01*
Y14110D01*
X3960D01*
X3920Y14070D01*
X3880Y14110D01*
X3840D01*
Y14070D01*
X3880Y14030D01*
X3840Y13990D01*
Y13950D01*
X7080Y12210D02*
X7120D01*
X7160Y12250D01*
X7200Y12210D01*
X7240D01*
Y12250D01*
X7200Y12290D01*
X7240Y12330D01*
Y12370D01*
X7200D01*
X7160Y12330D01*
X7120Y12370D01*
X7080D01*
Y12330D01*
X7120Y12290D01*
X7080Y12250D01*
Y12210D01*
X8850Y12860D02*
X8890D01*
X8930Y12900D01*
X8970Y12860D01*
X9010D01*
Y12900D01*
X8970Y12940D01*
X9010Y12980D01*
Y13020D01*
X8970D01*
X8930Y12980D01*
X8890Y13020D01*
X8850D01*
Y12980D01*
X8890Y12940D01*
X8850Y12900D01*
Y12860D01*
X7805Y12755D02*
X7845D01*
X7885Y12795D01*
X7925Y12755D01*
X7965D01*
Y12795D01*
X7925Y12835D01*
X7965Y12875D01*
Y12915D01*
X7925D01*
X7885Y12875D01*
X7845Y12915D01*
X7805D01*
Y12875D01*
X7845Y12835D01*
X7805Y12795D01*
Y12755D01*
X4285Y3774D02*
X4325D01*
X4365Y3814D01*
X4405Y3774D01*
X4445D01*
Y3814D01*
X4405Y3854D01*
X4445Y3894D01*
Y3934D01*
X4405D01*
X4365Y3894D01*
X4325Y3934D01*
X4285D01*
Y3894D01*
X4325Y3854D01*
X4285Y3814D01*
Y3774D01*
X6325Y2064D02*
X6365D01*
X6405Y2104D01*
X6445Y2064D01*
X6485D01*
Y2104D01*
X6445Y2144D01*
X6485Y2184D01*
Y2224D01*
X6445D01*
X6405Y2184D01*
X6365Y2224D01*
X6325D01*
Y2184D01*
X6365Y2144D01*
X6325Y2104D01*
Y2064D01*
X3765Y3774D02*
X3805D01*
X3845Y3814D01*
X3885Y3774D01*
X3925D01*
Y3814D01*
X3885Y3854D01*
X3925Y3894D01*
Y3934D01*
X3885D01*
X3845Y3894D01*
X3805Y3934D01*
X3765D01*
Y3894D01*
X3805Y3854D01*
X3765Y3814D01*
Y3774D01*
X6734Y4682D02*
X6814Y4762D01*
X6894Y4682D01*
X6814Y4602D01*
X6734Y4682D01*
X6295Y2894D02*
X6375Y2974D01*
X6455Y2894D01*
X6375Y2814D01*
X6295Y2894D01*
X7359Y14651D02*
X7399D01*
X7439Y14691D01*
X7479Y14651D01*
X7519D01*
Y14691D01*
X7479Y14731D01*
X7519Y14771D01*
Y14811D01*
X7479D01*
X7439Y14771D01*
X7399Y14811D01*
X7359D01*
Y14771D01*
X7399Y14731D01*
X7359Y14691D01*
Y14651D01*
X7714Y5219D02*
X7794Y5299D01*
X7874Y5219D01*
X7794Y5139D01*
X7714Y5219D01*
X7624Y5652D02*
X7704Y5732D01*
X7784Y5652D01*
X7704Y5572D01*
X7624Y5652D01*
X8173Y5068D02*
X8253Y5148D01*
X8333Y5068D01*
X8253Y4988D01*
X8173Y5068D01*
X9085Y5474D02*
X9125D01*
X9165Y5514D01*
X9205Y5474D01*
X9245D01*
Y5514D01*
X9205Y5554D01*
X9245Y5594D01*
Y5634D01*
X9205D01*
X9165Y5594D01*
X9125Y5634D01*
X9085D01*
Y5594D01*
X9125Y5554D01*
X9085Y5514D01*
Y5474D01*
X11770Y3518D02*
X11810D01*
X11850Y3558D01*
X11890Y3518D01*
X11930D01*
Y3558D01*
X11890Y3598D01*
X11930Y3638D01*
Y3678D01*
X11890D01*
X11850Y3638D01*
X11810Y3678D01*
X11770D01*
Y3638D01*
X11810Y3598D01*
X11770Y3558D01*
Y3518D01*
X11120Y3168D02*
X11160D01*
X11200Y3208D01*
X11240Y3168D01*
X11280D01*
Y3208D01*
X11240Y3248D01*
X11280Y3288D01*
Y3328D01*
X11240D01*
X11200Y3288D01*
X11160Y3328D01*
X11120D01*
Y3288D01*
X11160Y3248D01*
X11120Y3208D01*
Y3168D01*
X6335Y4354D02*
X6415Y4434D01*
X6495Y4354D01*
X6415Y4274D01*
X6335Y4354D01*
X6735Y4194D02*
X6815Y4274D01*
X6895Y4194D01*
X6815Y4114D01*
X6735Y4194D01*
X7135Y4444D02*
X7215Y4524D01*
X7295Y4444D01*
X7215Y4364D01*
X7135Y4444D01*
D107*
X-1343Y11709D02*
G03*
X-1343Y11709I-80J0D01*
G01*
X2127Y2919D02*
G03*
X2127Y2919I-80J0D01*
G01*
X1377Y2529D02*
G03*
X1377Y2529I-80J0D01*
G01*
D108*
X2087Y2919D02*
G03*
X2087Y2919I-40J0D01*
G01*
X1337Y2529D02*
G03*
X1337Y2529I-40J0D01*
G01*
M02*
