G04 Layer_Color=32768*
%FSLAX24Y24*%
%MOIN*%
G70*
G01*
G75*
%ADD99C,0.0039*%
%ADD105C,0.0020*%
%ADD106C,0.0020*%
D99*
X1887Y12236D02*
X2281D01*
X2084Y12039D02*
X2084Y12433D01*
X6895Y2327D02*
Y2721D01*
X6698Y2524D02*
X7092D01*
X2077Y14049D02*
Y14443D01*
X1880Y14246D02*
X2274D01*
X7393Y13440D02*
X7787D01*
X7590Y13243D02*
Y13637D01*
X3278Y2649D02*
X3672D01*
X3475Y2452D02*
Y2846D01*
X4534Y2649D02*
X4927D01*
X4731Y2452D02*
Y2846D01*
X4534Y3399D02*
X4927D01*
X4731Y3202D02*
Y3596D01*
X3278Y3399D02*
X3672D01*
X3475Y3202D02*
Y3596D01*
D105*
X3313Y11680D02*
X4090D01*
X3313Y13237D02*
X4090D01*
X3313Y11680D02*
Y13237D01*
X4090Y11680D02*
Y13237D01*
X3403Y14350D02*
X4180D01*
X3403Y15907D02*
X4180D01*
X3403Y14350D02*
Y15907D01*
X4180Y14350D02*
Y15907D01*
X1198Y10664D02*
Y11216D01*
Y10664D02*
X2202D01*
Y11216D01*
X1198Y11216D02*
X2202Y11216D01*
X8158Y13704D02*
Y14256D01*
Y13704D02*
X9162D01*
Y14256D01*
X8158D02*
X9162D01*
X8158Y13064D02*
Y13616D01*
Y13064D02*
X9162D01*
Y13616D01*
X8158D02*
X9162D01*
X3148Y13926D02*
X4152D01*
Y13374D02*
Y13926D01*
X3148Y13374D02*
X4152D01*
X3148D02*
Y13926D01*
X6474Y11982D02*
X7026D01*
Y12986D01*
X6474D02*
X7026D01*
X6474Y11982D02*
Y12986D01*
Y13032D02*
Y14036D01*
X7026D01*
Y13032D02*
Y14036D01*
X6474Y13032D02*
X7026D01*
X4340Y15492D02*
X4891D01*
Y16496D01*
X4340D02*
X4891D01*
X4340Y15492D02*
Y16496D01*
X4508Y13134D02*
X5512D01*
X4508D02*
Y13686D01*
X5512D01*
Y13134D02*
Y13686D01*
X5517Y13798D02*
Y14350D01*
X4513D02*
X5517D01*
X4513Y13798D02*
Y14350D01*
Y13798D02*
X5517D01*
X5859Y12297D02*
Y13301D01*
X6411D01*
Y12297D02*
Y13301D01*
X5859Y12297D02*
X6411D01*
X5947Y15879D02*
Y16430D01*
X4943D02*
X5947D01*
X4943Y15879D02*
Y16430D01*
Y15879D02*
X5947D01*
D106*
X3068Y11291D02*
Y13181D01*
X1375Y11291D02*
Y13181D01*
Y11291D02*
X3068D01*
X1375Y13181D02*
X3068Y13181D01*
X6580Y1953D02*
X7210D01*
X6580Y3095D02*
X7210D01*
X6580Y1953D02*
Y3095D01*
X7210Y1953D02*
Y3095D01*
X1368Y15191D02*
X3061D01*
X1368Y13301D02*
X3061D01*
X1368D02*
Y15191D01*
X3061Y13301D02*
Y15191D01*
X7098Y12948D02*
Y13932D01*
X8082Y12948D02*
Y13932D01*
X7098D02*
X8082D01*
X7098Y12948D02*
X8082D01*
X2904Y2334D02*
Y2964D01*
X4046Y2334D02*
Y2964D01*
X2904D02*
X4046D01*
X2904Y2334D02*
X4046D01*
X4160D02*
Y2964D01*
X5301Y2334D02*
Y2964D01*
X4160D02*
X5301D01*
X4160Y2334D02*
X5301D01*
X4160Y3084D02*
Y3714D01*
X5301Y3084D02*
Y3714D01*
X4160D02*
X5301D01*
X4160Y3084D02*
X5301D01*
X2904D02*
Y3714D01*
X4046Y3084D02*
Y3714D01*
X2904D02*
X4046D01*
X2904Y3084D02*
X4046D01*
M02*
