G04 Layer_Color=65535*
%FSLAX24Y24*%
%MOIN*%
G70*
G01*
G75*
%ADD27C,0.0080*%
%ADD29C,0.0100*%
%ADD52C,0.0098*%
%ADD53C,0.0160*%
%ADD54C,0.0079*%
%ADD55C,0.0077*%
%ADD56C,0.0124*%
D27*
X6124Y15404D02*
X6360D01*
X6124Y15085D02*
Y15404D01*
X6995D02*
X7235D01*
Y15085D02*
Y15404D01*
X4890Y11889D02*
Y12125D01*
Y11889D02*
X5209D01*
X4890Y12760D02*
Y13000D01*
X5209D01*
X4704Y15354D02*
X4940D01*
X4704Y15035D02*
Y15354D01*
X5575D02*
X5815D01*
Y15035D02*
Y15354D01*
X9162Y6065D02*
X9095Y5950D01*
X9129Y6007D01*
X9417Y5841D01*
X9442Y5750D01*
X9408Y5692D01*
X9317Y5668D01*
X9286Y6147D02*
X9262Y6238D01*
X9329Y6354D01*
X9420Y6378D01*
X9477Y6345D01*
X9502Y6254D01*
X9469Y6196D01*
X9502Y6254D01*
X9593Y6278D01*
X9651Y6245D01*
X9675Y6154D01*
X9608Y6038D01*
X9517Y6014D01*
X1320Y15770D02*
Y15437D01*
X1387Y15370D01*
X1520D01*
X1587Y15437D01*
Y15770D01*
X1986Y15370D02*
X1720D01*
X1986Y15637D01*
Y15703D01*
X1920Y15770D01*
X1787D01*
X1720Y15703D01*
X3862Y14328D02*
X3795Y14394D01*
X3662D01*
X3595Y14328D01*
Y14061D01*
X3662Y13994D01*
X3795D01*
X3862Y14061D01*
X3995Y14328D02*
X4062Y14394D01*
X4195D01*
X4262Y14328D01*
Y14261D01*
X4195Y14194D01*
X4128D01*
X4195D01*
X4262Y14128D01*
Y14061D01*
X4195Y13994D01*
X4062D01*
X3995Y14061D01*
X3062Y15718D02*
X2995Y15784D01*
X2862D01*
X2795Y15718D01*
Y15451D01*
X2862Y15384D01*
X2995D01*
X3062Y15451D01*
X3195Y15384D02*
X3328D01*
X3262D01*
Y15784D01*
X3195Y15718D01*
X5485Y2494D02*
Y2894D01*
X5685D01*
X5752Y2828D01*
Y2694D01*
X5685Y2628D01*
X5485D01*
X5618D02*
X5752Y2494D01*
X6152Y2894D02*
X5885D01*
Y2694D01*
X6018Y2761D01*
X6085D01*
X6152Y2694D01*
Y2561D01*
X6085Y2494D01*
X5952D01*
X5885Y2561D01*
X5445Y3194D02*
Y3594D01*
X5645D01*
X5712Y3528D01*
Y3394D01*
X5645Y3328D01*
X5445D01*
X5578D02*
X5712Y3194D01*
X6045D02*
Y3594D01*
X5845Y3394D01*
X6112D01*
X7105Y3214D02*
X6705D01*
Y3414D01*
X6772Y3481D01*
X6905D01*
X6972Y3414D01*
Y3214D01*
Y3348D02*
X7105Y3481D01*
X6772Y3614D02*
X6705Y3681D01*
Y3814D01*
X6772Y3881D01*
X6839D01*
X6905Y3814D01*
Y3747D01*
Y3814D01*
X6972Y3881D01*
X7038D01*
X7105Y3814D01*
Y3681D01*
X7038Y3614D01*
X3435Y3934D02*
Y4334D01*
X3635D01*
X3702Y4268D01*
Y4134D01*
X3635Y4068D01*
X3435D01*
X3568D02*
X3702Y3934D01*
X4102D02*
X3835D01*
X4102Y4201D01*
Y4268D01*
X4035Y4334D01*
X3902D01*
X3835Y4268D01*
X3535Y4454D02*
Y4854D01*
X3735D01*
X3802Y4788D01*
Y4654D01*
X3735Y4588D01*
X3535D01*
X3668D02*
X3802Y4454D01*
X3935D02*
X4068D01*
X4002D01*
Y4854D01*
X3935Y4788D01*
X8712Y12798D02*
X8645Y12864D01*
X8512D01*
X8445Y12798D01*
Y12531D01*
X8512Y12464D01*
X8645D01*
X8712Y12531D01*
X9112Y12464D02*
X8845D01*
X9112Y12731D01*
Y12798D01*
X9045Y12864D01*
X8912D01*
X8845Y12798D01*
X8717Y14703D02*
X8650Y14770D01*
X8517D01*
X8450Y14703D01*
Y14437D01*
X8517Y14370D01*
X8650D01*
X8717Y14437D01*
X9116Y14770D02*
X8983Y14703D01*
X8850Y14570D01*
Y14437D01*
X8917Y14370D01*
X9050D01*
X9116Y14437D01*
Y14503D01*
X9050Y14570D01*
X8850D01*
X5802Y15541D02*
Y15808D01*
X5735Y15874D01*
X5602D01*
X5535Y15808D01*
Y15541D01*
X5602Y15474D01*
X5735D01*
X5668Y15608D02*
X5802Y15474D01*
X5735D02*
X5802Y15541D01*
X5935Y15474D02*
X6068D01*
X6002D01*
Y15874D01*
X5935Y15808D01*
X5282Y11381D02*
Y11648D01*
X5215Y11714D01*
X5082D01*
X5015Y11648D01*
Y11381D01*
X5082Y11314D01*
X5215D01*
X5148Y11448D02*
X5282Y11314D01*
X5215D02*
X5282Y11381D01*
X5682Y11314D02*
X5415D01*
X5682Y11581D01*
Y11648D01*
X5615Y11714D01*
X5482D01*
X5415Y11648D01*
X7702Y15071D02*
Y15338D01*
X7635Y15404D01*
X7502D01*
X7435Y15338D01*
Y15071D01*
X7502Y15004D01*
X7635D01*
X7568Y15138D02*
X7702Y15004D01*
X7635D02*
X7702Y15071D01*
X7835Y15338D02*
X7902Y15404D01*
X8035D01*
X8102Y15338D01*
Y15271D01*
X8035Y15204D01*
X7968D01*
X8035D01*
X8102Y15138D01*
Y15071D01*
X8035Y15004D01*
X7902D01*
X7835Y15071D01*
X6105Y15874D02*
Y16274D01*
X6305D01*
X6372Y16208D01*
Y16074D01*
X6305Y16008D01*
X6105D01*
X6238D02*
X6372Y15874D01*
X6505D02*
X6638D01*
X6572D01*
Y16274D01*
X6505Y16208D01*
X6838D02*
X6905Y16274D01*
X7038D01*
X7105Y16208D01*
Y15941D01*
X7038Y15874D01*
X6905D01*
X6838Y15941D01*
Y16208D01*
X6325Y11549D02*
X5925D01*
Y11749D01*
X5992Y11815D01*
X6125D01*
X6192Y11749D01*
Y11549D01*
Y11682D02*
X6325Y11815D01*
X5925Y12215D02*
X5992Y12082D01*
X6125Y11948D01*
X6258D01*
X6325Y12015D01*
Y12148D01*
X6258Y12215D01*
X6192D01*
X6125Y12148D01*
Y11948D01*
X5665Y13964D02*
Y14364D01*
X5865D01*
X5932Y14298D01*
Y14164D01*
X5865Y14098D01*
X5665D01*
X5798D02*
X5932Y13964D01*
X6065Y14364D02*
X6332D01*
Y14298D01*
X6065Y14031D01*
Y13964D01*
X5655Y13444D02*
Y13844D01*
X5855D01*
X5922Y13778D01*
Y13644D01*
X5855Y13578D01*
X5655D01*
X5788D02*
X5922Y13444D01*
X6055Y13778D02*
X6122Y13844D01*
X6255D01*
X6322Y13778D01*
Y13711D01*
X6255Y13644D01*
X6322Y13578D01*
Y13511D01*
X6255Y13444D01*
X6122D01*
X6055Y13511D01*
Y13578D01*
X6122Y13644D01*
X6055Y13711D01*
Y13778D01*
X6122Y13644D02*
X6255D01*
X3575Y15934D02*
Y16334D01*
X3775D01*
X3842Y16268D01*
Y16134D01*
X3775Y16068D01*
X3575D01*
X3708D02*
X3842Y15934D01*
X3975Y16001D02*
X4042Y15934D01*
X4175D01*
X4242Y16001D01*
Y16268D01*
X4175Y16334D01*
X4042D01*
X3975Y16268D01*
Y16201D01*
X4042Y16134D01*
X4242D01*
X4277Y11673D02*
X4210Y11740D01*
X4077D01*
X4010Y11673D01*
Y11407D01*
X4077Y11340D01*
X4210D01*
X4277Y11407D01*
X4410Y11740D02*
X4676D01*
Y11673D01*
X4410Y11407D01*
Y11340D01*
X2537Y11053D02*
X2470Y11120D01*
X2337D01*
X2270Y11053D01*
Y10787D01*
X2337Y10720D01*
X2470D01*
X2537Y10787D01*
X2670Y11053D02*
X2737Y11120D01*
X2870D01*
X2936Y11053D01*
Y10987D01*
X2870Y10920D01*
X2936Y10853D01*
Y10787D01*
X2870Y10720D01*
X2737D01*
X2670Y10787D01*
Y10853D01*
X2737Y10920D01*
X2670Y10987D01*
Y11053D01*
X2737Y10920D02*
X2870D01*
X550Y12170D02*
Y11837D01*
X617Y11770D01*
X750D01*
X817Y11837D01*
Y12170D01*
X950Y12103D02*
X1017Y12170D01*
X1150D01*
X1216Y12103D01*
Y12037D01*
X1150Y11970D01*
X1083D01*
X1150D01*
X1216Y11903D01*
Y11837D01*
X1150Y11770D01*
X1017D01*
X950Y11837D01*
X7225Y14064D02*
Y14464D01*
X7425D01*
X7492Y14398D01*
Y14264D01*
X7425Y14198D01*
X7225D01*
X7358D02*
X7492Y14064D01*
X7625D02*
X7758D01*
X7692D01*
Y14464D01*
X7625Y14398D01*
X7958Y14064D02*
X8091D01*
X8025D01*
Y14464D01*
X7958Y14398D01*
X7315Y11934D02*
Y12334D01*
X7515D01*
X7582Y12268D01*
Y12134D01*
X7515Y12068D01*
X7315D01*
X7448D02*
X7582Y11934D01*
X7715D02*
X7848D01*
X7782D01*
Y12334D01*
X7715Y12268D01*
X8315Y11934D02*
X8048D01*
X8315Y12201D01*
Y12268D01*
X8248Y12334D01*
X8115D01*
X8048Y12268D01*
X7155Y12884D02*
Y12551D01*
X7222Y12484D01*
X7355D01*
X7422Y12551D01*
Y12884D01*
X7555Y12484D02*
X7688D01*
X7622D01*
Y12884D01*
X7555Y12818D01*
D29*
X7555Y1358D02*
G03*
X7555Y1358I-313J0D01*
G01*
X9164Y612D02*
X13435Y8011D01*
X7919Y1331D02*
X7987Y1291D01*
X7885Y1350D02*
X7919Y1331D01*
X11485Y8569D02*
X12157Y8749D01*
X13435Y8011D01*
X7705Y2023D02*
X11485Y8569D01*
X7705Y2023D02*
X7885Y1350D01*
X9164Y612D01*
X12288Y2607D02*
X12413Y2824D01*
X11743Y2922D02*
X11868Y3138D01*
X11840Y3090D02*
X12385Y2775D01*
X11868Y3138D02*
X12413Y2824D01*
X12272Y3799D02*
X12791Y3499D01*
X-2387Y3148D02*
X-2262Y2932D01*
X-2932Y2834D02*
X-2807Y2617D01*
X-2904Y2785D02*
X-2359Y3100D01*
X-2932Y2834D02*
X-2387Y3148D01*
X-3302Y3514D02*
X-2782Y3814D01*
X13318Y4387D02*
X13443Y4604D01*
X12773Y4702D02*
X12898Y4918D01*
X12870Y4870D02*
X13415Y4555D01*
X12898Y4918D02*
X13443Y4604D01*
X13302Y5579D02*
X13821Y5279D01*
X-3407Y4948D02*
X-3282Y4732D01*
X-3952Y4634D02*
X-3827Y4417D01*
X-3924Y4585D02*
X-3379Y4900D01*
X-3952Y4634D02*
X-3407Y4948D01*
X-4322Y5314D02*
X-3802Y5614D01*
X404Y2813D02*
X1270Y3313D01*
X270Y5045D02*
X1270Y3313D01*
X-597Y4545D02*
X270Y5045D01*
X-597Y4545D02*
X404Y2813D01*
X-2077Y7095D02*
X-1076Y5363D01*
X-2077Y7095D02*
X-1210Y7595D01*
X-210Y5863D01*
X-1076Y5363D02*
X-210Y5863D01*
D52*
X2901Y11330D02*
G03*
X2901Y11330I-49J0D01*
G01*
X2894Y13340D02*
G03*
X2894Y13340I-49J0D01*
G01*
D53*
X7106Y13962D02*
G03*
X7106Y13962I-77J0D01*
G01*
D54*
X1572Y11330D02*
X2596D01*
X1572D02*
Y11763D01*
Y13141D02*
X2596D01*
X1572Y12708D02*
Y13141D01*
X6688Y2485D02*
Y2564D01*
X7102Y2485D02*
Y2564D01*
X1565Y14718D02*
Y15151D01*
X2589D01*
X1565Y13340D02*
Y13773D01*
Y13340D02*
X2589D01*
X3436Y2856D02*
X3514D01*
X3436Y2443D02*
X3514D01*
X4691Y2856D02*
X4770D01*
X4691Y2443D02*
X4770D01*
X4691Y3606D02*
X4770D01*
X4691Y3193D02*
X4770D01*
X3436Y3606D02*
X3514D01*
X3436Y3193D02*
X3514D01*
D55*
X27Y2818D02*
X-277Y2642D01*
X-213Y2882D02*
X-37Y2578D01*
X-1433Y5418D02*
X-1737Y5242D01*
X-1673Y5482D02*
X-1497Y5178D01*
X5912Y17173D02*
X5951Y17134D01*
X6009Y17114D01*
X6087D01*
X6146Y17134D01*
X6185Y17173D01*
Y17212D01*
X6166Y17251D01*
X6146Y17270D01*
X6107Y17290D01*
X5990Y17329D01*
X5951Y17349D01*
X5931Y17368D01*
X5912Y17407D01*
Y17466D01*
X5951Y17505D01*
X6009Y17524D01*
X6087D01*
X6146Y17505D01*
X6185Y17466D01*
X5820Y17368D02*
X5586D01*
Y17329D01*
X5605Y17290D01*
X5625Y17270D01*
X5664Y17251D01*
X5722D01*
X5761Y17270D01*
X5800Y17310D01*
X5820Y17368D01*
Y17407D01*
X5800Y17466D01*
X5761Y17505D01*
X5722Y17524D01*
X5664D01*
X5625Y17505D01*
X5586Y17466D01*
X5498Y17368D02*
X5264D01*
Y17329D01*
X5283Y17290D01*
X5303Y17270D01*
X5342Y17251D01*
X5400D01*
X5439Y17270D01*
X5478Y17310D01*
X5498Y17368D01*
Y17407D01*
X5478Y17466D01*
X5439Y17505D01*
X5400Y17524D01*
X5342D01*
X5303Y17505D01*
X5264Y17466D01*
X5176Y17114D02*
Y17524D01*
Y17114D02*
X5019Y17524D01*
X4863Y17114D02*
X5019Y17524D01*
X4863Y17114D02*
Y17524D01*
X4746Y17368D02*
X4512D01*
Y17329D01*
X4531Y17290D01*
X4551Y17270D01*
X4590Y17251D01*
X4649D01*
X4688Y17270D01*
X4727Y17310D01*
X4746Y17368D01*
Y17407D01*
X4727Y17466D01*
X4688Y17505D01*
X4649Y17524D01*
X4590D01*
X4551Y17505D01*
X4512Y17466D01*
X4131Y17212D02*
X4151Y17173D01*
X4190Y17134D01*
X4229Y17114D01*
X4307D01*
X4346Y17134D01*
X4385Y17173D01*
X4404Y17212D01*
X4424Y17270D01*
Y17368D01*
X4404Y17427D01*
X4385Y17466D01*
X4346Y17505D01*
X4307Y17524D01*
X4229D01*
X4190Y17505D01*
X4151Y17466D01*
X4131Y17427D01*
X4016Y17114D02*
Y17524D01*
Y17114D02*
X3743Y17524D01*
Y17114D02*
Y17524D01*
X3336Y17212D02*
X3356Y17173D01*
X3395Y17134D01*
X3434Y17114D01*
X3512D01*
X3551Y17134D01*
X3590Y17173D01*
X3610Y17212D01*
X3629Y17270D01*
Y17368D01*
X3610Y17427D01*
X3590Y17466D01*
X3551Y17505D01*
X3512Y17524D01*
X3434D01*
X3395Y17505D01*
X3356Y17466D01*
X3336Y17427D01*
X1525Y5775D02*
X1170Y5570D01*
X1525Y5775D02*
X1613Y5623D01*
X1625Y5562D01*
X1618Y5536D01*
X1594Y5499D01*
X1560Y5480D01*
X1517Y5477D01*
X1490Y5484D01*
X1444Y5525D01*
X1356Y5677D01*
X1424Y5559D02*
X1307Y5333D01*
X1835Y5239D02*
X1708Y5459D01*
X1353Y5254D01*
X1479Y5034D01*
X1539Y5361D02*
X1617Y5226D01*
X1869Y5180D02*
X1592Y4840D01*
X2025Y4909D02*
X1592Y4840D01*
X1578Y4590D02*
X1734Y4320D01*
X2351Y4345D02*
X2253Y4514D01*
X2091Y4443D01*
X2118Y4435D01*
X2164Y4395D01*
X2194Y4344D01*
X2206Y4283D01*
X2192Y4230D01*
X2151Y4184D01*
X2117Y4164D01*
X2056Y4152D01*
X2003Y4166D01*
X1957Y4207D01*
X1928Y4258D01*
X1915Y4318D01*
X1922Y4345D01*
X1946Y4381D01*
X2534Y4028D02*
X2178Y3823D01*
X2364Y3931D02*
X2379Y3984D01*
X2376Y4028D01*
X2347Y4078D01*
X2310Y4102D01*
X2257Y4117D01*
X2197Y4104D01*
X2163Y4085D01*
X2122Y4039D01*
X2108Y3985D01*
X2110Y3942D01*
X2139Y3891D01*
X2176Y3867D01*
X2229Y3853D01*
X1145Y7935D02*
X790Y7730D01*
X1256Y7742D02*
X901Y7537D01*
X1188Y7861D02*
X1325Y7624D01*
X1476Y7362D02*
X1349Y7582D01*
X994Y7377D01*
X1121Y7157D01*
X1180Y7484D02*
X1258Y7349D01*
X1510Y7303D02*
X1155Y7098D01*
X1510Y7303D02*
X1233Y6962D01*
X1666Y7032D02*
X1233Y6962D01*
X1666Y7032D02*
X1311Y6827D01*
X1964Y6516D02*
X1422Y6361D01*
X2023Y6415D02*
X1481Y6260D01*
X1710Y6527D02*
X1847Y6291D01*
X1599Y6486D02*
X1735Y6249D01*
X2377Y5801D02*
X1924Y5765D01*
X2240Y6038D02*
X2377Y5801D01*
X2355Y5683D02*
X2392Y5659D01*
X2472Y5637D01*
X2117Y5432D01*
X2499Y5395D02*
X2515Y5405D01*
X2559Y5408D01*
X2586Y5401D01*
X2622Y5377D01*
X2661Y5309D01*
X2664Y5265D01*
X2657Y5239D01*
X2633Y5202D01*
X2599Y5183D01*
X2555Y5180D01*
X2485Y5185D01*
X2218Y5256D01*
X2355Y5019D01*
X2688Y5106D02*
X2725Y5082D01*
X2805Y5060D01*
X2450Y4855D01*
X2965Y4783D02*
X2919Y4824D01*
X2848Y4829D01*
X2754Y4797D01*
X2703Y4767D01*
X2629Y4702D01*
X2597Y4639D01*
X2610Y4578D01*
X2629Y4544D01*
X2675Y4503D01*
X2746Y4499D01*
X2840Y4531D01*
X2891Y4560D01*
X2966Y4626D01*
X2997Y4689D01*
X2984Y4749D01*
X2965Y4783D01*
X-145Y8585D02*
X-500Y8380D01*
X-8Y8348D02*
X-363Y8143D01*
X-314Y8487D02*
X-177Y8251D01*
X175Y8030D02*
X48Y8250D01*
X-307Y8045D01*
X-180Y7825D01*
X-121Y8153D02*
X-43Y8017D01*
X135Y7905D02*
X152Y7915D01*
X195Y7918D01*
X222Y7911D01*
X258Y7887D01*
X297Y7819D01*
X300Y7775D01*
X293Y7749D01*
X269Y7712D01*
X235Y7693D01*
X191Y7690D01*
X121Y7695D01*
X-146Y7766D01*
X-9Y7529D01*
X441Y7570D02*
X395Y7611D01*
X351Y7609D01*
X317Y7589D01*
X293Y7553D01*
X296Y7509D01*
X318Y7432D01*
X330Y7371D01*
X316Y7318D01*
X292Y7282D01*
X241Y7252D01*
X198Y7250D01*
X171Y7257D01*
X125Y7298D01*
X86Y7365D01*
X73Y7426D01*
X81Y7453D01*
X105Y7489D01*
X155Y7518D01*
X199Y7521D01*
X252Y7507D01*
X298Y7466D01*
X354Y7408D01*
X391Y7384D01*
X434Y7386D01*
X468Y7406D01*
X492Y7442D01*
X480Y7503D01*
X441Y7570D01*
X633Y7237D02*
X587Y7278D01*
X517Y7283D01*
X422Y7251D01*
X372Y7222D01*
X297Y7156D01*
X266Y7093D01*
X278Y7032D01*
X298Y6999D01*
X344Y6958D01*
X414Y6953D01*
X508Y6985D01*
X559Y7014D01*
X634Y7080D01*
X665Y7143D01*
X653Y7204D01*
X633Y7237D01*
X571Y6915D02*
X659Y6763D01*
X705Y6722D01*
X732Y6715D01*
X775Y6718D01*
X826Y6747D01*
X850Y6783D01*
X857Y6810D01*
X845Y6870D01*
X757Y7023D01*
X402Y6818D01*
X1002Y6404D02*
X1026Y6440D01*
X1040Y6494D01*
X1037Y6537D01*
X998Y6605D01*
X962Y6629D01*
X909Y6643D01*
X865Y6641D01*
X804Y6628D01*
X720Y6579D01*
X679Y6533D01*
X655Y6497D01*
X641Y6444D01*
X643Y6400D01*
X682Y6332D01*
X719Y6308D01*
X772Y6294D01*
X816Y6297D01*
X1144Y6353D02*
X789Y6148D01*
X1144Y6353D02*
X1232Y6201D01*
X1244Y6140D01*
X1237Y6114D01*
X1213Y6077D01*
X1179Y6058D01*
X1135Y6055D01*
X1109Y6062D01*
X1063Y6103D01*
X975Y6255D02*
X1063Y6103D01*
X1075Y6043D01*
X1068Y6016D01*
X1044Y5980D01*
X993Y5950D01*
X949Y5948D01*
X923Y5955D01*
X877Y5996D01*
X789Y6148D01*
X3271Y1836D02*
Y1484D01*
X3095Y1660D02*
X3447D01*
X-1066Y4412D02*
X-978Y4260D01*
X-932Y4219D01*
X-905Y4212D01*
X-861Y4214D01*
X-811Y4244D01*
X-787Y4280D01*
X-780Y4307D01*
X-792Y4367D01*
X-880Y4519D01*
X-1235Y4314D01*
X-896Y3728D02*
X-619Y4068D01*
X-1052Y3998D01*
X-905Y4016D02*
X-807Y3847D01*
X-493Y3850D02*
X-848Y3645D01*
X-493Y3850D02*
X-405Y3698D01*
X-393Y3637D01*
X-400Y3610D01*
X-424Y3574D01*
X-458Y3554D01*
X-502Y3552D01*
X-528Y3559D01*
X-574Y3600D01*
X-662Y3752D01*
X-594Y3634D02*
X-712Y3408D01*
X-242Y3415D02*
X-597Y3210D01*
X-311Y3534D02*
X-174Y3297D01*
X-2140Y6649D02*
X-2495Y6444D01*
X-2003Y6413D02*
X-2358Y6208D01*
X-2309Y6552D02*
X-2172Y6315D01*
X-1820Y6095D02*
X-1946Y6314D01*
X-2302Y6109D01*
X-2175Y5890D01*
X-2116Y6217D02*
X-2037Y6082D01*
X-2405Y8224D02*
Y7814D01*
Y8224D02*
X-2151D01*
X-2405Y8029D02*
X-2249D01*
X-1792Y7814D02*
X-1948Y8224D01*
X-2104Y7814D01*
X-2046Y7951D02*
X-1850D01*
X-1696Y8224D02*
Y7814D01*
Y8224D02*
X-1423Y7814D01*
Y8224D02*
Y7814D01*
X-1036Y8166D02*
X-1075Y8205D01*
X-1134Y8224D01*
X-1212D01*
X-1270Y8205D01*
X-1310Y8166D01*
Y8127D01*
X-1290Y8088D01*
X-1270Y8068D01*
X-1231Y8049D01*
X-1114Y8010D01*
X-1075Y7990D01*
X-1056Y7970D01*
X-1036Y7931D01*
Y7873D01*
X-1075Y7834D01*
X-1134Y7814D01*
X-1212D01*
X-1270Y7834D01*
X-1310Y7873D01*
D56*
X366Y10817D02*
Y10254D01*
X85Y10535D02*
X647D01*
M02*
