G04 Layer_Color=32896*
%FSLAX24Y24*%
%MOIN*%
G70*
G01*
G75*
%ADD98C,0.0040*%
%ADD99C,0.0039*%
%ADD100C,0.0060*%
%ADD101R,0.0575X0.0300*%
%ADD102R,0.0575X0.0295*%
%ADD103R,0.0138X0.0315*%
%ADD104R,0.0315X0.0138*%
D98*
X3440Y12310D02*
Y12600D01*
X3960Y12310D02*
Y12610D01*
X3530Y14980D02*
Y15270D01*
X4050Y14980D02*
Y15280D01*
X1523Y10802D02*
X1877Y10802D01*
X8483Y13842D02*
X8837D01*
X8483Y13202D02*
X8837D01*
X3473Y13512D02*
X3827D01*
X6888Y12307D02*
Y12661D01*
Y13357D02*
Y13711D01*
X4753Y15817D02*
Y16171D01*
X4833Y13548D02*
X5187D01*
X4838Y14212D02*
X5192D01*
X6273Y12621D02*
Y12976D01*
X5268Y16292D02*
X5622D01*
D99*
X1523Y11078D02*
X1877Y11078D01*
X8483Y14118D02*
X8837D01*
X8483Y13478D02*
X8837D01*
X3473Y13788D02*
X3827D01*
X6612Y12307D02*
Y12661D01*
Y13357D02*
Y13711D01*
X4477Y15817D02*
Y16171D01*
X4833Y13272D02*
X5187D01*
X4838Y13936D02*
X5192D01*
X5997Y12621D02*
Y12976D01*
X5268Y16016D02*
X5622D01*
D100*
X7235Y14864D02*
Y15384D01*
X6115Y14864D02*
X7235D01*
X6115D02*
Y15384D01*
X7235D01*
X4910Y13000D02*
X5430D01*
Y11880D02*
Y13000D01*
X4910Y11880D02*
X5430D01*
X4910D02*
Y13000D01*
X5815Y14814D02*
Y15334D01*
X4695Y14814D02*
X5815D01*
X4695D02*
Y15334D01*
X5815D01*
D101*
X3702Y12170D02*
D03*
X3792Y14840D02*
D03*
D102*
X3702Y12742D02*
D03*
X3792Y15412D02*
D03*
D103*
X1946Y10940D02*
D03*
X1454D02*
D03*
X8906Y13980D02*
D03*
X8414D02*
D03*
X8906Y13340D02*
D03*
X8414D02*
D03*
X3404Y13650D02*
D03*
X3896D02*
D03*
X5256Y13410D02*
D03*
X4764D02*
D03*
X4769Y14074D02*
D03*
X5261D02*
D03*
X5199Y16154D02*
D03*
X5691D02*
D03*
D104*
X6750Y12730D02*
D03*
X6750Y12238D02*
D03*
X6750Y13288D02*
D03*
X6750Y13780D02*
D03*
X4615Y16240D02*
D03*
Y15748D02*
D03*
X6135Y12553D02*
D03*
X6135Y13045D02*
D03*
M02*
